<svg width="209" height="101" viewBox="0 0 209 101" fill="none" xmlns="http://www.w3.org/2000/svg">
<path fill-rule="evenodd" clip-rule="evenodd" d="M79.9744 35.8893C73.2608 21.9619 57.2337 14.4903 41.7845 18.9203C26.2768 23.3671 16.63 38.292 18.4094 53.7228C17.5931 53.6113 16.7402 53.664 15.8964 53.9059C12.6616 54.8335 10.7869 58.1927 11.7091 61.4089C12.6313 64.6252 16.0013 66.4805 19.2362 65.5529C20.1091 65.3026 20.8829 64.8753 21.5295 64.3215C28.3143 78.0865 44.2408 85.4411 59.5964 81.038C74.8913 76.6522 84.4851 62.0737 83.0383 46.8701C83.7366 46.9207 84.456 46.8515 85.1688 46.6471C88.4036 45.7195 90.2784 42.3603 89.3561 39.144C88.4339 35.9278 85.0639 34.0724 81.8291 35C81.1456 35.196 80.5229 35.5005 79.9744 35.8893V35.8893Z" stroke="#263238" stroke-width="2" stroke-linecap="round" stroke-linejoin="round"/>
<path d="M41.0486 47.9048C40.3631 45.5144 37.884 44.1282 35.5112 44.8086C33.1384 45.489 31.7705 47.9783 32.4559 50.3687" stroke="#263238" stroke-width="2" stroke-linecap="round" stroke-linejoin="round"/>
<path d="M65.5984 40.8652C64.9129 38.4749 62.4338 37.0886 60.061 37.769C57.6882 38.4494 56.3203 40.9388 57.0057 43.3291" stroke="#263238" stroke-width="2" stroke-linecap="round" stroke-linejoin="round"/>
<path fill-rule="evenodd" clip-rule="evenodd" d="M43.4482 58.5918L60.6335 53.664C62.0044 58.4447 59.2686 63.4234 54.523 64.7842C49.7775 66.145 44.8191 63.3725 43.4482 58.5918Z" stroke="#263238" stroke-width="2" stroke-linecap="round" stroke-linejoin="round"/>
<path d="M45.4335 29.4309C49.2159 26.2253 45.8364 22.6655 43.0564 23.4627C40.4884 24.199 39.008 26.8931 39.7498 29.4801C40.6399 32.5845 43.8597 34.3847 46.9412 33.5011C50.6391 32.4408 52.7708 28.5613 51.7026 24.836C50.4208 20.3657 45.7845 17.7733 41.347 19.0458" stroke="#263238" stroke-width="2" stroke-linecap="round" stroke-linejoin="round"/>
<path fill-rule="evenodd" clip-rule="evenodd" d="M128.599 38.4203C127.966 37.8932 127.214 37.4859 126.371 37.244C123.136 36.3164 119.766 38.1717 118.844 41.388C117.921 44.6042 119.796 47.9634 123.031 48.891C123.904 49.1413 124.787 49.189 125.628 49.0619C124.088 64.3307 133.697 79.0076 149.053 83.4107C164.348 87.7965 180.209 80.5172 187.039 66.857C187.604 67.27 188.251 67.5925 188.964 67.7969C192.198 68.7245 195.568 66.8691 196.491 63.6529C197.413 60.4366 195.538 57.0774 192.303 56.1498C191.62 55.9538 190.93 55.8821 190.259 55.9212C191.131 47.9802 188.981 40.1833 184.567 33.8905C180.071 46.2043 172.726 37.1028 168.898 30.8986C169.734 30.1331 170.375 29.1358 170.71 27.9682C171.091 26.637 171.018 25.2826 170.582 24.0697C171.078 23.82 171.604 23.565 172.15 23.3127C170.478 22.5019 168.713 21.8231 166.865 21.2931C164.808 20.7032 162.74 20.3244 160.686 20.1437C160.831 20.3671 160.973 20.5886 161.11 20.8072C159.831 21.6124 158.833 22.8705 158.385 24.4341C157.983 25.8333 158.085 27.2582 158.582 28.5174C152.096 31.5998 142.165 34.6394 144.341 22.9627C137.58 26.0523 131.921 31.4318 128.599 38.4203Z" stroke="#263238" stroke-width="2" stroke-linecap="round" stroke-linejoin="round"/>
<path d="M151.675 45.5081C152.355 43.1382 150.974 40.6632 148.592 39.9801C146.21 39.297 143.727 40.6643 143.048 43.0342" stroke="#263238" stroke-width="2" stroke-linecap="round" stroke-linejoin="round"/>
<path d="M175.092 52.2229C175.772 49.853 174.391 47.3781 172.009 46.6949C169.627 46.0118 167.144 47.3792 166.465 49.749" stroke="#263238" stroke-width="2" stroke-linecap="round" stroke-linejoin="round"/>
<path d="M164.709 60.5234C163.35 65.2632 158.386 67.9979 153.621 66.6316C148.856 65.2653 146.095 60.3154 147.454 55.5757" stroke="#263238" stroke-width="2" stroke-linecap="round" stroke-linejoin="round"/>
<ellipse cx="164.547" cy="26.2008" rx="6.41081" ry="6.37707" transform="rotate(16 164.547 26.2008)" fill="#FF6363" stroke="#263238" stroke-width="2" stroke-linecap="round" stroke-linejoin="round"/>
<path d="M171.018 28.0564L177.796 30.0001" stroke="#263238" stroke-width="2" stroke-linecap="round" stroke-linejoin="round"/>
<path d="M150.99 22.3132L157.769 24.257" stroke="#263238" stroke-width="2" stroke-linecap="round" stroke-linejoin="round"/>
<path fill-rule="evenodd" clip-rule="evenodd" d="M168.898 30.8982C172.925 37.4235 180.84 47.1536 185.242 31.8031C189.713 16.2116 177.398 20.642 170.582 24.0693C171.018 25.2822 171.092 26.6366 170.71 27.9679C170.375 29.1355 169.734 30.1327 168.898 30.8982Z" fill="#FF6363" stroke="#263238" stroke-width="2" stroke-linecap="round" stroke-linejoin="round"/>
<path fill-rule="evenodd" clip-rule="evenodd" d="M158.582 28.5174C151.637 31.8176 140.743 35.0688 144.989 20.2614C149.311 5.19025 157.02 14.2953 161.11 20.8072C159.83 21.6123 158.833 22.8705 158.384 24.4341C157.983 25.8333 158.085 27.2582 158.582 28.5174Z" fill="#FF6363" stroke="#263238" stroke-width="2" stroke-linecap="round" stroke-linejoin="round"/>
</svg>
