<svg width="290" height="300" viewBox="0 0 290 300" fill="none" xmlns="http://www.w3.org/2000/svg">
<path d="M257.541 33C293.017 49.8496 291.998 109.784 281.414 138.481C265.184 182.49 312.73 246.698 272.845 281.921C240.591 310.407 159.687 285.718 132.805 289.523C98.3898 294.394 55.113 311.813 34.4627 281.921C20.3449 261.485 48.1081 229.881 42.0172 205.309C36.4098 182.688 10.0088 152.025 4.99179 129.245C-5.41881 81.9758 -1.15786 7.56114 57.2868 0.48496C88.3928 -3.28119 120.018 15.15 137.37 46.6614C154.722 78.1728 203.778 7.46465 257.541 33Z" fill="#B99AC8" fill-opacity="0.15"/>
<path d="M88.7659 104.849L100.269 101.483C104.13 100.34 108.073 99.4813 112.064 98.9137C116.115 98.2699 120.233 98.1272 124.321 98.4888C126.455 98.6961 128.548 99.2025 130.536 99.9925C132.656 100.853 134.473 102.307 135.76 104.174C136.073 104.705 136.282 105.174 136.594 105.705L136.887 106.502C136.95 106.747 137.117 107.053 137.18 107.298L137.996 110.137L139.546 115.835C140.613 119.654 141.681 123.474 142.645 127.232L148.782 150.127L154.752 173.063L160.556 196.04C162.526 203.72 164.308 211.359 166.277 219.038C167.262 222.878 168.164 226.738 169.044 230.517L170.428 236.256L171.078 239.136L171.791 241.914C170.462 242.242 174.698 241.195 168.904 242.714L168.883 242.633L171.791 241.914C171.882 242.57 171.905 243.235 171.857 243.896C171.797 244.484 171.68 245.066 171.508 245.633L171.281 246.471L170.95 247.247L170.619 248.024L170.185 248.74C169.911 249.229 169.584 249.689 169.211 250.11L168.113 251.337C167.336 252.102 166.52 252.826 165.666 253.506C162.25 256.019 158.482 258.033 154.48 259.487C152.529 260.144 150.536 260.984 148.542 261.477C146.549 261.97 144.514 262.647 142.5 263.058L139.489 263.716L137.973 264.004L136.436 264.21L130.33 265.199C134.4 264.193 138.408 263.288 142.332 262.057C143.307 261.729 144.304 261.483 145.28 261.154L148.186 260.088C150.138 259.432 152.047 258.612 153.874 257.813C154.829 257.403 155.68 256.932 156.635 256.522L157.963 255.846L158.668 255.498L159.27 255.088L161.864 253.491L164.228 251.69C164.947 251.042 165.626 250.352 166.26 249.624L167.13 248.54C167.41 248.174 167.665 247.792 167.896 247.395L168.269 246.781L168.559 246.188L168.848 245.595L169.034 244.941C169.157 244.529 169.226 244.104 169.239 243.674C169.28 243.49 169.217 243.245 169.258 243.061C169.242 243.018 169.235 242.972 169.238 242.926C169.242 242.88 169.255 242.836 169.279 242.796L169.216 242.551L172.123 241.832C166.33 243.351 170.545 242.222 169.216 242.551L168.503 239.773L167.687 236.934L166.137 231.236C165.07 227.417 164.002 223.597 163.038 219.839C160.986 212.18 158.954 204.603 156.985 196.924L151.014 173.987L145.21 151.01L139.572 127.992C138.587 124.152 137.685 120.292 136.805 116.513L135.421 110.774L134.771 107.894L134.457 106.668C134.269 106.28 134.081 105.892 133.914 105.586C132.994 104.132 131.653 102.981 130.063 102.281C128.346 101.499 126.516 100.985 124.638 100.756C120.75 100.281 116.823 100.204 112.919 100.527C108.95 100.913 105.005 101.511 101.102 102.32C96.5743 103.266 92.6286 104.068 88.7659 104.849Z" fill="white"/>
<path d="M89.2769 237.033L92.1472 248.225C92.4895 249.493 93.0823 250.681 93.8916 251.724C94.701 252.766 95.7111 253.642 96.8643 254.301C98.0175 254.959 99.2912 255.388 100.613 255.563C101.934 255.738 103.277 255.655 104.566 255.319L152.575 243.446C153.872 243.142 155.095 242.591 156.174 241.822C157.254 241.054 158.169 240.083 158.866 238.967C159.564 237.85 160.032 236.61 160.242 235.315C160.452 234.02 160.401 232.698 160.091 231.422L132.336 123.199C131.994 121.931 131.401 120.742 130.592 119.7C129.783 118.658 128.773 117.782 127.619 117.123C126.466 116.465 125.192 116.036 123.871 115.861C122.55 115.686 121.206 115.769 119.918 116.105L71.9089 127.978C70.6121 128.282 69.3891 128.833 68.3096 129.602C67.23 130.37 66.3152 131.34 65.6172 132.457C64.9193 133.574 64.4519 134.814 64.2419 136.109C64.0318 137.403 64.0831 138.726 64.3929 140.002L85.5957 222.679" fill="#FEFFFF"/>
<path d="M89.2769 237.033L92.1472 248.225C92.4895 249.493 93.0823 250.681 93.8916 251.724C94.701 252.766 95.7111 253.642 96.8643 254.3C98.0175 254.959 99.2912 255.388 100.613 255.563C101.934 255.738 103.277 255.655 104.566 255.319L152.575 243.446C153.872 243.142 155.095 242.591 156.174 241.822C157.254 241.054 158.169 240.083 158.866 238.967C159.564 237.85 160.032 236.61 160.242 235.315C160.452 234.02 160.401 232.698 160.091 231.422L132.336 123.199C131.994 121.931 131.401 120.742 130.592 119.7C129.783 118.658 128.773 117.782 127.619 117.123C126.466 116.465 125.192 116.036 123.871 115.861C122.55 115.686 121.206 115.769 119.918 116.105L71.9089 127.978C70.6121 128.282 69.3891 128.833 68.3096 129.602C67.23 130.37 66.3152 131.34 65.6172 132.457C64.9193 133.574 64.4519 134.814 64.2419 136.109C64.0318 137.403 64.0831 138.726 64.3929 140.002L85.5957 222.679" stroke="#F4ACC4" stroke-width="1.55" stroke-miterlimit="10" stroke-linecap="round"/>
<path d="M85.7276 151.562C85.5311 150.979 85.4586 150.362 85.5144 149.75C85.5703 149.139 85.7534 148.545 86.0524 148.006C86.4449 147.366 87.006 146.842 87.6765 146.489C88.347 146.137 89.102 145.969 89.8618 146.003C90.6216 146.038 91.3579 146.274 91.993 146.686C92.6281 147.098 93.1385 147.67 93.4702 148.344C93.6216 148.649 93.734 148.971 93.8047 149.303" stroke="#010202" stroke-width="2.06667" stroke-linecap="round" stroke-linejoin="round"/>
<path d="M163.421 205.501L138.615 108.772C134.739 93.658 108.367 100.354 104.484 101.053L78.652 107.442C74.8941 108.632 48.4389 115.001 52.3149 130.114L59.5641 158.382" stroke="#F4ACC4" stroke-width="1.55" stroke-miterlimit="10" stroke-linecap="round"/>
<path d="M150.382 257.982C145.483 259.542 139.461 261.204 132.276 262.808C89.6884 274.122 87.3029 266.198 85.6058 259.58L63.8164 174.616" stroke="#F4ACC4" stroke-width="1.55" stroke-miterlimit="10" stroke-linecap="round"/>
<path d="M158.147 255.204C174.317 248.685 173.059 243.089 171.802 238.187L163.212 204.692" stroke="#F4ACC4" stroke-width="1.55" stroke-miterlimit="10" stroke-linecap="round"/>
<path d="M84.0732 116.525C90.0609 113.095 96.9138 111.401 103.842 111.636" stroke="#F4ACC4" stroke-width="1.55" stroke-miterlimit="10" stroke-linecap="round"/>
<path d="M119.252 143.267C119.144 142.662 118.91 142.085 118.566 141.573C118.222 141.06 117.774 140.622 117.251 140.287C116.596 139.905 115.849 139.705 115.089 139.706C114.328 139.707 113.582 139.911 112.93 140.295C112.277 140.678 111.743 141.229 111.382 141.887C111.021 142.545 110.848 143.287 110.881 144.034C110.894 144.373 110.951 144.709 111.049 145.035" stroke="#010202" stroke-width="2.06667" stroke-linecap="round" stroke-linejoin="round"/>
<path d="M87.4316 229.499L87.7877 230.887" stroke="#224796" stroke-width="1.55" stroke-miterlimit="10" stroke-linecap="round"/>
<path d="M61.2617 164.645L61.6178 166.033" stroke="#224796" stroke-width="1.55" stroke-miterlimit="10" stroke-linecap="round"/>
<path d="M99.5043 154.373C99.5043 154.373 103.317 158.217 109.148 154.09C109.897 153.566 110.317 152.932 110.108 152.185C109.899 151.437 110.676 150.611 108.509 150.842C107.913 150.9 107.332 151.067 106.799 151.335C106.1 151.802 105.312 152.127 104.484 152.29C103.655 152.454 102.801 152.452 101.972 152.285C101.972 152.285 98.0487 151.831 99.5043 154.373Z" fill="#010202" stroke="#010202" stroke-width="0.516667" stroke-miterlimit="10"/>
<path d="M116.48 164.333C116.48 164.333 122.999 174.528 128.689 180.94C130.18 182.656 132.896 181.811 133.642 180.931C135.818 178.568 136.425 178.592 141.286 168.789" stroke="#010202" stroke-width="2.58333" stroke-miterlimit="10" stroke-linecap="round"/>
<path d="M96.0272 169.404C96.0272 169.404 95.2032 181.415 93.2847 189.708C92.7991 191.913 89.9996 192.432 88.91 192.006C85.8536 190.938 85.3307 191.241 76.3293 184.866" stroke="#010202" stroke-width="2.58333" stroke-miterlimit="10" stroke-linecap="round"/>
<path d="M233.252 130.369L222.783 125.187C219.271 123.434 215.633 121.941 211.898 120.719C208.119 119.414 204.191 118.578 200.206 118.231C198.123 118.068 196.029 118.199 193.986 118.62C191.805 119.086 189.815 120.174 188.263 121.747C187.872 122.203 187.592 122.618 187.202 123.075L186.786 123.79C186.684 124.014 186.472 124.28 186.37 124.504L185.105 127.091L182.651 132.297C180.978 135.781 179.305 139.265 177.742 142.709L167.968 163.642L158.346 184.643L148.876 205.711C145.683 212.747 142.676 219.777 139.483 226.813C137.886 230.331 136.366 233.883 134.88 237.36L132.578 242.634L131.465 245.288L130.31 247.833C131.53 248.374 127.642 246.65 132.944 249.091L132.978 249.016L130.31 247.833C130.111 248.448 129.976 249.081 129.91 249.724C129.868 250.299 129.881 250.877 129.951 251.45L130.026 252.293L130.212 253.095L130.397 253.897L130.693 254.657C130.873 255.173 131.108 255.67 131.395 256.137L132.241 257.502C132.856 258.368 133.517 259.201 134.222 259.999C137.074 262.99 140.348 265.562 143.942 267.637C145.704 268.598 147.474 269.743 149.304 270.554C151.133 271.365 152.971 272.36 154.835 273.097L157.613 274.239L159.019 274.773L160.46 275.232L166.152 277.217C162.417 275.56 158.724 274.012 155.166 272.165C154.285 271.684 153.371 271.279 152.49 270.798L149.881 269.281C148.119 268.32 146.426 267.21 144.808 266.132C143.961 265.577 143.225 264.981 142.378 264.425L141.218 263.551L140.6 263.097L140.092 262.602L137.873 260.629L135.909 258.499C135.329 257.755 134.795 256.978 134.31 256.171L133.659 254.983C133.453 254.585 133.272 254.174 133.118 253.754L132.864 253.102L132.687 252.484L132.509 251.866L132.442 251.207C132.393 250.79 132.399 250.37 132.46 249.956C132.452 249.772 132.554 249.548 132.546 249.364C132.569 249.326 132.584 249.283 132.588 249.238C132.592 249.193 132.587 249.148 132.571 249.106L132.673 248.881L130.005 247.698C135.308 250.139 131.454 248.34 132.673 248.881L133.828 246.336L135.094 243.75L137.548 238.544C139.221 235.059 140.893 231.575 142.456 228.132C145.726 221.129 148.961 214.201 152.154 207.165L161.776 186.164L171.246 165.096L180.563 143.96C182.16 140.442 183.68 136.889 185.167 133.412L187.468 128.139L188.581 125.485L189.091 124.362C189.337 124.022 189.583 123.681 189.795 123.415C190.925 122.176 192.407 121.299 194.051 120.897C195.833 120.438 197.677 120.254 199.518 120.354C203.33 120.557 207.112 121.15 210.804 122.122C214.548 123.166 218.233 124.41 221.842 125.848C226.027 127.524 229.678 128.963 233.252 130.369Z" fill="white"/>
<path d="M210.33 257.141L205.676 267.396C205.133 268.554 204.362 269.595 203.408 270.458C202.455 271.321 201.337 271.99 200.118 272.426C198.899 272.863 197.604 273.059 196.306 273.002C195.008 272.946 193.733 272.638 192.554 272.097L148.49 252.556C147.297 252.044 146.217 251.307 145.311 250.386C144.405 249.466 143.692 248.379 143.211 247.189C142.731 245.999 142.493 244.729 142.511 243.451C142.529 242.173 142.803 240.912 143.317 239.74L188.318 140.579C188.861 139.421 189.632 138.38 190.586 137.517C191.539 136.654 192.657 135.985 193.876 135.548C195.095 135.112 196.39 134.916 197.688 134.973C198.986 135.029 200.261 135.337 201.44 135.878L245.504 155.419C246.697 155.931 247.777 156.668 248.683 157.588C249.589 158.509 250.302 159.596 250.783 160.786C251.263 161.976 251.501 163.246 251.483 164.524C251.465 165.802 251.191 167.063 250.677 168.235L216.299 243.989" fill="#FEFFFF"/>
<path d="M210.33 257.141L205.676 267.396C205.133 268.554 204.362 269.595 203.408 270.458C202.455 271.321 201.337 271.99 200.118 272.426C198.899 272.863 197.604 273.059 196.306 273.002C195.008 272.946 193.733 272.638 192.554 272.097L148.49 252.556C147.297 252.044 146.217 251.307 145.311 250.386C144.405 249.466 143.692 248.379 143.211 247.189C142.731 245.999 142.493 244.729 142.511 243.451C142.529 242.173 142.803 240.912 143.317 239.74L188.318 140.579C188.861 139.421 189.632 138.38 190.586 137.517C191.539 136.654 192.657 135.985 193.876 135.548C195.095 135.112 196.39 134.916 197.688 134.973C198.986 135.029 200.261 135.337 201.44 135.878L245.504 155.419C246.697 155.931 247.777 156.668 248.683 157.588C249.589 158.509 250.302 159.596 250.783 160.786C251.263 161.976 251.501 163.246 251.483 164.524C251.465 165.802 251.191 167.063 250.677 168.235L216.299 243.989" stroke="#79A8F0" stroke-width="1.55" stroke-miterlimit="10" stroke-linecap="round"/>
<path d="M228.242 175.714C228.53 175.188 228.704 174.609 228.754 174.012C228.804 173.416 228.729 172.815 228.534 172.247C228.266 171.566 227.816 170.967 227.232 170.515C226.649 170.063 225.952 169.774 225.217 169.678C224.482 169.583 223.736 169.684 223.056 169.971C222.377 170.259 221.79 170.722 221.357 171.312C221.16 171.579 220.997 171.87 220.873 172.177" stroke="#79A8F0" stroke-width="2.06667" stroke-linecap="round" stroke-linejoin="round"/>
<path d="M144.52 214.287L184.742 125.658C191.026 111.81 215.201 122.71 218.809 124.041L242.518 134.556C245.923 136.335 270.234 146.937 263.949 160.785L252.195 186.685" stroke="#79A8F0" stroke-width="1.55" stroke-miterlimit="10" stroke-linecap="round"/>
<path d="M148.13 266.875C152.568 269.203 158.065 271.821 164.689 274.578C203.644 292.664 207.278 285.463 210.03 279.4L245.359 201.55" stroke="#79A8F0" stroke-width="1.55" stroke-miterlimit="10" stroke-linecap="round"/>
<path d="M141.149 262.893C126.735 253.893 128.892 248.735 130.93 244.244L144.858 213.553" stroke="#79A8F0" stroke-width="1.55" stroke-miterlimit="10" stroke-linecap="round"/>
<path d="M235.772 142.356C230.607 138.048 224.318 135.258 217.628 134.309" stroke="#79A8F0" stroke-width="1.55" stroke-miterlimit="10" stroke-linecap="round"/>
<path d="M197.472 162.064C197.679 161.502 198.001 160.988 198.418 160.554C198.835 160.121 199.339 159.776 199.898 159.543C200.591 159.288 201.342 159.222 202.072 159.353C202.802 159.483 203.483 159.805 204.044 160.284C204.605 160.763 205.025 161.382 205.26 162.075C205.494 162.767 205.535 163.509 205.377 164.221C205.306 164.544 205.194 164.857 205.045 165.153" stroke="#79A8F0" stroke-width="2.06667" stroke-linecap="round" stroke-linejoin="round"/>
<path d="M213.379 250.232L212.802 251.504" stroke="#224796" stroke-width="1.55" stroke-miterlimit="10" stroke-linecap="round"/>
<path d="M249.504 192.421L248.927 193.693" stroke="#224796" stroke-width="1.55" stroke-miterlimit="10" stroke-linecap="round"/>
<path d="M214.541 176.077C214.541 176.077 210.23 179.119 205.333 174.169C204.703 173.539 204.408 172.859 204.735 172.178C205.063 171.496 204.457 170.571 206.497 171.161C207.06 171.317 207.589 171.576 208.056 171.924C208.647 172.491 209.348 172.936 210.115 173.233C210.883 173.531 211.703 173.674 212.527 173.655C212.527 173.655 216.369 173.884 214.541 176.077Z" fill="#79A8F0" stroke="#79A8F0" stroke-width="0.516667" stroke-miterlimit="10"/>
<path d="M196.559 182.759C196.559 182.759 188.572 191.438 182.024 196.626C180.301 198.021 177.838 196.748 177.271 195.778C175.583 193.141 174.997 193.061 171.995 182.827" stroke="#79A8F0" stroke-width="2.58333" stroke-miterlimit="10" stroke-linecap="round"/>
<path d="M215.329 191.081C215.329 191.081 214.082 202.749 214.516 211.034C214.608 213.233 217.207 214.206 218.325 213.982C221.439 213.475 221.89 213.855 231.611 209.264" stroke="#79A8F0" stroke-width="2.58333" stroke-miterlimit="10" stroke-linecap="round"/>
</svg>
