<svg width="104" height="101" viewBox="0 0 104 101" fill="none" xmlns="http://www.w3.org/2000/svg">
<path fill-rule="evenodd" clip-rule="evenodd" d="M91.8328 44.0348C88.5959 25.1699 72.0727 10.8094 52.176 10.8094C32.204 10.8094 15.6311 25.2787 12.483 44.2491C11.5497 43.8379 10.5167 43.6094 9.43011 43.6094C5.26401 43.6094 1.88672 46.9673 1.88672 51.1094C1.88672 55.2516 5.26401 58.6094 9.43011 58.6094C10.5543 58.6094 11.621 58.3649 12.5795 57.9265C15.9564 76.6225 32.3999 90.8094 52.176 90.8094C71.874 90.8094 88.2656 76.7344 91.7319 58.1478C92.5456 58.4464 93.4253 58.6094 94.3433 58.6094C98.5094 58.6094 101.887 55.2516 101.887 51.1094C101.887 46.9673 98.5094 43.6094 94.3433 43.6094C93.4631 43.6094 92.6181 43.7593 91.8328 44.0348V44.0348Z" stroke="#263238" stroke-width="3" stroke-linecap="round" stroke-linejoin="round"/>
<path d="M41.41 45.0504C41.41 41.9719 38.9328 39.4763 35.8769 39.4763C32.821 39.4763 30.3438 41.9719 30.3438 45.0504" stroke="#263238" stroke-width="3" stroke-linecap="round" stroke-linejoin="round"/>
<path d="M73.0272 45.0504C73.0272 41.9719 70.55 39.4763 67.4941 39.4763C64.4382 39.4763 61.9609 41.9719 61.9609 45.0504" stroke="#263238" stroke-width="3" stroke-linecap="round" stroke-linejoin="round"/>
<path fill-rule="evenodd" clip-rule="evenodd" d="M40.6191 58.5876H62.7517C62.7517 64.7447 57.7972 69.7359 51.6854 69.7359C45.5737 69.7359 40.6191 64.7447 40.6191 58.5876Z" stroke="#263238" stroke-width="3" stroke-linecap="round" stroke-linejoin="round"/>
<path d="M52.933 24.5626C58.528 22.0384 55.721 16.649 52.1407 16.649C48.8334 16.649 46.1523 19.3499 46.1523 22.6816C46.1523 26.6797 49.3696 29.9207 53.3382 29.9207C58.1007 29.9207 61.9613 26.0314 61.9613 21.2337C61.9613 15.4765 57.3286 10.8094 51.6137 10.8094" stroke="#263238" stroke-width="3" stroke-linecap="round" stroke-linejoin="round"/>
</svg>
