<svg width="42" height="40" viewBox="0 0 42 40" fill="none" xmlns="http://www.w3.org/2000/svg">
<path fill-rule="evenodd" clip-rule="evenodd" d="M36.9784 17.2902C35.6837 9.74417 29.0744 4 21.1157 4C13.1269 4 6.49775 9.78771 5.23853 17.3759C4.86518 17.2114 4.452 17.12 4.01736 17.12C2.35092 17.12 1 18.4631 1 20.12C1 21.7769 2.35092 23.12 4.01736 23.12C4.46703 23.12 4.89373 23.0222 5.27711 22.8468C6.62788 30.3252 13.2053 36 21.1157 36C28.9949 36 35.5516 30.37 36.9381 22.9354C37.2635 23.0548 37.6154 23.12 37.9826 23.12C39.6491 23.12 41 21.7769 41 20.12C41 18.4631 39.6491 17.12 37.9826 17.12C37.6306 17.12 37.2926 17.18 36.9784 17.2902Z" fill="#FFEBD5" stroke="#263238" stroke-linecap="round" stroke-linejoin="round"/>
<path d="M16.8093 17.6964C16.8093 16.465 15.8184 15.4668 14.5961 15.4668C13.3737 15.4668 12.3828 16.465 12.3828 17.6964" stroke="#263238" stroke-linecap="round" stroke-linejoin="round"/>
<path d="M29.4578 17.6964C29.4578 16.465 28.4669 15.4668 27.2445 15.4668C26.0222 15.4668 25.0313 16.465 25.0313 17.6964" stroke="#263238" stroke-linecap="round" stroke-linejoin="round"/>
<path fill-rule="evenodd" clip-rule="evenodd" d="M16.4922 23.1113H25.3452C25.3452 25.5741 23.3634 27.5706 20.9187 27.5706C18.474 27.5706 16.4922 25.5741 16.4922 23.1113Z" stroke="#263238" stroke-linecap="round" stroke-linejoin="round"/>
<path d="M21.4193 9.50126C23.6573 8.4916 22.5345 6.33583 21.1024 6.33583C19.7795 6.33583 18.707 7.41616 18.707 8.74885C18.707 10.3481 19.994 11.6445 21.5814 11.6445C23.4864 11.6445 25.0306 10.0888 25.0306 8.16972C25.0306 5.86683 23.1775 4 20.8916 4" stroke="#263238" stroke-linecap="round" stroke-linejoin="round"/>
</svg>
