<svg width="34" height="32" viewBox="0 0 34 32" fill="none" xmlns="http://www.w3.org/2000/svg">
<path fill-rule="evenodd" clip-rule="evenodd" d="M29.7827 13.8323C28.747 7.79554 23.4595 3.2002 17.0926 3.2002C10.7015 3.2002 5.3982 7.83036 4.39082 13.9009C4.09215 13.7693 3.7616 13.6962 3.41389 13.6962C2.08073 13.6962 1 14.7707 1 16.0962C1 17.4217 2.08073 18.4962 3.41389 18.4962C3.77363 18.4962 4.11499 18.418 4.42169 18.2777C5.5023 24.2604 10.7642 28.8002 17.0926 28.8002C23.3959 28.8002 28.6412 24.2962 29.7504 18.3485C30.0108 18.444 30.2923 18.4962 30.5861 18.4962C31.9193 18.4962 33 17.4217 33 16.0962C33 14.7707 31.9193 13.6962 30.5861 13.6962C30.3045 13.6962 30.0341 13.7442 29.7827 13.8323Z" fill="#FFEBD5" stroke="#263238" stroke-linecap="round" stroke-linejoin="round"/>
<path d="M13.6467 14.1573C13.6467 13.1721 12.854 12.3735 11.8761 12.3735C10.8982 12.3735 10.1055 13.1721 10.1055 14.1573" stroke="#263238" stroke-linecap="round" stroke-linejoin="round"/>
<path d="M23.7658 14.1573C23.7658 13.1721 22.9731 12.3735 21.9952 12.3735C21.0173 12.3735 20.2246 13.1721 20.2246 14.1573" stroke="#263238" stroke-linecap="round" stroke-linejoin="round"/>
<path fill-rule="evenodd" clip-rule="evenodd" d="M13.3945 18.4893H20.477C20.477 20.4595 18.8915 22.0567 16.9357 22.0567C14.98 22.0567 13.3945 20.4595 13.3945 18.4893Z" stroke="#263238" stroke-linecap="round" stroke-linejoin="round"/>
<path d="M17.3339 7.6012C19.1243 6.79348 18.226 5.06886 17.0803 5.06886C16.022 5.06886 15.1641 5.93313 15.1641 6.99927C15.1641 8.27868 16.1936 9.3158 17.4636 9.3158C18.9875 9.3158 20.2229 8.07124 20.2229 6.53597C20.2229 4.69366 18.7405 3.2002 16.9117 3.2002" stroke="#263238" stroke-linecap="round" stroke-linejoin="round"/>
</svg>
