<svg width="93" height="101" viewBox="0 0 93 101" fill="none" xmlns="http://www.w3.org/2000/svg">
<path d="M37.4697 5.78695C37.4697 5.78695 38.3988 0.0366211 45.5176 0.0366211C52.6365 0.0366211 56.0893 7.39249 57.6963 11.7081C59.3034 16.0237 63.4467 20.0888 68.8455 22.4914C74.2443 24.894 78.3248 27.4788 77.6343 32.9217C77.6343 32.9217 89.1852 41.1202 67.1756 42.6346C45.1661 44.1491 34.3559 31.5894 35.6868 25.1217C37.0177 18.654 28.4298 9.8862 37.4697 5.78695Z" fill="#242424"/>
<path d="M50.7921 19.5911C50.7921 19.5911 49.7876 28.4275 54.0566 29.2018C54.0566 29.2018 55.8269 45.064 45.8703 45.064C35.9136 45.064 36.9306 29.68 36.9306 29.68C36.9306 29.68 41.1744 28.6666 40.8354 20.1377C40.4964 11.6088 50.9302 13.6584 50.7921 19.5911Z" fill="#FFEDE5"/>
<path d="M47.8285 20.3729C48.6697 17.4692 44.338 16.8771 41.4251 16.7974C41.0107 17.6514 40.7722 18.7559 40.8224 20.1338C40.8852 21.3408 40.8224 22.5592 40.6592 23.7663C42.3165 23.8801 46.8115 23.8687 47.8285 20.3729Z" fill="#B99AC8"/>
<path d="M39.6248 17.6632C40.5232 17.3831 40.7837 15.9217 40.2066 14.3992C39.6295 12.8767 38.4333 11.8695 37.5349 12.1496C36.6365 12.4297 36.376 13.891 36.9532 15.4135C37.5303 16.9361 38.7264 17.9433 39.6248 17.6632Z" fill="#B99AC8"/>
<path d="M54.5777 15.3991C55.1548 13.8766 54.8943 12.4153 53.9959 12.1352C53.0975 11.8551 51.9014 12.8623 51.3242 14.3848C50.7471 15.9073 51.0076 17.3687 51.906 17.6488C52.8044 17.9289 54.0006 16.9217 54.5777 15.3991Z" fill="#B99AC8"/>
<path d="M38.0102 7.21028C38.0102 7.21028 37.3197 22.4576 45.2799 22.4917C51.4699 22.5145 53.2402 15.6709 53.3407 7.96183C53.4411 0.252775 38.1107 1.289 38.0102 7.21028Z" fill="#FFEDE5"/>
<path d="M45.9071 18.0291C44.5762 18.0291 43.4085 17.3003 43.3959 17.2889C43.3332 17.2547 43.3206 17.1864 43.3708 17.1295C43.4085 17.0726 43.4838 17.0612 43.5466 17.1067C43.5717 17.1181 45.8317 18.5187 47.5017 17.3231C47.5519 17.2889 47.6398 17.2889 47.6774 17.3458C47.7151 17.4028 47.7151 17.4711 47.6523 17.5053C47.0873 17.8924 46.4846 18.0291 45.9071 18.0291Z" fill="#472938"/>
<path d="M40.7344 11.7197C40.7344 11.7197 41.7765 12.3232 43.5343 11.8336C43.5343 11.8222 42.0402 13.2114 40.7344 11.7197Z" fill="#472938"/>
<path d="M50.7296 11.8447C50.7296 11.8447 49.6875 12.4482 47.9297 11.9586C47.9297 11.9586 49.4238 13.3478 50.7296 11.8447Z" fill="#472938"/>
<path d="M40.1309 9.86429C40.1309 9.86429 41.4492 8.54338 43.3702 8.95332C44.3496 9.15828 43.9729 8.06513 42.2025 8.13345C40.4322 8.20177 40.1309 9.86429 40.1309 9.86429Z" fill="#472938"/>
<path d="M51.4312 9.86429C51.4312 9.86429 50.1128 8.54338 48.1918 8.95332C47.2125 9.15828 47.5891 8.06513 49.3595 8.13345C51.1298 8.20177 51.4312 9.86429 51.4312 9.86429Z" fill="#472938"/>
<path d="M45.6058 15.4826C45.2292 15.4826 44.4256 15.2321 44.1494 14.9816C44.0489 14.8905 44.0113 14.7994 44.0238 14.7083C44.0489 14.5716 44.1619 14.1389 44.3252 13.5923C44.5386 12.8066 44.8148 11.8387 44.9027 11.3605C44.9906 10.905 44.9027 10.4267 44.6641 10.0168C44.6265 9.95985 44.6516 9.89152 44.7144 9.85736C44.7772 9.8232 44.8525 9.84597 44.8902 9.90291C45.1538 10.3584 45.2543 10.8822 45.1538 11.3946C45.0659 11.8843 44.7897 12.8636 44.5763 13.6493C44.4256 14.1731 44.3 14.6286 44.2875 14.7424C44.2875 14.7538 44.3 14.7766 44.3377 14.8221C44.6014 15.0613 45.43 15.289 45.6686 15.2549C45.9825 15.2093 46.6354 14.936 46.8614 14.6969C46.9116 14.6513 46.9869 14.6513 47.0372 14.6855C47.0874 14.731 47.0874 14.7994 47.0497 14.8449C46.7735 15.1182 46.0704 15.4257 45.7063 15.4712C45.656 15.4826 45.6309 15.4826 45.6058 15.4826Z" fill="#472938"/>
<path d="M38.1246 11.1178C38.1246 11.1178 38.6269 7.48533 39.8699 6.15304C39.8699 6.15304 41.9541 5.3104 45.2688 7.09817C48.5835 8.88594 50.9063 10.389 53.9824 9.94494C53.9824 9.94494 54.2712 1.27937 46.3235 1.74624C38.3757 2.21311 36.7435 5.98223 38.1246 11.1178Z" fill="#242424"/>
<path d="M90.6428 64.6569C90.5172 64.4747 90.1406 64.7822 90.1406 64.7822C90.1406 64.7822 89.7513 64.3836 88.6967 64.6683C87.642 64.953 84.5156 67.3898 84.5156 67.3898C83.1094 67.3671 80.8117 68.6196 80.8117 68.6196C80.8117 68.6196 79.079 67.9706 77.5096 65.8298C75.9401 63.689 74.2325 62.6414 74.2325 62.6414C74.2325 62.6414 70.5537 49.2274 68.0677 40.8579C65.544 41.8258 62.267 45.6405 59.9316 48.715C59.9819 50.1612 60.0321 51.0835 60.0321 51.0835C60.0321 51.0835 68.2184 70.7832 69.2731 71.3753C70.3277 71.9674 82.3686 73.2883 82.4942 73.2086C82.6197 73.1289 83.7246 73.3908 84.1766 73.2086C84.6286 73.0264 85.1811 73.3225 85.7335 72.9809C86.286 72.6393 87.2402 73.1631 87.6294 72.8328C88.0187 72.5026 88.6967 72.6393 89.1487 72.4457C89.6007 72.2521 92.1244 69.0182 92.1746 68.4374C92.2248 67.8567 90.7684 64.8391 90.6428 64.6569Z" fill="#FFEDE5"/>
<path d="M62.04 44.7837C62.04 44.7837 66.3215 51.411 62.9315 57.9358L60.0186 51.058L62.04 44.7837Z" fill="#B99AC8"/>
<path d="M68.0551 40.8353C67.1637 37.8291 66.4229 35.472 66.0588 34.6179C64.6776 31.3385 62.1289 31.1904 62.1289 31.1904C59.6177 31.2246 59.7433 43.4315 59.919 48.6924C62.2544 45.6178 65.5314 41.8146 68.0551 40.8353Z" fill="#B99AC8"/>
<path d="M71.4444 63.3317C71.3941 63.3317 71.3439 63.2975 71.3188 63.252C71.3063 63.195 71.3439 63.1267 71.4067 63.1153L73.8676 62.5232C73.9304 62.5118 74.0057 62.546 74.0183 62.6029C74.0308 62.6598 73.9931 62.7281 73.9304 62.7395L71.4695 63.3317C71.4695 63.3317 71.4569 63.3317 71.4444 63.3317Z" fill="#472938"/>
<path d="M83.623 71.0856C83.5602 71.0856 83.4975 71.0401 83.4975 70.9718C83.4347 69.5825 81.6267 69.5256 81.5513 69.5256C81.476 69.5256 81.4258 69.4687 81.4258 69.4117C81.4258 69.3434 81.4886 69.2979 81.5513 69.2979C81.5764 69.2979 83.6607 69.3662 83.736 70.9604C83.7611 71.0287 83.6983 71.0856 83.623 71.0856C83.6356 71.0856 83.6356 71.0856 83.623 71.0856Z" fill="#472938"/>
<path d="M83.0709 72.1212C83.0583 72.1212 83.0332 72.1212 83.0206 72.1099C82.9579 72.0871 82.9328 72.0188 82.9579 71.9618C83.1085 71.6658 84.4645 69.0012 85.0296 68.6596C85.4941 68.3749 86.0591 68.466 86.2851 68.6482C86.4358 68.762 86.3856 68.8759 86.373 68.9101C86.3102 69.0353 85.582 70.6751 85.2179 71.5177C85.1928 71.5747 85.1174 71.6088 85.0547 71.586C84.9919 71.5633 84.9542 71.495 84.9793 71.438C85.017 71.3355 85.9964 69.1264 86.1345 68.8418C86.1094 68.819 86.0466 68.7734 85.921 68.7507C85.8206 68.7279 85.4941 68.671 85.1677 68.8645C84.7408 69.1264 83.5857 71.2672 83.1713 72.0757C83.1588 72.0985 83.1211 72.1212 83.0709 72.1212Z" fill="#472938"/>
<path d="M87.0375 71.2745C86.9622 71.2745 86.9119 71.2289 86.9119 71.1606C86.9119 71.1378 86.9119 71.1379 87.2635 70.0105C87.5523 69.0882 88.0168 67.5851 88.0671 67.3459C87.9917 67.2776 87.6402 67.141 87.4016 67.2093C87.2133 67.2662 86.6357 68.0406 86.2088 68.7238C86.1712 68.7807 86.0958 68.7921 86.033 68.7693C85.9703 68.7352 85.9577 68.6668 85.9828 68.6099C86.2088 68.2569 86.9622 67.0954 87.3137 66.9815C87.6151 66.8905 88.0043 67.0157 88.1801 67.1296C88.268 67.1865 88.3182 67.2548 88.3182 67.3118C88.3182 67.3801 88.1424 67.9608 87.5021 70.0561C87.3388 70.5913 87.1756 71.1037 87.1631 71.1606C87.1631 71.2289 87.1003 71.2745 87.0375 71.2745Z" fill="#472938"/>
<path d="M88.8088 71.0338C88.7963 71.0338 88.7963 71.0338 88.7837 71.0338C88.721 71.0224 88.6707 70.954 88.6833 70.8971C89.1227 69.1207 89.7631 66.4106 89.7756 66.1145C89.7254 66.0462 89.4994 65.9323 89.1102 65.9323C88.8967 65.9323 88.3568 66.5814 87.9927 67.1849C87.9551 67.2418 87.8797 67.2646 87.8169 67.2305C87.7542 67.1963 87.7291 67.128 87.7667 67.071C87.9676 66.7522 88.6456 65.7046 89.1102 65.7046C89.5496 65.7046 89.9137 65.8412 90.0142 66.0348C90.0393 66.0804 90.1021 66.2056 88.9218 70.9427C88.9218 70.9996 88.8716 71.0338 88.8088 71.0338Z" fill="#472938"/>
<path d="M89.7502 66.0421C89.7 66.0421 89.6497 66.008 89.6246 65.9624C89.4237 65.3817 90.0139 64.7326 90.039 64.7098C90.0892 64.6643 90.1645 64.6529 90.2147 64.6984C90.265 64.744 90.2775 64.8123 90.2273 64.8578C90.2273 64.8692 89.7 65.4386 89.8632 65.9055C89.8883 65.9624 89.8506 66.0307 89.7753 66.0535C89.7753 66.0421 89.7627 66.0421 89.7502 66.0421Z" fill="#472938"/>
<path d="M89.0855 69.9263C89.0604 69.9263 89.0353 69.915 89.0227 69.9036C88.9599 69.8694 88.9474 69.8011 88.9851 69.7442L90.0146 68.3321L89.7133 66.6241C89.7007 66.5671 89.751 66.4988 89.8137 66.4988C89.8765 66.4874 89.9518 66.533 89.9518 66.5899L90.2783 68.3891L89.1985 69.8808C89.1608 69.9036 89.1232 69.9263 89.0855 69.9263Z" fill="#472938"/>
<path d="M2.01358 66.5585C2.12658 66.3763 2.51581 66.661 2.51581 66.661C2.51581 66.661 2.89248 66.251 3.95971 66.5015C5.02694 66.7521 8.25375 69.0636 8.25375 69.0636C9.64743 68.9953 12.0204 70.1568 12.0204 70.1568C12.0204 70.1568 13.728 69.4394 15.2096 67.2417C16.6912 65.044 18.3485 63.9281 18.3485 63.9281C18.3485 63.9281 21.4246 50.4002 23.5465 41.9282C26.1079 42.805 29.5482 46.4944 32.0216 49.4779C32.0342 50.924 32.0342 51.8464 32.0342 51.8464C32.0342 51.8464 24.7268 71.8193 23.6972 72.457C22.6676 73.0947 10.6895 74.8369 10.5765 74.7686C10.4635 74.7002 9.35865 74.9963 8.89409 74.8255C8.42953 74.6547 7.90219 74.9849 7.32463 74.6547C6.74707 74.3245 5.83051 74.8824 5.41617 74.575C5.00183 74.2675 4.34894 74.4156 3.87182 74.2448C3.39471 74.074 0.745462 70.9311 0.670128 70.3504C0.594794 69.7696 1.90058 66.7407 2.01358 66.5585Z" fill="#FFEDE5"/>
<path d="M29.7232 45.6704C29.7232 45.6704 25.743 52.4571 29.4093 58.8453L32.0083 51.865L29.7232 45.6704Z" fill="#B99AC8"/>
<path d="M23.5342 41.9386C24.2875 38.9096 24.9279 36.5297 25.2543 35.6529C26.4848 32.3279 29.0336 32.0773 29.0336 32.0773C31.5447 32.0204 31.9465 44.2274 32.0093 49.4882C29.5358 46.5162 26.0955 42.8267 23.5342 41.9386Z" fill="#B99AC8"/>
<path d="M21.135 64.5406C21.1224 64.5406 21.1224 64.5406 21.1099 64.5406L18.6239 64.0396C18.5611 64.0282 18.5109 63.9598 18.5234 63.9029C18.536 63.846 18.6113 63.8004 18.6741 63.8118L21.1601 64.3129C21.2229 64.3242 21.2731 64.3926 21.2606 64.4495C21.248 64.5064 21.1852 64.5406 21.135 64.5406Z" fill="#472938"/>
<path d="M9.29548 72.7243C9.22014 72.7243 9.16992 72.6673 9.16992 72.6104C9.18248 71.0048 11.2542 70.8682 11.2793 70.8682C11.3421 70.8682 11.4048 70.9137 11.4174 70.9707C11.4174 71.039 11.3672 71.0845 11.3044 71.0959C11.2291 71.0959 9.43359 71.2212 9.43359 72.6104C9.42104 72.6787 9.37081 72.7243 9.29548 72.7243Z" fill="#472938"/>
<path d="M9.91196 73.7393C9.86174 73.7393 9.82407 73.7165 9.79896 73.6824C9.35951 72.8967 8.10395 70.7901 7.6645 70.5396C7.3255 70.3574 6.99905 70.4257 6.8986 70.4484C6.7856 70.4826 6.72283 70.5282 6.69772 70.5509C6.84838 70.8356 7.91561 73.0105 7.96583 73.113C7.99095 73.17 7.96583 73.2383 7.90306 73.2611C7.84028 73.2838 7.76495 73.2611 7.73983 73.2041C7.3255 72.3729 6.53449 70.7559 6.47171 70.6307C6.42149 70.5509 6.45916 70.4485 6.54705 70.3687C6.76049 70.1866 7.3255 70.0727 7.80261 70.3346C8.39273 70.6534 9.86174 73.2724 10.025 73.5685C10.0501 73.6254 10.0375 73.6938 9.97474 73.7165C9.94963 73.7393 9.92451 73.7393 9.91196 73.7393Z" fill="#472938"/>
<path d="M5.89312 73.0214C5.83034 73.0214 5.78012 72.9872 5.76756 72.9303C5.75501 72.8734 5.59178 72.4179 5.40345 71.8827C4.65011 69.7761 4.44922 69.184 4.44922 69.1156C4.44922 69.0473 4.48689 68.9904 4.57478 68.9334C4.75055 68.8082 5.12722 68.6715 5.44112 68.7512C5.80523 68.8423 6.60879 69.981 6.84735 70.3227C6.88502 70.3796 6.85991 70.4479 6.80968 70.4821C6.74691 70.5162 6.67157 70.4935 6.6339 70.4479C6.16935 69.7761 5.55412 69.0245 5.37834 68.979C5.12722 68.9107 4.78822 69.0701 4.71289 69.1384C4.77566 69.3434 5.31556 70.892 5.65456 71.8258C6.03123 72.8848 6.03123 72.8848 6.03123 72.9075C6.03123 72.9645 5.96845 73.0214 5.89312 73.0214C5.90568 73.0214 5.90568 73.0214 5.89312 73.0214Z" fill="#472938"/>
<path d="M4.12301 72.8656C4.07278 72.8656 4.02256 72.8315 3.99745 72.7859C2.61633 68.083 2.67911 67.9578 2.69166 67.9122C2.77955 67.7073 3.13111 67.5592 3.58311 67.5479L3.59567 67.5479C4.06023 67.5479 4.7759 68.5613 4.98935 68.8688C5.02701 68.9257 5.0019 68.994 4.95168 69.0282C4.8889 69.0623 4.81357 69.0396 4.7759 68.994C4.38667 68.4133 3.82167 67.7756 3.60822 67.7756C3.23156 67.787 3.00555 67.9122 2.95533 67.9806C2.98044 68.2766 3.74634 70.964 4.26112 72.7176C4.27367 72.7745 4.23601 72.8429 4.17323 72.8543C4.13556 72.8543 4.12301 72.8656 4.12301 72.8656Z" fill="#472938"/>
<path d="M2.96835 67.9252C2.9558 67.9252 2.94324 67.9252 2.93068 67.9252C2.8679 67.9139 2.81768 67.8455 2.84279 67.7886C2.98091 67.3103 2.44101 66.7638 2.42846 66.7524C2.37823 66.7068 2.39079 66.6385 2.44101 66.593C2.49124 66.5474 2.56657 66.5588 2.61679 66.6043C2.6419 66.6271 3.25713 67.2534 3.08135 67.8455C3.0688 67.8911 3.01857 67.9252 2.96835 67.9252Z" fill="#472938"/>
<path d="M3.79672 71.7612C3.75905 71.7612 3.72139 71.7498 3.69628 71.7156L2.55371 70.2695L2.79227 68.4589C2.80483 68.402 2.8676 68.3564 2.93038 68.3564C2.99316 68.3678 3.04338 68.4248 3.04338 68.4817L2.81738 70.2012L3.90972 71.579C3.94739 71.6245 3.93483 71.7042 3.88461 71.7384C3.84694 71.7612 3.82183 71.7612 3.79672 71.7612Z" fill="#472938"/>
<path d="M54.0419 29.1948L62.1276 31.1875C62.1276 31.1875 61.1483 43.0412 62.8181 45.4893C64.488 47.9375 63.5589 53.5056 61.5375 56.2726C61.5375 56.2726 58.2982 65.7237 59.1771 67.9441C60.0559 70.1645 63.0064 75.0723 63.0064 75.0723C63.0064 75.0723 49.8359 81.13 30.7769 75.7441C30.7769 75.7441 34.556 68.5248 33.9659 65.7578C33.3758 62.9909 29.2953 55.282 29.3455 51.6382C29.3958 47.9944 30.6764 38.2701 28.8057 32.1212L36.8913 29.6731C36.8913 29.6731 37.0294 44.1115 46.2325 44.1115C55.4356 44.1115 54.0419 29.1948 54.0419 29.1948Z" fill="#B99AC8"/>
<path d="M61.5507 56.2715C61.5507 56.2715 60.5462 58.0934 54.168 58.8564C54.168 58.8564 60.3077 59.2777 59.6925 62.6255L61.5507 56.2715Z" fill="#543753"/>
<path d="M30.2236 55.7598C30.2236 55.7598 31.7303 58.3219 38.548 58.9026C38.548 58.9026 31.0774 57.8778 32.4711 61.5899L30.2236 55.7598Z" fill="#543753"/>
<path d="M29.3835 52.2751C29.3208 52.2751 29.258 52.2295 29.258 52.1726C29.2454 51.979 29.2329 51.8082 29.2454 51.6374C29.258 50.8175 29.3333 49.7016 29.4087 48.4035C29.5217 46.6271 29.6598 44.418 29.6974 42.152C29.6974 42.0836 29.7477 42.0381 29.823 42.0381C29.8983 42.0381 29.9486 42.095 29.9486 42.152C29.9109 44.418 29.7728 46.6385 29.6598 48.4149C29.5719 49.713 29.5091 50.8289 29.4966 51.6488C29.4966 51.8082 29.4966 51.979 29.5091 52.1612C29.5091 52.2067 29.4589 52.2637 29.3835 52.2751Z" fill="#472938"/>
<path d="M62.8181 45.6069C62.7804 45.6069 62.7302 45.5842 62.7051 45.55C62.1526 44.7415 61.8262 42.8854 61.7383 40.0387C61.7383 39.9704 61.7885 39.9248 61.8638 39.9248C61.9266 39.9248 61.9894 39.9704 61.9894 40.0387C62.0773 42.8513 62.3912 44.6732 62.9185 45.4361C62.9562 45.4931 62.9311 45.5614 62.8809 45.5956C62.8683 45.5956 62.8432 45.6069 62.8181 45.6069Z" fill="#472938"/>
<path d="M31.2174 74.9009C31.2174 74.9009 38.3112 77.349 46.6103 77.0871C54.9094 76.8252 71.5201 71.3824 79.2793 72.4983C87.0385 73.6142 86.5363 76.6089 86.2727 77.9867C86.009 79.3645 69.9005 100.032 55.7506 100.032L34.0675 100.032C34.0675 100.032 7.42502 84.8074 6.5587 80.4121C5.69238 76.0168 6.32015 73.3864 13.7529 73.2612C21.1857 73.1359 29.2211 74.3088 31.2174 74.9009Z" fill="#242424"/>
<path d="M46.334 81.6091C46.334 81.6091 56.931 77.6122 65.7827 76.2344C65.7827 76.2344 71.483 84.2509 69.8131 91.0262C69.8005 91.0262 49.5357 86.9952 46.334 81.6091Z" fill="#FFEDE5"/>
<path d="M46.334 81.6128C46.334 81.6128 71.9727 84.6532 69.8005 91.0299C67.6284 97.4067 46.334 81.6128 46.334 81.6128Z" fill="url(#paint0_linear_444_7872)"/>
<path d="M57.8597 93.1446C57.8597 93.1446 31.5813 95.1942 25.8184 96.2646C20.0555 97.3349 14.2173 96.8567 10.6515 97.984C7.08582 99.1113 5.11463 99.9767 4.68775 100.022C4.26087 100.068 3.28155 95.0462 5.07696 93.2698C5.07696 93.2698 4.52453 91.4593 7.0356 90.0587C9.54667 88.6582 13.715 90.5028 15.2594 90.0587C16.8037 89.6147 17.9085 89.2047 19.5533 89.5235C21.198 89.8424 25.2158 90.7419 25.2158 90.7419C25.2158 90.7419 45.907 78.8199 57.8597 93.1446Z" fill="#FFEDE5"/>
<path d="M25.2285 90.7424L40.8352 94.5913L57.8607 93.1451C57.8607 93.1451 50.1013 85.9029 39.3913 86.5748C28.6813 87.2466 25.2285 90.7424 25.2285 90.7424Z" fill="url(#paint1_linear_444_7872)"/>
<path d="M30.665 76.4258C30.665 76.4258 38.7255 77.9061 50.3769 83.4401C62.0283 88.974 71.6708 86.7081 75.0733 87.7784C78.4758 88.8488 84.9292 88.0176 85.9839 88.8488C87.0385 89.68 87.7291 91.1375 87.1013 91.7638C87.1013 91.7638 89.9137 97.6166 89.6501 98.0038C89.3864 98.3909 88.4071 98.3568 87.9425 98.2657C87.478 98.1746 83.3849 96.3299 78.6767 95.567C73.9684 94.8041 60.9862 93.1644 50.6406 92.6861C40.2949 92.2079 25.2285 91.2628 25.2285 91.2628C25.2285 91.2628 25.5801 79.7507 30.665 76.4258Z" fill="#FFEDE5"/>
<path d="M86.2467 92.0072C85.8449 92.0072 85.305 91.9389 84.6144 91.7225C84.5517 91.6998 84.514 91.6314 84.5391 91.5745C84.5642 91.5175 84.6396 91.4834 84.7023 91.5062C86.2592 92.0072 87.0125 91.6656 87.0251 91.6656C87.0879 91.6314 87.1632 91.6542 87.1883 91.7111C87.226 91.7681 87.2009 91.8364 87.1381 91.8592C87.1255 91.8592 86.8368 92.0072 86.2467 92.0072Z" fill="#4A4A4A"/>
<path d="M6.34679 93.6249C5.46789 93.6249 5.041 93.3744 5.01589 93.363C4.95311 93.3288 4.94055 93.2605 4.97822 93.2036C5.01589 93.1466 5.09122 93.1352 5.154 93.1694C5.154 93.1694 5.606 93.4199 6.4849 93.3858C7.40147 93.363 8.39336 92.9531 8.40592 92.9531C8.4687 92.9303 8.54403 92.9531 8.56914 93.01C8.59426 93.0669 8.56914 93.1352 8.50637 93.158C8.4687 93.1808 7.45169 93.5793 6.49746 93.6135C6.44723 93.6249 6.39701 93.6249 6.34679 93.6249Z" fill="#4A4A4A"/>
<defs>
<linearGradient id="paint0_linear_444_7872" x1="58.1326" y1="81.6128" x2="62.0249" y2="103.66" gradientUnits="userSpaceOnUse">
<stop stop-color="#D9B7E7"/>
<stop offset="1" stop-color="#B7D6E7"/>
</linearGradient>
<linearGradient id="paint1_linear_444_7872" x1="41.5446" y1="86.5308" x2="43.1081" y2="103.143" gradientUnits="userSpaceOnUse">
<stop stop-color="#D9B7E7"/>
<stop offset="1" stop-color="#B7D6E7"/>
</linearGradient>
</defs>
</svg>
