<svg width="30" height="34" viewBox="0 0 30 34" fill="none" xmlns="http://www.w3.org/2000/svg">
<path fill-rule="evenodd" clip-rule="evenodd" d="M29.3996 20.3118C29.3996 27.3822 22.9525 33.1138 14.9996 33.1138C7.04671 33.1138 0.599609 27.3822 0.599609 20.3118C0.599609 13.7834 6.09625 2.94326 13.1996 1.31982V4.3501C11.1023 5.00904 9.59961 6.78702 9.59961 8.87698C9.59961 11.5279 12.0173 13.677 14.9996 13.677C17.9819 13.677 20.3996 11.5279 20.3996 8.87698C20.3996 6.78702 18.897 5.00904 16.7996 4.3501V1.31982C23.903 2.94326 29.3996 13.7834 29.3996 20.3118Z" fill="#FFD8AE" stroke="#263238" stroke-linecap="round" stroke-linejoin="round"/>
<path fill-rule="evenodd" clip-rule="evenodd" d="M17.3029 18.0479C18.8581 18.0479 20.1189 19.3086 20.1189 20.8639C20.1189 20.9244 20.117 20.9845 20.1132 21.0441C20.1171 21.0683 20.1189 21.0936 20.1189 21.1199C20.1189 23.4729 18.7839 25.1584 17.4772 26.2445L17.3141 26.3772C17.2599 26.4203 17.2058 26.4625 17.1519 26.5036L16.9912 26.6239C16.9113 26.6824 16.8322 26.7387 16.7542 26.7927L16.5998 26.8976L16.4489 26.9965C16.4241 27.0124 16.3994 27.0282 16.375 27.0436L16.1602 27.176L16.0235 27.2568L15.8927 27.3316L15.709 27.4327L15.4902 27.547L15.3058 27.6379L15.1307 27.7191L14.9989 27.7759L14.8671 27.7191L14.692 27.6379L14.5076 27.547L14.2888 27.4327L14.1051 27.3316L13.9067 27.2172L13.7673 27.1334L13.6228 27.0436L13.4739 26.9478L13.3212 26.8459C13.244 26.7935 13.1655 26.7387 13.0862 26.6817L12.9265 26.5645C12.8461 26.5044 12.765 26.4419 12.6837 26.3772L12.5206 26.2445C11.214 25.1584 9.87891 23.4729 9.87891 21.1199C9.87891 21.0937 9.88067 21.0684 9.88413 21.0441C9.88082 20.9847 9.87891 20.9245 9.87891 20.8639C9.87891 19.3086 11.1397 18.0479 12.6949 18.0479C13.6474 18.0479 14.4895 18.5208 14.9991 19.2446C15.5083 18.5208 16.3504 18.0479 17.3029 18.0479Z" fill="#FF7171" stroke="#263238" stroke-linecap="round" stroke-linejoin="round"/>
</svg>
