<svg width="327" height="326" viewBox="0 0 327 326" fill="none" xmlns="http://www.w3.org/2000/svg">
<path d="M132.103 290.127C161.357 290.127 185.072 276.436 185.072 259.548C185.072 242.66 161.357 228.969 132.103 228.969C102.85 228.969 79.1348 242.66 79.1348 259.548C79.1348 276.436 102.85 290.127 132.103 290.127Z" fill="url(#paint0_linear_340_21168)"/>
<path d="M197.245 201.95L194.774 200.523C194.362 200.255 194.02 199.894 193.774 199.47C193.528 199.045 193.386 198.568 193.359 198.078V95.3745C193.386 94.8852 193.528 94.409 193.772 93.9843C194.017 93.5596 194.358 93.1983 194.768 92.9295L263.456 53.2749C263.893 53.0532 264.377 52.9377 264.867 52.9377C265.358 52.9377 265.842 53.0532 266.279 53.2749L268.75 54.7028C269.162 54.9701 269.505 55.3309 269.75 55.7558C269.996 56.1807 270.138 56.6576 270.165 57.1478V159.851C270.138 160.34 269.997 160.816 269.752 161.241C269.507 161.666 269.166 162.027 268.757 162.296L200.068 201.957C199.631 202.179 199.147 202.294 198.656 202.293C198.165 202.292 197.682 202.175 197.245 201.95Z" fill="#B99AC8"/>
<path d="M270.164 56.9196C270.067 56.1894 269.473 55.922 268.763 56.3328L200.068 95.994C199.652 96.2546 199.309 96.6156 199.07 97.0437L193.77 93.9858C194.007 93.5545 194.35 93.1909 194.767 92.9296L263.455 53.2749C263.893 53.0532 264.376 52.9377 264.867 52.9377C265.357 52.9377 265.841 53.0532 266.278 53.2749L268.75 54.7028C269.131 54.9485 269.455 55.2738 269.699 55.6564C269.944 56.0391 270.102 56.47 270.164 56.9196Z" fill="#B99AC8"/>
<path d="M199.826 202.068C199.409 202.237 198.96 202.314 198.51 202.295C198.06 202.276 197.619 202.161 197.218 201.957L194.74 200.522C194.331 200.254 193.99 199.892 193.745 199.468C193.5 199.043 193.359 198.567 193.332 198.077V95.3745C193.349 94.8843 193.49 94.4063 193.743 93.9858L199.044 97.0437C198.786 97.4648 198.642 97.9455 198.626 98.4389V201.142C198.652 201.95 199.161 202.322 199.826 202.068Z" fill="#F4ACC4"/>
<path d="M198.652 98.452V201.142C198.652 202.042 199.304 202.407 200.067 201.957L268.755 162.296C269.165 162.027 269.506 161.666 269.751 161.241C269.995 160.816 270.137 160.34 270.164 159.851V57.1478C270.164 56.248 269.512 55.8829 268.755 56.3328L200.067 95.994C199.654 96.2626 199.31 96.6254 199.064 97.0527C198.818 97.48 198.677 97.9596 198.652 98.452Z" fill="url(#paint1_linear_340_21168)"/>
<path d="M182.614 137.572C181.727 137.044 177.613 134.703 177.398 134.579C177.23 134.479 177.087 134.343 176.979 134.18C176.871 134.017 176.801 133.833 176.774 133.639C176.747 133.446 176.764 133.249 176.823 133.063C176.883 132.877 176.983 132.707 177.117 132.565L193.359 115.143L198.653 118.182L182.418 135.616C182.29 135.752 182.194 135.913 182.134 136.09C182.074 136.266 182.052 136.453 182.071 136.638C182.089 136.824 182.147 137.003 182.241 137.164C182.335 137.325 182.462 137.464 182.614 137.572Z" fill="#B99AC8"/>
<path d="M198.654 118.201L182.419 135.616C182.238 135.808 182.121 136.051 182.081 136.312C182.042 136.573 182.082 136.839 182.197 137.077C182.312 137.314 182.497 137.511 182.726 137.641C182.955 137.771 183.219 137.829 183.481 137.807L198.654 136.555V118.201Z" fill="#B99AC8"/>
<path d="M234.408 86.8464C242.415 82.2237 248.902 85.9727 248.902 95.2181C248.902 104.463 242.415 115.697 234.408 120.32C226.401 124.943 219.914 121.194 219.914 111.955C219.914 102.716 226.401 91.4691 234.408 86.8464Z" fill="#79A8F0"/>
<path d="M234.305 94.1227C236.913 92.6231 239.006 93.8358 239.006 96.835C238.917 98.4654 238.445 100.052 237.628 101.466C236.812 102.879 235.673 104.081 234.305 104.972C231.697 106.472 229.598 105.259 229.598 102.26C229.687 100.629 230.16 99.042 230.978 97.6281C231.796 96.2143 232.936 95.0133 234.305 94.1227Z" fill="white"/>
<path d="M243.576 110.11C243.576 105.187 240.114 103.186 235.85 105.65L233.183 107.189C228.919 109.653 225.457 115.665 225.457 120.574V121.924C226.262 122.181 227.102 122.311 227.948 122.309C230.235 122.231 232.462 121.557 234.409 120.353C238.115 118.07 241.251 114.97 243.576 111.29V110.11Z" fill="white"/>
<path d="M225.227 166.084L243.588 155.482C244.37 155.033 245.003 155.398 245.003 156.297V162.211C244.976 162.701 244.834 163.178 244.588 163.603C244.342 164.028 243.999 164.389 243.588 164.656L225.227 175.258C224.445 175.708 223.812 175.342 223.812 174.443V168.529C223.839 168.039 223.981 167.562 224.227 167.137C224.473 166.712 224.816 166.351 225.227 166.084Z" fill="#F4ACC4"/>
<path d="M216.238 152.874L252.56 131.893C253.493 131.352 254.256 131.789 254.256 132.871V135.068C254.224 135.656 254.054 136.228 253.759 136.738C253.465 137.248 253.054 137.681 252.56 138.002L216.218 158.984C215.286 159.525 214.529 159.088 214.529 158.006V155.828C214.559 155.235 214.729 154.658 215.027 154.145C215.324 153.631 215.739 153.196 216.238 152.874Z" fill="#FAFAFA"/>
<path d="M220.489 137.689C220.984 137.402 221.369 137.357 221.643 137.559C221.917 137.761 222.054 138.211 222.054 138.902C222.067 139.533 221.926 140.157 221.643 140.721C221.387 141.231 220.985 141.653 220.489 141.934L219.511 142.501V144.607C219.509 144.68 219.491 144.751 219.459 144.816C219.436 144.875 219.395 144.925 219.341 144.959L218.846 145.246C218.829 145.259 218.808 145.266 218.787 145.266C218.766 145.266 218.745 145.259 218.728 145.246C218.693 145.202 218.677 145.146 218.683 145.09V138.993C218.682 138.921 218.698 138.85 218.728 138.785C218.753 138.727 218.794 138.677 218.846 138.641L220.489 137.689ZM219.511 141.321L220.456 140.773C220.685 140.644 220.877 140.461 221.017 140.239C221.165 139.977 221.238 139.679 221.226 139.378C221.226 139.026 221.154 138.824 221.017 138.765C220.92 138.742 220.819 138.741 220.722 138.762C220.625 138.783 220.534 138.827 220.456 138.889L219.511 139.437V141.321Z" fill="#FAFAFA"/>
<path d="M224.785 135.205C224.85 135.166 224.902 135.166 224.935 135.205C224.977 135.264 225.006 135.33 225.02 135.401L226.526 140.5C226.526 140.5 226.526 140.539 226.526 140.558C226.525 140.631 226.507 140.702 226.474 140.767C226.451 140.826 226.41 140.876 226.356 140.91L225.913 141.165C225.835 141.21 225.776 141.217 225.743 141.165C225.712 141.132 225.689 141.091 225.678 141.047L225.411 140.154L223.455 141.275L223.194 142.475C223.176 142.54 223.152 142.603 223.122 142.664C223.09 142.744 223.03 142.809 222.953 142.847L222.509 143.101C222.493 143.115 222.472 143.122 222.451 143.122C222.429 143.122 222.409 143.115 222.392 143.101C222.358 143.059 222.342 143.005 222.346 142.951C222.343 142.927 222.343 142.903 222.346 142.879L223.846 136.046C223.864 135.946 223.892 135.848 223.931 135.753C223.963 135.684 224.015 135.627 224.081 135.59L224.785 135.205ZM225.124 139.156L224.472 136.855L223.82 139.932L225.124 139.156Z" fill="#FAFAFA"/>
<path d="M228.809 132.786C229.027 132.649 229.275 132.566 229.532 132.545C229.714 132.529 229.897 132.57 230.054 132.662C230.197 132.755 230.308 132.889 230.373 133.047C230.445 133.208 230.484 133.38 230.491 133.556C230.495 133.628 230.479 133.7 230.445 133.764C230.422 133.823 230.381 133.874 230.328 133.908L229.897 134.156C229.826 134.195 229.773 134.201 229.741 134.156C229.701 134.129 229.667 134.093 229.643 134.051C229.617 133.993 229.579 133.94 229.532 133.896C229.485 133.852 229.43 133.819 229.369 133.797C229.171 133.769 228.969 133.82 228.809 133.94C228.703 134.009 228.603 134.085 228.509 134.169C228.412 134.258 228.326 134.358 228.254 134.469C228.185 134.575 228.128 134.688 228.085 134.808C228.046 134.921 228.027 135.04 228.026 135.16C228.018 135.269 228.039 135.379 228.085 135.479C228.105 135.514 228.133 135.544 228.167 135.565C228.201 135.587 228.24 135.6 228.28 135.603C228.401 135.624 228.525 135.624 228.646 135.603L229.213 135.479C229.424 135.416 229.645 135.39 229.865 135.401C230.022 135.4 230.175 135.451 230.302 135.544C230.421 135.645 230.507 135.779 230.549 135.929C230.613 136.14 230.642 136.36 230.634 136.581C230.634 136.872 230.592 137.162 230.51 137.442C230.431 137.729 230.315 138.005 230.165 138.263C230.007 138.528 229.819 138.773 229.604 138.993C229.385 139.221 229.135 139.416 228.861 139.574C228.66 139.696 228.439 139.782 228.209 139.828C228.021 139.864 227.827 139.848 227.648 139.782C227.485 139.707 227.35 139.581 227.263 139.424C227.157 139.223 227.099 138.999 227.094 138.772C227.093 138.698 227.109 138.624 227.139 138.557C227.168 138.501 227.211 138.454 227.263 138.42L227.694 138.172C227.759 138.133 227.811 138.12 227.85 138.139C227.889 138.159 227.915 138.191 227.941 138.25C227.968 138.317 228.003 138.381 228.046 138.439C228.086 138.496 228.143 138.539 228.209 138.563C228.294 138.583 228.384 138.583 228.469 138.563C228.608 138.53 228.74 138.475 228.861 138.4C228.987 138.328 229.107 138.245 229.219 138.152C229.439 137.979 229.613 137.755 229.728 137.5C229.78 137.37 229.807 137.23 229.806 137.09C229.812 137.038 229.808 136.987 229.793 136.937C229.779 136.888 229.754 136.842 229.721 136.803C229.686 136.772 229.645 136.749 229.599 136.735C229.554 136.722 229.507 136.718 229.461 136.724C229.313 136.731 229.166 136.755 229.024 136.796C228.854 136.835 228.659 136.881 228.43 136.92C228.256 136.964 228.075 136.977 227.896 136.959C227.755 136.95 227.621 136.892 227.518 136.796C227.405 136.686 227.326 136.546 227.289 136.392C227.237 136.165 227.213 135.933 227.218 135.701C227.217 135.414 227.259 135.128 227.342 134.853C227.419 134.57 227.533 134.299 227.681 134.045C227.822 133.793 227.992 133.558 228.189 133.347C228.368 133.132 228.577 132.943 228.809 132.786Z" fill="#FAFAFA"/>
<path d="M233.091 130.322C233.308 130.18 233.557 130.095 233.815 130.074C233.996 130.059 234.179 130.099 234.336 130.191C234.476 130.287 234.584 130.42 234.649 130.576C234.72 130.737 234.76 130.909 234.767 131.085C234.774 131.157 234.758 131.23 234.721 131.293C234.698 131.352 234.657 131.402 234.604 131.437L234.173 131.684C234.108 131.724 234.056 131.737 234.017 131.684C233.975 131.658 233.943 131.619 233.926 131.574C233.866 131.459 233.766 131.371 233.645 131.326C233.548 131.312 233.449 131.317 233.354 131.342C233.258 131.366 233.169 131.41 233.091 131.469C232.982 131.536 232.879 131.612 232.785 131.697C232.69 131.787 232.607 131.887 232.537 131.997C232.465 132.102 232.408 132.216 232.367 132.336C232.327 132.45 232.305 132.568 232.302 132.689C232.294 132.798 232.315 132.908 232.361 133.008C232.381 133.043 232.409 133.073 232.443 133.094C232.477 133.116 232.516 133.129 232.556 133.132C232.677 133.153 232.801 133.153 232.921 133.132L233.489 133.008C233.701 132.949 233.921 132.923 234.141 132.93C234.298 132.928 234.452 132.979 234.578 133.073C234.697 133.175 234.785 133.308 234.832 133.458C234.889 133.67 234.916 133.89 234.91 134.11C234.91 134.401 234.868 134.691 234.786 134.971C234.707 135.258 234.59 135.534 234.441 135.792C234.284 136.059 234.095 136.306 233.88 136.529C233.66 136.751 233.412 136.943 233.143 137.103C232.942 137.224 232.722 137.31 232.491 137.357C232.306 137.392 232.114 137.377 231.937 137.311C231.771 137.238 231.633 137.112 231.546 136.953C231.439 136.752 231.383 136.528 231.383 136.301C231.375 136.228 231.391 136.155 231.428 136.092C231.451 136.033 231.492 135.983 231.546 135.949L231.976 135.701C232.041 135.662 232.1 135.649 232.133 135.668C232.155 135.678 232.175 135.694 232.191 135.713C232.207 135.732 232.218 135.755 232.224 135.779C232.253 135.845 232.288 135.908 232.328 135.968C232.371 136.025 232.43 136.068 232.498 136.092C232.583 136.112 232.673 136.112 232.758 136.092C232.897 136.059 233.029 136.004 233.15 135.929C233.273 135.855 233.391 135.772 233.502 135.681C233.616 135.592 233.717 135.486 233.802 135.368C233.886 135.256 233.956 135.133 234.01 135.003C234.063 134.872 234.089 134.733 234.089 134.592C234.095 134.541 234.09 134.49 234.076 134.44C234.061 134.391 234.037 134.345 234.004 134.305C233.969 134.274 233.927 134.251 233.882 134.238C233.837 134.224 233.79 134.221 233.743 134.227C233.597 134.236 233.453 134.26 233.313 134.299C233.143 134.338 232.941 134.384 232.719 134.423C232.542 134.467 232.359 134.48 232.178 134.462C232.037 134.455 231.903 134.397 231.8 134.299C231.689 134.188 231.612 134.048 231.578 133.895C231.52 133.671 231.494 133.441 231.5 133.21C231.502 132.921 231.544 132.634 231.624 132.356C231.705 132.074 231.818 131.803 231.963 131.548C232.104 131.294 232.277 131.059 232.478 130.85C232.654 130.643 232.86 130.465 233.091 130.322Z" fill="#FAFAFA"/>
<path d="M237.844 131.137L237.316 134.26C237.3 134.354 237.274 134.446 237.237 134.534C237.212 134.604 237.164 134.664 237.101 134.703L236.605 134.99C236.54 135.029 236.494 135.029 236.462 134.99C236.418 134.936 236.393 134.87 236.39 134.801L235.607 129.292C235.607 129.292 235.607 129.239 235.607 129.22C235.609 129.147 235.627 129.076 235.66 129.011C235.684 128.953 235.725 128.903 235.777 128.868L236.227 128.607C236.264 128.592 236.307 128.592 236.344 128.607C236.383 128.607 236.409 128.659 236.422 128.763L236.938 132.473L237.387 129.689C237.399 129.62 237.419 129.552 237.446 129.487C237.472 129.405 237.528 129.335 237.603 129.292L238.105 128.998C238.176 128.959 238.228 128.966 238.261 128.998C238.289 129.04 238.309 129.086 238.32 129.135L238.776 131.398L239.291 127.094C239.297 127.01 239.322 126.927 239.363 126.853C239.393 126.804 239.433 126.762 239.48 126.729L239.93 126.468C239.947 126.456 239.968 126.449 239.989 126.449C240.01 126.449 240.031 126.456 240.048 126.468C240.066 126.49 240.08 126.515 240.089 126.541C240.098 126.568 240.102 126.597 240.1 126.625C240.102 126.651 240.102 126.677 240.1 126.703L239.317 133.112C239.304 133.206 239.28 133.298 239.246 133.386C239.216 133.456 239.166 133.515 239.102 133.556L238.6 133.843C238.541 133.875 238.496 133.875 238.463 133.843C238.43 133.783 238.404 133.719 238.385 133.653L237.844 131.137Z" fill="#FAFAFA"/>
<path d="M240.895 128.372C240.91 128.011 240.954 127.651 241.026 127.297C241.1 126.95 241.214 126.613 241.365 126.292C241.509 125.981 241.693 125.689 241.913 125.425C242.136 125.164 242.403 124.943 242.702 124.773C242.931 124.617 243.2 124.529 243.477 124.519C243.685 124.521 243.883 124.603 244.032 124.747C244.19 124.925 244.303 125.137 244.364 125.367C244.448 125.666 244.494 125.975 244.501 126.286C244.501 126.403 244.501 126.534 244.501 126.677C244.501 126.821 244.501 126.971 244.501 127.127C244.501 127.283 244.501 127.433 244.501 127.577C244.501 127.72 244.501 127.857 244.501 127.981C244.487 128.34 244.443 128.698 244.371 129.05C244.295 129.396 244.184 129.732 244.038 130.054C243.89 130.365 243.704 130.657 243.484 130.922C243.261 131.181 242.997 131.401 242.702 131.574C242.466 131.728 242.194 131.816 241.913 131.828C241.811 131.83 241.71 131.811 241.616 131.773C241.522 131.735 241.436 131.678 241.365 131.606C241.195 131.424 241.078 131.198 241.026 130.954C240.948 130.654 240.904 130.345 240.895 130.035C240.895 129.918 240.895 129.787 240.895 129.644C240.895 129.5 240.895 129.35 240.895 129.194C240.895 129.037 240.895 128.894 240.895 128.744C240.895 128.594 240.889 128.49 240.895 128.372ZM243.673 126.814C243.688 126.655 243.67 126.494 243.62 126.341C243.571 126.189 243.491 126.048 243.386 125.927C243.217 125.777 242.982 125.784 242.702 125.927C242.397 126.106 242.156 126.375 242.01 126.697C241.826 127.077 241.728 127.493 241.724 127.916C241.724 128.157 241.724 128.424 241.724 128.718C241.724 129.011 241.724 129.272 241.724 129.507C241.709 129.666 241.727 129.827 241.776 129.979C241.826 130.132 241.905 130.273 242.01 130.394C242.18 130.537 242.415 130.524 242.702 130.361C243.001 130.181 243.239 129.915 243.386 129.598C243.571 129.22 243.669 128.806 243.673 128.385C243.673 128.138 243.673 127.87 243.673 127.577C243.673 127.283 243.68 127.049 243.673 126.814Z" fill="#FAFAFA"/>
<path d="M247.345 122.172C247.86 121.878 248.245 121.833 248.512 122.048C248.671 122.222 248.788 122.43 248.857 122.655C248.926 122.881 248.944 123.119 248.91 123.352C248.915 123.795 248.847 124.235 248.708 124.656C248.575 125.048 248.369 125.41 248.101 125.725L248.949 127.57C248.952 127.601 248.952 127.631 248.949 127.662C248.949 127.72 248.936 127.778 248.91 127.831C248.892 127.878 248.86 127.919 248.819 127.949L248.297 128.248C248.212 128.294 248.154 128.301 248.114 128.248C248.08 128.214 248.051 128.175 248.03 128.131L247.228 126.39L246.413 126.86V129.063C246.413 129.136 246.398 129.207 246.367 129.272C246.34 129.329 246.3 129.378 246.25 129.416L245.754 129.702C245.738 129.716 245.717 129.724 245.696 129.724C245.674 129.724 245.653 129.716 245.637 129.702C245.618 129.682 245.604 129.659 245.595 129.633C245.586 129.607 245.582 129.58 245.585 129.552V123.456C245.587 123.384 245.604 123.312 245.637 123.248C245.66 123.189 245.701 123.138 245.754 123.104L247.345 122.172ZM246.426 125.68L247.345 125.184C247.57 125.059 247.762 124.882 247.906 124.669C248.057 124.418 248.129 124.127 248.114 123.834C248.114 123.482 248.043 123.287 247.906 123.248C247.707 123.221 247.506 123.272 247.345 123.391L246.458 123.9L246.426 125.68Z" fill="#FAFAFA"/>
<path d="M251.712 119.662C251.949 119.507 252.22 119.413 252.501 119.388C252.705 119.38 252.904 119.453 253.056 119.59C253.228 119.771 253.348 119.997 253.401 120.242C253.489 120.565 253.537 120.898 253.545 121.233C253.545 121.689 253.545 122.159 253.545 122.635C253.531 123.023 253.483 123.409 253.401 123.789C253.327 124.142 253.213 124.485 253.062 124.812C252.916 125.113 252.732 125.394 252.514 125.647C252.297 125.906 252.036 126.127 251.745 126.299L250.2 127.14C250.183 127.154 250.163 127.161 250.141 127.161C250.12 127.161 250.099 127.154 250.082 127.14C250.063 127.12 250.049 127.097 250.04 127.071C250.031 127.045 250.028 127.017 250.03 126.99V120.894C250.032 120.821 250.05 120.75 250.082 120.685C250.105 120.626 250.146 120.576 250.2 120.542L251.712 119.662ZM252.716 121.689C252.714 121.513 252.687 121.337 252.638 121.168C252.608 121.039 252.542 120.922 252.449 120.829C252.408 120.788 252.359 120.756 252.305 120.734C252.252 120.713 252.194 120.703 252.136 120.705C251.973 120.716 251.815 120.77 251.68 120.861L250.858 121.331V125.582L251.712 125.093C251.878 124.997 252.025 124.873 252.149 124.728C252.271 124.585 252.374 124.427 252.456 124.258C252.537 124.079 252.598 123.891 252.638 123.697C252.684 123.496 252.71 123.291 252.716 123.085C252.736 122.609 252.736 122.146 252.716 121.689Z" fill="#FAFAFA"/>
<path d="M162.18 25.0303C163.305 25.2807 164.389 25.689 165.401 26.243C166.369 26.7635 167.236 27.4523 167.963 28.2773C168.658 29.0708 169.174 30.0048 169.476 31.0157C169.783 32.0977 169.806 33.241 169.541 34.3343C169.366 35.2012 169.023 36.0253 168.53 36.7598C168.081 37.3879 167.545 37.9498 166.939 38.4289C166.344 38.8909 165.709 39.2989 165.042 39.6482L163.164 40.6457C162.599 40.9407 162.062 41.2878 161.56 41.6824C161.107 42.0303 160.759 42.4976 160.556 43.032C160.457 43.2762 160.292 43.4882 160.08 43.6449C159.98 43.7228 159.863 43.7768 159.739 43.8028C159.615 43.8288 159.486 43.8261 159.363 43.7949L156.599 43.182C156.465 43.1541 156.339 43.0999 156.227 43.0227C156.115 42.9454 156.02 42.8467 155.947 42.7321C155.868 42.6256 155.817 42.5023 155.795 42.372C155.774 42.2417 155.783 42.1082 155.823 41.9823C156.045 41.1262 156.438 40.3235 156.977 39.6221C157.468 39.0016 158.038 38.4472 158.672 37.9725C159.289 37.5206 159.944 37.1215 160.628 36.7793C161.28 36.4468 161.932 36.1273 162.499 35.8079C163.027 35.5242 163.523 35.1855 163.979 34.7973C164.379 34.4621 164.657 34.0034 164.768 33.4933C164.872 33.0503 164.867 32.5888 164.753 32.1482C164.64 31.7077 164.421 31.3012 164.116 30.9635C163.354 30.1311 162.335 29.5779 161.221 29.3922C159.161 28.9358 157.422 29.6291 156.005 31.4721C155.868 31.6732 155.696 31.8478 155.497 31.9871C155.272 32.0987 155.012 32.1174 154.773 32.0393L151.832 31.3873C151.623 31.3468 151.437 31.2249 151.317 31.0483C151.253 30.9539 151.21 30.8468 151.191 30.7343C151.172 30.6218 151.177 30.5065 151.206 30.3963C151.456 29.4903 151.922 28.6581 152.563 27.9708C153.286 27.1737 154.144 26.5114 155.099 26.0148C156.143 25.4687 157.268 25.0944 158.431 24.9064C159.677 24.7038 160.95 24.7458 162.18 25.0303ZM159.057 46.0117C159.315 46.0724 159.54 46.2319 159.682 46.4561C159.825 46.6803 159.874 46.9514 159.819 47.2114L159.115 50.4062C159.091 50.5399 159.04 50.6672 158.963 50.7795C158.887 50.8919 158.788 50.9868 158.672 51.0582C158.563 51.1334 158.439 51.185 158.309 51.2097C158.179 51.2344 158.045 51.2317 157.916 51.2016L154.76 50.4779C154.626 50.4553 154.498 50.4039 154.385 50.3274C154.273 50.2509 154.178 50.151 154.108 50.0345C154.035 49.9244 153.985 49.8005 153.961 49.6705C153.938 49.5404 153.941 49.4069 153.971 49.2782L154.682 46.0834C154.742 45.8244 154.902 45.5993 155.126 45.4556C155.35 45.312 155.621 45.2612 155.881 45.314L159.057 46.0117Z" fill="#B99AC8"/>
<path d="M165.661 55.6156C166.446 55.4897 167.245 55.4743 168.035 55.57C168.789 55.6596 169.521 55.8803 170.199 56.222C170.845 56.557 171.414 57.0234 171.868 57.5912C172.277 58.1469 172.565 58.7821 172.713 59.456C172.862 60.1298 172.867 60.8272 172.729 61.5032C172.605 62.0229 172.405 62.5216 172.136 62.9832C171.876 63.4322 171.575 63.8558 171.236 64.2481C170.903 64.6393 170.584 65.011 170.29 65.3696C170.003 65.7036 169.748 66.0638 169.528 66.4454C169.321 66.7798 169.217 67.1673 169.228 67.5603C169.222 67.7439 169.17 67.9232 169.078 68.0819C169.031 68.155 168.968 68.2172 168.895 68.2644C168.822 68.3116 168.74 68.3428 168.654 68.3557L166.698 68.6687C166.607 68.6853 166.513 68.6834 166.422 68.6633C166.331 68.6431 166.246 68.6051 166.17 68.5513C166.093 68.5029 166.028 68.4368 165.982 68.3586C165.935 68.2804 165.908 68.1922 165.903 68.1014C165.821 67.4947 165.865 66.8776 166.033 66.2889C166.186 65.7677 166.405 65.2681 166.685 64.8023C166.959 64.3553 167.273 63.9341 167.624 63.5439C167.969 63.1527 168.276 62.7876 168.576 62.4355C168.843 62.1211 169.075 61.7778 169.267 61.4119C169.437 61.097 169.498 60.7351 169.443 60.3817C169.394 60.0707 169.27 59.7761 169.083 59.523C168.896 59.2698 168.65 59.0656 168.367 58.9278C167.666 58.5892 166.873 58.4929 166.111 58.6539C165.422 58.7548 164.78 59.0664 164.275 59.5462C163.769 60.0259 163.425 60.6503 163.288 61.3337C163.25 61.498 163.184 61.6546 163.092 61.7966C162.976 61.9204 162.818 61.9969 162.649 62.0117L160.589 62.3443C160.444 62.372 160.294 62.3415 160.171 62.2595C160.109 62.2164 160.056 62.1603 160.016 62.0951C159.977 62.0299 159.952 61.957 159.943 61.8813C159.882 61.2344 159.983 60.5823 160.237 59.984C160.494 59.2879 160.874 58.6432 161.358 58.0802C161.888 57.4637 162.513 56.9355 163.21 56.5154C163.961 56.0598 164.794 55.7542 165.661 55.6156ZM169.026 69.8618C169.115 69.8476 169.207 69.8512 169.295 69.8725C169.384 69.8937 169.467 69.9322 169.541 69.9857C169.618 70.0362 169.683 70.1024 169.732 70.18C169.782 70.2575 169.814 70.3446 169.828 70.4356L170.193 72.672C170.221 72.8534 170.177 73.0386 170.069 73.1875C169.962 73.3364 169.8 73.437 169.619 73.4674L167.435 73.826C167.253 73.854 167.068 73.8095 166.92 73.7021C166.844 73.6509 166.78 73.5845 166.732 73.507C166.683 73.4295 166.652 73.3427 166.639 73.2522L166.274 71.0159C166.258 70.9261 166.26 70.8339 166.281 70.7452C166.303 70.6565 166.342 70.5732 166.398 70.5008C166.449 70.4252 166.516 70.3611 166.593 70.3128C166.671 70.2645 166.757 70.2331 166.848 70.2204L169.026 69.8618Z" fill="#B99AC8"/>
<g opacity="0.2">
<path d="M165.661 55.6156C166.446 55.4897 167.245 55.4743 168.035 55.57C168.789 55.6596 169.521 55.8803 170.199 56.222C170.845 56.557 171.414 57.0234 171.868 57.5912C172.277 58.1469 172.565 58.7821 172.713 59.456C172.862 60.1298 172.867 60.8272 172.729 61.5032C172.605 62.0229 172.405 62.5216 172.136 62.9832C171.876 63.4322 171.575 63.8558 171.236 64.2481C170.903 64.6393 170.584 65.011 170.29 65.3696C170.003 65.7036 169.748 66.0638 169.528 66.4454C169.321 66.7798 169.217 67.1673 169.228 67.5603C169.222 67.7439 169.17 67.9232 169.078 68.0819C169.031 68.155 168.968 68.2172 168.895 68.2644C168.822 68.3116 168.74 68.3428 168.654 68.3557L166.698 68.6687C166.607 68.6853 166.513 68.6834 166.422 68.6633C166.331 68.6431 166.246 68.6051 166.17 68.5513C166.093 68.5029 166.028 68.4368 165.982 68.3586C165.935 68.2804 165.908 68.1922 165.903 68.1014C165.821 67.4947 165.865 66.8776 166.033 66.2889C166.186 65.7677 166.405 65.2681 166.685 64.8023C166.959 64.3553 167.273 63.9341 167.624 63.5439C167.969 63.1527 168.276 62.7876 168.576 62.4355C168.843 62.1211 169.075 61.7778 169.267 61.4119C169.437 61.097 169.498 60.7351 169.443 60.3817C169.394 60.0707 169.27 59.7761 169.083 59.523C168.896 59.2698 168.65 59.0656 168.367 58.9278C167.666 58.5892 166.873 58.4929 166.111 58.6539C165.422 58.7548 164.78 59.0664 164.275 59.5462C163.769 60.0259 163.425 60.6503 163.288 61.3337C163.25 61.498 163.184 61.6546 163.092 61.7966C162.976 61.9204 162.818 61.9969 162.649 62.0117L160.589 62.3443C160.444 62.372 160.294 62.3415 160.171 62.2595C160.109 62.2164 160.056 62.1603 160.016 62.0951C159.977 62.0299 159.952 61.957 159.943 61.8813C159.882 61.2344 159.983 60.5823 160.237 59.984C160.494 59.2879 160.874 58.6432 161.358 58.0802C161.888 57.4637 162.513 56.9355 163.21 56.5154C163.961 56.0598 164.794 55.7542 165.661 55.6156ZM169.026 69.8618C169.115 69.8476 169.207 69.8512 169.295 69.8725C169.384 69.8937 169.467 69.9322 169.541 69.9857C169.618 70.0362 169.683 70.1024 169.732 70.18C169.782 70.2575 169.814 70.3446 169.828 70.4356L170.193 72.672C170.221 72.8534 170.177 73.0386 170.069 73.1875C169.962 73.3364 169.8 73.437 169.619 73.4674L167.435 73.826C167.253 73.854 167.068 73.8095 166.92 73.7021C166.844 73.6509 166.78 73.5845 166.732 73.507C166.683 73.4295 166.652 73.3427 166.639 73.2522L166.274 71.0159C166.258 70.9261 166.26 70.8339 166.281 70.7452C166.303 70.6565 166.342 70.5732 166.398 70.5008C166.449 70.4252 166.516 70.3611 166.593 70.3128C166.671 70.2645 166.757 70.2331 166.848 70.2204L169.026 69.8618Z" fill="black"/>
</g>
<path d="M184.1 59.1299C184.189 59.1917 184.264 59.271 184.321 59.3629C184.379 59.4548 184.416 59.5575 184.432 59.6645C184.453 59.7706 184.452 59.8798 184.428 59.9853C184.405 60.0908 184.359 60.1902 184.296 60.2774L182.744 62.4616C182.682 62.5505 182.603 62.6258 182.511 62.683C182.419 62.7402 182.316 62.778 182.209 62.7941C182.103 62.8149 181.994 62.8134 181.888 62.7898C181.783 62.7663 181.683 62.7211 181.596 62.6572L179.458 61.138C179.369 61.0771 179.294 60.9979 179.237 60.9057C179.181 60.8135 179.145 60.7105 179.132 60.6034C179.111 60.4973 179.112 60.3881 179.136 60.2826C179.16 60.1771 179.205 60.0777 179.269 59.9905L180.84 57.8063C180.967 57.6293 181.159 57.5095 181.374 57.4728C181.588 57.4362 181.809 57.4858 181.987 57.6107L184.1 59.1299ZM193.124 44.336C193.903 44.8825 194.598 45.5417 195.184 46.292C195.756 46.99 196.197 47.785 196.488 48.6392C196.759 49.4578 196.85 50.325 196.755 51.182C196.645 52.0958 196.299 52.9653 195.751 53.7052C195.344 54.3035 194.821 54.8135 194.212 55.2048C193.677 55.5406 193.095 55.7955 192.485 55.9612C191.89 56.1165 191.284 56.2212 190.672 56.2741L188.938 56.4306C188.418 56.4722 187.903 56.5616 187.399 56.6979C186.935 56.8034 186.51 57.0385 186.173 57.376C186.022 57.5302 185.83 57.6386 185.619 57.689C185.519 57.7177 185.414 57.722 185.311 57.7016C185.209 57.6812 185.114 57.6366 185.032 57.5716L183.142 56.2285C182.961 56.0994 182.837 55.9055 182.796 55.6873C182.772 55.5816 182.772 55.4716 182.799 55.3662C182.825 55.2609 182.875 55.1632 182.946 55.081C183.388 54.5078 183.94 54.029 184.569 53.6726C185.136 53.363 185.741 53.1285 186.369 52.975C186.975 52.828 187.592 52.7342 188.214 52.6946C188.827 52.6555 189.401 52.6099 189.935 52.5577C190.425 52.5145 190.908 52.4183 191.376 52.2708C191.786 52.1344 192.139 51.8661 192.38 51.508C192.598 51.2056 192.74 50.855 192.793 50.4861C192.847 50.1171 192.81 49.7408 192.687 49.389C192.378 48.52 191.789 47.7788 191.011 47.283C189.603 46.279 188.066 46.2464 186.402 47.1852C186.234 47.2919 186.048 47.367 185.854 47.4069C185.753 47.414 185.651 47.4009 185.555 47.3684C185.458 47.336 185.369 47.2848 185.293 47.2178L183.285 45.79C183.212 45.7417 183.15 45.6793 183.102 45.6065C183.054 45.5337 183.021 45.452 183.005 45.3662C182.989 45.2774 182.992 45.1864 183.013 45.0989C183.035 45.0114 183.074 44.9292 183.128 44.8576C183.602 44.2505 184.218 43.7691 184.921 43.4558C185.721 43.0937 186.577 42.8731 187.451 42.8038C188.414 42.7234 189.383 42.8005 190.32 43.032C191.332 43.2758 192.285 43.7192 193.124 44.336Z" fill="#B99AC8"/>
<g opacity="0.6">
<path d="M184.1 59.1299C184.189 59.1917 184.264 59.271 184.321 59.3629C184.379 59.4548 184.416 59.5575 184.432 59.6645C184.453 59.7706 184.452 59.8798 184.428 59.9853C184.405 60.0908 184.359 60.1902 184.296 60.2774L182.744 62.4616C182.682 62.5505 182.603 62.6258 182.511 62.683C182.419 62.7402 182.316 62.778 182.209 62.7941C182.103 62.8149 181.994 62.8134 181.888 62.7898C181.783 62.7663 181.683 62.7211 181.596 62.6572L179.458 61.138C179.369 61.0771 179.294 60.9979 179.237 60.9057C179.181 60.8135 179.145 60.7105 179.132 60.6034C179.111 60.4973 179.112 60.3881 179.136 60.2826C179.16 60.1771 179.205 60.0777 179.269 59.9905L180.84 57.8063C180.967 57.6293 181.159 57.5095 181.374 57.4728C181.588 57.4362 181.809 57.4858 181.987 57.6107L184.1 59.1299ZM193.124 44.336C193.903 44.8825 194.598 45.5417 195.184 46.292C195.756 46.99 196.197 47.785 196.488 48.6392C196.759 49.4578 196.85 50.325 196.755 51.182C196.645 52.0958 196.299 52.9653 195.751 53.7052C195.344 54.3035 194.821 54.8135 194.212 55.2048C193.677 55.5406 193.095 55.7955 192.485 55.9612C191.89 56.1165 191.284 56.2212 190.672 56.2741L188.938 56.4306C188.418 56.4722 187.903 56.5616 187.399 56.6979C186.935 56.8034 186.51 57.0385 186.173 57.376C186.022 57.5302 185.83 57.6386 185.619 57.689C185.519 57.7177 185.414 57.722 185.311 57.7016C185.209 57.6812 185.114 57.6366 185.032 57.5716L183.142 56.2285C182.961 56.0994 182.837 55.9055 182.796 55.6873C182.772 55.5816 182.772 55.4716 182.799 55.3662C182.825 55.2609 182.875 55.1632 182.946 55.081C183.388 54.5078 183.94 54.029 184.569 53.6726C185.136 53.363 185.741 53.1285 186.369 52.975C186.975 52.828 187.592 52.7342 188.214 52.6946C188.827 52.6555 189.401 52.6099 189.935 52.5577C190.425 52.5145 190.908 52.4183 191.376 52.2708C191.786 52.1344 192.139 51.8661 192.38 51.508C192.598 51.2056 192.74 50.855 192.793 50.4861C192.847 50.1171 192.81 49.7408 192.687 49.389C192.378 48.52 191.789 47.7788 191.011 47.283C189.603 46.279 188.066 46.2464 186.402 47.1852C186.234 47.2919 186.048 47.367 185.854 47.4069C185.753 47.414 185.651 47.4009 185.555 47.3684C185.458 47.336 185.369 47.2848 185.293 47.2178L183.285 45.79C183.212 45.7417 183.15 45.6793 183.102 45.6065C183.054 45.5337 183.021 45.452 183.005 45.3662C182.989 45.2774 182.992 45.1864 183.013 45.0989C183.035 45.0114 183.074 44.9292 183.128 44.8576C183.602 44.2505 184.218 43.7691 184.921 43.4558C185.721 43.0937 186.577 42.8731 187.451 42.8038C188.414 42.7234 189.383 42.8005 190.32 43.032C191.332 43.2758 192.285 43.7192 193.124 44.336Z" fill="white"/>
</g>
<path d="M135.544 116.845H112.379V60.7207C112.379 55.8461 114.315 51.1711 117.762 47.7242C121.209 44.2773 125.884 42.3409 130.759 42.3409H132.897C137.772 42.3409 142.447 44.2773 145.894 47.7242C149.341 51.1711 151.277 55.8461 151.277 60.7207V101.145C151.269 105.312 149.607 109.305 146.658 112.248C143.708 115.192 139.711 116.845 135.544 116.845Z" fill="#263238"/>
<path d="M110.124 251.959C109.714 254.284 109.496 256.639 109.472 259C109.387 263.278 108.605 264.797 108.5 268.304C108.376 272.314 109.074 273.814 110.698 276.07C112.321 278.326 116.566 280.366 118.404 276.559C120.243 272.751 119.975 270.254 119.395 266.322C118.802 262.254 118.743 260.004 118.378 256.907C118.078 254.176 117.726 252.096 117.726 252.096L110.124 251.959Z" fill="#263238"/>
<path d="M122.265 223.551L108.182 223.297C108.39 232.699 109.883 243.137 110.138 251.985C110.19 253.648 110.099 264.888 110.724 268.285C111.67 273.423 117.76 272.725 118.086 269.654C118.412 266.583 117.694 253.459 117.714 252.102C117.655 246.443 120.322 236.891 121.698 226.733C121.756 226.244 122.2 224.04 122.265 223.551Z" fill="#FFA8A7"/>
<path d="M140.357 244.643C140.357 244.643 139.803 244.344 139.705 244.937C139.568 245.641 139.36 247.095 139.053 248.256C138.649 249.866 138.31 252.52 138.551 253.837C138.793 255.154 141.857 256.836 143.846 257.449C146.296 258.205 148.532 259.535 150.366 261.328C152.322 263.18 156.579 264.927 159.494 264.908C162.917 264.908 165.303 263.767 166.431 261.935C167.559 260.102 165.401 259.881 161.489 257.371L158.457 255.415C152.256 251.366 149.981 249.201 148.24 245.152L140.357 244.643Z" fill="#263238"/>
<path d="M148.293 242.133C148.189 239.225 150.197 214.508 150.197 214.508L136.824 220.604C139.686 237.7 140.299 241.736 140.345 244.533C140.286 244.767 140.262 245.009 140.273 245.25C140.273 248.569 144.035 250.362 146.956 252.578C149.439 254.524 152.085 256.251 154.865 257.742C156.991 258.805 161.307 258.903 161.841 257.54C158.282 254.821 153.105 250.753 150.275 247.649C148.893 246.189 148.397 245.048 148.293 242.133Z" fill="#FFA8A7"/>
<path d="M113.95 131.808C108.813 143.081 108.813 151.805 109.667 166.195C110.423 179.398 111.681 191.036 111.681 191.036C111.486 193.377 108.232 197.947 107.808 208.301C107.417 217.977 108.46 230.28 108.46 230.28C108.46 230.28 115.769 234.329 121.174 230.241C121.174 230.241 126.39 205.341 127.916 193.227C129.22 182.658 131.567 169.155 131.567 169.155L136.503 193.155C135.438 196.56 134.666 200.05 134.195 203.587C133.504 210.713 137.494 224.705 137.494 224.705C137.494 224.705 145.044 226.955 149.654 222.867C149.654 222.867 151.375 200.118 152.021 191.538C152.881 180.043 151.069 148.93 149.654 132.454L113.95 131.808Z" fill="#79A8F0"/>
<path d="M131.582 169.135L133.61 151.049C133.61 151.049 142.699 149.836 146.819 145.963C145.64 147.808 144.069 149.371 142.217 150.541C140.366 151.711 138.28 152.458 136.107 152.731L133.173 169.559L136.505 193.155L131.582 169.135Z" fill="#263238"/>
<path d="M168.386 127.362C168.761 124.061 168.927 120.74 168.881 117.419C168.679 114.55 168.164 114.08 164.154 109.001C158.743 102.136 154.12 95.9613 149.23 89.826C145.735 85.4446 142.058 84.773 138.485 84.9686C135.981 85.1055 140.871 97.148 143.329 104.274L157.367 119.388C157.802 119.984 158.002 120.72 157.928 121.455L157.08 134.312L161.286 139.945C161.286 139.945 167.656 134.455 168.386 127.362Z" fill="#FFA8A7"/>
<path d="M124.949 85.3598C122.231 85.5489 117.288 86.0118 117.288 86.0118C114.439 87.6027 113.716 88.9132 113.187 92.6948C112.959 94.3118 114.276 98.6085 115.404 104.718L117.543 116.043L117.308 121.663C116.2 125.093 113.689 129.35 111.473 135.629C122.361 141.706 131.489 141.934 139.769 140.845C146.081 140.03 149.426 138.504 150.54 136.992C150.306 130.791 149.888 126.957 149.758 120.477C149.712 117.758 149.875 115.006 149.986 111.877C154.218 108.395 154.27 102.605 151.942 98.8367C146.576 90.1455 141.354 84.6752 137.898 84.9556L124.949 85.3598Z" fill="#B99AC8"/>
<path opacity="0.6" d="M124.949 85.3598C122.231 85.5489 117.288 86.0118 117.288 86.0118C114.439 87.6027 113.716 88.9132 113.187 92.6948C112.959 94.3118 114.276 98.6085 115.404 104.718L117.543 116.043L117.308 121.663C116.2 125.093 113.689 129.35 111.473 135.629C122.361 141.706 131.489 141.934 139.769 140.845C146.081 140.03 149.426 138.504 150.54 136.992C150.306 130.791 149.888 126.957 149.758 120.477C149.712 117.758 149.875 115.006 149.986 111.877C154.218 108.395 154.27 102.605 151.942 98.8367C146.576 90.1455 141.354 84.6752 137.898 84.9556L124.949 85.3598Z" fill="#F4ACC4"/>
<path opacity="0.1" d="M141.556 111.961C141.556 111.961 136.588 115.821 130.909 113.807C129.315 113.304 127.877 112.399 126.734 111.177C125.592 109.956 124.784 108.461 124.389 106.837C124.389 106.837 123.789 113.324 130.942 115.534C137.873 117.666 141.556 111.961 141.556 111.961Z" fill="black"/>
<path d="M148.299 67.5537C148.084 76.9686 145.039 79.2897 143.5 79.9417C141.961 80.5937 139.014 80.2025 136.145 79.7266V85.412C136.145 85.412 139.458 88.8807 139.21 91.4691C138.962 94.0575 133.994 94.351 130.29 91.8147C128.247 90.411 126.399 88.7426 124.794 86.8529C124.486 86.4884 124.317 86.0263 124.318 85.5489V72.2481C124.318 72.2481 122.747 73.9107 119.969 72.0069C119.37 71.6244 118.857 71.1214 118.462 70.5299C118.068 69.9384 117.801 69.2713 117.678 68.571C117.556 67.8707 117.58 67.1526 117.75 66.4622C117.92 65.7719 118.232 65.1244 118.665 64.561C119.878 63.1332 122.955 63.0354 124.429 65.213C125.264 66.8365 125.374 68.473 126.307 67.821C128.784 66.0346 127.454 61.953 130.447 59.997C131.429 59.4845 132.449 59.0485 133.498 58.693C138.838 56.8479 143.467 55.2961 144.582 51.6449C146.682 52.8446 148.56 56.4502 148.299 67.5537Z" fill="#FFA8A7"/>
<path d="M137.768 75.9645C138.452 75.9645 139.007 75.4099 139.007 74.7257C139.007 74.0415 138.452 73.4869 137.768 73.4869C137.084 73.4869 136.529 74.0415 136.529 74.7257C136.529 75.4099 137.084 75.9645 137.768 75.9645Z" fill="#B16668"/>
<path d="M136.948 66.1259C136.948 66.3809 136.872 66.6303 136.732 66.8431C136.591 67.0559 136.391 67.2228 136.157 67.3231C135.922 67.4234 135.663 67.4528 135.412 67.4075C135.161 67.3623 134.929 67.2444 134.745 67.0685C134.56 66.8926 134.431 66.6664 134.373 66.4179C134.316 66.1694 134.333 65.9095 134.421 65.6704C134.51 65.4313 134.667 65.2234 134.873 65.0726C135.078 64.9218 135.324 64.8346 135.579 64.8219C135.755 64.813 135.932 64.8402 136.098 64.9018C136.264 64.9633 136.415 65.058 136.543 65.18C136.671 65.3019 136.773 65.4487 136.843 65.6113C136.912 65.7739 136.948 65.949 136.948 66.1259Z" fill="#263238"/>
<path d="M146.824 66.2563C146.838 66.4158 146.819 66.5764 146.77 66.7286C146.72 66.8809 146.641 67.0219 146.537 67.1432C146.433 67.2646 146.305 67.364 146.162 67.4356C146.019 67.5072 145.863 67.5496 145.703 67.5603C145.542 67.5751 145.379 67.5556 145.226 67.5028C145.073 67.4501 144.933 67.3655 144.815 67.2545C144.698 67.1435 144.605 67.0087 144.543 66.8591C144.481 66.7094 144.452 66.5484 144.458 66.3867C144.441 66.226 144.457 66.0635 144.505 65.9093C144.553 65.7551 144.632 65.6123 144.738 65.4897C144.843 65.3672 144.972 65.2674 145.118 65.1966C145.263 65.1257 145.421 65.0853 145.582 65.0777C145.744 65.0702 145.905 65.0957 146.056 65.1526C146.207 65.2096 146.345 65.2968 146.462 65.409C146.578 65.5212 146.67 65.6559 146.732 65.805C146.795 65.954 146.826 66.1142 146.824 66.2758V66.2563Z" fill="#263238"/>
<path d="M135.272 69.4771C134.147 69.4771 133.069 69.0308 132.273 68.2363C131.477 67.4417 131.029 66.3637 131.027 65.2391C131.027 62.3573 134 62.3573 135.272 62.3573C136.543 62.3573 139.51 62.3573 139.51 65.2391C139.508 66.3626 139.061 67.4395 138.267 68.234C137.472 69.0284 136.395 69.4754 135.272 69.4771ZM135.272 63.0223C132.664 63.0223 131.699 63.6743 131.699 65.2391C131.699 66.1902 132.077 67.1023 132.749 67.7748C133.422 68.4473 134.334 68.8251 135.285 68.8251C136.236 68.8251 137.148 68.4473 137.821 67.7748C138.493 67.1023 138.871 66.1902 138.871 65.2391C138.845 63.6417 137.841 63.0223 135.272 63.0223Z" fill="#455A64"/>
<path d="M146.036 69.4771C144.911 69.4771 143.832 69.0308 143.037 68.2363C142.241 67.4417 141.793 66.3637 141.791 65.2391C141.791 62.3573 144.764 62.3573 146.036 62.3573C147.307 62.3573 150.274 62.3573 150.274 65.2391C150.272 66.3626 149.825 67.4395 149.03 68.234C148.236 69.0284 147.159 69.4754 146.036 69.4771ZM146.036 63.0223C143.467 63.0223 142.463 63.6743 142.463 65.2391C142.463 66.1902 142.84 67.1023 143.513 67.7748C144.185 68.4473 145.098 68.8251 146.049 68.8251C147 68.8251 147.912 68.4473 148.584 67.7748C149.257 67.1023 149.635 66.1902 149.635 65.2391C149.608 63.6417 148.604 63.0223 146.036 63.0223Z" fill="#455A64"/>
<path d="M140.168 63.8699L140.377 71.7917L144.543 70.5007L140.168 63.8699Z" fill="#F28F8F"/>
<path d="M136.139 79.7461C133.114 79.3484 126.887 77.5619 125.916 75.0974C126.307 76.3429 127.069 77.4393 128.1 78.24C129.958 79.8374 136.139 81.6304 136.139 81.6304V79.7461Z" fill="#F28F8F"/>
<path d="M136.289 60.0231L133.525 61.7118C133.307 61.3323 133.244 60.8834 133.348 60.4585C133.452 60.0335 133.717 59.6651 134.085 59.4298C134.268 59.3191 134.471 59.2466 134.682 59.2165C134.893 59.1865 135.108 59.1996 135.314 59.2551C135.52 59.3105 135.713 59.4072 135.88 59.5392C136.048 59.6712 136.187 59.8358 136.289 60.0231Z" fill="#263238"/>
<path d="M147.536 61.9009L144.459 60.8251C144.519 60.6211 144.619 60.4315 144.755 60.2679C144.89 60.1042 145.058 59.9701 145.247 59.8736C145.436 59.7771 145.644 59.7204 145.856 59.7068C146.068 59.6933 146.28 59.7233 146.48 59.7949C146.893 59.9432 147.233 60.2446 147.429 60.6367C147.626 61.0287 147.664 61.4814 147.536 61.9009Z" fill="#263238"/>
<path d="M139.176 65.5782C139.132 65.5782 139.088 65.5694 139.048 65.5522C139.007 65.5351 138.97 65.51 138.939 65.4785C138.908 65.4469 138.884 65.4095 138.867 65.3684C138.851 65.3273 138.843 65.2833 138.844 65.2391C138.844 64.698 139.913 64.3459 140.878 64.3459C141.843 64.3459 142.462 64.698 142.462 65.2391C142.442 65.31 142.399 65.3723 142.341 65.4167C142.282 65.461 142.21 65.485 142.136 65.485C142.063 65.485 141.991 65.461 141.932 65.4167C141.873 65.3723 141.831 65.31 141.81 65.2391C141.81 65.1739 141.478 65.0109 140.898 65.0109C140.43 65.001 139.966 65.0807 139.528 65.2456C139.528 65.291 139.519 65.3359 139.501 65.3776C139.483 65.4193 139.457 65.4568 139.424 65.488C139.391 65.5191 139.352 65.5432 139.31 65.5587C139.267 65.5742 139.222 65.5808 139.176 65.5782Z" fill="#455A64"/>
<path d="M131.373 65.2913H131.334L123.881 64.6393C123.533 64.2942 123.118 64.0235 122.662 63.8439L131.412 64.6523C131.5 64.6638 131.579 64.709 131.634 64.7785C131.689 64.8479 131.715 64.936 131.705 65.024C131.69 65.1005 131.648 65.1691 131.588 65.218C131.527 65.2669 131.451 65.2928 131.373 65.2913Z" fill="#455A64"/>
<path d="M100.774 73.0631C103.213 69.8031 104.875 67.3451 107.099 64.5871C108.364 63.0028 109.172 61.8683 110.359 60.2448C111.193 59.1234 111.663 58.178 112.615 57.8324C113.643 57.411 114.57 56.7753 115.333 55.9677C115.803 55.4484 116.238 54.8996 116.637 54.3246C118.035 52.4437 119.695 50.7728 121.566 49.3629C123.522 47.8894 125.707 46.7549 127.721 45.3531C128.921 44.512 130.206 43.1168 128.745 41.8128C128.297 41.4355 127.761 41.1776 127.187 41.063C123.633 40.2936 120.543 41.5128 117.068 42.3996C115.558 42.7763 114.082 43.2757 112.654 43.8926C111.951 44.1705 111.292 44.5482 110.698 45.0141C109.866 45.8524 109.185 46.8271 108.683 47.8959C107.164 50.6082 103.904 53.0337 101.622 55.1788C98.9552 57.689 96.5688 59.9905 93.524 62.755C90.7856 65.2522 88.1059 67.5472 85.5957 70.2726C83.5158 72.522 84.2917 74.2824 84.5655 74.8952C86.2607 78.3769 88.158 79.6288 90.4335 81.7869C94.3455 85.5228 107.875 96.2743 112.354 99.8277C113.316 100.584 114.072 101.57 114.551 102.697L115.412 104.685C120.523 105.624 123.933 97.95 119.702 88.7111C119.001 87.2171 117.931 85.9268 116.592 84.9621C111.245 81.0697 100.774 73.0631 100.774 73.0631Z" fill="#FFA8A7"/>
<path d="M100.774 73.0631C99.1465 75.0646 96.9783 76.5561 94.5273 77.3598C94.5273 77.3598 97.7874 78.1943 102.254 74.1845L100.774 73.0631Z" fill="#F28F8F"/>
<path d="M167.056 120.561L166.222 119.844C166.097 119.762 165.955 119.71 165.806 119.693C165.658 119.676 165.507 119.695 165.367 119.746L156.311 122.211C155.855 122.363 155.437 122.612 155.086 122.94C154.735 123.269 154.459 123.67 154.277 124.115L147.757 142.912C147.678 143.065 147.648 143.238 147.668 143.409C147.689 143.58 147.761 143.741 147.874 143.87L148.735 144.614C148.86 144.7 149.005 144.755 149.156 144.773C149.307 144.791 149.46 144.772 149.602 144.718L158.671 142.253C159.128 142.101 159.546 141.852 159.897 141.524C160.248 141.195 160.524 140.795 160.706 140.35C162.01 136.653 165.922 125.249 167.226 121.552C167.382 121.089 167.304 120.737 167.056 120.561Z" fill="#455A64"/>
<path d="M148.611 143.636L155.131 124.838C155.312 124.394 155.588 123.993 155.939 123.666C156.29 123.338 156.709 123.091 157.165 122.941L166.215 120.477C167.056 120.248 167.519 120.731 167.219 121.552C165.915 125.249 162.003 136.653 160.699 140.35C160.517 140.795 160.241 141.195 159.89 141.524C159.539 141.852 159.121 142.101 158.665 142.253L149.615 144.744C148.78 144.94 148.33 144.457 148.611 143.636Z" fill="#B99AC8"/>
<path d="M156.18 123.463C155.71 123.819 155.344 124.297 155.124 124.845L148.604 143.636C148.529 143.785 148.498 143.952 148.515 144.118C148.531 144.284 148.593 144.442 148.695 144.575L147.887 143.883C147.771 143.755 147.697 143.595 147.675 143.424C147.653 143.252 147.684 143.078 147.763 142.925L154.283 124.128C154.489 123.617 154.824 123.168 155.254 122.824L156.18 123.463Z" fill="#37474F"/>
<path d="M164.573 129.129C163.921 131.039 161.659 132.317 157.916 133.204C154.174 134.09 152.107 138.061 152.7 139.267C153.294 140.473 159.344 141.601 161.763 141.256C164.182 140.91 166.607 137.416 167.344 136.333C168.081 135.251 168.929 127.701 168.153 126.664C167.377 125.627 165.74 125.79 165.74 125.79L164.573 129.129Z" fill="#F28F8F"/>
<defs>
<linearGradient id="paint0_linear_340_21168" x1="132.103" y1="228.969" x2="132.103" y2="290.127" gradientUnits="userSpaceOnUse">
<stop stop-color="#F4ACC4"/>
<stop offset="0.541667" stop-color="#B99AC8"/>
<stop offset="1" stop-color="#79A8F0"/>
</linearGradient>
<linearGradient id="paint1_linear_340_21168" x1="234.408" y1="56.1402" x2="234.408" y2="202.15" gradientUnits="userSpaceOnUse">
<stop stop-color="#F4ACC4"/>
<stop offset="0.541667" stop-color="#B99AC8"/>
<stop offset="1" stop-color="#79A8F0"/>
</linearGradient>
</defs>
</svg>
