<svg width="104" height="101" viewBox="0 0 104 101" fill="none" xmlns="http://www.w3.org/2000/svg">
<path fill-rule="evenodd" clip-rule="evenodd" d="M12.483 47.121C11.5497 46.7098 10.5167 46.4814 9.43011 46.4814C5.26401 46.4814 1.88672 49.8393 1.88672 53.9814C1.88672 58.1235 5.26401 61.4814 9.43011 61.4814C10.5543 61.4814 11.621 61.2369 12.5795 60.7985C15.9564 79.4945 32.3999 93.6814 52.176 93.6814C71.874 93.6814 88.2656 79.6063 91.7319 61.0198C92.5456 61.3184 93.4253 61.4814 94.3433 61.4814C98.5094 61.4814 101.887 58.1235 101.887 53.9814C101.887 49.8393 98.5094 46.4814 94.3433 46.4814C93.4631 46.4814 92.6181 46.6313 91.8328 46.9068C90.1603 37.1594 84.9408 28.6146 77.5415 22.6319C76.3921 38.8202 64.5467 30.4952 57.8734 24.4185C58.6069 23.2222 59.0296 21.8167 59.0296 20.313C59.0296 18.5985 58.4802 17.0117 57.547 15.7172C58.0527 15.2506 58.5914 14.7677 59.1554 14.2812C56.8886 13.8869 54.5564 13.6814 52.176 13.6814C49.5268 13.6814 46.9374 13.936 44.4313 14.4219C44.6803 14.6382 44.9241 14.8536 45.1621 15.0669C43.9145 16.4616 43.1566 18.2992 43.1566 20.313C43.1566 22.115 43.7635 23.776 44.7851 25.1048C38.1178 30.9864 27.3366 37.9925 25.9424 23.354C18.9508 29.3379 14.0512 37.671 12.483 47.121Z" stroke="#263238" stroke-width="3" stroke-linecap="round" stroke-linejoin="round"/>
<path d="M42.3631 47.6813C42.3631 44.6292 39.8758 42.155 36.8075 42.155C33.7393 42.155 31.252 44.6292 31.252 47.6813" stroke="#263238" stroke-width="3" stroke-linecap="round" stroke-linejoin="round"/>
<path d="M72.5213 47.6813C72.5213 44.6292 70.034 42.155 66.9657 42.155C63.8975 42.155 61.4102 44.6292 61.4102 47.6813" stroke="#263238" stroke-width="3" stroke-linecap="round" stroke-linejoin="round"/>
<path d="M62.9976 61.1024C62.9976 67.2066 58.023 72.155 51.8865 72.155C45.75 72.155 40.7754 67.2066 40.7754 61.1024" stroke="#263238" stroke-width="3" stroke-linecap="round" stroke-linejoin="round"/>
<ellipse cx="51.0928" cy="20.313" rx="7.93651" ry="7.89474" fill="#FF6363" stroke="#263238" stroke-width="3" stroke-linecap="round" stroke-linejoin="round"/>
<path d="M59.4258 20.3129H68.1559" stroke="#263238" stroke-width="3" stroke-linecap="round" stroke-linejoin="round"/>
<path d="M33.6328 20.3129H42.363" stroke="#263238" stroke-width="3" stroke-linecap="round" stroke-linejoin="round"/>
<path fill-rule="evenodd" clip-rule="evenodd" d="M57.8733 24.4184C64.8919 30.8096 77.6318 39.6877 77.6318 19.9182C77.6318 -0.161859 64.4886 9.31276 57.5469 15.7172C58.4801 17.0117 59.0295 18.5985 59.0295 20.3129C59.0295 21.8167 58.6069 23.2222 57.8733 24.4184Z" fill="#FF6363" stroke="#263238" stroke-width="3" stroke-linecap="round" stroke-linejoin="round"/>
<path fill-rule="evenodd" clip-rule="evenodd" d="M44.7858 25.1047C37.6473 31.402 25.793 38.9883 25.793 19.9182C25.793 0.508344 38.0735 8.71322 45.1628 15.0669C43.9152 16.4615 43.1572 18.2992 43.1572 20.3129C43.1572 22.115 43.7642 23.776 44.7858 25.1047Z" fill="#FF6363" stroke="#263238" stroke-width="3" stroke-linecap="round" stroke-linejoin="round"/>
</svg>
