<svg width="34" height="30" viewBox="0 0 34 30" fill="none" xmlns="http://www.w3.org/2000/svg">
<path fill-rule="evenodd" clip-rule="evenodd" d="M4.39082 13.8257C4.09215 13.6941 3.7616 13.621 3.41389 13.621C2.08073 13.621 1 14.6955 1 16.021C1 17.3465 2.08073 18.421 3.41389 18.421C3.77363 18.421 4.11499 18.3428 4.42169 18.2025C5.5023 24.1852 10.7642 28.725 17.0926 28.725C23.3959 28.725 28.6412 24.221 29.7504 18.2733C30.0108 18.3688 30.2923 18.421 30.5861 18.421C31.9193 18.421 33 17.3465 33 16.021C33 14.6955 31.9193 13.621 30.5861 13.621C30.3045 13.621 30.0341 13.669 29.7827 13.7571C29.2476 10.638 27.5773 7.90362 25.2095 5.98916C24.8417 11.1694 21.0512 8.50542 18.9157 6.56086C19.1505 6.17807 19.2857 5.7283 19.2857 5.24711C19.2857 4.69848 19.1099 4.1907 18.8113 3.77646C18.9731 3.62715 19.1455 3.47263 19.326 3.31693C18.6006 3.19078 17.8543 3.125 17.0926 3.125C16.2448 3.125 15.4162 3.20647 14.6143 3.36196C14.6939 3.43119 14.772 3.50011 14.8481 3.56836C14.4489 4.01466 14.2063 4.60271 14.2063 5.24711C14.2063 5.82375 14.4006 6.35528 14.7275 6.78048C12.5939 8.66259 9.14396 10.9046 8.69783 6.22023C6.46051 8.13509 4.89265 10.8017 4.39082 13.8257Z" fill="#FFEBD5" stroke="#263238" stroke-linecap="round" stroke-linejoin="round"/>
<path d="M13.952 14.0052C13.952 13.0286 13.1561 12.2368 12.1743 12.2368C11.1924 12.2368 10.3965 13.0286 10.3965 14.0052" stroke="#263238" stroke-linecap="round" stroke-linejoin="round"/>
<path d="M23.6024 14.0052C23.6024 13.0286 22.8065 12.2368 21.8247 12.2368C20.8428 12.2368 20.0469 13.0286 20.0469 14.0052" stroke="#263238" stroke-linecap="round" stroke-linejoin="round"/>
<path d="M20.5564 18.2998C20.5564 20.2531 18.9645 21.8366 17.0009 21.8366C15.0372 21.8366 13.4453 20.2531 13.4453 18.2998" stroke="#263238" stroke-linecap="round" stroke-linejoin="round"/>
<ellipse cx="16.7467" cy="5.24702" rx="2.53968" ry="2.52632" fill="#FF9B9B" stroke="#263238" stroke-linecap="round" stroke-linejoin="round"/>
<path fill-rule="evenodd" clip-rule="evenodd" d="M19.4121 5.24726H22.2058H19.4121Z" fill="#E1F2FA"/>
<path d="M19.4121 5.24726H22.2058" stroke="#263238" stroke-linecap="round" stroke-linejoin="round"/>
<path fill-rule="evenodd" clip-rule="evenodd" d="M11.1582 5.24726H13.9519H11.1582Z" fill="#E1F2FA"/>
<path d="M11.1582 5.24726H13.9519" stroke="#263238" stroke-linecap="round" stroke-linejoin="round"/>
<path fill-rule="evenodd" clip-rule="evenodd" d="M18.915 6.56092C21.161 8.60611 25.2377 11.4471 25.2377 5.12086C25.2377 -1.30476 21.0319 1.72711 18.8105 3.77653C19.1092 4.19076 19.285 4.69854 19.285 5.24717C19.285 5.72836 19.1497 6.17814 18.915 6.56092Z" fill="#FF7171" stroke="#263238" stroke-linecap="round" stroke-linejoin="round"/>
<path fill-rule="evenodd" clip-rule="evenodd" d="M14.7281 6.78055C12.4438 8.79566 8.65039 11.2233 8.65039 5.12086C8.65039 -1.0903 12.5802 1.53526 14.8487 3.56843C14.4495 4.01472 14.207 4.60277 14.207 5.24717C14.207 5.82382 14.4012 6.35535 14.7281 6.78055Z" fill="#FF7171" stroke="#263238" stroke-linecap="round" stroke-linejoin="round"/>
</svg>
