<svg width="25" height="25" viewBox="0 0 25 25" fill="none" xmlns="http://www.w3.org/2000/svg">
<g clip-path="url(#clip0_370_1901)">
<path d="M12.8457 10.3881V15.0353H19.3039C19.0203 16.5299 18.1693 17.7954 16.8929 18.6463L20.7874 21.6681C23.0565 19.5736 24.3656 16.4973 24.3656 12.8427C24.3656 11.9918 24.2893 11.1736 24.1474 10.3882L12.8457 10.3881Z" fill="#4285F4"/>
<path d="M6.12032 14.8539L5.24195 15.5263L2.13281 17.9481C4.10735 21.8644 8.15433 24.5699 12.8452 24.5699C16.0851 24.5699 18.8014 23.5008 20.7869 21.6681L16.8924 18.6463C15.8233 19.3663 14.4597 19.8027 12.8452 19.8027C9.72521 19.8027 7.07438 17.6973 6.12522 14.8609L6.12032 14.8539Z" fill="#34A853"/>
<path d="M2.13288 7.19177C1.31475 8.80625 0.845703 10.6281 0.845703 12.5699C0.845703 14.5117 1.31475 16.3335 2.13288 17.948C2.13288 17.9588 6.12568 14.8498 6.12568 14.8498C5.88568 14.1298 5.74382 13.3662 5.74382 12.5698C5.74382 11.7733 5.88568 11.0097 6.12568 10.2897L2.13288 7.19177Z" fill="#FBBC05"/>
<path d="M12.8454 5.34812C14.6127 5.34812 16.1836 5.95902 17.4382 7.13722L20.8745 3.7009C18.7909 1.75911 16.0855 0.569946 12.8454 0.569946C8.15457 0.569946 4.10735 3.26449 2.13281 7.19177L6.12549 10.29C7.07452 7.45356 9.72546 5.34812 12.8454 5.34812Z" fill="#EA4335"/>
</g>
<defs>
<clipPath id="clip0_370_1901">
<rect width="24" height="24" fill="white" transform="translate(0.845703 0.569946)"/>
</clipPath>
</defs>
</svg>
