<svg width="187" height="186" viewBox="0 0 187 186" fill="none" xmlns="http://www.w3.org/2000/svg">
<g clip-path="url(#clip0_340_20797)">
<circle cx="94.3887" cy="93.5" r="65.5" fill="url(#paint0_linear_340_20797)"/>
<path d="M186.889 142.253H0.888672V142.346H186.889V142.253Z" fill="#EBEBEB"/>
<path d="M168.251 148.238H160.186V148.331H168.251V148.238Z" fill="#EBEBEB"/>
<path d="M129.105 146.311H116.416V146.404H129.105V146.311Z" fill="#EBEBEB"/>
<path d="M164.985 144.786H148.42V144.879H164.985V144.786Z" fill="#EBEBEB"/>
<path d="M65.2515 146.661H61.1074V146.754H65.2515V146.661Z" fill="#EBEBEB"/>
<path d="M57.7928 146.661H43.5117V146.754H57.7928V146.661Z" fill="#EBEBEB"/>
<path d="M35.861 145.091H25.5566V145.184H35.861V145.091Z" fill="#EBEBEB"/>
<path d="M89.0534 125.662H17.2239C16.6612 125.661 16.1219 125.436 15.7243 125.038C15.3268 124.64 15.1035 124.1 15.1035 123.537V22.5655C15.1084 22.006 15.3339 21.4711 15.7309 21.0769C16.1279 20.6826 16.6644 20.461 17.2239 20.46H89.0534C89.6168 20.46 90.157 20.6838 90.5554 21.0821C90.9537 21.4805 91.1775 22.0208 91.1775 22.5841V123.537C91.1775 124.101 90.9537 124.641 90.5554 125.039C90.157 125.438 89.6168 125.662 89.0534 125.662ZM17.2239 20.5344C16.6859 20.5354 16.1702 20.7498 15.7901 21.1306C15.41 21.5114 15.1965 22.0275 15.1965 22.5655V123.537C15.1965 124.076 15.41 124.592 15.7901 124.972C16.1702 125.353 16.6859 125.568 17.2239 125.569H89.0534C89.5918 125.568 90.1078 125.353 90.4885 124.973C90.8692 124.592 91.0835 124.076 91.0845 123.537V22.5655C91.0835 22.0271 90.8692 21.5111 90.4885 21.1304C90.1078 20.7497 89.5918 20.5354 89.0534 20.5344H17.2239Z" fill="#EBEBEB"/>
<path d="M169.52 125.662H97.6866C97.1236 125.661 96.5839 125.436 96.1857 125.038C95.7876 124.64 95.5635 124.101 95.5625 123.537V22.5655C95.5684 22.0057 95.7946 21.4708 96.1922 21.0766C96.5899 20.6825 97.1268 20.4609 97.6866 20.46H169.52C170.079 20.4619 170.614 20.684 171.01 21.0782C171.407 21.4723 171.632 22.0067 171.637 22.5655V123.537C171.637 124.1 171.414 124.639 171.017 125.037C170.62 125.435 170.082 125.66 169.52 125.662ZM97.6866 20.5344C97.1482 20.5354 96.6322 20.7497 96.2515 21.1304C95.8708 21.5111 95.6565 22.0271 95.6555 22.5655V123.537C95.6565 124.076 95.8708 124.592 96.2515 124.973C96.6322 125.353 97.1482 125.568 97.6866 125.569H169.52C170.058 125.568 170.574 125.353 170.955 124.973C171.336 124.592 171.55 124.076 171.551 123.537V22.5655C171.55 22.0271 171.336 21.5111 170.955 21.1304C170.574 20.7497 170.058 20.5354 169.52 20.5344H97.6866Z" fill="#EBEBEB"/>
<path d="M43.6689 64.9624C45.7319 64.9624 47.7104 64.1428 49.1692 62.6841C50.6279 61.2253 51.4475 59.2468 51.4475 57.1838C51.4475 55.1208 50.6279 53.1424 49.1692 51.6836C47.7104 50.2248 45.7319 49.4053 43.6689 49.4053H42.7129V64.9624H43.6689Z" fill="#E0E0E0"/>
<path d="M42.7043 64.9624C47.0003 64.9624 50.4828 61.4798 50.4828 57.1838C50.4828 52.8879 47.0003 49.4053 42.7043 49.4053C38.4083 49.4053 34.9258 52.8879 34.9258 57.1838C34.9258 61.4798 38.4083 64.9624 42.7043 64.9624Z" fill="#F4ACC4"/>
<path d="M42.3476 58.1585C39.5851 58.1585 36.9358 57.0611 34.9824 55.1077C33.029 53.1543 31.9316 50.505 31.9316 47.7425V41.5264C31.9316 41.2669 32.0347 41.018 32.2182 40.8346C32.4017 40.6511 32.6505 40.548 32.91 40.548C33.1695 40.548 33.4183 40.6511 33.6018 40.8346C33.7853 41.018 33.8884 41.2669 33.8884 41.5264V47.7462C33.8903 49.9885 34.7817 52.1384 36.3669 53.7243C37.9521 55.3102 40.1016 56.2025 42.3439 56.2055C42.4772 56.1972 42.6108 56.2164 42.7364 56.2617C42.8621 56.3071 42.9771 56.3777 43.0744 56.4692C43.1717 56.5607 43.2492 56.6711 43.3022 56.7937C43.3552 56.9163 43.3826 57.0484 43.3826 57.182C43.3826 57.3155 43.3552 57.4477 43.3022 57.5703C43.2492 57.6929 43.1717 57.8033 43.0744 57.8948C42.9771 57.9863 42.8621 58.0569 42.7364 58.1022C42.6108 58.1476 42.4772 58.1667 42.3439 58.1585H42.3476Z" fill="#E0E0E0"/>
<path d="M24.2613 47.0022H41.5668C41.8435 47.0022 42.1166 46.9388 42.365 46.8166C42.6133 46.6945 42.8303 46.517 42.9992 46.2977C43.1681 46.0785 43.2845 45.8234 43.3392 45.5521C43.394 45.2808 43.3858 45.0006 43.3152 44.733L41.8086 39.06C41.7069 38.6746 41.4807 38.3336 41.1651 38.0901C40.8496 37.8466 40.4625 37.7141 40.0639 37.7134H25.7642C25.3651 37.7139 24.9774 37.8462 24.6613 38.0897C24.3451 38.3332 24.1182 38.6743 24.0158 39.06L22.5278 44.7256C22.4554 44.9925 22.4453 45.2725 22.4983 45.5439C22.5513 45.8154 22.6661 46.071 22.8336 46.291C23.0012 46.5111 23.217 46.6896 23.4646 46.8129C23.7122 46.9363 23.9848 47.001 24.2613 47.0022Z" fill="#F4ACC4"/>
<path d="M153.513 64.9624C155.576 64.9624 157.554 64.1428 159.013 62.6841C160.472 61.2253 161.291 59.2468 161.291 57.1838C161.291 55.1208 160.472 53.1424 159.013 51.6836C157.554 50.2248 155.576 49.4053 153.513 49.4053H152.557V64.9624H153.513Z" fill="#E0E0E0"/>
<path d="M152.556 64.9624C156.852 64.9624 160.334 61.4798 160.334 57.1838C160.334 52.8879 156.852 49.4053 152.556 49.4053C148.26 49.4053 144.777 52.8879 144.777 57.1838C144.777 61.4798 148.26 64.9624 152.556 64.9624Z" fill="#79A8F0"/>
<path d="M152.199 58.1585C149.437 58.1585 146.787 57.0611 144.834 55.1077C142.881 53.1543 141.783 50.505 141.783 47.7425V41.5264C141.783 41.2669 141.886 41.018 142.07 40.8346C142.253 40.6511 142.502 40.548 142.762 40.548C143.021 40.548 143.27 40.6511 143.453 40.8346C143.637 41.018 143.74 41.2669 143.74 41.5264V47.7462C143.742 49.9885 144.633 52.1384 146.218 53.7243C147.804 55.3102 149.953 56.2025 152.195 56.2055C152.329 56.1972 152.462 56.2164 152.588 56.2617C152.714 56.3071 152.829 56.3777 152.926 56.4692C153.023 56.5607 153.101 56.6711 153.154 56.7937C153.207 56.9163 153.234 57.0484 153.234 57.182C153.234 57.3155 153.207 57.4477 153.154 57.5703C153.101 57.6929 153.023 57.8033 152.926 57.8948C152.829 57.9863 152.714 58.0569 152.588 58.1022C152.462 58.1476 152.329 58.1667 152.195 58.1585H152.199Z" fill="#E0E0E0"/>
<path d="M134.113 47.0022H151.418C151.695 47.0022 151.968 46.9388 152.216 46.8166C152.465 46.6945 152.682 46.5169 152.851 46.2977C153.02 46.0785 153.136 45.8234 153.191 45.5521C153.246 45.2808 153.237 45.0006 153.167 44.733L151.679 39.0674C151.577 38.682 151.351 38.3411 151.035 38.0975C150.72 37.854 150.333 37.7215 149.934 37.7208H135.616C135.217 37.7214 134.829 37.8537 134.513 38.0972C134.197 38.3407 133.97 38.6817 133.867 39.0674L132.379 44.733C132.308 44.9994 132.299 45.2786 132.353 45.5491C132.407 45.8196 132.521 46.0742 132.689 46.2933C132.856 46.5124 133.072 46.6903 133.319 46.8131C133.565 46.936 133.837 47.0007 134.113 47.0022Z" fill="#79A8F0"/>
<path d="M50.7286 117.5H56.3867V95.578H50.7286V117.5Z" fill="#E6E6E6"/>
<path d="M35.3926 117.496H54.1674L57.0021 91.8394H38.2272L35.3926 117.496Z" fill="#F0F0F0"/>
<path d="M33.3574 117.496H52.7535L55.5881 91.8394H36.1958L33.3574 117.496Z" fill="#F5F5F5"/>
<path d="M51.3499 115.476L53.7381 93.863H37.5933L35.2051 115.476H51.3499Z" fill="white"/>
<path d="M48.0166 110.235L48.1319 109.368C48.7308 103.944 45.3456 99.112 40.9486 99.112L40.8481 99.9936C40.2492 105.414 43.6344 110.246 48.0352 110.246L48.0166 110.235Z" fill="#F5F5F5"/>
<path d="M22.8703 142.253H39.5508V117.496H22.8703L22.8703 142.253Z" fill="#E6E6E6"/>
<path d="M24.5449 142.253H22.8672V137.48H26.3045L24.5449 142.253Z" fill="#F0F0F0"/>
<path d="M69.6203 142.253H86.3008V117.496H69.6203V142.253Z" fill="#E6E6E6"/>
<path d="M22.8671 139.325H71.082V117.5H22.8671V139.325Z" fill="url(#paint1_linear_340_20797)"/>
<path d="M69.4041 142.253H71.0818V137.48H67.6445L69.4041 142.253Z" fill="#F0F0F0"/>
<path d="M24.1684 127.67H69.7793V118.861H24.1684V127.67Z" fill="#F4ACC4"/>
<path d="M43.9334 124.62H50.0156C51.3233 124.621 52.6174 124.354 53.8186 123.837C55.0198 123.321 56.103 122.564 57.0018 121.614H36.9473C37.8465 122.564 38.9297 123.32 40.1308 123.836C41.332 124.353 42.6258 124.62 43.9334 124.62Z" fill="#79A8F0"/>
<path d="M24.1684 137.9H69.7793V129.091H24.1684V137.9Z" fill="#F4ACC4"/>
<path d="M68.027 116.488H68.4585C68.4585 115.599 68.4585 113.348 68.5032 108.189C68.5813 98.833 68.7301 98.2638 68.7301 98.2638L67.7034 102.583C67.0524 107.363 67.8931 112.169 68.027 116.488Z" fill="#E6E6E6"/>
<path d="M67.1755 101.928C65.6875 100.168 62.5441 99.6551 59.3152 99.2161C58.0466 99.045 62.6446 101.943 64.8952 104C66.6436 105.6 67.7596 106.042 68.2432 107.634C68.4887 105.648 68.4478 103.457 67.1755 101.928Z" fill="#E6E6E6"/>
<path d="M69.1359 105.083C70.6239 103.323 73.7673 102.813 76.9963 102.374C78.2648 102.203 73.6483 105.101 71.4163 107.158C69.6679 108.758 68.5519 109.201 68.0683 110.793C67.8227 108.806 67.8488 106.6 69.1359 105.083Z" fill="#E6E6E6"/>
<path d="M68.5024 97.836C69.6184 95.7305 72.3935 93.744 75.5221 93C76.7497 92.7061 72.6763 96.8837 71.1287 99.5807C69.9272 101.671 68.335 104.134 68.0858 105.905C67.7138 102.415 67.3938 99.9527 68.5024 97.836Z" fill="#E6E6E6"/>
<path d="M68.3685 117.496C67.0516 117.496 65.9617 116.838 65.8835 115.99L65.6641 114.546H71.0767L70.8535 115.99C70.7791 116.838 69.7077 117.496 68.3685 117.496Z" fill="#F0F0F0"/>
<path d="M71.4274 115.101H65.3155L65.1406 113.49H71.6023L71.4274 115.101Z" fill="#F0F0F0"/>
<path d="M63.9585 84.3398L123.557 84.3398V29.9795L63.9585 29.9795L63.9585 84.3398Z" fill="#E6E6E6"/>
<path d="M62.6174 84.3398L122.971 84.3398V29.9795L62.6174 29.9795L62.6174 84.3398Z" fill="#F5F5F5"/>
<path d="M120.561 81.9069V32.4161H65.0209V81.9069H120.561Z" fill="#FAFAFA"/>
<path d="M113.751 81.9069L91.8919 32.4161H84.4668L106.326 81.9069H113.751Z" fill="white"/>
<path d="M104.22 81.9069L82.3613 32.4161H77.25L99.1087 81.9069H104.22Z" fill="white"/>
<path d="M85.6445 81.9032V32.4124H82.7727V81.9032H85.6445Z" fill="#E6E6E6"/>
<path d="M104.736 81.9032V32.4124H101.864V81.9032H104.736Z" fill="#E6E6E6"/>
<path d="M85.1289 83.4508V30.6044H81.4982V83.4508H85.1289Z" fill="#F5F5F5"/>
<path d="M104.219 83.4508V30.6044H100.588V83.4508H104.219Z" fill="#F5F5F5"/>
<path d="M65.2812 81.907V32.4161H65.0246V81.907H65.2812Z" fill="#E6E6E6"/>
<path d="M61.6074 26.8472H126.172C126.254 26.8482 126.333 26.8814 126.392 26.9398C126.45 26.9982 126.483 27.0771 126.484 27.1597C126.483 27.2419 126.45 27.3205 126.391 27.3783C126.333 27.4361 126.254 27.4685 126.172 27.4685H61.6074C61.5252 27.4685 61.4462 27.4361 61.3877 27.3783C61.3293 27.3205 61.2959 27.2419 61.2949 27.1597C61.2959 27.0771 61.3291 26.9982 61.3875 26.9398C61.4459 26.8814 61.5248 26.8482 61.6074 26.8472Z" fill="#E6E6E6"/>
<path d="M123.555 28.897C123.666 28.896 123.772 28.8513 123.85 28.7725C123.928 28.6938 123.972 28.5874 123.972 28.4766V27.5764C123.972 27.5213 123.962 27.4668 123.941 27.4158C123.92 27.3648 123.89 27.3184 123.851 27.2793C123.812 27.2403 123.766 27.2092 123.715 27.1881C123.665 27.1669 123.61 27.156 123.555 27.156C123.444 27.156 123.338 27.1998 123.259 27.2778C123.18 27.3558 123.136 27.4618 123.135 27.5726V28.4729C123.135 28.5847 123.179 28.692 123.258 28.7714C123.336 28.8509 123.443 28.896 123.555 28.897Z" fill="#E6E6E6"/>
<path d="M66.2858 28.897C66.397 28.896 66.5033 28.8514 66.582 28.7728C66.6606 28.6941 66.7052 28.5878 66.7062 28.4766V27.5764C66.7062 27.4649 66.6619 27.358 66.583 27.2791C66.5042 27.2003 66.3973 27.156 66.2858 27.156C66.1753 27.156 66.0693 27.1999 65.9912 27.278C65.9131 27.3562 65.8692 27.4621 65.8692 27.5726V28.4729C65.8687 28.5281 65.8791 28.5828 65.8997 28.634C65.9204 28.6852 65.951 28.7318 65.9896 28.7712C66.0283 28.8106 66.0744 28.842 66.1252 28.8635C66.176 28.8851 66.2306 28.8965 66.2858 28.897Z" fill="#E6E6E6"/>
<path opacity="0.6" d="M61.7033 69.7277L122.016 69.7277V27.156L61.7033 27.156L61.7033 69.7277Z" fill="#E0E0E0"/>
<path d="M127.477 96.7088H117.076C115.97 96.7088 115.074 97.6049 115.074 98.7102V103.524C115.074 104.629 115.97 105.525 117.076 105.525H127.477C128.582 105.525 129.478 104.629 129.478 103.524V98.7102C129.478 97.6049 128.582 96.7088 127.477 96.7088Z" fill="#FAFAFA"/>
<path d="M128.805 95.0795H115.748C115.376 95.0795 115.074 95.3809 115.074 95.7528V96.2959C115.074 96.6678 115.376 96.9692 115.748 96.9692H128.805C129.177 96.9692 129.478 96.6678 129.478 96.2959V95.7528C129.478 95.3809 129.177 95.0795 128.805 95.0795Z" fill="#E6E6E6"/>
<path d="M115.285 115.32C115.285 115.32 115.475 121.521 122.699 121.521C129.923 121.521 130.113 115.32 130.113 115.32H115.285Z" fill="#F0F0F0"/>
<path d="M131.758 115.32C131.758 115.32 131.948 121.521 139.172 121.521C146.396 121.521 146.586 115.32 146.586 115.32H131.758Z" fill="#F0F0F0"/>
<path d="M143.008 92.7173H128.724C127.203 92.7173 125.971 93.9498 125.971 95.4701V102.776C125.971 104.296 127.203 105.529 128.724 105.529H143.008C144.529 105.529 145.761 104.296 145.761 102.776V95.4701C145.761 93.9498 144.529 92.7173 143.008 92.7173Z" fill="#F4ACC4"/>
<path d="M144.839 90.4778H126.893C126.384 90.4778 125.971 90.8909 125.971 91.4004V92.1518C125.971 92.6614 126.384 93.0744 126.893 93.0744H144.839C145.348 93.0744 145.761 92.6614 145.761 92.1518V91.4004C145.761 90.8909 145.348 90.4778 144.839 90.4778Z" fill="#79A8F0"/>
<path d="M109.844 142.253H111.719V111.511H109.844V142.253Z" fill="#E6E6E6"/>
<path d="M163.98 105.525H153.828V111.507H163.98V105.525Z" fill="#E6E6E6"/>
<path d="M103.353 111.511H153.826V105.529H103.353V111.511Z" fill="#F5F5F5"/>
<path d="M163.98 121.503H153.828V127.484H163.98V121.503Z" fill="#E6E6E6"/>
<path d="M103.353 127.484H153.826V121.503H103.353V127.484Z" fill="#F5F5F5"/>
<path d="M160.317 142.253H162.191V111.511H160.317V142.253Z" fill="#E6E6E6"/>
<path d="M151.953 142.253H153.828V111.511H151.953V142.253Z" fill="#F5F5F5"/>
<path d="M103.352 142.253H105.227V111.511H103.352V142.253Z" fill="#F5F5F5"/>
<path d="M93.8888 159.052C133.723 159.052 166.016 157.167 166.016 154.841C166.016 152.516 133.723 150.63 93.8888 150.63C54.0541 150.63 21.7617 152.516 21.7617 154.841C21.7617 157.167 54.0541 159.052 93.8888 159.052Z" fill="url(#paint2_linear_340_20797)"/>
<path d="M97.7616 135.966H50.3055C49.5424 135.955 48.8116 135.656 48.2597 135.129C47.7077 134.602 47.3755 133.886 47.3295 133.124L43.0739 50.7073C43.0503 50.3407 43.1027 49.9732 43.2277 49.6278C43.3528 49.2824 43.5479 48.9666 43.8008 48.7001C44.0536 48.4336 44.3588 48.2222 44.6972 48.0792C45.0356 47.9362 45.3998 47.8646 45.7671 47.869H93.2232C93.986 47.8788 94.7168 48.177 95.2688 48.7035C95.8208 49.23 96.1532 49.9459 96.1992 50.7073L100.447 133.124C100.471 133.49 100.419 133.857 100.294 134.202C100.17 134.547 99.9752 134.863 99.7232 135.13C99.4712 135.396 99.167 135.608 98.8295 135.752C98.492 135.896 98.1285 135.969 97.7616 135.966Z" fill="#B99AC8"/>
<path opacity="0.8" d="M97.7616 135.966H50.3055C49.5424 135.955 48.8116 135.656 48.2597 135.129C47.7077 134.602 47.3755 133.886 47.3295 133.124L43.0739 50.7073C43.0503 50.3407 43.1027 49.9732 43.2277 49.6278C43.3528 49.2824 43.5479 48.9666 43.8008 48.7001C44.0536 48.4336 44.3588 48.2222 44.6972 48.0792C45.0356 47.9362 45.3998 47.8646 45.7671 47.869H93.2232C93.986 47.8788 94.7168 48.177 95.2688 48.7035C95.8208 49.23 96.1532 49.9459 96.1992 50.7073L100.447 133.124C100.471 133.49 100.419 133.857 100.294 134.202C100.17 134.547 99.9752 134.863 99.7232 135.13C99.4712 135.396 99.167 135.608 98.8295 135.752C98.492 135.896 98.1285 135.969 97.7616 135.966Z" fill="white"/>
<path d="M88.5399 45.1831H83.291V45.5551H88.5399V45.1831Z" fill="#B99AC8"/>
<path d="M81.4721 45.1831H79.5488V45.5551H81.4721V45.1831Z" fill="#B99AC8"/>
<path d="M99.8046 130.736H54.4206C53.6897 130.729 52.9887 130.445 52.4586 129.942C51.9285 129.439 51.6087 128.753 51.5636 128.024L47.5014 49.197C47.4788 48.8462 47.5289 48.4944 47.6487 48.1639C47.7684 47.8334 47.9552 47.5311 48.1972 47.2762C48.4393 47.0212 48.7314 46.819 49.0553 46.6822C49.3791 46.5455 49.7278 46.4771 50.0793 46.4814H95.4633C96.1941 46.4895 96.8947 46.7741 97.4241 47.2779C97.9535 47.7818 98.2724 48.4675 98.3166 49.197L102.379 128.024C102.401 128.374 102.351 128.725 102.232 129.055C102.112 129.386 101.926 129.687 101.684 129.942C101.442 130.197 101.151 130.399 100.827 130.535C100.504 130.672 100.156 130.74 99.8046 130.736Z" fill="#B99AC8"/>
<path d="M99.8048 128.924H54.4208C54.1546 128.915 53.9011 128.808 53.7084 128.624C53.5157 128.441 53.3972 128.193 53.3755 127.927L49.3095 49.104C49.3003 48.9991 49.3134 48.8935 49.3481 48.7941C49.3827 48.6947 49.438 48.6038 49.5104 48.5274C49.5829 48.4511 49.6709 48.3912 49.7683 48.3514C49.8658 48.3116 49.9706 48.293 50.0758 48.2968H95.4598C95.7253 48.3068 95.9779 48.4138 96.1699 48.5975C96.3618 48.7812 96.4798 49.0289 96.5014 49.2937L100.586 128.117C100.595 128.221 100.582 128.326 100.547 128.425C100.513 128.524 100.458 128.615 100.386 128.691C100.314 128.767 100.226 128.828 100.129 128.868C100.032 128.908 99.9282 128.927 99.8234 128.924H99.8048ZM50.0758 48.3898C49.9833 48.3868 49.8912 48.4031 49.8054 48.4377C49.7196 48.4723 49.6419 48.5244 49.5773 48.5906C49.5152 48.6593 49.4677 48.7399 49.4377 48.8275C49.4076 48.9151 49.3956 49.0079 49.4025 49.1003L53.4647 127.923C53.4854 128.165 53.5937 128.39 53.7691 128.557C53.9445 128.725 54.1749 128.822 54.4171 128.831H99.8011C99.8931 128.835 99.9848 128.819 100.07 128.784C100.155 128.749 100.232 128.697 100.296 128.63C100.359 128.562 100.408 128.482 100.438 128.394C100.468 128.306 100.479 128.213 100.471 128.121L96.4121 49.2974C96.3923 49.0563 96.2848 48.8309 96.1101 48.6636C95.9353 48.4964 95.7053 48.3989 95.4635 48.3898H50.0758Z" fill="white"/>
<path opacity="0.3" d="M83.9297 77.0247C89.0916 71.7277 88.7555 63.0282 83.1789 57.5939C77.6023 52.1595 68.8971 52.0482 63.7352 57.3452C58.5732 62.6422 58.9094 71.3417 64.486 76.7761C70.0625 82.2104 78.7678 82.3217 83.9297 77.0247Z" fill="white"/>
<path d="M84.961 67.1869C85.0651 69.015 84.6974 70.8392 83.8933 72.4842C83.0229 74.2487 81.6717 75.7313 79.9954 76.7613C78.3191 77.7913 76.3859 78.3268 74.4185 78.306C72.3797 78.2876 70.3803 77.7418 68.615 76.7216C66.8497 75.7014 65.3786 74.2416 64.3447 72.4842C63.3813 70.8771 62.8269 69.0582 62.7303 67.1869C62.6385 65.7518 62.844 64.3133 63.3338 62.9612C63.8236 61.6092 64.5872 60.3728 65.5768 59.3295C66.5664 58.2861 67.7606 57.4582 69.0849 56.8977C70.4091 56.3371 71.8348 56.0558 73.2727 56.0716C76.2655 56.1028 79.1353 57.2668 81.3041 59.3293C83.4729 61.3918 84.7796 64.1995 84.961 67.1869Z" fill="white"/>
<path d="M83.8826 72.4842C83.0122 74.2487 81.6609 75.7313 79.9846 76.7613C78.3083 77.7913 76.3751 78.3268 74.4077 78.306C72.3689 78.2876 70.3696 77.7418 68.6043 76.7216C66.8389 75.7014 65.3678 74.2416 64.334 72.4842C67.1609 70.5319 70.5184 69.4932 73.9539 69.5082C77.4813 69.5215 80.9295 70.555 83.8826 72.4842Z" fill="#B99AC8"/>
<path d="M77.2787 66.9284C79.1384 65.02 79.0167 61.8852 77.0068 59.9265C74.9968 57.9679 71.8599 57.9271 70.0001 59.8355C68.1404 61.7439 68.2622 64.8788 70.2721 66.8374C72.282 68.7961 75.419 68.8368 77.2787 66.9284Z" fill="#B99AC8"/>
<path d="M93.2973 100.068H57.7602C57.4506 100.065 57.1538 99.9445 56.9295 99.7312C56.7052 99.5179 56.57 99.2275 56.5512 98.9185L56.2833 93.7105C56.2741 93.5624 56.2956 93.4139 56.3463 93.2744C56.3971 93.135 56.4761 93.0075 56.5784 92.8999C56.6807 92.7924 56.8041 92.7071 56.9409 92.6494C57.0777 92.5918 57.2249 92.5629 57.3733 92.5648H92.9104C93.2194 92.5679 93.5157 92.6877 93.7399 92.9002C93.9642 93.1128 94.0997 93.4022 94.1194 93.7105L94.3873 98.9185C94.397 99.067 94.376 99.2158 94.3255 99.3557C94.2749 99.4957 94.196 99.6236 94.0936 99.7316C93.9913 99.8395 93.8677 99.9251 93.7307 99.983C93.5936 100.041 93.4461 100.07 93.2973 100.068Z" fill="white"/>
<path opacity="0.3" d="M82.4164 89.6892H67.5736C67.2628 89.6869 66.9645 89.5664 66.7393 89.3523C66.5141 89.1381 66.3788 88.8463 66.3609 88.536L66.3051 87.42C66.2953 87.2715 66.3163 87.1227 66.3669 86.9828C66.4174 86.8428 66.4963 86.7149 66.5987 86.6069C66.7011 86.499 66.8247 86.4134 66.9617 86.3555C67.0987 86.2976 67.2463 86.2687 67.395 86.2705H82.2341C82.5436 86.2737 82.8404 86.3941 83.0648 86.6074C83.2891 86.8206 83.4243 87.111 83.4431 87.42L83.5026 88.536C83.5118 88.6842 83.4904 88.8327 83.44 88.9723C83.3895 89.1119 83.3109 89.2397 83.2091 89.3477C83.1073 89.4558 82.9845 89.5419 82.8481 89.6006C82.7118 89.6593 82.5648 89.6895 82.4164 89.6892Z" fill="#79A8F0"/>
<path opacity="0.3" d="M87.938 125.107H65.7035C65.177 125.101 64.6725 124.896 64.291 124.533C63.9094 124.17 63.6792 123.676 63.6464 123.151L63.5162 120.584C63.5031 120.332 63.5414 120.079 63.629 119.842C63.7166 119.605 63.8515 119.389 64.0256 119.206C64.1996 119.023 64.4091 118.877 64.6413 118.777C64.8735 118.678 65.1236 118.627 65.3762 118.627H87.6032C88.1297 118.634 88.6343 118.839 89.0158 119.202C89.3973 119.565 89.6275 120.058 89.6603 120.584L89.7905 123.151C89.8036 123.402 89.7655 123.654 89.6784 123.89C89.5912 124.127 89.457 124.343 89.2837 124.526C89.1105 124.709 88.9019 124.855 88.6705 124.955C88.4392 125.055 88.19 125.107 87.938 125.107Z" fill="#79A8F0"/>
<path d="M93.9495 112.664H58.4086C58.0993 112.66 57.803 112.539 57.5789 112.326C57.3547 112.113 57.2193 111.823 57.1996 111.514L56.9318 106.306C56.9226 106.158 56.944 106.01 56.9947 105.87C57.0455 105.73 57.1244 105.602 57.2267 105.495C57.3289 105.387 57.4523 105.301 57.5891 105.243C57.7258 105.185 57.8731 105.156 58.0217 105.157H93.5589C93.8684 105.16 94.1652 105.281 94.3896 105.494C94.6139 105.707 94.7491 105.997 94.7679 106.306L95.0394 111.514C95.0481 111.663 95.0263 111.811 94.9753 111.95C94.9244 112.09 94.8454 112.217 94.7433 112.325C94.6411 112.433 94.518 112.518 94.3815 112.577C94.2449 112.635 94.0979 112.665 93.9495 112.664Z" fill="white"/>
<path d="M62.2697 96.3145C62.2799 96.4789 62.2562 96.6436 62.1999 96.7984C62.1436 96.9532 62.0559 97.0947 61.9425 97.2141C61.829 97.3335 61.6922 97.4283 61.5404 97.4924C61.3887 97.5565 61.2254 97.5886 61.0607 97.5868C60.7185 97.5827 60.3906 97.4492 60.1428 97.2132C59.8951 96.9772 59.7459 96.6561 59.7252 96.3145C59.7144 96.1503 59.7377 95.9857 59.7936 95.8309C59.8495 95.6761 59.9367 95.5345 60.0499 95.4151C60.1631 95.2956 60.2997 95.2008 60.4513 95.1367C60.6028 95.0725 60.7659 95.0404 60.9305 95.0423C61.273 95.0463 61.6014 95.1796 61.8498 95.4156C62.0981 95.6515 62.2481 95.9726 62.2697 96.3145Z" fill="#263238"/>
<path d="M66.1859 96.3145C66.1967 96.4787 66.1734 96.6434 66.1175 96.7982C66.0617 96.9529 65.9744 97.0945 65.8612 97.214C65.748 97.3334 65.6114 97.4282 65.4599 97.4924C65.3083 97.5565 65.1452 97.5886 64.9806 97.5868C64.6382 97.5836 64.3098 97.4504 64.0618 97.2142C63.8139 96.978 63.6649 96.6564 63.6451 96.3145C63.6344 96.1503 63.6576 95.9857 63.7135 95.8309C63.7694 95.6761 63.8567 95.5345 63.9698 95.4151C64.083 95.2956 64.2196 95.2008 64.3712 95.1367C64.5227 95.0725 64.6859 95.0404 64.8504 95.0423C65.1929 95.0455 65.5213 95.1787 65.7692 95.4149C66.0172 95.6511 66.1661 95.9727 66.1859 96.3145Z" fill="#263238"/>
<path d="M70.082 96.3145C70.0927 96.4787 70.0694 96.6434 70.0136 96.7982C69.9577 96.9529 69.8704 97.0945 69.7573 97.214C69.6441 97.3334 69.5075 97.4282 69.3559 97.4924C69.2044 97.5565 69.0412 97.5886 68.8767 97.5868C68.5341 97.5827 68.2058 97.4494 67.9574 97.2135C67.709 96.9775 67.559 96.6564 67.5375 96.3145C67.5272 96.1501 67.551 95.9854 67.6073 95.8306C67.6636 95.6758 67.7512 95.5343 67.8647 95.4149C67.9782 95.2955 68.115 95.2008 68.2667 95.1367C68.4185 95.0726 68.5818 95.0404 68.7465 95.0423C69.0886 95.0464 69.4166 95.1798 69.6643 95.4159C69.9121 95.6519 70.0613 95.973 70.082 96.3145Z" fill="#263238"/>
<path d="M74.0058 96.3145C74.016 96.4786 73.9923 96.643 73.9362 96.7976C73.8802 96.9521 73.7929 97.0934 73.6798 97.2128C73.5668 97.3321 73.4303 97.4269 73.2791 97.4913C73.1278 97.5556 72.9649 97.5881 72.8005 97.5868C72.458 97.5828 72.1296 97.4494 71.8812 97.2135C71.6329 96.9775 71.4829 96.6564 71.4613 96.3145C71.4511 96.1505 71.4747 95.986 71.5308 95.8315C71.5869 95.677 71.6742 95.5356 71.7872 95.4163C71.9003 95.2969 72.0367 95.2021 72.188 95.1378C72.3393 95.0735 72.5022 95.041 72.6666 95.0423C73.0091 95.0463 73.3375 95.1796 73.5859 95.4156C73.8342 95.6515 73.9842 95.9726 74.0058 96.3145Z" fill="#263238"/>
<path d="M62.9277 108.903C62.9384 109.067 62.9152 109.232 62.8593 109.387C62.8034 109.541 62.7162 109.683 62.603 109.802C62.4898 109.922 62.3532 110.017 62.2016 110.081C62.0501 110.145 61.8869 110.177 61.7224 110.175C61.3798 110.171 61.0515 110.038 60.8031 109.802C60.5547 109.566 60.4047 109.245 60.3832 108.903C60.3729 108.739 60.3967 108.574 60.453 108.419C60.5093 108.264 60.5969 108.123 60.7104 108.003C60.8239 107.884 60.9607 107.789 61.1124 107.725C61.2642 107.661 61.4275 107.629 61.5922 107.631C61.9343 107.635 62.2623 107.768 62.51 108.004C62.7578 108.24 62.907 108.561 62.9277 108.903Z" fill="#263238"/>
<path d="M66.8381 108.903C66.8483 109.067 66.8246 109.232 66.7685 109.386C66.7125 109.541 66.6252 109.682 66.5121 109.801C66.399 109.921 66.2626 110.015 66.1114 110.08C65.9601 110.144 65.7972 110.177 65.6328 110.175C65.2902 110.171 64.9619 110.038 64.7135 109.802C64.4651 109.566 64.3151 109.245 64.2936 108.903C64.2828 108.739 64.3061 108.574 64.362 108.419C64.4178 108.265 64.5051 108.123 64.6183 108.004C64.7314 107.884 64.8681 107.789 65.0196 107.725C65.1712 107.661 65.3343 107.629 65.4989 107.631C65.8414 107.635 66.1698 107.768 66.4181 108.004C66.6665 108.24 66.8165 108.561 66.8381 108.903Z" fill="#263238"/>
<path d="M70.7463 108.903C70.7565 109.067 70.7327 109.232 70.6764 109.387C70.6201 109.542 70.5325 109.683 70.419 109.803C70.3056 109.922 70.1687 110.017 70.017 110.081C69.8653 110.145 69.702 110.177 69.5373 110.175C69.1948 110.172 68.8664 110.039 68.6185 109.803C68.3705 109.566 68.2216 109.245 68.2018 108.903C68.191 108.739 68.2143 108.574 68.2702 108.419C68.326 108.265 68.4133 108.123 68.5265 108.004C68.6396 107.884 68.7763 107.789 68.9278 107.725C69.0794 107.661 69.2425 107.629 69.4071 107.631C69.7496 107.635 70.078 107.768 70.3263 108.004C70.5747 108.24 70.7247 108.561 70.7463 108.903Z" fill="#263238"/>
<path d="M74.6523 108.903C74.663 109.067 74.6398 109.232 74.5839 109.387C74.528 109.541 74.4408 109.683 74.3276 109.802C74.2144 109.922 74.0778 110.017 73.9262 110.081C73.7747 110.145 73.6115 110.177 73.447 110.175C73.1044 110.171 72.7761 110.038 72.5277 109.802C72.2793 109.566 72.1293 109.245 72.1078 108.903C72.0975 108.739 72.1213 108.574 72.1776 108.419C72.2339 108.264 72.3215 108.123 72.435 108.003C72.5485 107.884 72.6853 107.789 72.8371 107.725C72.9888 107.661 73.1521 107.629 73.3168 107.631C73.6592 107.634 73.9876 107.767 74.2356 108.003C74.4835 108.24 74.6325 108.561 74.6523 108.903Z" fill="#263238"/>
<path d="M78.5624 108.903C78.5732 109.067 78.5499 109.232 78.494 109.387C78.4382 109.541 78.3509 109.683 78.2377 109.802C78.1246 109.922 77.9879 110.017 77.8364 110.081C77.6848 110.145 77.5217 110.177 77.3571 110.175C77.0146 110.171 76.6862 110.038 76.4379 109.802C76.1895 109.566 76.0395 109.245 76.0179 108.903C76.0077 108.739 76.0314 108.575 76.0875 108.42C76.1435 108.265 76.2308 108.124 76.3439 108.005C76.457 107.885 76.5934 107.791 76.7446 107.726C76.8959 107.662 77.0588 107.629 77.2232 107.631C77.5658 107.635 77.8941 107.768 78.1425 108.004C78.3909 108.24 78.5409 108.561 78.5624 108.903Z" fill="#263238"/>
<path d="M82.4728 108.903C82.4831 109.067 82.4593 109.232 82.403 109.387C82.3467 109.542 82.2591 109.683 82.1456 109.803C82.0321 109.922 81.8953 110.017 81.7436 110.081C81.5918 110.145 81.4285 110.177 81.2638 110.175C80.9217 110.171 80.5937 110.038 80.346 109.802C80.0982 109.566 79.949 109.245 79.9283 108.903C79.9176 108.739 79.9408 108.574 79.9967 108.419C80.0526 108.265 80.1399 108.123 80.253 108.004C80.3662 107.884 80.5028 107.789 80.6544 107.725C80.8059 107.661 80.9691 107.629 81.1336 107.631C81.4762 107.635 81.8045 107.768 82.0529 108.004C82.3013 108.24 82.4513 108.561 82.4728 108.903Z" fill="#263238"/>
<path d="M124.765 65.7026C124.858 65.844 124.906 65.9184 124.966 66.0188L125.133 66.2941C125.241 66.4801 125.338 66.6661 125.431 66.8484C125.617 67.2204 125.803 67.5924 125.952 67.9644C126.263 68.7032 126.532 69.4597 126.755 70.2299C127.205 71.7513 127.502 73.3141 127.64 74.8948L127.666 75.1886C127.67 75.2481 127.67 75.3077 127.666 75.3672V75.5644C127.673 75.8231 127.658 76.0818 127.622 76.3381C127.55 76.8132 127.426 77.2786 127.25 77.7257C126.923 78.5241 126.49 79.2749 125.963 79.9577C124.979 81.2174 123.811 82.3222 122.499 83.235L121.473 82.0334C122.407 80.9783 123.234 79.8331 123.943 78.6148C124.262 78.0621 124.511 77.4724 124.687 76.8589C124.758 76.5991 124.799 76.332 124.809 76.0628C124.821 75.9478 124.821 75.8319 124.809 75.7169V75.6388C124.813 75.6041 124.813 75.5692 124.809 75.5346L124.765 75.2742C124.526 73.8878 124.187 72.5203 123.753 71.1822C123.537 70.5163 123.273 69.8728 123.009 69.2441C122.879 68.9279 122.73 68.6191 122.581 68.3215L122.351 67.8826L122.235 67.678L122.139 67.5143L124.765 65.7026Z" fill="#803E3C"/>
<path d="M121.305 83.2424L122.651 86.0882L123.719 83.6814C123.719 83.6814 122.77 81.5982 121.487 81.7916L121.305 83.2424Z" fill="#7F3E3B"/>
<path d="M123.616 86.2296L124.687 84.4738L123.72 83.6814L122.652 86.0882L123.616 86.2296Z" fill="#7F3E3B"/>
<path d="M117.56 151.858C117.838 151.851 118.115 151.813 118.386 151.746C118.399 151.742 118.412 151.734 118.422 151.724C118.431 151.713 118.438 151.701 118.442 151.687C118.444 151.672 118.442 151.658 118.436 151.645C118.43 151.631 118.42 151.62 118.408 151.612C118.3 151.542 117.355 150.932 116.991 151.095C116.95 151.114 116.916 151.143 116.89 151.18C116.865 151.216 116.849 151.259 116.846 151.304C116.834 151.371 116.84 151.44 116.861 151.505C116.882 151.57 116.919 151.628 116.968 151.676C117.137 151.806 117.347 151.871 117.56 151.858ZM118.174 151.638C117.634 151.75 117.225 151.731 117.058 151.586C117.023 151.552 116.998 151.51 116.985 151.464C116.971 151.418 116.969 151.369 116.98 151.322C116.98 151.259 117.017 151.24 117.043 151.229C117.244 151.14 117.791 151.404 118.174 151.638Z" fill="#B99AC8"/>
<path d="M118.367 151.746H118.404C118.415 151.739 118.424 151.729 118.431 151.717C118.437 151.706 118.441 151.693 118.441 151.679C118.441 151.642 118.441 150.746 118.099 150.444C118.057 150.406 118.007 150.378 117.953 150.362C117.899 150.345 117.843 150.34 117.787 150.348C117.728 150.348 117.671 150.369 117.626 150.406C117.58 150.443 117.549 150.495 117.537 150.552C117.467 150.906 118.032 151.575 118.33 151.746H118.367ZM117.835 150.485C117.865 150.484 117.895 150.489 117.923 150.5C117.951 150.511 117.977 150.528 117.999 150.548C118.195 150.838 118.296 151.181 118.289 151.53C117.991 151.292 117.638 150.786 117.682 150.574C117.682 150.541 117.708 150.496 117.801 150.485H117.835Z" fill="#B99AC8"/>
<path d="M114.047 150.34C114.056 150.329 114.062 150.316 114.064 150.302C114.066 150.288 114.064 150.274 114.059 150.261C114.053 150.249 114.045 150.237 114.033 150.229C114.022 150.22 114.009 150.215 113.995 150.214C113.843 150.214 112.507 150.15 112.202 150.478V150.5C112.177 150.532 112.161 150.57 112.155 150.611C112.149 150.651 112.154 150.693 112.169 150.731C112.189 150.795 112.224 150.853 112.271 150.9C112.318 150.947 112.376 150.982 112.44 151.002C112.872 151.136 113.634 150.649 114.051 150.348L114.047 150.34ZM112.314 150.574C112.481 150.396 113.218 150.348 113.768 150.355C113.192 150.749 112.712 150.935 112.47 150.861C112.428 150.848 112.39 150.825 112.358 150.794C112.327 150.763 112.304 150.724 112.291 150.682C112.284 150.668 112.28 150.652 112.28 150.636C112.28 150.62 112.284 150.604 112.291 150.589L112.314 150.574Z" fill="#B99AC8"/>
<path d="M114.048 150.34C114.053 150.328 114.056 150.316 114.056 150.303C114.056 150.29 114.053 150.277 114.048 150.266C114.029 150.236 113.612 149.522 113.121 149.373C113.051 149.352 112.977 149.346 112.904 149.355C112.831 149.364 112.761 149.388 112.697 149.425C112.519 149.529 112.508 149.652 112.53 149.73C112.627 150.076 113.575 150.381 113.984 150.377C113.997 150.377 114.01 150.374 114.021 150.367C114.032 150.36 114.041 150.351 114.048 150.34ZM112.712 149.596C112.733 149.575 112.757 149.558 112.783 149.544C112.829 149.515 112.881 149.496 112.935 149.489C112.989 149.482 113.043 149.487 113.095 149.503C113.419 149.589 113.72 150.005 113.858 150.21C113.415 150.162 112.742 149.89 112.686 149.682C112.681 149.666 112.681 149.649 112.686 149.633C112.691 149.617 112.7 149.603 112.712 149.592V149.596Z" fill="#B99AC8"/>
<path d="M118.142 54.8068C117.77 56.6668 116.967 60.6881 118.258 61.9231C118.258 61.9231 117.752 63.7831 114.318 63.7831C110.539 63.7831 112.514 61.9231 112.514 61.9231C114.575 61.4321 114.523 59.8994 114.162 58.4635L118.142 54.8068Z" fill="#7F3E3B"/>
<path d="M111.85 50.4469C111.871 50.4503 111.892 50.4503 111.913 50.4469C111.931 50.4382 111.947 50.4261 111.959 50.4113C111.972 50.3964 111.982 50.3792 111.989 50.3605C111.995 50.3418 111.997 50.322 111.996 50.3024C111.994 50.2828 111.989 50.2636 111.98 50.246C111.88 50.0338 111.73 49.8488 111.544 49.7063C111.358 49.5639 111.14 49.4684 110.909 49.4276C110.87 49.4244 110.831 49.4361 110.801 49.4603C110.771 49.4845 110.751 49.5194 110.745 49.5578C110.741 49.5968 110.752 49.6358 110.776 49.6664C110.801 49.6971 110.836 49.7169 110.875 49.7215C111.058 49.7565 111.229 49.8345 111.375 49.949C111.521 50.0636 111.638 50.2113 111.716 50.38C111.73 50.402 111.75 50.4197 111.774 50.4315C111.797 50.4433 111.824 50.4486 111.85 50.4469Z" fill="#263238"/>
<path d="M110.721 52.08C110.428 52.623 110.063 53.1236 109.635 53.568C109.751 53.674 109.888 53.7535 110.038 53.8011C110.188 53.8486 110.346 53.863 110.502 53.8433L110.721 52.08Z" fill="#630F0F"/>
<path d="M111.001 51.6596C110.971 51.9089 110.811 52.0949 110.651 52.0763C110.491 52.0577 110.379 51.8382 110.409 51.589C110.439 51.3397 110.599 51.1537 110.781 51.1723C110.963 51.1909 111.027 51.4104 111.001 51.6596Z" fill="#263238"/>
<path d="M110.831 51.1946L110.258 50.964C110.258 50.964 110.5 51.455 110.831 51.1946Z" fill="#263238"/>
<path d="M117.332 149.633L114.296 150.34L112.451 143.361L115.487 142.655L117.332 149.633Z" fill="#7F3E3B"/>
<path d="M121.991 151.672H118.877L119.119 144.459H122.236L121.991 151.672Z" fill="#7F3E3B"/>
<path d="M118.628 151.311H122.128C122.189 151.31 122.248 151.332 122.294 151.372C122.34 151.412 122.369 151.467 122.378 151.527L122.776 154.294C122.783 154.364 122.776 154.435 122.755 154.502C122.733 154.569 122.698 154.631 122.651 154.684C122.604 154.736 122.546 154.778 122.482 154.806C122.417 154.835 122.348 154.849 122.277 154.849C121.057 154.83 120.469 154.756 118.929 154.756C117.981 154.756 116.597 154.856 115.291 154.856C113.985 154.856 113.911 153.562 114.458 153.446C116.898 152.918 117.285 152.196 118.107 151.504C118.252 151.38 118.437 151.312 118.628 151.311Z" fill="#263238"/>
<path d="M114.03 149.875L117.21 148.413C117.264 148.387 117.326 148.382 117.383 148.399C117.441 148.415 117.491 148.452 117.523 148.502L119.044 150.853C119.08 150.914 119.102 150.981 119.11 151.051C119.118 151.121 119.111 151.191 119.09 151.258C119.069 151.325 119.034 151.387 118.988 151.44C118.942 151.492 118.885 151.535 118.821 151.564C117.705 152.055 117.14 152.237 115.741 152.881C114.882 153.275 113.137 154.183 111.954 154.741C110.771 155.299 110.161 154.142 110.607 153.807C112.605 152.319 113.178 151.251 113.635 150.281C113.713 150.102 113.853 149.957 114.03 149.875Z" fill="#263238"/>
<path opacity="0.2" d="M112.451 143.361L113.441 147.104L116.439 146.252L115.49 142.655L112.451 143.361Z" fill="black"/>
<path opacity="0.2" d="M122.236 144.459H119.119L118.996 148.179H122.113L122.236 144.459Z" fill="black"/>
<path d="M123.65 62.6299C124.944 62.9164 126.328 67.5701 126.328 67.5701L122.668 71.4649C122.668 71.4649 119.629 67.0902 120.25 65.4832C120.878 63.8054 122.106 62.2951 123.65 62.6299Z" fill="#263238"/>
<path opacity="0.4" d="M121.581 65.5948C120.926 64.9958 120.483 65.1744 120.182 65.6506C119.884 67.0344 121.648 69.9323 122.358 71.0297C122.686 69.7202 123.061 66.96 121.581 65.5948Z" fill="black"/>
<path d="M107.247 62.7229C107.247 62.7229 105.759 63.2437 108.735 81.5275H121.383C121.171 76.379 121.164 73.2022 123.615 62.6299C121.843 62.2642 120.046 62.028 118.24 61.9231C116.328 61.7853 114.408 61.7853 112.496 61.9231C110.044 62.15 107.247 62.7229 107.247 62.7229Z" fill="#263238"/>
<path opacity="0.4" d="M107.133 69.7388C107.215 70.6279 107.323 71.6286 107.464 72.7595C108.502 71.8258 109.35 69.1697 109.037 67.6222C108.296 68.224 107.653 68.9382 107.133 69.7388Z" fill="black"/>
<path d="M108.487 66.96C107.804 68.6778 107.036 70.3601 106.184 72.0006C105.342 73.7003 104.346 75.3191 103.208 76.8366L102.97 77.1305L102.851 77.2756C102.81 77.3239 102.777 77.3686 102.713 77.4355C102.489 77.6798 102.24 77.8993 101.969 78.0902C101.491 78.4214 100.967 78.682 100.414 78.864C99.4503 79.1719 98.4495 79.3495 97.4383 79.3922C95.5447 79.4675 93.6493 79.2987 91.7988 78.89L92.0034 77.3276C92.859 77.3276 93.7555 77.3276 94.6074 77.257C95.463 77.2149 96.3153 77.1204 97.1593 76.9742C97.9433 76.8519 98.71 76.6371 99.4434 76.3344C99.7396 76.2079 100.016 76.0401 100.266 75.8359C100.361 75.7563 100.447 75.6665 100.522 75.5681C100.522 75.5681 100.567 75.5086 100.597 75.4676L100.682 75.3449L100.857 75.0994C101.79 73.6575 102.622 72.1522 103.346 70.5944C104.09 69.0134 104.834 67.3729 105.514 65.7584L108.487 66.96Z" fill="#803E3C"/>
<path d="M107.247 62.7229C105.696 63.0949 103.791 67.3506 103.791 67.3506L107.005 72.075C107.005 72.075 111.287 66.6847 110.777 65.0405C110.256 63.3256 109.14 62.2616 107.247 62.7229Z" fill="#263238"/>
<path d="M92.8953 77.5657L90.2132 76.327L89.9453 78.9942C89.9453 78.9942 92.1773 79.6527 93.2933 78.9942L92.8953 77.5657Z" fill="#7F3E3B"/>
<path d="M88.6102 76.0591L88.3535 78.0902L89.9457 78.9942L90.2135 76.3269L88.6102 76.0591Z" fill="#7F3E3B"/>
<path d="M119.49 51.8419C118.921 54.8812 118.746 56.1832 117.005 57.5633C114.401 59.639 110.774 58.2775 110.425 55.1304C110.105 52.2958 111.087 47.802 114.238 46.9464C114.932 46.7549 115.663 46.7444 116.363 46.9159C117.062 47.0874 117.705 47.4352 118.232 47.9261C118.759 48.417 119.151 49.0347 119.371 49.7201C119.592 50.4056 119.632 51.1361 119.49 51.8419Z" fill="#7F3E3B"/>
<path d="M112.812 52.4818C112.637 54.033 112.57 58.0618 115.977 58.1882C120.147 58.3408 121.397 54.777 121.025 53.3522C123.198 51.5852 123.51 48.546 121.07 46.221C118.63 43.896 113.258 45.1943 111.77 47.4598C109.884 50.2684 112.812 52.4818 112.812 52.4818Z" fill="#263238"/>
<path d="M116.99 47.125C116.789 45.4882 116.945 44.361 118.478 44.361C120.01 44.361 122.101 44.9153 122.867 46.4814C123.634 48.0475 123.697 50.499 121.558 50.2498C119.419 50.0005 117.232 49.0817 116.99 47.125Z" fill="#B99AC8"/>
<path d="M119.363 46.7306C118.991 44.7814 120.736 39.2906 124.973 38.9186C126.937 38.7512 127.845 40.8642 126.833 41.2139C128.693 41.1916 129.883 43.6505 128.15 44.0188C129.519 44.8967 129.18 46.6972 127.227 47.5825C125.773 48.2521 119.865 49.4314 119.363 46.7306Z" fill="#263238"/>
<path d="M123.891 48.825C122.526 48.825 121.101 48.6241 120.216 48.0326C119.969 47.8834 119.76 47.6773 119.608 47.4315C119.456 47.1857 119.365 46.9072 119.342 46.619C119.341 46.5946 119.349 46.5706 119.365 46.552C119.381 46.5333 119.403 46.5214 119.427 46.5186C119.44 46.517 119.452 46.5181 119.464 46.5216C119.476 46.5252 119.487 46.5312 119.497 46.5392C119.506 46.5473 119.514 46.5572 119.519 46.5684C119.524 46.5796 119.527 46.5917 119.528 46.6042C119.55 46.8642 119.634 47.1152 119.771 47.3369C119.909 47.5586 120.097 47.7447 120.32 47.8801C122.005 48.9961 125.9 48.6241 127.113 48.2521C128.162 47.9099 128.873 47.244 129.014 46.4777C129.058 46.1965 129.023 45.9085 128.914 45.6459C128.804 45.3832 128.624 45.1561 128.393 44.9897C128.384 44.9813 128.377 44.9712 128.372 44.96C128.367 44.9488 128.364 44.9368 128.364 44.9246C128.364 44.9124 128.367 44.9003 128.372 44.8891C128.377 44.8779 128.384 44.8678 128.393 44.8595C128.41 44.8424 128.433 44.8329 128.458 44.8329C128.482 44.8329 128.505 44.8424 128.523 44.8595C128.783 45.0489 128.984 45.3069 129.106 45.6045C129.227 45.902 129.264 46.2276 129.211 46.5446C129.059 47.3816 128.303 48.0959 127.187 48.4604C126.111 48.7319 125.002 48.8545 123.891 48.825Z" fill="#263238"/>
<path d="M111.864 52.08C111.518 52.5659 111.375 53.168 111.466 53.7577C111.589 54.5389 112.348 54.591 112.899 54.0925C113.449 53.594 113.929 52.6938 113.524 52.0465C113.433 51.9067 113.309 51.7923 113.162 51.7141C113.015 51.636 112.851 51.5967 112.685 51.6001C112.518 51.6034 112.356 51.6493 112.212 51.7333C112.068 51.8173 111.949 51.9367 111.864 52.08Z" fill="#7F3E3B"/>
<path d="M112.076 81.5275C112.076 81.5275 113.884 102.914 115.763 114.967C117.277 124.702 118.475 147.457 118.475 147.457H122.723C122.723 147.457 124.233 125.383 123.467 115.755C121.521 91.3892 125.862 89.4028 121.395 81.5312L112.076 81.5275Z" fill="#B99AC8"/>
<path opacity="0.4" d="M117.426 89.6111C115.742 91.3781 114.384 93.4283 113.412 95.6672C113.907 100.473 114.495 105.808 115.12 110.48C117.684 103.841 118.479 96.6498 117.426 89.6111Z" fill="black"/>
<path d="M109.105 81.3936C109.105 81.3936 105.18 104.751 104.562 115.279C106.103 125.014 112.404 145.593 112.404 145.593L116.269 144.191C116.269 144.191 114.13 121.752 111.805 115.61C117.039 97.9885 120.886 93.532 119.766 81.5275C117.084 81.5275 109.105 81.3936 109.105 81.3936Z" fill="#B99AC8"/>
<path d="M111.887 146.62L117.109 145.203L116.812 143.12L111.221 144.634L111.887 146.62Z" fill="#263238"/>
<path d="M117.891 147.543H123.304L123.586 145.645L117.861 145.452L117.891 147.543Z" fill="#263238"/>
<path d="M121.581 80.7835L122.15 81.9181C122.195 82.0074 122.091 82.0967 121.946 82.0967H108.673C108.561 82.0967 108.465 82.0409 108.457 81.9665L108.342 80.8505C108.342 80.7724 108.435 80.7054 108.558 80.7054H121.373C121.411 80.7001 121.451 80.7045 121.487 80.7182C121.523 80.7318 121.556 80.7543 121.581 80.7835Z" fill="#B99AC8"/>
<path opacity="0.5" d="M121.581 80.7835L122.15 81.9181C122.195 82.0074 122.091 82.0967 121.946 82.0967H108.673C108.561 82.0967 108.465 82.0409 108.457 81.9665L108.342 80.8505C108.342 80.7724 108.435 80.7054 108.558 80.7054H121.373C121.411 80.7001 121.451 80.7045 121.487 80.7182C121.523 80.7318 121.556 80.7543 121.581 80.7835Z" fill="black"/>
<path d="M119.859 82.212H120.201C120.271 82.212 120.324 82.1748 120.32 82.1339L120.156 80.6459C120.156 80.6012 120.093 80.5678 120.026 80.5678H119.68C119.613 80.5678 119.561 80.6012 119.565 80.6459L119.725 82.1339C119.732 82.1822 119.792 82.212 119.859 82.212Z" fill="#B99AC8"/>
<path d="M115.253 71.3794C115.211 71.3787 115.172 71.3651 115.139 71.3403C115.106 71.3156 115.082 71.281 115.07 71.2417C113.858 66.7554 111.35 63.0577 110.134 62.4997C110.039 62.4417 109.926 62.423 109.818 62.4476C109.795 62.4595 109.771 62.4666 109.745 62.4685C109.72 62.4705 109.694 62.4672 109.67 62.459C109.646 62.4507 109.624 62.4376 109.606 62.4205C109.587 62.4034 109.572 62.3826 109.561 62.3595C109.551 62.3363 109.545 62.3113 109.545 62.2859C109.545 62.2605 109.549 62.2353 109.559 62.2119C109.569 62.1884 109.583 62.1672 109.601 62.1495C109.62 62.1319 109.641 62.1181 109.665 62.1091C109.767 62.0718 109.875 62.0571 109.983 62.0661C110.091 62.0751 110.196 62.1076 110.29 62.1612C111.577 62.7713 114.122 66.4169 115.394 71.0036C116.305 71.0036 117.711 70.8809 118.054 70.8511C118.478 70.3452 121.595 66.4466 120.431 62.1798C120.424 62.1563 120.422 62.1318 120.425 62.1076C120.428 62.0833 120.436 62.06 120.448 62.0388C120.46 62.0176 120.476 61.9991 120.496 61.9844C120.515 61.9696 120.537 61.9589 120.561 61.9529C120.608 61.9403 120.659 61.947 120.701 61.9713C120.744 61.9957 120.775 62.0359 120.788 62.0831C122.086 66.8298 118.322 71.1115 118.281 71.1524C118.266 71.1705 118.248 71.1854 118.228 71.1963C118.207 71.2071 118.185 71.2137 118.162 71.2157C118.143 71.2157 116.287 71.3794 115.253 71.3794Z" fill="#B99AC8"/>
<path d="M121.418 74.0057C119.39 70.2075 118.561 69.9397 118.2 68.7195C118.473 68.0372 118.863 67.4078 119.353 66.8595C119.107 66.7889 118.579 66.6847 118.237 66.6215C118.274 66.4541 118.315 66.2904 118.352 66.1304C117.98 66.0888 117.603 66.1063 117.236 66.1825V65.8105C116.764 65.7077 116.278 65.6764 115.797 65.7175C115.839 65.8936 115.88 66.0722 115.919 66.2532C115.547 66.3239 114.982 66.4392 114.71 66.5173C115.238 67.115 115.626 67.8228 115.845 68.5894C114.751 70.468 110.503 82.5431 117.415 83.4693C124.327 84.3956 123.441 77.8075 121.418 74.0057Z" fill="#B99AC8"/>
<path opacity="0.4" d="M121.418 74.0057C119.39 70.2075 118.561 69.9397 118.2 68.7195C118.473 68.0372 118.863 67.4078 119.353 66.8595C119.107 66.7889 118.579 66.6847 118.237 66.6215C118.274 66.4541 118.315 66.2904 118.352 66.1304C117.98 66.0888 117.603 66.1063 117.236 66.1825V65.8105C116.764 65.7077 116.278 65.6764 115.797 65.7175C115.839 65.8936 115.88 66.0722 115.919 66.2532C115.547 66.3239 114.982 66.4392 114.71 66.5173C115.238 67.115 115.626 67.8228 115.845 68.5894C114.751 70.468 110.503 82.5431 117.415 83.4693C124.327 84.3956 123.441 77.8075 121.418 74.0057Z" fill="white"/>
<path d="M115.561 68.2285C115.518 68.4201 115.499 68.6163 115.505 68.8126C115.505 68.9502 115.877 69.0432 116.29 69.0841C116.703 69.125 118.436 69.192 118.381 68.9986C118.325 68.8051 118.466 68.541 118.474 68.3773C118.481 68.2136 117.785 68.2062 117.201 68.2285C116.617 68.2508 115.676 68.0202 115.561 68.2285Z" fill="#B99AC8"/>
<path d="M111.541 82.212H111.883C111.95 82.212 112.002 82.1748 111.998 82.1339L111.838 80.6459C111.838 80.6012 111.775 80.5678 111.704 80.5678H111.373C111.306 80.5678 111.254 80.6012 111.258 80.6459L111.418 82.1339C111.411 82.1822 111.47 82.212 111.541 82.212Z" fill="#B99AC8"/>
</g>
<defs>
<linearGradient id="paint0_linear_340_20797" x1="94.3887" y1="28" x2="94.3887" y2="159" gradientUnits="userSpaceOnUse">
<stop stop-color="#F4ACC4"/>
<stop offset="0.541667" stop-color="#B99AC8"/>
<stop offset="1" stop-color="#79A8F0"/>
</linearGradient>
<linearGradient id="paint1_linear_340_20797" x1="46.9746" y1="139.325" x2="46.9746" y2="117.5" gradientUnits="userSpaceOnUse">
<stop stop-color="#F4ACC4"/>
<stop offset="0.541667" stop-color="#B99AC8"/>
<stop offset="1" stop-color="#79A8F0"/>
</linearGradient>
<linearGradient id="paint2_linear_340_20797" x1="93.8888" y1="150.63" x2="93.8888" y2="159.052" gradientUnits="userSpaceOnUse">
<stop stop-color="#F4ACC4"/>
<stop offset="0.541667" stop-color="#B99AC8"/>
<stop offset="1" stop-color="#79A8F0"/>
</linearGradient>
<clipPath id="clip0_340_20797">
<rect width="186" height="186" fill="white" transform="translate(0.888672)"/>
</clipPath>
</defs>
</svg>
