<svg width="203" height="200" viewBox="0 0 203 200" fill="none" xmlns="http://www.w3.org/2000/svg">
<path d="M62.1034 159.193C62.1034 159.193 146.044 166.026 174.069 123.893C179.423 115.844 178.465 107.309 174.069 103.728C169.674 100.148 163.815 100.375 159.888 97.761C153.551 93.5438 158.564 81.87 150.215 73.9933C145.668 69.7034 137.565 70.413 132.075 70.413C127.372 70.413 123.018 70.3417 120.379 67.5487C118.044 65.078 117.505 61.3868 119.186 56.5691C128.017 38.4288 124.73 30.0479 110.55 20.6105C93.2072 9.06815 69.7331 14.7983 51.4433 42.2792C20.4882 88.79 62.1034 159.193 62.1034 159.193Z" fill="url(#paint0_linear_641_4896)"/>
<path d="M63.4278 157.773C61.9956 152.999 71.0199 145.069 68.7285 137.622C65.8642 128.313 61.0409 120.826 63.4278 114.62C65.8147 108.415 83.4776 103.294 77.7491 97.8042C72.0205 92.3144 65.1463 84.3548 74.8848 75.953C70.2702 73.5661 63.0936 66.9639 74.1687 59.1349C88.0127 49.3487 93.5025 56.5112 93.0251 62.7169C94.6959 62.4784 115.462 62.7169 110.211 72.5014C110.927 82.0489 108.778 82.6968 109.972 87.3C110.675 90.0123 114.268 94.0788 112.359 94.4607C109.972 94.9381 107.585 93.3773 108.778 95.7641C109.972 98.151 109.972 99.3631 107.585 98.9958C105.914 98.9958 110.688 101.144 106.869 102.099C104.959 103.402 107.824 108.543 102.811 107.589C98.8013 106.825 96.3667 103.77 92.5477 102.815C88.7287 101.86 85.0529 107.302 90.3995 112.84C92.5477 115.065 96.3666 115.943 104.482 122.865C105.011 123.316 107.108 123.437 108.062 122.865C109.256 122.148 109.972 117.723 112.359 116.769C114.746 115.814 123.1 116.879 123.577 116.053C124.054 115.227 117.371 110.563 117.371 110.563C117.371 110.563 116.416 109.957 117.371 108.892C117.72 108.503 117.845 108.289 117.876 108.177C117.869 108.182 117.86 108.181 117.849 108.176C117.697 108.106 117.93 107.984 117.876 108.177C118.02 108.097 117.371 106.266 117.371 106.266C117.371 105.948 117.479 105.764 117.849 105.55C119.281 104.724 119.657 103.71 119.519 103.402C119.042 102.337 116.655 101.844 122.861 99.8218C126.441 98.6553 120.952 85.1519 142.433 91.5964C148.639 94.5707 158.091 105.503 142.433 116.769C139.092 119.173 133.363 119.763 138.853 126.924C140.524 128.595 140.811 134.519 138.853 144.348C137.231 148.362 133.173 150.511 130.547 151.227C122.514 153.862 115.846 154.908 99.3762 156.818C93.1648 157.773 70.3576 159.052 63.4278 157.773Z" fill="white" stroke="white" stroke-width="6"/>
<defs>
<linearGradient id="paint0_linear_641_4896" x1="140.895" y1="40.8067" x2="62.1034" y2="159.193" gradientUnits="userSpaceOnUse">
<stop stop-color="#F4ACC4"/>
<stop offset="0.541667" stop-color="#B99AC8"/>
<stop offset="1" stop-color="#79A8F0"/>
</linearGradient>
</defs>
</svg>
