<svg width="202" height="200" viewBox="0 0 202 200" fill="none" xmlns="http://www.w3.org/2000/svg">
<path d="M61.4549 159.193C61.4549 159.193 145.395 166.026 173.421 123.893C178.774 115.844 177.817 107.308 173.421 103.728C169.025 100.148 163.166 100.375 159.239 97.7609C152.903 93.5438 157.915 81.87 149.567 73.9933C145.02 69.7034 136.916 70.413 131.426 70.413C126.724 70.413 122.37 70.3417 119.731 67.5487C117.396 65.0779 116.857 61.3868 118.537 56.5691C127.369 38.4288 124.081 30.0479 109.901 20.6105C92.5587 9.06815 69.0846 14.7983 50.7949 42.2792C19.8398 88.79 61.4549 159.193 61.4549 159.193Z" fill="white"/>
<path d="M62.7793 158.547C61.3472 153.774 70.3715 145.843 68.0801 138.396C65.2158 129.087 60.3924 121.601 62.7793 115.395C65.1662 109.189 82.8291 104.069 77.1006 98.579C71.3721 93.0891 64.4979 85.1296 74.2364 76.7278C69.6217 74.3409 62.4452 67.7386 73.5203 59.9097C87.3642 50.1235 92.854 57.2859 92.3767 63.4917C94.0475 63.2531 114.813 63.4917 109.562 73.2762C110.278 82.8237 108.13 83.4715 109.323 88.0748C110.027 90.7871 113.62 94.8536 111.71 95.2355C109.323 95.7128 106.937 94.1521 108.13 96.5389C109.323 98.9258 109.323 100.138 106.937 99.7705C105.266 99.7705 110.039 101.919 106.22 102.873C104.311 104.177 107.175 109.318 102.163 108.363C98.1528 107.599 95.7183 104.544 91.8993 103.59C88.0803 102.635 84.4045 108.077 89.7511 113.614C91.8993 115.839 95.7182 116.717 103.834 123.639C104.363 124.091 106.459 124.212 107.414 123.639C108.607 122.923 109.323 118.498 111.71 117.543C114.097 116.589 122.451 117.653 122.929 116.827C123.406 116.001 116.723 111.338 116.723 111.338C116.723 111.338 115.768 110.732 116.723 109.667C117.071 109.278 117.197 109.063 117.228 108.952C117.221 108.956 117.212 108.956 117.2 108.951C117.049 108.881 117.282 108.759 117.228 108.952C117.372 108.872 116.723 107.041 116.723 107.041C116.723 106.723 116.83 106.538 117.2 106.325C118.632 105.499 119.009 104.485 118.871 104.177C118.394 103.112 116.007 102.619 122.213 100.597C125.793 99.43 120.303 85.9266 141.785 92.3712C147.991 95.3455 157.443 106.277 141.785 117.543C138.443 119.948 132.715 120.538 138.205 127.699C139.876 129.37 140.163 135.293 138.205 145.123C136.582 149.137 132.525 151.285 129.899 152.002C121.866 154.637 115.197 155.683 98.7278 157.593C92.5163 158.547 69.7092 159.827 62.7793 158.547Z" fill="url(#paint0_linear_87_3252)" stroke="url(#paint1_linear_87_3252)" stroke-width="6"/>
<defs>
<linearGradient id="paint0_linear_87_3252" x1="106.237" y1="55.0941" x2="106" y2="186.5" gradientUnits="userSpaceOnUse">
<stop stop-color="#F4ACC4"/>
<stop offset="0.541667" stop-color="#B99AC8"/>
<stop offset="1" stop-color="#79A8F0"/>
</linearGradient>
<linearGradient id="paint1_linear_87_3252" x1="106.237" y1="55.0941" x2="106" y2="192.5" gradientUnits="userSpaceOnUse">
<stop stop-color="#F4ACC4"/>
<stop offset="0.541667" stop-color="#B99AC8"/>
<stop offset="1" stop-color="#79A8F0"/>
</linearGradient>
</defs>
</svg>
