<svg width="95" height="102" viewBox="0 0 95 102" fill="none" xmlns="http://www.w3.org/2000/svg">
<path d="M90.2827 39.1945L90.2931 7.00175C90.2935 5.46528 89.6837 3.99196 88.5976 2.9059C87.5115 1.81984 86.0382 1.20999 84.5017 1.21053C82.9649 1.21107 81.4907 1.82182 80.4033 2.90853C79.3159 3.99525 78.7042 5.46899 78.7026 7.00582L78.7018 9.59259" stroke="#263238" stroke-width="2" stroke-linecap="round" stroke-linejoin="round"/>
<path d="M78.8418 10.4271L78.8376 23.277" stroke="#263238" stroke-width="0.5" stroke-linecap="round" stroke-linejoin="round"/>
<path d="M84.8438 19.7854L84.8417 26.0704" stroke="#263238" stroke-width="0.5" stroke-linecap="round" stroke-linejoin="round"/>
<path d="M70.8804 13.6478L84.8437 19.784" stroke="#263238" stroke-width="2" stroke-linecap="round" stroke-linejoin="round"/>
<path d="M70.8786 20.7684L70.8809 13.6478" stroke="#263238" stroke-width="0.5" stroke-linecap="round" stroke-linejoin="round"/>
<path d="M77.3059 10.4277C77.306 10.1241 77.3962 9.8272 77.5649 9.57467C77.7337 9.32213 77.9736 9.12527 78.2541 9.00897C78.5347 8.89267 78.8434 8.86216 79.1412 8.92129C79.439 8.98043 79.7125 9.12655 79.9271 9.34119C80.1418 9.55583 80.2879 9.82933 80.3471 10.1271C80.4062 10.4249 80.3757 10.7336 80.2594 11.0142C80.1431 11.2948 79.9463 11.5346 79.6937 11.7034C79.4412 11.8722 79.1443 11.9623 78.8407 11.9624C78.4335 11.9626 78.0431 11.801 77.7552 11.5132C77.4674 11.2253 77.3058 10.8349 77.3059 10.4277Z" fill="#B99AC8" stroke="#263238" stroke-linecap="round" stroke-linejoin="round"/>
<path d="M80.2516 28.2446L82.2179 30.5948L81.3973 33.5497L84.2403 32.4052L86.7946 34.0955L86.5876 31.0371L88.9871 29.1331L86.0128 28.3865L84.9422 25.5163L83.3142 28.1156L80.2516 28.2446Z" fill="#B99AC8" stroke="#263238" stroke-width="0.5" stroke-linecap="round" stroke-linejoin="round"/>
<path d="M80.8679 26.0218C80.0155 26.0221 79.3248 25.3314 79.3251 24.4791C79.3254 23.6268 80.0165 22.9356 80.8688 22.9353C81.7212 22.935 82.4119 23.6257 82.4116 24.478C82.4113 25.3303 81.7202 26.0215 80.8679 26.0218Z" fill="white" stroke="#263238" stroke-width="0.5" stroke-linecap="round" stroke-linejoin="round"/>
<path d="M78.7177 24.9054C77.7352 24.9057 76.9389 24.1094 76.9392 23.1268C76.9395 22.1442 77.7363 21.3474 78.7189 21.3471C79.7015 21.3467 80.4978 22.143 80.4975 23.1256C80.4972 24.1082 79.7003 24.905 78.7177 24.9054Z" fill="white" stroke="#263238" stroke-width="0.5" stroke-linecap="round" stroke-linejoin="round"/>
<path d="M76.722 26.1286C75.9293 26.1289 75.2869 25.4865 75.2871 24.6938C75.2874 23.9011 75.9302 23.2583 76.7229 23.258C77.5156 23.2577 78.158 23.9001 78.1577 24.6928C78.1575 25.4855 77.5147 26.1284 76.722 26.1286Z" fill="white" stroke="#263238" stroke-width="0.5" stroke-linecap="round" stroke-linejoin="round"/>
<path d="M77.5226 24.6534C77.5233 24.9158 77.6017 25.172 77.748 25.3897C77.8943 25.6074 78.1018 25.7768 78.3444 25.8766C78.5869 25.9764 78.8537 26.002 79.1109 25.9502C79.3682 25.8985 79.6043 25.7717 79.7896 25.5858C79.9749 25.3999 80.101 25.1634 80.152 24.906C80.203 24.6486 80.1766 24.3819 80.076 24.1396C79.9755 23.8974 79.8055 23.6903 79.5873 23.5447C79.3692 23.3991 79.1127 23.3215 78.8504 23.3216C78.6757 23.3216 78.5028 23.3562 78.3415 23.4232C78.1801 23.4902 78.0336 23.5884 77.9102 23.7121C77.7869 23.8358 77.6892 23.9827 77.6226 24.1442C77.5561 24.3057 77.5221 24.4788 77.5226 24.6534Z" fill="white" stroke="#263238" stroke-width="0.5" stroke-linecap="round" stroke-linejoin="round"/>
<path d="M72.3101 20.1758C72.6026 20.1769 72.8938 20.213 73.1776 20.2835C72.5363 20.6152 72.011 21.1343 71.6717 21.7718C71.3324 22.4092 71.1951 23.1347 71.2783 23.8518C71.3614 24.5688 71.6609 25.2434 72.1369 25.7858C72.613 26.3282 73.243 26.7127 73.9431 26.888C73.4651 27.1349 72.9373 27.2701 72.3996 27.2833C71.8618 27.2966 71.3282 27.1877 70.8388 26.9648C70.3494 26.7418 69.9171 26.4107 69.5745 25.9963C69.2318 25.5819 68.9877 25.0951 68.8606 24.5725C68.7334 24.05 68.7266 23.5053 68.8405 22.9795C68.9545 22.4538 69.1862 21.9607 69.5183 21.5373C69.8505 21.114 70.2743 20.7715 70.7579 20.5357C71.2415 20.2998 71.7722 20.1768 72.3101 20.1758Z" fill="white" stroke="#263238" stroke-width="0.5" stroke-linecap="round" stroke-linejoin="round"/>
<path d="M87.6986 68.2328L7.66107 68.2609C6.45862 68.2613 5.30528 68.7394 4.45475 69.59C3.60421 70.4405 3.12618 71.5939 3.12579 72.7963L3.12353 79.777L92.2287 79.7457L92.231 72.7451C92.2261 71.5461 91.7464 70.3982 90.897 69.5525C90.0476 68.7069 88.8976 68.2324 87.6986 68.2328Z" fill="#B99AC8" stroke="#263238" stroke-width="0.5" stroke-linecap="round" stroke-linejoin="round"/>
<path d="M77.2756 68.2374L89.9095 68.233C90.5067 68.2155 91.0863 68.4353 91.5215 68.8443C91.9567 69.2532 92.2121 69.818 92.2317 70.4151L92.2287 79.7467L77.2719 79.7519L77.2756 68.2374Z" fill="white" stroke="#263238" stroke-width="0.5" stroke-linecap="round" stroke-linejoin="round"/>
<path d="M88.142 41.2094L89.7812 41.2088L89.7684 80.9979L88.1292 80.9985L88.142 41.2094Z" fill="white" stroke="#263238" stroke-width="0.5" stroke-linecap="round" stroke-linejoin="round"/>
<path d="M83.5893 41.211L85.2285 41.2104L85.2157 80.9995L83.5765 81.0001L83.5893 41.211Z" fill="white" stroke="#263238" stroke-width="0.5" stroke-linecap="round" stroke-linejoin="round"/>
<path d="M79.0405 41.2126L80.6797 41.212L80.6668 81.0011L79.0276 81.0017L79.0405 41.2126Z" fill="white" stroke="#263238" stroke-width="0.5" stroke-linecap="round" stroke-linejoin="round"/>
<path d="M74.4858 41.2142L76.125 41.2136L76.1122 81.0028L74.4729 81.0033L74.4858 41.2142Z" fill="white" stroke="#263238" stroke-width="0.5" stroke-linecap="round" stroke-linejoin="round"/>
<path d="M69.935 41.2158L71.5742 41.2152L71.5614 81.0043L69.9222 81.0049L69.935 41.2158Z" fill="white" stroke="#263238" stroke-width="0.5" stroke-linecap="round" stroke-linejoin="round"/>
<path d="M65.3823 41.2174L67.0215 41.2168L67.0086 81.0059L65.3694 81.0065L65.3823 41.2174Z" fill="white" stroke="#263238" stroke-width="0.5" stroke-linecap="round" stroke-linejoin="round"/>
<path d="M60.8295 41.219L62.4688 41.2184L62.4559 81.0075L60.8167 81.0081L60.8295 41.219Z" fill="white" stroke="#263238" stroke-width="0.5" stroke-linecap="round" stroke-linejoin="round"/>
<path d="M56.2788 41.2205L57.918 41.22L57.9051 81.0091L56.2659 81.0097L56.2788 41.2205Z" fill="white" stroke="#263238" stroke-width="0.5" stroke-linecap="round" stroke-linejoin="round"/>
<path d="M51.7241 41.2221L53.3633 41.2216L53.3504 81.0107L51.7112 81.0113L51.7241 41.2221Z" fill="white" stroke="#263238" stroke-width="0.5" stroke-linecap="round" stroke-linejoin="round"/>
<path d="M47.1752 41.2238L48.8145 41.2232L48.8016 81.0123L47.1624 81.0129L47.1752 41.2238Z" fill="white" stroke="#263238" stroke-width="0.5" stroke-linecap="round" stroke-linejoin="round"/>
<path d="M42.6205 41.2254L44.2598 41.2248L44.2469 81.0139L42.6077 81.0145L42.6205 41.2254Z" fill="white" stroke="#263238" stroke-width="0.5" stroke-linecap="round" stroke-linejoin="round"/>
<path d="M38.0717 41.227L39.7109 41.2264L39.6981 81.0155L38.0589 81.0161L38.0717 41.227Z" fill="white" stroke="#263238" stroke-width="0.5" stroke-linecap="round" stroke-linejoin="round"/>
<path d="M33.517 41.2285L35.1562 41.228L35.1434 81.0171L33.5042 81.0177L33.517 41.2285Z" fill="white" stroke="#263238" stroke-width="0.5" stroke-linecap="round" stroke-linejoin="round"/>
<path d="M28.9682 41.2301L30.6074 41.2296L30.5946 81.0187L28.9554 81.0193L28.9682 41.2301Z" fill="white" stroke="#263238" stroke-width="0.5" stroke-linecap="round" stroke-linejoin="round"/>
<path d="M24.4135 41.2318L26.0527 41.2312L26.0399 81.0203L24.4007 81.0209L24.4135 41.2318Z" fill="white" stroke="#263238" stroke-width="0.5" stroke-linecap="round" stroke-linejoin="round"/>
<path d="M19.8647 41.2334L21.5039 41.2328L21.4911 81.0219L19.8518 81.0225L19.8647 41.2334Z" fill="white" stroke="#263238" stroke-width="0.5" stroke-linecap="round" stroke-linejoin="round"/>
<path d="M15.31 41.235L16.9492 41.2344L16.9364 81.0235L15.2972 81.0241L15.31 41.235Z" fill="white" stroke="#263238" stroke-width="0.5" stroke-linecap="round" stroke-linejoin="round"/>
<path d="M10.7573 41.2365L12.3965 41.236L12.3836 81.0251L10.7444 81.0257L10.7573 41.2365Z" fill="white" stroke="#263238" stroke-width="0.5" stroke-linecap="round" stroke-linejoin="round"/>
<path d="M6.20844 39.7929L7.84766 39.7924L7.83481 79.5815L6.19559 79.5821L6.20844 39.7929Z" fill="white" stroke="#263238" stroke-width="0.5" stroke-linecap="round" stroke-linejoin="round"/>
<path d="M3.13702 39.214L92.2422 39.1827L92.2417 40.7219L3.13652 40.7532L3.13702 39.214Z" fill="white" stroke="#263238" stroke-width="0.5" stroke-linecap="round" stroke-linejoin="round"/>
<path d="M3.12334 78.6267L92.2285 78.5955L92.2267 84.1688L3.12155 84.2001L3.12334 78.6267Z" fill="white" stroke="#263238" stroke-width="0.5" stroke-linecap="round" stroke-linejoin="round"/>
<path d="M92.2424 24.3831L94.7012 24.3823L94.6768 99.734L92.218 99.7349L92.2424 24.3831Z" fill="white" stroke="#263238" stroke-width="0.5" stroke-linecap="round" stroke-linejoin="round"/>
<path d="M92.2404 31.1421L94.6992 31.1412L94.6771 99.7282L92.2183 99.7291L92.2404 31.1421Z" fill="white" stroke="#263238" stroke-width="0.5" stroke-linecap="round" stroke-linejoin="round"/>
<path d="M1.09003 24.4151L3.54883 24.4142L3.5245 99.766L1.0657 99.7668L1.09003 24.4151Z" fill="white" stroke="#263238" stroke-width="0.5" stroke-linecap="round" stroke-linejoin="round"/>
<path d="M1.08807 31.1741L3.54688 31.1732L3.52473 99.7602L1.06593 99.7611L1.08807 31.1741Z" fill="white" stroke="#263238" stroke-width="0.5" stroke-linecap="round" stroke-linejoin="round"/>
<path d="M37.0485 11.8894C38.1554 8.60784 41.5039 6.58333 45.274 5.88058C49.0441 5.17784 53.9128 5.26043 56.6431 10.8709C58.86 15.4259 59.253 20.5786 61.4016 25.7913C63.5502 31.004 74.6659 41.3528 67.6469 51.3809C61.336 60.4004 41.8671 62.2283 36.6617 50.9669C32.5375 42.0353 40.0098 29.2621 39.6913 25.1986C39.3728 21.1352 35.8327 15.4846 37.0485 11.8894Z" fill="#263238"/>
<path d="M37.5716 17.6533C38.5643 20.2833 39.2711 23.0685 39.1646 25.9653C39.1408 26.6998 39.0135 27.4274 38.7863 28.127C38.5785 28.8218 38.3299 29.4963 38.0847 30.1506C37.5774 31.4997 37.0632 32.815 36.6443 34.1573C35.7334 36.8101 35.2156 39.5797 35.1071 42.3793C35.0445 45.1798 35.5193 47.9662 36.5063 50.5902C35.8664 49.3262 35.3715 47.9951 35.0309 46.6216C34.7018 45.2348 34.5198 43.8176 34.4879 42.3931C34.4038 39.5301 34.9967 36.6601 35.8686 33.9384C36.3181 32.5725 36.8391 31.2403 37.3567 29.8912C37.8743 28.5421 38.4259 27.2672 38.5284 25.9015C38.6386 24.5151 38.5854 23.1209 38.3699 21.7469C38.1885 20.3674 37.9219 19.0003 37.5716 17.6533Z" fill="#263238"/>
<path d="M57.9954 14.9023C59.0153 17.5828 59.9229 20.2972 61.055 22.9136C61.62 24.2148 62.265 25.4804 62.9863 26.7033C63.7038 27.9036 64.6119 29.0296 65.4621 30.1961C66.3123 31.3626 67.1319 32.556 67.8868 33.8001C68.6342 35.0489 69.268 36.3611 69.7807 37.7213C70.2713 39.0964 70.5618 40.5338 70.6435 41.9903C70.6482 43.4536 70.3526 44.9028 69.7746 46.2497C70.1967 44.8803 70.3564 43.4448 70.2454 42.0174C70.0894 40.6164 69.736 39.2442 69.1954 37.9407C68.0905 35.3378 66.4955 32.9609 64.7747 30.6549C63.9449 29.4884 63.0368 28.3624 62.2989 27.0779C61.585 25.815 60.9701 24.4995 60.4595 23.1431C59.4688 20.4488 58.6459 17.6967 57.9954 14.9023Z" fill="#263238"/>
<path d="M38.6685 65.361C37.4886 73.6875 40.8639 84.039 40.8639 84.039C40.9692 84.3155 36.735 100.16 36.7754 101.3L58.7479 101.292C59.9366 97.4167 63.9535 90.9103 63.9535 90.9103C63.9535 90.9103 71.6583 85.4682 72.8034 79.3573C74.027 72.7473 71.413 65.3495 71.413 65.3495C71.413 65.3495 38.6719 65.3543 38.6685 65.361Z" fill="#263238"/>
<path d="M48.5432 101.298L71.3902 101.29C71.3902 101.29 68.9384 86.5168 68.9418 86.5134C76.933 79.0917 71.4018 65.3519 71.4018 65.3519L38.4328 65.3634C37.154 74.3913 41.7099 84.4524 41.7099 84.4524C45.1132 92.1062 47.9207 101.139 48.5432 101.298Z" fill="#37474F"/>
<path d="M38.2859 66.4312C38.1328 66.3706 38.5573 58.3209 38.5573 58.3209C38.5573 58.3209 34.8878 53.075 36.3794 48.9435C37.1388 46.8525 44.2333 34.4402 47.4699 31.657C50.5023 29.0425 55.5201 31.0269 57.3364 32.7967C63.1186 38.4094 68.2006 52.7194 71.5511 65.5731C71.5545 65.5765 50.7029 71.384 38.2859 66.4312Z" fill="#EB9481"/>
<path d="M38.5641 58.321C51.2132 61.1088 64.8509 58.0926 69.1008 56.9917C65.9331 46.8492 61.8465 37.1757 57.3398 32.8002C55.5201 31.0337 50.5056 29.0459 47.4733 31.6638C44.2367 34.4504 37.1388 46.8424 36.3828 48.947C34.8878 53.0785 38.5641 58.321 38.5641 58.321Z" fill="#B99AC8"/>
<path d="M41.8899 55.3488C43.5136 55.4043 45.1229 55.6701 46.6768 56.1396C48.2383 56.5774 51.6913 57.9318 52.5588 58.2654C52.5826 58.2654 52.5588 58.3059 52.5588 58.2991C51.4318 58.0352 50.3219 57.7045 49.235 57.3088C47.7007 56.7934 46.1732 56.3252 44.5878 55.9245C43.7021 55.7069 42.8032 55.5462 41.8967 55.4432C41.884 55.4441 41.8715 55.44 41.862 55.4318C41.8524 55.4236 41.8465 55.4119 41.8456 55.3994C41.8447 55.3869 41.8489 55.3745 41.8572 55.365C41.8655 55.3555 41.8773 55.3497 41.8899 55.3488Z" fill="#263238"/>
<path d="M39.0353 56.1496C40.7281 56.0113 42.4321 56.1601 44.0741 56.5896C44.0741 56.5896 44.074 56.6301 44.074 56.6267C43.2405 56.5292 42.4104 56.4317 41.5734 56.3612C40.7364 56.2906 39.8722 56.2505 39.0489 56.1968C39.0426 56.1986 39.0358 56.1978 39.03 56.1947C39.0243 56.1915 39.0201 56.1862 39.0183 56.18C39.0165 56.1737 39.0172 56.167 39.0204 56.1613C39.0236 56.1556 39.029 56.1514 39.0353 56.1496Z" fill="#263238"/>
<path d="M54.9122 32.2585C54.8507 32.9633 52.3344 38.9768 48.5782 38.8298C46.9996 38.7696 47.2397 32.7231 47.2397 32.7231L44.9484 26.7821L52.0035 20.7568C52.0035 20.7568 54.9327 31.9583 54.9122 32.2585Z" fill="#EB9481"/>
<path d="M44.947 26.7821L47.1703 32.5478C50.0741 30.8932 52.2034 28.171 53.0963 24.9717C52.505 22.6889 52.0021 20.7568 52.0021 20.7568L44.947 26.7821Z" fill="#263238"/>
<path d="M35.2693 19.8925C36.1437 30.2786 42.5196 30.9272 44.7924 30.7342C46.8339 30.5615 53.8022 29.7194 54.0131 19.2958C54.224 8.87214 49.0772 6.00081 44.3682 6.14747C39.6593 6.29413 34.3948 9.50971 35.2693 19.8925Z" fill="#EB9481"/>
<path d="M37.071 18.1512C37.3022 18.079 37.5294 17.9945 37.7515 17.898C38.0035 17.8412 38.2296 17.7037 38.3947 17.5066C38.4345 17.4348 38.4493 17.352 38.4371 17.271C38.4248 17.19 38.3861 17.1152 38.3268 17.0581C38.1909 16.9646 38.0324 16.9085 37.8674 16.8955C37.7025 16.8826 37.5369 16.9132 37.3878 16.9843C37.0594 17.0785 36.7788 17.2917 36.6016 17.5814C36.5638 17.6508 36.5477 17.7297 36.5552 17.8082C36.5627 17.8866 36.5935 17.9611 36.6438 18.0221C36.6941 18.0832 36.7615 18.128 36.8376 18.151C36.9136 18.174 36.9948 18.174 37.071 18.1512Z" fill="#263238"/>
<path d="M44.3343 17.9498C44.0859 17.9499 43.8545 17.9264 43.6096 17.913C43.3522 17.933 43.0954 17.8692 42.8781 17.7311C42.8181 17.6753 42.7785 17.6013 42.7656 17.5207C42.7527 17.4401 42.7672 17.3576 42.8068 17.286C42.909 17.1584 43.0435 17.06 43.1965 17.0007C43.3495 16.9414 43.5156 16.9234 43.6779 16.9485C44.0158 16.9439 44.3432 17.0639 44.5965 17.2854C44.6482 17.3397 44.6833 17.4075 44.6976 17.4809C44.712 17.5542 44.705 17.6301 44.6775 17.6997C44.65 17.7693 44.6032 17.8298 44.5424 17.8741C44.4817 17.9183 44.4095 17.9446 44.3343 17.9498Z" fill="#263238"/>
<path d="M43.0349 20.1057C43.0349 20.0787 43.0961 20.1326 43.0995 20.1596C43.1673 20.8677 43.3678 21.6635 44.0414 21.815C44.0618 21.815 44.0652 21.8555 44.0414 21.8555C43.2419 21.8457 42.987 20.7869 43.0349 20.1057Z" fill="#263238"/>
<path d="M43.5717 19.2888C44.7014 19.0523 45.0919 21.3116 44.0439 21.5278C42.9959 21.7439 42.6258 19.4847 43.5717 19.2888Z" fill="#263238"/>
<path d="M44.0373 19.334C44.2584 19.4283 44.4931 19.6205 44.7381 19.6035C44.9831 19.5866 45.1873 19.31 45.3303 19.0536C45.3303 19.0267 45.3677 19.0536 45.3745 19.0536C45.456 19.4852 45.3742 19.9574 44.908 20.1026C44.4419 20.2477 44.1188 19.9039 43.9352 19.4858C43.9012 19.4251 43.9488 19.2936 44.0373 19.334Z" fill="#263238"/>
<path d="M38.8389 20.5069C38.8389 20.48 38.7912 20.5508 38.798 20.5778C38.9441 21.2724 38.9948 22.0918 38.3993 22.4394C38.3993 22.4394 38.3993 22.4832 38.3993 22.4765C39.1717 22.23 39.0904 21.1408 38.8389 20.5069Z" fill="#263238"/>
<path d="M38.0801 19.8913C36.93 20.0063 37.2457 22.2757 38.3107 22.1674C39.3757 22.0592 39.043 19.7931 38.0801 19.8913Z" fill="#263238"/>
<path d="M37.6208 20.1035C37.4574 20.2486 37.3111 20.4948 37.0967 20.5387C36.8823 20.5826 36.6272 20.3669 36.4164 20.1545C36.4164 20.1343 36.3823 20.1545 36.3857 20.1849C36.4332 20.6199 36.644 21.0515 37.0659 21.0783C37.4878 21.1051 37.6921 20.6903 37.7467 20.2417C37.7671 20.1608 37.6889 20.0462 37.6208 20.1035Z" fill="#263238"/>
<path d="M43.8897 25.5007C43.7603 25.6997 43.6411 25.9594 43.3927 26.0337C43.1315 26.0894 42.8613 26.0895 42.6 26.034C42.595 26.0331 42.5897 26.0338 42.5852 26.0361C42.5806 26.0384 42.5769 26.0421 42.5746 26.0467C42.5723 26.0512 42.5715 26.0564 42.5724 26.0614C42.5733 26.0664 42.5758 26.071 42.5796 26.0744C42.709 26.1895 42.8676 26.2675 43.0384 26.3002C43.2092 26.3328 43.3858 26.3187 43.5492 26.2596C43.6837 26.1919 43.7949 26.0863 43.8688 25.956C43.9428 25.8257 43.9761 25.6766 43.9645 25.5276C43.9679 25.4737 43.9101 25.4703 43.8897 25.5007Z" fill="#263238"/>
<path d="M40.5285 23.4344C40.5285 23.4344 40.552 24.5034 40.63 24.9957C40.63 25.0429 40.7627 25.0462 40.9329 25.0293C40.9329 25.0293 40.9329 25.0293 40.9533 25.0293C41.3931 25.0404 41.8275 24.9306 42.2083 24.712C42.5891 24.4934 42.9015 24.1746 43.1108 23.7909C43.138 23.7369 43.0666 23.6965 43.0257 23.7336C42.4601 24.2639 41.7367 24.5989 40.9636 24.6887C40.9058 24.5572 40.988 22.8576 40.9063 22.8643C40.5249 22.9575 40.1584 23.1029 39.8174 23.2964C39.7059 21.0674 39.9584 18.8416 39.8196 16.6261C39.8196 16.5485 39.6937 16.5418 39.6835 16.6261C39.2541 18.9396 39.3417 21.5059 39.3784 23.8091C39.3783 24.0822 40.3413 23.5491 40.5285 23.4344Z" fill="#263238"/>
<path d="M40.9062 24.8374C41.2413 25.2142 41.669 25.4987 42.1478 25.6632C42.4108 25.749 42.6946 25.7489 42.9576 25.6629C43.5327 25.4705 43.509 24.941 43.3697 24.4959C43.2937 24.2599 43.1898 24.0335 43.0603 23.8216C42.4701 24.3796 41.7152 24.7356 40.9062 24.8374Z" fill="#263238"/>
<path d="M42.148 25.673C42.411 25.7588 42.6948 25.7587 42.9578 25.6727C43.5329 25.4803 43.5092 24.9509 43.3699 24.5058C42.7506 24.5937 42.1619 25.0592 42.148 25.673Z" fill="#FF9CBD"/>
<path d="M54.248 18.7436C52.5909 19.3309 51.231 15.8917 51.231 15.8917C51.231 15.8917 47.7671 16.8304 45.2781 12.1844C45.7797 13.639 46.6993 14.9163 47.924 15.8592C47.924 15.8592 41.636 16.8562 37.6805 12.4905C37.6805 12.4905 39.4116 14.7965 40.6226 15.4571C40.6226 15.4571 37.8667 15.4344 36.0538 13.7085C36.0538 13.7085 35.7805 16.9223 35.178 17.9511C35.178 17.9511 32.5412 7.28227 42.759 5.75106C42.759 5.75106 49.0742 4.49438 52.6249 8.7826C56.1756 13.0708 54.248 18.7436 54.248 18.7436Z" fill="#263238"/>
<path d="M52.2338 19.5365C52.2338 19.5365 53.9361 15.9445 55.5452 16.5003C57.1544 17.0562 56.2546 21.9833 54.6415 22.9079C54.4432 23.0411 54.2196 23.1333 53.9844 23.1787C53.7492 23.2241 53.5072 23.2219 53.273 23.1722C53.0387 23.1225 52.8171 23.0264 52.6214 22.8895C52.4257 22.7527 52.2599 22.578 52.1342 22.3759L52.2338 19.5365Z" fill="#EB9481"/>
<path d="M55.2526 17.9128C55.257 17.9145 55.2608 17.9176 55.2635 17.9215C55.2662 17.9254 55.2676 17.93 55.2676 17.9347C55.2676 17.9394 55.2661 17.944 55.2635 17.9479C55.2608 17.9518 55.257 17.9549 55.2526 17.9566C54.1296 18.6315 53.6869 19.8692 53.4381 21.0968C53.7207 20.5909 54.1699 20.2636 54.84 20.5871C54.8775 20.6039 54.84 20.6579 54.8196 20.6546C54.5957 20.6237 54.3677 20.6626 54.167 20.766C53.9664 20.8694 53.8032 21.0322 53.7001 21.2316C53.5262 21.5641 53.3903 21.9148 53.2948 22.2771C53.2574 22.3952 53.0532 22.3716 53.0703 22.2401C53.0703 22.2401 53.0703 22.2199 53.0703 22.2131C52.7986 20.6755 53.6125 18.3349 55.2526 17.9128Z" fill="#263238"/>
<path d="M33.0066 63.8782C33.0405 64.0873 32.4412 65.6522 32.6656 65.9961C32.8901 66.34 41.1473 67.5342 41.4606 66.482C41.8012 65.3454 38.1204 63.8123 38.2463 63.6268C38.2463 63.6268 39.5091 61.9099 40.1771 58.642C40.7291 55.944 40.4676 54.5042 39.0905 51.962C37.0876 48.2769 31.4598 49.3175 31.0299 53.1518C30.7432 55.6744 33.2533 58.3814 33.4095 59.3694C33.6098 60.6305 32.9998 63.8276 33.0066 63.8782Z" fill="#A6A6A6"/>
<path d="M40.9051 52.1392C40.8405 51.974 37.9926 52.2346 34.9783 51.6354C31.321 50.9083 29.1949 49.5737 29.0486 49.7727C28.521 50.5451 27.3802 53.4658 27.8727 56.0252C28.3652 58.5845 32.3218 59.8072 35.0947 59.9243C37.8676 60.0414 42.3148 58.9539 40.9695 52.763C41.0047 52.553 40.9824 52.3376 40.9051 52.1392Z" fill="#DBDBDB"/>
<path d="M28.9548 49.9166C32.7817 52.4681 40.522 52.526 40.9032 52.1381C40.9032 52.1381 40.684 46.2401 39.545 43.8665C39.3444 43.4518 35.2007 42.2763 33.8565 43.0727C31.5288 44.4426 28.8868 49.8728 28.9548 49.9166Z" fill="#DBDBDB"/>
<path d="M34.4971 65.5732C34.6093 65.7519 34.6768 67.4245 35.0204 67.6504C35.364 67.8762 43.4317 65.7691 43.3027 64.6799C43.1636 63.503 39.176 63.5213 39.2203 63.3055C39.2203 63.3055 39.7041 61.2347 39.0247 57.9707C38.4608 55.2731 37.665 54.0526 35.3792 52.2392C32.0798 49.6268 27.312 52.7748 28.4336 56.467C29.1712 58.8981 32.5492 60.4111 33.0831 61.2607C33.7632 62.3497 34.4665 65.5294 34.4971 65.5732Z" fill="#C7C7C7"/>
<path d="M39.9947 43.439C40.0151 43.2569 41.016 41.4153 40.8528 41.2703C40.6895 41.1254 36.9574 40.1184 36.6749 40.3883C36.3925 40.6582 35.606 42.3547 35.5922 42.7964C35.5785 43.2382 38.1158 45.7564 39.0651 45.665C40.0144 45.5736 39.8479 44.8722 39.9947 43.439Z" fill="#EB9481"/>
<path d="M33.4295 39.8402C34.0309 42.3287 36.0481 43.6398 37.2523 44.1452C39.12 44.9269 44.4409 46.1323 46.3167 42.9179C47.583 40.7457 48.0952 35.2016 47.1771 33.5124C45.902 31.1523 41.5101 29.3599 37.8079 30.4571C34.8238 31.3518 32.8281 37.3652 33.4295 39.8402Z" fill="#EB9481"/>
<path d="M44.9413 44.3043C45.3843 44.0829 45.7778 43.7754 46.0984 43.4002C46.2589 43.2105 46.3971 43.0034 46.5103 42.7829C46.6393 42.5661 46.753 42.3407 46.8507 42.1083C47.211 41.1961 47.4625 40.2453 47.6002 39.2754C47.7511 38.3106 47.814 37.3343 47.7883 36.3584C47.7443 35.3939 47.6766 34.3789 47.1938 33.5158C47.3645 33.9666 47.4642 34.4409 47.4893 34.9219C47.5323 35.3995 47.5446 35.8793 47.5263 36.3584C47.4966 37.3171 47.4088 38.2732 47.2633 39.2216C47.1301 40.1698 46.9112 41.1044 46.6092 42.014C46.5352 42.2452 46.4442 42.4706 46.3368 42.6885C46.2473 42.9053 46.1331 43.1113 45.9964 43.3024C45.7101 43.6981 45.3524 44.0378 44.9413 44.3043Z" fill="#263238"/>
<path d="M41.827 38.3333C41.9869 38.3332 42.1333 38.2792 42.2932 38.2522C42.4617 38.2459 42.6233 38.1841 42.7526 38.0766C42.7862 38.0344 42.8046 37.9821 42.8046 37.9282C42.8046 37.8744 42.7863 37.8221 42.7527 37.7799C42.6772 37.7037 42.5825 37.6488 42.4784 37.621C42.3744 37.5932 42.2647 37.5934 42.1607 37.6216C41.9412 37.6466 41.7388 37.7512 41.5924 37.9152C41.5606 37.9554 41.5415 38.004 41.5375 38.055C41.5335 38.1059 41.5447 38.1569 41.5697 38.2015C41.5947 38.2461 41.6325 38.2824 41.6783 38.3059C41.7241 38.3293 41.7758 38.3388 41.827 38.3333Z" fill="#263238"/>
<path d="M46.7818 38.5972C46.6333 38.5472 46.4879 38.4887 46.3463 38.422C46.1828 38.3836 46.0375 38.2908 45.9347 38.1591C45.9097 38.1125 45.9011 38.059 45.9104 38.007C45.9197 37.9551 45.9462 37.9077 45.9858 37.8724C46.0747 37.8125 46.1784 37.7777 46.2857 37.7717C46.393 37.7657 46.4998 37.7888 46.5949 37.8385C46.8032 37.9065 46.978 38.0497 47.0847 38.2396C47.1078 38.2839 47.1171 38.334 47.1115 38.3836C47.1059 38.4332 47.0857 38.4801 47.0533 38.5183C47.0209 38.5565 46.9778 38.5844 46.9295 38.5984C46.8812 38.6125 46.8298 38.612 46.7818 38.5972Z" fill="#263238"/>
<path d="M44.7968 38.8811C44.7727 39.8928 44.7456 39.5185 44.7657 40.5201C44.98 40.5706 45.9768 40.7355 45.8884 40.8097C45.514 41.0742 45.1204 41.3111 44.7109 41.5183C44.7857 41.7981 44.9727 42.1926 44.9488 42.2128C44.7743 42.3836 44.5659 42.5166 44.3368 42.6032C44.1077 42.6898 43.8629 42.7282 43.6181 42.7159C43.3732 42.7036 43.1337 42.6409 42.9147 42.5318C42.6957 42.4227 42.502 42.2696 42.3461 42.0822C42.2746 41.9878 42.3461 41.9069 42.4311 42.0047C42.7392 42.2874 43.1382 42.4531 43.5577 42.4727C43.9773 42.4923 44.3904 42.3645 44.7243 42.1118C44.634 41.9067 44.5646 41.6932 44.517 41.4745C44.517 41.4475 45.1976 41.0797 45.48 40.8671C45.1807 40.8065 44.7996 40.7561 44.5887 40.7123C44.5376 40.7124 44.4971 39.9132 44.705 38.8677C44.7089 38.8577 44.7161 38.8494 44.7254 38.844C44.7348 38.8386 44.7457 38.8366 44.7563 38.8381C44.767 38.8397 44.7768 38.8448 44.7842 38.8526C44.7915 38.8604 44.796 38.8705 44.7968 38.8811Z" fill="#263238"/>
<path d="M45.6176 40.3216C45.6301 40.4537 45.6744 40.5809 45.7467 40.6925C45.7854 40.7481 45.8359 40.7948 45.8947 40.8291C45.9534 40.8634 46.019 40.8847 46.0869 40.8913C46.1579 40.8924 46.2282 40.8764 46.2916 40.8447C46.355 40.8129 46.4097 40.7664 46.451 40.7091C46.5255 40.6003 46.5765 40.4774 46.6008 40.3482C46.6166 40.2704 46.6258 40.1915 46.6281 40.1122C46.6392 39.9471 46.6149 39.7816 46.5569 39.6266C46.5561 39.7465 46.5447 39.8661 46.5227 39.984C46.5031 40.0893 46.4758 40.193 46.4409 40.2943C46.3694 40.5034 46.2469 40.6721 46.1006 40.6519C45.9543 40.6317 45.8285 40.4969 45.7605 40.2811C45.714 40.0589 45.6856 39.8334 45.6756 39.6067C45.6089 39.8389 45.5892 40.0818 45.6176 40.3216Z" fill="#263238"/>
<path d="M42.6433 39.9808C42.6029 40.1107 42.5276 40.2273 42.4254 40.3181C42.3673 40.3661 42.2999 40.4017 42.2273 40.4226C42.1546 40.4435 42.0785 40.4493 42.0035 40.4396C41.9274 40.4278 41.8551 40.3985 41.7925 40.354C41.7299 40.3095 41.6786 40.2511 41.6429 40.1834C41.5827 40.064 41.5502 39.9326 41.5478 39.799C41.5483 39.7201 41.554 39.6412 41.5649 39.563C41.5866 39.3979 41.646 39.2399 41.7385 39.1009C41.7149 39.2186 41.7047 39.3385 41.7078 39.4584C41.7073 39.5714 41.7164 39.6842 41.7349 39.7956C41.7723 40.0114 41.8709 40.2036 42.041 40.217C42.2111 40.2305 42.3813 40.1191 42.4664 39.9201C42.5642 39.7112 42.6406 39.4932 42.6945 39.2692C42.7334 39.5071 42.7159 39.7507 42.6433 39.9808Z" fill="#263238"/>
<path d="M37.3661 29.8028C36.0902 29.8033 35.0562 28.7785 35.0566 27.5139C35.057 26.2493 36.0916 25.2238 37.3675 25.2233C38.6434 25.2229 39.6774 26.2477 39.677 27.5123C39.6766 28.7769 38.6419 29.8024 37.3661 29.8028Z" fill="#C7C7C7"/>
<path d="M47.6868 35.3152C47.418 35.521 43.2844 34.6693 40.8822 34.9264C38.48 35.1835 33.2668 37.6268 33.1512 37.5021C33.0356 37.3774 32.7176 31.6548 36.9644 29.7177C41.2112 27.7805 46.0416 30.7261 47.0004 32.5603C47.5105 33.5347 47.823 35.2106 47.6868 35.3152Z" fill="#DBDBDB"/>
<path d="M47.8943 35.4881C47.7173 35.6872 43.9649 34.6229 40.8958 35.0859C38.6433 35.4239 33.4913 37.8774 33.2158 37.7156C33.0899 37.6414 32.7332 36.0836 32.934 35.7598C33.1349 35.436 37.9125 33.212 40.4202 32.6952C43.0232 32.1547 47.1501 32.6928 47.3304 32.8411C47.7113 33.1917 48.1632 35.1778 47.8943 35.4881Z" fill="#C7C7C7"/>
<path d="M37.472 38.266C37.472 38.266 36.3975 36.27 35.2203 36.2131C33.9784 36.1494 33.6953 38.3853 34.5388 39.3225C35.5251 40.4249 37.0631 40.0399 37.0631 40.0399L37.472 38.266Z" fill="#EB9481"/>
<path d="M35.5732 37.5293C35.3979 37.3662 35.2024 37.2258 34.9915 37.1113C34.9677 37.1113 34.9915 37.0574 35.0154 37.0675C35.8999 37.4347 36.7161 38.3719 36.5627 39.387C36.5627 39.3951 36.5595 39.4028 36.5537 39.4085C36.548 39.4142 36.5402 39.4174 36.5321 39.4174C36.5239 39.4174 36.5161 39.4142 36.5104 39.4085C36.5047 39.4028 36.5014 39.3951 36.5014 39.3871C36.4777 39.296 36.4573 39.2083 36.4369 39.1207C36.3096 38.8759 36.1311 38.661 35.9131 38.4903C35.6686 38.3277 35.384 38.2346 35.0898 38.2208C35.0558 38.2208 35.0626 38.1702 35.0899 38.1668C35.3175 38.1575 35.5446 38.1959 35.7562 38.2795C35.9679 38.3631 36.1593 38.49 36.318 38.652C36.2451 38.4247 36.1398 38.209 36.0052 38.0114C35.8847 37.8384 35.7455 37.679 35.5902 37.536" fill="#263238"/>
<path d="M34.5919 36.1304C35.1126 35.8301 35.7487 36.1502 36.1637 36.467C36.376 36.642 36.5666 36.8411 36.7317 37.0604C36.918 37.2069 37.092 37.3681 37.2521 37.5424C37.1267 37.4113 36.9926 37.2886 36.8508 37.175C37.0548 37.4588 37.2388 37.7562 37.4017 38.065C37.4017 38.0954 37.4017 38.065 37.3745 38.0651C37.2044 37.8291 36.997 37.5256 36.7895 37.2728C36.586 37.0193 36.3505 36.7927 36.0888 36.5986C35.8206 36.3806 35.4922 36.2479 35.1465 36.2179C34.957 36.2235 34.7745 36.2906 34.627 36.4088C34.4795 36.527 34.3751 36.6898 34.3297 36.8724C34.205 37.2177 34.1515 37.5843 34.1725 37.9504C34.1934 38.3164 34.2883 38.6746 34.4515 39.0036C34.8222 39.6576 35.5774 39.9541 36.268 40.1394C35.6416 40.0373 35.0543 39.7709 34.5671 39.3677C34.3541 39.1384 34.1901 38.8688 34.085 38.575C33.9798 38.2812 33.9357 37.9694 33.9552 37.6582C33.9316 37.1423 34.0815 36.4239 34.5919 36.1304Z" fill="#263238"/>
<path d="M37.4906 44.1306C38.2679 44.4231 39.0633 44.6662 39.872 44.8582C39.8958 44.8582 39.872 44.902 39.872 44.8986C39.4717 44.8633 39.0754 44.7923 38.688 44.6866C38.3574 44.6933 38.0285 44.6386 37.7184 44.5251C37.9824 44.5931 38.2524 44.6359 38.5247 44.6529C38.1561 44.5416 37.8047 44.3806 37.4803 44.1745C37.4803 44.1745 37.4736 44.1239 37.4906 44.1306Z" fill="#263238"/>
<path d="M47.6618 48.7408C47.0288 49.1187 43.408 51.4704 40.7745 51.5388C37.9743 51.6139 35.6102 49.9893 34.7326 49.2343C32.3312 47.1578 34.4551 44.7931 36.3229 45.1365C38.5411 45.5471 40.0378 46.5785 41.3919 46.5982C43.0489 46.6246 45.7099 45.6086 46.1556 45.5579C47.0607 45.4497 48.4513 48.265 47.6618 48.7408Z" fill="#EB9481"/>
<path d="M45.9008 45.645C46.0268 45.2403 46.779 44.3902 46.8302 44.0698C46.8813 43.7495 46.8305 42.9267 47.3034 43.0007C47.7763 43.0747 47.7079 44.309 47.6908 44.5889C47.6737 44.8688 50.0048 43.1953 50.413 43.7381C50.8211 44.2809 49.1127 45.2662 49.1944 45.3774C49.276 45.4887 51.1612 44.645 51.4604 45.1473C51.7597 45.6497 49.65 46.3653 49.667 46.4058C49.684 46.4463 51.0282 45.4409 51.3683 45.8252C51.7085 46.2095 49.7041 47.2826 49.7415 47.377C49.7789 47.4714 51.1025 47.2483 51.15 47.7609C51.1974 48.2735 49.1662 48.3686 48.9858 48.4024C48.8055 48.4362 47.4954 48.9458 47.2233 48.8043C46.9511 48.6628 45.8088 45.9283 45.9008 45.645Z" fill="#EB9481"/>
<path d="M51.0324 45.7245C51.063 45.7077 51.08 45.7245 51.0528 45.7481C50.4861 46.1113 49.8613 46.3761 49.205 46.5312C49.4977 46.3894 50.6887 45.9034 51.0324 45.7245Z" fill="#263238"/>
<path d="M34.7334 49.2342C35.611 49.9927 37.9751 51.6139 40.7753 51.5387C42.8167 51.484 45.4779 50.0094 46.8561 49.2839L45.5201 45.6795C44.5299 45.8855 42.6618 46.618 41.3927 46.5982C40.0318 46.5784 38.5419 45.5471 36.3203 45.1364C34.4525 44.7931 32.332 47.1611 34.7334 49.2342Z" fill="#C7C7C7"/>
<path d="M54.4567 38.9251C54.7142 42.2973 57.2444 66.9305 56.9786 68.1344C56.9786 68.1344 68.9312 78.4897 72.7 71.3359C75.1478 66.6848 65.666 43.558 60.1974 36.168C57.6909 32.7764 53.918 31.8436 54.4567 38.9251Z" fill="#EB9481"/>
<path d="M54.2031 43.7656C54.4274 44.7772 54.7061 45.7415 54.9711 46.7261C54.9406 46.3889 54.9101 46.0517 54.8864 45.6976C54.7746 44.2105 54.7036 42.7234 54.585 41.2396C54.585 41.1891 54.6531 41.1924 54.6599 41.2396C54.8534 42.5615 55.0775 43.8765 55.2574 45.1984C55.4373 46.5202 55.5526 47.7848 55.6747 49.083C55.9222 51.6998 56.1799 54.3132 56.3526 56.9367C56.4834 58.3942 56.5363 59.8575 56.5111 61.3206C56.5111 61.3576 56.443 61.3745 56.4362 61.3206C56.1985 60.0358 56.0968 58.7241 55.968 57.4225C55.8391 56.1208 55.7238 54.8327 55.629 53.5344C55.5341 52.2361 55.3985 50.8907 55.2696 49.5688C55.2052 48.8944 55.1339 48.2436 55.0661 47.5792C54.6448 46.3368 54.3489 45.0559 54.1827 43.7555C54.1827 43.7555 54.1997 43.7487 54.2031 43.7656Z" fill="#263238"/>
<path d="M27.9529 45.2372C27.7166 45.5439 27.5863 45.9178 27.5812 46.3035C27.5762 46.6893 27.6968 47.0662 27.925 47.3786C27.925 47.3786 26.1796 47.3185 25.5429 48.6103C25.2025 49.2848 26.0017 50.3771 26.0017 50.3771C26.0017 50.3771 24.5999 50.3776 24.1062 51.5749C23.7146 52.5193 24.5581 53.4835 24.5581 53.4835C24.5581 53.4835 23.2207 54.1145 23.1319 55.2038C22.9509 57.4127 30.7206 61.5848 33.4738 59.3918C34.7568 58.3797 32.7939 57.4531 32.7939 57.4531C32.7939 57.4531 35.9239 58.0994 36.8328 56.5344C37.7418 54.9694 35.1325 53.9283 35.1325 53.9283C35.1325 53.9283 38.174 54.5274 38.9537 52.8107C39.7641 51.0231 36.9709 50.4239 36.9709 50.4239C36.9709 50.4239 39.3526 50.1937 39.6253 48.7368C40.1092 46.3424 35.4273 47.1635 33.9409 45.8455L34.5237 42.5472C34.5237 42.5472 28.8651 43.9689 27.9529 45.2372Z" fill="#EB9481"/>
<path d="M24.6821 53.6686C24.6582 53.6686 24.631 53.6686 24.6514 53.7057C26.8691 55.6979 29.924 57.2109 32.9146 57.5336C33.0132 57.5336 33.0745 57.3919 32.969 57.3583C29.9378 56.4286 27.332 55.374 24.6821 53.6686Z" fill="#263238"/>
<path d="M25.9553 50.3808C25.9281 50.3639 25.894 50.4111 25.9247 50.4347C28.2206 52.4573 31.7075 54.0848 35.1983 54.0532C35.3174 54.0532 35.4263 53.9318 35.2868 53.9251C32.9631 53.7674 28.3432 51.9379 25.9553 50.3808Z" fill="#263238"/>
<path d="M37.2379 50.3498C33.8866 50.2498 30.9065 49.0942 28.015 47.4732C27.9776 47.4496 27.9504 47.5069 27.9776 47.5339C29.1748 48.707 31.1241 49.5561 32.6992 50.0816C34.1508 50.6003 35.7144 50.7335 37.2345 50.4679C37.2957 50.4577 37.3094 50.3532 37.2379 50.3498Z" fill="#263238"/>
<path d="M47.7125 74.467C41.7313 73.9262 35.3829 72.5154 30.6583 68.43C30.1226 67.9886 29.7515 67.3821 29.6041 66.7071C27.4544 64.9105 27.6625 63.3659 27.6625 63.3659C26.1764 61.0868 26.6124 59.5321 26.6124 59.5321C26.6124 59.5321 24.1123 57.3984 25.1608 55.6849C26.3352 53.7589 29.6174 57.1334 32.5704 57.8945C39.3338 59.6355 49.4352 60.2491 51.4357 60.5485L47.7125 74.467Z" fill="#EB9481"/>
<path d="M38.359 64.6572C36.379 64.1048 34.4194 63.6131 32.5245 62.8011C30.4494 61.9048 28.5989 60.6982 26.6871 59.5186C26.6754 59.5101 26.6607 59.5066 26.6464 59.5088C26.632 59.511 26.6191 59.5188 26.6106 59.5304C26.602 59.5421 26.5984 59.5566 26.6006 59.5708C26.6029 59.5851 26.6107 59.5978 26.6225 59.6063C29.7416 62.2861 34.2525 64.1865 38.3352 64.7482C38.4338 64.7617 38.4577 64.6841 38.359 64.6572Z" fill="#263238"/>
<path d="M37.8876 68.8564C35.9927 68.213 32.6655 67.0609 27.7027 63.3127C27.7027 63.3127 27.6618 63.3127 27.6788 63.3397C30.4806 66.1086 34.0045 68.0502 37.8569 68.9475C37.9794 68.9778 38.0134 68.9002 37.8876 68.8564Z" fill="#263238"/>
<path d="M37.6047 71.1083C34.4239 69.892 32.5734 68.7259 29.6378 66.7002C29.6378 66.7002 29.597 66.7171 29.614 66.7306C32.7059 69.38 34.1313 69.9933 37.5775 71.223C37.6829 71.2634 37.717 71.1555 37.6047 71.1083Z" fill="#263238"/>
<path d="M40.8503 59.4841C41.8234 59.3657 41.7657 58.8599 40.2791 57.9668C38.7926 57.0737 32.1145 54.7998 33.1359 52.5738C34.1573 50.3477 43.4754 53.6627 45.8395 55.348C48.2036 57.0333 51.4347 60.5494 51.4347 60.5494C49.4852 60.2601 44.6846 60.0055 40.8503 59.4841Z" fill="#EB9481"/>
<path d="M47.503 56.6354C47.8432 56.9489 51.537 60.2894 51.5846 60.4918C51.4581 60.518 51.3293 60.5316 51.2001 60.5324C51.0096 60.4987 47.7989 57.0231 47.1935 56.4028C47.3094 56.462 47.4142 56.5407 47.503 56.6354Z" fill="#263238"/>
<path d="M39.3468 59.1967C39.7461 59.2634 40.1497 59.3016 40.5546 59.3109C40.7928 59.3108 41.4392 59.2533 41.259 58.8588C41.1708 58.706 41.0556 58.5701 40.9189 58.4576C40.7927 58.3354 40.6574 58.2227 40.5142 58.1205C40.2208 57.8996 39.8902 57.7319 39.5378 57.6252C39.5321 57.6222 39.5275 57.6173 39.5251 57.6113C39.5226 57.6054 39.5224 57.5987 39.5245 57.5926C39.5266 57.5865 39.5307 57.5814 39.5363 57.578C39.5419 57.5747 39.5485 57.5735 39.5549 57.5746C40.1931 57.7244 40.7843 58.0276 41.2762 58.4575C41.4046 58.5447 41.4966 58.6753 41.5347 58.8249C41.5729 58.9745 41.5547 59.1328 41.4835 59.2701C41.2792 59.5602 40.8846 59.5334 40.5716 59.4997C40.1535 59.4491 39.7419 59.3554 39.3434 59.2203L39.3468 59.1967Z" fill="#263238"/>
<path d="M39.1657 52.5405C38.2233 52.1784 37.2466 51.911 36.2501 51.7423C35.7463 51.6523 35.2345 51.6129 34.7225 51.6248C34.4582 51.6319 34.1956 51.6693 33.9399 51.7363C33.6642 51.8028 33.4115 51.9415 33.2083 52.1379C33.0069 52.3551 32.9004 52.6425 32.912 52.9372C32.9239 53.2147 33.0057 53.4848 33.1499 53.7229C33.4266 54.1626 33.7829 54.5477 34.2009 54.8589C35.0029 55.4764 35.8865 55.9821 36.8271 56.362C36.3916 56.1059 35.963 55.8497 35.5548 55.5632C35.1395 55.2898 34.744 54.9879 34.3711 54.6599C33.998 54.3512 33.6806 53.9818 33.4324 53.5676C33.319 53.3745 33.2549 53.157 33.2455 52.9337C33.2391 52.7249 33.3148 52.5218 33.4566 52.3671C33.8191 52.0804 34.2726 51.9308 34.736 51.9451C35.23 51.9227 35.725 51.9406 36.216 51.9986C36.7128 52.0523 37.2061 52.1331 37.696 52.2274C38.1859 52.3216 38.6724 52.426 39.1657 52.5405Z" fill="#263238"/>
<path d="M33.6591 58.1601C33.2033 58.0018 32.7474 57.8502 32.2983 57.6784C31.8477 57.5212 31.406 57.3401 30.975 57.1359C30.5574 56.9123 30.152 56.6671 29.7606 56.4012C29.3524 56.145 28.9374 55.899 28.5087 55.6699C28.0738 55.438 27.6183 55.2463 27.148 55.0971C26.907 55.0222 26.6581 54.9748 26.4063 54.9557C26.2775 54.9407 26.1473 54.9407 26.0184 54.9558C25.9525 54.9625 25.8875 54.9761 25.8245 54.9964L25.6339 55.0706C25.3966 55.1852 25.1979 55.3657 25.0621 55.5901C24.9341 55.8116 24.8617 56.0603 24.851 56.3152C24.8521 56.8028 24.9684 57.2832 25.1908 57.718C25.038 57.2716 24.9825 56.798 25.0279 56.3287C25.0535 56.1064 25.1304 55.8929 25.2526 55.7047C25.3767 55.5252 25.5521 55.3865 25.7563 55.3066C26.1887 55.1877 26.6488 55.2161 27.0628 55.3871C27.507 55.5405 27.9372 55.731 28.3487 55.9566C28.7706 56.1722 29.1822 56.4149 29.5904 56.6609C29.9995 56.9213 30.4256 57.1543 30.866 57.3585C31.7691 57.7134 32.7044 57.9818 33.6591 58.1601Z" fill="#263238"/>
<path d="M51.5944 60.4646C49.6788 60.6945 41.1317 72.3992 43.809 73.3222C56.3964 77.668 67.727 75.3742 70.1261 74.2875C73.2703 72.8634 73.7106 68.6041 72.4898 66.7161C70.7248 63.9784 53.4862 60.2346 51.5944 60.4646Z" fill="#EB9481"/>
<path d="M66.4247 63.6154C60.0258 60.7782 51.4553 60.3428 51.4349 60.3361C51.3091 60.3058 51.1184 60.5115 51.1899 60.5318C52.5167 60.8854 61.4747 62.1704 66.3294 63.7739C66.377 63.7874 66.4689 63.6322 66.4247 63.6154Z" fill="#263238"/>
</svg>
