<svg width="190" height="202" viewBox="0 0 190 202" fill="none" xmlns="http://www.w3.org/2000/svg">
<path d="M10.2168 77.9718V13.5865C10.2168 10.5136 11.4375 7.56649 13.6104 5.39361C15.7833 3.22072 18.7303 2 21.8033 2C24.8769 2 27.8248 3.22046 29.999 5.39312C32.1731 7.56578 33.3956 10.5128 33.3977 13.5865V18.76" stroke="#263238" stroke-width="4" stroke-linecap="round" stroke-linejoin="round"/>
<path d="M33.1172 20.4282V46.128" stroke="#263238" stroke-linecap="round" stroke-linejoin="round"/>
<path d="M21.1074 39.15V51.72" stroke="#263238" stroke-linecap="round" stroke-linejoin="round"/>
<path d="M49.0381 26.8634L21.1074 39.1455" stroke="#263238" stroke-width="4" stroke-linecap="round" stroke-linejoin="round"/>
<path d="M49.0371 41.1046V26.8634" stroke="#263238" stroke-linecap="round" stroke-linejoin="round"/>
<path d="M36.1879 20.428C36.1879 19.8207 36.0079 19.227 35.6705 18.7221C35.3331 18.2171 34.8535 17.8236 34.2925 17.5912C33.7314 17.3588 33.114 17.2979 32.5184 17.4164C31.9228 17.5349 31.3756 17.8273 30.9462 18.2568C30.5168 18.6862 30.2244 19.2333 30.1059 19.8289C29.9874 20.4246 30.0482 21.0419 30.2806 21.603C30.513 22.1641 30.9066 22.6436 31.4115 22.981C31.9165 23.3184 32.5101 23.4985 33.1174 23.4985C33.9318 23.4985 34.7128 23.175 35.2886 22.5992C35.8644 22.0233 36.1879 21.2423 36.1879 20.428Z" fill="#B99AC8" stroke="#263238" stroke-linecap="round" stroke-linejoin="round"/>
<path d="M30.2861 56.0658L26.352 60.7676L27.9912 66.6768L22.3059 64.3899L17.1964 67.7722L17.6122 61.6552L12.8145 57.849L18.7636 56.3537L20.9066 50.6124L24.161 55.8099L30.2861 56.0658Z" fill="#B99AC8" stroke="#263238" stroke-linecap="round" stroke-linejoin="round"/>
<path d="M29.0553 51.6203C30.7599 51.6203 32.1418 50.2384 32.1418 48.5338C32.1418 46.8292 30.7599 45.4473 29.0553 45.4473C27.3506 45.4473 25.9688 46.8292 25.9688 48.5338C25.9688 50.2384 27.3506 51.6203 29.0553 51.6203Z" fill="white" stroke="#263238" stroke-linecap="round" stroke-linejoin="round"/>
<path d="M33.3571 49.387C35.3223 49.387 36.9154 47.7939 36.9154 45.8287C36.9154 43.8635 35.3223 42.2704 33.3571 42.2704C31.3919 42.2704 29.7988 43.8635 29.7988 45.8287C29.7988 47.7939 31.3919 49.387 33.3571 49.387Z" fill="white" stroke="#263238" stroke-linecap="round" stroke-linejoin="round"/>
<path d="M37.3472 51.8324C38.9326 51.8324 40.2178 50.5472 40.2178 48.9618C40.2178 47.3764 38.9326 46.0912 37.3472 46.0912C35.7618 46.0912 34.4766 47.3764 34.4766 48.9618C34.4766 50.5472 35.7618 51.8324 37.3472 51.8324Z" fill="white" stroke="#263238" stroke-linecap="round" stroke-linejoin="round"/>
<path d="M35.7489 48.8812C35.7473 49.406 35.5903 49.9184 35.2976 50.3539C35.005 50.7895 34.5898 51.1285 34.1046 51.3282C33.6193 51.5279 33.0858 51.5793 32.5714 51.476C32.0569 51.3726 31.5847 51.1192 31.2142 50.7476C30.8437 50.376 30.5917 49.903 30.4899 49.3882C30.3881 48.8735 30.4411 48.3401 30.6423 47.8555C30.8435 47.3709 31.1837 46.9567 31.6201 46.6654C32.0565 46.374 32.5695 46.2185 33.0942 46.2185C33.4435 46.2185 33.7893 46.2874 34.1119 46.4214C34.4346 46.5553 34.7276 46.7515 34.9742 46.9989C35.2208 47.2462 35.4162 47.5399 35.5491 47.8629C35.6821 48.1859 35.75 48.5319 35.7489 48.8812Z" fill="white" stroke="#263238" stroke-linecap="round" stroke-linejoin="round"/>
<path d="M46.1747 39.1323C45.5898 39.1347 45.0073 39.2072 44.4396 39.3482C45.7221 40.0113 46.7724 41.0492 47.4506 42.3238C48.1288 43.5984 48.4027 45.0494 48.2361 46.4835C48.0694 47.9177 47.4699 49.2671 46.5175 50.3522C45.565 51.4373 44.3047 52.2067 42.9043 52.5579C43.8603 53.0513 44.9158 53.3212 45.9912 53.3474C47.0667 53.3736 48.1341 53.1554 49.1129 52.7092C50.0918 52.2629 50.9566 51.6004 51.6422 50.7714C52.3279 49.9424 52.8164 48.9686 53.071 47.9234C53.3256 46.8781 53.3397 45.7888 53.1121 44.7373C52.8846 43.6859 52.4214 42.6998 51.7574 41.8534C51.0934 41.007 50.246 40.3223 49.2789 39.851C48.3119 39.3796 47.2505 39.1339 46.1747 39.1323Z" fill="white" stroke="#263238" stroke-linecap="round" stroke-linejoin="round"/>
<path d="M15.3665 136.046H175.442C177.847 136.046 180.153 137.001 181.854 138.702C183.554 140.402 184.51 142.709 184.51 145.113V159.075H6.29883V145.073C6.3094 142.676 7.26941 140.379 8.96878 138.687C10.6682 136.996 12.9685 136.046 15.3665 136.046Z" fill="#B99AC8" stroke="#263238" stroke-linecap="round" stroke-linejoin="round"/>
<path d="M36.2126 136.048H10.9446C9.7503 136.013 8.59097 136.453 7.72029 137.271C6.84962 138.09 6.33851 139.219 6.29883 140.414V159.077H36.2126V136.048Z" fill="white" stroke="#263238" stroke-linecap="round" stroke-linejoin="round"/>
<path d="M14.4952 79.109H11.2168V158.687H14.4952V79.109Z" fill="white" stroke="#263238" stroke-linecap="round" stroke-linejoin="round"/>
<path d="M23.6007 79.109H20.3223V158.687H23.6007V79.109Z" fill="white" stroke="#263238" stroke-linecap="round" stroke-linejoin="round"/>
<path d="M32.7023 79.109H29.4238V158.687H32.7023V79.109Z" fill="white" stroke="#263238" stroke-linecap="round" stroke-linejoin="round"/>
<path d="M41.8097 79.109H38.5312V158.687H41.8097V79.109Z" fill="white" stroke="#263238" stroke-linecap="round" stroke-linejoin="round"/>
<path d="M50.9093 79.109H47.6309V158.687H50.9093V79.109Z" fill="white" stroke="#263238" stroke-linecap="round" stroke-linejoin="round"/>
<path d="M60.0148 79.109H56.7363V158.687H60.0148V79.109Z" fill="white" stroke="#263238" stroke-linecap="round" stroke-linejoin="round"/>
<path d="M69.1241 79.109H65.8457V158.687H69.1241V79.109Z" fill="white" stroke="#263238" stroke-linecap="round" stroke-linejoin="round"/>
<path d="M78.2257 79.109H74.9473V158.687H78.2257V79.109Z" fill="white" stroke="#263238" stroke-linecap="round" stroke-linejoin="round"/>
<path d="M87.3312 79.109H84.0527V158.687H87.3312V79.109Z" fill="white" stroke="#263238" stroke-linecap="round" stroke-linejoin="round"/>
<path d="M96.4308 79.109H93.1523V158.687H96.4308V79.109Z" fill="white" stroke="#263238" stroke-linecap="round" stroke-linejoin="round"/>
<path d="M105.54 79.109H102.262V158.687H105.54V79.109Z" fill="white" stroke="#263238" stroke-linecap="round" stroke-linejoin="round"/>
<path d="M114.638 79.109H111.359V158.687H114.638V79.109Z" fill="white" stroke="#263238" stroke-linecap="round" stroke-linejoin="round"/>
<path d="M123.745 79.109H120.467V158.687H123.745V79.109Z" fill="white" stroke="#263238" stroke-linecap="round" stroke-linejoin="round"/>
<path d="M132.845 79.109H129.566V158.687H132.845V79.109Z" fill="white" stroke="#263238" stroke-linecap="round" stroke-linejoin="round"/>
<path d="M141.954 79.109H138.676V158.687H141.954V79.109Z" fill="white" stroke="#263238" stroke-linecap="round" stroke-linejoin="round"/>
<path d="M151.052 79.109H147.773V158.687H151.052V79.109Z" fill="white" stroke="#263238" stroke-linecap="round" stroke-linejoin="round"/>
<path d="M160.161 79.109H156.883V158.687H160.161V79.109Z" fill="white" stroke="#263238" stroke-linecap="round" stroke-linejoin="round"/>
<path d="M169.269 79.109H165.99V158.687H169.269V79.109Z" fill="white" stroke="#263238" stroke-linecap="round" stroke-linejoin="round"/>
<path d="M178.368 79.109H175.09V158.687H178.368V79.109Z" fill="white" stroke="#263238" stroke-linecap="round" stroke-linejoin="round"/>
<path d="M184.51 77.9486H6.29883V81.0271H184.51V77.9486Z" fill="white" stroke="#263238" stroke-linecap="round" stroke-linejoin="round"/>
<path d="M184.51 156.774H6.29883V167.92H184.51V156.774Z" fill="white" stroke="#263238" stroke-linecap="round" stroke-linejoin="round"/>
<path d="M6.3063 48.3518H1.38867V199.055H6.3063V48.3518Z" fill="white" stroke="#263238" stroke-linecap="round" stroke-linejoin="round"/>
<path d="M6.3063 61.8695H1.38867V199.043H6.3063V61.8695Z" fill="white" stroke="#263238" stroke-linecap="round" stroke-linejoin="round"/>
<path d="M188.611 48.3518H183.693V199.055H188.611V48.3518Z" fill="white" stroke="#263238" stroke-linecap="round" stroke-linejoin="round"/>
<path d="M188.611 61.8695H183.693V199.043H188.611V61.8695Z" fill="white" stroke="#263238" stroke-linecap="round" stroke-linejoin="round"/>
<path d="M124.54 23.1758C122.328 16.6135 115.632 12.5668 108.093 11.164C100.553 9.76115 90.8152 9.92976 85.351 21.1525C80.9143 30.2642 80.125 40.5697 75.8243 50.9966C71.5237 61.4235 49.2858 82.1289 63.3172 102.18C75.9332 120.215 114.87 123.857 125.288 101.33C133.542 83.4643 118.606 57.9231 119.246 49.7961C119.885 41.6691 126.969 30.3654 124.54 23.1758Z" fill="#263238"/>
<path d="M123.494 34.7041C121.507 39.9648 120.091 45.5357 120.302 51.3291C120.349 52.798 120.603 54.2532 121.057 55.6523C121.472 57.0417 121.969 58.3905 122.459 59.699C123.473 62.3967 124.501 65.0271 125.338 67.7113C127.158 73.0163 128.191 78.555 128.407 84.1543C128.53 89.7551 127.579 95.3281 125.603 100.577C126.884 98.0486 127.874 95.3859 128.556 92.6388C129.215 89.8649 129.58 87.0303 129.645 84.1813C129.815 78.4552 128.631 72.7157 126.889 67.273C125.991 64.5415 124.95 61.8774 123.915 59.1796C122.881 56.4819 121.779 53.9325 121.575 51.201C121.355 48.4284 121.462 45.6398 121.894 42.8918C122.258 40.1327 122.792 37.3984 123.494 34.7041Z" fill="#263238"/>
<path d="M82.6439 29.2163C80.6025 34.5781 78.7856 40.0074 76.5196 45.2411C75.3887 47.8439 74.0979 50.3755 72.6545 52.8218C71.2187 55.2228 69.4019 57.4755 67.7007 59.809C65.9995 62.1426 64.3596 64.5302 62.8489 67.0188C61.3534 69.5169 60.085 72.1418 59.0586 74.8626C58.0765 77.613 57.4945 80.488 57.3302 83.4011C57.3199 86.3277 57.9103 89.2259 59.0654 91.9193C58.222 89.1807 57.9035 86.3098 58.1264 83.455C58.4393 80.653 59.147 77.9082 60.229 75.301C62.4406 70.0943 65.632 65.3395 69.0752 60.7263C70.7356 58.3927 72.5525 56.1401 74.0291 53.5704C75.4577 51.0441 76.6885 48.4128 77.7105 45.6997C79.6937 40.3104 81.3412 34.8056 82.6439 29.2163Z" fill="#263238"/>
<path d="M121.267 130.12C123.621 146.772 116.864 167.478 116.864 167.478C116.653 168.031 125.111 199.716 125.03 201.996H81.0845C78.7096 194.246 70.68 181.236 70.68 181.236C70.68 181.236 55.274 170.357 52.9876 158.137C50.5447 144.917 55.7776 130.12 55.7776 130.12C55.7776 130.12 121.26 130.107 121.267 130.12Z" fill="#263238"/>
<path d="M101.492 202H55.798C55.798 202 60.7111 172.453 60.7042 172.446C44.7267 157.608 55.798 130.125 55.798 130.125H121.736C124.288 148.179 115.17 168.305 115.17 168.305C108.358 183.615 102.737 201.683 101.492 202Z" fill="#37474F"/>
<path d="M122.03 132.26C122.336 132.139 121.493 116.04 121.493 116.04C121.493 116.04 128.835 105.545 125.854 97.2835C124.337 93.102 110.156 68.2825 103.685 62.7183C97.6215 57.4914 87.5844 61.4639 83.9507 65.0047C72.3826 76.2342 62.2095 104.858 55.5 130.567C55.4932 130.574 97.1928 142.174 122.03 132.26Z" fill="#EB9481"/>
<path d="M121.479 116.04C96.1789 121.624 68.9054 115.602 60.4062 113.403C66.7483 93.1156 74.9276 73.7659 83.9439 65.0116C87.5845 61.4775 97.6147 57.4983 103.678 62.732C110.149 68.3029 124.337 93.0819 125.848 97.2904C128.835 105.552 121.479 116.04 121.479 116.04Z" fill="#B99AC8"/>
<path d="M114.83 110.098C111.582 110.21 108.363 110.743 105.255 111.683C102.132 112.56 95.2251 115.271 93.4899 115.939C93.4423 115.939 93.4899 116.02 93.4899 116.006C95.744 115.477 97.9641 114.815 100.138 114.023C103.207 112.991 106.262 112.054 109.433 111.251C111.205 110.815 113.003 110.493 114.816 110.287C114.841 110.289 114.866 110.28 114.885 110.264C114.905 110.247 114.916 110.224 114.918 110.199C114.92 110.174 114.912 110.149 114.895 110.13C114.878 110.111 114.855 110.1 114.83 110.098Z" fill="#263238"/>
<path d="M120.539 111.698C117.153 111.422 113.745 111.721 110.461 112.581C110.461 112.581 110.461 112.662 110.461 112.655C112.128 112.46 113.788 112.264 115.462 112.122C117.136 111.981 118.865 111.9 120.512 111.792C120.524 111.796 120.538 111.794 120.549 111.788C120.561 111.781 120.569 111.771 120.573 111.758C120.576 111.746 120.575 111.732 120.568 111.721C120.562 111.709 120.551 111.701 120.539 111.698Z" fill="#263238"/>
<path d="M88.801 63.9264C88.9235 65.336 93.9522 77.3613 101.465 77.0646C104.622 76.9432 104.146 64.8504 104.146 64.8504L108.732 52.9667L94.6259 40.9211C94.6259 40.9211 88.7602 63.3261 88.801 63.9264Z" fill="#EB9481"/>
<path d="M108.733 52.9667L104.283 64.4997C98.4761 61.1925 94.2192 55.7496 92.4355 49.3517C93.6196 44.7857 94.6267 40.9211 94.6267 40.9211L108.733 52.9667Z" fill="#263238"/>
<path d="M128.091 39.1808C126.336 59.9536 113.584 61.2553 109.038 60.8709C104.955 60.5269 91.019 58.8475 90.6039 38.0005C90.1889 17.1535 100.484 11.4072 109.902 11.6972C119.32 11.9872 129.847 18.4147 128.091 39.1808Z" fill="#EB9481"/>
<path d="M124.492 35.6995C124.03 35.5552 123.575 35.3864 123.131 35.1936C122.627 35.0802 122.175 34.8052 121.845 34.4113C121.765 34.2676 121.736 34.102 121.76 33.94C121.785 33.778 121.862 33.6284 121.981 33.5143C122.253 33.3271 122.57 33.2148 122.9 33.1887C123.23 33.1627 123.561 33.2238 123.859 33.3659C124.516 33.5541 125.077 33.9802 125.431 34.5597C125.507 34.6984 125.539 34.8562 125.524 35.0131C125.509 35.17 125.447 35.319 125.346 35.4411C125.246 35.5632 125.111 35.6529 124.959 35.6989C124.807 35.7449 124.644 35.7451 124.492 35.6995Z" fill="#263238"/>
<path d="M109.966 35.3018C110.462 35.3018 110.925 35.2546 111.415 35.2276C111.93 35.2675 112.443 35.1396 112.878 34.8634C112.998 34.7518 113.077 34.6037 113.103 34.4425C113.129 34.2813 113.1 34.1162 113.021 33.9732C112.817 33.7181 112.548 33.5213 112.242 33.4028C111.936 33.2843 111.603 33.2484 111.279 33.2987C110.603 33.2897 109.948 33.5301 109.442 33.9732C109.338 34.0819 109.268 34.2175 109.239 34.3642C109.21 34.5109 109.224 34.6627 109.279 34.8019C109.334 34.9411 109.428 35.062 109.549 35.1505C109.671 35.239 109.815 35.2914 109.966 35.3018Z" fill="#263238"/>
<path d="M112.563 39.6126C112.563 39.5587 112.441 39.6666 112.434 39.7205C112.298 41.1368 111.896 42.7285 110.549 43.032C110.508 43.032 110.501 43.113 110.549 43.113C112.148 43.0927 112.658 40.975 112.563 39.6126Z" fill="#263238"/>
<path d="M111.487 37.9791C109.228 37.507 108.446 42.0258 110.542 42.4574C112.637 42.889 113.379 38.3703 111.487 37.9791Z" fill="#263238"/>
<path d="M110.556 38.07C110.114 38.2588 109.644 38.6433 109.154 38.6095C108.664 38.5758 108.256 38.0228 107.97 37.5102C107.97 37.4562 107.895 37.5102 107.882 37.5102C107.719 38.3735 107.882 39.3177 108.814 39.6077C109.746 39.8977 110.393 39.2098 110.76 38.3735C110.828 38.2521 110.733 37.989 110.556 38.07Z" fill="#263238"/>
<path d="M120.953 40.4123C120.953 40.3584 121.048 40.5 121.035 40.554C120.742 41.9433 120.64 43.5822 121.831 44.2769C121.831 44.2769 121.831 44.3646 121.831 44.3511C120.286 43.8587 120.45 41.6803 120.953 40.4123Z" fill="#263238"/>
<path d="M122.473 39.1803C124.773 39.4097 124.14 43.9487 122.01 43.7328C119.88 43.517 120.547 38.9848 122.473 39.1803Z" fill="#263238"/>
<path d="M123.391 39.6045C123.718 39.8945 124.01 40.3869 124.439 40.4746C124.868 40.5623 125.378 40.1306 125.8 39.7057C125.8 39.6652 125.868 39.7057 125.861 39.7664C125.766 40.6364 125.344 41.4997 124.5 41.5537C123.657 41.6076 123.248 40.7781 123.139 39.8811C123.099 39.7192 123.255 39.4899 123.391 39.6045Z" fill="#263238"/>
<path d="M110.85 50.4033C111.108 50.8012 111.346 51.3206 111.843 51.4689C112.366 51.5801 112.906 51.5801 113.429 51.4689C113.439 51.4672 113.449 51.4687 113.458 51.4733C113.467 51.4778 113.475 51.4852 113.479 51.4943C113.484 51.5034 113.486 51.5137 113.484 51.5237C113.482 51.5337 113.477 51.5429 113.469 51.5499C113.21 51.7801 112.893 51.9363 112.552 52.0016C112.21 52.067 111.857 52.039 111.53 51.9208C111.261 51.7856 111.039 51.5744 110.891 51.3139C110.743 51.0534 110.677 50.7553 110.7 50.4573C110.693 50.3494 110.809 50.3426 110.85 50.4033Z" fill="#263238"/>
<path d="M117.571 46.2682C117.571 46.2682 117.524 48.4062 117.367 49.3909C117.367 49.4853 117.102 49.4921 116.762 49.4584C116.762 49.4584 116.762 49.4584 116.721 49.4584C115.841 49.481 114.972 49.2617 114.211 48.8248C113.449 48.3879 112.825 47.7504 112.407 46.9832C112.352 46.8752 112.495 46.7943 112.577 46.8685C113.708 47.9287 115.154 48.5982 116.7 48.7772C116.816 48.5141 116.653 45.1149 116.816 45.1284C117.579 45.3146 118.312 45.6051 118.994 45.9917C119.218 41.5337 118.715 37.0823 118.994 32.6512C118.994 32.4961 119.245 32.4826 119.266 32.6512C120.123 37.2779 119.946 42.4104 119.871 47.0169C119.871 47.5632 117.946 46.4976 117.571 46.2682Z" fill="#263238"/>
<path d="M116.816 49.0746C116.146 49.8285 115.29 50.3977 114.332 50.727C113.806 50.8989 113.238 50.8989 112.713 50.727C111.563 50.3426 111.61 49.2837 111.889 48.3934C112.041 47.9212 112.249 47.4684 112.508 47.0446C113.688 48.1602 115.198 48.8717 116.816 49.0746Z" fill="#263238"/>
<path d="M114.332 50.7465C113.806 50.9184 113.238 50.9184 112.713 50.7465C111.563 50.3621 111.61 49.3032 111.889 48.413C113.128 48.5883 114.305 49.5191 114.332 50.7465Z" fill="#FF9CBD"/>
<path d="M90.1341 36.8963C93.4481 38.0698 96.17 31.1905 96.17 31.1905C96.17 31.1905 103.097 33.0654 108.078 23.7716C107.074 26.6811 105.234 29.2363 102.784 31.123C102.784 31.123 115.359 33.1126 123.273 24.3786C123.273 24.3786 119.81 28.9918 117.387 30.3137C117.387 30.3137 122.899 30.2665 126.526 26.8133C126.526 26.8133 127.07 33.2408 128.275 35.2978C128.275 35.2978 133.555 13.9585 113.121 10.9032C113.121 10.9032 100.491 8.3943 93.3868 16.9732C86.2826 25.5521 90.1341 36.8963 90.1341 36.8963Z" fill="#263238"/>
<path d="M94.1633 38.4808C94.1633 38.4808 90.761 31.298 87.5423 32.4108C84.3237 33.5237 86.1201 43.3773 89.3455 45.2253C89.7423 45.4916 90.1892 45.6757 90.6596 45.7664C91.13 45.8571 91.614 45.8525 92.0825 45.753C92.5511 45.6534 92.9944 45.461 93.3859 45.1871C93.7774 44.9133 94.109 44.5638 94.3607 44.1596L94.1633 38.4808Z" fill="#EB9481"/>
<path d="M88.1276 35.2355C88.1188 35.239 88.1112 35.245 88.1058 35.2528C88.1005 35.2606 88.0977 35.2699 88.0977 35.2793C88.0977 35.2888 88.1005 35.298 88.1058 35.3058C88.1112 35.3136 88.1188 35.3197 88.1276 35.3232C90.3732 36.672 91.2578 39.1472 91.7546 41.6022C91.1898 40.5906 90.2915 39.9363 88.951 40.5838C88.8761 40.6175 88.951 40.7254 88.9918 40.7187C89.4396 40.6568 89.8957 40.7346 90.2969 40.9412C90.6981 41.1479 91.0244 41.4732 91.2306 41.872C91.5781 42.5369 91.8497 43.2382 92.0403 43.9628C92.1152 44.1988 92.5235 44.1516 92.4895 43.8886C92.4895 43.8886 92.4895 43.8481 92.4895 43.8346C93.0339 40.7592 91.4075 36.0785 88.1276 35.2355Z" fill="#263238"/>
<path d="M132.589 127.15C132.521 127.569 133.719 130.698 133.27 131.386C132.82 132.074 116.305 134.468 115.679 132.364C114.999 130.091 122.361 127.022 122.11 126.651C122.11 126.651 119.585 123.218 118.251 116.683C117.149 111.287 117.673 108.408 120.429 103.322C124.437 95.9507 135.692 98.0279 136.549 105.696C137.121 110.741 132.099 116.157 131.786 118.133C131.385 120.655 132.603 127.049 132.589 127.15Z" fill="#A6A6A6"/>
<path d="M116.804 103.678C116.933 103.347 122.628 103.867 128.657 102.666C135.973 101.209 140.226 98.5386 140.518 98.9366C141.573 100.481 143.852 106.322 142.866 111.441C141.879 116.56 133.965 119.008 128.419 119.244C122.873 119.48 113.98 117.308 116.674 104.926C116.604 104.506 116.649 104.075 116.804 103.678Z" fill="#DBDBDB"/>
<path d="M140.703 99.2245C133.048 104.33 117.567 104.451 116.805 103.676C116.805 103.676 117.247 91.8798 119.527 87.1317C119.928 86.3021 128.216 83.9483 130.904 85.54C135.559 88.2783 140.839 99.1368 140.703 99.2245Z" fill="#DBDBDB"/>
<path d="M129.61 130.541C129.385 130.899 129.249 134.244 128.562 134.696C127.875 135.148 111.741 130.939 111.999 128.761C112.278 126.407 120.253 126.441 120.165 126.009C120.165 126.009 119.199 121.868 120.56 115.34C121.689 109.944 123.281 107.502 127.854 103.874C134.455 98.6471 143.988 104.94 141.743 112.325C140.266 117.188 133.509 120.216 132.441 121.915C131.08 124.094 129.671 130.454 129.61 130.541Z" fill="#C7C7C7"/>
<path d="M118.626 86.277C118.585 85.9128 116.584 82.2303 116.911 81.9403C117.238 81.6503 124.703 79.6337 125.267 80.1733C125.832 80.7129 127.404 84.1053 127.431 84.9888C127.458 85.8723 122.382 90.9104 120.484 90.7283C118.585 90.5462 118.918 89.1434 118.626 86.277Z" fill="#EB9481"/>
<path d="M131.76 79.0749C130.555 84.0523 126.52 86.6759 124.111 87.6875C120.375 89.2522 109.733 91.6667 105.983 85.2393C103.452 80.8959 102.431 69.808 104.269 66.4291C106.82 61.708 115.605 58.1199 123.009 60.3119C128.977 62.0992 132.964 74.1245 131.76 79.0749Z" fill="#EB9481"/>
<path d="M108.734 88.0111C107.848 87.5686 107.061 86.9539 106.42 86.2036C106.099 85.8245 105.823 85.4104 105.596 84.9694C105.339 84.5358 105.111 84.0851 104.916 83.6205C104.196 81.7963 103.694 79.8949 103.419 77.9552C103.118 76.0256 102.993 74.0731 103.045 72.1212C103.133 70.1923 103.269 68.1622 104.236 66.4357C103.894 67.3375 103.694 68.2861 103.644 69.2481C103.557 70.2033 103.532 71.1629 103.569 72.1212C103.627 74.0386 103.802 75.9507 104.093 77.8472C104.359 79.7437 104.796 81.6127 105.399 83.4316C105.547 83.8939 105.729 84.3448 105.944 84.7805C106.122 85.2141 106.351 85.6259 106.624 86.008C107.196 86.7992 107.912 87.4783 108.734 88.0111Z" fill="#263238"/>
<path d="M114.967 76.0669C114.647 76.0669 114.354 75.959 114.034 75.9051C113.697 75.8926 113.374 75.7692 113.116 75.5544C113.048 75.4699 113.012 75.3653 113.012 75.2576C113.012 75.1499 113.048 75.0454 113.116 74.9609C113.267 74.8084 113.456 74.6986 113.664 74.6429C113.872 74.5871 114.092 74.5875 114.3 74.6439C114.739 74.6937 115.143 74.9027 115.436 75.2306C115.5 75.3111 115.538 75.4083 115.546 75.5102C115.554 75.612 115.531 75.7139 115.481 75.8032C115.431 75.8925 115.356 75.9651 115.264 76.012C115.172 76.0589 115.069 76.078 114.967 76.0669Z" fill="#263238"/>
<path d="M105.059 76.5981C105.356 76.4981 105.647 76.381 105.93 76.2474C106.257 76.1705 106.548 75.9849 106.753 75.7213C106.803 75.6282 106.821 75.5212 106.802 75.4173C106.784 75.3134 106.731 75.2186 106.651 75.1481C106.474 75.0283 106.266 74.9588 106.052 74.9469C105.837 74.935 105.623 74.9812 105.433 75.0806C105.017 75.2169 104.667 75.5033 104.453 75.8832C104.407 75.9719 104.388 76.0721 104.4 76.1713C104.411 76.2704 104.451 76.3641 104.516 76.4406C104.581 76.517 104.667 76.5727 104.763 76.6008C104.86 76.6288 104.963 76.6279 105.059 76.5981Z" fill="#263238"/>
<path d="M109.026 77.1647C109.073 79.188 109.128 78.4394 109.087 80.4425C108.658 80.5437 106.664 80.8741 106.841 81.0225C107.59 81.5514 108.377 82.0248 109.196 82.4389C109.046 82.9986 108.672 83.7877 108.719 83.8282C109.068 84.1697 109.485 84.4354 109.943 84.6084C110.401 84.7815 110.891 84.8581 111.381 84.8333C111.87 84.8086 112.349 84.6831 112.787 84.4647C113.225 84.2464 113.613 83.94 113.925 83.5652C114.068 83.3763 113.925 83.2145 113.755 83.4101C113.138 83.9757 112.34 84.3075 111.501 84.347C110.662 84.3865 109.836 84.1311 109.168 83.6259C109.349 83.2157 109.488 82.7887 109.583 82.3512C109.583 82.2972 108.223 81.5621 107.658 81.1372C108.257 81.0158 109.019 80.9146 109.441 80.8269C109.543 80.8269 109.624 79.2285 109.209 77.1377C109.201 77.1178 109.187 77.1011 109.168 77.0904C109.15 77.0797 109.128 77.0755 109.106 77.0787C109.085 77.0818 109.066 77.092 109.051 77.1076C109.036 77.1233 109.027 77.1434 109.026 77.1647Z" fill="#263238"/>
<path d="M107.385 80.0461C107.36 80.3104 107.272 80.5648 107.127 80.788C107.049 80.8994 106.948 80.9927 106.831 81.0614C106.713 81.1301 106.582 81.1726 106.446 81.186C106.304 81.1882 106.164 81.1562 106.037 81.0928C105.91 81.0293 105.801 80.9363 105.718 80.8218C105.569 80.6042 105.468 80.3585 105.419 80.1001C105.387 79.9445 105.369 79.7866 105.365 79.628C105.343 79.2979 105.391 78.9669 105.507 78.6568C105.509 78.8966 105.532 79.1358 105.575 79.3717C105.615 79.5822 105.669 79.7896 105.739 79.9922C105.882 80.4103 106.127 80.7476 106.419 80.7071C106.712 80.6666 106.964 80.3969 107.1 79.9652C107.193 79.5208 107.25 79.0698 107.27 78.6163C107.403 79.0807 107.442 79.5666 107.385 80.0461Z" fill="#263238"/>
<path d="M113.332 79.3625C113.413 79.6223 113.563 79.8554 113.768 80.0369C113.884 80.1329 114.019 80.204 114.164 80.2458C114.309 80.2876 114.461 80.2991 114.611 80.2797C114.764 80.256 114.908 80.1974 115.033 80.1083C115.159 80.0193 115.261 79.9025 115.333 79.7671C115.453 79.5281 115.518 79.2654 115.523 78.9983C115.522 78.8403 115.511 78.6826 115.489 78.5262C115.446 78.196 115.327 77.8801 115.142 77.6022C115.189 77.8375 115.21 78.0773 115.203 78.3171C115.204 78.543 115.186 78.7686 115.149 78.9915C115.074 79.4232 114.877 79.8076 114.536 79.8346C114.196 79.8616 113.856 79.639 113.686 79.2411C113.49 78.8234 113.338 78.3873 113.23 77.9394C113.152 78.4152 113.187 78.9024 113.332 79.3625Z" fill="#263238"/>
<path d="M123.894 59.0029C126.446 59.0029 128.514 56.9526 128.514 54.4235C128.514 51.8943 126.446 49.844 123.894 49.844C121.342 49.844 119.273 51.8943 119.273 54.4235C119.273 56.9526 121.342 59.0029 123.894 59.0029Z" fill="#C7C7C7"/>
<path d="M103.247 70.0347C103.785 70.4461 112.053 68.7398 116.857 69.2524C121.661 69.7649 132.086 74.6479 132.317 74.3984C132.549 74.1488 133.188 62.7035 124.696 58.8322C116.204 54.9609 106.541 60.8555 104.622 64.5245C103.601 66.4736 102.975 69.8256 103.247 70.0347Z" fill="#DBDBDB"/>
<path d="M102.832 70.3809C103.186 70.7788 110.692 68.6475 116.83 69.5715C121.335 70.246 131.637 75.1492 132.188 74.8254C132.44 74.6771 133.154 71.5611 132.753 70.9137C132.352 70.2662 122.798 65.8216 117.783 64.7897C112.577 63.7106 104.323 64.7897 103.962 65.0865C103.2 65.7879 102.295 69.7604 102.832 70.3809Z" fill="#C7C7C7"/>
<path d="M123.676 75.9293C123.676 75.9293 125.826 71.9366 128.181 71.8219C130.664 71.6938 131.229 76.1653 129.541 78.0403C127.568 80.2457 124.492 79.4768 124.492 79.4768L123.676 75.9293Z" fill="#EB9481"/>
<path d="M127.472 74.4546C127.823 74.1283 128.214 73.8474 128.636 73.6183C128.684 73.6183 128.636 73.5104 128.588 73.5306C126.819 74.2657 125.186 76.1407 125.492 78.1708C125.492 78.1869 125.499 78.2023 125.51 78.2137C125.522 78.2251 125.537 78.2315 125.554 78.2315C125.57 78.2315 125.585 78.2251 125.597 78.2137C125.608 78.2023 125.615 78.1869 125.615 78.1708C125.662 77.9887 125.703 77.8133 125.744 77.638C125.999 77.1483 126.356 76.7183 126.792 76.3768C127.281 76.0516 127.85 75.865 128.439 75.8372C128.507 75.8372 128.493 75.736 128.439 75.7293C127.983 75.7108 127.529 75.7877 127.106 75.9551C126.683 76.1224 126.3 76.3764 125.982 76.7005C126.128 76.2459 126.339 75.8143 126.608 75.419C126.849 75.0731 127.128 74.7542 127.438 74.4681" fill="#263238"/>
<path d="M129.439 71.656C128.398 71.0557 127.125 71.6965 126.295 72.3304C125.871 72.6804 125.489 73.0788 125.159 73.5175C124.786 73.8107 124.438 74.1332 124.118 74.4819C124.369 74.2196 124.637 73.9741 124.921 73.7468C124.513 74.3145 124.144 74.9095 123.818 75.5273C123.818 75.588 123.818 75.5273 123.873 75.5273C124.213 75.0552 124.628 74.4482 125.043 73.9424C125.45 73.4353 125.922 72.982 126.445 72.5935C126.982 72.1573 127.639 71.8917 128.33 71.8313C128.709 71.8426 129.074 71.9766 129.369 72.2129C129.664 72.4492 129.872 72.7748 129.963 73.1398C130.212 73.8303 130.319 74.5634 130.277 75.2956C130.235 76.0279 130.045 76.7442 129.718 77.4023C128.976 78.7107 127.466 79.3042 126.084 79.6751C127.337 79.4706 128.512 78.9373 129.487 78.1307C129.913 77.6719 130.241 77.1325 130.451 76.5449C130.662 75.9573 130.75 75.3336 130.712 74.7112C130.759 73.6793 130.46 72.2428 129.439 71.656Z" fill="#263238"/>
<path d="M123.634 87.6585C122.079 88.2441 120.488 88.7306 118.871 89.1153C118.823 89.1153 118.871 89.2029 118.871 89.1962C119.671 89.1252 120.464 88.983 121.239 88.7713C121.9 88.7846 122.558 88.6747 123.178 88.4476C122.65 88.5837 122.11 88.6695 121.565 88.7039C122.303 88.4809 123.006 88.1586 123.655 87.7461C123.655 87.7461 123.668 87.645 123.634 87.6585Z" fill="#263238"/>
<path d="M103.289 96.8859C104.555 97.6412 111.795 102.342 117.062 102.477C122.662 102.625 127.392 99.3746 129.147 97.8638C133.952 93.7092 129.705 88.9814 125.97 89.6693C121.533 90.4922 118.539 92.5559 115.83 92.5964C112.517 92.6504 107.195 90.6203 106.304 90.5191C104.494 90.3033 101.711 95.9349 103.289 96.8859Z" fill="#EB9481"/>
<path d="M106.814 90.6932C106.562 89.8838 105.058 88.1842 104.956 87.5435C104.854 86.9028 104.956 85.2572 104.01 85.4055C103.065 85.5539 103.201 88.0224 103.235 88.5822C103.269 89.1419 98.6074 85.7967 97.7908 86.8826C96.9742 87.9684 100.39 89.9378 100.227 90.1604C100.064 90.3829 96.2938 88.6968 95.6949 89.7017C95.0961 90.7066 99.3151 92.1365 99.2811 92.2174C99.247 92.2983 96.5592 90.2885 95.8787 91.0574C95.1982 91.8262 99.2062 93.971 99.1313 94.1598C99.0565 94.3486 96.4095 93.9035 96.3142 94.9287C96.2189 95.9538 100.281 96.1427 100.642 96.2101C101.003 96.2776 103.622 97.296 104.167 97.0127C104.711 96.7294 106.998 91.2597 106.814 90.6932Z" fill="#EB9481"/>
<path d="M96.5525 90.8558C96.4912 90.8221 96.4572 90.8558 96.5117 90.903C97.6447 91.6288 98.8942 92.158 100.207 92.4677C99.6214 92.1845 97.2398 91.2133 96.5525 90.8558Z" fill="#263238"/>
<path d="M129.146 97.8637C127.39 99.3812 122.661 102.625 117.06 102.477C112.978 102.369 107.656 99.4217 104.9 97.9716L107.575 90.7618C109.555 91.1733 113.291 92.6368 115.829 92.5963C118.551 92.5559 121.531 90.4921 125.975 89.6693C129.711 88.9813 133.95 93.7159 129.146 97.8637Z" fill="#C7C7C7"/>
<path d="M89.7063 77.2595C89.1891 84.0039 84.1128 133.272 84.6436 135.68C84.6436 135.68 60.7316 156.399 53.1987 142.094C48.3061 132.793 67.2846 86.5331 78.2267 71.7493C83.2418 64.9644 90.7883 63.0962 89.7063 77.2595Z" fill="#EB9481"/>
<path d="M90.2093 86.9401C89.7602 88.9635 89.2022 90.8924 88.6714 92.8617C88.7326 92.1873 88.7939 91.5129 88.8415 90.8047C89.0661 87.8304 89.209 84.8561 89.4471 81.8886C89.4471 81.7874 89.3111 81.7941 89.2975 81.8886C88.9096 84.5324 88.4605 87.1627 88.0998 89.8065C87.7392 92.4503 87.5078 94.9795 87.2628 97.5761C86.7661 102.81 86.2489 108.037 85.9018 113.284C85.6394 116.199 85.5326 119.126 85.582 122.052C85.582 122.126 85.7181 122.16 85.7317 122.052C86.2081 119.482 86.4122 116.858 86.6708 114.255C86.9294 111.652 87.1607 109.075 87.3513 106.479C87.5418 103.882 87.814 101.191 88.0726 98.5473C88.2019 97.1984 88.3448 95.8967 88.4809 94.5681C89.3242 92.0829 89.9169 89.521 90.2501 86.9199C90.2501 86.9199 90.2161 86.9064 90.2093 86.9401Z" fill="#263238"/>
<path d="M142.71 89.8649C143.182 90.4781 143.443 91.2259 143.452 91.9974C143.462 92.7688 143.221 93.5229 142.764 94.1477C142.764 94.1477 146.255 94.0263 147.527 96.6094C148.208 97.9583 146.609 100.143 146.609 100.143C146.609 100.143 149.412 100.143 150.399 102.538C151.182 104.426 149.494 106.355 149.494 106.355C149.494 106.355 152.168 107.616 152.345 109.795C152.706 114.212 137.164 122.562 131.659 118.178C129.093 116.155 133.02 114.3 133.02 114.3C133.02 114.3 126.759 115.595 124.942 112.466C123.126 109.336 128.345 107.252 128.345 107.252C128.345 107.252 122.261 108.453 120.703 105.02C119.084 101.445 124.67 100.245 124.67 100.245C124.67 100.245 119.907 99.786 119.363 96.8724C118.396 92.0839 127.76 93.7227 130.733 91.0857L129.57 84.4896C129.57 84.4896 140.886 87.329 142.71 89.8649Z" fill="#EB9481"/>
<path d="M149.247 106.725C149.295 106.725 149.349 106.725 149.309 106.8C144.872 110.785 138.761 113.814 132.78 114.461C132.582 114.461 132.46 114.178 132.671 114.111C138.734 112.249 143.946 110.138 149.247 106.725Z" fill="#263238"/>
<path d="M146.703 100.151C146.757 100.117 146.825 100.211 146.764 100.259C142.171 104.305 135.196 107.563 128.214 107.502C127.976 107.502 127.758 107.259 128.037 107.246C132.685 106.929 141.926 103.267 146.703 100.151Z" fill="#263238"/>
<path d="M124.139 100.097C130.842 99.8944 136.803 97.581 142.587 94.337C142.662 94.2897 142.717 94.4044 142.662 94.4583C140.267 96.8054 136.368 98.505 133.217 99.5571C130.314 100.596 127.186 100.863 124.146 100.333C124.024 100.313 123.997 100.103 124.139 100.097Z" fill="#263238"/>
<path d="M103.172 148.338C115.135 147.252 127.832 144.427 137.284 136.252C138.356 135.369 139.099 134.156 139.394 132.806C143.694 129.211 143.279 126.122 143.279 126.122C146.253 121.563 145.382 118.454 145.382 118.454C145.382 118.454 150.383 114.185 148.288 110.758C145.94 106.907 139.373 113.658 133.467 115.183C119.939 118.67 99.7356 119.904 95.7344 120.504L103.172 148.338Z" fill="#EB9481"/>
<path d="M121.886 128.712C125.846 127.606 129.766 126.621 133.556 124.996C137.707 123.202 141.409 120.787 145.233 118.427C145.257 118.41 145.286 118.403 145.315 118.407C145.343 118.412 145.369 118.427 145.386 118.45C145.404 118.474 145.411 118.503 145.406 118.531C145.402 118.56 145.386 118.585 145.363 118.602C139.123 123.964 130.099 127.768 121.934 128.894C121.736 128.921 121.689 128.766 121.886 128.712Z" fill="#263238"/>
<path d="M122.825 137.11C126.615 135.822 133.27 133.516 143.198 126.016C143.198 126.016 143.28 126.016 143.246 126.07C137.641 131.61 130.591 135.495 122.886 137.292C122.641 137.353 122.573 137.198 122.825 137.11Z" fill="#263238"/>
<path d="M123.389 141.614C129.752 139.179 133.454 136.845 139.326 132.792C139.326 132.792 139.408 132.826 139.374 132.853C133.188 138.154 130.337 139.381 123.444 141.843C123.233 141.924 123.165 141.708 123.389 141.614Z" fill="#263238"/>
<path d="M116.904 118.368C114.958 118.132 115.074 117.12 118.047 115.333C121.021 113.545 134.379 108.993 132.337 104.542C130.296 100.09 111.658 106.727 106.928 110.099C102.199 113.471 95.7344 120.506 95.7344 120.506C99.6335 119.926 109.235 119.413 116.904 118.368Z" fill="#EB9481"/>
<path d="M103.601 112.675C102.921 113.302 95.5308 119.986 95.4355 120.391C95.6885 120.443 95.9461 120.47 96.2045 120.472C96.5856 120.404 103.009 113.451 104.221 112.21C103.989 112.328 103.779 112.486 103.601 112.675Z" fill="#263238"/>
<path d="M119.913 117.792C119.114 117.926 118.307 118.002 117.497 118.021C117.021 118.021 115.728 117.907 116.089 117.118C116.265 116.812 116.496 116.54 116.769 116.315C117.022 116.07 117.292 115.845 117.579 115.64C118.166 115.198 118.827 114.863 119.532 114.649C119.543 114.643 119.552 114.633 119.557 114.621C119.562 114.609 119.563 114.596 119.558 114.584C119.554 114.572 119.546 114.561 119.535 114.555C119.524 114.548 119.511 114.546 119.498 114.548C118.221 114.848 117.039 115.455 116.054 116.315C115.798 116.489 115.614 116.751 115.537 117.05C115.461 117.349 115.497 117.666 115.639 117.94C116.048 118.52 116.837 118.466 117.463 118.399C118.299 118.297 119.123 118.11 119.92 117.839L119.913 117.792Z" fill="#263238"/>
<path d="M120.281 104.479C122.166 103.754 124.12 103.219 126.113 102.881C127.121 102.7 128.144 102.621 129.168 102.645C129.697 102.659 130.222 102.733 130.733 102.867C131.285 103 131.79 103.277 132.196 103.67C132.599 104.104 132.812 104.679 132.788 105.268C132.765 105.823 132.601 106.364 132.312 106.84C131.758 107.719 131.046 108.49 130.209 109.113C128.605 110.348 126.837 111.36 124.956 112.121C125.827 111.608 126.685 111.096 127.501 110.522C128.332 109.975 129.123 109.371 129.869 108.715C130.616 108.097 131.251 107.358 131.747 106.53C131.974 106.143 132.103 105.708 132.122 105.262C132.134 104.844 131.983 104.438 131.7 104.129C130.975 103.555 130.068 103.257 129.141 103.285C128.153 103.241 127.163 103.277 126.181 103.393C125.187 103.501 124.201 103.663 123.221 103.852C122.241 104.041 121.268 104.25 120.281 104.479Z" fill="#263238"/>
<path d="M131.291 115.715C132.203 115.398 133.115 115.094 134.013 114.75C134.914 114.436 135.798 114.073 136.66 113.664C137.495 113.217 138.306 112.726 139.089 112.194C139.906 111.682 140.736 111.189 141.593 110.731C142.463 110.267 143.375 109.883 144.315 109.584C144.797 109.434 145.295 109.339 145.799 109.301C146.056 109.271 146.317 109.271 146.575 109.301C146.706 109.314 146.836 109.341 146.962 109.382L147.343 109.53C147.818 109.759 148.215 110.12 148.487 110.569C148.743 111.012 148.887 111.509 148.909 112.019C148.906 112.994 148.673 113.955 148.228 114.825C148.534 113.932 148.645 112.985 148.555 112.046C148.504 111.601 148.35 111.174 148.106 110.798C147.858 110.439 147.507 110.162 147.099 110.002C146.234 109.765 145.314 109.822 144.485 110.164C143.597 110.471 142.737 110.852 141.913 111.304C141.069 111.736 140.246 112.221 139.43 112.714C138.611 113.235 137.759 113.701 136.878 114.11C135.071 114.82 133.201 115.358 131.291 115.715Z" fill="#263238"/>
<path d="M95.4148 120.336C99.2459 120.795 116.333 144.198 110.977 146.046C85.7997 154.746 63.1398 150.167 58.3425 147.995C52.0549 145.149 51.177 136.631 53.62 132.854C57.1516 127.377 91.6314 119.878 95.4148 120.336Z" fill="#EB9481"/>
<path d="M65.7539 126.648C78.5537 120.969 95.6948 120.093 95.7357 120.079C95.9875 120.018 96.3685 120.43 96.2256 120.47C93.5718 121.178 75.6548 123.755 65.9445 126.965C65.8492 126.992 65.6654 126.682 65.7539 126.648Z" fill="#263238"/>
</svg>
