<svg width="130" height="127" viewBox="0 0 130 127" fill="none" xmlns="http://www.w3.org/2000/svg">
<g clip-path="url(#clip0_641_4363)">
<path opacity="0.32" d="M103.382 78.6161C78.4558 99.8637 60.6609 133.002 55.9813 93.267C51.3017 53.5322 9.58616 80.7272 15.6801 56.5015C17.1287 50.7335 19.6981 45.3077 23.2415 40.5343C26.7849 35.7609 31.2329 31.7334 36.3311 28.682C41.4293 25.6307 47.0779 23.6152 52.9541 22.7509C58.8302 21.8865 64.8188 22.1902 70.5774 23.6446C94.8096 29.755 128.308 57.3684 103.382 78.6161Z" fill="url(#paint0_linear_641_4363)"/>
<path d="M36.8343 17.2819L41.4473 15.9335C42.9958 15.4755 44.577 15.1316 46.1777 14.9045C47.8024 14.6468 49.4539 14.5901 51.0935 14.7357C51.9494 14.8192 52.7888 15.0225 53.5865 15.3396C54.4368 15.6851 55.1655 16.2685 55.6821 17.0174C55.8076 17.2303 55.8914 17.4187 56.0169 17.6316L56.1343 17.9511C56.1596 18.0494 56.2265 18.1722 56.2518 18.2705L56.5795 19.4092L57.2018 21.6948C57.6305 23.2267 58.0592 24.7586 58.4462 26.266L60.9102 35.4494L63.3076 44.6492L65.6383 53.8655C66.4292 56.9457 67.145 60.0097 67.9358 63.09C68.3312 64.6301 68.6933 66.1785 69.047 67.694L69.6026 69.9961L69.8638 71.1512L70.1498 72.2654C69.6168 72.397 71.3157 71.9774 68.9924 72.5861L68.9839 72.5533L70.1498 72.2654C70.1867 72.5287 70.1957 72.7951 70.1768 73.0602C70.1527 73.2963 70.1058 73.5295 70.0368 73.7568L69.946 74.0929L69.8134 74.4044L69.6809 74.7159L69.5066 75.0029C69.3967 75.1992 69.2659 75.3834 69.1163 75.5523L68.6759 76.0444C68.3646 76.351 68.0371 76.6413 67.6948 76.914C66.325 77.9213 64.8143 78.7286 63.2094 79.3112C62.4267 79.5741 61.6276 79.9109 60.8282 80.1084C60.0287 80.3058 59.2128 80.577 58.4049 80.7417L57.1974 81.0051L56.5894 81.1205L55.973 81.203L53.5241 81.5988C55.1563 81.1956 56.7636 80.8335 58.3373 80.3403C58.7286 80.2088 59.1283 80.11 59.5196 79.9785L60.6852 79.5513C61.4678 79.2883 62.2336 78.9598 62.9661 78.6395C63.349 78.4752 63.6901 78.2864 64.073 78.1221L64.6057 77.8512L64.8886 77.7116L65.1299 77.5475L66.1699 76.9073L67.118 76.1852C67.4063 75.9255 67.6783 75.6489 67.9326 75.3568L68.2815 74.9222C68.3935 74.7756 68.4961 74.6222 68.5887 74.463L68.7381 74.217L68.8541 73.9793L68.9702 73.7415L69.0445 73.4792C69.0941 73.3141 69.1217 73.1433 69.1266 72.9711C69.1431 72.8973 69.1179 72.799 69.1344 72.7253C69.1276 72.708 69.1248 72.6895 69.1262 72.6711C69.1276 72.6527 69.1332 72.6348 69.1424 72.6187L69.1172 72.5204L70.283 72.2325C67.9597 72.8411 69.6501 72.3888 69.1172 72.5204L68.8311 71.4063L68.5034 70.2676L67.8811 67.982C67.4524 66.4501 67.0237 64.9182 66.6367 63.4108C65.8126 60.3388 64.9968 57.2995 64.206 54.2192L61.8086 45.0194L59.4779 35.8031L57.2137 26.5704C56.8183 25.0303 56.4562 23.4819 56.1025 21.9663L55.5469 19.6643L55.2858 18.5091L55.1596 18.0176C55.0842 17.862 55.0088 17.7064 54.9418 17.5835C54.5727 17.0001 54.0347 16.5383 53.3971 16.2576C52.7082 15.9436 51.9739 15.737 51.2207 15.6452C49.6614 15.454 48.0864 15.4226 46.5209 15.5515C44.9289 15.7058 43.3467 15.9454 41.7814 16.2691C39.9658 16.6478 38.3834 16.969 36.8343 17.2819Z" fill="white"/>
<path d="M37.0567 70.2988L38.2093 74.7881C38.3467 75.2964 38.5846 75.7733 38.9094 76.1915C39.2341 76.6097 39.6393 76.961 40.1019 77.2253C40.5645 77.4896 41.0754 77.6619 41.6054 77.7321C42.1354 77.8024 42.6741 77.7693 43.1908 77.6348L62.4442 72.8794C62.9642 72.7578 63.4547 72.5367 63.8876 72.2286C64.3204 71.9206 64.6872 71.5316 64.967 71.0839C65.2468 70.6362 65.4341 70.1385 65.5182 69.6194C65.6022 69.1002 65.5815 68.5697 65.4571 68.0581L54.3123 24.6492C54.1749 24.1409 53.937 23.664 53.6122 23.2458C53.2875 22.8277 52.8823 22.4764 52.4197 22.212C51.9571 21.9477 51.4462 21.7755 50.9162 21.7052C50.3862 21.635 49.8474 21.668 49.3307 21.8026L30.0774 26.558C29.5574 26.6795 29.0669 26.9006 28.634 27.2087C28.2012 27.5168 27.8344 27.9058 27.5546 28.3535C27.2748 28.8012 27.0875 29.2988 27.0034 29.818C26.9193 30.3371 26.9401 30.8676 27.0645 31.3792L35.5785 64.5413" fill="#FEFFFF"/>
<path d="M37.0567 70.2988L38.2093 74.7881C38.3467 75.2964 38.5846 75.7733 38.9094 76.1915C39.2341 76.6097 39.6393 76.961 40.1019 77.2253C40.5645 77.4896 41.0754 77.6619 41.6054 77.7321C42.1354 77.8024 42.6741 77.7693 43.1908 77.6348L62.4442 72.8794C62.9642 72.7578 63.4547 72.5367 63.8876 72.2286C64.3204 71.9206 64.6872 71.5316 64.967 71.0839C65.2468 70.6362 65.4341 70.1385 65.5182 69.6194C65.6022 69.1002 65.5815 68.5697 65.4571 68.0581L54.3123 24.6492C54.1749 24.1409 53.937 23.664 53.6122 23.2458C53.2875 22.8277 52.8823 22.4764 52.4197 22.212C51.9571 21.9477 51.4462 21.7755 50.9162 21.7052C50.3862 21.635 49.8474 21.668 49.3307 21.8026L30.0774 26.558C29.5574 26.6795 29.0669 26.9006 28.634 27.2087C28.2012 27.5168 27.8344 27.9058 27.5546 28.3535C27.2748 28.8012 27.0875 29.2988 27.0034 29.818C26.9193 30.3371 26.9401 30.8676 27.0645 31.3792L35.5785 64.5413" stroke="#F4ACC4" stroke-width="1.55" stroke-miterlimit="10" stroke-linecap="round"/>
<path d="M35.6217 36.0154C35.5429 35.7815 35.5137 35.5342 35.536 35.2889C35.5583 35.0436 35.6317 34.8055 35.7516 34.5894C35.9089 34.3327 36.1339 34.1225 36.4027 33.9812C36.6716 33.8399 36.9744 33.7727 37.2791 33.7867C37.5839 33.8007 37.8792 33.8953 38.134 34.0606C38.3888 34.2259 38.5935 34.4557 38.7266 34.7258C38.7874 34.8482 38.8325 34.9775 38.8609 35.1108" stroke="#010202" stroke-width="2.06667" stroke-linecap="round" stroke-linejoin="round"/>
<path d="M66.7896 57.6581L56.8285 18.8598C55.2721 12.7976 44.6963 15.4794 43.1387 15.7595L32.7792 18.3182C31.2722 18.795 20.6627 21.3458 22.2191 27.408L25.13 38.746" stroke="#F4ACC4" stroke-width="1.55" stroke-miterlimit="10" stroke-linecap="round"/>
<path d="M61.5651 78.7064C59.6001 79.3311 57.1853 79.9972 54.3038 80.6392C37.2247 85.1712 36.267 81.9928 35.5855 79.3385L26.8359 45.2589" stroke="#F4ACC4" stroke-width="1.55" stroke-miterlimit="10" stroke-linecap="round"/>
<path d="M64.6804 77.5888C71.1651 74.9766 70.6596 72.7319 70.1548 70.7658L66.7055 57.3305" stroke="#F4ACC4" stroke-width="1.55" stroke-miterlimit="10" stroke-linecap="round"/>
<path d="M34.9541 21.9624C37.3551 20.5876 40.1034 19.9088 42.8819 20.0043" stroke="#F4ACC4" stroke-width="1.55" stroke-miterlimit="10" stroke-linecap="round"/>
<path d="M49.0664 32.6947C49.0229 32.452 48.9292 32.2207 48.7911 32.015C48.653 31.8094 48.4734 31.6338 48.2635 31.4991C48.001 31.346 47.7013 31.2655 47.3963 31.2659C47.0913 31.2664 46.7921 31.3478 46.5305 31.5017C46.2689 31.6555 46.0544 31.8761 45.9098 32.14C45.7653 32.4039 45.6959 32.7015 45.7091 33.0012C45.7147 33.1372 45.7374 33.2721 45.7767 33.4026" stroke="#010202" stroke-width="2.06667" stroke-linecap="round" stroke-linejoin="round"/>
<path d="M36.3145 67.2756L36.4575 67.8327" stroke="#224796" stroke-width="1.55" stroke-miterlimit="10" stroke-linecap="round"/>
<path d="M25.8105 41.2611L25.9536 41.8182" stroke="#224796" stroke-width="1.55" stroke-miterlimit="10" stroke-linecap="round"/>
<path d="M41.1467 37.1454C41.1467 37.1454 42.6762 38.6877 45.0144 37.0334C45.3147 36.8233 45.4832 36.5692 45.3991 36.2693C45.3151 35.9695 45.6267 35.6381 44.7579 35.7308C44.5186 35.7537 44.2858 35.8207 44.0718 35.9281C43.7915 36.1155 43.4758 36.2457 43.1434 36.311C42.811 36.3764 42.4685 36.3756 42.1362 36.3086C42.1362 36.3086 40.5625 36.1258 41.1467 37.1454Z" fill="#010202" stroke="#010202" stroke-width="0.516667" stroke-miterlimit="10"/>
<path d="M47.9551 41.1475C47.9551 41.1475 50.5707 45.2371 52.8535 47.8095C53.4518 48.498 54.5409 48.1593 54.84 47.8067C55.7126 46.8594 55.9559 46.869 57.9045 42.9379" stroke="#010202" stroke-width="2.58333" stroke-miterlimit="10" stroke-linecap="round"/>
<path d="M39.7559 43.1731C39.7559 43.1731 39.4269 47.99 38.6584 51.316C38.464 52.2004 37.3412 52.408 36.9042 52.2372C35.6782 51.8082 35.4686 51.9297 31.8576 49.3717" stroke="#010202" stroke-width="2.58333" stroke-miterlimit="10" stroke-linecap="round"/>
<path d="M96.1229 27.4223L91.8143 25.2883C90.3689 24.5668 88.8715 23.9518 87.3346 23.4484C85.7794 22.9107 84.163 22.5663 82.5232 22.4231C81.6659 22.3557 80.804 22.4093 79.9635 22.5822C79.0663 22.7738 78.2475 23.221 77.6089 23.8681C77.4484 24.0558 77.3332 24.2267 77.1726 24.4144L77.0016 24.7085C76.9597 24.8009 76.8724 24.9102 76.8305 25.0025L76.3102 26.0666L75.301 28.2085C74.6131 29.6421 73.9251 31.0757 73.2825 32.4924L69.2631 41.1049L65.3064 49.7452L61.4124 58.4134C60.0993 61.3084 58.8629 64.2005 57.5498 67.0955C56.8932 68.543 56.2681 70.0045 55.6568 71.4351L54.7104 73.6049L54.2528 74.6968L53.7779 75.7439C54.2799 75.9667 52.6798 75.2566 54.862 76.262L54.876 76.2312L53.7779 75.7439C53.6959 75.9968 53.6408 76.2575 53.6134 76.5219C53.5962 76.7586 53.6019 76.9965 53.6304 77.2323L53.6615 77.5791L53.738 77.9091L53.8145 78.239L53.9364 78.552C54.0105 78.7645 54.1074 78.9687 54.2254 79.1612L54.5737 79.7228C54.827 80.0791 55.0992 80.4222 55.389 80.7505C56.5631 81.9818 57.9106 83.0408 59.39 83.8949C60.1151 84.2907 60.8435 84.7619 61.5965 85.0961C62.3495 85.4302 63.1059 85.8399 63.8729 86.1432L65.0163 86.6137L65.595 86.8335L66.1877 87.0225L68.5305 87.8401C66.9931 87.1579 65.4732 86.5204 64.0091 85.7597C63.6466 85.5619 63.2701 85.3948 62.9076 85.1969L61.834 84.5725C61.109 84.1768 60.4118 83.7194 59.7461 83.276C59.3976 83.0473 59.0944 82.8018 58.7458 82.5731L58.2683 82.2132L58.0139 82.0264L57.8048 81.8226L56.8917 81.0104L56.0833 80.1337C55.8445 79.8276 55.6246 79.5076 55.4249 79.1756L55.1568 78.6866C55.0719 78.5227 54.9975 78.3537 54.9339 78.1808L54.8295 77.9124L54.7564 77.658L54.6834 77.4036L54.6557 77.1324C54.6355 76.9611 54.638 76.7881 54.663 76.6176C54.6596 76.5421 54.7015 76.4497 54.698 76.3742C54.7077 76.3584 54.7136 76.3407 54.7154 76.3223C54.7172 76.3039 54.7149 76.2853 54.7086 76.2679L54.7505 76.1755L53.6524 75.6882C55.8346 76.6936 54.2485 75.9527 54.7505 76.1755L55.2254 75.1284L55.7457 74.0644L56.7549 71.9224C57.4429 70.4888 58.1308 69.0552 58.7734 67.6385C60.1179 64.7574 61.4484 61.9071 62.7615 59.0121L66.7182 50.3718L70.6122 41.7036L74.4434 33.0075C75.0999 31.56 75.7251 30.0986 76.3363 28.668L77.2828 26.4982L77.7404 25.4063L77.9499 24.9443C78.0511 24.8043 78.1523 24.6642 78.2396 24.5549C78.7043 24.0449 79.3142 23.6842 79.9908 23.5192C80.7236 23.3305 81.4825 23.2553 82.2401 23.2965C83.8088 23.3807 85.3652 23.6251 86.8844 24.0255C88.4253 24.4557 89.9418 24.9681 91.427 25.5604C93.1492 26.2506 94.6517 26.8434 96.1229 27.4223Z" fill="white"/>
<path d="M86.7078 79.5905L84.794 83.8099C84.5705 84.2864 84.2535 84.7145 83.8612 85.0695C83.4689 85.4245 83.0089 85.6997 82.5075 85.8791C82.0061 86.0586 81.4732 86.1389 80.9391 86.1155C80.405 86.092 79.8802 85.9653 79.3947 85.7425L61.2604 77.6952C60.7694 77.4846 60.3248 77.1812 59.952 76.8022C59.5792 76.4232 59.2855 75.976 59.0876 75.4862C58.8898 74.9965 58.7917 74.4737 58.799 73.9478C58.8062 73.4219 58.9187 72.9031 59.1299 72.4211L77.6349 31.6228C77.8585 31.1463 78.1754 30.7183 78.5678 30.3632C78.9601 30.0082 79.4201 29.7331 79.9215 29.5536C80.4229 29.3741 80.9558 29.2938 81.4899 29.3173C82.024 29.3407 82.5488 29.4674 83.0342 29.6902L101.169 37.7375C101.66 37.9481 102.104 38.2515 102.477 38.6306C102.85 39.0096 103.144 39.4567 103.341 39.9465C103.539 40.4362 103.637 40.959 103.63 41.4849C103.623 42.0108 103.51 42.5296 103.299 43.0116L89.1622 74.1793" fill="#FEFFFF"/>
<path d="M86.7078 79.5905L84.794 83.8099C84.5705 84.2864 84.2535 84.7145 83.8612 85.0695C83.4689 85.4245 83.0089 85.6997 82.5075 85.8791C82.0061 86.0586 81.4732 86.1389 80.9391 86.1155C80.405 86.092 79.8802 85.9653 79.3947 85.7425L61.2604 77.6952C60.7694 77.4846 60.3248 77.1812 59.952 76.8022C59.5792 76.4232 59.2855 75.976 59.0876 75.4862C58.8898 74.9965 58.7917 74.4737 58.799 73.9478C58.8062 73.4219 58.9187 72.9031 59.1299 72.4211L77.6349 31.6228C77.8585 31.1463 78.1754 30.7183 78.5678 30.3632C78.9601 30.0082 79.4201 29.7331 79.9215 29.5536C80.4229 29.3741 80.9558 29.2938 81.4899 29.3173C82.024 29.3407 82.5488 29.4674 83.0342 29.6902L101.169 37.7375C101.66 37.9481 102.104 38.2515 102.477 38.6306C102.85 39.0096 103.144 39.4567 103.341 39.9465C103.539 40.4362 103.637 40.959 103.63 41.4849C103.623 42.0108 103.51 42.5296 103.299 43.0116L89.1622 74.1793" stroke="#79A8F0" stroke-width="1.55" stroke-miterlimit="10" stroke-linecap="round"/>
<path d="M94.0671 46.0814C94.1853 45.8648 94.2569 45.6265 94.2775 45.381C94.298 45.1356 94.2671 44.8883 94.1866 44.6545C94.0762 44.3742 93.8911 44.1279 93.6509 43.9418C93.4106 43.7557 93.1241 43.6366 92.8216 43.5971C92.5191 43.5576 92.2119 43.5992 91.9323 43.7174C91.6527 43.8357 91.4112 44.0262 91.2333 44.2689C91.1522 44.3788 91.0854 44.4983 91.0343 44.6245" stroke="#010202" stroke-width="2.06667" stroke-linecap="round" stroke-linejoin="round"/>
<path d="M59.6218 61.947L76.1613 25.4821C78.7456 19.7844 88.6947 24.2735 90.1798 24.8215L99.9372 29.1515C101.339 29.8843 111.343 34.2502 108.759 39.9478L103.926 50.6039" stroke="#79A8F0" stroke-width="1.55" stroke-miterlimit="10" stroke-linecap="round"/>
<path d="M61.1142 83.5864C62.9408 84.545 65.2031 85.6229 67.9293 86.7587C83.9613 94.2061 85.4557 91.2435 86.5873 88.7489L101.115 56.7189" stroke="#79A8F0" stroke-width="1.55" stroke-miterlimit="10" stroke-linecap="round"/>
<path d="M58.2416 81.9419C52.3091 78.2364 53.1962 76.1142 54.0344 74.2664L59.7618 61.6391" stroke="#79A8F0" stroke-width="1.55" stroke-miterlimit="10" stroke-linecap="round"/>
<path d="M97.1634 32.3598C95.0375 30.5864 92.449 29.4376 89.6963 29.0462" stroke="#79A8F0" stroke-width="1.55" stroke-miterlimit="10" stroke-linecap="round"/>
<path d="M81.4037 40.4621C81.4886 40.2308 81.621 40.0194 81.7927 39.841C81.9644 39.6626 82.1717 39.521 82.4018 39.4251C82.6869 39.3203 82.9959 39.2933 83.2962 39.3471C83.5965 39.4008 83.8769 39.5333 84.1078 39.7305C84.3388 39.9277 84.5117 40.1824 84.6083 40.4676C84.7049 40.7527 84.7216 41.0578 84.6566 41.3507C84.6275 41.4836 84.5817 41.6125 84.5203 41.7342" stroke="#010202" stroke-width="2.06667" stroke-linecap="round" stroke-linejoin="round"/>
<path d="M87.9609 76.743L87.7235 77.2666" stroke="#224796" stroke-width="1.55" stroke-miterlimit="10" stroke-linecap="round"/>
<path d="M102.818 52.9617L102.581 53.4852" stroke="#224796" stroke-width="1.55" stroke-miterlimit="10" stroke-linecap="round"/>
<path d="M88.4304 46.2286C88.4304 46.2286 86.6567 47.4801 84.6411 45.4424C84.3819 45.1831 84.26 44.9033 84.3948 44.6228C84.5296 44.3422 84.2802 43.9615 85.1197 44.2045C85.3514 44.2689 85.569 44.3755 85.7611 44.5188C86.0046 44.7522 86.2929 44.9356 86.6089 45.058C86.9249 45.1805 87.2623 45.2395 87.6011 45.2317C87.6011 45.2317 89.1824 45.3267 88.4304 46.2286Z" fill="#010202" stroke="#010202" stroke-width="0.516667" stroke-miterlimit="10"/>
<path d="M81.0312 48.9797C81.0312 48.9797 77.7461 52.5498 75.0519 54.684C74.3433 55.2575 73.3296 54.7336 73.0963 54.3341C72.4013 53.2488 72.16 53.2157 70.9232 49.0041" stroke="#010202" stroke-width="2.58333" stroke-miterlimit="10" stroke-linecap="round"/>
<path d="M88.755 52.4075C88.755 52.4075 88.2433 57.2084 88.423 60.6179C88.4611 61.5227 89.5307 61.9234 89.9907 61.8315C91.2723 61.6233 91.4577 61.7796 95.4573 59.8917" stroke="#010202" stroke-width="2.58333" stroke-miterlimit="10" stroke-linecap="round"/>
</g>
<defs>
<linearGradient id="paint0_linear_641_4363" x1="73.0117" y1="24.2585" x2="51.7292" y2="108.661" gradientUnits="userSpaceOnUse">
<stop stop-color="#F4ACC4"/>
<stop offset="0.541667" stop-color="#B99AC8"/>
<stop offset="1" stop-color="#79A8F0"/>
</linearGradient>
<clipPath id="clip0_641_4363">
<rect width="107.148" height="103.027" fill="white" transform="matrix(-0.969795 -0.24454 -0.243911 0.969642 129.41 26.3643)"/>
</clipPath>
</defs>
</svg>
