<svg width="218" height="217" viewBox="0 0 218 217" fill="none" xmlns="http://www.w3.org/2000/svg">
<g clip-path="url(#clip0_340_21260)">
<path d="M217.5 165.962H0.5V166.07H217.5V165.962Z" fill="#B99AC8"/>
<path d="M195.757 172.945H181.383V173.053H195.757V172.945Z" fill="#EBEBEB"/>
<path d="M144.25 174.125H140.479V174.234H144.25V174.125Z" fill="#EBEBEB"/>
<path d="M180.948 168.917H172.619V169.026H180.948V168.917Z" fill="#EBEBEB"/>
<path d="M42.012 169.646H23.2676V169.755H42.012V169.646Z" fill="#B99AC8"/>
<path d="M48.6261 169.646H45.8789V169.755H48.6261V169.646Z" fill="#EBEBEB"/>
<path d="M98.2157 171.478H57.5586V171.586H98.2157V171.478Z" fill="#EBEBEB"/>
<path d="M103.359 146.605H19.5578C18.9013 146.604 18.2721 146.342 17.8083 145.878C17.3445 145.413 17.084 144.784 17.084 144.127V26.3264C17.0897 25.6737 17.3527 25.0496 17.8159 24.5897C18.2791 24.1297 18.905 23.8711 19.5578 23.87H103.359C104.016 23.87 104.646 24.1311 105.111 24.5958C105.576 25.0606 105.837 25.6909 105.837 26.3481V144.127C105.837 144.784 105.576 145.415 105.111 145.879C104.646 146.344 104.016 146.605 103.359 146.605ZM19.5578 23.9568C18.9301 23.9579 18.3285 24.2081 17.885 24.6524C17.4415 25.0966 17.1925 25.6987 17.1925 26.3264V144.127C17.1925 144.755 17.4415 145.357 17.885 145.801C18.3285 146.245 18.9301 146.496 19.5578 146.497H103.359C103.987 146.496 104.589 146.246 105.033 145.801C105.477 145.357 105.727 144.755 105.728 144.127V26.3264C105.727 25.6983 105.477 25.0963 105.033 24.6521C104.589 24.208 103.987 23.9579 103.359 23.9568H19.5578Z" fill="#B99AC8"/>
<path d="M197.237 146.605H113.431C112.774 146.604 112.145 146.343 111.68 145.878C111.216 145.414 110.954 144.784 110.953 144.127V26.3264C110.96 25.6733 111.224 25.0492 111.688 24.5894C112.152 24.1296 112.778 23.8711 113.431 23.87H197.237C197.889 23.8723 198.514 24.1314 198.976 24.5912C199.438 25.051 199.7 25.6745 199.706 26.3264V144.127C199.706 144.783 199.446 145.412 198.983 145.876C198.521 146.341 197.892 146.603 197.237 146.605ZM113.431 23.9568C112.803 23.9579 112.201 24.208 111.757 24.6521C111.313 25.0963 111.063 25.6983 111.062 26.3264V144.127C111.063 144.755 111.313 145.357 111.757 145.801C112.201 146.246 112.803 146.496 113.431 146.497H197.237C197.865 146.496 198.467 146.246 198.911 145.801C199.355 145.357 199.605 144.755 199.606 144.127V26.3264C199.605 25.6983 199.355 25.0963 198.911 24.6521C198.467 24.208 197.865 23.9579 197.237 23.9568H113.431Z" fill="#B99AC8"/>
<path d="M97.1473 79.7388H29.209V165.766H97.1473V79.7388Z" fill="#D9CFDE"/>
<path d="M94.7434 82.8766H31.6094V101.274H94.7434V82.8766Z" fill="#E0E0E0"/>
<path d="M35.1942 85.8539H31.6094V101.27H35.1942V85.8539Z" fill="#EBEBEB"/>
<path d="M52.536 85.8539H48.9512V101.27H52.536V85.8539Z" fill="#EBEBEB"/>
<path d="M72.2222 85.4625L68.6895 86.0714L71.308 101.263L74.8408 100.654L72.2222 85.4625Z" fill="#EBEBEB"/>
<path d="M39.6376 87.885H36.0527V101.27H39.6376V87.885Z" fill="#EBEBEB"/>
<path d="M47.8798 87.885H44.2949V101.27H47.8798V87.885Z" fill="#EBEBEB"/>
<path d="M68.6864 87.885H65.1016V101.27H68.6864V87.885Z" fill="#EBEBEB"/>
<path d="M57.2456 87.4236L53.7461 88.2014L56.6499 101.267L60.1493 100.489L57.2456 87.4236Z" fill="#EBEBEB"/>
<path d="M42.7416 85.0857H40.9492V101.27H42.7416V85.0857Z" fill="#EBEBEB"/>
<path d="M64.0717 85.0857H62.2793V101.27H64.0717V85.0857Z" fill="#EBEBEB"/>
<path d="M31.6082 122.579L94.7422 122.579V104.182H31.6082V122.579Z" fill="#E0E0E0"/>
<path d="M91.1574 122.579H94.7422V107.163H91.1574V122.579Z" fill="#EBEBEB"/>
<path d="M73.8155 122.579H77.4004V107.163H73.8155V122.579Z" fill="#EBEBEB"/>
<path d="M51.5122 121.972L55.0449 122.581L57.6635 107.389L54.1308 106.78L51.5122 121.972Z" fill="#EBEBEB"/>
<path d="M86.7101 122.579H90.2949V109.194H86.7101V122.579Z" fill="#EBEBEB"/>
<path d="M78.4718 122.579H82.0566V109.194H78.4718V122.579Z" fill="#EBEBEB"/>
<path d="M57.6613 122.579H61.2461V109.194H57.6613V122.579Z" fill="#EBEBEB"/>
<path d="M66.2076 121.798L69.707 122.576L72.6108 109.51L69.1114 108.732L66.2076 121.798Z" fill="#EBEBEB"/>
<path d="M83.6119 122.579H85.4043V106.395H83.6119V122.579Z" fill="#EBEBEB"/>
<path d="M62.2799 122.579H64.0723V106.395H62.2799V122.579Z" fill="#EBEBEB"/>
<path d="M35.1942 107.163H31.6094V122.579H35.1942V107.163Z" fill="#EBEBEB"/>
<path d="M39.6376 109.194H36.0527V122.579H39.6376V109.194Z" fill="#EBEBEB"/>
<path d="M47.8798 109.194H44.2949V122.579H47.8798V109.194Z" fill="#EBEBEB"/>
<path d="M42.7416 106.395H40.9492V122.579H42.7416V106.395Z" fill="#EBEBEB"/>
<path d="M94.7434 125.491H31.6094V143.888H94.7434V125.491Z" fill="#E0E0E0"/>
<path d="M71.4286 128.468H67.8438V143.884H71.4286V128.468Z" fill="#EBEBEB"/>
<path d="M91.1187 128.08L87.5859 128.689L90.2045 143.881L93.7373 143.272L91.1187 128.08Z" fill="#EBEBEB"/>
<path d="M58.5302 130.504H54.9453V143.888H58.5302V130.504Z" fill="#EBEBEB"/>
<path d="M66.7763 130.504H63.1914V143.888H66.7763V130.504Z" fill="#EBEBEB"/>
<path d="M87.5829 130.504H83.998V143.888H87.5829V130.504Z" fill="#EBEBEB"/>
<path d="M76.1459 130.04L72.6465 130.818L75.5503 143.884L79.0497 143.106L76.1459 130.04Z" fill="#EBEBEB"/>
<path d="M61.6342 127.704H59.8418V143.888H61.6342V127.704Z" fill="#EBEBEB"/>
<path d="M82.9643 127.704H81.1719V143.888H82.9643V127.704Z" fill="#EBEBEB"/>
<path d="M49.8589 128.084L46.3262 128.693L48.9448 143.885L52.4775 143.276L49.8589 128.084Z" fill="#EBEBEB"/>
<path d="M46.3212 130.504H42.7363V143.888H46.3212V130.504Z" fill="#EBEBEB"/>
<path d="M34.8823 130.043L31.3828 130.82L34.2866 143.886L37.7861 143.108L34.8823 130.043Z" fill="#EBEBEB"/>
<path d="M41.7045 127.704H39.9121V143.888H41.7045V127.704Z" fill="#EBEBEB"/>
<path d="M132.992 114.415H171.279C172.268 114.415 173.247 114.611 174.161 114.99C175.074 115.369 175.904 115.924 176.602 116.625C177.3 117.325 177.854 118.156 178.23 119.071C178.607 119.985 178.799 120.965 178.796 121.954V151.848H125.492V121.954C125.488 119.96 126.275 118.046 127.681 116.632C129.088 115.218 130.998 114.421 132.992 114.415Z" fill="#EEE6E9"/>
<path d="M114.156 136.575H121.004C121.593 136.573 122.177 136.687 122.721 136.911C123.266 137.135 123.761 137.464 124.178 137.88C124.595 138.296 124.926 138.79 125.151 139.334C125.377 139.878 125.492 140.461 125.492 141.05V165.788H109.686V141.05C109.685 140.463 109.8 139.881 110.025 139.338C110.249 138.795 110.578 138.302 110.993 137.886C111.408 137.471 111.901 137.141 112.444 136.916C112.987 136.691 113.568 136.575 114.156 136.575Z" fill="#E0E0E0"/>
<path d="M114.156 136.575H114.299C114.886 136.575 115.468 136.691 116.011 136.916C116.553 137.141 117.046 137.471 117.461 137.886C117.877 138.302 118.206 138.795 118.43 139.338C118.655 139.881 118.77 140.463 118.769 141.05V165.788H109.686V141.05C109.685 140.463 109.8 139.881 110.025 139.338C110.249 138.795 110.578 138.302 110.993 137.886C111.408 137.471 111.901 137.141 112.444 136.916C112.987 136.691 113.568 136.575 114.156 136.575Z" fill="#EBEBEB"/>
<path d="M173.22 154.408H120.68V165.766H173.22V154.408Z" fill="#E6E6E6"/>
<path d="M171.274 144.023H120.605C118.095 144.023 116.061 146.057 116.061 148.567V151.392C116.061 153.902 118.095 155.936 120.605 155.936H171.274C173.784 155.936 175.818 153.902 175.818 151.392V148.567C175.818 146.057 173.784 144.023 171.274 144.023Z" fill="#F5F5F5"/>
<path d="M171.187 144.023H164.907C162.398 144.023 160.363 146.057 160.363 148.567V151.392C160.363 153.902 162.398 155.936 164.907 155.936H171.187C173.697 155.936 175.731 153.902 175.731 151.392V148.567C175.731 146.057 173.697 144.023 171.187 144.023Z" fill="#E0E0E0"/>
<path d="M171.87 136.575H178.723C179.31 136.575 179.892 136.691 180.434 136.916C180.976 137.141 181.469 137.471 181.884 137.887C182.299 138.302 182.628 138.796 182.851 139.338C183.075 139.881 183.19 140.463 183.189 141.05V165.788H167.404V141.05C167.403 140.463 167.518 139.881 167.742 139.338C167.966 138.796 168.294 138.302 168.709 137.887C169.124 137.471 169.617 137.141 170.159 136.916C170.702 136.691 171.283 136.575 171.87 136.575Z" fill="#E0E0E0"/>
<path d="M171.87 136.575H172.018C172.605 136.575 173.186 136.691 173.729 136.916C174.271 137.141 174.764 137.471 175.179 137.887C175.593 138.302 175.922 138.796 176.146 139.338C176.37 139.881 176.485 140.463 176.484 141.05V165.788H167.404V141.05C167.403 140.463 167.518 139.881 167.742 139.338C167.966 138.796 168.294 138.302 168.709 137.887C169.124 137.471 169.617 137.141 170.159 136.916C170.702 136.691 171.283 136.575 171.87 136.575Z" fill="#D9CFDE"/>
<path d="M65.7115 69.281C71.2834 68.3766 75.067 63.1265 74.1626 57.5547C73.2581 51.9829 68.0081 48.1993 62.4363 49.1037C56.8645 50.0081 53.0808 55.2582 53.9853 60.83C54.8897 66.4018 60.1397 70.1854 65.7115 69.281Z" fill="#B99AC8"/>
<path d="M65.466 67.7731C70.205 67.0038 73.4231 62.5385 72.6539 57.7995C71.8846 53.0605 67.4193 49.8424 62.6803 50.6116C57.9413 51.3809 54.7232 55.8462 55.4925 60.5852C56.2617 65.3242 60.727 68.5423 65.466 67.7731Z" fill="#D9CFDE"/>
<path d="M63.6599 65.1608V59.0848L59.6367 61.3633" fill="#D9CFDE"/>
<path d="M63.6605 65.5948C63.5454 65.5948 63.435 65.549 63.3536 65.4676C63.2722 65.3863 63.2265 65.2759 63.2265 65.1608V59.8269L59.85 61.7408C59.7498 61.7971 59.6314 61.8113 59.5208 61.7804C59.4101 61.7495 59.3162 61.6759 59.2597 61.5759C59.2031 61.4763 59.1883 61.3583 59.2183 61.2477C59.2484 61.1371 59.321 61.0429 59.4203 60.9857L63.4478 58.7072C63.5138 58.6701 63.5883 58.6509 63.664 58.6515C63.7397 58.6521 63.8139 58.6725 63.8793 58.7107C63.9447 58.7489 63.9989 58.8035 64.0367 58.8691C64.0744 58.9347 64.0943 59.0091 64.0945 59.0848V65.1608C64.0945 65.2759 64.0488 65.3863 63.9674 65.4676C63.886 65.549 63.7756 65.5948 63.6605 65.5948Z" fill="#B99AC8"/>
<path d="M186.517 46.2991H121.092V104.355H186.517V46.2991Z" fill="#B99AC8"/>
<path d="M184.793 47.8919H122.727V102.797H184.793V47.8919Z" fill="#D9CFDE"/>
<path d="M137.292 47.8919L122.727 102.676V76.9352L130.417 47.8919H137.292Z" fill="white"/>
<path d="M142.453 47.8919L127.758 102.797H125.414L140.109 47.8919H142.453Z" fill="white"/>
<path d="M184.793 82.5381V91.3093L181.82 102.797H179.477L184.793 82.5381Z" fill="white"/>
<path d="M144.376 46.9067H143.33V104.025H144.376V46.9067Z" fill="#B99AC8"/>
<path d="M164.64 46.9067H163.594V104.025H164.64V46.9067Z" fill="#B99AC8"/>
<circle cx="109" cy="117.5" r="65.5" fill="url(#paint0_linear_340_21260)"/>
<path d="M109.148 185.826C155.622 185.826 193.297 183.626 193.297 180.913C193.297 178.2 155.622 176 109.148 176C62.6745 176 25 178.2 25 180.913C25 183.626 62.6745 185.826 109.148 185.826Z" fill="#D9CFDE"/>
<path d="M174.925 169.794C174.925 169.794 176.987 165.298 174.63 160.862C172.273 156.427 171.592 155.385 173.094 154.474C174.595 153.562 175.285 158.024 175.285 158.024C176.028 156.009 176.104 153.809 175.502 151.748C174.461 148.541 173.805 143.315 175.229 142.756C176.652 142.196 175.502 149.266 176.744 151.687C177.373 149.992 177.78 148.223 177.954 146.423C178.124 143.845 177.859 139.731 178.983 138.676C180.107 137.621 180.832 138.351 179.725 144.036C179.06 147.435 178.693 150.885 178.627 154.348C178.627 154.348 181.071 146.887 182.715 146.67C184.36 146.453 184.356 148.866 182.95 150.963C181.544 153.059 178.831 156.813 178.388 158.744C178.388 158.744 181.075 153.128 183.488 154.838C185.901 156.548 181.387 159.946 179.374 161.175C177.36 162.403 175.962 170.076 175.962 170.076L174.925 169.794Z" fill="#B99AC8"/>
<path opacity="0.2" d="M174.925 169.794C174.925 169.794 176.987 165.298 174.63 160.862C172.273 156.427 171.592 155.385 173.094 154.474C174.595 153.562 175.285 158.024 175.285 158.024C176.028 156.009 176.104 153.809 175.502 151.748C174.461 148.541 173.805 143.315 175.229 142.756C176.652 142.196 175.502 149.266 176.744 151.687C177.373 149.992 177.78 148.223 177.954 146.423C178.124 143.845 177.859 139.731 178.983 138.676C180.107 137.621 180.832 138.351 179.725 144.036C179.06 147.435 178.693 150.885 178.627 154.348C178.627 154.348 181.071 146.887 182.715 146.67C184.36 146.453 184.356 148.866 182.95 150.963C181.544 153.059 178.831 156.813 178.388 158.744C178.388 158.744 181.075 153.128 183.488 154.838C185.901 156.548 181.387 159.946 179.374 161.175C177.36 162.403 175.962 170.076 175.962 170.076L174.925 169.794Z" fill="black"/>
<path d="M176.553 171.638C176.553 171.638 174.543 167.112 176.952 162.711C179.361 158.31 180.055 157.277 178.567 156.348C177.078 155.42 176.331 159.864 176.331 159.864C175.612 157.841 175.562 155.641 176.188 153.588C177.269 150.394 177.989 145.177 176.57 144.596C175.151 144.014 176.219 151.106 174.951 153.506C174.342 151.802 173.955 150.027 173.801 148.224C173.662 145.646 173.979 141.536 172.864 140.464C171.748 139.392 171.019 140.113 172.061 145.815C172.685 149.221 173.01 152.674 173.033 156.136C173.033 156.136 170.676 148.641 169.04 148.402C167.404 148.163 167.374 150.572 168.754 152.69C170.134 154.808 172.799 158.601 173.233 160.537C173.233 160.537 170.629 154.895 168.181 156.57C165.733 158.245 170.221 161.708 172.217 162.967C174.214 164.226 175.524 171.92 175.524 171.92L176.553 171.638Z" fill="#B99AC8"/>
<path d="M167.291 168.409H183.874L182.533 180.279H168.632L167.291 168.409Z" fill="#263238"/>
<path d="M105.789 178.374V179.932C105.789 179.978 105.78 180.024 105.762 180.067C105.744 180.109 105.719 180.148 105.686 180.181C105.653 180.213 105.615 180.239 105.572 180.257C105.529 180.274 105.484 180.284 105.437 180.284H61.4211C61.0457 180.284 60.676 180.192 60.3444 180.016C60.0128 179.84 59.7294 179.585 59.5191 179.274C59.3088 178.963 59.1779 178.605 59.138 178.232C59.0981 177.859 59.1503 177.481 59.2901 177.133L73.2389 142.586L95.7809 142.738L95.0127 147.221L90.039 176.234C90.0019 176.454 90.013 176.68 90.0717 176.895C90.1304 177.11 90.2353 177.31 90.379 177.48C90.5227 177.651 90.7019 177.788 90.904 177.883C91.1061 177.977 91.3263 178.026 91.5494 178.027H105.437C105.483 178.026 105.529 178.035 105.572 178.052C105.614 178.069 105.653 178.095 105.686 178.127C105.718 178.159 105.744 178.198 105.762 178.24C105.78 178.283 105.789 178.328 105.789 178.374Z" fill="#263238"/>
<path opacity="0.5" d="M105.789 178.374V179.932C105.789 179.978 105.78 180.024 105.762 180.067C105.744 180.109 105.719 180.148 105.686 180.181C105.653 180.213 105.615 180.239 105.572 180.257C105.529 180.274 105.484 180.284 105.437 180.284H61.4211C61.0457 180.284 60.676 180.192 60.3444 180.016C60.0128 179.84 59.7294 179.585 59.5191 179.274C59.3088 178.963 59.1779 178.605 59.138 178.232C59.0981 177.859 59.1503 177.481 59.2901 177.133L67.9398 155.715L73.2389 142.586L95.7809 142.738L95.0127 147.221L92.8427 159.838L90.0347 176.234C89.9975 176.454 90.0087 176.68 90.0674 176.895C90.1261 177.11 90.231 177.31 90.3747 177.48C90.5184 177.651 90.6975 177.788 90.8996 177.883C91.1018 177.977 91.322 178.026 91.545 178.027H105.433C105.479 178.026 105.525 178.034 105.569 178.051C105.612 178.068 105.651 178.093 105.684 178.125C105.717 178.158 105.744 178.196 105.762 178.239C105.78 178.282 105.789 178.328 105.789 178.374Z" fill="#F4ACC4"/>
<path opacity="0.2" d="M91.5484 178.022H62.9044C62.7394 178.022 62.577 177.981 62.4315 177.903C62.2861 177.825 62.162 177.712 62.0703 177.575C61.9786 177.438 61.9219 177.28 61.9054 177.116C61.8889 176.952 61.913 176.786 61.9756 176.634L74.2058 147.217H95.0074L90.0337 176.23C89.9965 176.45 90.0078 176.676 90.0667 176.892C90.1257 177.107 90.2309 177.307 90.3751 177.478C90.5193 177.648 90.699 177.786 90.9016 177.88C91.1043 177.974 91.325 178.022 91.5484 178.022Z" fill="#F4ACC4"/>
<path opacity="0.1" d="M95.7806 142.734L95.0124 147.217L92.8467 159.834L67.9395 155.715L73.2386 142.582L95.7806 142.734Z" fill="black"/>
<path d="M139.61 78.3371H35.255C34.9045 78.3371 34.5574 78.4061 34.2336 78.5402C33.9098 78.6744 33.6155 78.871 33.3677 79.1188C33.1198 79.3667 32.9232 79.6609 32.7891 79.9847C32.655 80.3086 32.5859 80.6556 32.5859 81.0061V151.657C32.5859 152.365 32.8671 153.044 33.3677 153.544C33.8683 154.045 34.5471 154.326 35.255 154.326H139.61C140.319 154.326 140.998 154.045 141.499 153.545C142 153.044 142.283 152.365 142.284 151.657V81.0061C142.283 80.2979 142 79.619 141.499 79.1186C140.998 78.6181 140.319 78.3371 139.61 78.3371Z" fill="#263238"/>
<path opacity="0.6" d="M139.61 78.3371H35.255C34.9045 78.3371 34.5574 78.4061 34.2336 78.5402C33.9098 78.6744 33.6155 78.871 33.3677 79.1188C33.1198 79.3667 32.9232 79.6609 32.7891 79.9847C32.655 80.3086 32.5859 80.6556 32.5859 81.0061V151.657C32.5859 152.365 32.8671 153.044 33.3677 153.544C33.8683 154.045 34.5471 154.326 35.255 154.326H139.61C140.319 154.326 140.998 154.045 141.499 153.545C142 153.044 142.283 152.365 142.284 151.657V81.0061C142.283 80.2979 142 79.619 141.499 79.1186C140.998 78.6181 140.319 78.3371 139.61 78.3371Z" fill="url(#paint1_linear_340_21260)"/>
<path opacity="0.2" d="M37.4684 154.322H35.255C34.5479 154.322 33.8697 154.041 33.3692 153.542C32.8688 153.042 32.5871 152.364 32.5859 151.657V81.0104C32.5854 80.6596 32.654 80.312 32.7879 79.9877C32.9217 79.6634 33.1183 79.3686 33.3662 79.1203C33.6141 78.872 33.9085 78.675 34.2326 78.5406C34.5567 78.4062 34.9042 78.337 35.255 78.337H37.4684C37.1165 78.3353 36.7676 78.4032 36.442 78.5368C36.1164 78.6705 35.8204 78.8672 35.5711 79.1157C35.3219 79.3642 35.1242 79.6595 34.9895 79.9847C34.8548 80.3099 34.7857 80.6585 34.7863 81.0104V151.657C34.7863 152.008 34.8558 152.356 34.9908 152.681C35.1258 153.005 35.3237 153.3 35.5729 153.547C35.8222 153.795 36.118 153.991 36.4433 154.124C36.7687 154.257 37.117 154.324 37.4684 154.322Z" fill="black"/>
<path d="M139.88 80.6328H37.209V148.758H139.88V80.6328Z" fill="#B99AC8"/>
<path opacity="0.4" d="M87.1273 106.564C92.0505 106.564 96.0416 102.573 96.0416 97.65C96.0416 92.7267 92.0505 88.7356 87.1273 88.7356C82.204 88.7356 78.2129 92.7267 78.2129 97.65C78.2129 102.573 82.204 106.564 87.1273 106.564Z" fill="white"/>
<path d="M84.9995 96.2959V95.48C84.9995 95.0909 85.1541 94.7178 85.4292 94.4427C85.7043 94.1676 86.0774 94.0131 86.4664 94.0131H87.7684C87.9625 94.0108 88.1551 94.047 88.3351 94.1197C88.5151 94.1924 88.6789 94.3001 88.8169 94.4365C88.955 94.573 89.0646 94.7355 89.1394 94.9146C89.2142 95.0937 89.2527 95.2859 89.2527 95.48V96.3133H90.2032V95.48C90.202 94.8392 89.947 94.225 89.4939 93.7719C89.0408 93.3188 88.4266 93.0638 87.7858 93.0626H86.4838C85.843 93.0638 85.2288 93.3188 84.7757 93.7719C84.3226 94.225 84.0676 94.8392 84.0664 95.48V96.3133L84.9995 96.2959Z" fill="white"/>
<path d="M82.8516 97.3939V101.773C82.8516 101.837 82.8641 101.9 82.8886 101.959C82.913 102.018 82.9488 102.072 82.9939 102.117C83.0391 102.162 83.0927 102.198 83.1516 102.222C83.2106 102.247 83.2738 102.259 83.3376 102.259H90.9153C90.9791 102.259 91.0423 102.247 91.1013 102.222C91.1603 102.198 91.2139 102.162 91.259 102.117C91.3041 102.072 91.3399 102.018 91.3644 101.959C91.3888 101.9 91.4014 101.837 91.4014 101.773V97.3939C91.4014 97.265 91.3502 97.1414 91.259 97.0502C91.1678 96.9591 91.0442 96.9079 90.9153 96.9079H83.3376C83.2738 96.9079 83.2106 96.9204 83.1516 96.9449C83.0927 96.9693 83.0391 97.0051 82.9939 97.0502C82.9488 97.0954 82.913 97.1489 82.8886 97.2079C82.8641 97.2669 82.8516 97.3301 82.8516 97.3939ZM87.3999 99.8721V100.74H86.8661V99.8721C86.788 99.8286 86.7223 99.7659 86.6752 99.69C86.6281 99.614 86.6012 99.5273 86.597 99.4381C86.597 99.2942 86.6541 99.1562 86.7559 99.0545C86.8576 98.9527 86.9956 98.8956 87.1395 98.8956C87.2834 98.8956 87.4214 98.9527 87.5231 99.0545C87.6248 99.1562 87.682 99.2942 87.682 99.4381C87.6765 99.5286 87.6476 99.6162 87.5981 99.6922C87.5487 99.7683 87.4804 99.8303 87.3999 99.8721Z" fill="white"/>
<path d="M65.3794 113.947H56.9598C56.4588 113.947 56.0527 114.353 56.0527 114.854V123.273C56.0527 123.774 56.4588 124.18 56.9598 124.18H65.3794C65.8804 124.18 66.2865 123.774 66.2865 123.273V114.854C66.2865 114.353 65.8804 113.947 65.3794 113.947Z" fill="white"/>
<path d="M78.3599 113.934H69.9403C69.4393 113.934 69.0332 114.34 69.0332 114.841V123.26C69.0332 123.761 69.4393 124.167 69.9403 124.167H78.3599C78.8608 124.167 79.2669 123.761 79.2669 123.26V114.841C79.2669 114.34 78.8608 113.934 78.3599 113.934Z" fill="white"/>
<path d="M91.3364 113.921H82.9168C82.4159 113.921 82.0098 114.327 82.0098 114.828V123.247C82.0098 123.748 82.4159 124.154 82.9168 124.154H91.3364C91.8374 124.154 92.2435 123.748 92.2435 123.247V114.828C92.2435 114.327 91.8374 113.921 91.3364 113.921Z" fill="white"/>
<path d="M104.313 113.903H95.8934C95.3924 113.903 94.9863 114.309 94.9863 114.81V123.23C94.9863 123.731 95.3924 124.137 95.8934 124.137H104.313C104.814 124.137 105.22 123.731 105.22 123.23V114.81C105.22 114.309 104.814 113.903 104.313 113.903Z" fill="white"/>
<path d="M117.29 113.89H108.87C108.369 113.89 107.963 114.296 107.963 114.797V123.217C107.963 123.718 108.369 124.124 108.87 124.124H117.29C117.791 124.124 118.197 123.718 118.197 123.217V114.797C118.197 114.296 117.791 113.89 117.29 113.89Z" fill="white"/>
<path d="M110.828 119.207C110.828 117.406 111.792 116.381 113.085 116.381C114.378 116.381 115.337 117.406 115.337 119.207C115.337 121.008 114.374 122.032 113.085 122.032C111.796 122.032 110.828 121.008 110.828 119.207ZM114.548 119.207C114.548 117.792 113.944 117.085 113.085 117.085C112.226 117.085 111.618 117.792 111.618 119.207C111.618 120.622 112.217 121.329 113.085 121.329C113.953 121.329 114.548 120.617 114.548 119.207Z" fill="#263238"/>
<path d="M63.2254 119.137C63.2254 121.021 62.1578 122.032 60.6214 122.032C60.1419 122.049 59.6666 121.937 59.2456 121.707L59.5234 121.086C59.8458 121.272 60.2147 121.363 60.5867 121.346C61.7064 121.346 62.4182 120.643 62.4182 119.259V119.064C62.233 119.306 61.9905 119.499 61.7126 119.624C61.4346 119.75 61.1298 119.805 60.8254 119.784C59.7274 119.784 58.9375 119.129 58.9375 118.113C58.9375 117.098 59.8055 116.377 60.8862 116.377C62.3878 116.381 63.2254 117.375 63.2254 119.137ZM62.2533 118.087C62.2533 117.519 61.8193 117.019 60.9513 117.019C60.7993 117.001 60.6452 117.015 60.4991 117.06C60.3529 117.106 60.2181 117.182 60.1033 117.283C59.9885 117.384 59.8965 117.509 59.8332 117.648C59.7699 117.787 59.7368 117.938 59.7361 118.091C59.7361 118.742 60.2178 119.159 60.9947 119.159C61.7715 119.159 62.2533 118.695 62.2533 118.087Z" fill="#263238"/>
<path d="M71.8926 119.207C71.8926 117.406 72.8561 116.381 74.1494 116.381C75.4427 116.381 76.4018 117.406 76.4018 119.207C76.4018 121.008 75.4384 122.032 74.1494 122.032C72.8604 122.032 71.8926 121.008 71.8926 119.207ZM75.612 119.207C75.612 117.792 75.013 117.085 74.1494 117.085C73.2857 117.085 72.6825 117.792 72.6825 119.207C72.6825 120.622 73.2814 121.329 74.1494 121.329C75.0174 121.329 75.612 120.622 75.612 119.207Z" fill="#263238"/>
<path d="M89.1241 121.281V121.954H85.153V121.433L87.4011 119.263C87.987 118.695 88.0955 118.347 88.0955 118C88.0955 117.432 87.6962 117.085 86.9194 117.085C86.6541 117.07 86.389 117.116 86.1444 117.22C85.8999 117.324 85.6825 117.482 85.5089 117.683L84.9707 117.219C85.2246 116.938 85.5377 116.717 85.8875 116.572C86.2374 116.427 86.615 116.362 86.9931 116.381C88.1432 116.381 88.8854 116.972 88.8854 117.918C88.8854 118.456 88.7291 118.938 87.9783 119.654L86.2901 121.277L89.1241 121.281Z" fill="#263238"/>
<path d="M100.754 116.442V121.954H99.9726V117.132H98.7227V116.442H100.754Z" fill="#263238"/>
<g opacity="0.6">
<path d="M77.4181 111.447V111.642H75.9121V109.511H77.3703V109.707H76.1378V110.466H77.2358V110.67H76.1378V111.46L77.4181 111.447Z" fill="white"/>
<path d="M79.3717 110.713V111.642H79.1547V110.735C79.1676 110.668 79.1643 110.598 79.1452 110.532C79.126 110.466 79.0915 110.406 79.0445 110.356C78.9975 110.306 78.9393 110.268 78.8747 110.245C78.8101 110.222 78.741 110.214 78.6729 110.223C78.5965 110.218 78.5198 110.229 78.4482 110.256C78.3766 110.283 78.3119 110.326 78.2585 110.381C78.2052 110.436 78.1645 110.502 78.1394 110.575C78.1142 110.647 78.1053 110.724 78.1131 110.8V111.642H77.9004V110.041H78.1044V110.336C78.1696 110.236 78.2602 110.155 78.367 110.102C78.4738 110.048 78.5929 110.024 78.712 110.032C78.8024 110.024 78.8935 110.037 78.9785 110.069C79.0635 110.101 79.1404 110.151 79.2036 110.216C79.2667 110.281 79.3146 110.36 79.3436 110.446C79.3727 110.532 79.3823 110.623 79.3717 110.713Z" fill="white"/>
<path d="M80.7909 111.538C80.6955 111.615 80.5752 111.655 80.4524 111.651C80.3899 111.656 80.3271 111.648 80.2681 111.626C80.2092 111.605 80.1556 111.571 80.1111 111.527C80.0665 111.482 80.0321 111.429 80.0101 111.371C79.9881 111.312 79.9791 111.249 79.9837 111.186V110.236H79.6973V110.054H79.9837V109.707H80.2007V110.054H80.6868V110.236H80.2007V111.191C80.2007 111.382 80.2962 111.482 80.4741 111.482C80.5604 111.484 80.6449 111.457 80.7128 111.403L80.7909 111.538Z" fill="white"/>
<path d="M82.5257 110.909H81.1889C81.199 111.066 81.2709 111.212 81.3888 111.316C81.5068 111.421 81.6612 111.474 81.8182 111.464C81.9102 111.467 82.0017 111.45 82.0864 111.414C82.1711 111.378 82.2469 111.324 82.3087 111.256L82.4302 111.395C82.3118 111.506 82.1646 111.582 82.0053 111.613C81.8461 111.645 81.6811 111.631 81.5292 111.574C81.3773 111.516 81.2446 111.418 81.146 111.288C81.0475 111.159 80.9872 111.005 80.9719 110.844C80.9659 110.738 80.9818 110.632 81.0186 110.533C81.0553 110.434 81.1121 110.344 81.1854 110.267C81.2588 110.191 81.347 110.131 81.4447 110.09C81.5424 110.05 81.6474 110.03 81.7531 110.032C81.8585 110.03 81.9631 110.05 82.0604 110.09C82.1577 110.131 82.2454 110.191 82.3181 110.268C82.3907 110.344 82.4467 110.435 82.4825 110.534C82.5182 110.633 82.5329 110.738 82.5257 110.844C82.5257 110.844 82.5257 110.883 82.5257 110.909ZM81.1889 110.748H82.3217C82.3093 110.606 82.2442 110.475 82.1394 110.379C82.0345 110.282 81.8975 110.229 81.7553 110.229C81.6131 110.229 81.4761 110.282 81.3712 110.379C81.2664 110.475 81.2013 110.606 81.1889 110.748Z" fill="white"/>
<path d="M83.7725 110.032V110.236H83.7204C83.6441 110.232 83.5679 110.245 83.4972 110.274C83.4265 110.303 83.3632 110.347 83.3117 110.404C83.2602 110.46 83.2219 110.527 83.1995 110.6C83.1771 110.674 83.1713 110.751 83.1823 110.826V111.642H82.9609V110.041H83.1693V110.353C83.2251 110.245 83.3128 110.156 83.4206 110.098C83.5284 110.041 83.6512 110.018 83.7725 110.032Z" fill="white"/>
<path d="M86.3241 110.041L85.5256 111.833C85.391 112.146 85.2217 112.245 84.9917 112.245C84.9207 112.248 84.85 112.236 84.7836 112.211C84.7172 112.186 84.6567 112.147 84.6055 112.098L84.7053 111.937C84.7423 111.977 84.7874 112.008 84.8376 112.029C84.8877 112.05 84.9417 112.06 84.9961 112.059C85.1393 112.059 85.2348 111.994 85.3259 111.794L85.3954 111.638L84.6966 110.041H84.9223L85.5212 111.399L86.1245 110.041H86.3241Z" fill="white"/>
<path d="M86.4321 110.844C86.4312 110.682 86.4784 110.524 86.5675 110.389C86.6566 110.254 86.7837 110.149 86.9328 110.087C87.0818 110.024 87.246 110.007 87.4045 110.038C87.5631 110.069 87.7089 110.147 87.8234 110.261C87.9379 110.375 88.0161 110.52 88.0479 110.678C88.0798 110.837 88.0639 111.001 88.0022 111.15C87.9406 111.3 87.836 111.428 87.7018 111.517C87.5675 111.607 87.4096 111.655 87.248 111.655C87.1401 111.659 87.0325 111.641 86.9318 111.602C86.8312 111.563 86.7398 111.503 86.6632 111.427C86.5866 111.351 86.5266 111.26 86.4868 111.159C86.4471 111.059 86.4284 110.952 86.4321 110.844ZM87.8383 110.844C87.8331 110.727 87.7939 110.615 87.7253 110.52C87.6568 110.426 87.562 110.354 87.4527 110.313C87.3435 110.272 87.2246 110.264 87.1109 110.29C86.9973 110.316 86.8938 110.375 86.8134 110.46C86.733 110.544 86.6793 110.651 86.6588 110.766C86.6384 110.88 86.6522 110.999 86.6986 111.106C86.7449 111.213 86.8217 111.304 86.9194 111.368C87.0171 111.431 87.1314 111.465 87.248 111.464C87.3274 111.464 87.4059 111.447 87.4786 111.415C87.5513 111.383 87.6168 111.337 87.6708 111.279C87.7249 111.221 87.7665 111.152 87.7931 111.077C87.8196 111.002 87.8306 110.923 87.8252 110.844H87.8383Z" fill="white"/>
<path d="M89.9269 110.041V111.642H89.7229V111.347C89.6635 111.446 89.5785 111.526 89.4768 111.581C89.3752 111.635 89.2608 111.661 89.1457 111.655C89.054 111.664 88.9614 111.653 88.8748 111.621C88.7881 111.59 88.7096 111.539 88.6451 111.473C88.5805 111.408 88.5316 111.328 88.5018 111.241C88.472 111.154 88.4622 111.061 88.473 110.969V110.041H88.6857V110.948C88.6728 111.015 88.676 111.085 88.6952 111.151C88.7143 111.216 88.7488 111.277 88.7958 111.327C88.8428 111.377 88.901 111.415 88.9656 111.438C89.0302 111.461 89.0994 111.469 89.1674 111.46C89.2428 111.464 89.3183 111.452 89.3884 111.424C89.4586 111.396 89.5218 111.353 89.5735 111.298C89.6252 111.243 89.6642 111.177 89.6878 111.105C89.7114 111.034 89.7189 110.958 89.7099 110.883V110.041H89.9269Z" fill="white"/>
<path d="M91.3365 110.032V110.236H91.2845C91.2082 110.232 91.1319 110.245 91.0612 110.274C90.9906 110.303 90.9272 110.347 90.8757 110.404C90.8242 110.46 90.7859 110.527 90.7635 110.6C90.7412 110.674 90.7353 110.751 90.7463 110.826V111.642H90.5293V110.041H90.7376V110.353C90.7932 110.245 90.8802 110.157 90.9871 110.099C91.0941 110.042 91.2159 110.019 91.3365 110.032Z" fill="white"/>
<path d="M92.3991 110.579C92.3913 110.356 92.4503 110.136 92.5685 109.946C92.6868 109.757 92.8588 109.608 93.0626 109.517C93.2664 109.426 93.4926 109.398 93.7124 109.437C93.9321 109.476 94.1352 109.579 94.2957 109.734C94.4563 109.889 94.5669 110.088 94.6133 110.307C94.6598 110.525 94.64 110.752 94.5565 110.959C94.4731 111.166 94.3297 111.343 94.1448 111.468C93.9599 111.593 93.7419 111.659 93.5188 111.66C93.3735 111.665 93.2285 111.642 93.0926 111.59C92.9567 111.538 92.8326 111.46 92.728 111.359C92.6233 111.258 92.5402 111.136 92.4837 111.002C92.4272 110.868 92.3984 110.724 92.3991 110.579ZM94.4085 110.579C94.4137 110.4 94.365 110.224 94.2688 110.073C94.1725 109.922 94.0332 109.803 93.8688 109.732C93.7044 109.661 93.5226 109.641 93.3467 109.675C93.1709 109.709 93.0093 109.794 92.8827 109.921C92.7561 110.048 92.6704 110.209 92.6368 110.385C92.6031 110.561 92.623 110.743 92.6939 110.907C92.7648 111.072 92.8833 111.211 93.0343 111.307C93.1852 111.403 93.3616 111.452 93.5405 111.447C93.7707 111.447 93.9915 111.355 94.1543 111.193C94.3171 111.03 94.4085 110.809 94.4085 110.579Z" fill="white"/>
<path d="M95.5199 109.707H94.7734V109.511H96.5094V109.707H95.7586V111.642H95.5329L95.5199 109.707Z" fill="white"/>
<path d="M98.5186 110.236C98.5186 110.67 98.1887 110.961 97.6506 110.961H97.082V111.633H96.8477V109.503H97.6419C98.1887 109.511 98.5186 109.802 98.5186 110.236ZM98.2929 110.236C98.2929 109.893 98.0672 109.698 97.6419 109.698H97.0777V110.761H97.6419C98.0672 110.77 98.2929 110.579 98.2929 110.236Z" fill="white"/>
</g>
<g opacity="0.6">
<path d="M78.6855 129.718L78.7724 129.549C78.9671 129.718 79.2175 129.809 79.4754 129.805C79.8704 129.805 80.044 129.64 80.044 129.427C80.044 128.846 78.742 129.202 78.742 128.416C78.742 128.104 78.985 127.835 79.5232 127.835C79.7565 127.832 79.9857 127.896 80.1829 128.021L80.1091 128.199C79.9339 128.088 79.7309 128.027 79.5232 128.026C79.1369 128.026 78.9633 128.199 78.9633 128.412C78.9633 128.993 80.2653 128.642 80.2653 129.414C80.2653 129.731 80.0179 129.996 79.4754 129.996C79.1865 130.007 78.9041 129.908 78.6855 129.718Z" fill="white"/>
<path d="M82.0918 129.245H80.7551C80.7651 129.402 80.837 129.549 80.955 129.653C81.0729 129.757 81.2273 129.81 81.3844 129.801C81.4764 129.804 81.5679 129.787 81.6526 129.751C81.7373 129.715 81.8131 129.661 81.8748 129.592L81.9963 129.731C81.9199 129.819 81.8249 129.888 81.7182 129.934C81.6116 129.979 81.496 130.001 81.3801 129.996C81.27 130.003 81.1597 129.986 81.0563 129.948C80.9528 129.91 80.8585 129.85 80.7793 129.774C80.7001 129.697 80.6377 129.604 80.5962 129.502C80.5547 129.4 80.5349 129.29 80.5381 129.18C80.5328 129.075 80.5491 128.969 80.586 128.87C80.623 128.772 80.6799 128.681 80.7531 128.605C80.8263 128.529 80.9143 128.469 81.0117 128.428C81.1091 128.388 81.2138 128.367 81.3193 128.369C81.425 128.366 81.5301 128.385 81.6279 128.426C81.7257 128.466 81.814 128.526 81.8871 128.603C81.9603 128.679 82.0166 128.77 82.0526 128.869C82.0886 128.969 82.1034 129.075 82.0962 129.18C82.0962 129.18 82.0918 129.223 82.0918 129.245ZM80.7551 129.085H81.8878C81.8754 128.943 81.8104 128.811 81.7055 128.715C81.6007 128.619 81.4637 128.566 81.3215 128.566C81.1793 128.566 81.0422 128.619 80.9374 128.715C80.8326 128.811 80.7675 128.943 80.7551 129.085Z" fill="white"/>
<path d="M84.016 129.05V129.979H83.8033V129.072C83.8154 129.005 83.8116 128.936 83.7921 128.87C83.7726 128.805 83.738 128.745 83.6911 128.696C83.6442 128.646 83.5863 128.608 83.5221 128.586C83.4579 128.563 83.3892 128.555 83.3216 128.564C83.2451 128.558 83.1684 128.57 83.0968 128.597C83.0253 128.624 82.9605 128.667 82.9072 128.722C82.8538 128.777 82.8131 128.843 82.788 128.915C82.7629 128.988 82.7539 129.065 82.7617 129.141V129.979H82.5273V128.382H82.7357V128.677C82.8003 128.576 82.8908 128.494 82.9976 128.44C83.1044 128.386 83.2237 128.361 83.3433 128.369C83.4348 128.359 83.5273 128.37 83.614 128.401C83.7006 128.432 83.7792 128.482 83.8439 128.547C83.9085 128.613 83.9576 128.692 83.9874 128.779C84.0172 128.866 84.0269 128.959 84.016 129.05Z" fill="white"/>
<path d="M86.0674 127.722V129.979H85.8591V129.662C85.7956 129.768 85.7049 129.854 85.5965 129.913C85.4881 129.972 85.366 130 85.2428 129.996C85.0372 129.981 84.845 129.889 84.7046 129.738C84.5643 129.587 84.4863 129.388 84.4863 129.182C84.4863 128.976 84.5643 128.778 84.7046 128.627C84.845 128.476 85.0372 128.384 85.2428 128.369C85.3628 128.364 85.4819 128.391 85.5884 128.447C85.6949 128.502 85.7851 128.584 85.8504 128.685V127.722H86.0674ZM85.8547 129.18C85.8496 129.064 85.8105 128.951 85.7421 128.857C85.6737 128.763 85.5792 128.691 85.4702 128.65C85.3612 128.609 85.2426 128.601 85.129 128.626C85.0154 128.652 84.9119 128.711 84.8314 128.795C84.7508 128.879 84.6967 128.985 84.6758 129.099C84.6549 129.214 84.6681 129.332 84.7137 129.439C84.7594 129.546 84.8355 129.638 84.9327 129.702C85.0298 129.766 85.1437 129.801 85.2601 129.801C85.3408 129.802 85.4209 129.787 85.4954 129.756C85.5699 129.725 85.6371 129.678 85.6929 129.62C85.7487 129.562 85.7919 129.493 85.8198 129.417C85.8476 129.341 85.8595 129.261 85.8547 129.18Z" fill="white"/>
<path d="M88.6711 128.989V129.979H88.4628V129.731C88.4025 129.82 88.3198 129.892 88.223 129.938C88.1261 129.985 88.0187 130.005 87.9116 129.996C87.5514 129.996 87.3301 129.805 87.3301 129.527C87.3301 129.25 87.4863 129.093 87.9464 129.093H88.4541V128.998C88.4603 128.939 88.4533 128.88 88.4336 128.825C88.414 128.769 88.3822 128.719 88.3406 128.677C88.299 128.636 88.2487 128.604 88.1932 128.584C88.1378 128.565 88.0786 128.558 88.0201 128.564C87.825 128.561 87.6353 128.629 87.4863 128.755L87.3908 128.594C87.574 128.448 87.8031 128.371 88.0375 128.377C88.1212 128.367 88.2061 128.376 88.286 128.403C88.3659 128.43 88.4389 128.474 88.4995 128.533C88.5602 128.591 88.607 128.663 88.6367 128.742C88.6664 128.821 88.6782 128.905 88.6711 128.989ZM88.4541 129.497V129.237H87.9507C87.6426 129.237 87.5427 129.358 87.5427 129.523C87.5427 129.688 87.6903 129.822 87.9464 129.822C88.0547 129.83 88.1624 129.802 88.2538 129.743C88.3452 129.685 88.4154 129.598 88.4541 129.497Z" fill="white"/>
<path d="M90.7428 128.382V129.766C90.7599 129.875 90.751 129.986 90.7169 130.091C90.6828 130.195 90.6244 130.29 90.5466 130.368C90.4688 130.446 90.3736 130.505 90.2689 130.539C90.1643 130.573 90.053 130.582 89.9443 130.565C89.6744 130.575 89.4097 130.489 89.1978 130.322L89.3063 130.157C89.4841 130.3 89.7069 130.377 89.9356 130.374C90.3435 130.374 90.5258 130.191 90.5258 129.796V129.592C90.4572 129.692 90.3642 129.773 90.2555 129.827C90.1469 129.881 90.0263 129.906 89.9052 129.901C89.7986 129.909 89.6915 129.894 89.5906 129.859C89.4897 129.824 89.3971 129.768 89.3188 129.695C89.2404 129.623 89.1779 129.534 89.1351 129.436C89.0924 129.338 89.0703 129.233 89.0703 129.126C89.0703 129.019 89.0924 128.913 89.1351 128.815C89.1779 128.717 89.2404 128.629 89.3188 128.556C89.3971 128.484 89.4897 128.428 89.5906 128.393C89.6915 128.357 89.7986 128.343 89.9052 128.351C90.0285 128.345 90.1512 128.371 90.2615 128.427C90.3718 128.482 90.4658 128.565 90.5345 128.668V128.364L90.7428 128.382ZM90.5345 129.141C90.5388 129.02 90.5069 128.9 90.4428 128.798C90.3787 128.695 90.2854 128.614 90.1748 128.564C90.0643 128.515 89.9415 128.5 89.8222 128.521C89.703 128.542 89.5927 128.598 89.5055 128.682C89.4184 128.766 89.3583 128.874 89.333 128.993C89.3078 129.111 89.3185 129.234 89.3638 129.347C89.409 129.459 89.4868 129.555 89.5872 129.623C89.6875 129.691 89.8058 129.727 89.9269 129.727C90.0061 129.732 90.0855 129.72 90.1599 129.693C90.2344 129.665 90.3023 129.623 90.3594 129.567C90.4166 129.512 90.4616 129.446 90.4918 129.373C90.5219 129.299 90.5364 129.22 90.5345 129.141Z" fill="white"/>
<path d="M92.552 128.989V129.979H92.348V129.731C92.2874 129.82 92.2046 129.891 92.1079 129.937C92.0111 129.984 91.9039 130.004 91.7968 129.996C91.4323 129.996 91.2109 129.805 91.2109 129.527C91.2109 129.25 91.3715 129.093 91.8316 129.093H92.335V128.998C92.335 128.724 92.1831 128.564 91.901 128.564C91.7072 128.561 91.5192 128.629 91.3715 128.755L91.2717 128.594C91.4566 128.448 91.687 128.371 91.9227 128.377C92.0061 128.368 92.0905 128.377 92.1699 128.404C92.2492 128.432 92.3216 128.476 92.3817 128.535C92.4419 128.593 92.4884 128.664 92.5178 128.743C92.5472 128.821 92.5589 128.906 92.552 128.989ZM92.335 129.497V129.237H91.8359C91.5234 129.237 91.4236 129.358 91.4236 129.523C91.4236 129.688 91.5755 129.822 91.8316 129.822C91.9394 129.83 92.0468 129.802 92.1376 129.744C92.2284 129.685 92.2977 129.598 92.335 129.497Z" fill="white"/>
<path d="M93.0898 127.874C93.0961 127.836 93.1154 127.802 93.1444 127.778C93.1734 127.753 93.2102 127.739 93.2483 127.739C93.2863 127.739 93.3231 127.753 93.3521 127.778C93.3811 127.802 93.4004 127.836 93.4067 127.874C93.4004 127.911 93.3811 127.945 93.3521 127.97C93.3231 127.995 93.2863 128.008 93.2483 128.008C93.2102 128.008 93.1734 127.995 93.1444 127.97C93.1154 127.945 93.0961 127.911 93.0898 127.874ZM93.1376 128.382H93.3546V129.979H93.1376V128.382Z" fill="white"/>
<path d="M95.424 129.05V129.979H95.2113V129.072C95.2234 129.005 95.2196 128.936 95.2001 128.87C95.1806 128.805 95.146 128.745 95.0991 128.696C95.0522 128.646 94.9943 128.608 94.9301 128.586C94.8659 128.563 94.7972 128.555 94.7296 128.564C94.6531 128.558 94.5764 128.57 94.5048 128.597C94.4332 128.624 94.3685 128.667 94.3152 128.722C94.2618 128.777 94.2211 128.843 94.196 128.915C94.1709 128.988 94.1619 129.065 94.1697 129.141V129.979H93.957V128.382H94.161V128.677C94.2257 128.576 94.3161 128.494 94.4229 128.44C94.5297 128.386 94.6491 128.361 94.7686 128.369C94.8587 128.361 94.9493 128.375 95.0338 128.407C95.1183 128.439 95.1946 128.489 95.2572 128.554C95.3199 128.62 95.3673 128.698 95.3962 128.783C95.425 128.869 95.4345 128.96 95.424 129.05Z" fill="white"/>
</g>
<path opacity="0.4" d="M99.2187 140.829H75.0319C74.0761 140.827 73.1599 140.447 72.4845 139.771C71.8091 139.095 71.4297 138.178 71.4297 137.222C71.4297 136.266 71.8091 135.35 72.4845 134.673C73.1599 133.997 74.0761 133.617 75.0319 133.616H99.2187C100.175 133.616 101.093 133.996 101.769 134.672C102.445 135.348 102.825 136.266 102.825 137.222C102.825 138.179 102.445 139.096 101.769 139.772C101.093 140.449 100.175 140.829 99.2187 140.829Z" fill="white"/>
<path d="M77.6915 137.04C77.6894 136.871 77.7222 136.703 77.7876 136.547C77.853 136.392 77.9498 136.251 78.0719 136.134C78.194 136.017 78.3388 135.927 78.4974 135.868C78.6559 135.81 78.8248 135.785 78.9935 135.794C79.1659 135.788 79.3377 135.819 79.4971 135.885C79.6566 135.951 79.8001 136.05 79.9179 136.176L79.6922 136.393C79.605 136.299 79.4987 136.225 79.3804 136.176C79.2621 136.126 79.1346 136.103 79.0065 136.107C78.8524 136.108 78.7011 136.148 78.566 136.222C78.431 136.296 78.3164 136.403 78.2326 136.532C78.1487 136.661 78.0982 136.809 78.0855 136.963C78.0728 137.117 78.0984 137.271 78.1599 137.412C78.2214 137.553 78.3169 137.677 78.438 137.773C78.559 137.868 78.7018 137.932 78.8535 137.959C79.0053 137.985 79.1613 137.974 79.3077 137.926C79.454 137.878 79.5862 137.794 79.6922 137.682L79.9179 137.899C79.7994 138.026 79.6552 138.125 79.495 138.191C79.3348 138.257 79.1623 138.288 78.9892 138.281C78.821 138.291 78.6527 138.265 78.4947 138.207C78.3367 138.149 78.1924 138.059 78.0707 137.942C77.949 137.826 77.8525 137.686 77.7873 137.531C77.722 137.375 77.6894 137.208 77.6915 137.04Z" fill="white"/>
<path d="M80.1518 137.04C80.1397 136.78 80.2056 136.523 80.3411 136.301C80.4766 136.079 80.6754 135.902 80.912 135.795C81.1486 135.687 81.4121 135.652 81.6685 135.695C81.9249 135.738 82.1626 135.857 82.3508 136.037C82.539 136.216 82.6692 136.448 82.7245 136.702C82.7799 136.956 82.7579 137.221 82.6614 137.462C82.5649 137.704 82.3983 137.911 82.1831 138.057C81.9678 138.203 81.7138 138.281 81.4538 138.281C81.2856 138.29 81.1174 138.264 80.9594 138.206C80.8015 138.147 80.6571 138.057 80.5352 137.941C80.4133 137.825 80.3164 137.685 80.2505 137.53C80.1846 137.375 80.151 137.208 80.1518 137.04ZM82.3869 137.04C82.3895 136.852 82.3361 136.668 82.2335 136.51C82.131 136.353 81.9839 136.23 81.811 136.156C81.6381 136.083 81.4472 136.062 81.2627 136.098C81.0782 136.133 80.9084 136.222 80.775 136.355C80.6415 136.487 80.5505 136.656 80.5134 136.84C80.4763 137.024 80.4949 137.215 80.5668 137.389C80.6386 137.562 80.7606 137.711 80.917 137.815C81.0734 137.919 81.2573 137.974 81.4451 137.973C81.5692 137.977 81.6928 137.956 81.8084 137.911C81.924 137.865 82.0291 137.797 82.1172 137.709C82.2054 137.622 82.2748 137.518 82.3212 137.402C82.3676 137.287 82.3899 137.164 82.3869 137.04Z" fill="white"/>
<path d="M85.3556 135.842V138.272H85.0691L83.6109 136.458V138.272H83.2637V135.842H83.5501L85.0084 137.652V135.842H85.3556Z" fill="white"/>
<path d="M86.5677 136.124H85.7344V135.842H87.7351V136.141H86.9105V138.272H86.5677V136.124Z" fill="white"/>
<path d="M88.1211 135.842H88.4683V138.272H88.1211V135.842Z" fill="white"/>
<path d="M91.2891 135.842V138.272H91.0027L89.5445 136.458V138.272H89.1973V135.842H89.4707L90.9289 137.652V135.842H91.2891Z" fill="white"/>
<path d="M91.9961 137.205V135.842H92.3433V137.209C92.3433 137.747 92.5907 137.99 93.029 137.99C93.4673 137.99 93.7147 137.747 93.7147 137.209V135.842H94.0532V137.222C94.0532 137.495 93.9449 137.757 93.752 137.949C93.5591 138.142 93.2975 138.251 93.0247 138.251C92.7519 138.251 92.4903 138.142 92.2974 137.949C92.1045 137.757 91.9961 137.495 91.9961 137.222V137.205Z" fill="white"/>
<path d="M96.5277 137.951V138.255H94.7656V135.842H96.5016V136.141H95.1128V136.888H96.328V137.183H95.1128V137.969L96.5277 137.951Z" fill="white"/>
<path opacity="0.1" d="M129.178 80.9497C114.982 95.1719 78.5215 126.828 37.209 124.484V80.9497H129.178Z" fill="white"/>
<path opacity="0.1" d="M139.875 107.089V149.079H78.0645C80.4341 140.599 85.1734 128.985 94.3655 120.687C110.901 105.757 130.092 105.8 139.875 107.089Z" fill="white"/>
<path d="M152.934 74.2531L154.374 80.6155L155.815 74.2531H152.934Z" fill="#B99AC8"/>
<path opacity="0.7" d="M152.934 74.2531L154.374 80.6155L155.815 74.2531H152.934Z" fill="white"/>
<path d="M170.502 56.2377H138.251C136.193 56.2377 134.523 57.9068 134.523 59.9658V71.9355C134.523 73.9944 136.193 75.6636 138.251 75.6636H170.502C172.561 75.6636 174.23 73.9944 174.23 71.9355V59.9658C174.23 57.9068 172.561 56.2377 170.502 56.2377Z" fill="#B99AC8"/>
<path opacity="0.7" d="M170.502 56.2377H138.251C136.193 56.2377 134.523 57.9068 134.523 59.9658V71.9355C134.523 73.9944 136.193 75.6636 138.251 75.6636H170.502C172.561 75.6636 174.23 73.9944 174.23 71.9355V59.9658C174.23 57.9068 172.561 56.2377 170.502 56.2377Z" fill="white"/>
<g opacity="0.5">
<path d="M142.453 63.364V64.2016H142.11V63.364L141.146 61.7842H141.52L142.297 63.0862L143.078 61.7842H143.421L142.453 63.364Z" fill="#263238"/>
<path d="M143.342 63.2859C143.339 63.0955 143.392 62.9084 143.495 62.7484C143.599 62.5884 143.747 62.4627 143.922 62.3875C144.097 62.3122 144.29 62.2907 144.478 62.3257C144.665 62.3608 144.837 62.4507 144.973 62.5841C145.109 62.7176 145.202 62.8884 145.241 63.0749C145.279 63.2614 145.261 63.4552 145.189 63.6314C145.117 63.8077 144.994 63.9585 144.836 64.0647C144.678 64.1709 144.492 64.2276 144.301 64.2277C144.175 64.2337 144.049 64.2136 143.931 64.1686C143.813 64.1237 143.706 64.0548 143.616 63.9664C143.526 63.8779 143.455 63.7718 143.408 63.6547C143.361 63.5376 143.338 63.412 143.342 63.2859ZM144.918 63.2859C144.925 63.2003 144.914 63.1142 144.886 63.0329C144.858 62.9517 144.814 62.8771 144.756 62.8139C144.698 62.7507 144.627 62.7003 144.549 62.6657C144.47 62.6312 144.385 62.6134 144.299 62.6134C144.213 62.6134 144.128 62.6312 144.05 62.6657C143.971 62.7003 143.9 62.7507 143.842 62.8139C143.784 62.8771 143.74 62.9517 143.712 63.0329C143.684 63.1142 143.674 63.2003 143.681 63.2859C143.674 63.3714 143.684 63.4576 143.712 63.5388C143.74 63.62 143.784 63.6946 143.842 63.7578C143.9 63.821 143.971 63.8715 144.05 63.906C144.128 63.9405 144.213 63.9583 144.299 63.9583C144.385 63.9583 144.47 63.9405 144.549 63.906C144.627 63.8715 144.698 63.821 144.756 63.7578C144.814 63.6946 144.858 63.62 144.886 63.5388C144.914 63.4576 144.925 63.3714 144.918 63.2859Z" fill="#263238"/>
<path d="M147.432 62.3658V64.206H147.119V63.9282C147.047 64.0249 146.952 64.1027 146.844 64.1549C146.735 64.207 146.615 64.232 146.494 64.2277C146.386 64.2387 146.277 64.2255 146.176 64.1889C146.074 64.1524 145.981 64.0934 145.905 64.0164C145.829 63.9393 145.771 63.8462 145.735 63.7438C145.7 63.6414 145.688 63.5324 145.7 63.4248V62.3658H146.034V63.39C146.034 63.7503 146.216 63.9282 146.533 63.9282C146.613 63.9334 146.692 63.9209 146.766 63.8916C146.84 63.8623 146.907 63.817 146.961 63.7589C147.016 63.7008 147.056 63.6313 147.081 63.5555C147.105 63.4797 147.112 63.3995 147.102 63.3206V62.3658H147.432Z" fill="#263238"/>
<path d="M149.059 62.3484V62.6739H148.981C148.9 62.6687 148.819 62.6815 148.743 62.7114C148.668 62.7414 148.6 62.7878 148.545 62.8472C148.489 62.9066 148.448 62.9776 148.424 63.055C148.399 63.1323 148.392 63.2142 148.403 63.2946V64.2103H148.061V62.3658H148.382V62.6783C148.451 62.5644 148.552 62.4728 148.672 62.4143C148.792 62.3559 148.926 62.333 149.059 62.3484Z" fill="#263238"/>
<path d="M150.279 62.9908C150.267 62.7311 150.334 62.4741 150.47 62.2527C150.606 62.0313 150.805 61.8557 151.042 61.7484C151.279 61.6411 151.542 61.6072 151.798 61.6509C152.054 61.6945 152.292 61.8139 152.479 61.9935C152.667 62.1732 152.797 62.4049 152.852 62.6589C152.907 62.9128 152.885 63.1775 152.788 63.4187C152.691 63.6599 152.525 63.8667 152.309 64.0124C152.094 64.1581 151.84 64.2361 151.581 64.2363C151.412 64.2459 151.243 64.2206 151.084 64.1621C150.926 64.1036 150.781 64.0132 150.659 63.8964C150.537 63.7796 150.44 63.6389 150.375 63.4831C150.309 63.3273 150.277 63.1597 150.279 62.9908ZM152.514 62.9908C152.516 62.8029 152.463 62.6186 152.36 62.4612C152.258 62.3038 152.111 62.1805 151.938 62.107C151.765 62.0335 151.574 62.0132 151.389 62.0486C151.205 62.0839 151.035 62.1734 150.902 62.3056C150.768 62.4379 150.677 62.6068 150.64 62.791C150.603 62.9751 150.622 63.1662 150.694 63.3397C150.765 63.5133 150.887 63.6615 151.044 63.7656C151.2 63.8696 151.384 63.9247 151.572 63.9239C151.696 63.928 151.82 63.9068 151.935 63.8615C152.051 63.8162 152.156 63.7478 152.244 63.6604C152.332 63.573 152.402 63.4686 152.448 63.3534C152.494 63.2383 152.517 63.1149 152.514 62.9908Z" fill="#263238"/>
<path d="M153.841 62.062H153.008V61.7625H155.004V62.062H154.171V64.1886H153.828L153.841 62.062Z" fill="#263238"/>
<path d="M157.356 62.6262C157.356 63.1513 156.974 63.4725 156.341 63.4725H155.742V64.206H155.395V61.7799H156.341C156.974 61.7799 157.356 62.0967 157.356 62.6262ZM157.009 62.6262C157.009 62.279 156.775 62.0794 156.332 62.0794H155.742V63.1687H156.332C156.775 63.1687 157.009 62.9734 157.009 62.6262Z" fill="#263238"/>
<path d="M158.637 62.9908C158.648 62.7396 158.733 62.4972 158.879 62.2928C159.025 62.0885 159.228 61.9309 159.462 61.8391C159.696 61.7473 159.952 61.7252 160.198 61.7756C160.444 61.8259 160.671 61.9465 160.85 62.1228L160.624 62.3441C160.537 62.2496 160.431 62.1748 160.313 62.1247C160.195 62.0745 160.067 62.0502 159.939 62.0533C159.691 62.0533 159.454 62.1516 159.279 62.3266C159.104 62.5016 159.006 62.7389 159.006 62.9864C159.006 63.2339 159.104 63.4712 159.279 63.6462C159.454 63.8212 159.691 63.9195 159.939 63.9195C160.067 63.9226 160.195 63.8983 160.313 63.8481C160.431 63.798 160.537 63.7232 160.624 63.6287L160.85 63.8501C160.671 64.0263 160.444 64.1469 160.198 64.1973C159.952 64.2476 159.696 64.2256 159.462 64.1338C159.228 64.042 159.025 63.8844 158.879 63.68C158.733 63.4756 158.648 63.2332 158.637 62.9821V62.9908Z" fill="#263238"/>
<path d="M161.049 63.2859C161.046 63.0955 161.099 62.9084 161.202 62.7484C161.306 62.5884 161.454 62.4627 161.629 62.3875C161.804 62.3122 161.997 62.2907 162.185 62.3257C162.372 62.3608 162.544 62.4507 162.68 62.5841C162.816 62.7176 162.909 62.8884 162.948 63.0749C162.986 63.2614 162.968 63.4552 162.896 63.6314C162.824 63.8077 162.701 63.9585 162.543 64.0647C162.385 64.1709 162.199 64.2276 162.008 64.2277C161.882 64.2337 161.756 64.2136 161.638 64.1686C161.52 64.1237 161.413 64.0548 161.323 63.9664C161.233 63.8779 161.162 63.7718 161.115 63.6547C161.068 63.5376 161.045 63.412 161.049 63.2859ZM162.625 63.2859C162.632 63.2003 162.621 63.1142 162.593 63.0329C162.566 62.9517 162.521 62.8771 162.463 62.8139C162.405 62.7507 162.334 62.7003 162.256 62.6657C162.177 62.6312 162.092 62.6134 162.006 62.6134C161.92 62.6134 161.835 62.6312 161.757 62.6657C161.678 62.7003 161.608 62.7507 161.549 62.8139C161.491 62.8771 161.447 62.9517 161.419 63.0329C161.391 63.1142 161.381 63.2003 161.388 63.2859C161.381 63.3714 161.391 63.4576 161.419 63.5388C161.447 63.62 161.491 63.6946 161.549 63.7578C161.608 63.821 161.678 63.8715 161.757 63.906C161.835 63.9405 161.92 63.9583 162.006 63.9583C162.092 63.9583 162.177 63.9405 162.256 63.906C162.334 63.8715 162.405 63.821 162.463 63.7578C162.521 63.6946 162.566 63.62 162.593 63.5388C162.621 63.4576 162.632 63.3714 162.625 63.2859Z" fill="#263238"/>
<path d="M165.161 61.628V64.2016H164.844V63.9108C164.768 64.0121 164.669 64.0934 164.555 64.1478C164.44 64.2023 164.315 64.2282 164.188 64.2233C163.95 64.2071 163.727 64.1011 163.564 63.9267C163.401 63.7522 163.311 63.5224 163.311 63.2837C163.311 63.045 163.401 62.8152 163.564 62.6408C163.727 62.4663 163.95 62.3603 164.188 62.3441C164.311 62.3404 164.433 62.3651 164.544 62.4163C164.656 62.4675 164.754 62.5438 164.831 62.6392V61.628H165.161ZM164.831 63.2815C164.825 63.1601 164.783 63.043 164.711 62.945C164.639 62.8469 164.54 62.7721 164.426 62.7299C164.312 62.6877 164.188 62.6799 164.07 62.7075C163.951 62.7351 163.844 62.797 163.76 62.8853C163.677 62.9736 163.621 63.0845 163.6 63.2043C163.579 63.324 163.593 63.4474 163.642 63.5589C163.69 63.6705 163.77 63.7654 163.872 63.8318C163.974 63.8982 164.093 63.9332 164.214 63.9325C164.299 63.9346 164.382 63.919 164.46 63.8868C164.538 63.8546 164.608 63.8065 164.666 63.7456C164.724 63.6847 164.768 63.6124 164.797 63.5332C164.825 63.454 164.837 63.3698 164.831 63.2859V63.2815Z" fill="#263238"/>
<path d="M167.447 63.3987H165.958C165.979 63.5564 166.059 63.7002 166.183 63.8003C166.306 63.9005 166.463 63.9493 166.622 63.9369C166.721 63.9404 166.82 63.9225 166.911 63.8843C167.002 63.846 167.084 63.7885 167.151 63.7155L167.338 63.9282C167.202 64.066 167.029 64.1615 166.84 64.2032C166.651 64.2448 166.454 64.2308 166.273 64.1629C166.091 64.095 165.934 63.976 165.818 63.8204C165.703 63.6647 165.636 63.4791 165.624 63.2859C165.619 63.1626 165.639 63.0396 165.684 62.9246C165.729 62.8096 165.796 62.7049 165.883 62.617C165.97 62.5292 166.073 62.46 166.188 62.4138C166.302 62.3676 166.425 62.3454 166.548 62.3484C166.673 62.3422 166.797 62.3629 166.913 62.4091C167.029 62.4553 167.133 62.5259 167.219 62.6161C167.305 62.7063 167.371 62.814 167.412 62.9318C167.452 63.0496 167.467 63.1748 167.455 63.2989C167.454 63.3323 167.451 63.3656 167.447 63.3987ZM165.958 63.16H167.156C167.143 63.0128 167.076 62.8756 166.967 62.7757C166.858 62.6758 166.715 62.6203 166.568 62.6203C166.42 62.6203 166.277 62.6758 166.169 62.7757C166.06 62.8756 165.992 63.0128 165.98 63.16H165.958Z" fill="#263238"/>
</g>
<g opacity="0.5">
<path d="M149.362 68.0077C149.362 69.3748 148.593 70.1039 147.469 70.1039C147.123 70.1162 146.78 70.0352 146.475 69.8696L146.692 69.4356C146.927 69.5692 147.195 69.6339 147.465 69.6222C148.277 69.6222 148.793 69.1144 148.793 68.1119V67.973C148.659 68.149 148.483 68.289 148.282 68.3806C148.08 68.4723 147.859 68.5126 147.639 68.4981C147.468 68.5169 147.295 68.4997 147.131 68.4476C146.967 68.3955 146.815 68.3097 146.687 68.1956C146.558 68.0816 146.454 67.9418 146.383 67.7854C146.311 67.6289 146.273 67.4593 146.271 67.2873C146.276 67.1097 146.316 66.9348 146.39 66.7735C146.464 66.6121 146.571 66.4676 146.703 66.3489C146.835 66.2302 146.99 66.1398 147.158 66.0832C147.327 66.0267 147.505 66.0051 147.682 66.02C148.754 66.0113 149.362 66.7317 149.362 68.0077ZM148.654 67.2699C148.654 66.8576 148.324 66.4974 147.699 66.4974C147.59 66.4859 147.48 66.4973 147.375 66.5311C147.271 66.5648 147.175 66.62 147.093 66.6932C147.011 66.7664 146.946 66.8559 146.901 66.956C146.856 67.0561 146.832 67.1645 146.831 67.2742C146.831 67.743 147.179 68.0468 147.738 68.0468C147.85 68.0581 147.963 68.0468 148.07 68.0135C148.177 67.9802 148.276 67.9257 148.362 67.8532C148.447 67.7806 148.517 67.6916 148.567 67.5914C148.618 67.4911 148.647 67.3818 148.654 67.2699Z" fill="#263238"/>
<path d="M149.908 68.0599C149.908 66.7579 150.607 66.0114 151.544 66.0114C152.482 66.0114 153.172 66.7579 153.172 68.0599C153.172 69.3619 152.473 70.104 151.544 70.104C150.616 70.104 149.908 69.3619 149.908 68.0599ZM152.599 68.0599C152.599 67.0356 152.165 66.5235 151.544 66.5235C150.924 66.5235 150.481 67.0356 150.481 68.0599C150.481 69.0841 150.915 69.5962 151.544 69.5962C152.174 69.5962 152.599 69.0841 152.599 68.0599Z" fill="#263238"/>
<path d="M156.519 69.5615V70.0606H153.642V69.67L155.274 68.0989C155.708 67.6866 155.773 67.4349 155.773 67.1832C155.773 66.7752 155.482 66.5235 154.905 66.5235C154.713 66.5122 154.521 66.5455 154.344 66.6208C154.167 66.6961 154.01 66.8114 153.885 66.9575L153.494 66.619C153.678 66.4157 153.904 66.2557 154.157 66.1507C154.41 66.0456 154.683 65.998 154.957 66.0114C155.79 66.0114 156.328 66.4454 156.328 67.1268C156.322 67.3726 156.259 67.6136 156.146 67.8317C156.032 68.0498 155.87 68.2391 155.673 68.3854L154.449 69.5615H156.519Z" fill="#263238"/>
<path d="M158.229 66.0591V70.0606H157.66V66.5582H156.74V66.0591H158.229Z" fill="#263238"/>
<path d="M159.1 68.0599C159.1 66.7579 159.798 66.0114 160.736 66.0114C161.673 66.0114 162.363 66.7579 162.363 68.0599C162.363 69.3619 161.669 70.104 160.736 70.104C159.803 70.104 159.1 69.3619 159.1 68.0599ZM161.795 68.0599C161.795 67.0356 161.361 66.5235 160.736 66.5235C160.111 66.5235 159.672 67.0356 159.672 68.0599C159.672 69.0841 160.106 69.5962 160.736 69.5962C161.365 69.5962 161.795 69.0841 161.795 68.0599Z" fill="#263238"/>
</g>
<path d="M150.807 92.9151C153.398 94.7079 156.296 96.0098 159.357 96.756H159.387C159.158 96.7494 158.933 96.813 158.741 96.9382C158.552 97.0562 158.401 97.2266 158.307 97.4287C158.275 97.4906 158.257 97.5588 158.255 97.6283C158.324 96.7169 157.929 95.6927 157.651 94.7075C157.152 93.1494 156.566 91.5523 155.98 89.9856L157.656 89.0872C159.04 91.2094 163.662 97.9278 160.507 99.8721C159.966 100.188 159.327 100.29 158.715 100.159C155.277 99.6493 151.998 98.3705 149.123 96.4174C148.924 96.2786 148.75 96.157 148.516 95.9834L150.816 92.9064L150.807 92.9151Z" fill="#DC897C"/>
<path d="M150.32 92.442C151.84 92.6252 153.283 93.211 154.5 94.1389L152.764 99.5119C152.764 99.5119 144.327 91.7346 150.32 92.442Z" fill="#B99AC8"/>
<path opacity="0.6" d="M150.303 96.9599C151.076 97.8445 151.893 98.689 152.751 99.4902L153.467 97.2811L154.5 94.1172C153.284 93.19 151.843 92.6042 150.325 92.4203C146.636 92.008 148.398 94.7682 150.303 96.9599Z" fill="#F4ACC4"/>
<path opacity="0.2" d="M150.303 96.96C151.076 97.8445 151.893 98.689 152.751 99.4902L153.467 97.2811C152.567 96.5795 151.458 96.1977 150.316 96.1961C150.29 96.4499 150.286 96.7054 150.303 96.96Z" fill="black"/>
<path d="M131.567 84.4955C131.567 84.4955 127.531 97.9147 136.033 99.7158C144.535 101.517 145.455 95.3411 145.455 95.3411C145.455 95.3411 138.467 84.7689 131.567 84.4955Z" fill="#263238"/>
<path d="M129.575 88.9396C129.559 88.9441 129.543 88.9441 129.527 88.9396C129.515 88.9337 129.504 88.9253 129.495 88.915C129.486 88.9046 129.479 88.8926 129.475 88.8796C129.471 88.8666 129.47 88.8529 129.471 88.8393C129.473 88.8257 129.477 88.8126 129.484 88.8008C129.611 88.5692 129.789 88.3703 130.006 88.2196C130.223 88.069 130.472 87.9708 130.733 87.9328C130.761 87.9336 130.786 87.9442 130.806 87.9625C130.826 87.9808 130.839 88.0057 130.842 88.0326C130.843 88.0463 130.842 88.06 130.837 88.0731C130.833 88.0862 130.827 88.0984 130.818 88.1089C130.809 88.1194 130.798 88.128 130.786 88.1343C130.774 88.1405 130.76 88.1443 130.747 88.1454C130.52 88.1824 130.305 88.2703 130.118 88.4027C129.931 88.535 129.776 88.7083 129.666 88.9093C129.655 88.9219 129.64 88.9314 129.624 88.9367C129.608 88.9421 129.591 88.9431 129.575 88.9396Z" fill="#263238"/>
<path d="M130.791 90.6062C130.737 91.1292 130.618 91.6437 130.439 92.1382C130.574 92.2185 130.728 92.2609 130.884 92.2609C131.041 92.2609 131.195 92.2185 131.329 92.1382L130.791 90.6062Z" fill="#DE5753"/>
<path d="M129.971 90.0203C130.062 90.259 130.266 90.4022 130.405 90.3415C130.544 90.2807 130.622 90.042 130.531 89.8033C130.44 89.5646 130.236 89.4214 130.097 89.4821C129.958 89.5429 129.884 89.7816 129.971 90.0203Z" fill="#263238"/>
<path d="M130.165 89.4691H129.57C129.57 89.4691 129.996 89.7989 130.165 89.4691Z" fill="#263238"/>
<path d="M138.612 92.2727C138.597 92.3116 138.576 92.3482 138.551 92.3812C138.512 92.455 138.468 92.5245 138.425 92.5982C138.171 93.0556 137.832 93.4606 137.427 93.7917C136.125 94.829 134.992 95.1415 134.007 94.842L133.864 94.7943C132.401 94.1997 131.26 92.4507 130.353 90.1375C129.95 89.2322 129.697 88.2679 129.602 87.2817C129.602 87.2817 129.602 87.247 129.602 87.2383C129.602 87.2297 129.602 87.1602 129.602 87.1255C129.568 86.5603 129.676 85.9956 129.915 85.4825C130.155 84.9695 130.518 84.5243 130.973 84.1873C131.362 83.8819 131.784 83.6214 132.232 83.4105C136.568 81.2969 140.786 88.1801 138.612 92.2727Z" fill="#E4897B"/>
<path opacity="0.2" d="M138.424 92.5983C138.17 93.0556 137.831 93.4606 137.426 93.7918C136.124 94.829 134.991 95.1415 134.006 94.842C134.964 94.6099 135.826 94.0868 136.475 93.3447C136.726 93.0854 137.03 92.8841 137.367 92.7551C137.703 92.6262 138.064 92.5726 138.424 92.5983Z" fill="black"/>
<path d="M129.581 87.2557C129.581 87.2557 130.791 90.4413 134.328 90.3848C134.328 90.3848 137.089 92.9889 138.951 92.1599C141.489 91.0359 142.01 86.4181 139.424 83.1935C136.064 79.0097 128.739 82.026 129.581 87.2557Z" fill="#263238"/>
<path d="M132.435 90.2026C132.209 89.7208 132.214 88.7356 133.008 88.4926C133.802 88.2496 135.178 89.9378 133.468 91.2572C133.225 91.4481 132.904 91.2008 132.435 90.2026Z" fill="#E4897B"/>
<path d="M133.386 81.4575C133.386 81.4575 130.105 82.1041 129.046 84.0615C127.805 86.3356 127.744 88.0977 131.043 89.2695C131.043 89.2695 135.213 85.3635 137.01 84.9295C138.057 84.6696 139.124 84.4983 140.2 84.4173C139.002 80.9497 134.71 80.0209 133.386 81.4575Z" fill="#263238"/>
<path d="M136.567 93.8742C136.567 93.8742 138.824 95.4366 139.41 98.0146L146.445 93.9089C146.445 93.9089 140.938 92.6547 139.992 90.5237C139.992 90.5237 136.311 90.9794 136.567 93.8742Z" fill="#E4897B"/>
<path d="M143.554 110.779C143.554 110.779 134.44 101.825 133.459 99.0128C133.459 99.0128 137.291 93.0453 144.951 92.7936C152.611 92.5418 157.824 107.116 157.824 107.116L143.554 110.779Z" fill="#B99AC8"/>
<path opacity="0.6" d="M157.825 107.12L143.56 110.783C143.56 110.783 141.572 108.826 139.35 106.443C138.664 105.701 137.948 104.92 137.258 104.147C135.448 102.094 133.851 100.089 133.465 98.9998C133.465 98.9998 137.293 93.0323 144.953 92.7805C152.613 92.5288 157.825 107.12 157.825 107.12Z" fill="#F4ACC4"/>
<path d="M135.039 88.8572C135.039 88.8572 136.372 93.284 141.05 94.7509C145.729 96.2178 144.553 100.996 149.088 100.432C151.501 100.132 153.567 95.2239 146.167 90.8839C141.853 88.3624 143.529 80.073 134.371 80.8499C134.362 80.8542 136.263 86.5353 135.039 88.8572Z" fill="#263238"/>
<path d="M139.584 178.257L137.414 177.762C137.74 166.912 139.306 153.792 140.691 143.936C140.908 142.391 141.125 140.933 141.324 139.57C141.424 138.923 141.515 138.303 141.607 137.704C142.041 134.748 142.44 132.413 142.678 130.968C142.856 129.914 142.956 129.336 142.956 129.336L150.768 131.242L150.208 133.212L148.364 139.722L148.156 140.464L146.932 144.756L144.857 152.061C144.987 163.089 139.584 178.257 139.584 178.257Z" fill="#E4897B"/>
<path d="M158.159 176.443L155.936 176.33C154.244 164.664 153.532 150.073 153.224 139.93C153.181 138.359 153.141 136.892 153.111 135.556C153.111 135.49 153.111 135.425 153.111 135.36C153.055 132.717 153.029 130.617 153.016 129.284C153.016 128.243 153.016 127.674 153.016 127.674L161.032 128.199L160.689 131.541L160.185 136.445L160.085 137.409L159.738 140.751L158.801 149.73C160.849 160.58 158.159 176.443 158.159 176.443Z" fill="#E4897B"/>
<path d="M158.992 176.009C158.992 175.731 155.564 175.948 155.564 175.948C155.564 175.948 153.459 178.088 151.415 178.552C149.371 179.016 150.516 180.262 152.799 180.262H158.441C160.073 180.279 159.058 178.895 158.992 176.009Z" fill="#263238"/>
<path d="M153.462 176.742C153.413 176.697 153.378 176.638 153.363 176.573C153.349 176.508 153.354 176.439 153.38 176.378C153.393 176.329 153.416 176.284 153.448 176.244C153.479 176.205 153.518 176.172 153.562 176.148C153.805 176.048 154.071 176.018 154.33 176.061C154.053 175.913 153.809 175.735 153.796 175.553C153.796 175.436 153.866 175.34 154.022 175.267C154.09 175.236 154.164 175.22 154.239 175.22C154.314 175.22 154.388 175.236 154.456 175.267C154.92 175.462 155.207 176.26 155.22 176.291C155.229 176.313 155.229 176.338 155.22 176.36V176.382C155.212 176.392 155.201 176.399 155.19 176.404C154.747 176.63 154.268 176.777 153.775 176.838C153.662 176.845 153.551 176.811 153.462 176.742ZM153.653 176.308C153.63 176.32 153.609 176.337 153.592 176.357C153.574 176.377 153.561 176.4 153.553 176.425C153.519 176.56 153.553 176.595 153.553 176.608C153.718 176.742 154.343 176.551 154.855 176.339C154.466 176.216 154.049 176.204 153.653 176.304V176.308ZM154.087 175.44C154.039 175.44 153.961 175.505 153.966 175.553C153.966 175.705 154.465 175.987 154.968 176.165C154.856 175.864 154.651 175.607 154.382 175.431C154.339 175.411 154.291 175.401 154.243 175.401C154.194 175.401 154.145 175.411 154.1 175.431L154.087 175.44Z" fill="#263238"/>
<path d="M140.681 176.009C140.681 175.731 137.257 175.948 137.257 175.948C137.257 175.948 135.152 178.088 133.108 178.552C131.063 179.016 132.205 180.262 134.488 180.262H140.13C141.766 180.279 140.755 178.895 140.681 176.009Z" fill="#263238"/>
<path d="M135.156 176.742C135.107 176.697 135.074 176.637 135.059 176.573C135.044 176.508 135.049 176.44 135.074 176.378C135.087 176.329 135.11 176.284 135.141 176.244C135.173 176.205 135.212 176.172 135.256 176.148C135.499 176.049 135.765 176.019 136.024 176.061C135.746 175.913 135.503 175.735 135.494 175.553C135.494 175.437 135.568 175.342 135.716 175.267C135.784 175.236 135.858 175.22 135.933 175.22C136.008 175.22 136.082 175.236 136.15 175.267C136.614 175.462 136.901 176.26 136.914 176.291C136.919 176.302 136.922 176.313 136.922 176.326C136.922 176.338 136.919 176.349 136.914 176.36C136.914 176.36 136.914 176.36 136.914 176.382L136.883 176.404C136.439 176.63 135.959 176.776 135.464 176.838C135.353 176.843 135.244 176.809 135.156 176.742ZM135.347 176.308C135.324 176.32 135.304 176.337 135.287 176.357C135.271 176.377 135.259 176.4 135.251 176.425C135.217 176.56 135.251 176.595 135.273 176.608C135.434 176.742 136.059 176.551 136.575 176.339C136.177 176.211 135.751 176.199 135.347 176.304V176.308ZM135.781 175.44C135.733 175.44 135.655 175.505 135.659 175.553C135.659 175.705 136.159 175.987 136.666 176.165C136.552 175.864 136.346 175.607 136.076 175.431C136.033 175.411 135.985 175.4 135.937 175.401C135.888 175.401 135.839 175.411 135.794 175.431L135.781 175.44Z" fill="#263238"/>
<path d="M141.705 132.6L143.554 119.58V110.77C148.428 107.107 157.824 107.107 157.824 107.107C157.824 107.107 165.041 117.119 161.535 133.581L152.473 134.883L151.895 131.81L150.758 134.883L141.705 132.6Z" fill="#79A8F0"/>
<path opacity="0.2" d="M141.705 132.6L143.554 119.58V110.77C148.428 107.107 157.824 107.107 157.824 107.107C157.824 107.107 165.041 117.119 161.535 133.581L152.473 134.883L151.895 131.81L150.758 134.883L141.705 132.6Z" fill="white"/>
<path opacity="0.2" d="M151.896 131.858L153.632 126.437C153.632 126.437 155.464 125.882 157.816 122.245C157.825 122.245 157.417 128.434 151.896 131.858Z" fill="black"/>
<path opacity="0.2" d="M148.033 113.274L152.1 112.888C152.749 114.408 152.974 116.076 152.751 117.714L150.147 119.281L148.259 117.94C148.259 117.94 148.198 114.498 148.033 113.274Z" fill="black"/>
<path opacity="0.2" d="M157.824 112.28C158.37 113.621 158.773 115.016 159.026 116.442L160.467 117.054L161.244 116.086C161.244 116.086 160.719 113.252 159.829 111.863L157.824 112.28Z" fill="black"/>
<path d="M141.536 131.858L151.153 134.679L150.55 135.972L141.414 133.16L141.536 131.858Z" fill="#263238"/>
<path d="M152.1 134.492L152.26 135.681L161.691 134.492L161.834 132.995L152.1 134.492Z" fill="#263238"/>
<path d="M154.08 108.934C155.622 108.673 157.181 108.521 158.745 108.478L158.164 107.519C156.643 107.479 155.121 107.569 153.615 107.788L154.08 108.934Z" fill="#263238"/>
<path d="M145.428 110.114C144.183 110.653 143.467 111.056 143.467 111.056V112.241C144.167 111.888 144.869 111.565 145.572 111.273L145.428 110.114Z" fill="#263238"/>
<path d="M146.028 111.104C148.44 110.158 150.943 109.462 153.497 109.025L153.063 107.871C150.587 108.284 148.167 108.98 145.85 109.945L146.028 111.104Z" fill="#263238"/>
<path d="M119.954 114.494L117.489 113.504L117.055 115.83C117.055 115.83 119.277 117.176 120.206 115.574L119.954 114.494Z" fill="#E4897B"/>
<path d="M116.264 113.647L115.475 115.444L117.072 115.83L117.488 113.504L116.264 113.647Z" fill="#E4897B"/>
<path d="M157.785 89.4908L157.495 86.8521L155.246 87.5812C155.246 87.5812 155.108 90.1852 156.961 90.2373L157.785 89.4908Z" fill="#E4897B"/>
<path d="M156.787 85.8409L154.83 85.9971L155.247 87.5812L157.495 86.8521L156.787 85.8409Z" fill="#E4897B"/>
<path opacity="0.2" d="M139.348 106.456C138.662 105.714 137.946 104.933 137.256 104.16C136.992 102.546 136.822 101.122 136.822 101.122C137.649 101.735 138.312 102.543 138.752 103.473C139.193 104.403 139.398 105.428 139.348 106.456Z" fill="black"/>
<path d="M137.075 100.376C136.081 104.383 134.58 108.248 132.609 111.877C130.656 115.587 123.23 116.034 119.498 116.13L119.324 114.237C121.572 113.708 128.56 112.315 129.515 110.288C131.073 106.777 132.356 103.149 133.351 99.4381L137.075 100.367V100.376Z" fill="#DC897C"/>
<path d="M134.948 97.1032C132.825 98.492 131.688 102.103 131.328 103.869L135.738 107.116L137.964 104.946C138.867 99.9632 135.755 96.578 134.948 97.1032Z" fill="#B99AC8"/>
<path opacity="0.6" d="M134.948 97.1032C132.825 98.492 131.688 102.103 131.328 103.869L135.738 107.116L137.964 104.946C138.867 99.9632 135.755 96.578 134.948 97.1032Z" fill="#F4ACC4"/>
<path d="M156.475 90.3371L153.324 90.6756C153.28 90.6769 153.236 90.6689 153.195 90.6523C153.153 90.6356 153.116 90.6105 153.085 90.5787C153.054 90.5469 153.03 90.509 153.015 90.4674C152.999 90.4258 152.992 90.3815 152.995 90.3371L152.804 83.6665C152.797 83.5722 152.826 83.4789 152.883 83.4039C152.941 83.3289 153.023 83.2773 153.116 83.2586L156.263 82.9244C156.307 82.9224 156.352 82.9299 156.393 82.9464C156.435 82.9628 156.472 82.9879 156.503 83.0198C156.534 83.0518 156.558 83.0899 156.574 83.1318C156.589 83.1737 156.595 83.2184 156.592 83.2629L156.783 89.9335C156.789 90.0266 156.762 90.1188 156.705 90.193C156.648 90.2672 156.567 90.3184 156.475 90.3371Z" fill="#263238"/>
<path opacity="0.6" d="M156.475 90.3371L153.324 90.6756C153.28 90.6769 153.236 90.6689 153.195 90.6523C153.153 90.6356 153.116 90.6105 153.085 90.5787C153.054 90.5469 153.03 90.509 153.015 90.4674C152.999 90.4258 152.992 90.3815 152.995 90.3371L152.804 83.6665C152.797 83.5722 152.826 83.4789 152.883 83.4039C152.941 83.3289 153.023 83.2773 153.116 83.2586L156.263 82.9244C156.307 82.9224 156.352 82.9299 156.393 82.9464C156.435 82.9628 156.472 82.9879 156.503 83.0198C156.534 83.0518 156.558 83.0899 156.574 83.1318C156.589 83.1737 156.595 83.2184 156.592 83.2629L156.783 89.9335C156.789 90.0266 156.762 90.1188 156.705 90.193C156.648 90.2672 156.567 90.3184 156.475 90.3371Z" fill="white"/>
<path d="M156.196 90.3675L153.05 90.7017C153.005 90.7042 152.96 90.6973 152.919 90.6814C152.877 90.6655 152.839 90.6409 152.808 90.6094C152.776 90.5778 152.752 90.54 152.736 90.4983C152.72 90.4566 152.713 90.412 152.715 90.3675L152.529 83.6926C152.521 83.599 152.548 83.5059 152.605 83.4312C152.662 83.3566 152.745 83.3059 152.837 83.289L155.983 82.9548C156.028 82.9529 156.072 82.9603 156.113 82.9765C156.154 82.9926 156.191 83.0173 156.222 83.0487C156.253 83.0802 156.278 83.1179 156.293 83.1592C156.309 83.2006 156.316 83.2448 156.313 83.289L156.504 89.9639C156.512 90.0574 156.485 90.1506 156.428 90.2252C156.371 90.2998 156.288 90.3506 156.196 90.3675Z" fill="#263238"/>
<path opacity="0.7" d="M156.196 90.3675L153.05 90.7017C153.005 90.7042 152.96 90.6973 152.919 90.6814C152.877 90.6655 152.839 90.6409 152.808 90.6094C152.776 90.5778 152.752 90.54 152.736 90.4983C152.72 90.4566 152.713 90.412 152.715 90.3675L152.529 83.6926C152.521 83.599 152.548 83.5059 152.605 83.4312C152.662 83.3566 152.745 83.3059 152.837 83.289L155.983 82.9548C156.028 82.9529 156.072 82.9603 156.113 82.9765C156.154 82.9926 156.191 83.0173 156.222 83.0487C156.253 83.0802 156.278 83.1179 156.293 83.1592C156.309 83.2006 156.316 83.2448 156.313 83.289L156.504 89.9639C156.512 90.0574 156.485 90.1506 156.428 90.2252C156.371 90.2998 156.288 90.3506 156.196 90.3675Z" fill="white"/>
<path d="M155.989 83.085L155.165 83.1718L155.061 83.4278L153.785 83.5624L153.667 83.3323L152.843 83.4191C152.783 83.4316 152.73 83.4653 152.693 83.514C152.657 83.5627 152.639 83.6231 152.643 83.6839L152.83 90.3545C152.828 90.3835 152.832 90.4125 152.842 90.4397C152.853 90.4669 152.869 90.4916 152.889 90.5122C152.91 90.5327 152.934 90.5486 152.962 90.5589C152.989 90.5691 153.018 90.5734 153.047 90.5715L156.193 90.2373C156.253 90.2258 156.306 90.1929 156.343 90.145C156.379 90.097 156.397 90.0372 156.393 89.9769L156.206 83.302C156.208 83.2731 156.203 83.2444 156.192 83.2175C156.182 83.1906 156.166 83.1662 156.146 83.1458C156.125 83.1254 156.101 83.1095 156.074 83.099C156.047 83.0885 156.018 83.0837 155.989 83.085Z" fill="#B99AC8"/>
<path opacity="0.8" d="M155.568 85.498L153.255 85.7454C153.226 85.7466 153.198 85.742 153.172 85.7317C153.145 85.7215 153.122 85.7058 153.102 85.6858C153.082 85.6658 153.066 85.6419 153.056 85.6155C153.045 85.5892 153.041 85.561 153.042 85.5327V84.8904C153.037 84.8305 153.054 84.7708 153.09 84.7227C153.126 84.6746 153.178 84.6416 153.237 84.63L155.555 84.3826C155.583 84.382 155.611 84.3872 155.637 84.398C155.664 84.4088 155.687 84.4249 155.707 84.4453C155.726 84.4657 155.741 84.49 155.751 84.5165C155.761 84.5431 155.765 84.5714 155.763 84.5996L155.785 85.2419C155.789 85.3043 155.768 85.3658 155.728 85.4135C155.687 85.4611 155.63 85.4914 155.568 85.498Z" fill="white"/>
</g>
<defs>
<linearGradient id="paint0_linear_340_21260" x1="109" y1="52" x2="109" y2="183" gradientUnits="userSpaceOnUse">
<stop stop-color="#F4ACC4"/>
<stop offset="0.541667" stop-color="#B99AC8"/>
<stop offset="1" stop-color="#79A8F0"/>
</linearGradient>
<linearGradient id="paint1_linear_340_21260" x1="87.4349" y1="78.3371" x2="87.4349" y2="154.326" gradientUnits="userSpaceOnUse">
<stop stop-color="#F4ACC4"/>
<stop offset="0.541667" stop-color="#B99AC8"/>
<stop offset="1" stop-color="#79A8F0"/>
</linearGradient>
<clipPath id="clip0_340_21260">
<rect width="217" height="217" fill="white" transform="translate(0.5)"/>
</clipPath>
</defs>
</svg>
