<svg width="280" height="251" viewBox="0 0 280 251" fill="none" xmlns="http://www.w3.org/2000/svg">
<g opacity="0.34">
<path d="M201.621 244.083C206.858 233.096 217.402 224.936 224.815 215.292C233.375 204.157 240.751 192.08 246.194 179.113C255.704 156.459 259.137 130.845 253.188 107.008C251.138 98.7893 247.83 90.5816 241.731 84.7044C235.63 78.8271 226.25 75.7837 218.404 78.9718C210.065 82.3604 205.144 91.7363 196.595 94.5536C189.325 96.9503 181.206 93.8391 175.374 88.8798C169.542 83.9205 165.417 77.3106 160.807 71.1997C150.575 57.6318 136.708 45.7295 119.993 42.6634C113.929 41.551 107.357 41.7213 101.999 44.7723C94.2153 49.2055 90.6474 58.592 83.6833 64.2266C72.9658 72.897 57.1186 70.7942 44.5742 76.5132C32.9025 81.8358 25.1651 93.6733 22.0599 106.118C16.4539 128.59 24.5863 149.988 29.5667 171.691C35.2345 196.386 43.3246 220.446 51.6318 244.356C52.9281 248.088 119.781 244.237 125.456 244.228C150.644 244.184 176.616 242.958 201.553 244.222C201.577 244.176 201.6 244.13 201.621 244.083Z" fill="#79A8F0" fill-opacity="0.6"/>
</g>
<g opacity="0.34">
<path d="M66.0843 54.259C46.7311 54.4609 25.1996 57.3581 12.1065 73.2806C0.121278 87.857 1.74625 110.117 3.21293 127.751C6.64976 169.085 22.8029 208.552 49.0058 240.647C50.8463 242.902 54.0298 239.687 52.2029 237.45C28.4088 208.304 13.0757 172.626 8.50234 135.254C6.45833 118.553 3.73901 95.6638 12.5497 80.5161C23.3094 62.0129 46.7386 58.9831 66.0859 58.7811C68.9921 58.7494 68.9996 54.2273 66.0843 54.259Z" fill="#79A8F0" fill-opacity="0.6"/>
</g>
<g opacity="0.34">
<path d="M161.009 42.7069C168.429 55.9387 179.136 72.44 196.665 70.6086C204.134 69.8277 210.343 65.2935 216.722 61.7678C221.479 59.1374 226.956 56.5356 232.548 57.8848C239.992 59.6816 242.025 65.8905 243.71 72.4024C245.403 78.9489 249.627 82.7249 255.112 86.3185C263.329 91.7014 270.172 96.3969 273.297 106.311C280.023 127.652 266.559 147.749 254.048 163.836C252.283 166.106 255.46 169.329 257.245 167.033C268.673 152.339 280.352 135.649 279.515 116.145C279.17 108.102 276.745 99.9483 271.704 93.5796C266.433 86.9215 258.362 84.5081 252.422 78.771C245.798 72.3752 248.113 62.1356 239.927 56.4015C233.855 52.1492 226.709 52.3662 220.061 55.0705C210.268 59.0545 201.687 68.2103 190.246 65.794C177.601 63.1229 170.7 50.7473 164.913 40.4262C163.49 37.8848 159.583 40.1624 161.009 42.7069Z" fill="#79A8F0" fill-opacity="0.6"/>
</g>
<path d="M140.188 250.809C203.513 250.809 254.849 248.688 254.849 246.072C254.849 243.455 203.513 241.334 140.188 241.334C76.8626 241.334 25.5273 243.455 25.5273 246.072C25.5273 248.688 76.8626 250.809 140.188 250.809Z" fill="#79A8F0" fill-opacity="0.6"/>
<path d="M229.396 117.17C229.396 115.685 232.084 111.962 232.084 111.962C232.084 111.962 234.772 115.685 234.772 117.17C234.772 118.655 233.569 119.858 232.084 119.858C230.599 119.858 229.396 118.655 229.396 117.17Z" fill="#AACBFF"/>
<path d="M204.33 117.17C204.33 115.685 207.018 111.962 207.018 111.962C207.018 111.962 209.705 115.685 209.705 117.17C209.705 118.655 208.503 119.858 207.018 119.858C205.533 119.858 204.33 118.655 204.33 117.17Z" fill="#AACBFF"/>
<path d="M216.045 133.802C216.045 132.317 218.733 128.594 218.733 128.594C218.733 128.594 221.42 132.317 221.42 133.802C221.42 135.287 220.217 136.489 218.733 136.489C217.248 136.489 216.045 135.287 216.045 133.802Z" fill="#AACBFF"/>
<path d="M190.215 133.802C190.215 132.317 192.902 128.594 192.902 128.594C192.902 128.594 195.59 132.317 195.59 133.802C195.59 135.287 194.387 136.489 192.902 136.489C191.418 136.489 190.215 135.287 190.215 133.802Z" fill="#AACBFF"/>
<path d="M184.672 117.17C184.672 115.685 187.36 111.962 187.36 111.962C187.36 111.962 190.047 115.685 190.047 117.17C190.047 118.655 188.844 119.858 187.36 119.858C185.875 119.858 184.672 118.655 184.672 117.17Z" fill="#AACBFF"/>
<path d="M202.309 149.929C202.309 148.444 204.996 144.721 204.996 144.721C204.996 144.721 207.684 148.444 207.684 149.929C207.684 151.413 206.481 152.616 204.996 152.616C203.512 152.616 202.309 151.412 202.309 149.929Z" fill="#AACBFF"/>
<path d="M245.201 94.7414C244.509 94.7414 243.835 94.8093 243.17 94.9087C241.502 82.5784 230.939 73.0713 218.151 73.0713C208.773 73.0713 200.596 78.1858 196.24 85.774C194.972 85.4846 193.653 85.3263 192.298 85.3263C183.464 85.3263 176.148 91.8216 174.865 100.298C174.135 100.09 173.368 99.972 172.572 99.972C167.95 99.972 164.203 103.719 164.203 108.341H231.603H241.342H258.802C258.8 100.83 252.711 94.7414 245.201 94.7414Z" fill="#3D495C"/>
<path d="M151.043 141.197C144.469 134.743 124.201 183.702 124.201 183.702C122.431 183.949 130.123 195.446 131.007 194.549C135.931 189.553 140.533 171.804 141.044 170.354C141.044 170.354 148.176 149.41 149.727 143.562C149.977 142.613 151.163 141.316 151.043 141.197Z" fill="#FFF9F5"/>
<path d="M132.677 199.581C149.763 195.73 149.863 149.15 149.863 149.15C149.863 149.15 137.407 164.842 128.851 191.401C128.048 193.893 132.677 199.581 132.677 199.581Z" fill="#FFF9F5"/>
<path d="M154.652 135.091C154.652 135.091 157.017 133.214 156.806 133.968C156.597 134.721 155.905 135.746 155.213 136.771L154.652 135.091Z" fill="#BF0059"/>
<path d="M143.18 139.452C143.18 139.452 141 139.71 141.271 140.192C141.543 140.675 143.533 140.822 143.533 140.822L143.18 139.452Z" fill="#BF0059"/>
<path d="M125.32 109.518C125.592 109.997 107.714 141.578 112.62 141.929L152.427 140.078L143.296 120.368L125.32 109.518Z" fill="#020C2B"/>
<path d="M126.267 106.372C119.091 117.214 112.167 128.153 109.167 140.951C108.964 141.822 110.305 142.195 110.51 141.322C113.489 128.616 120.357 117.822 127.47 107.076C127.964 106.326 126.76 105.627 126.267 106.372Z" fill="#020C2B"/>
<path d="M158.15 139.458L126.714 108.732C125.538 106.648 127.192 98.1527 128.663 96.2595C132.693 91.0756 139.08 88.6879 145.64 88.3698C169.704 87.2076 175.569 123.78 154.792 141.267C154.792 141.267 162.505 134.318 162.299 135.141" fill="#020C2B"/>
<path d="M150.021 108.531C150.217 108.778 152.669 111.179 153.352 108.653C153.697 107.378 156.836 106.743 158.548 109.777C160.279 112.845 156.803 115.802 154.991 116.666C154.468 116.915 154.07 117.36 153.869 117.902C153.253 119.572 152.063 123.327 152.247 127.011C152.495 131.952 157.116 140.144 157.116 140.144C157.116 140.144 149.43 147.373 142.166 145.756C142.166 145.756 141.2 126.827 138.937 127.108C132.966 127.846 128.318 126.517 125.931 113.042C123.682 100.343 133.587 97.3686 135.877 96.8712C137.807 96.4476 141.142 97.3158 150.021 108.531Z" fill="#EDB3AF"/>
<path d="M139.156 127.116C139.156 127.116 140.587 126.569 143.323 125.728C145.329 125.112 148.106 122.487 148.106 122.487L141.625 140.693C141.625 140.693 140.48 128.372 139.156 127.116Z" fill="#CF696F"/>
<path d="M141.578 142.621C142.175 143.224 130.272 175.188 138.415 183.724C143.774 189.342 158.679 201.46 158.741 202.695L198.489 211.728C198.489 211.728 188.628 140.693 172.8 134.425C172.8 134.425 158.776 134.131 156.095 135.01C156.095 135.01 143.949 152.277 141.578 142.621Z" fill="#FFF9F5"/>
<path d="M91.0828 223.044L87.1923 235.316L77.3145 228.133L80.0081 220.351L91.0828 223.044Z" fill="#DBA6A2"/>
<path d="M154.839 206.284L133.417 144.465C122.515 130.561 107.968 140.739 103.657 150.315L73.7266 220.653L96.7729 224.543C96.7729 224.543 111.37 191.744 114.732 183.239C114.732 183.239 116.945 242.202 156.036 242.202C189.558 242.202 185.068 207.783 185.068 207.783L154.839 206.284Z" fill="#79A8F0"/>
<path d="M90.6089 239.741C90.7099 240.552 90.0753 241.263 89.2583 241.247C83.8588 241.14 65.7642 240.929 59.9095 240.859C59.2824 240.852 59.3096 240.27 59.4935 239.671C62.1464 231.017 76.8389 225.603 76.8389 225.603C76.8389 225.603 77.971 225.131 78.8393 226.732C79.7723 228.45 80.5215 232.223 82.9213 231.461C85.1673 230.746 87.9695 229.677 88.99 229.331C89.7934 229.058 90.6089 239.741 90.6089 239.741Z" fill="#F7EDA6"/>
<path d="M71.1738 228.767L75.7367 229.93" stroke="white" stroke-width="0.5669" stroke-miterlimit="10" stroke-linecap="round"/>
<path d="M67.8691 230.992L72.432 232.156" stroke="white" stroke-width="0.5669" stroke-miterlimit="10" stroke-linecap="round"/>
<path d="M99.0654 223.644L95.1748 235.916L85.2969 228.733L87.9905 220.95L99.0654 223.644Z" fill="#EDB3AF"/>
<path d="M162.821 206.883L141.4 145.063C130.497 131.159 115.951 141.336 111.64 150.913L81.709 221.25L104.755 225.141C104.755 225.141 119.353 192.342 122.714 183.837C122.714 183.837 124.927 242.8 164.018 242.8C197.541 242.8 193.05 208.38 193.05 208.38L162.821 206.883Z" fill="#91BCFF"/>
<path d="M98.5912 240.34C98.6922 241.151 98.0576 241.863 97.2406 241.846C91.8397 241.739 73.7466 241.528 67.8919 241.459C67.2648 241.451 67.292 240.869 67.4759 240.271C70.1289 231.619 84.8213 226.203 84.8213 226.203C84.8213 226.203 85.9534 225.731 86.8216 227.332C87.7532 229.05 88.5039 232.823 90.9036 232.06C93.1496 231.346 95.9518 230.279 96.9723 229.93C97.7758 229.657 98.5912 240.34 98.5912 240.34Z" fill="#FFF7BF"/>
<path d="M79.1562 229.366L83.7191 230.53" stroke="white" stroke-width="0.5669" stroke-miterlimit="10" stroke-linecap="round"/>
<path d="M75.8516 231.592L80.4144 232.756" stroke="white" stroke-width="0.5669" stroke-miterlimit="10" stroke-linecap="round"/>
<path d="M97.025 183.857C140.988 204.379 161.33 221.28 176.206 170.267C170.618 168.072 163.237 165.877 156.452 163.683C152.063 195.409 139.487 186.069 107.097 173.983C105.005 171.809 104.28 167.302 103.716 167.786C101.72 169.497 103.52 172.796 101.865 172.777C100.209 172.756 97.7561 169.073 96.4718 170.684C95.1875 172.296 98.6454 174.176 98.6454 175.353C98.6454 175.675 95.587 171.892 95.1845 172.374C94.1384 173.63 97.5993 177.043 97.7606 177.204C97.3898 178.056 94.4007 172.661 94.0585 174.064C93.7163 175.467 95.2946 178.56 96.0709 179.699C96.8472 180.837 94.0585 176.963 93.8972 177.847C93.1721 179.616 94.4655 182.27 97.025 183.857Z" fill="#FFC0AD"/>
<path d="M96.7822 169.073C95.7015 170.609 89.3779 159.414 100.726 156.517C100.726 156.517 104.107 157.483 102.656 158.327C101.208 159.173 99.6388 159.655 99.6388 159.655C99.6388 159.655 102.254 162.311 101.61 163.357C100.967 164.403 98.0696 161.667 98.0696 161.667C98.0696 161.667 100.484 164.243 99.9206 164.806C99.3568 165.369 97.3445 164.001 97.3445 164.001C97.3445 164.001 99.0343 166.093 98.5519 166.818C98.0696 167.543 96.2984 166.657 96.2984 166.657C96.2984 166.657 97.5465 167.986 96.7822 169.073Z" fill="#FFC0AD"/>
<path d="M171.59 135.431C174.726 135.505 181.371 141.934 181.371 158.096C181.371 166.369 173.29 197.406 173.29 197.406C173.29 197.406 149.408 180.327 149.546 179.647C151.341 170.668 157.087 153.639 157.087 153.639C157.087 153.639 161.264 135.187 171.59 135.431Z" fill="#FFF9F5"/>
<path d="M134.611 93.1872C134.262 92.9536 155.579 93.9545 153.944 104.936C153.898 105.245 153.515 105.287 152.946 105.174L155.312 106.647C154.079 107.096 152.878 110.635 151.717 110.023C150.555 109.411 149.595 108.484 148.671 107.551C146.092 104.948 143.665 102.197 141.393 99.3223C140.588 98.8369 140.086 98.5249 140.086 98.5249L141.856 103.819C139.519 106.505 125.033 109.776 125.033 109.776C118.608 95.7573 134.611 93.1872 134.611 93.1872Z" fill="#020C2B"/>
<path d="M134.962 93.7893C136.105 93.1804 141.397 94.6576 143.052 95.0947C145.182 95.6585 147.359 96.367 149.229 97.5593C149.92 97.9995 155.235 104.606 152.945 104.48C152.228 104.44 152.038 105.431 152.594 105.776C152.989 106.022 153.382 106.267 153.777 106.512C154.763 107.106 154.864 107.181 154.083 106.738C154.309 109.477 149.584 107.146 148.397 106.269C145.274 103.961 143.758 99.9681 140.435 97.9241C139.935 97.6151 139.219 98.1306 139.413 98.7094C139.778 99.8023 141.157 102.252 140.958 103.333C140.695 104.766 136.992 105.643 135.472 106.163C133.943 106.685 126.595 109.905 125.131 109.041C124.32 108.562 124.163 103.423 124.391 102.163C124.876 99.4707 126.586 97.5096 128.853 96.0941C130.627 94.9862 132.731 94.2189 134.796 93.8617C135.677 93.7094 135.304 92.3679 134.427 92.5201C125.286 94.0968 120.778 101.281 124.362 109.965C124.511 110.325 124.813 110.544 125.218 110.452C130.585 109.226 138.161 108.167 142.347 104.315C142.52 104.156 142.601 103.863 142.526 103.639C141.979 102 141.21 100.322 140.854 98.6386C139.336 99.5656 139.813 100.529 142.282 101.53C142.755 102.089 143.229 102.65 143.7 103.209C145.401 105.065 146.999 107.06 148.895 108.727C153.019 112.356 152.408 109.832 155.803 107.145C156.169 106.855 156.005 106.264 155.663 106.052C154.875 105.56 154.086 105.071 153.296 104.579C153.179 105.012 153.063 105.444 152.945 105.876C155.09 105.995 154.917 103.943 154.555 102.222C153.931 99.2536 151.598 97.2427 149.035 95.856C146.156 94.2958 137.571 90.8288 134.26 92.5925C133.468 93.0085 134.171 94.2099 134.962 93.7893Z" fill="#020C2B"/>
<path d="M157.635 110.703C157.635 110.703 154.197 107.574 153.998 113.741L157.635 110.703Z" fill="#CF696F"/>
<path d="M134.377 113.762C134.377 113.762 136.119 113.1 135.696 115.02C135.274 116.942 134.377 113.762 134.377 113.762Z" fill="#020C2B"/>
<path d="M133.875 110.394C133.301 110.164 134.422 111.531 135.138 111.552C135.854 111.573 136.45 111.089 136.468 110.471C136.468 110.471 135.254 110.946 133.875 110.394Z" fill="#020C2B"/>
<path d="M128.378 111.113C128.779 110.623 128.45 112.4 127.82 112.774C127.19 113.147 126.418 113.008 126.096 112.464C126.096 112.464 127.416 112.289 128.378 111.113Z" fill="#020C2B"/>
<path d="M127.66 114.851C127.66 114.851 129.403 114.19 128.979 116.11C128.556 118.032 127.66 114.851 127.66 114.851Z" fill="#020C2B"/>
<path d="M132.519 118.222L130.738 118.342C130.611 118.351 130.486 118.314 130.385 118.238L131.476 115.144L132.519 118.222Z" fill="#CF696F"/>
<path opacity="0.31" d="M141.555 117.858C141.555 119.519 140.207 120.867 138.546 120.867C136.885 120.867 135.537 119.519 135.537 117.858C135.537 116.197 136.885 114.85 138.546 114.85C140.207 114.85 141.555 116.197 141.555 117.858Z" fill="#FF479D"/>
<path opacity="0.31" d="M126.977 117.678C128.1 118.115 128.894 119.206 128.894 120.483C128.894 120.985 128.725 121.481 128.508 121.897C128.508 121.897 127.659 120.007 127.299 118.837L126.977 117.678Z" fill="#FF479D"/>
<path d="M145.674 57.4854L145.837 59.1508L147.474 58.8084C148.644 58.5638 149.788 58.4071 150.939 58.4071C157.311 58.4071 163.217 61.9973 167.589 68.0779C171.725 73.8319 174.41 81.7316 174.686 90.5544H143.769H125.674H1.9801C2.24354 85.4683 3.83451 80.9445 6.21396 77.6344C8.82664 73.9998 12.3034 71.9228 15.9912 71.9228C17.2594 71.9228 18.4979 72.1845 19.697 72.6607L21.5285 73.3881L21.7418 71.4289C22.9069 60.7263 26.805 51.3394 32.3415 44.6594C37.8755 37.9825 44.9834 34.0692 52.6436 34.0692C54.9964 34.0692 57.2946 34.4528 59.5135 35.1577L60.828 35.5753L61.3542 34.3004C69.3157 15.0118 84.0842 2.39551 100.68 2.39551C112.008 2.39551 122.459 8.24867 130.509 18.1145C138.562 27.9831 144.149 41.8041 145.674 57.4854Z" fill="white" stroke="#79A8F0" stroke-width="3"/>
<path d="M106.98 109.298C106.98 106.401 110.752 99.1318 110.752 99.1318C110.752 99.1318 114.524 106.401 114.524 109.298C114.524 112.195 112.835 114.545 110.752 114.545C108.67 114.548 106.98 112.199 106.98 109.298Z" fill="#AACBFF"/>
<path d="M71.7891 109.298C71.7891 106.401 75.561 99.1318 75.561 99.1318C75.561 99.1318 79.3329 106.401 79.3329 109.298C79.3329 112.195 77.6438 114.545 75.561 114.545C73.4782 114.548 71.7891 112.199 71.7891 109.298Z" fill="#AACBFF"/>
<path d="M88.2266 141.773C88.2266 138.875 91.9985 131.606 91.9985 131.606C91.9985 131.606 95.7704 138.875 95.7704 141.773C95.7704 144.67 94.0813 147.02 91.9985 147.02C89.9157 147.02 88.2266 144.67 88.2266 141.773Z" fill="#AACBFF"/>
<path d="M51.9844 141.773C51.9844 138.875 55.7563 131.606 55.7563 131.606C55.7563 131.606 59.5282 138.875 59.5282 141.773C59.5282 144.67 57.8391 147.02 55.7563 147.02C53.6735 147.02 51.9844 144.67 51.9844 141.773Z" fill="#AACBFF"/>
<path d="M44.2109 109.298C44.2109 106.401 47.9829 99.1318 47.9829 99.1318C47.9829 99.1318 51.7546 106.401 51.7546 109.298C51.7546 112.195 50.0656 114.545 47.9829 114.545C45.9001 114.548 44.2109 112.199 44.2109 109.298Z" fill="#AACBFF"/>
<path d="M68.9727 173.258C68.9727 170.361 72.7446 163.092 72.7446 163.092C72.7446 163.092 76.5165 170.361 76.5165 173.258C76.5165 176.155 74.8273 178.505 72.7446 178.505C70.6618 178.508 68.9727 176.159 68.9727 173.258Z" fill="#AACBFF"/>
</svg>
