<svg width="280" height="251" viewBox="0 0 280 251" fill="none" xmlns="http://www.w3.org/2000/svg">
<g opacity="0.34">
<path d="M201.621 244.083C206.858 233.096 217.402 224.936 224.815 215.292C233.375 204.157 240.751 192.08 246.194 179.113C255.704 156.459 259.137 130.845 253.188 107.008C251.138 98.7893 247.83 90.5816 241.731 84.7044C235.63 78.8271 226.25 75.7837 218.404 78.9718C210.065 82.3604 205.144 91.7363 196.595 94.5536C189.325 96.9503 181.206 93.8391 175.374 88.8798C169.542 83.9205 165.417 77.3106 160.807 71.1997C150.575 57.6318 136.708 45.7295 119.993 42.6634C113.929 41.551 107.357 41.7213 101.999 44.7723C94.2154 49.2055 90.6474 58.592 83.6833 64.2266C72.9658 72.897 57.1186 70.7942 44.5742 76.5132C32.9025 81.8358 25.1651 93.6733 22.0599 106.118C16.4539 128.59 24.5863 149.988 29.5667 171.691C35.2345 196.386 43.3246 220.446 51.6318 244.356C52.9281 248.088 119.781 244.237 125.456 244.228C150.644 244.184 176.616 242.958 201.553 244.222C201.577 244.176 201.6 244.13 201.621 244.083Z" fill="#F4ACC4" fill-opacity="0.6"/>
</g>
<g opacity="0.34">
<path d="M66.0843 54.259C46.7311 54.4609 25.1996 57.3581 12.1065 73.2806C0.121278 87.857 1.74625 110.117 3.21293 127.751C6.64976 169.085 22.8029 208.552 49.0058 240.647C50.8463 242.902 54.0298 239.687 52.2029 237.45C28.4088 208.304 13.0757 172.626 8.50234 135.254C6.45833 118.553 3.73901 95.6638 12.5497 80.5161C23.3094 62.0129 46.7386 58.9831 66.0859 58.7811C68.9921 58.7494 68.9996 54.2273 66.0843 54.259Z" fill="#F4ACC4" fill-opacity="0.6"/>
</g>
<g opacity="0.34">
<path d="M161.009 42.7069C168.429 55.9387 179.136 72.44 196.665 70.6086C204.134 69.8277 210.343 65.2935 216.722 61.7678C221.479 59.1374 226.956 56.5356 232.548 57.8848C239.992 59.6816 242.025 65.8905 243.71 72.4024C245.403 78.9489 249.627 82.7249 255.112 86.3185C263.329 91.7014 270.172 96.3969 273.297 106.311C280.023 127.652 266.559 147.749 254.048 163.836C252.283 166.106 255.46 169.329 257.245 167.033C268.673 152.339 280.352 135.649 279.515 116.145C279.17 108.102 276.745 99.9483 271.704 93.5796C266.433 86.9215 258.362 84.5081 252.422 78.771C245.798 72.3752 248.113 62.1356 239.927 56.4015C233.855 52.1492 226.709 52.3662 220.061 55.0705C210.268 59.0545 201.687 68.2103 190.246 65.794C177.601 63.1229 170.7 50.7473 164.913 40.4262C163.49 37.8848 159.583 40.1624 161.009 42.7069Z" fill="#F4ACC4" fill-opacity="0.6"/>
</g>
<path d="M140.188 250.809C203.513 250.809 254.849 248.688 254.849 246.072C254.849 243.455 203.513 241.334 140.188 241.334C76.8626 241.334 25.5273 243.455 25.5273 246.072C25.5273 248.688 76.8626 250.809 140.188 250.809Z" fill="#F4ACC4" fill-opacity="0.6"/>
<path d="M229.396 117.17C229.396 115.685 232.084 111.962 232.084 111.962C232.084 111.962 234.772 115.685 234.772 117.17C234.772 118.655 233.569 119.858 232.084 119.858C230.599 119.858 229.396 118.655 229.396 117.17Z" fill="#FFCBDC"/>
<path d="M204.33 117.17C204.33 115.685 207.018 111.962 207.018 111.962C207.018 111.962 209.705 115.685 209.705 117.17C209.705 118.655 208.503 119.858 207.018 119.858C205.533 119.858 204.33 118.655 204.33 117.17Z" fill="#FFCBDC"/>
<path d="M216.045 133.802C216.045 132.317 218.733 128.594 218.733 128.594C218.733 128.594 221.42 132.317 221.42 133.802C221.42 135.287 220.217 136.489 218.733 136.489C217.248 136.489 216.045 135.287 216.045 133.802Z" fill="#FFCBDC"/>
<path d="M190.215 133.802C190.215 132.317 192.902 128.594 192.902 128.594C192.902 128.594 195.59 132.317 195.59 133.802C195.59 135.287 194.387 136.489 192.902 136.489C191.418 136.489 190.215 135.287 190.215 133.802Z" fill="#FFCBDC"/>
<path d="M184.672 117.17C184.672 115.685 187.36 111.962 187.36 111.962C187.36 111.962 190.047 115.685 190.047 117.17C190.047 118.655 188.844 119.858 187.36 119.858C185.875 119.858 184.672 118.655 184.672 117.17Z" fill="#FFCBDC"/>
<path d="M202.309 149.929C202.309 148.444 204.996 144.721 204.996 144.721C204.996 144.721 207.684 148.444 207.684 149.929C207.684 151.413 206.481 152.616 204.996 152.616C203.512 152.616 202.309 151.412 202.309 149.929Z" fill="#FFCBDC"/>
<path d="M245.201 94.7414C244.509 94.7414 243.835 94.8093 243.17 94.9087C241.502 82.5784 230.939 73.0713 218.151 73.0713C208.773 73.0713 200.596 78.1858 196.24 85.774C194.972 85.4846 193.653 85.3263 192.298 85.3263C183.464 85.3263 176.148 91.8216 174.865 100.298C174.135 100.09 173.368 99.972 172.572 99.972C167.95 99.972 164.203 103.719 164.203 108.341H231.603H241.342H258.802C258.8 100.83 252.711 94.7414 245.201 94.7414Z" fill="#3D495C"/>
<path d="M151.254 140.354C144.71 133.901 124.532 182.859 124.532 182.859C122.77 183.106 130.428 194.603 131.307 193.706C136.21 188.711 140.791 170.961 141.3 169.511C141.3 169.511 148.4 148.567 149.944 142.719C150.193 141.771 151.374 140.473 151.254 140.354Z" fill="#FFF9F5"/>
<path d="M132.97 198.739C149.98 194.887 150.079 148.308 150.079 148.308C150.079 148.308 137.679 163.999 129.162 190.558C128.362 193.05 132.97 198.739 132.97 198.739Z" fill="#FFF9F5"/>
<path d="M154.848 134.248C154.848 134.248 157.202 132.371 156.992 133.125C156.784 133.878 156.095 134.904 155.406 135.929L154.848 134.248Z" fill="#BF0059"/>
<path d="M143.427 138.609C143.427 138.609 141.257 138.867 141.527 139.349C141.797 139.832 143.778 139.98 143.778 139.98L143.427 138.609Z" fill="#BF0059"/>
<path d="M125.648 108.675C125.918 109.154 108.121 140.735 113.005 141.087L152.635 139.235L143.544 119.525L125.648 108.675Z" fill="#020C2B"/>
<path d="M126.591 105.529C119.447 116.371 112.554 127.311 109.568 140.108C109.365 140.98 110.701 141.352 110.905 140.479C113.87 127.773 120.707 116.979 127.789 106.233C128.281 105.484 127.082 104.784 126.591 105.529Z" fill="#020C2B"/>
<path d="M158.33 138.615L127.034 107.889C125.864 105.806 127.51 97.31 128.975 95.4167C132.987 90.2328 139.346 87.8451 145.876 87.5271C169.833 86.3649 175.672 122.937 154.987 140.424C154.987 140.424 162.666 133.475 162.46 134.298" fill="#020C2B"/>
<path d="M150.238 107.688C150.433 107.935 152.875 110.336 153.555 107.81C153.898 106.535 157.023 105.9 158.727 108.935C160.45 112.002 156.99 114.96 155.186 115.823C154.665 116.072 154.269 116.517 154.069 117.059C153.455 118.73 152.271 122.484 152.455 126.169C152.701 131.11 157.302 139.301 157.302 139.301C157.302 139.301 149.65 146.53 142.418 144.913C142.418 144.913 141.456 125.985 139.204 126.265C133.26 127.004 128.632 125.674 126.256 112.2C124.017 99.4999 133.878 96.5258 136.157 96.0284C138.078 95.6048 141.399 96.4731 150.238 107.688Z" fill="#EDB3AF"/>
<path d="M139.422 126.274C139.422 126.274 140.846 125.727 143.57 124.885C145.567 124.269 148.331 121.645 148.331 121.645L141.88 139.851C141.88 139.851 140.739 127.529 139.422 126.274Z" fill="#CF696F"/>
<path d="M141.832 141.778C142.426 142.381 130.577 174.345 138.684 182.881C144.019 188.499 158.857 200.617 158.919 201.852L198.489 210.886C198.489 210.886 188.672 139.85 172.915 133.582C172.915 133.582 158.953 133.288 156.285 134.167C156.285 134.167 144.193 151.434 141.832 141.778Z" fill="#FFF9F5"/>
<path d="M91.5624 222.202L87.6892 234.473L77.8555 227.29L80.5371 219.508L91.5624 222.202Z" fill="#DBA6A2"/>
<path d="M155.033 205.441L133.708 143.622C122.853 129.718 108.372 139.896 104.08 149.472L74.2832 219.81L97.2267 223.7C97.2267 223.7 111.759 190.901 115.105 182.397C115.105 182.397 117.308 241.359 156.225 241.359C189.598 241.359 185.127 206.94 185.127 206.94L155.033 205.441Z" fill="#F4ACC4"/>
<path d="M91.0906 238.898C91.1911 239.709 90.5593 240.42 89.746 240.404C84.3706 240.297 66.3568 240.086 60.5282 240.016C59.9039 240.009 59.931 239.427 60.114 238.829C62.7552 230.175 77.3821 224.76 77.3821 224.76C77.3821 224.76 78.5091 224.288 79.3735 225.889C80.3024 227.608 81.0482 231.381 83.4373 230.618C85.6732 229.903 88.463 228.835 89.4789 228.488C90.2787 228.215 91.0906 238.898 91.0906 238.898Z" fill="#F7EDA6"/>
<path d="M71.7422 227.924L76.2847 229.088" stroke="white" stroke-width="0.5669" stroke-miterlimit="10" stroke-linecap="round"/>
<path d="M68.4531 230.149L72.9956 231.313" stroke="white" stroke-width="0.5669" stroke-miterlimit="10" stroke-linecap="round"/>
<path d="M99.5097 222.801L95.6366 235.073L85.8027 227.89L88.4844 220.107L99.5097 222.801Z" fill="#EDB3AF"/>
<path d="M162.981 206.041L141.655 144.22C130.801 130.316 116.319 140.494 112.027 150.07L82.2305 220.408L105.174 224.298C105.174 224.298 119.706 191.499 123.053 182.994C123.053 182.994 125.256 241.957 164.172 241.957C197.545 241.957 193.075 207.537 193.075 207.537L162.981 206.041Z" fill="#FFBBD2"/>
<path d="M99.0377 239.498C99.1383 240.309 98.5065 241.02 97.6932 241.003C92.3163 240.896 74.304 240.685 68.4755 240.616C67.8512 240.608 67.8782 240.027 68.0613 239.428C70.7025 230.776 85.3293 225.36 85.3293 225.36C85.3293 225.36 86.4563 224.888 87.3207 226.489C88.2481 228.207 88.9954 231.98 91.3844 231.217C93.6204 230.503 96.4101 229.436 97.4261 229.088C98.2259 228.815 99.0377 239.498 99.0377 239.498Z" fill="#FFF7BF"/>
<path d="M79.6895 228.523L84.2319 229.687" stroke="white" stroke-width="0.5669" stroke-miterlimit="10" stroke-linecap="round"/>
<path d="M76.4004 230.749L80.9428 231.913" stroke="white" stroke-width="0.5669" stroke-miterlimit="10" stroke-linecap="round"/>
<path d="M97.477 183.015C141.244 203.536 161.495 220.437 176.305 169.424C170.742 167.229 163.393 165.035 156.639 162.84C152.269 194.566 139.749 185.226 107.504 173.14C105.421 170.966 104.7 166.459 104.138 166.943C102.151 168.654 103.943 171.953 102.296 171.934C100.646 171.913 98.2048 168.23 96.9262 169.842C95.6477 171.453 99.0901 173.333 99.0901 174.51C99.0901 174.833 96.0453 171.049 95.6447 171.531C94.6032 172.787 98.0487 176.2 98.2093 176.361C97.8401 177.213 94.8643 171.818 94.5237 173.221C94.183 174.625 95.7542 177.718 96.5271 178.856C97.2999 179.994 94.5237 176.12 94.3631 177.005C93.6413 178.773 94.9289 181.427 97.477 183.015Z" fill="#FFC0AD"/>
<path d="M97.2369 168.23C96.1609 169.766 89.8656 158.571 101.163 155.674C101.163 155.674 104.528 156.64 103.085 157.484C101.643 158.33 100.081 158.812 100.081 158.812C100.081 158.812 102.684 161.468 102.043 162.514C101.403 163.56 98.5184 160.825 98.5184 160.825C98.5184 160.825 100.922 163.401 100.361 163.963C99.7999 164.527 97.7966 163.158 97.7966 163.158C97.7966 163.158 99.4789 165.25 98.9986 165.975C98.5184 166.7 96.7552 165.814 96.7552 165.814C96.7552 165.814 97.9977 167.144 97.2369 168.23Z" fill="#FFC0AD"/>
<path d="M171.71 134.588C174.833 134.662 181.448 141.091 181.448 157.253C181.448 165.526 173.403 196.563 173.403 196.563C173.403 196.563 149.628 179.484 149.764 178.804C151.552 169.825 157.272 152.796 157.272 152.796C157.272 152.796 161.43 134.344 171.71 134.588Z" fill="#FFF9F5"/>
<path d="M134.898 92.3445C134.55 92.1108 155.772 93.1117 154.144 104.093C154.099 104.402 153.717 104.444 153.15 104.331L155.506 105.804C154.279 106.253 153.083 109.792 151.927 109.18C150.77 108.568 149.814 107.641 148.894 106.708C146.327 104.105 143.911 101.354 141.649 98.4795C140.848 97.9941 140.348 97.6821 140.348 97.6821L142.11 102.976C139.784 105.662 125.363 108.933 125.363 108.933C118.965 94.9145 134.898 92.3445 134.898 92.3445Z" fill="#020C2B"/>
<path d="M135.247 92.9466C136.385 92.3376 141.653 93.8148 143.301 94.252C145.422 94.8157 147.589 95.5242 149.451 96.7165C150.138 97.1567 155.429 103.764 153.15 103.637C152.436 103.598 152.247 104.588 152.8 104.933C153.193 105.179 153.585 105.425 153.978 105.669C154.96 106.263 155.06 106.338 154.283 105.895C154.508 108.634 149.803 106.303 148.622 105.426C145.513 103.118 144.003 99.1253 140.696 97.0813C140.198 96.7723 139.485 97.2878 139.679 97.8667C140.042 98.9595 141.415 101.409 141.217 102.49C140.954 103.923 137.268 104.801 135.754 105.321C134.233 105.842 126.917 109.062 125.46 108.198C124.653 107.719 124.496 102.58 124.723 101.32C125.206 98.6279 126.908 96.6668 129.165 95.2514C130.931 94.1434 133.026 93.3762 135.082 93.0189C135.958 92.8667 135.588 91.5251 134.714 91.6773C125.614 93.2541 121.126 100.438 124.695 109.122C124.843 109.483 125.143 109.701 125.547 109.609C130.889 108.384 138.431 107.324 142.599 103.473C142.771 103.313 142.852 103.02 142.777 102.796C142.233 101.157 141.467 99.4796 141.113 97.7958C139.602 98.7228 140.076 99.6861 142.534 100.687C143.005 101.246 143.477 101.807 143.946 102.366C145.639 104.222 147.23 106.218 149.118 107.885C153.223 111.513 152.616 108.99 155.995 106.302C156.36 106.013 156.196 105.422 155.856 105.209C155.071 104.718 154.286 104.228 153.5 103.736C153.383 104.169 153.267 104.602 153.15 105.033C155.285 105.152 155.113 103.1 154.753 101.379C154.131 98.4108 151.808 96.4 149.257 95.0132C146.391 93.453 137.845 89.9861 134.548 91.7497C133.76 92.1657 134.459 93.3671 135.247 92.9466Z" fill="#020C2B"/>
<path d="M157.818 109.86C157.818 109.86 154.395 106.731 154.197 112.898Z" fill="#CF696F"/>
<path d="M134.664 112.919C134.664 112.919 136.399 112.257 135.977 114.177C135.557 116.099 134.664 112.919 134.664 112.919Z" fill="#020C2B"/>
<path d="M134.165 109.552C133.593 109.321 134.71 110.688 135.423 110.709C136.136 110.73 136.728 110.246 136.746 109.628C136.746 109.628 135.538 110.103 134.165 109.552Z" fill="#020C2B"/>
<path d="M128.692 110.27C129.091 109.78 128.764 111.558 128.137 111.931C127.509 112.304 126.741 112.165 126.42 111.621C126.42 111.621 127.735 111.446 128.692 110.27Z" fill="#020C2B"/>
<path d="M127.977 114.009C127.977 114.009 129.711 113.347 129.29 115.267C128.868 117.189 127.977 114.009 127.977 114.009Z" fill="#020C2B"/>
<path d="M132.814 117.379L131.041 117.499C130.915 117.508 130.79 117.471 130.689 117.395L131.776 114.301L132.814 117.379Z" fill="#CF696F"/>
<path opacity="0.31" d="M141.809 117.016C141.809 118.677 140.467 120.024 138.814 120.024C137.16 120.024 135.818 118.677 135.818 117.016C135.818 115.354 137.16 114.007 138.814 114.007C140.467 114.007 141.809 115.354 141.809 117.016Z" fill="#FF479D"/>
<path opacity="0.31" d="M127.297 116.835C128.415 117.272 129.206 118.363 129.206 119.64C129.206 120.142 129.038 120.638 128.822 121.054C128.822 121.054 127.977 119.164 127.618 117.994L127.297 116.835Z" fill="#FF479D"/>
<path d="M145.674 57.4854L145.837 59.1508L147.474 58.8084C148.644 58.5638 149.788 58.4071 150.939 58.4071C157.311 58.4071 163.217 61.9973 167.589 68.0779C171.725 73.8319 174.41 81.7316 174.686 90.5544H143.769H125.674H1.9801C2.24354 85.4683 3.83451 80.9445 6.21396 77.6344C8.82664 73.9998 12.3034 71.9228 15.9912 71.9228C17.2594 71.9228 18.4979 72.1845 19.697 72.6607L21.5285 73.388L21.7418 71.4289C22.9069 60.7263 26.805 51.3394 32.3415 44.6594C37.8755 37.9825 44.9834 34.0692 52.6436 34.0692C54.9964 34.0692 57.2946 34.4528 59.5135 35.1577L60.828 35.5753L61.3542 34.3004C69.3157 15.0118 84.0842 2.39551 100.68 2.39551C112.008 2.39551 122.459 8.24867 130.509 18.1145C138.562 27.9831 144.149 41.8041 145.674 57.4854Z" fill="white" stroke="#F4ACC4" stroke-width="3"/>
<path d="M106.98 109.298C106.98 106.401 110.752 99.1318 110.752 99.1318C110.752 99.1318 114.524 106.401 114.524 109.298C114.524 112.195 112.835 114.545 110.752 114.545C108.67 114.548 106.98 112.199 106.98 109.298Z" fill="#FFCBDC"/>
<path d="M71.7891 109.298C71.7891 106.401 75.561 99.1318 75.561 99.1318C75.561 99.1318 79.3329 106.401 79.3329 109.298C79.3329 112.195 77.6438 114.545 75.561 114.545C73.4782 114.548 71.7891 112.199 71.7891 109.298Z" fill="#FFCBDC"/>
<path d="M88.2266 141.773C88.2266 138.875 91.9985 131.606 91.9985 131.606C91.9985 131.606 95.7704 138.875 95.7704 141.773C95.7704 144.67 94.0813 147.02 91.9985 147.02C89.9157 147.02 88.2266 144.67 88.2266 141.773Z" fill="#FFCBDC"/>
<path d="M51.9844 141.773C51.9844 138.875 55.7563 131.606 55.7563 131.606C55.7563 131.606 59.5282 138.875 59.5282 141.773C59.5282 144.67 57.8391 147.02 55.7563 147.02C53.6735 147.02 51.9844 144.67 51.9844 141.773Z" fill="#FFCBDC"/>
<path d="M44.2109 109.298C44.2109 106.401 47.9829 99.1318 47.9829 99.1318C47.9829 99.1318 51.7546 106.401 51.7546 109.298C51.7546 112.195 50.0656 114.545 47.9829 114.545C45.9001 114.548 44.2109 112.199 44.2109 109.298Z" fill="#FFCBDC"/>
<path d="M68.9727 173.258C68.9727 170.361 72.7446 163.092 72.7446 163.092C72.7446 163.092 76.5165 170.361 76.5165 173.258C76.5165 176.155 74.8273 178.505 72.7446 178.505C70.6618 178.508 68.9727 176.159 68.9727 173.258Z" fill="#FFCBDC"/>
</svg>
