<svg width="298" height="307" viewBox="0 0 298 307" fill="none" xmlns="http://www.w3.org/2000/svg">
<g filter="url(#filter0_d_69_11028)">
<path d="M66.4746 150.822V78.4098C66.4746 74.9538 67.8475 71.6394 70.2913 69.1956C72.7351 66.7518 76.0495 65.3789 79.5055 65.3789C82.9624 65.3789 86.2778 66.7515 88.723 69.195C91.1682 71.6386 92.5431 74.953 92.5455 78.4098V84.2284" stroke="#263238" stroke-width="4" stroke-linecap="round" stroke-linejoin="round"/>
<path d="M92.2305 86.1045V115.008" stroke="#263238" stroke-linecap="round" stroke-linejoin="round"/>
<path d="M78.7246 107.16V121.297" stroke="#263238" stroke-linecap="round" stroke-linejoin="round"/>
<path d="M110.137 93.342L78.7246 107.155" stroke="#263238" stroke-width="4" stroke-linecap="round" stroke-linejoin="round"/>
<path d="M110.135 109.359V93.342" stroke="#263238" stroke-linecap="round" stroke-linejoin="round"/>
<path d="M95.684 86.1042C95.684 85.4212 95.4815 84.7536 95.102 84.1857C94.7226 83.6178 94.1832 83.1752 93.5522 82.9138C92.9212 82.6524 92.2269 82.584 91.557 82.7173C90.8871 82.8505 90.2718 83.1794 89.7888 83.6624C89.3059 84.1453 88.9769 84.7607 88.8437 85.4305C88.7105 86.1004 88.7788 86.7948 89.0402 87.4258C89.3016 88.0568 89.7442 88.5961 90.3121 88.9756C90.88 89.355 91.5477 89.5576 92.2307 89.5576C93.1466 89.5576 94.0249 89.1937 94.6726 88.5461C95.3202 87.8985 95.684 87.0201 95.684 86.1042Z" fill="#B99AC8" stroke="#263238" stroke-linecap="round" stroke-linejoin="round"/>
<path d="M89.0463 126.185L84.6217 131.473L86.4653 138.119L80.0712 135.547L74.3247 139.351L74.7923 132.471L69.3965 128.19L76.0873 126.509L78.4975 120.052L82.1576 125.897L89.0463 126.185Z" fill="#B99AC8" stroke="#263238" stroke-linecap="round" stroke-linejoin="round"/>
<path d="M87.6627 121.185C89.5799 121.185 91.134 119.631 91.134 117.714C91.134 115.797 89.5799 114.243 87.6627 114.243C85.7456 114.243 84.1914 115.797 84.1914 117.714C84.1914 119.631 85.7456 121.185 87.6627 121.185Z" fill="white" stroke="#263238" stroke-linecap="round" stroke-linejoin="round"/>
<path d="M92.5 118.673C94.7102 118.673 96.5019 116.882 96.5019 114.672C96.5019 112.461 94.7102 110.67 92.5 110.67C90.2898 110.67 88.498 112.461 88.498 114.672C88.498 116.882 90.2898 118.673 92.5 118.673Z" fill="white" stroke="#263238" stroke-linecap="round" stroke-linejoin="round"/>
<path d="M96.9883 121.424C98.7713 121.424 100.217 119.978 100.217 118.195C100.217 116.412 98.7713 114.967 96.9883 114.967C95.2052 114.967 93.7598 116.412 93.7598 118.195C93.7598 119.978 95.2052 121.424 96.9883 121.424Z" fill="white" stroke="#263238" stroke-linecap="round" stroke-linejoin="round"/>
<path d="M95.1901 118.105C95.1883 118.695 95.0117 119.271 94.6826 119.761C94.3534 120.251 93.8865 120.632 93.3408 120.857C92.7951 121.081 92.195 121.139 91.6165 121.023C91.0379 120.907 90.5067 120.622 90.0901 120.204C89.6734 119.786 89.3899 119.254 89.2755 118.675C89.161 118.096 89.2206 117.496 89.4469 116.951C89.6731 116.406 90.0558 115.94 90.5466 115.613C91.0374 115.285 91.6143 115.11 92.2044 115.11C92.5973 115.11 92.9863 115.188 93.3491 115.338C93.7119 115.489 94.0415 115.709 94.3188 115.988C94.5962 116.266 94.8159 116.596 94.9654 116.959C95.115 117.323 95.1913 117.712 95.1901 118.105Z" fill="white" stroke="#263238" stroke-linecap="round" stroke-linejoin="round"/>
<path d="M106.916 107.14C106.259 107.143 105.603 107.225 104.965 107.383C106.407 108.129 107.589 109.296 108.351 110.73C109.114 112.163 109.422 113.795 109.235 115.408C109.047 117.021 108.373 118.539 107.302 119.759C106.231 120.98 104.813 121.845 103.238 122.24C104.313 122.795 105.501 123.098 106.71 123.128C107.92 123.157 109.12 122.912 110.221 122.41C111.322 121.908 112.294 121.163 113.066 120.231C113.837 119.298 114.386 118.203 114.672 117.027C114.959 115.852 114.975 114.627 114.719 113.444C114.463 112.262 113.942 111.153 113.195 110.201C112.448 109.249 111.495 108.479 110.408 107.949C109.32 107.419 108.126 107.142 106.916 107.14Z" fill="white" stroke="#263238" stroke-linecap="round" stroke-linejoin="round"/>
<path d="M72.2665 216.136H252.298C255.003 216.136 257.597 217.21 259.509 219.123C261.422 221.035 262.496 223.629 262.496 226.334V242.036H62.0684V226.289C62.0803 223.592 63.1599 221.01 65.0712 219.107C66.9824 217.204 69.5696 216.136 72.2665 216.136Z" fill="#B99AC8" stroke="#263238" stroke-linecap="round" stroke-linejoin="round"/>
<path d="M95.7114 216.138H67.2933C65.9501 216.099 64.6463 216.594 63.667 217.514C62.6878 218.435 62.113 219.705 62.0684 221.048V242.038H95.7114V216.138Z" fill="white" stroke="#263238" stroke-linecap="round" stroke-linejoin="round"/>
<path d="M71.2868 152.101H67.5996V241.6H71.2868V152.101Z" fill="white" stroke="#263238" stroke-linecap="round" stroke-linejoin="round"/>
<path d="M81.5289 152.101H77.8418V241.6H81.5289V152.101Z" fill="white" stroke="#263238" stroke-linecap="round" stroke-linejoin="round"/>
<path d="M91.7633 152.101H88.0762V241.6H91.7633V152.101Z" fill="white" stroke="#263238" stroke-linecap="round" stroke-linejoin="round"/>
<path d="M102.007 152.101H98.3203V241.6H102.007V152.101Z" fill="white" stroke="#263238" stroke-linecap="round" stroke-linejoin="round"/>
<path d="M112.242 152.101H108.555V241.6H112.242V152.101Z" fill="white" stroke="#263238" stroke-linecap="round" stroke-linejoin="round"/>
<path d="M122.482 152.101H118.795V241.6H122.482V152.101Z" fill="white" stroke="#263238" stroke-linecap="round" stroke-linejoin="round"/>
<path d="M132.726 152.101H129.039V241.6H132.726V152.101Z" fill="white" stroke="#263238" stroke-linecap="round" stroke-linejoin="round"/>
<path d="M142.963 152.101H139.275V241.6H142.963V152.101Z" fill="white" stroke="#263238" stroke-linecap="round" stroke-linejoin="round"/>
<path d="M153.205 152.101H149.518V241.6H153.205V152.101Z" fill="white" stroke="#263238" stroke-linecap="round" stroke-linejoin="round"/>
<path d="M163.437 152.101H159.75V241.6H163.437V152.101Z" fill="white" stroke="#263238" stroke-linecap="round" stroke-linejoin="round"/>
<path d="M173.683 152.101H169.996V241.6H173.683V152.101Z" fill="white" stroke="#263238" stroke-linecap="round" stroke-linejoin="round"/>
<path d="M183.916 152.101H180.229V241.6H183.916V152.101Z" fill="white" stroke="#263238" stroke-linecap="round" stroke-linejoin="round"/>
<path d="M194.158 152.101H190.471V241.6H194.158V152.101Z" fill="white" stroke="#263238" stroke-linecap="round" stroke-linejoin="round"/>
<path d="M204.392 152.101H200.705V241.6H204.392V152.101Z" fill="white" stroke="#263238" stroke-linecap="round" stroke-linejoin="round"/>
<path d="M214.636 152.101H210.949V241.6H214.636V152.101Z" fill="white" stroke="#263238" stroke-linecap="round" stroke-linejoin="round"/>
<path d="M224.869 152.101H221.182V241.6H224.869V152.101Z" fill="white" stroke="#263238" stroke-linecap="round" stroke-linejoin="round"/>
<path d="M235.113 152.101H231.426V241.6H235.113V152.101Z" fill="white" stroke="#263238" stroke-linecap="round" stroke-linejoin="round"/>
<path d="M245.355 152.101H241.668V241.6H245.355V152.101Z" fill="white" stroke="#263238" stroke-linecap="round" stroke-linejoin="round"/>
<path d="M255.59 152.101H251.902V241.6H255.59V152.101Z" fill="white" stroke="#263238" stroke-linecap="round" stroke-linejoin="round"/>
<path d="M262.496 150.796H62.0684V154.258H262.496V150.796Z" fill="white" stroke="#263238" stroke-linecap="round" stroke-linejoin="round"/>
<path d="M262.496 239.448H62.0684V251.984H262.496V239.448Z" fill="white" stroke="#263238" stroke-linecap="round" stroke-linejoin="round"/>
<path d="M62.0776 117.509H56.5469V287H62.0776V117.509Z" fill="white" stroke="#263238" stroke-linecap="round" stroke-linejoin="round"/>
<path d="M62.0776 132.712H56.5469V286.987H62.0776V132.712Z" fill="white" stroke="#263238" stroke-linecap="round" stroke-linejoin="round"/>
<path d="M267.109 117.509H261.578V287H267.109V117.509Z" fill="white" stroke="#263238" stroke-linecap="round" stroke-linejoin="round"/>
<path d="M267.109 132.712H261.578V286.987H267.109V132.712Z" fill="white" stroke="#263238" stroke-linecap="round" stroke-linejoin="round"/>
<path d="M186.055 89.1947C183.567 81.8143 176.037 77.2631 167.557 75.6854C159.077 74.1077 148.126 74.2973 141.98 86.9192C136.99 97.1668 136.103 108.757 131.266 120.484C126.429 132.211 101.419 155.497 117.2 178.048C131.388 198.331 175.179 202.427 186.896 177.093C196.18 156.999 179.381 128.274 180.1 119.134C180.82 109.993 188.787 97.2806 186.055 89.1947Z" fill="#263238"/>
<path d="M184.876 102.16C182.642 108.077 181.05 114.342 181.287 120.858C181.34 122.51 181.626 124.146 182.137 125.72C182.603 127.282 183.162 128.8 183.713 130.271C184.853 133.305 186.009 136.263 186.95 139.282C188.997 145.249 190.16 151.478 190.402 157.775C190.541 164.074 189.471 170.342 187.249 176.245C188.689 173.402 189.803 170.407 190.57 167.317C191.312 164.198 191.722 161.01 191.795 157.806C191.986 151.366 190.654 144.911 188.695 138.789C187.685 135.717 186.514 132.721 185.351 129.687C184.188 126.653 182.948 123.786 182.718 120.714C182.471 117.595 182.592 114.459 183.078 111.369C183.487 108.266 184.087 105.19 184.876 102.16Z" fill="#263238"/>
<path d="M138.935 95.9883C136.639 102.019 134.595 108.125 132.047 114.011C130.775 116.938 129.323 119.785 127.7 122.537C126.085 125.237 124.042 127.77 122.128 130.395C120.215 133.019 118.371 135.705 116.672 138.504C114.99 141.313 113.563 144.265 112.409 147.325C111.304 150.419 110.65 153.652 110.465 156.928C110.453 160.22 111.117 163.479 112.417 166.508C111.468 163.428 111.11 160.2 111.36 156.989C111.712 153.837 112.508 150.751 113.725 147.818C116.212 141.962 119.802 136.615 123.674 131.427C125.542 128.802 127.585 126.269 129.246 123.379C130.852 120.537 132.237 117.578 133.386 114.527C135.616 108.466 137.469 102.274 138.935 95.9883Z" fill="#263238"/>
<path d="M182.374 209.472C185.021 228.2 177.422 251.486 177.422 251.486C177.185 252.108 186.697 287.744 186.606 290.308H137.182C134.511 281.592 125.48 266.96 125.48 266.96C125.48 266.96 108.154 254.725 105.582 240.981C102.835 226.114 108.72 209.472 108.72 209.472C108.72 209.472 182.366 209.456 182.374 209.472Z" fill="#263238"/>
<path d="M160.133 290.313H108.742C108.742 290.313 114.268 257.082 114.26 257.074C96.2906 240.386 108.742 209.477 108.742 209.477H182.901C185.771 229.782 175.516 252.417 175.516 252.417C167.855 269.635 161.533 289.956 160.133 290.313Z" fill="#37474F"/>
<path d="M183.231 211.878C183.575 211.742 182.626 193.636 182.626 193.636C182.626 193.636 190.884 181.833 187.532 172.541C185.825 167.838 169.876 139.925 162.598 133.667C155.779 127.788 144.491 132.256 140.404 136.238C127.394 148.868 115.952 181.059 108.406 209.974C108.399 209.982 155.297 223.029 183.231 211.878Z" fill="#EB9481"/>
<path d="M182.61 193.636C154.156 199.917 123.483 193.143 113.924 190.67C121.057 167.854 130.256 146.092 140.396 136.246C144.49 132.271 155.771 127.796 162.59 133.682C169.868 139.948 185.825 167.816 187.524 172.549C190.883 181.841 182.61 193.636 182.61 193.636Z" fill="#B99AC8"/>
<path d="M175.133 186.953C171.481 187.079 167.861 187.679 164.365 188.736C160.853 189.722 153.085 192.771 151.133 193.522C151.08 193.522 151.133 193.613 151.133 193.598C153.668 193.003 156.165 192.259 158.61 191.368C162.062 190.207 165.498 189.153 169.064 188.25C171.057 187.76 173.079 187.398 175.118 187.166C175.146 187.168 175.174 187.158 175.196 187.14C175.218 187.121 175.231 187.095 175.233 187.067C175.235 187.039 175.225 187.011 175.207 186.99C175.188 186.968 175.162 186.955 175.133 186.953Z" fill="#263238"/>
<path d="M181.553 188.752C177.745 188.443 173.912 188.779 170.219 189.746C170.219 189.746 170.219 189.837 170.219 189.829C172.094 189.609 173.961 189.389 175.844 189.23C177.726 189.071 179.67 188.98 181.522 188.858C181.537 188.862 181.552 188.861 181.565 188.854C181.578 188.847 181.587 188.835 181.591 188.821C181.595 188.806 181.594 188.791 181.586 188.779C181.579 188.766 181.567 188.756 181.553 188.752Z" fill="#263238"/>
<path d="M145.86 135.026C145.997 136.611 151.653 150.135 160.102 149.802C163.653 149.665 163.117 136.065 163.117 136.065L168.276 122.7L152.411 109.152C152.411 109.152 145.814 134.351 145.86 135.026Z" fill="#EB9481"/>
<path d="M168.276 122.7L163.271 135.67C156.741 131.951 151.953 125.829 149.947 118.634C151.279 113.499 152.412 109.152 152.412 109.152L168.276 122.7Z" fill="#263238"/>
<path d="M190.048 107.195C188.073 130.557 173.731 132.021 168.619 131.589C164.027 131.202 148.354 129.314 147.887 105.868C147.42 82.4215 158.999 75.9589 169.591 76.2851C180.183 76.6112 192.022 83.84 190.048 107.195Z" fill="#EB9481"/>
<path d="M186 103.28C185.479 103.117 184.969 102.927 184.469 102.711C183.902 102.583 183.394 102.274 183.023 101.831C182.933 101.669 182.9 101.483 182.927 101.301C182.955 101.119 183.042 100.95 183.176 100.822C183.481 100.611 183.838 100.485 184.209 100.456C184.58 100.426 184.952 100.495 185.288 100.655C186.026 100.867 186.657 101.346 187.056 101.998C187.141 102.154 187.177 102.331 187.16 102.508C187.143 102.684 187.074 102.852 186.961 102.989C186.847 103.126 186.696 103.227 186.525 103.279C186.354 103.331 186.171 103.331 186 103.28Z" fill="#263238"/>
<path d="M169.661 102.832C170.22 102.832 170.741 102.779 171.292 102.749C171.87 102.794 172.448 102.65 172.937 102.339C173.072 102.214 173.161 102.047 173.19 101.866C173.219 101.685 173.187 101.499 173.098 101.338C172.868 101.051 172.566 100.83 172.221 100.697C171.877 100.563 171.504 100.523 171.139 100.58C170.379 100.569 169.642 100.84 169.072 101.338C168.956 101.46 168.877 101.613 168.845 101.778C168.812 101.943 168.828 102.114 168.89 102.27C168.951 102.427 169.057 102.563 169.193 102.662C169.33 102.762 169.492 102.821 169.661 102.832Z" fill="#263238"/>
<path d="M172.584 107.681C172.584 107.62 172.446 107.741 172.439 107.802C172.285 109.395 171.834 111.185 170.319 111.526C170.273 111.526 170.265 111.617 170.319 111.617C172.117 111.595 172.691 109.213 172.584 107.681Z" fill="#263238"/>
<path d="M171.375 105.844C168.834 105.313 167.954 110.395 170.311 110.88C172.668 111.366 173.503 106.283 171.375 105.844Z" fill="#263238"/>
<path d="M170.326 105.946C169.829 106.158 169.301 106.59 168.75 106.552C168.199 106.515 167.739 105.893 167.418 105.316C167.418 105.255 167.334 105.316 167.318 105.316C167.135 106.287 167.318 107.349 168.367 107.675C169.415 108.001 170.142 107.228 170.556 106.287C170.632 106.15 170.525 105.855 170.326 105.946Z" fill="#263238"/>
<path d="M182.021 108.58C182.021 108.519 182.128 108.679 182.112 108.739C181.783 110.302 181.669 112.145 183.008 112.926C183.008 112.926 183.008 113.025 183.008 113.01C181.271 112.456 181.454 110.006 182.021 108.58Z" fill="#263238"/>
<path d="M183.728 107.194C186.315 107.452 185.603 112.557 183.207 112.314C180.812 112.072 181.562 106.974 183.728 107.194Z" fill="#263238"/>
<path d="M184.761 107.672C185.129 107.998 185.458 108.551 185.94 108.65C186.422 108.749 186.996 108.263 187.47 107.785C187.47 107.74 187.547 107.785 187.539 107.854C187.432 108.832 186.958 109.803 186.009 109.864C185.06 109.924 184.601 108.991 184.478 107.983C184.432 107.8 184.608 107.543 184.761 107.672Z" fill="#263238"/>
<path d="M170.656 119.817C170.947 120.264 171.215 120.848 171.773 121.015C172.361 121.14 172.969 121.14 173.556 121.015C173.568 121.013 173.579 121.015 173.59 121.02C173.6 121.025 173.608 121.033 173.614 121.044C173.619 121.054 173.62 121.065 173.618 121.077C173.616 121.088 173.611 121.098 173.602 121.106C173.311 121.365 172.954 121.541 172.57 121.614C172.186 121.688 171.789 121.656 171.421 121.523C171.119 121.371 170.869 121.134 170.702 120.841C170.536 120.548 170.461 120.212 170.488 119.877C170.48 119.756 170.61 119.748 170.656 119.817Z" fill="#263238"/>
<path d="M178.217 115.166C178.217 115.166 178.163 117.571 177.987 118.678C177.987 118.784 177.689 118.792 177.306 118.754C177.306 118.754 177.306 118.754 177.26 118.754C176.271 118.779 175.294 118.533 174.437 118.041C173.581 117.55 172.879 116.833 172.408 115.97C172.347 115.849 172.508 115.758 172.599 115.841C173.871 117.034 175.498 117.786 177.237 117.988C177.367 117.692 177.184 113.869 177.367 113.884C178.225 114.093 179.049 114.42 179.816 114.855C180.069 109.841 179.503 104.835 179.816 99.8514C179.816 99.677 180.099 99.6618 180.122 99.8514C181.087 105.055 180.888 110.827 180.804 116.008C180.804 116.622 178.638 115.424 178.217 115.166Z" fill="#263238"/>
<path d="M177.367 118.322C176.613 119.17 175.651 119.81 174.573 120.181C173.982 120.374 173.343 120.374 172.752 120.181C171.459 119.748 171.512 118.557 171.826 117.556C171.997 117.025 172.231 116.516 172.522 116.039C173.849 117.294 175.547 118.094 177.367 118.322Z" fill="#263238"/>
<path d="M174.573 120.203C173.982 120.396 173.343 120.396 172.752 120.203C171.459 119.77 171.512 118.579 171.826 117.578C173.219 117.775 174.543 118.822 174.573 120.203Z" fill="#FF9CBD"/>
<path d="M147.36 104.626C151.087 105.945 154.148 98.2085 154.148 98.2085C154.148 98.2085 161.939 100.317 167.541 89.8648C166.412 93.137 164.342 96.0108 161.587 98.1327C161.587 98.1327 175.73 100.37 184.63 90.5474C184.63 90.5474 180.735 95.7358 178.01 97.2225C178.01 97.2225 184.209 97.1694 188.289 93.2857C188.289 93.2857 188.901 100.514 190.255 102.828C190.255 102.828 196.194 78.8282 173.212 75.3921C173.212 75.3921 159.008 72.5704 151.018 82.2188C143.028 91.8673 147.36 104.626 147.36 104.626Z" fill="#263238"/>
<path d="M151.889 106.408C151.889 106.408 148.063 98.3294 144.443 99.581C140.823 100.833 142.844 111.915 146.471 113.993C146.917 114.293 147.42 114.5 147.949 114.602C148.478 114.704 149.022 114.698 149.549 114.586C150.076 114.474 150.575 114.258 151.015 113.95C151.455 113.642 151.828 113.249 152.111 112.794L151.889 106.408Z" fill="#EB9481"/>
<path d="M145.102 102.758C145.092 102.762 145.084 102.769 145.078 102.777C145.072 102.786 145.068 102.797 145.068 102.807C145.068 102.818 145.072 102.828 145.078 102.837C145.084 102.846 145.092 102.852 145.102 102.856C147.628 104.373 148.622 107.157 149.181 109.918C148.546 108.781 147.536 108.045 146.028 108.773C145.944 108.811 146.028 108.932 146.074 108.925C146.578 108.855 147.091 108.942 147.542 109.175C147.993 109.407 148.36 109.773 148.592 110.222C148.983 110.97 149.288 111.758 149.503 112.573C149.587 112.839 150.046 112.786 150.008 112.49C150.008 112.49 150.008 112.444 150.008 112.429C150.62 108.97 148.791 103.706 145.102 102.758Z" fill="#263238"/>
<path d="M195.107 206.132C195.03 206.602 196.377 210.121 195.872 210.895C195.367 211.669 176.793 214.362 176.089 211.995C175.324 209.439 183.604 205.987 183.321 205.57C183.321 205.57 180.482 201.709 178.982 194.359C177.742 188.291 178.331 185.052 181.431 179.333C185.939 171.042 198.597 173.378 199.561 182.003C200.204 187.677 194.556 193.768 194.204 195.99C193.752 198.827 195.122 206.018 195.107 206.132Z" fill="#A6A6A6"/>
<path d="M177.352 179.733C177.498 179.361 183.903 179.945 190.684 178.595C198.911 176.957 203.694 173.953 204.023 174.4C205.21 176.137 207.773 182.706 206.664 188.463C205.554 194.221 196.653 196.974 190.416 197.24C184.179 197.505 174.176 195.063 177.207 181.136C177.128 180.664 177.178 180.179 177.352 179.733Z" fill="#DBDBDB"/>
<path d="M204.231 174.724C195.621 180.466 178.211 180.603 177.354 179.731C177.354 179.731 177.851 166.464 180.415 161.124C180.866 160.191 190.188 157.544 193.211 159.334C198.445 162.413 204.384 174.626 204.231 174.724Z" fill="#DBDBDB"/>
<path d="M191.755 209.945C191.502 210.347 191.349 214.11 190.576 214.618C189.803 215.126 171.658 210.393 171.949 207.943C172.263 205.296 181.232 205.334 181.132 204.848C181.132 204.848 180.046 200.191 181.576 192.848C182.847 186.78 184.638 184.034 189.78 179.953C197.204 174.075 207.926 181.152 205.4 189.458C203.74 194.927 196.14 198.332 194.939 200.244C193.408 202.694 191.824 209.847 191.755 209.945Z" fill="#C7C7C7"/>
<path d="M179.403 160.163C179.357 159.753 177.107 155.611 177.474 155.285C177.841 154.959 186.237 152.691 186.872 153.298C187.507 153.905 189.275 157.72 189.306 158.714C189.336 159.707 183.627 165.374 181.492 165.169C179.357 164.964 179.732 163.386 179.403 160.163Z" fill="#EB9481"/>
<path d="M194.173 152.063C192.818 157.66 188.28 160.611 185.571 161.749C181.369 163.509 169.4 166.224 165.183 158.995C162.336 154.111 161.188 141.64 163.255 137.84C166.124 132.531 176.005 128.495 184.331 130.96C191.043 132.97 195.528 146.495 194.173 152.063Z" fill="#EB9481"/>
<path d="M168.276 162.113C167.28 161.615 166.395 160.924 165.674 160.08C165.313 159.654 165.003 159.188 164.748 158.692C164.458 158.204 164.202 157.697 163.983 157.175C163.173 155.123 162.608 152.985 162.299 150.803C161.96 148.633 161.82 146.437 161.878 144.242C161.978 142.073 162.131 139.789 163.217 137.848C162.833 138.862 162.608 139.929 162.552 141.011C162.455 142.085 162.427 143.164 162.467 144.242C162.534 146.398 162.73 148.549 163.057 150.682C163.356 152.815 163.848 154.917 164.526 156.962C164.692 157.482 164.897 157.989 165.138 158.48C165.34 158.967 165.596 159.43 165.904 159.86C166.547 160.75 167.352 161.514 168.276 162.113Z" fill="#263238"/>
<path d="M175.286 148.68C174.927 148.68 174.598 148.558 174.238 148.498C173.859 148.484 173.495 148.345 173.205 148.103C173.129 148.008 173.088 147.89 173.088 147.769C173.088 147.648 173.129 147.531 173.205 147.436C173.375 147.264 173.588 147.141 173.822 147.078C174.056 147.015 174.303 147.016 174.536 147.079C175.03 147.135 175.485 147.37 175.814 147.739C175.886 147.83 175.929 147.939 175.938 148.053C175.947 148.168 175.922 148.283 175.865 148.383C175.809 148.483 175.724 148.565 175.621 148.618C175.518 148.671 175.402 148.692 175.286 148.68Z" fill="#263238"/>
<path d="M164.144 149.277C164.478 149.165 164.805 149.033 165.123 148.883C165.491 148.796 165.818 148.587 166.049 148.291C166.105 148.186 166.125 148.066 166.104 147.949C166.083 147.832 166.023 147.726 165.934 147.646C165.734 147.512 165.501 147.433 165.26 147.42C165.019 147.407 164.778 147.459 164.564 147.57C164.096 147.724 163.703 148.046 163.462 148.473C163.41 148.573 163.389 148.686 163.402 148.797C163.414 148.909 163.46 149.014 163.533 149.1C163.606 149.186 163.702 149.249 163.811 149.28C163.92 149.312 164.035 149.311 164.144 149.277Z" fill="#263238"/>
<path d="M168.606 149.914C168.659 152.19 168.721 151.348 168.675 153.601C168.193 153.715 165.95 154.086 166.149 154.253C166.991 154.848 167.876 155.38 168.797 155.846C168.629 156.476 168.208 157.363 168.261 157.409C168.654 157.793 169.123 158.091 169.638 158.286C170.153 158.481 170.704 158.567 171.254 158.539C171.805 158.511 172.344 158.37 172.837 158.124C173.329 157.879 173.765 157.534 174.116 157.113C174.277 156.9 174.116 156.718 173.925 156.938C173.232 157.574 172.334 157.948 171.39 157.992C170.447 158.036 169.517 157.749 168.767 157.181C168.97 156.72 169.126 156.239 169.233 155.747C169.233 155.687 167.703 154.86 167.068 154.382C167.741 154.246 168.598 154.132 169.073 154.033C169.187 154.033 169.279 152.235 168.812 149.884C168.804 149.862 168.787 149.843 168.766 149.831C168.745 149.819 168.721 149.814 168.697 149.818C168.673 149.821 168.651 149.833 168.634 149.85C168.618 149.868 168.608 149.89 168.606 149.914Z" fill="#263238"/>
<path d="M166.761 153.155C166.733 153.452 166.633 153.738 166.47 153.989C166.383 154.115 166.27 154.219 166.137 154.297C166.005 154.374 165.858 154.422 165.705 154.437C165.545 154.439 165.387 154.403 165.245 154.332C165.102 154.261 164.979 154.156 164.886 154.027C164.719 153.783 164.604 153.506 164.549 153.216C164.514 153.041 164.493 152.863 164.488 152.685C164.463 152.313 164.518 151.941 164.649 151.592C164.65 151.862 164.676 152.131 164.725 152.396C164.769 152.633 164.831 152.866 164.909 153.094C165.07 153.565 165.345 153.944 165.674 153.898C166.003 153.853 166.287 153.549 166.44 153.064C166.544 152.564 166.608 152.057 166.631 151.547C166.781 152.069 166.825 152.616 166.761 153.155Z" fill="#263238"/>
<path d="M173.449 152.386C173.54 152.678 173.709 152.94 173.939 153.145C174.07 153.252 174.222 153.332 174.385 153.379C174.548 153.426 174.72 153.439 174.888 153.418C175.059 153.391 175.222 153.325 175.363 153.225C175.504 153.125 175.619 152.993 175.699 152.841C175.835 152.572 175.908 152.277 175.914 151.976C175.913 151.799 175.9 151.621 175.875 151.445C175.827 151.074 175.693 150.719 175.485 150.406C175.538 150.671 175.561 150.941 175.554 151.21C175.555 151.464 175.535 151.718 175.493 151.969C175.409 152.454 175.187 152.887 174.804 152.917C174.421 152.947 174.039 152.697 173.847 152.249C173.627 151.78 173.456 151.289 173.335 150.786C173.247 151.321 173.286 151.869 173.449 152.386Z" fill="#263238"/>
<path d="M185.327 129.488C188.197 129.488 190.524 127.182 190.524 124.338C190.524 121.493 188.197 119.188 185.327 119.188C182.457 119.188 180.131 121.493 180.131 124.338C180.131 127.182 182.457 129.488 185.327 129.488Z" fill="#C7C7C7"/>
<path d="M162.107 141.895C162.711 142.358 172.01 140.439 177.413 141.016C182.816 141.592 194.541 147.084 194.801 146.803C195.061 146.522 195.78 133.65 186.229 129.296C176.678 124.942 165.811 131.572 163.653 135.698C162.505 137.89 161.801 141.66 162.107 141.895Z" fill="#DBDBDB"/>
<path d="M161.64 142.285C162.038 142.732 170.479 140.335 177.382 141.374C182.449 142.133 194.035 147.647 194.655 147.283C194.938 147.117 195.742 143.612 195.29 142.884C194.839 142.156 184.094 137.157 178.454 135.997C172.599 134.783 163.316 135.997 162.91 136.33C162.053 137.119 161.035 141.587 161.64 142.285Z" fill="#C7C7C7"/>
<path d="M185.082 148.525C185.082 148.525 187.5 144.034 190.148 143.905C192.942 143.761 193.577 148.79 191.679 150.899C189.46 153.379 186 152.515 186 152.515L185.082 148.525Z" fill="#EB9481"/>
<path d="M189.353 146.866C189.747 146.499 190.187 146.183 190.662 145.926C190.715 145.926 190.662 145.804 190.608 145.827C188.618 146.654 186.781 148.763 187.126 151.046C187.126 151.064 187.133 151.081 187.146 151.094C187.159 151.107 187.176 151.114 187.195 151.114C187.213 151.114 187.23 151.107 187.243 151.094C187.256 151.081 187.264 151.064 187.264 151.046C187.317 150.841 187.363 150.644 187.409 150.446C187.695 149.896 188.097 149.412 188.588 149.028C189.138 148.662 189.778 148.452 190.44 148.421C190.516 148.421 190.501 148.307 190.44 148.3C189.927 148.279 189.417 148.366 188.941 148.554C188.465 148.742 188.034 149.028 187.677 149.392C187.841 148.881 188.078 148.396 188.381 147.951C188.652 147.562 188.965 147.203 189.315 146.881" fill="#263238"/>
<path d="M191.564 143.719C190.393 143.044 188.962 143.764 188.028 144.477C187.55 144.871 187.121 145.319 186.75 145.812C186.331 146.142 185.939 146.505 185.579 146.897C185.861 146.602 186.163 146.326 186.482 146.07C186.023 146.709 185.609 147.378 185.242 148.073C185.242 148.141 185.242 148.073 185.303 148.073C185.686 147.542 186.153 146.859 186.62 146.29C187.078 145.72 187.608 145.21 188.196 144.773C188.8 144.283 189.539 143.984 190.316 143.916C190.743 143.929 191.153 144.079 191.485 144.345C191.816 144.611 192.051 144.977 192.153 145.388C192.433 146.164 192.553 146.989 192.506 147.812C192.459 148.636 192.245 149.441 191.877 150.181C191.043 151.653 189.344 152.321 187.791 152.738C189.2 152.508 190.521 151.908 191.617 151.001C192.096 150.485 192.466 149.878 192.702 149.217C192.939 148.556 193.038 147.855 192.995 147.155C193.048 145.994 192.712 144.379 191.564 143.719Z" fill="#263238"/>
<path d="M185.035 161.716C183.287 162.375 181.497 162.922 179.678 163.355C179.625 163.355 179.678 163.453 179.678 163.446C180.579 163.366 181.47 163.206 182.341 162.968C183.085 162.983 183.825 162.859 184.523 162.604C183.929 162.757 183.321 162.853 182.709 162.892C183.538 162.641 184.328 162.279 185.058 161.815C185.058 161.815 185.074 161.701 185.035 161.716Z" fill="#263238"/>
<path d="M162.154 172.094C163.578 172.944 171.72 178.231 177.644 178.382C183.942 178.549 189.261 174.893 191.236 173.194C196.639 168.521 191.863 163.204 187.662 163.978C182.672 164.903 179.305 167.224 176.259 167.27C172.532 167.331 166.547 165.047 165.544 164.934C163.509 164.691 160.379 171.025 162.154 172.094Z" fill="#EB9481"/>
<path d="M166.118 165.129C165.834 164.219 164.143 162.308 164.028 161.587C163.913 160.866 164.028 159.016 162.964 159.182C161.901 159.349 162.054 162.126 162.092 162.755C162.13 163.385 156.888 159.622 155.97 160.844C155.051 162.065 158.893 164.28 158.709 164.53C158.526 164.78 154.286 162.884 153.612 164.014C152.939 165.144 157.684 166.753 157.646 166.844C157.607 166.935 154.584 164.674 153.819 165.539C153.054 166.404 157.561 168.816 157.477 169.028C157.393 169.24 154.416 168.74 154.309 169.893C154.202 171.046 158.771 171.258 159.176 171.334C159.582 171.41 162.528 172.555 163.14 172.237C163.753 171.918 166.324 165.766 166.118 165.129Z" fill="#EB9481"/>
<path d="M154.577 165.312C154.508 165.274 154.469 165.312 154.531 165.365C155.805 166.182 157.21 166.777 158.686 167.125C158.028 166.807 155.35 165.714 154.577 165.312Z" fill="#263238"/>
<path d="M191.235 173.194C189.26 174.901 183.941 178.549 177.643 178.382C173.051 178.261 167.066 174.946 163.967 173.315L166.974 165.207C169.202 165.669 173.403 167.315 176.258 167.27C179.319 167.224 182.671 164.903 187.668 163.978C191.87 163.204 196.638 168.529 191.235 173.194Z" fill="#C7C7C7"/>
<path d="M146.878 150.021C146.296 157.606 140.587 213.016 141.184 215.724C141.184 215.724 114.291 239.026 105.819 222.938C100.316 212.478 121.661 160.451 133.967 143.824C139.607 136.193 148.095 134.092 146.878 150.021Z" fill="#EB9481"/>
<path d="M147.444 160.908C146.939 163.184 146.311 165.353 145.714 167.568C145.783 166.81 145.852 166.051 145.906 165.255C146.158 161.91 146.319 158.565 146.587 155.227C146.587 155.113 146.434 155.121 146.418 155.227C145.982 158.2 145.477 161.159 145.071 164.132C144.666 167.106 144.406 169.95 144.13 172.87C143.571 178.756 142.99 184.635 142.599 190.536C142.304 193.815 142.184 197.106 142.24 200.397C142.24 200.481 142.393 200.519 142.408 200.397C142.944 197.507 143.173 194.557 143.464 191.629C143.755 188.701 144.015 185.803 144.23 182.883C144.444 179.963 144.75 176.936 145.041 173.963C145.186 172.446 145.347 170.982 145.5 169.487C146.448 166.692 147.115 163.811 147.49 160.886C147.49 160.886 147.452 160.87 147.444 160.908Z" fill="#263238"/>
<path d="M206.488 164.198C207.02 164.887 207.313 165.728 207.324 166.596C207.335 167.464 207.063 168.312 206.55 169.014C206.55 169.014 210.476 168.878 211.907 171.783C212.672 173.3 210.874 175.758 210.874 175.758C210.874 175.758 214.027 175.758 215.136 178.45C216.017 180.574 214.119 182.744 214.119 182.744C214.119 182.744 217.126 184.162 217.325 186.612C217.731 191.581 200.251 200.971 194.06 196.041C191.175 193.765 195.59 191.679 195.59 191.679C195.59 191.679 188.55 193.136 186.506 189.616C184.463 186.096 190.333 183.753 190.333 183.753C190.333 183.753 183.491 185.103 181.738 181.242C179.917 177.222 186.2 175.871 186.2 175.871C186.2 175.871 180.843 175.356 180.231 172.079C179.144 166.693 189.675 168.537 193.019 165.571L191.71 158.152C191.71 158.152 204.437 161.346 206.488 164.198Z" fill="#EB9481"/>
<path d="M213.841 183.16C213.895 183.16 213.956 183.16 213.91 183.244C208.92 187.726 202.048 191.132 195.321 191.86C195.099 191.86 194.961 191.542 195.198 191.466C202.017 189.372 207.879 186.998 213.841 183.16Z" fill="#263238"/>
<path d="M210.98 175.766C211.041 175.728 211.117 175.834 211.049 175.887C205.883 180.438 198.038 184.102 190.186 184.034C189.918 184.034 189.673 183.761 189.987 183.745C195.214 183.389 205.607 179.27 210.98 175.766Z" fill="#263238"/>
<path d="M185.603 175.705C193.141 175.478 199.845 172.876 206.35 169.227C206.434 169.174 206.496 169.303 206.434 169.364C203.741 172.004 199.355 173.915 195.812 175.098C192.546 176.266 189.029 176.567 185.61 175.971C185.473 175.948 185.442 175.713 185.603 175.705Z" fill="#263238"/>
<path d="M162.023 229.961C175.477 228.74 189.758 225.561 200.388 216.368C201.593 215.375 202.429 214.01 202.761 212.492C207.597 208.449 207.13 204.975 207.13 204.975C210.475 199.848 209.495 196.351 209.495 196.351C209.495 196.351 215.12 191.549 212.763 187.696C210.123 183.365 202.738 190.958 196.095 192.672C180.88 196.593 158.158 197.982 153.658 198.657L162.023 229.961Z" fill="#EB9481"/>
<path d="M183.07 207.888C187.524 206.644 191.932 205.536 196.195 203.708C200.863 201.691 205.027 198.975 209.328 196.32C209.354 196.301 209.387 196.293 209.419 196.298C209.452 196.303 209.481 196.321 209.5 196.347C209.519 196.373 209.527 196.406 209.522 196.438C209.517 196.47 209.499 196.498 209.473 196.518C202.455 202.548 192.307 206.826 183.123 208.093C182.901 208.123 182.848 207.949 183.07 207.888Z" fill="#263238"/>
<path d="M184.126 217.333C188.389 215.884 195.873 213.29 207.039 204.855C207.039 204.855 207.131 204.855 207.093 204.916C200.789 211.147 192.861 215.517 184.195 217.538C183.919 217.606 183.843 217.432 184.126 217.333Z" fill="#263238"/>
<path d="M184.76 222.398C191.916 219.66 196.079 217.035 202.684 212.477C202.684 212.477 202.776 212.514 202.737 212.545C195.781 218.507 192.574 219.887 184.821 222.656C184.584 222.747 184.508 222.504 184.76 222.398Z" fill="#263238"/>
<path d="M177.467 196.254C175.278 195.989 175.408 194.851 178.753 192.841C182.097 190.831 197.12 185.711 194.824 180.704C192.528 175.698 171.566 183.162 166.248 186.955C160.929 190.747 153.658 198.659 153.658 198.659C158.043 198.006 168.842 197.43 177.467 196.254Z" fill="#EB9481"/>
<path d="M162.504 189.852C161.739 190.557 153.427 198.074 153.32 198.529C153.605 198.588 153.895 198.618 154.185 198.62C154.614 198.544 161.838 190.724 163.2 189.328C162.94 189.461 162.704 189.638 162.504 189.852Z" fill="#263238"/>
<path d="M180.85 195.606C179.952 195.757 179.044 195.843 178.133 195.864C177.597 195.864 176.143 195.735 176.549 194.848C176.747 194.504 177.007 194.198 177.314 193.945C177.598 193.67 177.903 193.417 178.225 193.187C178.885 192.69 179.629 192.312 180.421 192.072C180.434 192.065 180.444 192.054 180.45 192.041C180.455 192.027 180.456 192.012 180.451 191.999C180.447 191.985 180.437 191.973 180.425 191.966C180.412 191.958 180.397 191.955 180.383 191.958C178.947 192.295 177.617 192.978 176.511 193.945C176.222 194.141 176.015 194.435 175.929 194.772C175.843 195.108 175.884 195.464 176.044 195.773C176.503 196.426 177.391 196.365 178.095 196.289C179.035 196.175 179.961 195.964 180.858 195.659L180.85 195.606Z" fill="#263238"/>
<path d="M181.264 180.634C183.384 179.819 185.581 179.217 187.822 178.836C188.956 178.634 190.107 178.545 191.259 178.571C191.853 178.587 192.444 178.671 193.019 178.821C193.639 178.97 194.207 179.282 194.664 179.724C195.117 180.212 195.356 180.859 195.33 181.522C195.303 182.146 195.119 182.753 194.794 183.289C194.172 184.278 193.37 185.145 192.43 185.845C190.625 187.235 188.637 188.373 186.521 189.228C187.501 188.652 188.465 188.075 189.384 187.43C190.318 186.815 191.208 186.136 192.047 185.398C192.886 184.703 193.601 183.872 194.159 182.94C194.414 182.506 194.559 182.016 194.58 181.514C194.595 181.044 194.424 180.587 194.106 180.24C193.29 179.595 192.27 179.259 191.228 179.291C190.117 179.241 189.003 179.282 187.899 179.413C186.782 179.534 185.672 179.716 184.57 179.929C183.468 180.141 182.373 180.376 181.264 180.634Z" fill="#263238"/>
<path d="M193.646 193.27C194.672 192.914 195.698 192.572 196.708 192.186C197.721 191.832 198.715 191.424 199.685 190.964C200.624 190.461 201.536 189.909 202.417 189.311C203.335 188.734 204.269 188.181 205.233 187.665C206.212 187.143 207.236 186.711 208.295 186.375C208.837 186.207 209.396 186.1 209.963 186.057C210.253 186.023 210.546 186.023 210.835 186.057C210.984 186.072 211.13 186.102 211.272 186.148L211.7 186.315C212.234 186.572 212.681 186.978 212.986 187.483C213.274 187.981 213.436 188.54 213.46 189.114C213.458 190.21 213.195 191.291 212.695 192.269C213.039 191.265 213.164 190.2 213.062 189.144C213.005 188.644 212.832 188.164 212.557 187.741C212.278 187.337 211.884 187.025 211.425 186.846C210.452 186.578 209.417 186.643 208.486 187.028C207.487 187.373 206.519 187.802 205.593 188.31C204.644 188.795 203.718 189.341 202.8 189.895C201.879 190.481 200.92 191.005 199.93 191.465C197.898 192.264 195.794 192.868 193.646 193.27Z" fill="#263238"/>
<path d="M153.298 198.468C157.607 198.984 176.823 225.304 170.801 227.383C142.484 237.168 116.999 232.017 111.604 229.575C104.532 226.374 103.545 216.794 106.292 212.546C110.264 206.387 149.043 197.952 153.298 198.468Z" fill="#EB9481"/>
<path d="M119.938 205.567C134.334 199.18 153.612 198.194 153.658 198.179C153.941 198.11 154.37 198.573 154.209 198.619C151.224 199.415 131.074 202.313 120.153 205.923C120.046 205.954 119.839 205.605 119.938 205.567Z" fill="#263238"/>
<path d="M261.541 33C297.017 49.8496 295.998 109.784 285.414 138.481C269.184 182.49 316.73 246.698 276.845 281.921C244.591 310.407 163.687 285.718 136.805 289.523C102.39 294.394 59.113 311.813 38.4627 281.921C24.3449 261.485 52.1081 229.881 46.0172 205.309C40.4098 182.688 14.0088 152.025 8.99179 129.245C-1.41881 81.9758 2.84214 7.56114 61.2868 0.48496C92.3928 -3.28119 124.018 15.15 141.37 46.6614C158.722 78.1728 207.778 7.46465 261.541 33Z" fill="#B99AC8" fill-opacity="0.15"/>
</g>
<defs>
<filter id="filter0_d_69_11028" x="0.541016" y="0" width="296.695" height="307" filterUnits="userSpaceOnUse" color-interpolation-filters="sRGB">
<feFlood flood-opacity="0" result="BackgroundImageFix"/>
<feColorMatrix in="SourceAlpha" type="matrix" values="0 0 0 0 0 0 0 0 0 0 0 0 0 0 0 0 0 0 127 0" result="hardAlpha"/>
<feOffset dy="4"/>
<feGaussianBlur stdDeviation="2"/>
<feComposite in2="hardAlpha" operator="out"/>
<feColorMatrix type="matrix" values="0 0 0 0 0 0 0 0 0 0 0 0 0 0 0 0 0 0 0.25 0"/>
<feBlend mode="normal" in2="BackgroundImageFix" result="effect1_dropShadow_69_11028"/>
<feBlend mode="normal" in="SourceGraphic" in2="effect1_dropShadow_69_11028" result="shape"/>
</filter>
</defs>
</svg>
