<svg width="50" height="105" viewBox="0 0 50 105" fill="none" xmlns="http://www.w3.org/2000/svg">
<path d="M6.41799 7.64403C7.59945 4.104 11.1792 1.922 15.2106 1.17015C19.242 0.418305 24.4489 0.503744 27.3727 6.56311C29.7466 11.4798 30.1704 17.0398 32.4718 22.6659C34.7731 28.2921 46.6677 39.4632 39.1682 50.2821C32.4288 59.9987 11.6054 61.9675 6.03446 49.8052C1.61778 40.1649 9.59671 26.377 9.25332 22.0105C8.90993 17.6439 5.12019 11.5261 6.41799 7.64403Z" fill="#263238"/>
<path d="M6.98055 13.864C8.04391 16.7025 8.80168 19.7083 8.69349 22.8339C8.66549 23.6252 8.5286 24.4087 8.28669 25.1625C8.06496 25.9156 7.79957 26.6433 7.53781 27.3673C6.99974 28.8226 6.46529 30.2378 5.99999 31.6859C5.02757 34.5501 4.47574 37.5405 4.36173 40.5637C4.30029 43.5839 4.80985 46.5889 5.8636 49.4207C5.17941 48.056 4.64931 46.6194 4.28309 45.1375C3.93193 43.6417 3.73636 42.1138 3.69949 40.578C3.61121 37.4888 4.23973 34.3925 5.17395 31.4564C5.65016 29.9829 6.20643 28.5458 6.75906 27.0905C7.31168 25.6352 7.90071 24.2636 8.00941 22.79C8.12626 21.2942 8.0684 19.7897 7.837 18.3071C7.64494 16.8096 7.3589 15.3257 6.98055 13.864Z" fill="#263238"/>
<path d="M28.8254 10.9138C29.9179 13.8251 30.8867 16.7364 32.1029 19.5604C32.7073 20.9664 33.398 22.3337 34.1709 23.6546C34.9355 24.9503 35.9074 26.1659 36.8174 27.4252C37.7275 28.6845 38.6084 29.9729 39.413 31.3158C40.2121 32.6636 40.8919 34.0786 41.4447 35.5446C41.97 37.0287 42.2817 38.5799 42.3703 40.1515C42.377 41.7305 42.0618 43.2941 41.4439 44.7468C41.894 43.2706 42.0638 41.7231 41.9446 40.1841C41.7773 38.6722 41.3983 37.1912 40.8189 35.7846C39.6355 32.9751 37.9281 30.4093 36.1044 27.9198C35.2162 26.6569 34.2443 25.4412 33.4543 24.0583C32.6906 22.6947 32.0321 21.2749 31.4844 19.8113C30.4174 16.9024 29.5294 13.931 28.8254 10.9138Z" fill="#263238"/>
<path d="M20.2582 104.339L43.6947 104.347L39.5511 83.5283C45.5238 77.2354 43.6827 65.5692 43.6827 65.5692L12.4412 65.5406C11.1384 76.5871 18.3723 101.023 20.2582 104.339Z" fill="#263238"/>
<path d="M2.56042 65.5373C2.56042 65.5373 -2.53075 75.0325 7.82466 86.1157C8.03941 86.3487 5.15916 103.104 5.21049 104.334L31.2632 104.342C32.5318 100.162 36.0987 91.6342 36.0987 91.6342C36.0987 91.6342 42.8218 87.834 44.5658 79.8113C46.1028 72.7237 43.6845 65.5693 43.6845 65.5693L2.56042 65.5373Z" fill="#37474F"/>
<path d="M5.05306 82.7376C2.09746 79.4799 0.367735 75.0948 0.756009 71.6782C1.7249 63.2077 8.39292 57.963 8.39292 57.963C8.39292 57.963 4.45051 52.2999 6.05378 47.8467C6.86086 45.591 14.4433 32.2032 17.8991 29.2025C21.1439 26.3836 26.5079 28.5286 28.4516 30.4395C34.2752 36.1651 39.4792 50.2631 43.0601 63.5018L44.4189 68.5745C29.1468 78.0154 5.05306 82.7376 5.05306 82.7376Z" fill="#EB9481"/>
<path d="M8.40934 57.9611C21.9388 60.9784 36.5251 57.734 41.0695 56.5493C37.6712 45.603 33.2979 35.1622 28.4753 30.4376C26.528 28.5303 21.1603 26.3817 17.9228 29.2042C14.4634 32.2086 6.15328 45.9381 5.34621 48.2084C3.73931 52.6652 8.40934 57.9611 8.40934 57.9611Z" fill="#B99AC8"/>
<path d="M11.9626 54.7504C13.6991 54.8112 15.4204 55.0992 17.0824 55.6072C18.7563 56.0808 22.45 57.5448 23.378 57.9054C23.3998 57.9054 23.378 57.949 23.378 57.9417C22.1715 57.6557 20.9831 57.298 19.8191 56.8708C18.1779 56.3135 16.5257 55.8072 14.8518 55.3736C13.9033 55.1382 12.9407 54.9641 11.9699 54.8523C11.9564 54.8533 11.943 54.8488 11.9328 54.84C11.9225 54.8311 11.9162 54.8185 11.9153 54.805C11.9143 54.7915 11.9187 54.7781 11.9276 54.7679C11.9365 54.7577 11.9491 54.7514 11.9626 54.7504Z" fill="#263238"/>
<path d="M8.90002 55.619C10.7067 55.472 12.5254 55.6338 14.2781 56.0975C14.2999 56.0975 14.2963 56.1412 14.2781 56.1375C13.3866 56.0317 12.4987 55.9259 11.6036 55.8492C10.7085 55.7725 9.80608 55.7285 8.90367 55.67C8.89692 55.6704 8.89025 55.6682 8.88513 55.6638C8.88001 55.6593 8.87686 55.6531 8.87637 55.6463C8.87589 55.6395 8.87811 55.6329 8.88254 55.6278C8.88697 55.6226 8.89326 55.6195 8.90002 55.619Z" fill="#263238"/>
<path d="M24.702 30.4455C24.5566 31.1732 21.2074 37.3578 17.2265 36.7888C15.5563 36.5445 16.4967 30.0825 16.4967 30.0825L14.7117 23.4632L22.8896 17.7896C22.8896 17.7896 24.7565 30.1253 24.702 30.4455Z" fill="#EB9481"/>
<path d="M14.7108 23.4632L16.4302 29.9006C19.7048 28.4523 22.2746 25.77 23.5815 22.4364C23.2169 19.922 22.8851 17.7896 22.8851 17.7896L14.7108 23.4632Z" fill="#263238"/>
<path d="M5.2486 15.818C5.87065 27.0435 12.6643 27.9446 15.0767 27.8071C17.2598 27.6841 24.7407 26.988 25.2794 15.7592C25.818 4.53049 20.4027 1.26478 15.3632 1.28128C10.3237 1.29777 4.6411 4.60342 5.2486 15.818Z" fill="#EB9481"/>
<path d="M7.23916 14.0052C7.48654 13.9349 7.72952 13.8499 7.96681 13.7508C8.23778 13.6991 8.48364 13.5583 8.66531 13.3508C8.70915 13.2744 8.72682 13.1858 8.71562 13.0984C8.70443 13.011 8.66498 12.9297 8.6033 12.8668C8.46204 12.761 8.29502 12.6951 8.11966 12.6758C7.94429 12.6566 7.76701 12.6847 7.60628 12.7573C7.2568 12.8534 6.95583 13.0765 6.7623 13.3829C6.7211 13.4555 6.70221 13.5388 6.708 13.6222C6.71378 13.7055 6.74398 13.7854 6.79483 13.8517C6.84567 13.9181 6.91492 13.9681 6.99394 13.9954C7.07295 14.0226 7.15823 14.0261 7.23916 14.0052Z" fill="#263238"/>
<path d="M15.0103 14.0088C14.7522 14.0015 14.4946 13.9796 14.2389 13.9431C13.9627 13.9603 13.6886 13.8846 13.4602 13.7281C13.3985 13.6651 13.3594 13.5835 13.3488 13.496C13.3383 13.4085 13.3569 13.32 13.4018 13.2442C13.5111 13.1048 13.656 12.9975 13.8212 12.9335C13.9863 12.8696 14.1657 12.8513 14.3405 12.8806C14.702 12.8893 15.0478 13.0305 15.3121 13.2776C15.3734 13.3369 15.4154 13.4133 15.4327 13.4968C15.4501 13.5802 15.442 13.667 15.4095 13.7458C15.3769 13.8246 15.3215 13.8918 15.2504 13.9387C15.1792 13.9856 15.0956 14.01 15.0103 14.0088Z" fill="#263238"/>
<path d="M14.311 22.144C14.1619 22.355 14.031 22.6315 13.7618 22.7042C13.481 22.7521 13.1932 22.7396 12.9176 22.6675C12.8921 22.6675 12.8703 22.693 12.8921 22.7112C13.0265 22.8398 13.1936 22.9291 13.3751 22.9696C13.5566 23.0101 13.7457 23.0001 13.9219 22.9407C14.0683 22.8732 14.1909 22.7632 14.2739 22.625C14.357 22.4868 14.3965 22.3269 14.3874 22.1659C14.391 22.1186 14.3474 22.1149 14.311 22.144Z" fill="#263238"/>
<path d="M10.7813 19.8357C10.7813 19.8357 10.7817 20.9892 10.8401 21.5241C10.8401 21.575 10.9783 21.5824 11.1639 21.5679C11.1639 21.5679 11.1639 21.5679 11.1821 21.5679C11.6525 21.5941 12.1208 21.4894 12.5351 21.2653C12.9493 21.0413 13.2933 20.7067 13.5286 20.2988C13.5373 20.2872 13.5411 20.2726 13.539 20.2583C13.5369 20.244 13.5293 20.231 13.5177 20.2223C13.5061 20.2137 13.4916 20.2099 13.4772 20.212C13.4629 20.214 13.45 20.2217 13.4413 20.2332C12.8194 20.7885 12.0346 21.1277 11.2038 21.2004C11.1492 21.0584 11.2869 19.2246 11.2032 19.2282C10.7931 19.3204 10.3968 19.4659 10.0244 19.6608C9.97637 17.2556 10.3104 14.8615 10.226 12.4672C10.2259 12.4479 10.2183 12.4294 10.2046 12.4158C10.191 12.4021 10.1725 12.3944 10.1532 12.3944C10.1339 12.3944 10.1154 12.4021 10.1017 12.4157C10.0881 12.4294 10.0804 12.4479 10.0804 12.4672C9.55357 14.9486 9.55079 17.7176 9.53701 20.2028C9.52982 20.4866 10.5776 19.9448 10.7813 19.8357Z" fill="#263238"/>
<path d="M13.4826 16.1531C13.4826 16.124 13.5444 16.1823 13.5481 16.2114C13.6174 16.961 13.8215 17.8125 14.5311 17.9765C14.5529 17.9765 14.5529 18.0201 14.5311 18.0201C13.6869 17.998 13.4282 16.8736 13.4826 16.1531Z" fill="#263238"/>
<path d="M15.0214 16.3351C15.0859 16.4006 15.161 16.4548 15.2434 16.4953C15.3075 16.5306 15.3784 16.5515 15.4513 16.5565C15.5242 16.5616 15.5973 16.5507 15.6655 16.5245C16.0949 16.3646 16.1638 15.8625 16.0764 15.404C16.0764 15.3712 16.0509 15.3567 16.0363 15.3858C15.9127 15.6623 15.76 15.9533 15.4944 15.9787C15.3037 15.9655 15.1212 15.8958 14.9703 15.7784C15.0086 15.9614 15.0258 16.1482 15.0214 16.3351Z" fill="#263238"/>
<path d="M13.5819 17.1505C13.6452 17.3528 13.7607 17.5348 13.9168 17.6782C14.0073 17.7528 14.1122 17.8078 14.2249 17.8398C14.3376 17.8717 14.4558 17.88 14.5718 17.864C14.69 17.8459 14.8023 17.8002 14.8996 17.7307C14.9969 17.6612 15.0765 17.5699 15.1321 17.464C15.2239 17.2771 15.2724 17.0719 15.2738 16.8636C15.2728 16.7418 15.263 16.6202 15.2446 16.4998C15.2119 16.2391 15.1183 15.9898 14.9714 15.7719C15.0097 15.955 15.0269 16.1418 15.0225 16.3287C15.0224 16.498 15.009 16.6671 14.9827 16.8344C14.9282 17.1728 14.7755 17.4711 14.5135 17.4929C14.2515 17.5146 14.0077 17.3435 13.8511 17.0342C13.6971 16.7083 13.5751 16.3683 13.4869 16.0189C13.4289 16.3982 13.4615 16.786 13.5819 17.1505Z" fill="#263238"/>
<path d="M9.16816 16.3986C9.16815 16.3694 9.1136 16.4386 9.11725 16.4713C9.20481 17.2173 9.1796 18.0905 8.5211 18.3996C8.49927 18.3996 8.52111 18.4469 8.52111 18.4396C9.35067 18.2543 9.37214 17.0936 9.16816 16.3986Z" fill="#263238"/>
<path d="M7.69554 16.8785C7.64796 16.956 7.58627 17.0238 7.51367 17.0785C7.45822 17.1263 7.39307 17.1614 7.32272 17.1814C7.25237 17.2015 7.17849 17.2061 7.10618 17.1948C6.65496 17.1256 6.48015 16.6452 6.47273 16.1831C6.47272 16.1503 6.49091 16.1285 6.50911 16.154C6.68748 16.3978 6.89861 16.6526 7.16058 16.6236C7.34443 16.5715 7.50888 16.4665 7.63351 16.3217C7.63365 16.509 7.65446 16.6957 7.69554 16.8785Z" fill="#263238"/>
<path d="M9.27308 17.3913C9.2546 17.6027 9.17922 17.8051 9.05494 17.977C8.9818 18.0679 8.89081 18.1429 8.78758 18.1973C8.68434 18.2517 8.57104 18.2844 8.45467 18.2934C8.3354 18.2999 8.21625 18.2783 8.10687 18.2302C7.99749 18.1821 7.90095 18.1089 7.82509 18.0166C7.69522 17.8541 7.60541 17.6634 7.56293 17.4598C7.53735 17.3399 7.52029 17.2183 7.51188 17.0959C7.4907 16.8377 7.53179 16.5781 7.63172 16.3391C7.63187 16.5264 7.65267 16.7131 7.69375 16.8959C7.73074 17.0605 7.77943 17.2222 7.83945 17.3799C7.96326 17.7001 8.17439 17.9585 8.43636 17.9259C8.69834 17.8932 8.89839 17.6786 8.98561 17.3439C9.06626 16.9939 9.11246 16.6368 9.12355 16.2778C9.26018 16.6321 9.31141 17.0136 9.27308 17.3913Z" fill="#263238"/>
<path d="M25.3854 15.9482C23.5298 16.3115 22.608 12.4469 22.608 12.4469C22.608 12.4469 18.7985 12.9332 16.8575 7.60918C17.1709 9.23727 17.9529 10.7387 19.1075 11.929C19.1075 11.929 12.2996 12.0541 8.76848 6.78048C8.76848 6.78048 10.2539 9.50635 11.4404 10.3909C11.4404 10.3909 8.52932 9.95696 6.86216 7.84233C6.86216 7.84233 6.09182 11.2333 5.29891 12.2446C5.29891 12.2446 4.1054 0.451262 15.156 0.345818C15.156 0.345818 22.0329 -0.0484859 25.1564 5.04671C28.28 10.1419 25.3854 15.9482 25.3854 15.9482Z" fill="#263238"/>
<path d="M23.4099 15.9771C23.4099 15.9771 25.3408 12.1535 27.0475 12.7981C28.7543 13.4428 27.6425 18.7367 25.8889 19.6894C25.6726 19.8267 25.4308 19.9187 25.1779 19.96C24.925 20.0013 24.6664 19.9911 24.4175 19.9298C24.1687 19.8685 23.9347 19.7575 23.7298 19.6035C23.5249 19.4495 23.3533 19.2556 23.2252 19.0335L23.4099 15.9771Z" fill="#EB9481"/>
<path d="M26.6868 14.3093C26.7159 14.3093 26.7268 14.3421 26.6868 14.3566C25.4645 15.0839 24.9554 16.3682 24.6538 17.6853C24.9702 17.1469 25.4577 16.8123 26.1674 17.1801C26.2074 17.1801 26.1674 17.2565 26.1419 17.2528C25.9037 17.2132 25.659 17.2482 25.4415 17.353C25.224 17.4578 25.0442 17.6273 24.9268 17.8382C24.7327 18.1926 24.5779 18.5671 24.465 18.9552C24.4214 19.0789 24.2031 19.0497 24.2249 18.9078C24.2266 18.8969 24.2266 18.8859 24.2248 18.875C23.9769 17.2266 24.9331 14.7381 26.6868 14.3093Z" fill="#263238"/>
<path d="M25.9344 38.1097C27.2496 43.5318 33.9907 62.819 35.6687 64.4934C37.6633 66.4881 46.3688 72.6185 49.4009 64.4616C51.5023 58.8078 37.2072 38.9868 30.4701 32.606C27.1543 29.4829 23.7338 29.0232 25.9344 38.1097Z" fill="#EB9481"/>
<path d="M26.7252 44.0062C27.2385 44.9815 27.8174 45.9242 28.3562 46.874C28.2287 46.5283 28.1013 46.179 27.992 45.8296C27.4567 44.3121 26.9577 42.7837 26.4151 41.2698C26.3968 41.2225 26.4732 41.2043 26.4915 41.248C27.0668 42.569 27.6712 43.8755 28.232 45.2038C28.7927 46.5321 29.2698 47.8131 29.7651 49.1268C30.7629 51.7834 31.7752 54.4327 32.7003 57.1147C33.2479 58.5984 33.7184 60.1095 34.1099 61.6417C34.1099 61.6817 34.0553 61.7144 34.0371 61.6744C33.4254 60.4007 32.9447 59.0651 32.4458 57.7478C31.9469 56.4304 31.4589 55.1167 30.9891 53.7993C30.5193 52.482 29.9985 51.1064 29.4887 49.7671C29.2374 49.0939 28.9752 48.4243 28.7167 47.7547C27.9287 46.5791 27.2591 45.3283 26.7179 44.0208C26.7179 44.0208 26.7252 43.9917 26.7252 44.0062Z" fill="#263238"/>
<path d="M24.1858 66.0004C22.7053 67.4335 24.0271 82.116 26.9159 81.1855C40.4831 76.8054 47.6523 68.5954 49.0015 66.1106C50.7543 62.8582 48.3552 58.9131 46.0881 58.0718C42.8129 56.8554 25.67 64.5891 24.1858 66.0004Z" fill="#EB9481"/>
<path d="M39.0761 59.7161C33.1309 60.7074 25.8403 64.995 25.8258 65.0022C25.7203 65.0386 25.7349 65.195 25.7931 65.1732C26.9137 64.8097 34.8375 61.0246 39.0835 59.8762C39.1235 59.8616 39.1016 59.7088 39.0761 59.7161Z" fill="#263238"/>
<path d="M29.6473 80.1598C23.7462 82.7049 17.0553 84.6056 10.5089 83.1443C9.77745 83.0005 9.11508 82.616 8.62736 82.0521C5.67986 81.4471 5.07899 79.8677 5.07899 79.8677C2.50603 78.466 2.11252 76.7738 2.11252 76.7738C2.11252 76.7738 -0.190989 75.998 0.230583 74.3498C0.652155 72.7017 4.7311 72.6958 7.89648 71.9109C15.1478 70.094 23.9046 65.7887 25.9566 65.0617L29.6473 80.1598Z" fill="#EB9481"/>
<path d="M15.7785 75.6324C13.6355 76.1229 11.5398 76.6571 9.33846 76.8492C6.9261 77.0631 4.56818 76.8476 2.163 76.7194C2.14755 76.717 2.13179 76.7208 2.11917 76.73C2.10655 76.7392 2.0981 76.7531 2.0957 76.7685C2.09329 76.784 2.09711 76.7997 2.10633 76.8124C2.11554 76.825 2.1294 76.8334 2.14484 76.8358C6.46058 77.787 11.6782 77.283 15.8004 75.7307C15.9022 75.6943 15.8877 75.6106 15.7785 75.6324Z" fill="#263238"/>
<path d="M17.5045 79.8648C15.3905 80.2279 11.6829 80.8307 5.0748 79.8096C5.05296 79.8096 5.04206 79.8424 5.07481 79.8497C9.1373 81.0431 13.4509 81.0836 17.5336 79.9666C17.6391 79.9194 17.6391 79.8284 17.5045 79.8648Z" fill="#263238"/>
<path d="M18.3886 82.1458C14.772 82.6176 12.4323 82.4567 8.62973 82.037C8.6079 82.037 8.597 82.0734 8.62974 82.0771C12.9018 83.01 14.5574 82.8614 18.4323 82.2659C18.556 82.2478 18.5305 82.1277 18.3886 82.1458Z" fill="#263238"/>
<path d="M15.4529 69.4613C16.3042 68.8503 15.9911 68.399 14.1317 68.3147C12.2724 68.2304 4.84261 69.4687 4.62712 66.8561C4.41163 64.2434 14.9159 62.6132 17.998 62.9926C21.08 63.3721 25.9382 65.0657 25.9382 65.0657C23.9626 65.7891 19.3204 67.9963 15.4529 69.4613Z" fill="#EB9481"/>
<path d="M0.723143 73.5324C1.15956 72.8048 4.24864 72.351 5.0673 72.2603C7.07577 72.0318 11.9802 70.5234 12.8243 70.2689C13.5738 70.0472 15.5603 69.3274 15.4619 68.9162C15.2834 68.1448 10.0039 68.8853 6.77266 68.4658C6.01124 68.3815 5.28868 68.085 4.68744 67.61C4.56223 67.4894 4.46202 67.3453 4.39256 67.186C4.32311 67.0267 4.28576 66.8552 4.28267 66.6815C4.27957 66.5078 4.31078 66.3351 4.37452 66.1735C4.43826 66.0119 4.53327 65.8645 4.65411 65.7397C5.15606 65.1468 5.99284 64.8159 6.69502 64.5287C7.46393 64.2203 8.25281 63.964 9.05627 63.7617C9.85307 63.5582 10.6644 63.3984 11.4722 63.2422C12.3454 63.0751 13.2186 62.9044 14.1028 62.781C14.9836 62.6449 15.8759 62.5977 16.7662 62.64C17.6285 62.7074 18.4818 62.8613 19.3134 63.0993C21.071 63.5693 22.825 64.0757 24.5536 64.6329C24.983 64.7714 25.5543 64.8662 25.9764 65.0191C25.9855 65.0247 25.9924 65.0332 25.996 65.0433C25.9996 65.0533 25.9997 65.0642 25.9964 65.0743C25.993 65.0844 25.9863 65.0931 25.9774 65.0989C25.9685 65.1047 25.9579 65.1074 25.9473 65.1064C24.2006 64.6947 22.3302 64.2392 20.5908 63.7911C19.7393 63.5725 18.8841 63.332 18.0181 63.1753C17.1348 63.0247 16.2357 62.9901 15.3437 63.0725C14.4478 63.1603 13.5574 63.2973 12.6766 63.4828C11.858 63.6426 11.0357 63.8061 10.2207 63.995C8.64164 64.3583 4.86864 65.2558 4.76356 66.6858C4.68382 67.69 6.58328 67.9636 7.31104 68.0511C8.99216 68.2482 15.647 67.4754 16.0076 68.7272C16.146 69.193 15.433 69.6112 15.1638 69.7712C14.8327 69.9713 14.4845 70.1417 14.1233 70.2803C12.3406 70.9638 8.43294 71.9194 6.74112 72.3882C4.86737 72.9079 1.59988 72.925 0.774118 73.6234C0.664987 73.7143 0.650414 73.6743 0.723143 73.5324Z" fill="#263238"/>
<path d="M1.36288 76.4248C1.61434 76.5608 1.88394 76.6601 2.16348 76.7198C2.71635 78.0723 3.75504 79.1694 5.07535 79.7954C5.91397 80.9672 7.1816 81.7603 8.60189 82.0017C8.60746 82.0037 8.61227 82.0075 8.61567 82.0123C8.61906 82.0172 8.62088 82.023 8.62088 82.029C8.62088 82.0349 8.61907 82.0407 8.61568 82.0456C8.61229 82.0505 8.60748 82.0542 8.60191 82.0562C7.8546 82.1336 7.10204 81.9688 6.45527 81.5859C5.80851 81.2031 5.3018 80.6226 5.0099 79.9301C2.75376 79.3507 2.28381 77.5531 2.07254 76.8216C1.81243 76.7618 1.57189 76.6365 1.3738 76.4575C1.34105 76.4393 1.35924 76.4211 1.36288 76.4248Z" fill="#263238"/>
</svg>
