<svg width="96" height="201" viewBox="0 0 96 201" fill="none" xmlns="http://www.w3.org/2000/svg">
<path d="M83.5228 14.0589C81.2507 7.251 74.3665 3.05478 66.6137 1.60889C58.8609 0.163004 48.8474 0.32731 43.2247 11.9801C38.6594 21.4354 37.8444 32.1279 33.4186 42.9476C28.9928 53.7673 6.11825 75.2505 20.5407 96.0564C33.5013 114.742 73.5469 118.529 84.2604 95.1393C92.7541 76.5999 77.4098 50.0843 78.0702 41.687C78.7305 33.2897 86.0186 21.5244 83.5228 14.0589Z" fill="#263238"/>
<path d="M82.4418 26.0203C80.3968 31.479 78.9395 37.2595 79.1476 43.2703C79.2014 44.792 79.4647 46.2989 79.9299 47.7485C80.3563 49.1969 80.8667 50.5962 81.3701 51.9885C82.4049 54.7872 83.4327 57.5089 84.3275 60.2937C86.1976 65.8019 87.2588 71.5527 87.478 77.3666C87.5962 83.1748 86.6163 88.9538 84.5898 94.3997C85.9055 91.7751 86.925 89.0124 87.6293 86.1625C88.3046 83.286 88.6807 80.3476 88.7516 77.3942C88.9214 71.4532 87.7127 65.4987 85.916 59.8523C85.0002 57.0186 83.9305 54.2549 82.8677 51.4562C81.805 48.6576 80.6722 46.0199 80.4632 43.1859C80.2384 40.3093 80.3497 37.4161 80.7947 34.5648C81.1641 31.685 81.7142 28.8312 82.4418 26.0203Z" fill="#263238"/>
<path d="M40.4313 20.3468C38.3304 25.9456 36.4673 31.5443 34.1284 36.9752C32.966 39.6789 31.6378 42.3085 30.1514 44.8487C28.6811 47.3404 26.8121 49.6782 25.0619 52.0999C23.3118 54.5217 21.6176 56.9993 20.0704 59.582C18.5336 62.1739 17.2263 64.8951 16.1633 67.7144C15.153 70.5686 14.5536 73.5516 14.3831 76.5739C14.3702 79.6106 14.9764 82.6175 16.1648 85.4112C15.2992 82.5724 14.9726 79.5963 15.2018 76.6366C15.5236 73.7292 16.2524 70.8811 17.3667 68.1759C19.6426 62.773 22.9259 57.8386 26.4331 53.0511C28.1413 50.6224 30.0104 48.2846 31.5296 45.625C32.9982 43.0027 34.2646 40.2723 35.3178 37.4576C37.3699 31.8635 39.0776 26.1492 40.4313 20.3468Z" fill="#263238"/>
<path d="M56.9061 200.013L11.8351 200.028L19.8037 159.992C8.31753 147.89 11.8582 125.455 11.8582 125.455L71.9389 125.4C74.4445 146.644 60.5328 193.637 56.9061 200.013Z" fill="#263238"/>
<path d="M90.9422 125.394C90.9422 125.394 100.733 143.654 80.8185 164.968C80.4055 165.416 85.9445 197.638 85.8458 200.003L35.7436 200.02C33.3039 191.981 26.4445 175.581 26.4445 175.581C26.4445 175.581 13.5153 168.273 10.1613 152.844C7.20558 139.214 11.8562 125.455 11.8562 125.455L90.9422 125.394Z" fill="#37474F"/>
<path d="M86.1472 158.471C91.8312 152.207 95.1576 143.774 94.4109 137.203C92.5476 120.913 79.7243 110.827 79.7243 110.827C79.7243 110.827 87.306 99.9365 84.2227 91.3725C82.6706 87.0346 68.0888 61.2885 61.4429 55.5177C55.2028 50.0967 44.8872 54.2217 41.1494 57.8967C29.9499 68.9076 19.9421 96.0195 13.0556 121.479L10.4425 131.234C39.8125 149.39 86.1472 158.471 86.1472 158.471Z" fill="#EB9481"/>
<path d="M79.6941 110.824C53.6755 116.626 25.6244 110.387 16.8852 108.109C23.4204 87.058 31.8307 66.9791 41.1052 57.8932C44.85 54.2252 55.1726 50.0932 61.3987 55.5212C68.0516 61.299 84.0328 87.7024 85.5849 92.0683C88.6751 100.639 79.6941 110.824 79.6941 110.824Z" fill="#B99AC8"/>
<path d="M72.8605 104.649C69.5209 104.766 66.2107 105.32 63.0145 106.297C59.7954 107.208 52.692 110.023 50.9074 110.717C50.8654 110.717 50.9074 110.801 50.9074 110.787C53.2275 110.236 55.513 109.549 57.7516 108.727C60.9078 107.655 64.085 106.682 67.3041 105.848C69.1282 105.395 70.9795 105.06 72.8465 104.845C72.8724 104.847 72.8981 104.839 72.9178 104.822C72.9375 104.804 72.9496 104.78 72.9514 104.754C72.9533 104.728 72.9448 104.703 72.9277 104.683C72.9107 104.663 72.8865 104.651 72.8605 104.649Z" fill="#263238"/>
<path d="M78.7501 106.32C75.2757 106.037 71.7782 106.348 68.4075 107.24C68.3655 107.24 68.3725 107.324 68.4075 107.317C70.1219 107.113 71.8294 106.91 73.5508 106.762C75.2723 106.615 77.0077 106.53 78.7431 106.418C78.7561 106.419 78.7689 106.414 78.7788 106.406C78.7886 106.397 78.7947 106.385 78.7956 106.372C78.7965 106.359 78.7923 106.346 78.7837 106.337C78.7752 106.327 78.7631 106.321 78.7501 106.32Z" fill="#263238"/>
<path d="M48.3599 57.9083C48.6394 59.3077 55.0805 71.2014 62.7361 70.1072C65.9481 69.6373 64.1396 57.2102 64.1396 57.2102L67.5723 44.4805L51.8453 33.5696C51.8453 33.5696 48.2552 57.2925 48.3599 57.9083Z" fill="#EB9481"/>
<path d="M67.5742 44.4805L64.2675 56.8603C57.9702 54.0751 53.0281 48.9167 50.5148 42.5059C51.2161 37.6704 51.8541 33.5696 51.8541 33.5696L67.5742 44.4805Z" fill="#263238"/>
<path d="M85.7725 29.7781C84.5763 51.366 71.5114 53.0988 66.8721 52.8344C62.6736 52.5979 48.2872 51.2592 47.2512 29.6651C46.2153 8.07103 56.6296 1.79072 66.3211 1.82245C76.0127 1.85418 86.9408 8.21129 85.7725 29.7781Z" fill="#EB9481"/>
<path d="M81.9431 26.292C81.4673 26.1567 81.0001 25.9933 80.5437 25.8026C80.0226 25.7032 79.5498 25.4324 79.2004 25.0333C79.1161 24.8865 79.0821 24.716 79.1037 24.548C79.1252 24.38 79.2011 24.2236 79.3197 24.1026C79.5913 23.8992 79.9125 23.7724 80.2498 23.7354C80.587 23.6983 80.928 23.7524 81.2371 23.892C81.9092 24.0768 82.4879 24.5058 82.8601 25.0951C82.9394 25.2349 82.9757 25.3949 82.9646 25.5553C82.9534 25.7156 82.8954 25.8692 82.7976 25.9968C82.6998 26.1244 82.5666 26.2205 82.4147 26.273C82.2627 26.3254 82.0987 26.3321 81.9431 26.292Z" fill="#263238"/>
<path d="M66.9989 26.2989C67.4954 26.2849 67.9907 26.2427 68.4824 26.1725C69.0137 26.2055 69.5408 26.06 69.98 25.7591C70.0986 25.6379 70.1739 25.481 70.1942 25.3127C70.2144 25.1444 70.1786 24.9742 70.0923 24.8284C69.882 24.5604 69.6035 24.354 69.2858 24.231C68.9682 24.108 68.6232 24.0728 68.2871 24.1292C67.5919 24.1459 66.9268 24.4176 66.4186 24.8926C66.3008 25.0068 66.22 25.1536 66.1866 25.3141C66.1533 25.4747 66.1688 25.6415 66.2314 25.793C66.2939 25.9445 66.4005 26.0738 66.5373 26.164C66.6742 26.2542 66.835 26.3012 66.9989 26.2989Z" fill="#263238"/>
<path d="M68.3447 41.9437C68.6314 42.3494 68.8832 42.8812 69.4009 43.021C69.9409 43.113 70.4943 43.089 71.0244 42.9504C71.0734 42.9504 71.1154 42.9994 71.0734 43.0344C70.8149 43.2817 70.4936 43.4536 70.1445 43.5314C69.7954 43.6092 69.4318 43.59 69.0929 43.4759C68.8115 43.346 68.5756 43.1344 68.4159 42.8687C68.2563 42.603 68.1803 42.2953 68.1977 41.9857C68.1907 41.8948 68.2747 41.8877 68.3447 41.9437Z" fill="#263238"/>
<path d="M75.1317 37.5045C75.1317 37.5045 75.131 39.7227 75.0188 40.7514C75.0187 40.8494 74.7528 40.8635 74.3959 40.8356C74.3959 40.8356 74.396 40.8356 74.361 40.8356C73.4564 40.886 72.5557 40.6846 71.759 40.2538C70.9624 39.8229 70.301 39.1795 69.8483 38.395C69.8316 38.3727 69.8245 38.3447 69.8284 38.3172C69.8323 38.2896 69.8471 38.2647 69.8694 38.248C69.8916 38.2313 69.9196 38.2241 69.9472 38.2281C69.9747 38.232 69.9996 38.2467 70.0163 38.269C71.2123 39.3367 72.7216 39.9891 74.3192 40.1289C74.4243 39.8559 74.1594 36.3292 74.3204 36.3362C75.1091 36.5135 75.8712 36.7932 76.5873 37.1681C76.6797 32.5427 76.0374 27.9385 76.1997 23.3341C76.1998 23.297 76.2145 23.2614 76.2408 23.2351C76.267 23.2089 76.3026 23.1941 76.3397 23.1941C76.3768 23.1941 76.4124 23.2088 76.4387 23.2351C76.4649 23.2613 76.4797 23.2969 76.4796 23.334C77.4928 28.106 77.4981 33.4311 77.5247 38.2105C77.5385 38.7563 75.5235 37.7143 75.1317 37.5045Z" fill="#263238"/>
<path d="M69.9374 30.4225C69.9374 30.3665 69.8184 30.4786 69.8114 30.5345C69.678 31.9761 69.2856 33.6136 67.921 33.929C67.879 33.929 67.879 34.013 67.921 34.013C69.5444 33.9704 70.0419 31.808 69.9374 30.4225Z" fill="#263238"/>
<path d="M66.977 30.7725C66.853 30.8985 66.7087 31.0027 66.55 31.0806C66.4269 31.1485 66.2905 31.1887 66.1503 31.1984C66.0101 31.2081 65.8695 31.1871 65.7383 31.1368C64.9127 30.8292 64.78 29.8636 64.9483 28.9819C64.9483 28.9189 64.9973 28.8909 65.0252 28.9468C65.263 29.4786 65.5567 30.0383 66.0675 30.0871C66.4342 30.0618 66.7851 29.9277 67.0753 29.7019C67.0016 30.0539 66.9687 30.4131 66.977 30.7725Z" fill="#263238"/>
<path d="M69.7452 32.3408C69.6235 32.7298 69.4013 33.0799 69.1011 33.3557C68.9272 33.499 68.7254 33.6048 68.5086 33.6663C68.2918 33.7278 68.0647 33.7437 67.8415 33.713C67.6141 33.678 67.3982 33.5902 67.2111 33.4566C67.024 33.323 66.8709 33.1472 66.7641 32.9436C66.5874 32.5842 66.4943 32.1896 66.4915 31.7891C66.4935 31.5548 66.5123 31.3209 66.5477 31.0893C66.6106 30.5881 66.7905 30.1086 67.073 29.6896C66.9993 30.0416 66.9664 30.4008 66.9747 30.7603C66.9751 31.086 67.0007 31.4112 67.0513 31.7329C67.1561 32.3837 67.4498 32.9574 67.9536 32.9992C68.4574 33.041 68.9264 32.7119 69.2274 32.1171C69.5237 31.4904 69.7582 30.8365 69.9278 30.1645C70.0393 30.8941 69.9768 31.6398 69.7452 32.3408Z" fill="#263238"/>
<path d="M78.2336 30.8946C78.2336 30.8386 78.3385 30.9715 78.3315 31.0345C78.1631 32.4691 78.2116 34.1485 79.4779 34.7428C79.5199 34.7428 79.4779 34.8338 79.4779 34.8198C77.8826 34.4635 77.8413 32.2313 78.2336 30.8946Z" fill="#263238"/>
<path d="M81.066 31.8176C81.1575 31.9666 81.2761 32.0971 81.4157 32.2024C81.5224 32.2941 81.6476 32.3616 81.7829 32.4003C81.9182 32.4389 82.0603 32.4477 82.1994 32.426C83.0671 32.2928 83.4033 31.369 83.4176 30.4803C83.4176 30.4173 83.3826 30.3753 83.3476 30.4243C83.0046 30.8933 82.5986 31.3832 82.0948 31.3274C81.7412 31.2273 81.4249 31.0254 81.1853 30.7469C81.185 31.1071 81.145 31.4662 81.066 31.8176Z" fill="#263238"/>
<path d="M78.033 32.8037C78.0685 33.2103 78.2135 33.5995 78.4525 33.9302C78.5931 34.105 78.7681 34.2492 78.9667 34.3539C79.1652 34.4585 79.3831 34.5214 79.6069 34.5386C79.8363 34.5512 80.0654 34.5095 80.2757 34.4171C80.4861 34.3246 80.6717 34.1839 80.8176 34.0064C81.0674 33.6939 81.2401 33.3271 81.3218 32.9356C81.371 32.7049 81.4038 32.4711 81.42 32.2358C81.4607 31.7391 81.3817 31.24 81.1895 30.7804C81.1892 31.1405 81.1492 31.4996 81.0702 31.851C80.9991 32.1675 80.9054 32.4786 80.79 32.7818C80.5519 33.3977 80.1459 33.8946 79.6421 33.8318C79.1383 33.769 78.7536 33.3563 78.5858 32.7126C78.4307 32.0395 78.3419 31.3528 78.3205 30.6624C78.0578 31.3438 77.9593 32.0774 78.033 32.8037Z" fill="#263238"/>
<path d="M47.0457 30.0287C50.6142 30.7272 52.3869 23.2952 52.3869 23.2952C52.3869 23.2952 59.713 24.2304 63.4458 13.9918C62.8431 17.1227 61.3392 20.0101 59.1188 22.2993C59.1188 22.2993 72.2111 22.5398 79.0018 12.3981C79.0018 12.3981 76.1452 17.6402 73.8635 19.3414C73.8635 19.3414 79.4618 18.5068 82.6679 14.4401C82.6679 14.4401 84.1493 20.9614 85.6742 22.9062C85.6742 22.9062 87.9694 0.226324 66.718 0.0235383C66.718 0.0235383 53.4929 -0.734754 47.486 9.06384C41.4791 18.8624 47.0457 30.0287 47.0457 30.0287Z" fill="#263238"/>
<path d="M50.845 30.0841C50.845 30.0841 47.1316 22.7309 43.8494 23.9706C40.5672 25.2102 42.7053 35.391 46.0775 37.2232C46.4935 37.4872 46.9586 37.6642 47.4449 37.7437C47.9312 37.8231 48.4286 37.8033 48.9072 37.6855C49.3858 37.5676 49.8357 37.3542 50.2297 37.058C50.6238 36.7618 50.9538 36.3889 51.2001 35.9619L50.845 30.0841Z" fill="#EB9481"/>
<path d="M44.5443 26.8768C44.4883 26.8768 44.4673 26.9398 44.5443 26.9678C46.895 28.3665 47.8739 30.8363 48.4539 33.3692C47.8455 32.3338 46.908 31.6903 45.5433 32.3975C45.4663 32.3976 45.5432 32.5445 45.5922 32.5375C46.0504 32.4613 46.5208 32.5286 46.9391 32.7302C47.3574 32.9317 47.7032 33.2576 47.929 33.6633C48.3022 34.3448 48.6 35.0651 48.817 35.8112C48.9009 36.0491 49.3208 35.993 49.2789 35.7201C49.2756 35.6993 49.2756 35.678 49.2789 35.6571C49.7557 32.4871 47.9169 27.7014 44.5443 26.8768Z" fill="#263238"/>
<path d="M45.9913 72.6476C43.4619 83.0748 30.498 120.166 27.2712 123.386C23.4353 127.222 6.69363 139.012 0.862563 123.325C-3.17863 112.452 24.3124 74.3343 37.2686 62.0632C43.6453 56.0572 50.2232 55.1733 45.9913 72.6476Z" fill="#EB9481"/>
<path d="M44.4706 83.9872C43.4833 85.8629 42.3702 87.6756 41.334 89.5024C41.5791 88.8375 41.8242 88.1656 42.0343 87.4938C43.0639 84.5755 44.0235 81.6362 45.067 78.7249C45.102 78.6339 44.9551 78.5989 44.9201 78.6829C43.8137 81.2234 42.6513 83.7359 41.5729 86.2904C40.4945 88.8449 39.577 91.3083 38.6246 93.8348C36.7057 98.9436 34.7588 104.038 32.9798 109.196C31.9267 112.05 31.022 114.955 30.2691 117.902C30.2691 117.979 30.374 118.042 30.409 117.965C31.5854 115.516 32.5098 112.947 33.4693 110.414C34.4287 107.88 35.3672 105.354 36.2706 102.82C37.1741 100.287 38.1756 97.6416 39.156 95.0661C39.6392 93.7714 40.1435 92.4837 40.6407 91.196C42.1561 88.9352 43.4437 86.5298 44.4845 84.0152C44.4845 84.0152 44.4706 83.9592 44.4706 83.9872Z" fill="#263238"/>
<path d="M49.3536 126.284C52.2007 129.04 49.6589 157.276 44.1034 155.487C18.0123 147.064 4.22502 131.275 1.63042 126.496C-1.74044 120.242 2.87328 112.655 7.23323 111.037C13.5317 108.698 46.4994 123.57 49.3536 126.284Z" fill="#EB9481"/>
<path d="M20.7185 114.199C32.1519 116.105 46.1724 124.351 46.2003 124.365C46.4033 124.435 46.3752 124.736 46.2632 124.694C44.1082 123.995 28.8699 116.715 20.7044 114.507C20.6275 114.479 20.6696 114.185 20.7185 114.199Z" fill="#263238"/>
<path d="M38.8504 153.514C50.1988 158.409 63.0661 162.064 75.6555 159.254C77.0621 158.977 78.336 158.238 79.2739 157.153C84.9422 155.99 86.0978 152.953 86.0978 152.953C91.0459 150.257 91.8026 147.003 91.8026 147.003C91.8026 147.003 96.2325 145.511 95.4218 142.341C94.6111 139.172 86.7668 139.16 80.6795 137.651C66.7345 134.157 49.894 125.877 45.9479 124.479L38.8504 153.514Z" fill="#EB9481"/>
<path d="M65.522 144.808C69.6432 145.751 73.6735 146.778 77.9069 147.148C82.5461 147.559 87.0806 147.145 91.706 146.898C91.7357 146.894 91.766 146.901 91.7903 146.919C91.8146 146.936 91.8308 146.963 91.8355 146.993C91.8401 147.022 91.8327 147.053 91.815 147.077C91.7973 147.101 91.7706 147.117 91.7409 147.122C83.4413 148.951 73.4072 147.982 65.4799 144.997C65.284 144.927 65.3121 144.766 65.522 144.808Z" fill="#263238"/>
<path d="M62.2018 152.947C66.2671 153.645 73.3972 154.804 86.1053 152.841C86.1473 152.841 86.1683 152.904 86.1053 152.918C78.2927 155.213 69.9972 155.291 62.1457 153.143C61.9428 153.052 61.9429 152.877 62.2018 152.947Z" fill="#263238"/>
<path d="M60.5023 157.334C67.4576 158.241 71.9571 157.932 79.2697 157.124C79.3117 157.124 79.3327 157.194 79.2697 157.201C71.0541 158.996 67.8703 158.71 60.4183 157.565C60.1804 157.53 60.2294 157.299 60.5023 157.334Z" fill="#263238"/>
<path d="M66.1473 132.94C64.5103 131.765 65.1123 130.897 68.6881 130.735C72.2639 130.573 86.5521 132.954 86.9665 127.93C87.3809 122.905 67.1801 119.77 61.2529 120.5C55.3258 121.23 45.9831 124.487 45.9831 124.487C49.7823 125.878 58.7099 130.122 66.1473 132.94Z" fill="#EB9481"/>
<path d="M94.4755 140.769C93.6362 139.37 87.6956 138.497 86.1212 138.323C82.2587 137.883 72.827 134.982 71.2037 134.493C69.7623 134.067 65.9421 132.683 66.1313 131.892C66.4746 130.408 76.6276 131.832 82.8416 131.025C84.3059 130.863 85.6955 130.293 86.8517 129.38C87.0925 129.148 87.2852 128.871 87.4188 128.564C87.5524 128.258 87.6242 127.928 87.6301 127.594C87.6361 127.26 87.5761 126.928 87.4535 126.617C87.3309 126.306 87.1482 126.023 86.9158 125.783C85.9505 124.643 84.3413 124.006 82.9909 123.454C81.5122 122.861 79.9951 122.368 78.45 121.979C76.9177 121.588 75.3573 121.28 73.804 120.98C72.1247 120.659 70.4453 120.33 68.745 120.093C67.0511 119.831 65.3352 119.74 63.6229 119.822C61.9647 119.951 60.3236 120.247 58.7244 120.705C55.3443 121.609 51.9712 122.583 48.647 123.654C47.8212 123.921 46.7226 124.103 45.9108 124.397C45.8934 124.408 45.8801 124.424 45.8731 124.444C45.8661 124.463 45.8659 124.484 45.8724 124.503C45.8788 124.523 45.8916 124.539 45.9088 124.551C45.9259 124.562 45.9463 124.567 45.9667 124.565C49.3258 123.773 52.9228 122.897 56.2678 122.035C57.9054 121.615 59.55 121.153 61.2155 120.851C62.9141 120.562 64.6431 120.495 66.3587 120.654C68.0815 120.823 69.7938 121.086 71.4876 121.443C73.062 121.75 74.6433 122.064 76.2107 122.428C79.2474 123.126 86.5033 124.852 86.7053 127.602C86.8587 129.534 83.2058 130.06 81.8063 130.228C78.5733 130.607 65.7753 129.121 65.0818 131.528C64.8156 132.424 66.1868 133.228 66.7046 133.536C67.3413 133.921 68.0109 134.248 68.7056 134.515C72.1339 135.829 79.6487 137.667 82.9023 138.569C86.5057 139.568 92.7894 139.601 94.3775 140.944C94.5873 141.119 94.6154 141.042 94.4755 140.769Z" fill="#263238"/>
<path d="M93.2436 146.331C92.76 146.593 92.2416 146.784 91.704 146.899C90.6408 149.5 88.6432 151.61 86.1041 152.814C84.4914 155.067 82.0536 156.592 79.3222 157.056C79.3115 157.06 79.3023 157.068 79.2957 157.077C79.2892 157.086 79.2857 157.097 79.2857 157.109C79.2857 157.12 79.2892 157.131 79.2957 157.141C79.3022 157.15 79.3115 157.157 79.3222 157.161C80.7594 157.31 82.2066 156.993 83.4504 156.257C84.6942 155.521 85.6687 154.404 86.23 153.072C90.5688 151.958 91.4726 148.501 91.8789 147.095C92.3791 146.98 92.8417 146.739 93.2226 146.394C93.2856 146.359 93.2506 146.324 93.2436 146.331Z" fill="#263238"/>
</svg>
