<svg width="307" height="299" viewBox="0 0 307 299" fill="none" xmlns="http://www.w3.org/2000/svg">
<path d="M274.202 75.359C272.695 83.7864 265.289 90.6981 265.289 90.6981C265.289 90.6981 255.329 88.8619 249.534 82.5652C244.701 77.3164 244.693 70.1189 249.067 67.2607C255.338 63.1726 260.604 74.6401 260.604 74.6401C260.604 74.6401 258.871 62.1419 266.355 62.2112C271.577 62.2632 275.44 68.3347 274.202 75.359Z" fill="#B99AC8"/>
<path d="M296.644 55.276C291.447 58.8098 283.99 58.4633 283.99 58.4633C283.99 58.4633 279.832 52.2705 280.179 45.9825C280.456 40.7338 284.241 37.0354 287.974 37.8669C293.352 39.0708 290.018 47.7407 290.018 47.7407C290.018 47.7407 295.708 40.4046 299.545 44.3888C302.204 47.1604 300.983 52.3138 296.644 55.276Z" fill="#B99AC8"/>
<path d="M35.5692 67.7704C36.011 74.0584 31.9575 80.3119 31.9575 80.3119C31.9575 80.3119 24.5175 80.7969 19.2601 77.341C14.8689 74.4568 13.561 69.3207 16.1767 66.4972C19.9184 62.461 25.7041 69.6932 25.7041 69.6932C25.7041 69.6932 22.2396 61.0839 27.5836 59.7934C31.3512 58.8926 35.1968 62.5303 35.5692 67.7704Z" fill="#B99AC8"/>
<path d="M269.255 31.0067C267.151 34.6098 262.603 36.5153 262.603 36.5153C262.603 36.5153 258.359 34.0035 256.774 30.1493C255.449 26.936 256.653 23.6447 259.13 23.073C262.69 22.2675 263.166 28.391 263.166 28.391C263.166 28.391 264.474 22.3888 267.887 23.6793C270.26 24.5801 271.005 28.0013 269.255 31.0067Z" fill="#B99AC8"/>
<path d="M13.8725 43.0082C11.7678 46.6027 7.22061 48.5168 7.22061 48.5168C7.22061 48.5168 2.9766 46.005 1.39159 42.1508C0.0664225 38.9375 1.27034 35.6462 3.74745 35.0745C7.30723 34.2604 7.7836 40.3839 7.7836 40.3839C7.7836 40.3839 9.09145 34.3903 12.504 35.6808C14.8772 36.5816 15.622 40.0028 13.8725 43.0082Z" fill="#B99AC8"/>
<path d="M190.842 90.0681C188.394 82.7383 180.981 78.2184 172.634 76.6591C164.287 75.0997 153.507 75.273 147.458 87.8157C142.547 97.993 141.673 109.504 136.912 121.15C132.151 132.796 107.533 155.915 123.066 178.319C137.025 198.44 180.137 202.531 191.663 177.355C200.801 157.399 184.273 128.849 184.981 119.809C185.689 110.769 193.531 98.106 190.842 90.0681Z" fill="#263238"/>
<path d="M189.679 102.953C187.48 108.829 185.913 115.051 186.139 121.522C186.197 123.161 186.481 124.783 186.983 126.344C187.442 127.903 187.992 129.41 188.534 130.909C189.649 133.922 190.757 136.852 191.721 139.851C193.736 145.781 194.88 151.972 195.118 158.231C195.247 164.484 194.194 170.705 192.015 176.567C193.43 173.742 194.527 170.768 195.284 167.701C196.01 164.604 196.414 161.441 196.489 158.262C196.67 151.866 195.367 145.455 193.431 139.376C192.444 136.325 191.292 133.349 190.146 130.336C189.001 127.323 187.781 124.483 187.555 121.432C187.312 118.335 187.431 115.22 187.909 112.151C188.306 109.051 188.897 105.979 189.679 102.953Z" fill="#263238"/>
<path d="M144.451 96.8203C142.191 102.847 140.188 108.873 137.671 114.719C136.421 117.629 134.992 120.46 133.393 123.194C131.811 125.876 129.799 128.392 127.916 130.998C126.033 133.605 124.21 136.271 122.545 139.051C120.891 141.841 119.485 144.77 118.341 147.805C117.255 150.877 116.61 154.088 116.428 157.342C116.415 160.611 117.069 163.848 118.349 166.856C117.416 163.8 117.063 160.596 117.309 157.409C117.655 154.28 118.438 151.214 119.637 148.302C122.085 142.486 125.618 137.175 129.392 132.023C131.231 129.409 133.242 126.893 134.877 124.03C136.457 121.208 137.819 118.269 138.952 115.239C141.159 109.217 142.996 103.066 144.451 96.8203Z" fill="#263238"/>
<path d="M162.249 290.252H113.728L122.293 247.155C109.923 234.123 113.728 209.971 113.728 209.971L178.407 209.934C181.112 232.804 166.151 283.389 162.249 290.252Z" fill="#263238"/>
<path d="M198.865 209.934C198.865 209.934 209.411 229.595 187.979 252.534C187.535 253.016 193.509 287.706 193.403 290.252H139.466C136.837 281.596 129.447 263.939 129.447 263.939C129.447 263.939 115.525 256.067 111.909 239.456C108.723 224.781 113.725 209.971 113.725 209.971L198.865 209.934Z" fill="#37474F"/>
<path d="M193.712 245.537C199.829 238.795 203.407 229.717 202.601 222.644C200.59 205.107 186.781 194.244 186.781 194.244C186.781 194.244 194.94 182.522 191.618 173.302C189.945 168.631 174.239 140.909 167.082 134.694C160.363 128.856 149.259 133.293 145.236 137.248C133.183 149.098 122.418 178.281 115.013 205.687L112.203 216.188C143.827 235.744 193.712 245.537 193.712 245.537Z" fill="#EB9481"/>
<path d="M186.752 194.244C158.744 200.481 128.544 193.754 119.135 191.298C126.163 168.639 135.211 147.026 145.192 137.248C149.222 133.301 160.334 128.856 167.038 134.702C174.202 140.924 191.415 169.354 193.088 174.055C196.417 183.283 186.752 194.244 186.752 194.244Z" fill="#B99AC8"/>
<path d="M179.392 187.598C175.797 187.722 172.233 188.317 168.793 189.368C165.327 190.347 157.681 193.376 155.76 194.121C155.715 194.121 155.76 194.212 155.76 194.197C158.258 193.605 160.718 192.866 163.128 191.982C166.525 190.829 169.945 189.782 173.411 188.886C175.374 188.399 177.367 188.039 179.377 187.809C179.405 187.811 179.432 187.801 179.454 187.783C179.475 187.765 179.488 187.739 179.49 187.711C179.492 187.683 179.483 187.655 179.464 187.634C179.446 187.613 179.42 187.6 179.392 187.598Z" fill="#263238"/>
<path d="M185.735 189.395C181.995 189.089 178.23 189.423 174.601 190.382C174.556 190.382 174.564 190.472 174.601 190.465C176.447 190.246 178.285 190.028 180.138 189.87C181.991 189.711 183.86 189.621 185.728 189.5C185.742 189.501 185.756 189.497 185.766 189.488C185.777 189.478 185.783 189.465 185.784 189.451C185.785 189.437 185.781 189.424 185.772 189.413C185.762 189.402 185.749 189.396 185.735 189.395Z" fill="#263238"/>
<path d="M153.002 137.259C153.304 138.766 160.242 151.572 168.483 150.397C171.941 149.892 169.99 136.513 169.99 136.513L173.681 122.81L156.746 111.059C156.746 111.059 152.889 136.596 153.002 137.259Z" fill="#EB9481"/>
<path d="M173.682 122.81L170.127 136.136C163.346 133.136 158.024 127.581 155.316 120.678C156.07 115.473 156.755 111.059 156.755 111.059L173.682 122.81Z" fill="#263238"/>
<path d="M193.269 107.001C191.988 130.241 177.924 132.102 172.929 131.815C168.409 131.559 152.921 130.113 151.799 106.865C150.676 83.6182 161.885 76.8609 172.319 76.8986C182.752 76.9363 194.519 83.7839 193.269 107.001Z" fill="#EB9481"/>
<path d="M189.146 103.242C188.634 103.096 188.131 102.92 187.639 102.714C187.078 102.607 186.569 102.315 186.193 101.886C186.102 101.727 186.066 101.544 186.089 101.363C186.112 101.182 186.194 101.014 186.321 100.884C186.614 100.665 186.959 100.528 187.322 100.489C187.685 100.449 188.052 100.507 188.385 100.658C189.109 100.857 189.732 101.319 190.133 101.953C190.218 102.104 190.257 102.276 190.246 102.449C190.234 102.621 190.171 102.787 190.066 102.924C189.961 103.061 189.817 103.165 189.654 103.221C189.49 103.278 189.314 103.285 189.146 103.242Z" fill="#263238"/>
<path d="M173.055 103.242C173.59 103.227 174.123 103.182 174.652 103.107C175.224 103.142 175.792 102.986 176.264 102.662C176.392 102.532 176.473 102.363 176.495 102.182C176.517 102.001 176.478 101.817 176.385 101.66C176.159 101.372 175.859 101.149 175.517 101.017C175.175 100.884 174.803 100.846 174.441 100.907C173.693 100.925 172.977 101.217 172.43 101.728C172.303 101.851 172.216 102.009 172.181 102.182C172.145 102.355 172.161 102.534 172.229 102.697C172.296 102.86 172.411 103 172.558 103.097C172.706 103.194 172.879 103.245 173.055 103.242Z" fill="#263238"/>
<path d="M174.51 120.093C174.819 120.53 175.09 121.103 175.648 121.253C176.229 121.353 176.825 121.327 177.396 121.178C177.448 121.178 177.494 121.231 177.448 121.268C177.17 121.534 176.824 121.719 176.449 121.803C176.073 121.887 175.681 121.866 175.316 121.743C175.013 121.603 174.759 121.375 174.587 121.089C174.415 120.803 174.334 120.472 174.352 120.138C174.345 120.04 174.435 120.033 174.51 120.093Z" fill="#263238"/>
<path d="M181.818 115.304C181.818 115.304 181.818 117.692 181.697 118.799C181.697 118.905 181.411 118.92 181.027 118.89C181.027 118.89 181.027 118.89 180.989 118.89C180.015 118.944 179.045 118.726 178.188 118.262C177.33 117.798 176.618 117.105 176.13 116.261C176.112 116.237 176.104 116.206 176.109 116.177C176.113 116.147 176.129 116.12 176.153 116.102C176.177 116.084 176.207 116.077 176.236 116.081C176.266 116.085 176.293 116.101 176.311 116.125C177.599 117.275 179.224 117.978 180.944 118.129C181.057 117.835 180.77 114.038 180.944 114.046C181.793 114.237 182.613 114.538 183.384 114.942C183.482 109.963 182.789 105.006 182.963 100.049C182.963 100.009 182.978 99.971 183.007 99.9427C183.035 99.9144 183.073 99.8986 183.113 99.8986C183.153 99.8986 183.192 99.9144 183.22 99.9427C183.248 99.971 183.264 100.009 183.264 100.049C184.356 105.187 184.364 110.92 184.394 116.065C184.409 116.652 182.239 115.53 181.818 115.304Z" fill="#263238"/>
<path d="M176.219 107.688C176.219 107.628 176.091 107.748 176.083 107.809C175.94 109.361 175.518 111.123 174.05 111.462C174.004 111.462 174.004 111.553 174.05 111.553C175.797 111.507 176.332 109.18 176.219 107.688Z" fill="#263238"/>
<path d="M173.034 108.061C172.901 108.197 172.745 108.309 172.575 108.393C172.442 108.466 172.295 108.509 172.144 108.519C171.994 108.53 171.842 108.507 171.701 108.453C170.812 108.121 170.669 107.082 170.85 106.133C170.85 106.065 170.902 106.035 170.932 106.095C171.189 106.667 171.505 107.27 172.055 107.323C172.45 107.296 172.827 107.151 173.14 106.909C173.061 107.287 173.025 107.674 173.034 108.061Z" fill="#263238"/>
<path d="M176.017 109.753C175.886 110.172 175.647 110.549 175.324 110.846C175.136 111 174.919 111.114 174.686 111.18C174.452 111.246 174.208 111.263 173.968 111.23C173.723 111.192 173.49 111.097 173.289 110.954C173.087 110.81 172.922 110.62 172.807 110.401C172.617 110.014 172.517 109.589 172.514 109.158C172.516 108.906 172.536 108.654 172.574 108.405C172.641 107.865 172.835 107.349 173.139 106.898C173.06 107.277 173.024 107.664 173.033 108.051C173.034 108.401 173.062 108.752 173.116 109.098C173.229 109.798 173.546 110.416 174.088 110.461C174.63 110.507 175.135 110.153 175.459 109.512C175.778 108.838 176.03 108.134 176.212 107.41C176.333 108.196 176.266 108.999 176.017 109.753Z" fill="#263238"/>
<path d="M185.154 108.194C185.154 108.134 185.267 108.277 185.259 108.345C185.078 109.889 185.131 111.697 186.495 112.337C186.54 112.337 186.495 112.435 186.495 112.42C184.777 112.036 184.732 109.633 185.154 108.194Z" fill="#263238"/>
<path d="M188.203 109.194C188.302 109.354 188.429 109.495 188.58 109.608C188.695 109.707 188.83 109.78 188.975 109.821C189.121 109.863 189.274 109.873 189.423 109.849C190.358 109.706 190.719 108.712 190.734 107.755C190.734 107.687 190.697 107.642 190.659 107.695C190.29 108.2 189.853 108.727 189.31 108.667C188.93 108.559 188.589 108.341 188.331 108.041C188.331 108.429 188.288 108.816 188.203 109.194Z" fill="#263238"/>
<path d="M184.936 110.25C184.974 110.688 185.13 111.107 185.388 111.463C185.539 111.652 185.728 111.807 185.942 111.92C186.155 112.032 186.39 112.1 186.631 112.119C186.878 112.132 187.124 112.088 187.351 111.988C187.577 111.889 187.777 111.737 187.934 111.546C188.203 111.21 188.389 110.815 188.476 110.394C188.529 110.145 188.565 109.894 188.582 109.64C188.626 109.106 188.54 108.568 188.333 108.073C188.333 108.461 188.29 108.848 188.205 109.226C188.129 109.567 188.028 109.901 187.904 110.228C187.648 110.891 187.211 111.426 186.668 111.358C186.126 111.29 185.712 110.846 185.531 110.153C185.364 109.428 185.268 108.689 185.245 107.945C184.962 108.679 184.856 109.468 184.936 110.25Z" fill="#263238"/>
<path d="M151.579 107.251C155.421 108.004 157.327 100.004 157.327 100.004C157.327 100.004 165.214 101.014 169.229 89.9925C168.581 93.3629 166.963 96.4707 164.573 98.9343C164.573 98.9343 178.668 99.198 185.975 88.2825C185.975 88.2825 182.902 93.9248 180.446 95.7554C180.446 95.7554 186.472 94.8589 189.923 90.4822C189.923 90.4822 191.52 97.503 193.162 99.5973C193.162 99.5973 195.625 75.1823 172.747 74.9563C172.747 74.9563 158.509 74.1352 152.046 84.6816C145.582 95.228 151.579 107.251 151.579 107.251Z" fill="#263238"/>
<path d="M155.67 107.313C155.67 107.313 151.67 99.3961 148.137 100.729C144.603 102.063 146.909 113.024 150.54 114.997C150.988 115.282 151.488 115.472 152.012 115.558C152.535 115.644 153.071 115.623 153.586 115.496C154.101 115.369 154.585 115.14 155.01 114.821C155.434 114.502 155.789 114.101 156.054 113.641L155.67 107.313Z" fill="#EB9481"/>
<path d="M148.882 103.855C148.822 103.855 148.799 103.923 148.882 103.953C151.413 105.46 152.468 108.119 153.093 110.846C152.438 109.731 151.428 109.038 149.959 109.799C149.877 109.799 149.959 109.957 150.012 109.95C150.505 109.868 151.012 109.941 151.462 110.158C151.913 110.375 152.285 110.726 152.528 111.163C152.93 111.896 153.251 112.672 153.485 113.475C153.575 113.731 154.027 113.671 153.982 113.377C153.979 113.355 153.979 113.332 153.982 113.31C154.494 109.897 152.513 104.744 148.882 103.855Z" fill="#263238"/>
<path d="M150.456 153.134C147.737 164.358 133.793 204.284 130.32 207.749C126.192 211.877 108.173 224.563 101.89 207.674C97.536 195.967 127.119 154.942 141.063 141.736C147.925 135.273 155.006 134.324 150.456 153.134Z" fill="#EB9481"/>
<path d="M148.822 165.336C147.76 167.355 146.562 169.306 145.447 171.272C145.711 170.556 145.975 169.833 146.201 169.11C147.308 165.968 148.34 162.805 149.462 159.671C149.5 159.573 149.342 159.535 149.304 159.626C148.114 162.36 146.864 165.065 145.703 167.814C144.543 170.564 143.556 173.215 142.532 175.935C140.468 181.434 138.374 186.918 136.46 192.47C135.328 195.542 134.354 198.669 133.545 201.841C133.545 201.924 133.658 201.992 133.696 201.909C134.961 199.273 135.956 196.508 136.988 193.781C138.02 191.054 139.029 188.334 140.001 185.607C140.973 182.88 142.05 180.033 143.104 177.261C143.624 175.867 144.167 174.481 144.702 173.095C146.332 170.662 147.718 168.073 148.837 165.366C148.837 165.366 148.822 165.306 148.822 165.336Z" fill="#263238"/>
<path d="M154.095 210.88C157.161 213.848 154.434 244.245 148.452 242.316C120.361 233.239 105.513 216.236 102.718 211.091C99.0874 204.357 104.052 196.191 108.745 194.451C115.525 191.934 151.021 207.958 154.095 210.88Z" fill="#EB9481"/>
<path d="M123.262 197.852C135.571 199.909 150.668 208.79 150.698 208.805C150.916 208.881 150.886 209.205 150.765 209.159C148.445 208.406 132.038 200.564 123.247 198.184C123.164 198.153 123.209 197.837 123.262 197.852Z" fill="#263238"/>
<path d="M142.797 240.185C155.016 245.458 168.869 249.398 182.421 246.377C183.935 246.08 185.307 245.284 186.316 244.117C192.418 242.867 193.661 239.597 193.661 239.597C198.987 236.697 199.8 233.194 199.8 233.194C199.8 233.194 204.569 231.589 203.695 228.177C202.821 224.764 194.376 224.749 187.823 223.122C172.809 219.356 154.677 210.436 150.428 208.93L142.797 240.185Z" fill="#EB9481"/>
<path d="M171.504 230.82C175.941 231.837 180.28 232.944 184.838 233.343C189.832 233.788 194.714 233.343 199.693 233.08C199.725 233.075 199.758 233.083 199.784 233.102C199.81 233.121 199.828 233.149 199.833 233.181C199.837 233.213 199.83 233.246 199.811 233.272C199.791 233.298 199.763 233.316 199.731 233.321C190.796 235.287 179.994 234.24 171.459 231.023C171.248 230.948 171.278 230.775 171.504 230.82Z" fill="#263238"/>
<path d="M167.934 239.586C172.311 240.339 179.987 241.59 193.667 239.48C193.713 239.48 193.735 239.548 193.667 239.563C185.257 242.031 176.327 242.112 167.874 239.797C167.655 239.699 167.655 239.511 167.934 239.586Z" fill="#263238"/>
<path d="M166.105 244.304C173.592 245.284 178.436 244.952 186.308 244.086C186.354 244.086 186.376 244.161 186.308 244.169C177.465 246.097 174.037 245.788 166.014 244.553C165.758 244.515 165.811 244.267 166.105 244.304Z" fill="#263238"/>
<path d="M172.175 218.045C170.413 216.78 171.061 215.846 174.91 215.672C178.759 215.499 194.142 218.068 194.587 212.659C195.031 207.25 173.283 203.868 166.902 204.651C160.522 205.435 150.465 208.938 150.465 208.938C154.555 210.437 164.168 215.01 172.175 218.045Z" fill="#EB9481"/>
<path d="M202.676 226.487C201.772 224.98 195.376 224.039 193.681 223.85C189.523 223.376 179.368 220.249 177.621 219.722C176.069 219.263 171.956 217.771 172.159 216.92C172.528 215.323 183.459 216.86 190.148 215.993C191.724 215.819 193.22 215.206 194.465 214.223C194.724 213.973 194.931 213.675 195.075 213.345C195.219 213.016 195.296 212.661 195.302 212.301C195.308 211.941 195.244 211.584 195.112 211.249C194.98 210.915 194.783 210.609 194.532 210.351C193.493 209.123 191.76 208.437 190.306 207.842C188.714 207.203 187.081 206.672 185.417 206.253C183.768 205.831 182.088 205.5 180.415 205.176C178.607 204.829 176.799 204.475 174.969 204.219C173.145 203.937 171.298 203.838 169.455 203.925C167.67 204.064 165.903 204.382 164.181 204.874C160.543 205.846 156.912 206.893 153.334 208.046C152.445 208.332 151.262 208.528 150.388 208.844C150.369 208.856 150.355 208.873 150.348 208.894C150.34 208.915 150.34 208.938 150.347 208.959C150.354 208.979 150.368 208.997 150.386 209.009C150.404 209.022 150.426 209.027 150.448 209.025C154.064 208.174 157.936 207.232 161.537 206.306C163.3 205.854 165.07 205.356 166.863 205.033C168.692 204.721 170.553 204.65 172.4 204.822C174.255 205.004 176.098 205.288 177.922 205.673C179.617 206.004 181.319 206.343 183.007 206.735C186.276 207.488 194.088 209.349 194.306 212.31C194.472 214.389 190.54 214.954 189.033 215.134C185.553 215.541 171.775 213.937 171.029 216.528C170.743 217.492 172.219 218.359 172.777 218.69C173.462 219.105 174.183 219.458 174.931 219.745C178.622 221.161 186.713 223.142 190.216 224.114C194.096 225.191 200.86 225.229 202.57 226.675C202.796 226.864 202.826 226.781 202.676 226.487Z" fill="#263238"/>
<path d="M201.351 232.474C200.83 232.755 200.272 232.96 199.694 233.084C198.55 235.884 196.4 238.154 193.667 239.449C191.932 241.875 189.308 243.516 186.367 244.014C186.356 244.019 186.346 244.026 186.339 244.037C186.332 244.047 186.328 244.059 186.328 244.071C186.328 244.083 186.332 244.095 186.339 244.105C186.346 244.115 186.356 244.123 186.367 244.127C187.915 244.288 189.473 243.947 190.811 243.155C192.15 242.363 193.199 241.162 193.803 239.728C198.473 238.53 199.445 234.809 199.882 233.295C200.42 233.171 200.918 232.912 201.328 232.541C201.396 232.504 201.358 232.466 201.351 232.474Z" fill="#263238"/>
<path d="M45.5946 103.626C46.8296 107.777 47.1331 112.15 46.4836 116.432C45.1427 125.419 38.3854 132.538 36.9164 141.39C37.1048 142.459 37.3232 143.529 37.602 144.599C37.599 144.616 37.599 144.634 37.602 144.652C37.5975 144.672 37.5884 144.692 37.5754 144.709C37.5624 144.726 37.5457 144.74 37.5266 144.749C37.4627 144.629 37.4049 144.506 37.3534 144.38C37.2479 144.162 37.15 143.936 37.0596 143.717C36.9692 143.499 36.7959 143.085 36.6754 142.761C36.6754 142.761 36.6001 142.618 36.6001 142.572C33.3081 133.48 36.3289 123.4 37.8656 114.172C38.747 108.899 38.3779 103.573 39.1613 98.3527C39.3497 97.0947 39.3421 94.7142 41.1501 95.1963C43.2217 95.7914 45.0975 101.939 45.5946 103.626Z" fill="#455A64"/>
<path d="M42.108 104.807C40.865 104.4 40.865 107.458 40.7219 108.234C39.5919 114.509 38.01 120.528 36.7595 126.728C35.7425 131.783 35.4864 136.559 36.541 141.373C36.6521 142.194 36.8387 143.003 37.0985 143.791C37.1964 144.115 37.3094 144.446 37.4299 144.762C37.4377 144.781 37.4502 144.797 37.466 144.808C37.4819 144.82 37.5006 144.828 37.5203 144.83H37.5655C37.5846 144.821 37.6012 144.807 37.6143 144.79C37.6273 144.773 37.6364 144.753 37.6408 144.732C37.6379 144.715 37.6379 144.697 37.6408 144.68C37.6408 144.589 37.5806 144.506 37.558 144.416C37.4902 144.213 37.4374 144.002 37.3772 143.791C37.3169 143.58 37.219 143.181 37.1437 142.872C34.8008 131.949 44.8802 122.381 44.3077 111.451C44.2173 110.125 43.6824 105.326 42.108 104.807ZM36.4205 138.141C36.2003 133.724 36.6087 129.298 37.6333 124.995C38.3866 121.44 39.2002 117.892 39.9761 114.336L41.076 109.266C41.1739 108.829 41.2492 105.718 41.8293 105.5C42.8538 105.07 43.6448 109.183 43.7427 109.801C45.3397 119.692 36.9779 128.566 36.4205 138.141Z" fill="white"/>
<path d="M48.2293 208.635C48.2293 208.778 48.1087 208.981 47.9129 208.853C39.6264 203.52 29.3135 207.867 20.7408 203.098C17.3552 201.067 14.2589 198.589 11.5353 195.731C9.39734 193.747 7.51464 191.505 5.9306 189.056C5.72721 188.725 4.6801 187.369 4.84583 186.698C6.16413 181.591 19.4225 190.231 21.6448 191.452C30.3154 196.183 38.2177 200.492 45.8413 206.571C46.6398 207.189 47.4308 207.844 48.2067 208.514C48.2368 208.537 48.2368 208.59 48.2293 208.635Z" fill="#455A64"/>
<path d="M48.2097 208.533C47.4564 207.863 46.6428 207.208 45.8443 206.59C41.9346 204.285 37.7838 202.394 33.6707 200.488C27.2524 197.512 21.2259 194.009 15.0713 190.559C14.2427 190.092 10.8603 187.441 9.97137 188.819C8.97699 190.326 12.3368 193.377 13.1504 194.168C17.723 198.642 22.9962 201.226 29.1885 202.808C35.3807 204.39 41.6408 205.332 47.3283 208.081L48.2323 208.646C48.2398 208.586 48.2398 208.533 48.2097 208.533ZM31.2827 202.793C19.4933 200.458 9.98644 191.426 10.9431 189.648C11.3047 188.992 12.721 189.813 13.1579 190.047C14.0167 190.507 14.8755 190.989 15.7342 191.478C17.4443 192.45 19.1317 193.459 20.8267 194.446C23.9303 196.239 27.0993 197.902 30.3335 199.433C35.0417 201.693 39.8027 203.787 44.3301 206.319C40.0988 204.744 35.7311 203.564 31.2827 202.793Z" fill="white"/>
<path d="M34.4614 192.947C34.4707 192.953 34.4783 192.961 34.4836 192.971C34.4889 192.981 34.4917 192.992 34.4917 193.003C34.4917 193.015 34.4889 193.026 34.4836 193.035C34.4783 193.045 34.4707 193.054 34.4614 193.06C34.4543 193.069 34.4452 193.077 34.4348 193.082C34.4243 193.087 34.4128 193.09 34.4011 193.09C34.3894 193.09 34.3779 193.087 34.3674 193.082C34.3569 193.077 34.3478 193.069 34.3408 193.06L33.8286 192.563C33.2033 191.945 32.5931 191.312 32.0055 190.679C31.9001 190.559 31.7871 190.446 31.6816 190.333C31.5762 190.22 31.6138 190.333 31.5912 190.295C24.9771 183.515 14.958 181.459 9.31568 173.609C6.91533 170.054 5.13253 166.119 4.04247 161.97C3.53021 160.193 0.984006 154.776 3.21382 153.375C4.95398 152.283 7.66591 154.656 8.80342 155.635C12.4043 158.829 14.958 163.311 17.4666 167.364C19.9751 171.417 22.1672 175.425 24.5025 179.462C26.6809 183.109 29.1551 186.571 31.9001 189.813C32.7061 190.875 33.58 191.907 34.4614 192.947Z" fill="#455A64"/>
<path d="M31.8481 189.841C31.1777 189.088 30.4771 188.417 29.769 187.732C26.9516 184.357 24.1267 180.952 21.3394 177.592C17.2037 172.537 14.0774 166.827 10.228 161.577C9.74586 160.929 8.06597 157.81 7.21472 159.317C6.36347 160.823 10.68 170.089 13.4522 174.067C14.9555 176.187 16.8133 178.032 18.9438 179.521C23.2532 182.582 27.3274 185.961 31.1325 189.63C31.4338 189.962 31.7201 190.301 32.0139 190.64C32.6015 191.272 33.2116 191.905 33.8369 192.523L32.7898 191.37L34.4169 193.065C34.4263 193.059 34.4339 193.051 34.4392 193.041C34.4445 193.031 34.4473 193.02 34.4473 193.009C34.4473 192.998 34.4445 192.987 34.4392 192.977C34.4339 192.967 34.4263 192.958 34.4169 192.952C33.5808 191.913 32.7069 190.881 31.8481 189.841ZM7.81737 159.708C8.47276 159.437 10.4766 162.722 10.7478 163.098C11.7497 164.53 12.6989 165.984 13.648 167.46C15.5389 170.398 17.4146 173.351 19.554 176.116C22.1379 179.445 24.9101 182.647 27.7049 185.818C25.4354 183.784 23.0483 181.885 20.5559 180.131C17.5427 178.029 14.9588 175.897 13.1358 172.665C11.4182 169.652 9.88899 166.383 8.48783 163.189C8.20157 162.526 7.08666 160.017 7.81737 159.708Z" fill="white"/>
<path d="M83.751 234.72C83.7521 234.73 83.7511 234.739 83.7482 234.748C83.7453 234.757 83.7404 234.766 83.734 234.773C83.7276 234.78 83.7198 234.786 83.711 234.79C83.7023 234.794 83.6928 234.795 83.6832 234.795C83.6732 234.798 83.6627 234.798 83.6526 234.795C83.6426 234.793 83.6332 234.788 83.6252 234.782C83.6172 234.775 83.6108 234.767 83.6065 234.758C83.6022 234.748 83.6001 234.738 83.6004 234.728C83.5552 234.517 83.51 234.306 83.4723 234.095C83.3216 233.342 83.1936 232.588 83.0806 231.79C83.0806 231.654 83.0354 231.519 83.0203 231.375C83.0052 231.232 82.9751 231.33 82.9676 231.3C81.5137 223.014 75.1783 216.407 74.9824 207.782C74.9918 203.951 75.6542 200.15 76.941 196.542C77.4533 194.968 78.3045 189.702 80.6549 189.762C82.4854 189.838 83.2915 192.956 83.6154 194.282C84.655 198.455 84.2783 203.036 84.0825 207.292C83.8866 211.548 83.4798 215.578 83.1634 219.744C82.9353 223.526 83.0134 227.32 83.397 231.089C83.5024 232.302 83.623 233.507 83.751 234.72Z" fill="#455A64"/>
<path d="M83.3975 231.088C83.2619 230.222 83.1037 229.356 82.9304 228.49C82.5538 224.587 82.1771 220.678 81.8306 216.775C81.3334 210.967 81.9135 205.189 81.7251 199.381C81.7251 198.628 82.0114 195.547 80.6102 196.21C79.2091 196.873 77.7326 205.89 77.7702 210.214C77.8096 212.532 78.2479 214.825 79.0659 216.994C80.6942 221.411 81.9885 225.943 82.938 230.554C82.9907 230.953 83.0359 231.345 83.0811 231.736C83.1941 232.49 83.3222 233.243 83.4728 234.041C83.4352 233.589 83.3824 233.13 83.3372 232.67C83.4578 233.356 83.5708 234.049 83.6838 234.742C83.6933 234.742 83.7028 234.74 83.7116 234.736C83.7203 234.732 83.7282 234.727 83.7346 234.72C83.741 234.713 83.7458 234.704 83.7487 234.695C83.7517 234.686 83.7526 234.676 83.7516 234.667C83.6235 233.492 83.503 232.286 83.3975 231.088ZM79.985 218.237C78.8399 215.178 78.0038 212.301 78.29 209.001C78.5805 205.874 79.0306 202.764 79.6385 199.683C79.759 199.05 80.211 196.669 80.8965 196.782C81.582 196.895 81.3485 200.331 81.3485 200.752C81.3485 202.312 81.3485 203.864 81.2807 205.423C81.1978 208.542 81.0848 211.66 81.2807 214.779C81.5142 218.546 81.9361 222.312 82.3956 226.026C81.7434 223.385 80.9385 220.785 79.985 218.237Z" fill="white"/>
<path d="M84.7079 241.602C84.4781 241.591 84.2562 241.515 84.0676 241.384C75.6003 238.137 66.342 237.994 57.8296 234.754C54.0549 233.417 50.6627 231.18 47.9461 228.238C46.8086 226.95 42.8687 222.505 43.7426 220.449C46.334 214.249 74.9072 233.767 84.3011 240.788C84.4575 240.865 84.6021 240.964 84.7305 241.082C85.0167 241.346 84.9715 241.587 84.7079 241.602Z" fill="#455A64"/>
<path d="M84.7673 241.083C84.594 240.985 84.4132 240.902 84.2249 240.812C73.8065 235.011 63.3505 229.12 52.5856 223.983C51.8323 223.629 49.7004 222.273 49.1731 223.644C48.6081 225.15 51.2146 227.312 52.096 228.118C56.1455 231.831 61.0698 234.456 66.409 235.749C69.814 236.608 73.2717 237.256 76.6239 238.296C78.7408 238.966 80.8124 239.75 82.8689 240.556L84.7597 241.595C84.9707 241.595 85.0159 241.354 84.7673 241.083ZM69.2113 235.81C62.5746 234.303 56.4049 231.772 51.5536 226.77C51.2523 226.454 49.5724 224.728 49.7908 223.922C50.0093 223.116 52.4651 224.284 53.0979 224.6C54.71 225.414 56.2844 226.265 57.8739 227.094C61.0981 228.789 64.2997 230.484 67.5088 232.194C71.6018 234.378 75.6848 236.586 79.7577 238.815C76.3045 237.575 72.7676 236.58 69.1736 235.84L69.2113 235.81Z" fill="white"/>
<path d="M44.1425 170.02C44.1744 170.067 44.1951 170.12 44.203 170.177C44.2108 170.233 44.2056 170.29 44.1877 170.344C44.1574 170.418 44.1064 170.481 44.0409 170.526C43.9754 170.572 43.8983 170.597 43.8186 170.6C43.7378 170.626 43.6508 170.626 43.57 170.6C43.5443 170.604 43.5181 170.602 43.4933 170.594C43.4685 170.586 43.4458 170.573 43.4269 170.555C39.4268 166.645 33.3249 163.022 29.2118 159.255C26.0889 156.33 23.4159 152.959 21.2794 149.251C18.8211 145.161 16.8683 140.787 15.4638 136.226C14.816 134.057 12.9553 128.934 14.7105 126.802C18.3189 122.418 25.626 138.373 26.6731 140.166C32.5189 150.065 38.3797 160.008 44.1425 170.02Z" fill="#455A64"/>
<path d="M43.9076 169.986C40.6382 165.075 37.301 160.193 33.9864 155.342C31.8395 152.17 29.6775 149.006 27.7113 145.714C25.828 142.588 24.3967 139.228 22.5586 136.079C22.0916 135.326 20.5021 131.921 19.2214 132.772C16.7656 134.399 25.3233 150.739 29.8808 155.877C32.4949 158.814 35.5985 161.285 38.3105 164.163C39.9828 165.918 41.5422 167.756 43.1091 169.594C43.3501 169.926 43.5761 170.272 43.8172 170.604C43.8968 170.601 43.974 170.576 44.0395 170.53C44.105 170.485 44.1559 170.421 44.1863 170.348L43.9076 169.986ZM38.9131 164.148C36.2388 161.24 33.1502 158.762 30.5061 155.861C27.9139 152.886 25.7069 149.596 23.9372 146.068C23.0181 144.291 22.1669 142.49 21.3307 140.667C20.8185 139.552 18.6866 134.723 19.3796 133.646C20.0727 132.569 21.6923 135.582 22.1217 136.313C22.6264 137.164 23.0633 138.053 23.5078 138.927C24.4042 140.735 25.3082 142.543 26.3101 144.298C28.103 147.432 30.0767 150.445 32.1107 153.436C35.0411 157.767 37.9489 162.099 40.9019 166.408C40.2465 165.594 39.5685 164.879 38.9131 164.148Z" fill="white"/>
<path d="M92.0829 177.968C84.723 185.938 72.8582 188.198 68.5342 202.202C68.529 202.212 68.5213 202.22 68.5121 202.225C68.5028 202.231 68.4922 202.234 68.4815 202.234C68.4707 202.234 68.4601 202.231 68.4509 202.225C68.4416 202.22 68.434 202.212 68.4287 202.202C68.4218 202.195 68.418 202.186 68.418 202.176C68.418 202.166 68.4218 202.157 68.4287 202.15C68.6924 200.733 69.0088 199.332 69.3855 197.931C71.3996 190.339 74.8519 183.204 79.5552 176.914C82.3581 173.187 85.708 169.906 89.4915 167.181C91.4275 165.802 95.6234 162.299 98.0416 162.842C103.239 164.032 93.4238 176.514 92.0829 177.968Z" fill="#455A64"/>
<path d="M92.5943 168.029C91.2082 167.223 88.5414 170.387 87.7278 171.117C83.031 175.322 78.9482 180.165 75.5995 185.506C73.143 189.359 71.0979 193.459 69.4976 197.74C69.4449 197.815 69.4147 197.89 69.362 197.966C68.9854 199.367 68.669 200.768 68.4053 202.184C68.3984 202.191 68.3945 202.201 68.3945 202.211C68.3945 202.22 68.3984 202.23 68.4053 202.237C68.9628 200.625 69.5453 199.033 70.153 197.461C72.4228 193.703 75.1534 190.244 78.2813 187.163C82.8012 182.643 88.6544 178.877 91.615 173.053C92.0519 172.247 93.9276 168.797 92.5943 168.029ZM91.6451 172.052C91.0003 173.472 90.1804 174.805 89.2043 176.022C85.5282 180.692 80.4584 184.172 76.398 188.519C74.4487 190.595 72.6701 192.824 71.0796 195.186C72.0195 192.896 73.0962 190.665 74.3038 188.504C77.1184 183.505 80.5614 178.888 84.5489 174.764C86.402 172.85 91.1178 168.157 92.1272 168.541C93.1367 168.925 91.8937 171.487 91.6451 172.052Z" fill="white"/>
<path d="M82.9607 134.335C84.4375 145.884 81.7391 157.58 75.3522 167.315C75.2768 167.428 75.209 167.548 75.1262 167.661C75.0659 168.03 74.9906 168.415 74.9002 168.776C74.9002 168.859 74.9002 168.934 74.8474 169.025V169.078C74.8333 169.091 74.8154 169.1 74.7961 169.104C74.7767 169.107 74.7569 169.104 74.739 169.096C74.7211 169.088 74.7061 169.075 74.6959 169.058C74.6857 169.041 74.6808 169.022 74.6817 169.002C74.6817 168.543 74.6817 168.076 74.6817 167.616C74.531 158.147 72.7834 148.866 74.0489 139.382C74.3352 137.31 75.6836 123.751 80.4144 126.071C82.5765 127.186 82.7196 132.353 82.9607 134.335Z" fill="#455A64"/>
<path d="M79.6887 131.832C78.0992 131.004 77.3383 133.241 76.9692 134.371C76.133 136.97 76.005 139.878 75.7639 142.582C75.5228 145.287 75.4776 148.202 75.5002 151.019C75.5379 156.293 75.6057 161.43 74.9202 166.583C74.8298 166.929 74.7243 167.276 74.6339 167.622C74.5435 167.969 74.6339 168.549 74.6339 169.009C74.633 169.028 74.6379 169.048 74.6481 169.064C74.6583 169.081 74.6734 169.094 74.6912 169.102C74.7091 169.111 74.729 169.113 74.7483 169.11C74.7676 169.106 74.7855 169.097 74.7997 169.084C74.8351 168.986 74.8603 168.885 74.875 168.783C74.875 168.647 74.9503 168.519 74.9804 168.391C75.101 168.037 75.2215 167.675 75.327 167.321C76.6554 162.953 77.7617 158.52 78.6416 154.04C79.8393 148.345 81.3686 142.077 81.0446 136.239C80.9994 135.004 80.9994 132.533 79.6887 131.832ZM80.3215 133.844C80.4427 134.446 80.5258 135.054 80.57 135.667C80.6895 137.393 80.6315 139.127 80.3968 140.842C80.0126 144.172 79.4702 147.486 78.8374 150.786C78.0841 155.004 76.9617 159.117 75.8242 163.223C76.0676 159.947 76.1455 156.661 76.0577 153.377C76.0577 150.304 75.9899 147.215 76.2084 144.149C76.4268 140.932 76.5699 137.332 77.5719 134.266C78.0389 132.879 79.9071 131.938 80.3215 133.844Z" fill="white"/>
<path d="M24.8337 109.719L24.9241 110.171C24.9326 110.218 24.9288 110.266 24.9133 110.311C24.8978 110.356 24.871 110.397 24.8355 110.428C24.8 110.46 24.757 110.482 24.7105 110.493C24.6641 110.503 24.6157 110.501 24.5701 110.488C24.5194 110.473 24.4735 110.446 24.4377 110.407C24.4018 110.369 24.3772 110.321 24.3667 110.269C24.3064 109.998 24.2386 109.719 24.1784 109.448C24.1332 109.222 24.0804 109.011 24.0277 108.785C23.8256 108.415 23.6043 108.055 23.3648 107.708C20.8562 103.941 16.5096 100.687 13.5717 97.4478C10.8317 94.5367 8.38891 91.3595 6.27958 87.9635C4.10771 84.5282 2.66894 80.6812 2.05348 76.6638C1.91788 75.579 1.40563 72.837 2.76159 72.1439C4.47915 71.2776 7.09316 74.5696 8.0348 75.4284C11.1999 78.4385 13.951 81.8558 16.2158 85.5906C20.7809 93.0635 23.1313 101.207 24.8337 109.719Z" fill="#455A64"/>
<path d="M17.0213 92.4397C15.0477 88.8314 12.9685 85.2757 10.7538 81.818C9.8466 80.2883 8.78652 78.8547 7.58984 77.5392C7.23578 77.1776 6.603 76.2962 5.95514 76.5372C2.48236 77.7576 11.3037 90.5263 12.4487 92.1836C14.7087 95.4982 17.2699 98.6245 19.6806 101.841C21.0764 103.682 22.3066 105.644 23.3567 107.702C23.6505 108.274 23.9217 108.847 24.1703 109.442C24.2682 109.676 24.3586 109.917 24.4641 110.158C24.5018 110.263 24.5319 110.369 24.562 110.482C24.6077 110.495 24.656 110.497 24.7025 110.487C24.749 110.476 24.792 110.454 24.8275 110.422C24.863 110.391 24.8898 110.35 24.9053 110.305C24.9208 110.26 24.9245 110.212 24.9161 110.165L24.8257 109.713C24.6129 109.071 24.3613 108.442 24.0724 107.83C22.1083 102.532 19.7514 97.3872 17.0213 92.4397ZM22.7239 105.404C20.9537 102.542 18.6937 99.9051 16.8104 97.4192C14.7087 94.6168 12.5843 91.7768 10.701 88.7636C9.76692 87.2569 8.87047 85.7503 8.04936 84.2437C7.29605 82.8802 4.9683 77.8405 5.96268 77.2152C6.64066 76.7858 9.11907 80.0251 9.60872 80.7483C10.6031 82.2022 11.5146 83.7615 12.4186 85.223C14.2868 88.3116 16.0672 91.4529 17.7596 94.6469C19.5984 98.1449 21.2554 101.735 22.7239 105.404Z" fill="white"/>
<path d="M55.1481 154.167C55.1029 154.318 55.0502 154.453 55.005 154.604C54.9921 154.639 54.9726 154.67 54.9475 154.697C54.9223 154.724 54.8921 154.746 54.8585 154.762C54.825 154.777 54.7887 154.786 54.7518 154.787C54.7149 154.788 54.678 154.782 54.6434 154.77C54.6088 154.757 54.577 154.737 54.55 154.712C54.5229 154.687 54.5011 154.657 54.4857 154.623C54.4703 154.59 54.4616 154.553 54.4603 154.516C54.4589 154.479 54.4648 154.443 54.4777 154.408C54.553 154.144 54.6359 153.866 54.7188 153.602C54.7941 153.384 54.8543 153.173 54.9221 152.947C54.9221 152.532 54.9221 152.11 54.9221 151.689C54.6585 147.169 52.504 142.174 51.5774 137.888C50.6658 133.995 50.1459 130.02 50.0256 126.023C49.8696 121.959 50.557 117.906 52.0445 114.121C52.4663 113.111 53.4004 110.482 54.9146 110.573C56.8356 110.686 57.4533 114.844 57.8149 116.049C59.0508 120.245 59.7196 124.588 59.8036 128.961C59.9995 137.73 57.9429 145.948 55.1481 154.167Z" fill="#455A64"/>
<path d="M57.0604 135.291C57.1659 131.178 57.1433 127.057 56.97 122.951C56.9445 121.179 56.7452 119.412 56.3749 117.678C56.2468 117.189 56.1414 116.111 55.4634 115.991C51.8475 115.305 53.0754 130.786 53.2034 132.79C53.5274 136.805 54.1451 140.782 54.6121 144.775C54.8994 147.068 54.9826 149.383 54.8607 151.69C54.8607 152.331 54.7703 152.964 54.6875 153.604C54.6875 153.86 54.6197 154.116 54.582 154.357C54.582 154.47 54.5368 154.583 54.5142 154.696C54.5471 154.73 54.5878 154.754 54.6327 154.768C54.6775 154.781 54.725 154.783 54.7708 154.773C54.8166 154.763 54.8592 154.742 54.8947 154.712C54.9301 154.681 54.9573 154.642 54.9737 154.598C55.0189 154.448 55.0717 154.312 55.1169 154.161C55.2512 153.494 55.3468 152.82 55.4031 152.142C56.3735 146.574 56.9274 140.941 57.0604 135.291ZM55.4935 149.363C55.3956 146.003 54.7402 142.583 54.3786 139.494C53.9342 135.991 53.565 132.481 53.4294 128.948C53.3616 127.193 53.3466 125.437 53.4294 123.675C53.4897 122.168 53.9794 116.593 55.1545 116.548C55.953 116.548 56.4728 120.571 56.5331 121.445C56.6687 123.2 56.6913 124.97 56.7214 126.718C56.7817 130.326 56.7591 133.935 56.6084 137.543C56.445 141.5 56.0729 145.445 55.4935 149.363Z" fill="white"/>
<path d="M75.8106 160.508C74.6027 168.701 72.9378 176.819 70.8237 184.825C69.1438 191.025 67.4564 197.315 67.2153 203.764C66.929 211.47 69.1513 220.028 73.0686 227.425C70.8086 224.914 68.5713 222.351 66.3565 219.734C61.8366 214.461 57.377 209.014 54.1754 202.807C53.859 202.197 53.5727 201.572 53.2865 200.946C53.3031 200.898 53.3031 200.845 53.2865 200.796C51.4995 192.602 50.9535 184.187 51.6669 175.831C53.0755 171.493 54.9074 167.305 57.1359 163.326C59.3959 159.22 61.5579 155.228 62.7557 150.655C62.7756 150.602 62.7738 150.543 62.7505 150.492C62.7272 150.44 62.6843 150.4 62.6314 150.38C62.5784 150.36 62.5197 150.362 62.4681 150.385C62.4166 150.409 62.3764 150.451 62.3564 150.504C60.0965 156.531 55.328 162.422 52.5633 168.682C52.7215 167.65 52.8872 166.618 53.0831 165.578C54.8986 155.665 58.3563 145.706 54.6952 135.792C54.5747 135.461 54.1001 135.687 54.2055 136.011C57.6181 147.054 52.2469 159.213 50.6574 170.181C49.4747 178.339 49.0754 187.131 51.0491 195.259C49.5932 190.755 48.3811 186.176 47.4182 181.541C41.1581 153.736 33.9489 126.067 20.4344 100.801C20.2988 100.552 19.9071 100.725 20.0351 100.974C33.866 128.417 39.3501 158.226 46.5594 187.809C46.6422 188.148 46.7326 188.479 46.8155 188.818C44.3627 184.96 41.4456 181.418 38.1298 178.272C38.0998 178.236 38.0568 178.213 38.0102 178.209C37.9635 178.205 37.9171 178.219 37.8812 178.249C37.8452 178.279 37.8226 178.322 37.8184 178.369C37.8142 178.415 37.8286 178.462 37.8586 178.498C41.8135 183.575 44.8418 189.134 48.405 194.445C49.679 198.593 51.4123 202.585 53.5727 206.348C56.2881 210.793 59.3671 215.006 62.7783 218.943C57.1359 214.205 51.4785 209.534 46.13 204.374C38.0539 196.598 30.504 188.293 23.5305 179.515C23.4326 179.386 23.2443 179.515 23.3422 179.673C30.0749 189.218 37.5887 198.189 45.8061 206.491C52.827 213.482 60.3526 220.608 68.7897 225.979C76.8502 235.26 85.4681 244.593 95.668 251.396C95.7679 251.465 95.8911 251.491 96.0105 251.469C96.1299 251.447 96.2357 251.379 96.3046 251.279C96.3735 251.179 96.3999 251.056 96.378 250.937C96.3561 250.817 96.2877 250.712 96.1878 250.643C94.3146 248.975 92.479 247.285 90.6811 245.573C88.9183 241.64 86.4776 238.04 84.9182 233.957C83.0766 229.19 81.812 224.221 81.1516 219.154C81.1064 218.785 80.5565 218.875 80.5791 219.244C81.001 226.167 82.5603 234.695 86.2516 241.309C83.6752 238.755 81.1441 236.171 78.6657 233.527C72.044 223.41 67.7275 211.38 69.1814 199.274C69.9348 193.052 71.7051 187.04 73.1665 180.961C74.7057 174.229 75.7256 167.389 76.2174 160.501C76.1964 160.465 76.1663 160.436 76.1302 160.415C76.0941 160.395 76.0532 160.385 76.0118 160.386C75.9704 160.387 75.93 160.398 75.8946 160.42C75.8593 160.441 75.8303 160.472 75.8106 160.508Z" fill="#455A64"/>
<path d="M224.885 130.194C223.552 133.863 223.823 138.391 223.988 142.248C224.189 146.629 224.692 150.991 225.495 155.302C226.248 159.325 227.145 163.303 228.139 167.258L228.177 167.371C228.237 167.634 228.305 167.89 228.373 168.124C228.441 168.357 228.448 168.764 228.508 169.096C228.514 169.138 228.534 169.176 228.564 169.206C228.594 169.236 228.632 169.255 228.674 169.261C228.7 169.268 228.727 169.268 228.753 169.261C228.779 169.255 228.803 169.242 228.823 169.224C228.843 169.206 228.858 169.184 228.868 169.159C228.877 169.134 228.881 169.107 228.877 169.081C228.877 168.9 228.84 168.719 228.825 168.546C228.184 161.126 232.463 154.346 232.719 146.993C232.863 142.963 231.891 138.918 231.145 134.986C230.731 132.808 230.625 129.976 229.774 127.927C229.555 127.385 229.503 126.797 228.893 126.511C227.054 125.607 225.375 128.891 224.885 130.194Z" fill="#455A64"/>
<path d="M225.856 135.331C225.625 136.635 225.462 137.95 225.367 139.271C225.056 144.743 225.346 150.232 226.233 155.641C226.67 159.53 227.322 163.393 228.184 167.212L228.222 167.325C228.357 167.852 228.508 168.387 228.666 168.914C228.666 169.019 228.704 169.125 228.719 169.245C228.745 169.252 228.772 169.252 228.798 169.245C228.824 169.239 228.848 169.226 228.868 169.208C228.888 169.19 228.903 169.168 228.913 169.143C228.922 169.118 228.925 169.091 228.922 169.065C228.922 168.884 228.885 168.703 228.87 168.53L228.711 167.98C228.297 162.33 229.306 156.748 230.256 151.173C231.129 146.096 230.256 140.258 228.749 135.354C228.523 134.6 227.837 131.964 226.67 132.928C226.097 133.395 225.977 134.713 225.856 135.331ZM227.024 133.199C227.438 133.124 227.973 134.179 228.161 134.661C228.985 137.103 229.53 139.63 229.789 142.194C230.294 144.863 230.39 147.594 230.075 150.292C229.721 152.703 229.216 155.076 228.877 157.486C228.385 160.678 228.248 163.914 228.47 167.136C227.548 163.072 226.867 158.957 226.429 154.812C225.695 150.056 225.415 145.24 225.593 140.431C225.668 139.03 225.804 137.644 226.014 136.265C226.09 135.685 226.293 133.327 227.024 133.207V133.199Z" fill="white"/>
<path d="M228.523 238.181C228.485 238.202 228.457 238.235 228.441 238.275C228.426 238.315 228.426 238.359 228.44 238.4C228.449 238.436 228.467 238.47 228.494 238.496C228.521 238.523 228.554 238.542 228.591 238.55C228.64 238.565 228.692 238.565 228.741 238.55C233.261 236.253 237.623 232.599 242.881 232.335C246.994 232.117 250.527 232.629 254.437 230.942C258.409 229.187 261.97 226.621 264.893 223.409C266.224 221.951 267.417 220.372 268.456 218.693C268.953 217.894 270.581 215.883 270.347 214.851C269.292 210.022 254.972 218.618 253.066 219.77C244.644 224.9 236.079 230.663 229.05 237.631C229.044 237.643 229.04 237.656 229.04 237.669C229.04 237.682 229.044 237.695 229.05 237.707C229.053 237.723 229.059 237.739 229.068 237.754C229.077 237.768 229.089 237.78 229.103 237.789L228.523 238.181Z" fill="#455A64"/>
<path d="M228.439 238.385L232.334 235.696C231.053 236.615 229.773 237.549 228.439 238.393C228.448 238.429 228.467 238.463 228.493 238.489C228.52 238.516 228.553 238.535 228.59 238.543C231.189 236.909 233.607 235.003 236.221 233.391C239.34 231.462 242.752 230.49 246.232 229.466C251.596 227.892 257.133 226.151 261.382 222.347C262.097 221.699 265.457 218.761 264.802 217.548C264.146 216.336 260.862 218.234 260.086 218.588C254.361 221.172 248.907 224.562 243.581 227.876C238.624 230.957 233.682 234.167 229.027 237.67C229.029 237.686 229.035 237.702 229.044 237.717C229.053 237.731 229.065 237.743 229.079 237.752L228.522 238.137C228.5 238.147 228.48 238.162 228.464 238.18C228.447 238.198 228.435 238.22 228.427 238.243C228.419 238.266 228.417 238.291 228.419 238.315C228.421 238.34 228.428 238.364 228.439 238.385ZM236.078 233.112C238.601 231.402 241.14 229.722 243.739 228.11C248.417 225.202 253.178 222.37 258.09 219.861C259.495 219.134 260.941 218.49 262.421 217.933C262.617 217.85 263.973 217.435 264.229 217.895C264.613 218.573 262.918 220.275 262.564 220.66C260.714 222.646 258.516 224.278 256.078 225.473C251.061 228.042 245.464 228.931 240.259 230.973C238.8 231.561 237.401 232.285 236.078 233.135V233.112Z" fill="white"/>
<path d="M249.232 138.212C248.667 142.574 249.548 147.117 250.738 151.313C253.496 161.008 258.806 170.017 260.494 180.014C260.562 180.413 260.622 180.805 260.675 181.197C260.584 181.709 260.675 181.588 260.818 180.978C261.571 178.326 264.072 166.597 262.912 158.183C262.159 152.91 260.381 147.975 258.565 143.026C257.533 140.201 256.516 137.369 255.462 134.551C255.123 133.647 254.641 131.071 253.277 130.875C250.64 130.468 249.458 136.51 249.232 138.212Z" fill="#455A64"/>
<path d="M252.795 141.627C252.666 143.232 252.719 144.847 252.953 146.441C253.804 153.582 255.755 160.535 257.955 167.36C259.246 170.924 260.078 174.637 260.433 178.411C260.433 178.961 260.486 179.504 260.486 180.046C260.554 180.445 260.614 180.837 260.667 181.229C260.576 181.741 260.667 181.62 260.81 181.01C260.81 180.852 260.81 180.694 260.81 180.536C261.566 175.7 261.74 170.791 261.33 165.914C260.644 158.584 258.181 151.337 256.343 144.241C256.079 143.209 255.815 142.184 255.544 141.152C255.471 140.547 255.276 139.963 254.972 139.435C254.853 139.244 254.666 139.106 254.449 139.049C254.232 138.991 254.001 139.019 253.804 139.126C253.051 139.48 252.87 140.911 252.795 141.627ZM254.301 140.12C255.22 140.376 255.1 140.723 255.303 141.544L255.62 142.787L256.252 145.25C256.674 146.893 257.096 148.542 257.525 150.185C259.228 156.836 261.156 163.383 261.179 170.306C261.182 173.008 261.047 175.708 260.772 178.396C260.507 175.188 259.854 172.024 258.829 168.972C256.893 162.75 254.994 156.603 253.864 150.139C253.519 148.343 253.267 146.53 253.111 144.708C253.049 143.956 253.031 143.202 253.058 142.448C253.067 142.094 253.103 141.742 253.164 141.393C253.329 140.429 253.156 139.781 254.264 140.09L254.301 140.12Z" fill="white"/>
<path d="M242.339 178.752C241.144 181.975 240.258 185.304 239.695 188.696C238.565 195.475 239.605 203.363 237.819 210.142C237.661 210.587 237.518 211.039 237.397 211.491C237.345 211.664 237.299 211.83 237.262 212.003C237.261 212.023 237.267 212.042 237.278 212.058C237.29 212.074 237.306 212.086 237.325 212.092C237.343 212.098 237.364 212.098 237.382 212.091C237.401 212.085 237.417 212.072 237.427 212.056C237.563 211.77 237.706 211.483 237.857 211.197L238.09 210.745C241.458 204.146 245.782 198.112 247.213 190.699C248.102 186.142 249.511 173.569 246.505 172.62C245.164 172.175 243.07 176.793 242.339 178.752Z" fill="#455A64"/>
<path d="M241.307 193.381C240.554 199.565 239.612 205.675 237.397 211.46C237.345 211.633 237.299 211.799 237.262 211.972C237.261 211.992 237.267 212.011 237.278 212.028C237.29 212.044 237.306 212.055 237.325 212.061C237.343 212.067 237.364 212.067 237.382 212.061C237.401 212.054 237.417 212.042 237.427 212.025C237.563 211.739 237.706 211.453 237.857 211.166L238.09 210.714C240.513 205.657 242.472 200.389 243.944 194.978C244.775 192.189 245.342 189.329 245.639 186.435C245.825 184.881 245.881 183.313 245.804 181.749C245.804 181.162 245.804 179.753 245.051 179.414C242.603 178.247 241.458 191.964 241.307 193.381ZM244.923 179.776C245.737 180.115 245.45 184.047 245.42 184.733C245.369 186.157 245.223 187.576 244.983 188.981C244.526 191.569 243.905 194.126 243.123 196.635C241.943 200.442 240.567 204.186 239.002 207.852C239.92 204.64 240.61 201.368 241.066 198.059C241.503 195.045 241.819 191.972 242.256 188.929C242.43 187.618 242.61 186.322 242.829 185.026C242.912 184.431 243.906 179.354 244.923 179.776Z" fill="white"/>
<path d="M213.584 165.33C211.927 167.379 212.71 171.454 213.584 173.616C214.872 176.697 217.223 179.1 219.799 181.149C223.566 184.117 227.724 186.422 230.873 190.053C234.022 193.684 232.997 192.585 235.189 197.233C235.227 197.323 235.317 197.323 235.385 197.233C235.463 197.125 235.517 197.002 235.541 196.872C235.566 196.742 235.562 196.608 235.528 196.479V196.359C233.509 188.728 229.6 182.709 224.409 176.772C221.464 173.39 219.686 169.111 216.62 165.857C215.505 164.637 214.752 163.921 213.584 165.33Z" fill="#455A64"/>
<path d="M215.52 173.212C217.78 178.183 221.833 181.784 226.104 185.024C230.376 188.263 233.524 192.06 235.355 196.956C235.355 197.047 235.408 197.122 235.43 197.212C235.508 197.105 235.562 196.982 235.587 196.852C235.611 196.721 235.607 196.587 235.573 196.459C235.325 195.804 235.061 195.156 234.76 194.545C233.4 190.866 231.481 187.419 229.072 184.323C227.456 182.341 225.707 180.471 223.837 178.726C221.848 176.618 220.056 174.333 218.481 171.901C217.901 171.072 216.492 168.797 215.37 169.324C214.247 169.852 215.091 172.33 215.52 173.212ZM215.814 169.724C216.628 169.566 217.856 171.517 218.24 172.059L219.535 173.882C220.341 175.02 221.147 176.142 222.059 177.219C224.04 179.479 226.398 181.423 228.327 183.788C230.452 186.441 232.225 189.358 233.6 192.466C231.725 189.549 229.336 186.996 226.549 184.933C224.135 183.223 221.887 181.288 219.837 179.155C218.709 177.897 217.701 176.538 216.823 175.095C216.346 174.293 215.924 173.46 215.558 172.601C215.4 172.232 214.752 169.927 215.844 169.724H215.814Z" fill="white"/>
<path d="M283.5 146.046C276.721 153.669 270.483 161.685 264.517 169.926C264.48 169.97 264.46 170.026 264.46 170.084C264.46 170.142 264.48 170.198 264.517 170.242C264.513 170.26 264.513 170.278 264.517 170.295C264.479 170.348 264.434 170.4 264.404 170.453C264.389 170.479 264.385 170.51 264.392 170.54C264.399 170.569 264.417 170.594 264.441 170.611C264.463 170.614 264.485 170.612 264.506 170.606C264.527 170.599 264.546 170.588 264.562 170.574C268.766 166.453 272.72 162.589 278.016 159.862C282.86 157.368 287.629 155.296 291.84 151.756C295.425 148.743 305.61 133.752 303.953 130.181C302.906 127.793 288.872 139.982 283.5 146.046Z" fill="#455A64"/>
<path d="M264.509 170.241C264.505 170.259 264.505 170.277 264.509 170.294C264.471 170.347 264.426 170.4 264.396 170.452C264.381 170.479 264.377 170.509 264.384 170.539C264.391 170.568 264.409 170.594 264.434 170.611C269.632 164.893 275.334 159.311 281.805 155.047C284.434 153.314 287.131 151.838 289.414 149.623C291.66 147.35 293.678 144.862 295.44 142.195C295.93 141.48 298.559 138.097 296.909 137.412C295.259 136.726 292.675 140.086 291.802 140.937C282.295 150.248 272.652 159.642 264.509 170.241ZM276.863 156.456C281.285 151.778 285.858 147.258 290.423 142.76C291.591 141.615 292.736 140.44 293.934 139.333C295.387 137.999 296.548 137.465 296.947 137.902C297.346 138.338 296.736 139.597 296.555 139.958C295.076 142.671 293.261 145.187 291.154 147.446C287.041 152.184 281.3 154.746 276.547 158.746C272.454 162.189 268.617 165.925 265.066 169.925C268.828 165.285 272.76 160.795 276.863 156.456Z" fill="white"/>
<path d="M255.431 201.923C255.424 201.94 255.42 201.958 255.42 201.976C255.42 201.994 255.424 202.012 255.431 202.029C255.438 202.051 255.449 202.073 255.465 202.091C255.48 202.109 255.498 202.125 255.519 202.136C255.54 202.147 255.563 202.154 255.587 202.156C255.611 202.158 255.635 202.156 255.657 202.149C255.868 202.074 256.087 202.014 256.298 201.946H256.358C261.179 201.32 265.096 202.142 269.737 203.324C273.163 204.194 276.752 204.194 280.178 203.324C283.929 202.326 287.492 200.72 290.724 198.571C292.05 197.72 296.291 195.821 295.598 193.494C294.461 189.667 281.601 194.646 279.379 195.369C275.432 196.691 271.406 197.768 267.326 198.593C263.296 199.347 259.258 200.04 255.507 201.795C255.482 201.805 255.461 201.823 255.447 201.846C255.433 201.869 255.428 201.896 255.431 201.923Z" fill="#455A64"/>
<path d="M255.431 201.924C255.424 201.941 255.42 201.959 255.42 201.977C255.42 201.995 255.424 202.013 255.431 202.03C260.644 200.907 265.774 201.902 271.055 202.143C275.575 202.346 280.328 200.93 284.404 198.986C285.61 198.411 286.764 197.733 287.854 196.96C288.208 196.711 288.894 196.327 289.029 195.852C289.368 194.768 288.11 195.016 287.47 195.152C282.581 196.244 277.88 198.037 272.931 198.918C270.294 199.378 267.597 199.318 264.968 199.777C262.618 200.184 260.298 200.817 257.962 201.352C257.104 201.473 256.258 201.665 255.431 201.924ZM258.505 201.261C261.405 200.535 264.357 200.031 267.334 199.755C269.795 199.64 272.244 199.348 274.663 198.881C277.383 198.308 280.057 197.502 282.731 196.741C283.989 196.38 285.24 196.033 286.498 195.717C286.851 195.606 287.211 195.518 287.575 195.453C289.127 195.257 288.54 195.988 288.133 196.327C287.449 196.84 286.737 197.316 286.001 197.751C280.991 200.681 275.219 202.043 269.428 201.661C265.827 201.374 262.106 200.817 258.505 201.261Z" fill="white"/>
<path d="M269.329 191.459C269.307 191.53 269.307 191.606 269.329 191.677C269.337 191.716 269.35 191.754 269.367 191.79C269.388 191.836 269.419 191.877 269.457 191.911C269.509 191.941 269.567 191.957 269.627 191.957C269.687 191.957 269.745 191.941 269.796 191.911C270.505 191.653 271.193 191.341 271.853 190.977C279.846 187.963 288.034 184.709 294.535 179.059C297.832 176.169 300.752 172.876 303.229 169.259C304.457 167.488 307.824 163.767 306.709 161.281C305.594 158.795 303.409 160.4 301.918 161.409C298.015 163.995 294.277 166.82 290.724 169.869C287.241 172.903 284.108 176.317 281.382 180.046C278.113 184.513 274.972 189.146 269.586 191.173C269.521 191.193 269.463 191.23 269.418 191.281C269.373 191.331 269.342 191.392 269.329 191.459Z" fill="#455A64"/>
<path d="M269.331 191.457C269.309 191.528 269.309 191.604 269.331 191.675C274.28 189.537 278.733 186.398 282.409 182.455C286.301 178.315 290.41 174.385 294.718 170.68C295.878 169.706 297.041 168.737 298.206 167.773C298.455 167.562 300.541 165.912 301.046 166.394C301.551 166.876 300.134 168.963 299.878 169.264C298.266 171.14 296.481 172.888 294.718 174.62C287.396 181.792 279.004 188.082 269.331 191.675C269.339 191.714 269.352 191.752 269.369 191.788C275.273 189.741 280.804 186.747 285.746 182.922C290.216 179.481 294.398 175.682 298.251 171.562C299.268 170.485 301.942 168.353 301.588 166.545C301.287 165.038 299.366 166.379 298.703 166.906C293.518 170.959 288.636 175.386 284.096 180.15C279.72 184.805 275.192 188.873 269.331 191.457Z" fill="white"/>
<path d="M284.028 108.286C281.339 111.977 278.996 115.857 277.716 120.271C275.764 127.051 275.885 134.087 274.913 140.995C274.913 140.995 274.913 141.055 274.913 141.078C274.659 142.956 274.291 144.818 273.813 146.652C273.715 147.044 273.602 147.406 273.489 147.828C273.474 147.867 273.469 147.911 273.476 147.953C273.482 147.996 273.5 148.035 273.527 148.069C273.569 148.113 273.625 148.143 273.685 148.151C273.739 148.17 273.797 148.17 273.851 148.151C273.893 148.135 273.931 148.109 273.962 148.077C273.993 148.044 274.017 148.006 274.032 147.963C274.228 147.406 274.401 146.848 274.567 146.291C274.586 146.285 274.604 146.276 274.62 146.263C274.636 146.25 274.648 146.234 274.657 146.215C278.778 137.59 283.463 128.889 288.141 120.339C290.284 116.582 292.07 112.633 293.475 108.542C294.266 106.109 295.23 102.365 293.475 100.113C293.425 100.032 293.355 99.9672 293.272 99.9235C293.188 99.8798 293.094 99.8592 293 99.8639C289.083 100.519 286.16 105.341 284.028 108.286Z" fill="#455A64"/>
<path d="M283.32 114.974C278.627 123.185 276.684 132.052 274.913 141.001C274.913 141.001 274.913 141.061 274.913 141.084C274.544 142.937 274.16 144.805 273.814 146.659C273.716 147.133 273.625 147.6 273.527 148.075C273.569 148.119 273.625 148.149 273.686 148.158C273.739 148.177 273.798 148.177 273.851 148.158C275.81 141.867 279.509 135.901 282.138 129.905C283.539 126.736 284.895 123.539 286.206 120.315C287.474 117.477 288.574 114.567 289.498 111.599C289.799 110.484 290.176 108.277 288.315 108.88C286.04 109.573 284.398 113.068 283.32 114.974ZM284.985 112.842C285.442 112.064 285.966 111.328 286.552 110.642C287.253 109.889 289.4 108.134 289.392 110.71C289.392 112.044 288.383 113.934 287.886 115.147C287.358 116.526 286.823 117.889 286.266 119.253C283.991 124.918 281.563 130.522 278.981 136.067C277.347 139.6 275.441 143.065 274.145 146.711C275.079 142.191 275.772 137.581 276.797 133.061C278.034 127.346 280.038 121.824 282.755 116.646C283.449 115.366 284.187 114.093 284.985 112.88V112.842Z" fill="white"/>
<path d="M227.024 154.809C228.157 163.222 229.861 171.548 232.124 179.729C234.218 187.262 236.395 194.743 237.397 202.487C238.753 212.777 237.827 224.047 232.584 232.996C241.341 222.717 248.318 211.045 253.224 198.464C261.669 177.243 269.323 155.435 279.591 134.99C279.764 134.651 280.231 134.914 280.11 135.253C275.907 146.418 270.973 157.303 266.671 168.399C262.37 179.496 258.437 190.645 253.97 201.613C253.468 202.803 252.966 203.978 252.464 205.138C259.01 197.018 268.607 191.036 278.031 187.571C278.152 187.526 278.197 187.707 278.084 187.759C271.406 190.747 265.269 194.82 259.921 199.813C255.236 204.137 251.635 209.154 247.868 214.216C239.376 229.478 227.11 242.306 212.244 251.475C212.228 251.485 212.21 251.491 212.191 251.494C212.172 251.497 212.153 251.496 212.134 251.492C212.116 251.487 212.098 251.479 212.083 251.468C212.067 251.457 212.054 251.442 212.044 251.426C212.035 251.41 212.028 251.392 212.025 251.373C212.022 251.354 212.023 251.335 212.028 251.316C212.032 251.297 212.04 251.28 212.052 251.265C212.063 251.249 212.077 251.236 212.093 251.226C218.06 247.205 223.585 242.564 228.576 237.38C236.998 226.224 237.397 211.323 234.881 197.786C233.563 190.69 231.687 183.722 230.007 176.693C228.327 169.665 226.444 162.162 226.617 154.794C226.618 154.768 226.625 154.741 226.636 154.717C226.647 154.693 226.663 154.671 226.682 154.653C226.702 154.635 226.725 154.62 226.75 154.611C226.775 154.602 226.802 154.598 226.828 154.599C226.855 154.6 226.881 154.606 226.906 154.617C226.93 154.628 226.952 154.644 226.97 154.663C226.988 154.683 227.002 154.706 227.012 154.731C227.021 154.756 227.025 154.783 227.024 154.809Z" fill="#455A64"/>
<path d="M261 33C296.476 49.8496 295.457 109.784 284.873 138.481C268.643 182.49 316.189 246.698 276.304 281.921C244.05 310.407 163.146 285.718 136.264 289.523C101.849 294.394 58.572 311.813 37.9217 281.921C23.8038 261.485 51.5671 229.881 45.4762 205.309C39.8688 182.688 13.4678 152.025 8.45078 129.245C-1.95982 81.9758 2.30112 7.56114 60.7458 0.48496C91.8518 -3.28119 123.477 15.15 140.829 46.6614C158.181 78.1728 207.237 7.46465 261 33Z" fill="#B99AC8" fill-opacity="0.15"/>
</svg>
