<svg width="360" height="297" viewBox="0 0 360 297" fill="none" xmlns="http://www.w3.org/2000/svg">
<rect x="-25" y="-0.939453" width="393" height="297.94" fill="#CCB4D7"/>
<path d="M104 110.904C44.4 20.3154 -9.16667 39.1261 -28.5 59.855L-39 -0.939453H363C366.5 36.3417 371.4 106.263 363 87.6999C354.6 69.1367 327.667 89.7109 321 97.4456C269.667 142.925 163.6 201.492 104 110.904Z" fill="#B99AC8"/>
<path d="M104.127 220.156C44.4742 282.396 -9.14011 269.472 -28.4907 255.23L-39 297H363.358C366.861 271.385 371.765 223.345 363.358 236.099C354.95 248.853 327.993 234.717 321.32 229.403C269.941 198.155 163.78 157.916 104.127 220.156Z" fill="#AC90BA" fill-opacity="0.4"/>
<path d="M256.482 39.5977C327.603 44.6879 366.09 167.113 375.442 235.741C434.697 48.6904 368.334 -16.6908 327.746 -26C247.691 -25.3505 92.857 -23.0124 113.955 -18.8557C140.329 -13.6598 121.091 114.808 168.385 116.237C215.68 117.665 185.362 34.5075 256.482 39.5977Z" fill="#DFBFEF" fill-opacity="0.8"/>
</svg>
