<svg width="201" height="134" viewBox="0 0 201 134" fill="none" xmlns="http://www.w3.org/2000/svg">
<ellipse cx="101.389" cy="67.5" rx="65.5" ry="65.5" fill="url(#paint0_linear_340_20533)"/>
<path d="M177.73 81.1253L174.22 81.2L172.444 81.2293C171.852 81.2426 171.255 81.2293 170.66 81.2453H170.543V81.1253L170.535 78.1333V78H170.668L174.199 78.016C175.375 78.016 176.554 78.0453 177.73 78.0587H177.802V78.1333C177.802 78.64 177.78 79.144 177.767 79.6427L177.73 81.1253ZM177.73 81.1253L177.692 79.6187C177.692 79.1227 177.663 78.632 177.658 78.1413L177.73 78.216C176.554 78.2293 175.375 78.2587 174.199 78.2587L170.668 78.2747L170.802 78.1413L170.786 81.1253L170.668 81.008C171.25 81.008 171.831 81.008 172.412 81.0213L174.167 81.0533L177.73 81.1253Z" fill="#EBEBEB"/>
<path d="M173.792 84.888L170.291 84.9627L168.515 84.992C167.923 84.992 167.326 84.992 166.731 85.008H166.611V84.888L166.598 81.904V81.7707H166.731L170.262 81.7893C171.438 81.7893 172.614 81.8187 173.792 81.832H173.864V81.904C173.864 82.4107 173.84 82.9147 173.83 83.4133L173.792 84.888ZM173.792 84.888L173.755 83.3813C173.755 82.8853 173.723 82.3947 173.718 81.904L173.792 81.9787C172.614 81.992 171.438 82.0213 170.262 82.0213L166.731 82.0373L166.864 81.904L166.848 84.888L166.731 84.7707C167.312 84.7707 167.891 84.7707 168.475 84.784L170.23 84.816L173.792 84.888Z" fill="#EBEBEB"/>
<path d="M31.1068 81.1253L27.6081 81.2L25.8321 81.2293C25.2374 81.2426 24.6401 81.2293 24.0454 81.2453H23.9281V81.1253L23.9121 78.1333V78H24.0454L27.5761 78.016C28.7521 78.016 29.9308 78.0453 31.1068 78.0587H31.1814V78.1333C31.1814 78.64 31.1601 79.144 31.1468 79.6427L31.1068 81.1253ZM31.1068 81.1253L31.0694 79.6187C31.0561 79.1227 31.0401 78.632 31.0348 78.1413L31.1068 78.216C29.9308 78.2293 28.7521 78.2587 27.5761 78.2587L24.0454 78.2747L24.1788 78.1413V81.1253L24.0588 81.008C24.6401 81.008 25.2214 81.008 25.8054 81.0213L27.5548 81.0667L31.1068 81.1253Z" fill="#EBEBEB"/>
<path d="M27.1686 84.888L23.6672 84.9627L21.8912 84.992C21.2992 84.992 20.7019 84.992 20.1072 85.008H19.9899V84.888L19.9766 81.904V81.7707H20.1099L23.6406 81.7893C24.8166 81.7893 25.9952 81.8187 27.1712 81.832H27.2459V81.904C27.2459 82.4107 27.2246 82.9147 27.2112 83.4133L27.1686 84.888ZM27.1686 84.888L27.1312 83.3813C27.1312 82.8853 27.1019 82.3947 27.0966 81.904L27.1686 81.9787C25.9926 81.992 24.8139 82.0213 23.6379 82.0213L20.1072 82.0373L20.2406 81.904L20.2246 84.888L20.1072 84.7707C20.6886 84.7707 21.2699 84.7707 21.8512 84.784L23.6059 84.816L27.1686 84.888Z" fill="#EBEBEB"/>
<path d="M181.67 84.888L178.171 84.9627L176.395 84.992C175.8 84.992 175.203 84.992 174.608 85.008H174.488V84.888V81.904V81.7707H174.622L178.152 81.7893C179.328 81.7893 180.507 81.8187 181.683 81.832H181.758V81.904C181.758 82.4107 181.736 82.9147 181.723 83.4133L181.67 84.888ZM181.67 84.888L181.632 83.3813C181.632 82.8853 181.603 82.3947 181.598 81.904L181.67 81.9787C180.494 81.992 179.315 82.0213 178.139 82.0213L174.608 82.0373L174.742 81.904L174.728 84.888L174.608 84.7707C175.19 84.7707 175.771 84.7707 176.355 84.784L178.11 84.816L181.67 84.888Z" fill="#EBEBEB"/>
<path d="M127.204 36.632L123.703 36.7067L121.927 36.736C121.335 36.7493 120.738 36.736 120.143 36.752H120.023V36.632L120.01 33.648V33.5147H120.143L123.674 33.5307C124.85 33.5307 126.028 33.5627 127.204 33.576H127.287V33.648C127.287 34.1547 127.266 34.6587 127.252 35.1547L127.204 36.632ZM127.204 36.632L127.167 35.1253C127.154 34.6267 127.135 34.136 127.132 33.648L127.204 33.72C126.028 33.72 124.85 33.7627 123.674 33.7653L120.143 33.7813L120.276 33.648L120.26 36.632L120.143 36.512C120.724 36.512 121.306 36.512 121.887 36.528L123.642 36.5573L127.204 36.632Z" fill="#EBEBEB"/>
<path d="M123.266 40.3947L119.765 40.4693L117.989 40.4987C117.397 40.4987 116.8 40.4987 116.205 40.5147H116.088V40.3947L116.074 37.4107V37.2773H116.21L119.741 37.2933C120.917 37.2933 122.093 37.3253 123.272 37.3387H123.344V37.4107C123.344 37.9173 123.32 38.4213 123.309 38.9173L123.266 40.3947ZM123.266 40.3947L123.229 38.888C123.229 38.3893 123.197 37.8987 123.192 37.4107L123.266 37.4827C122.088 37.496 120.912 37.5253 119.736 37.528L116.205 37.544L116.338 37.4107L116.322 40.3947L116.205 40.2747C116.786 40.2747 117.365 40.2747 117.949 40.2907L119.704 40.32L123.266 40.3947Z" fill="#EBEBEB"/>
<path d="M131.144 40.3947L127.645 40.4693L125.866 40.4987C125.274 40.4987 124.677 40.4987 124.082 40.5147H123.965V40.3947V37.4107V37.2773H124.098L127.629 37.2933C128.805 37.2933 129.984 37.3253 131.16 37.3387H131.234V37.4107C131.234 37.9173 131.213 38.4213 131.2 38.9173L131.144 40.3947ZM131.144 40.3947L131.106 38.888C131.093 38.3893 131.077 37.8987 131.072 37.4107L131.144 37.4827C129.968 37.496 128.789 37.5253 127.613 37.528L124.082 37.544L124.216 37.4107L124.202 40.3947L124.088 40.2667C124.669 40.2667 125.25 40.2667 125.834 40.2827L127.586 40.312L131.144 40.3947Z" fill="#EBEBEB"/>
<path d="M40.8005 65.3627L37.2991 65.4373L35.5231 65.4667C34.9311 65.4667 34.3338 65.4667 33.7391 65.48H33.6191V65.36V62.376V62.2427H33.7525L37.2831 62.2587C38.4591 62.2587 39.6351 62.288 40.8138 62.3013H40.8858V62.3733C40.8858 62.88 40.8618 63.3813 40.8511 63.88L40.8005 65.3627ZM40.8005 65.3627L40.7631 63.8533C40.7498 63.3573 40.7311 62.8667 40.7258 62.3787L40.8005 62.4507C39.6218 62.464 38.4458 62.4933 37.2698 62.4933L33.7391 62.512L33.8725 62.3787L33.8565 65.3627L33.7391 65.2427C34.3205 65.2427 34.9018 65.2427 35.4831 65.2587L37.2378 65.288L40.8005 65.3627Z" fill="#EBEBEB"/>
<path d="M73.2458 92.6027L69.7445 92.6773L67.9685 92.7067C67.3765 92.72 66.7791 92.7067 66.1845 92.7227H66.0645V92.6027V89.6187V89.4853H66.1978L69.7285 89.504C70.9045 89.504 72.0831 89.5333 73.2591 89.5467H73.3311V89.6187C73.3311 90.1253 73.3098 90.6293 73.2965 91.128L73.2458 92.6027ZM73.2458 92.6027L73.2085 91.096C73.1951 90.6 73.1791 90.1067 73.1738 89.6187L73.2458 89.6933C72.0698 89.6933 70.8911 89.7333 69.7151 89.736L66.1845 89.752L66.3178 89.6187L66.3018 92.6027L66.1845 92.4853C66.7658 92.4853 67.3471 92.4853 67.9285 92.4987L69.6885 92.5333L73.2458 92.6027Z" fill="#EBEBEB"/>
<path d="M177.322 16.6347L173.82 16.7093L172.044 16.7387C171.452 16.7387 170.855 16.7387 170.26 16.7547H170.14V16.6347L170.127 13.6507V13.5173H170.26L173.791 13.5333C174.967 13.5333 176.143 13.5653 177.322 13.5787H177.394V13.6507C177.394 14.1573 177.372 14.6613 177.359 15.1573L177.322 16.6347ZM177.322 16.6347L177.284 15.128C177.284 14.6293 177.252 14.1387 177.247 13.6507L177.322 13.7227C176.143 13.7227 174.967 13.7653 173.791 13.768L170.26 13.784L170.394 13.6507L170.378 16.6347L170.26 16.5147C170.842 16.5147 171.423 16.5147 172.004 16.5307L173.759 16.56L177.322 16.6347Z" fill="#EBEBEB"/>
<path d="M181.26 20.3973L177.759 20.472L175.983 20.5013C175.391 20.5147 174.794 20.5013 174.199 20.5173H174.082V20.3973L174.068 17.4133V17.28H174.202L177.732 17.296C178.908 17.296 180.087 17.328 181.263 17.3413H181.338V17.4133C181.338 17.92 181.316 18.424 181.303 18.92L181.26 20.3973ZM181.26 20.3973L181.223 18.8907C181.223 18.392 181.194 17.9013 181.188 17.4133L181.26 17.4853C180.084 17.4987 178.906 17.528 177.73 17.5307L174.199 17.5467L174.332 17.4133L174.316 20.3973L174.199 20.2773C174.78 20.2773 175.362 20.2773 175.943 20.2933L177.698 20.3227L181.26 20.3973Z" fill="#EBEBEB"/>
<path d="M27.1673 16.6373L23.666 16.712L21.89 16.7413C21.298 16.7413 20.7007 16.7413 20.106 16.7573H19.9887V16.6373L19.9727 13.6533V13.52H20.106L23.6367 13.5387C24.8127 13.5387 25.9913 13.568 27.1673 13.5813H27.242V13.6533C27.242 14.16 27.2207 14.664 27.2073 15.1627L27.1673 16.6373ZM27.1673 16.6373L27.13 15.1307C27.13 14.6347 27.1007 14.1413 27.0953 13.6533L27.1673 13.7253C25.9913 13.7413 24.8127 13.768 23.6367 13.7707L20.106 13.7867L20.2393 13.6533L20.2233 16.6373L20.106 16.5333C20.6873 16.5333 21.2687 16.5333 21.85 16.5333L23.6047 16.5627L27.1673 16.6373Z" fill="#EBEBEB"/>
<path d="M25.9891 101.915H52.0664L52.0664 53.416H25.9891L25.9891 101.915Z" fill="#EBEBEB"/>
<path d="M24.7274 53.416H53.3301V52.0773H24.7274V53.416Z" fill="#DBDBDB"/>
<path d="M15.7299 53.416H24.7246V52.0773H15.7299V53.416Z" fill="#EBEBEB"/>
<path d="M17.1536 101.915H25.9883L25.9883 53.416H17.1536L17.1536 101.915Z" fill="#DBDBDB"/>
<path d="M28.8292 84.6133H49.2266V73.1147H28.8292V84.6133Z" stroke="#C7C7C7" stroke-width="0.25" stroke-miterlimit="10"/>
<path d="M37.9008 78.752H41.8848V76.4613H37.9008V78.752Z" fill="#C7C7C7"/>
<path d="M36.723 78.5787H40.707V76.6347H36.723V78.5787Z" stroke="#C7C7C7" stroke-width="0.25" stroke-miterlimit="10"/>
<path d="M28.8292 99.1413H49.2266V87.6427H28.8292V99.1413Z" stroke="#C7C7C7" stroke-width="0.25" stroke-miterlimit="10"/>
<path d="M37.9008 93.28H41.8848V90.9893H37.9008V93.28Z" fill="#C7C7C7"/>
<path d="M36.723 93.1067H40.707V91.1627H36.723V93.1067Z" stroke="#C7C7C7" stroke-width="0.25" stroke-miterlimit="10"/>
<path d="M28.8292 70.0853H49.2266V58.5867H28.8292V70.0853Z" fill="#A6A6A6"/>
<path d="M46.3444 55.6427H30.8164V66.8987H46.3444V55.6427Z" fill="#C7C7C7"/>
<path d="M40.8557 54.4747H46.3437V55.6427H40.541L40.8557 54.4747Z" fill="#C7C7C7"/>
<path d="M30.8555 66.896H46.3835L47.5808 56.576H32.0528L30.8555 66.896Z" fill="#A6A6A6"/>
<path d="M42.2193 55.5067H47.7046L47.582 56.576H41.7793L42.2193 55.5067Z" fill="#A6A6A6"/>
<path d="M38.6535 70.0853H59.0508V58.5867H38.6535V70.0853Z" fill="#EBEBEB" stroke="#C7C7C7" stroke-width="0.25" stroke-miterlimit="10"/>
<path d="M47.725 64.224H51.709V61.9333H47.725V64.224Z" fill="#C7C7C7"/>
<path d="M46.5472 64.0507H50.5312V62.1066H46.5472V64.0507Z" stroke="#C7C7C7" stroke-width="0.25" stroke-miterlimit="10"/>
<path d="M28.8295 70.0853H38.6055V60.3093H28.8295V70.0853Z" fill="#DBDBDB"/>
<path d="M55.7461 12.1733V0" stroke="#C7C7C7" stroke-miterlimit="10"/>
<path d="M63.2699 19.4213L62.6646 20.752H48.8299L48.2246 19.4213L54.1153 15.3467H57.3793L63.2699 19.4213Z" fill="#EBEBEB"/>
<path d="M57.787 11.4187L57.379 15.3467H54.115L53.707 11.4187H57.787Z" fill="#DBDBDB"/>
<path d="M63.2673 19.424L62.6619 20.752H48.8273L48.2246 19.424H63.2673Z" fill="#DBDBDB"/>
<path d="M85.8398 12.1733V0" stroke="#C7C7C7" stroke-miterlimit="10"/>
<path d="M93.363 19.4213L92.7577 20.752H78.923L78.3203 19.4213L84.211 15.3467H87.4723L93.363 19.4213Z" fill="#EBEBEB"/>
<path d="M87.8834 11.4187L87.4728 15.3467H84.2114L83.8008 11.4187H87.8834Z" fill="#DBDBDB"/>
<path d="M93.363 19.424L92.7577 20.752H78.923L78.3203 19.424H93.363Z" fill="#DBDBDB"/>
<path d="M115.936 12.1733V0" stroke="#C7C7C7" stroke-miterlimit="10"/>
<path d="M123.457 19.4213L122.854 20.752H109.019L108.414 19.4213L114.305 15.3467H117.569L123.457 19.4213Z" fill="#EBEBEB"/>
<path d="M117.976 11.4187L117.568 15.3467H114.304L113.896 11.4187H117.976Z" fill="#DBDBDB"/>
<path d="M123.457 19.424L122.851 20.752H109.017L108.414 19.424H123.457Z" fill="#DBDBDB"/>
<path d="M146.029 12.1733V0" stroke="#C7C7C7" stroke-miterlimit="10"/>
<path d="M153.552 19.4213L152.947 20.752H139.112L138.51 19.4213L144.398 15.3467H147.662L153.552 19.4213Z" fill="#EBEBEB"/>
<path d="M148.068 11.4187L147.66 15.3467H144.396L143.988 11.4187H148.068Z" fill="#DBDBDB"/>
<path d="M153.552 19.424L152.947 20.752H139.112L138.51 19.424H153.552Z" fill="#DBDBDB"/>
<path d="M15.3711 101.915L36.7498 101.851L58.1284 101.827L100.888 101.781L143.648 101.827L165.027 101.851L186.406 101.915L165.027 101.981L143.648 102.003L100.888 102.048L58.1284 102.003L36.7498 101.979L15.3711 101.915Z" fill="#263238"/>
<path d="M100.889 123.883C144.245 123.883 179.393 121.224 179.393 117.944C179.393 114.664 144.245 112.005 100.889 112.005C57.5322 112.005 22.3848 114.664 22.3848 117.944C22.3848 121.224 57.5322 123.883 100.889 123.883Z" fill="#EBEBEB"/>
<path d="M38.4585 71.568C37.4985 70.6267 36.2585 69.4907 34.7891 69.896C33.4105 70.2773 32.8798 71.784 32.6345 73.04C32.3145 74.6587 32.0665 76.2933 31.8105 77.9227C31.5545 79.552 31.3065 81.216 31.0691 82.8667C30.9358 83.7973 30.8025 84.7333 30.6745 85.6587C30.6078 86.1227 30.5438 86.5893 30.4798 87.0533C30.4158 87.5173 30.3411 87.968 30.3145 88.4267C30.3145 88.5733 30.5385 88.5947 30.5811 88.456C30.7571 87.68 30.8318 86.872 30.9465 86.0853L31.2878 83.7067C31.5171 82.1333 31.7571 80.56 31.9945 78.9867C32.2318 77.4133 32.4771 75.84 32.7278 74.2667C32.9411 72.9333 33.0398 71.28 34.2238 70.4C34.5437 70.1803 34.9144 70.0458 35.3008 70.0094C35.6872 69.973 36.0765 70.0359 36.4318 70.192C37.2105 70.4907 37.8318 71.0453 38.4398 71.5973C38.4435 71.5981 38.4473 71.5977 38.4507 71.5962C38.4542 71.5947 38.4571 71.5922 38.4591 71.589C38.4611 71.5859 38.4622 71.5822 38.462 71.5784C38.4619 71.5747 38.4607 71.571 38.4585 71.568Z" fill="#263238"/>
<path d="M37.156 70.6053C37.156 70.6053 35.196 69.9013 34.2227 71.3333C33.2494 72.7653 34.4121 76.4 43.3481 78.4613C43.0813 75.6731 42.3522 72.9488 41.1907 70.4C39.2894 66.208 35.8627 67.7893 37.156 70.6053Z" fill="#B99AC8"/>
<path d="M42.8269 77.8667C42.69 77.6169 42.5396 77.3747 42.3763 77.1413C42.2269 76.912 42.0749 76.6827 41.9229 76.4533L41.5736 75.9413C41.5736 75.9013 41.5736 75.8587 41.5896 75.816L41.6216 75.5813C41.6429 75.416 41.6669 75.248 41.6909 75.08C41.7149 74.912 41.7443 74.7493 41.7763 74.5813C41.7958 74.3998 41.8351 74.2209 41.8936 74.048C41.8936 74.0213 41.8563 74.008 41.8536 74.048C41.8348 74.1486 41.808 74.2476 41.7736 74.344C41.7523 74.4187 41.7336 74.4933 41.7149 74.568C41.6696 74.7387 41.6296 74.9093 41.5923 75.08C41.5549 75.2507 41.5256 75.3947 41.4989 75.5547C41.4989 75.6293 41.4749 75.7067 41.4643 75.784C41.3043 75.5547 41.1443 75.3307 40.9763 75.1093C40.5016 74.4853 40.0003 73.8827 39.4803 73.296C39.4803 73.296 39.4803 73.296 39.4803 73.28C39.5256 72.3413 39.5043 71.4133 39.7123 70.488C39.7123 70.464 39.6803 70.4507 39.6749 70.4747C39.4375 71.3432 39.3244 72.241 39.3389 73.1413C39.1549 72.9333 38.9656 72.7253 38.7763 72.5227C38.3389 72.0533 37.8963 71.592 37.4429 71.1413C37.4243 71.1227 37.3976 71.1413 37.4136 71.1707C38.1683 71.9707 38.8829 72.824 39.5789 73.6827C39.0334 73.6751 38.4878 73.6956 37.9443 73.744C37.3389 73.7893 36.7389 73.8667 36.1363 73.9493C36.1096 73.9493 36.1176 73.992 36.1363 73.9893C36.7347 73.9032 37.3374 73.8489 37.9416 73.8267C38.5256 73.8027 39.1043 73.8267 39.6883 73.8267C40.0643 74.2933 40.4376 74.7653 40.8029 75.2373H40.7203C40.5843 75.2373 40.4536 75.2373 40.3096 75.2373C40.0429 75.2373 39.7763 75.2613 39.5096 75.2827C38.9544 75.3279 38.4029 75.4108 37.8589 75.5307C37.8549 75.5322 37.8513 75.5349 37.8488 75.5385C37.8464 75.542 37.845 75.5463 37.845 75.5507C37.845 75.555 37.8464 75.5593 37.8488 75.5628C37.8513 75.5664 37.8549 75.5691 37.8589 75.5707C38.4083 75.5093 38.9576 75.456 39.5096 75.4373C39.7763 75.4373 40.0429 75.4373 40.3096 75.4373H40.7203C40.7956 75.4462 40.872 75.4389 40.9443 75.416C41.1843 75.728 41.4269 76.04 41.6643 76.3547C41.8536 76.6027 42.0403 76.856 42.2243 77.1093C42.4083 77.3627 42.5816 77.6427 42.7896 77.896C42.8083 77.9067 42.8349 77.8853 42.8269 77.8667Z" fill="#263238"/>
<path d="M38.0013 72.6373C37.685 72.5948 37.3656 72.5787 37.0466 72.5893C36.7266 72.5893 36.4066 72.5893 36.0893 72.6107C36.0861 72.6095 36.0826 72.6091 36.0792 72.6095C36.0758 72.6099 36.0725 72.6112 36.0697 72.6132C36.0669 72.6151 36.0646 72.6177 36.063 72.6208C36.0614 72.6238 36.0605 72.6272 36.0605 72.6307C36.0605 72.6341 36.0614 72.6375 36.063 72.6405C36.0646 72.6436 36.0669 72.6462 36.0697 72.6482C36.0725 72.6501 36.0758 72.6514 36.0792 72.6518C36.0826 72.6523 36.0861 72.6519 36.0893 72.6507C36.412 72.6267 36.7346 72.6213 37.06 72.6267C37.3853 72.632 37.684 72.6613 37.9986 72.6533C38.0093 72.6507 38.012 72.6373 38.0013 72.6373Z" fill="#263238"/>
<path d="M40.8054 73.3573C40.8401 73.0507 40.8801 72.744 40.9441 72.4453C40.9441 72.416 40.9094 72.4053 40.9041 72.4453C40.8588 72.7467 40.8001 73.0453 40.7574 73.3467C40.7334 73.496 40.7148 73.648 40.6961 73.7973C40.6678 73.9377 40.6553 74.0808 40.6588 74.224C40.6588 74.2311 40.6616 74.2378 40.6666 74.2428C40.6716 74.2478 40.6784 74.2507 40.6854 74.2507C40.6925 74.2507 40.6993 74.2478 40.7043 74.2428C40.7093 74.2378 40.7121 74.2311 40.7121 74.224C40.738 74.084 40.7532 73.9423 40.7574 73.8C40.7708 73.6453 40.7868 73.5013 40.8054 73.3573Z" fill="#263238"/>
<path d="M40.2168 69.976C40.1395 70.272 40.0621 70.5733 40.0061 70.8747C39.9795 71.0293 39.9555 71.1813 39.9341 71.336C39.9071 71.4855 39.8973 71.6376 39.9048 71.7893C39.9048 71.7893 39.9235 71.7893 39.9288 71.7893C39.964 71.6484 39.9872 71.5048 39.9981 71.36C40.0195 71.2107 40.0408 71.064 40.0675 70.9147C40.1208 70.6027 40.1768 70.296 40.2568 69.9893C40.2621 69.9627 40.2248 69.9493 40.2168 69.976Z" fill="#263238"/>
<path d="M28.5813 88.0987C28.5333 87.536 28.4773 86.9733 28.4186 86.4107C28.3013 85.2978 28.167 84.1867 28.0159 83.0773C27.8666 81.9733 27.7253 80.864 27.5466 79.7627C27.4801 79.2509 27.3658 78.7465 27.2053 78.256C27.1472 78.0458 27.0417 77.8517 26.8971 77.6886C26.7524 77.5254 26.5723 77.3975 26.3706 77.3147C25.3199 76.952 24.6106 78.0427 24.1866 78.8133C24.1733 78.8373 24.2079 78.8533 24.2213 78.832C24.4879 78.4693 25.1786 77.4427 25.9759 77.4987C26.5093 77.5307 26.9413 77.9093 27.1999 79.248C27.8426 82.5813 28.4213 89.3493 28.4879 89.792C28.5226 90.024 28.6879 90.016 28.6906 89.7627C28.6933 89.2027 28.6213 88.648 28.5813 88.0987Z" fill="#263238"/>
<path d="M24.4688 78.4C24.4688 78.4 25.3888 75.1547 23.3568 76.776C19.9755 79.4667 19.8555 85.352 19.8555 85.352C19.8555 85.352 25.8661 81.8667 26.6155 79.5573C27.7275 76.128 24.4688 78.4 24.4688 78.4Z" fill="#B99AC8"/>
<path d="M25.6075 80C25.1355 80.096 24.6582 80.1573 24.1809 80.2267L23.5035 80.3227L23.0449 80.376C23.4929 79.76 23.9435 79.144 24.3782 78.5093C24.3942 78.4853 24.3569 78.4613 24.3382 78.48C23.9827 78.8485 23.6471 79.2357 23.3329 79.64L23.0662 78.888C22.9622 78.5973 22.8529 78.3067 22.7782 78.008C22.7782 77.9813 22.7329 78.008 22.7409 78.008C22.8235 78.3067 22.8795 78.6107 22.9595 78.9067C23.0395 79.2027 23.1249 79.48 23.2262 79.76C23.0075 80.0453 22.7942 80.3387 22.5889 80.6347C22.4875 80.3413 22.3569 80.0587 22.2662 79.76C22.2662 79.736 22.2209 79.7467 22.2289 79.76C22.3355 80.0907 22.3942 80.432 22.4955 80.7627C22.3569 80.9653 22.2209 81.168 22.0875 81.3707C21.8449 81.7467 21.6155 82.128 21.3915 82.512C21.3745 82.5198 21.3605 82.5328 21.3514 82.5491C21.3423 82.5654 21.3386 82.5841 21.3409 82.6027C20.9595 83.2587 20.5995 83.936 20.2422 84.6C20.2422 84.6213 20.2662 84.6427 20.2769 84.6187C20.6342 83.9547 21.0315 83.3067 21.4449 82.672C21.5081 82.6522 21.5734 82.6397 21.6395 82.6347L21.8475 82.5893L22.3115 82.4773C22.6155 82.4 22.9169 82.328 23.2289 82.2747C23.2529 82.2747 23.2289 82.232 23.2155 82.2373C22.8529 82.3067 22.4875 82.3467 22.1195 82.3893C21.9462 82.4107 21.7729 82.432 21.5995 82.4587H21.5755C21.7915 82.1307 22.0102 81.8027 22.2315 81.4827C22.4529 81.1627 22.6742 80.8507 22.9009 80.5387C23.1089 80.5093 23.3169 80.456 23.5222 80.416L24.2209 80.28C24.6849 80.1893 25.1489 80.0827 25.6155 80.0133C25.6449 80.0267 25.6342 80 25.6075 80Z" fill="#263238"/>
<path d="M21.9947 80.312L21.9147 80.0453C21.8595 79.87 21.8132 79.692 21.7761 79.512C21.7761 79.488 21.7334 79.4987 21.7387 79.512C21.7761 79.696 21.8214 79.88 21.8614 80.0613C21.9007 80.2427 21.9533 80.421 22.0187 80.5947C22.023 80.6019 22.0296 80.6074 22.0374 80.6104C22.0452 80.6134 22.0538 80.6137 22.0618 80.6112C22.0698 80.6088 22.0767 80.6037 22.0815 80.5968C22.0863 80.59 22.0886 80.5817 22.0881 80.5733C22.0614 80.4933 22.0267 80.4027 21.9947 80.312Z" fill="#263238"/>
<path d="M26.222 79.24C25.9553 79.2827 25.67 79.3013 25.3953 79.3253C25.1206 79.3493 24.8433 79.3867 24.5686 79.4293C24.5526 79.4293 24.5526 79.4533 24.5686 79.4533C24.8353 79.4347 25.1206 79.4133 25.3953 79.376C25.67 79.3387 25.9446 79.2987 26.222 79.28C26.2513 79.28 26.2486 79.2373 26.222 79.24Z" fill="#263238"/>
<path d="M33.0057 84C32.899 81.6 32.739 79.2267 32.507 76.848C32.387 75.6613 32.2537 74.4773 32.0857 73.2987C31.937 72.1404 31.7089 70.9937 31.403 69.8667C31.1894 68.9905 30.8002 68.1668 30.259 67.4453C29.9911 67.0953 29.6386 66.8192 29.2346 66.6429C28.8307 66.4666 28.3885 66.3958 27.9497 66.4373C26.9044 66.5653 26.0617 67.224 25.3337 67.9413C24.5177 68.7413 23.7684 69.6213 23.011 70.48C22.819 70.6969 22.6297 70.9156 22.443 71.136C22.4244 71.1547 22.443 71.1813 22.4724 71.1627C23.211 70.312 23.979 69.488 24.7844 68.6987C25.5284 67.968 26.2937 67.1707 27.323 66.8693C27.8011 66.7167 28.313 66.7047 28.7977 66.8347C29.1826 66.9576 29.5296 67.177 29.8057 67.472C30.3546 68.1082 30.744 68.866 30.9417 69.6827C31.5844 71.8773 31.8137 74.1813 32.051 76.448C32.2884 78.7147 32.459 81.0613 32.5844 83.3813C32.7097 85.7013 32.7924 88.0347 33.0164 90.3547C33.043 90.64 33.0804 90.9253 33.1177 91.2107C33.1417 91.4027 33.4404 91.4027 33.4244 91.2107C33.2217 88.8 33.1124 86.4 33.0057 84Z" fill="#263238"/>
<path d="M25.2031 68.1867C25.2031 68.1867 26.5658 65.6613 24.9551 64.8507C23.3444 64.04 17.9551 70.064 16.3711 78.8693C16.3711 78.8693 25.0858 75.016 28.0431 71.1733C31.0004 67.3307 27.6484 66.4853 25.2031 68.1867Z" fill="#B99AC8"/>
<path d="M26.4883 70.24C25.5097 70.24 24.5337 70.1653 23.555 70.1733L24.0883 69.5413C24.3626 69.2624 24.6182 68.9657 24.8537 68.6533C24.8537 68.632 24.8377 68.6027 24.819 68.6187C24.5579 68.8488 24.3137 69.0974 24.0883 69.3627L23.355 70.1467C22.9817 70.552 22.6163 70.9627 22.2483 71.376V70.744C22.2483 70.4107 22.2483 70.08 22.2483 69.7467C22.2483 69.0747 22.2483 68.3973 22.299 67.7253C22.299 67.6987 22.2617 67.7013 22.259 67.7253C22.2137 68.4 22.1417 69.0747 22.1097 69.7493C22.0937 70.0827 22.0857 70.4133 22.0803 70.7467C22.0803 70.9173 22.0803 71.0907 22.0803 71.2613C22.0803 71.3547 22.0803 71.4533 22.0803 71.5493L21.907 71.7413C21.1257 72.6347 20.3817 73.56 19.659 74.4987C19.659 74.448 19.659 74.3947 19.659 74.344C19.659 74.24 19.635 74.136 19.6243 74.032C19.6003 73.808 19.5683 73.584 19.5337 73.36C19.499 73.136 19.4697 72.9413 19.435 72.7307C19.3849 72.4954 19.3466 72.2578 19.3203 72.0187C19.3215 72.0154 19.3219 72.012 19.3215 72.0086C19.3211 72.0051 19.3198 72.0019 19.3179 71.9991C19.3159 71.9962 19.3133 71.9939 19.3102 71.9923C19.3072 71.9907 19.3038 71.9899 19.3003 71.9899C19.2969 71.9899 19.2935 71.9907 19.2905 71.9923C19.2874 71.9939 19.2848 71.9962 19.2828 71.9991C19.2809 72.0019 19.2796 72.0051 19.2792 72.0086C19.2787 72.012 19.2791 72.0154 19.2803 72.0187C19.3212 72.2561 19.3488 72.4955 19.363 72.736C19.3817 72.952 19.403 73.168 19.4217 73.384C19.4403 73.6 19.4617 73.816 19.483 74.0293C19.483 74.1333 19.5017 74.2373 19.515 74.3413C19.515 74.392 19.515 74.4453 19.5337 74.496C19.5368 74.5395 19.5505 74.5817 19.5737 74.6187L19.203 75.1067C18.7097 75.76 18.2243 76.4213 17.739 77.0827C17.723 77.1013 17.7523 77.1307 17.7683 77.1093C18.227 76.5093 18.699 75.9227 19.179 75.3387C19.5363 75.3547 19.9017 75.3387 20.2617 75.3227C20.6217 75.3067 21.0163 75.3227 21.395 75.3227C21.4217 75.3227 21.419 75.2827 21.395 75.2827C21.0163 75.2827 20.6377 75.2827 20.2617 75.2827C19.8857 75.2827 19.5657 75.2827 19.219 75.2827C19.6403 74.768 20.067 74.2613 20.4937 73.752L20.963 73.1973C21.1079 73.2173 21.2544 73.2227 21.4003 73.2133H21.915L22.8803 73.2C23.5443 73.2 24.2137 73.1653 24.875 73.1653C24.8803 73.1653 24.8854 73.1632 24.8891 73.1595C24.8929 73.1557 24.895 73.1506 24.895 73.1453C24.895 73.14 24.8929 73.1349 24.8891 73.1312C24.8854 73.1274 24.8803 73.1253 24.875 73.1253C24.2083 73.1253 23.5417 73.088 22.8777 73.072C22.555 73.072 22.2323 73.0507 21.9097 73.048H21.395C21.2963 73.048 21.1977 73.048 21.0963 73.048C21.4626 72.6142 21.8288 72.1804 22.195 71.7467C22.2048 71.7444 22.214 71.7398 22.2217 71.7333C22.579 71.312 22.9337 70.8907 23.2883 70.4747C23.3363 70.416 23.387 70.36 23.4377 70.304C24.4537 70.336 25.467 70.2693 26.4803 70.288C26.4867 70.2891 26.4932 70.2875 26.4985 70.2838C26.5037 70.28 26.5073 70.2744 26.5083 70.268C26.5094 70.2616 26.5079 70.2551 26.5041 70.2499C26.5004 70.2446 26.4947 70.2411 26.4883 70.24Z" fill="#263238"/>
<path d="M25.9815 71.9707H25.7436C25.7196 71.9707 25.7222 72.0054 25.7436 72.0081H25.9815C26.0083 72.0001 26.0083 71.9707 25.9815 71.9707Z" fill="#263238"/>
<path d="M25.4547 71.9733C25.1427 71.9733 24.8281 71.9733 24.5134 71.9547L24.0441 71.9387C23.8989 71.92 23.7519 71.92 23.6067 71.9387C23.5907 71.9387 23.6067 71.9653 23.6067 71.968C23.7514 71.9974 23.8993 72.0081 24.0467 72H24.5161C24.8307 72 25.1427 72 25.4574 72C25.4841 72.0133 25.4814 71.9733 25.4547 71.9733Z" fill="#263238"/>
<path d="M22.7144 74.9147C22.0778 74.809 21.4343 74.7511 20.7891 74.7413V74.7547C21.4291 74.816 22.0691 74.8507 22.7064 74.9547C22.7304 74.9573 22.7544 74.9173 22.7144 74.9147Z" fill="#263238"/>
<path d="M20.0877 72.112C20.0877 72.056 20.0877 72 20.0663 71.944C20.0503 71.816 20.0317 71.6773 20.0103 71.5653C19.973 71.3253 19.933 71.088 19.8877 70.8507C19.8861 70.8466 19.8834 70.8431 19.8798 70.8406C19.8763 70.8381 19.872 70.8368 19.8677 70.8368C19.8633 70.8368 19.8591 70.8381 19.8555 70.8406C19.8519 70.8431 19.8492 70.8466 19.8477 70.8507C19.877 71.096 19.9037 71.344 19.9277 71.592C19.9277 71.712 19.9463 71.8347 19.957 71.9547C19.9534 72.0714 19.9705 72.1879 20.0077 72.2987C20.0112 72.3066 20.0171 72.3134 20.0244 72.3181C20.0317 72.3229 20.0403 72.3254 20.049 72.3254C20.0577 72.3254 20.0663 72.3229 20.0736 72.3181C20.0809 72.3134 20.0867 72.3066 20.0903 72.2987C20.1022 72.2369 20.1013 72.1734 20.0877 72.112Z" fill="#263238"/>
<path d="M32.9212 64.944C32.6092 64.3627 32.2118 63.6107 31.4332 63.6453C30.7905 63.6853 30.4998 64.3413 30.3665 64.8827C29.9425 66.56 29.9105 68.328 29.8332 70.048C29.6598 73.68 29.5025 77.3147 29.4785 80.952C29.4785 81.96 29.4785 82.968 29.4785 83.976C29.4785 85.0027 29.4785 86.0373 29.5505 87.064C29.5505 87.0838 29.5584 87.1028 29.5724 87.1168C29.5864 87.1308 29.6054 87.1387 29.6252 87.1387C29.645 87.1387 29.664 87.1308 29.678 87.1168C29.692 87.1028 29.6998 87.0838 29.6998 87.064C29.6998 86.184 29.6758 85.304 29.6732 84.424C29.6705 83.544 29.6732 82.7067 29.6892 81.8507C29.7158 80.112 29.7621 78.3742 29.8278 76.6373C29.8918 74.9093 29.9692 73.184 30.0412 71.4587C30.0785 70.5947 30.1132 69.7333 30.1532 68.8693C30.1932 68.0053 30.2278 67.1973 30.3238 66.368C30.3772 65.9013 30.4438 65.4347 30.5425 64.976C30.591 64.6353 30.7301 64.3139 30.9452 64.0453C31.094 63.8991 31.2899 63.8106 31.498 63.7954C31.7061 63.7803 31.9128 63.8396 32.0812 63.9627C32.4329 64.2203 32.7091 64.5674 32.8812 64.968C32.8892 64.9893 32.9318 64.968 32.9212 64.944Z" fill="#263238"/>
<path d="M32.7094 64.6667C32.7094 64.6667 32.0694 62.4053 33.4827 63.536C35.8374 65.4187 35.9227 69.5093 35.9227 69.5093C35.9227 69.5093 31.7361 67.0773 31.2134 65.4747C30.4401 63.0853 32.7094 64.6667 32.7094 64.6667Z" fill="#B99AC8"/>
<path d="M35.0406 67.832C35.0032 67.7707 34.9632 67.7093 34.9232 67.648C34.9286 67.5832 34.9286 67.5181 34.9232 67.4533C34.9232 67.3573 34.9232 67.2587 34.9232 67.1627C34.9232 66.9707 34.9232 66.7813 34.9446 66.5893C34.9446 66.5653 34.9046 66.5653 34.9046 66.5893C34.8939 66.7671 34.8859 66.9538 34.8806 67.1493V67.432C34.8806 67.4693 34.8806 67.5093 34.8806 67.552C34.7152 67.2853 34.5472 67.0453 34.3712 66.7947L34.2166 66.5813C34.1965 66.3364 34.1965 66.0903 34.2166 65.8453C34.2166 65.5787 34.2166 65.312 34.2326 65.0453C34.2326 65.0213 34.1926 65.0213 34.1926 65.0453C34.1926 65.312 34.1712 65.5787 34.1579 65.864C34.1419 66.0582 34.1366 66.2532 34.1419 66.448C33.7366 65.8987 33.3099 65.368 32.8752 64.848C32.8592 64.832 32.8299 64.848 32.8432 64.8747C33.1099 65.2133 33.3766 65.5627 33.6219 65.9173C33.1286 65.8027 32.6299 65.736 32.1286 65.664C32.1019 65.664 32.0939 65.6987 32.1286 65.7013C32.6619 65.7813 33.1792 65.9147 33.7019 66.032C33.9019 66.3147 34.1019 66.5973 34.2992 66.8827C34.3792 66.9973 34.4566 67.1173 34.5366 67.232H34.4886L34.3259 67.2107C34.2112 67.1973 34.0939 67.1867 33.9766 67.1787C33.7366 67.16 33.4939 67.1467 33.2539 67.1333C33.2272 67.1333 33.2272 67.1733 33.2539 67.1733C33.4912 67.1733 33.7286 67.1973 33.9659 67.2213L34.3392 67.2667L34.5046 67.288H34.5526C34.6859 67.488 34.8192 67.6853 34.9552 67.8827C35.1899 68.232 35.4006 68.6053 35.6539 68.9493C35.6567 68.9536 35.6611 68.9565 35.6661 68.9575C35.6711 68.9585 35.6763 68.9575 35.6806 68.9547C35.6848 68.9518 35.6878 68.9474 35.6888 68.9424C35.6898 68.9374 35.6887 68.9322 35.6859 68.928C35.4925 68.5503 35.277 68.1843 35.0406 67.832Z" fill="#263238"/>
<path d="M33.9986 65.28C33.9986 65.192 33.9986 65.104 33.9986 65.0133C33.9937 64.8282 34.0009 64.6429 34.02 64.4587C34.02 64.4293 33.9826 64.4267 33.98 64.4587C33.98 64.64 33.9613 64.824 33.9533 65.0053C33.9533 65.0987 33.9533 65.1893 33.9533 65.272V65.4C33.9453 65.4432 33.9453 65.4875 33.9533 65.5307C33.9547 65.5341 33.9571 65.5371 33.9602 65.5392C33.9632 65.5413 33.9669 65.5424 33.9706 65.5424C33.9744 65.5424 33.978 65.5413 33.9811 65.5392C33.9842 65.5371 33.9866 65.5341 33.988 65.5307C33.9933 65.4899 33.9933 65.4487 33.988 65.408C34.0013 65.3707 33.9986 65.3333 33.9986 65.28Z" fill="#263238"/>
<path d="M33.481 66.216C33.3263 66.1893 33.1663 66.1813 33.009 66.168C32.8516 66.1547 32.665 66.1387 32.4916 66.1147C32.4884 66.1135 32.485 66.1131 32.4815 66.1135C32.4781 66.1139 32.4749 66.1152 32.472 66.1171C32.4692 66.1191 32.4669 66.1217 32.4653 66.1248C32.4637 66.1278 32.4629 66.1312 32.4629 66.1347C32.4629 66.1381 32.4637 66.1415 32.4653 66.1445C32.4669 66.1476 32.4692 66.1502 32.472 66.1522C32.4749 66.1541 32.4781 66.1554 32.4815 66.1558C32.485 66.1563 32.4884 66.1559 32.4916 66.1547C32.8223 66.176 33.1503 66.2347 33.481 66.248C33.4852 66.248 33.4893 66.2463 33.4923 66.2433C33.4953 66.2403 33.497 66.2362 33.497 66.232C33.497 66.2278 33.4953 66.2237 33.4923 66.2207C33.4893 66.2177 33.4852 66.216 33.481 66.216Z" fill="#263238"/>
<path d="M34.797 66.2293C34.797 66.2453 34.797 66.296 34.797 66.3173V66.5467C34.797 66.6 34.797 66.6533 34.797 66.7067C34.7876 66.7515 34.7876 66.7978 34.797 66.8427C34.797 66.8427 34.797 66.8427 34.813 66.8427C34.8184 66.8217 34.8184 66.7997 34.813 66.7787V66.3147C34.813 66.2933 34.813 66.248 34.813 66.2293C34.813 66.2107 34.7677 66.192 34.797 66.2293Z" fill="#263238"/>
<path d="M33.0169 77.0027C32.1369 76.344 31.3449 75.4027 30.1609 75.3467C29.1823 75.3067 28.4996 76.0427 28.1076 76.864C27.9094 77.2992 27.7488 77.7507 27.6276 78.2133C27.4516 78.832 27.2836 79.4533 27.1289 80.08C26.8223 81.3093 26.5583 82.5467 26.3449 83.7947C26.2249 84.4907 26.1156 85.1893 26.0276 85.888C25.9145 86.5941 25.8459 87.3066 25.8223 88.0213C25.8244 88.0473 25.8354 88.0717 25.8536 88.0904C25.8717 88.1091 25.8958 88.1208 25.9217 88.1237C25.9476 88.1265 25.9736 88.1202 25.9954 88.106C26.0172 88.0917 26.0333 88.0702 26.0409 88.0453C26.1583 87.4587 26.2089 86.856 26.3076 86.264C26.4063 85.672 26.4863 85.0747 26.5743 84.48C26.7769 83.296 27.0089 82.112 27.2756 80.9413C27.5423 79.832 27.7769 78.7067 28.1343 77.6293C28.4009 76.856 28.8009 75.952 29.6383 75.6747C30.9076 75.2507 32.0623 76.328 32.9929 77.024C33.0089 77.048 33.0383 77.0187 33.0169 77.0027Z" fill="#263238"/>
<path d="M32.1051 76.3707C32.1051 76.3707 31.3051 74.0533 32.4677 73.6C34.2277 72.9173 38.8331 78.104 37.9317 86.0533C37.9317 86.0533 34.3744 84.0933 31.7451 81.888C29.1157 79.6827 28.4464 76.8027 29.6117 76.056C30.7771 75.3093 32.1051 76.3707 32.1051 76.3707Z" fill="#B99AC8"/>
<path d="M37.4001 84.3493C37.2765 84.0726 37.133 83.8053 36.9708 83.5493C36.8215 83.2827 36.6695 83.016 36.5121 82.7493C36.2055 82.216 35.9015 81.7013 35.5895 81.184C35.5388 81.0987 35.4855 81.016 35.4348 80.9333C35.4348 80.9013 35.4348 80.8693 35.4535 80.84C35.4721 80.7627 35.4881 80.6853 35.5068 80.608C35.5441 80.4373 35.5761 80.2613 35.6081 80.0747C35.6721 79.736 35.7308 79.392 35.8215 79.056C35.8215 79.032 35.7868 79.024 35.7815 79.056C35.7095 79.3947 35.6028 79.7307 35.5148 80.0613C35.4668 80.2267 35.4135 80.3893 35.3708 80.5547C35.3548 80.6107 35.3415 80.6693 35.3255 80.7253C34.9468 80.104 34.5628 79.488 34.1468 78.8907C34.1735 78.8088 34.1879 78.7234 34.1895 78.6373C34.1895 78.52 34.2161 78.4053 34.2295 78.288C34.2588 78.0213 34.2908 77.7547 34.3281 77.504C34.3949 76.9919 34.4883 76.4837 34.6081 75.9813C34.6081 75.9573 34.5735 75.9493 34.5681 75.9813C34.4401 76.48 34.3015 76.9813 34.2081 77.488C34.1601 77.7387 34.1175 77.9867 34.0828 78.2373C34.0668 78.3653 34.0535 78.4907 34.0401 78.616C34.0401 78.6533 34.0401 78.6907 34.0401 78.7307C33.9121 78.5493 33.7735 78.3707 33.6508 78.1973C33.2428 77.664 32.8241 77.1307 32.3975 76.6187C32.3815 76.6 32.3495 76.6187 32.3655 76.6427C33.0935 77.5771 33.7615 78.5569 34.3655 79.576C34.4828 79.7627 34.5975 79.9493 34.7121 80.1387L34.5975 80.1227C34.4481 80.104 34.2988 80.096 34.1495 80.08L33.2508 80.0027C32.6508 79.9547 32.0508 79.92 31.4508 79.856C31.4268 79.856 31.4188 79.8907 31.4508 79.8933C32.0561 79.9627 32.6588 80.0613 33.2641 80.1467C33.5601 80.1893 33.8561 80.2293 34.1548 80.2667C34.3803 80.3131 34.6099 80.3363 34.8401 80.336L35.5468 81.4853C35.4935 81.4826 35.4401 81.4826 35.3868 81.4853H34.4881C34.1015 81.4853 33.7175 81.4853 33.3308 81.4853C33.3041 81.4853 33.3095 81.5253 33.3308 81.5253C33.7228 81.5253 34.1121 81.5493 34.5041 81.5707L35.0588 81.6027L35.3255 81.624C35.4061 81.6431 35.4901 81.6431 35.5708 81.624C35.7708 81.9493 35.9735 82.2747 36.1708 82.6C36.3681 82.9253 36.5415 83.2 36.7335 83.4987C36.9104 83.8153 37.1119 84.1176 37.3361 84.4027C37.3761 84.3867 37.4215 84.3733 37.4001 84.3493Z" fill="#263238"/>
<path d="M35.7038 77.9253C35.6679 78.1803 35.6145 78.4324 35.5438 78.68C35.4798 78.9467 35.4025 79.1947 35.3198 79.4453C35.3173 79.4487 35.3156 79.4526 35.3148 79.4568C35.3141 79.461 35.3144 79.4653 35.3157 79.4693C35.3169 79.4733 35.3191 79.477 35.3221 79.48C35.325 79.483 35.3287 79.4853 35.3327 79.4866C35.3367 79.488 35.341 79.4883 35.3451 79.4877C35.3493 79.4871 35.3533 79.4854 35.3567 79.483C35.3601 79.4805 35.3629 79.4772 35.3649 79.4735C35.3668 79.4697 35.3678 79.4656 35.3678 79.4613C35.4478 79.2107 35.5171 78.9573 35.5785 78.704C35.6398 78.4507 35.6798 78.1867 35.7438 77.9333C35.7491 77.9067 35.7065 77.8987 35.7038 77.9253Z" fill="#263238"/>
<path d="M33.0884 79.4667C33.0353 79.4201 32.9671 79.3946 32.8964 79.3947L32.5604 79.3493C32.3524 79.32 32.1418 79.2987 31.9338 79.272C31.5018 79.2213 31.0671 79.1813 30.6324 79.1253C30.6084 79.1253 30.6004 79.1627 30.6324 79.1653C31.0404 79.216 31.4484 79.2773 31.8564 79.3307L32.4564 79.408L32.7444 79.44C32.8568 79.4421 32.9683 79.461 33.0751 79.496C33.0884 79.5173 33.1044 79.4907 33.0884 79.4667Z" fill="#263238"/>
<path d="M35.6966 82.9733C35.494 82.9547 35.286 82.9493 35.0806 82.9413H34.7713H34.622C34.5573 82.948 34.492 82.948 34.4273 82.9413C34.398 82.9413 34.3953 82.9867 34.4273 82.9813C34.4876 82.9747 34.5484 82.9747 34.6086 82.9813H34.7686L35.0806 83C35.2833 83 35.4913 83.024 35.6966 83.024C35.7034 83.024 35.7098 83.0213 35.7146 83.0166C35.7193 83.0118 35.722 83.0054 35.722 82.9987C35.722 82.9919 35.7193 82.9855 35.7146 82.9808C35.7098 82.976 35.7034 82.9733 35.6966 82.9733Z" fill="#263238"/>
<path d="M36.9522 82.0827C36.9762 81.968 36.9976 81.8507 37.0189 81.7333C37.0616 81.504 37.1016 81.2747 37.1442 81.048C37.1427 81.0439 37.14 81.0404 37.1364 81.0379C37.1328 81.0354 37.1286 81.0341 37.1242 81.0341C37.1199 81.0341 37.1156 81.0354 37.112 81.0379C37.1085 81.0404 37.1057 81.0439 37.1042 81.048C37.0536 81.272 37.0056 81.4933 36.9549 81.7173C36.9282 81.8293 36.9042 81.9413 36.8802 82.0533L36.8482 82.208C36.8314 82.2605 36.825 82.3157 36.8296 82.3707C36.8296 82.3893 36.8616 82.4053 36.8749 82.3867C36.9192 82.291 36.9454 82.1879 36.9522 82.0827Z" fill="#263238"/>
<path d="M35.2222 88.9333L35.0249 92.2187L34.4409 101.915H24.4969L23.9102 92.2187L23.7129 88.9333H35.2222Z" fill="#455A64"/>
<path d="M35.2222 88.9333L35.0249 92.2187H23.9102L23.7129 88.9333H35.2222Z" fill="#263238"/>
<path d="M36.1389 86.608H22.7949V89.896H36.1389V86.608Z" fill="#455A64"/>
<path d="M169.691 70.592H95.6641V118.453H169.691V70.592Z" fill="#B99AC8"/>
<path d="M146.363 65.6347H169.691V70.592H145.021L146.363 65.6347Z" fill="#B99AC8"/>
<g opacity="0.1">
<path d="M169.691 70.592H95.6641V118.453H169.691V70.592Z" fill="black"/>
<path d="M146.363 65.6347H169.691V70.592H145.021L146.363 65.6347Z" fill="black"/>
</g>
<path d="M107.269 39.12C107.09 38.3463 107.09 37.5417 107.269 36.768C107.365 37.1525 107.41 37.5479 107.403 37.944C107.409 38.3401 107.364 38.7353 107.269 39.12Z" fill="#263238"/>
<path d="M109.664 39.8107C109.774 39.4302 109.933 39.0655 110.136 38.7253C110.328 38.379 110.563 38.0589 110.837 37.7733C110.728 38.1542 110.569 38.5191 110.365 38.8587C110.173 39.2048 109.938 39.5247 109.664 39.8107Z" fill="#263238"/>
<path d="M111.395 41.6C111.68 41.3258 111.999 41.0892 112.344 40.896C112.682 40.6957 113.044 40.5381 113.421 40.4267C112.843 40.9664 112.15 41.3676 111.395 41.6Z" fill="#263238"/>
<path d="M111.994 44.024C112.378 43.9309 112.772 43.8861 113.167 43.8907C113.564 43.8835 113.959 43.9284 114.343 44.024C113.959 44.117 113.565 44.1618 113.17 44.1573C112.774 44.1631 112.379 44.1183 111.994 44.024Z" fill="#263238"/>
<path d="M111.305 46.4213C111.685 46.5309 112.05 46.6886 112.39 46.8907C112.736 47.0845 113.055 47.321 113.342 47.5947C112.583 47.3618 111.887 46.9607 111.305 46.4213Z" fill="#263238"/>
<path d="M109.51 48.1493C109.783 48.4361 110.02 48.7559 110.214 49.1013C110.417 49.4406 110.575 49.8044 110.686 50.184C110.144 49.6043 109.741 48.9084 109.51 48.1493Z" fill="#263238"/>
<path d="M107.087 48.7493C107.267 49.5231 107.267 50.3276 107.087 51.1013C106.992 50.7168 106.947 50.3215 106.954 49.9253C106.948 49.5293 106.993 49.1341 107.087 48.7493Z" fill="#263238"/>
<path d="M104.693 48.0587C104.582 48.4391 104.424 48.8038 104.221 49.144C104.03 49.4914 103.794 49.8123 103.52 50.0987C103.63 49.7174 103.789 49.3518 103.992 49.0107C104.185 48.6657 104.421 48.346 104.693 48.0587Z" fill="#263238"/>
<path d="M102.965 46.264C102.679 46.5377 102.359 46.7742 102.013 46.968C101.674 47.173 101.309 47.3326 100.928 47.4427C101.51 46.9017 102.206 46.4988 102.965 46.264Z" fill="#263238"/>
<path d="M102.366 43.8453C101.981 43.9383 101.586 43.9831 101.19 43.9787C100.794 43.9853 100.399 43.9414 100.014 43.848C100.398 43.7528 100.793 43.7071 101.19 43.712C101.586 43.7076 101.981 43.7524 102.366 43.8453Z" fill="#263238"/>
<path d="M103.053 41.4507C102.673 41.3397 102.308 41.1811 101.968 40.9787C101.623 40.7849 101.303 40.5493 101.016 40.2773C101.396 40.3868 101.761 40.5446 102.101 40.7467C102.447 40.9391 102.767 41.1758 103.053 41.4507Z" fill="#263238"/>
<path d="M104.851 39.7333C104.576 39.4482 104.34 39.1292 104.147 38.784C103.942 38.4445 103.782 38.0796 103.672 37.6987C103.947 37.9842 104.183 38.3042 104.376 38.6507C104.579 38.9904 104.738 39.3541 104.851 39.7333Z" fill="#263238"/>
<path d="M164.483 47.248H116.336V109.051H164.483V47.248Z" fill="#EBEBEB"/>
<path d="M164.48 109.051L116.336 109.136H116.25V109.051L116.205 47.248V47.1173H116.336L164.48 47.1467H164.581V47.248L164.48 109.051ZM164.48 109.051L164.381 47.248L164.48 47.3467L116.336 47.3787L116.466 47.248L116.418 109.051L116.336 108.968L164.48 109.051Z" fill="#DBDBDB"/>
<path d="M121.604 60.456L140.409 60.408L159.214 60.456L140.409 60.504L121.604 60.456Z" fill="#C7C7C7"/>
<path d="M121.604 61.9893L140.409 61.9413L159.214 61.9893L140.409 62.0373L121.604 61.9893Z" fill="#C7C7C7"/>
<path d="M121.604 63.5253L140.409 63.4773L159.214 63.5253L140.409 63.5707L121.604 63.5253Z" fill="#C7C7C7"/>
<path d="M121.604 65.0587L140.409 65.0107L159.214 65.0587L140.409 65.1067L121.604 65.0587Z" fill="#C7C7C7"/>
<path d="M121.604 66.592L140.409 66.544L159.214 66.592L140.409 66.64L121.604 66.592Z" fill="#C7C7C7"/>
<path d="M121.604 68.1253L140.409 68.0773L159.214 68.1253L140.409 68.1733L121.604 68.1253Z" fill="#C7C7C7"/>
<path d="M121.604 69.6587L140.409 69.6107L159.214 69.6587L140.409 69.7067L121.604 69.6587Z" fill="#C7C7C7"/>
<path d="M121.604 71.192L140.409 71.1467L159.214 71.192L140.409 71.24L121.604 71.192Z" fill="#C7C7C7"/>
<path d="M121.604 72.728L140.409 72.68L159.214 72.728L140.409 72.7733L121.604 72.728Z" fill="#C7C7C7"/>
<path d="M121.604 74.2613L140.409 74.2133L159.214 74.2613L140.409 74.3067L121.604 74.2613Z" fill="#C7C7C7"/>
<path d="M121.604 75.7947L140.409 75.7467L159.214 75.7947L140.409 75.8427L121.604 75.7947Z" fill="#C7C7C7"/>
<path d="M121.604 77.328L140.409 77.28L159.214 77.328L140.409 77.376L121.604 77.328Z" fill="#C7C7C7"/>
<path d="M121.604 78.8613L140.409 78.8133L159.214 78.8613L140.409 78.9093L121.604 78.8613Z" fill="#C7C7C7"/>
<path d="M121.604 80.3947L140.409 80.3493L159.214 80.3947L140.409 80.4427L121.604 80.3947Z" fill="#C7C7C7"/>
<path d="M121.604 81.928L140.409 81.8827L159.214 81.928L140.409 81.976L121.604 81.928Z" fill="#C7C7C7"/>
<path d="M128.431 77.28H125.578V83.7173H128.431V77.28Z" fill="#B99AC8"/>
<path d="M133.722 73.848H130.869V83.7173H133.722V73.848Z" fill="#B99AC8"/>
<path d="M139.013 70.0027H136.16V83.7173H139.013V70.0027Z" fill="#B99AC8"/>
<path d="M144.306 68.352H141.453V83.7173H144.306V68.352Z" fill="#B99AC8"/>
<path d="M149.597 65.4107H146.744V83.7173H149.597V65.4107Z" fill="#B99AC8"/>
<path d="M154.888 62.504H152.035V83.7173H154.888V62.504Z" fill="#B99AC8"/>
<path d="M122.621 59.3813L122.696 65.464L122.747 71.5493C122.781 75.6053 122.792 79.6613 122.8 83.7173L122.621 83.5413H131.771L140.917 83.5627L150.067 83.6213L159.213 83.7253L150.067 83.8293L140.917 83.888L131.771 83.9093H122.621H122.445V83.7333C122.445 79.6773 122.461 75.6213 122.496 71.5653L122.549 65.48L122.621 59.3813Z" fill="#C7C7C7"/>
<path d="M128.431 85.0027H125.578V85.2613H128.431V85.0027Z" fill="#C7C7C7"/>
<path d="M133.722 85.0027H130.869V85.2613H133.722V85.0027Z" fill="#C7C7C7"/>
<path d="M139.013 85.0027H136.16V85.2613H139.013V85.0027Z" fill="#C7C7C7"/>
<path d="M144.306 85.0027H141.453V85.2613H144.306V85.0027Z" fill="#C7C7C7"/>
<path d="M149.597 85.0027H146.744V85.2613H149.597V85.0027Z" fill="#C7C7C7"/>
<path d="M154.888 85.0027H152.035V85.2613H154.888V85.0027Z" fill="#C7C7C7"/>
<path d="M125.902 78.0933C127.295 78.0718 128.686 77.9658 130.067 77.776C131.447 77.5997 132.817 77.3531 134.171 77.0373C136.883 76.4272 139.513 75.5009 142.008 74.2773C144.51 73.0721 146.817 71.5001 148.854 69.6133L149.24 69.264L149.606 68.8933L150.334 68.1493C150.782 67.616 151.264 67.12 151.667 66.5493C152.53 65.4528 153.311 64.2941 154.003 63.0827H154.027C152.767 65.5925 151.091 67.8709 149.07 69.8213C148.062 70.802 146.972 71.6941 145.811 72.488C144.657 73.2898 143.444 74.0029 142.182 74.6213C137.105 77.0528 131.523 78.2411 125.896 78.088L125.902 78.0933Z" fill="#263238"/>
<path d="M154.816 65.0827L154.422 65.1813L153.936 63.2347L152.03 63.8613L151.904 63.4747L154.224 62.712L154.816 65.0827Z" fill="#263238"/>
<path d="M120.798 94.8747H160.02V93.288H120.798V94.8747Z" fill="#DBDBDB"/>
<path d="M120.801 98.88H142.881V97.2933H120.801V98.88Z" fill="#DBDBDB"/>
<path d="M129.367 55.664H151.447V54.0773H129.367V55.664Z" fill="#DBDBDB"/>
<path d="M155.326 105.744L107.18 105.72L107.212 43.9173L142.958 43.936L155.35 55.7173L155.326 105.744Z" fill="#B99AC8"/>
<path opacity="0.6" d="M155.326 105.744L107.18 105.72L107.212 43.9173L142.958 43.936L155.35 55.7173L155.326 105.744Z" fill="white"/>
<path d="M142.957 43.936L155.349 55.7173L142.951 55.712L142.957 43.936Z" fill="#B99AC8"/>
<path opacity="0.4" d="M142.957 43.936L155.349 55.7173L142.951 55.712L142.957 43.936Z" fill="white"/>
<path d="M111.875 55.9467H138.643V54.36H111.875V55.9467Z" fill="white"/>
<path d="M111.902 59.8799L138.67 59.8939L138.671 58.3072L111.903 58.2932L111.902 59.8799Z" fill="white"/>
<path d="M111.896 63.8852L138.664 63.8992L138.665 62.3125L111.897 62.2985L111.896 63.8852Z" fill="white"/>
<path d="M111.894 67.8893L151.115 67.9099L151.116 66.3232L111.895 66.3027L111.894 67.8893Z" fill="white"/>
<path d="M111.892 71.8973L151.113 71.9179L151.114 70.3312L111.893 70.3107L111.892 71.8973Z" fill="white"/>
<path d="M111.892 75.9027L151.113 75.9232L151.114 74.3366L111.893 74.316L111.892 75.9027Z" fill="white"/>
<path d="M111.89 79.908L151.111 79.9286L151.112 78.3419L111.891 78.3214L111.89 79.908Z" fill="white"/>
<path d="M111.886 83.9133L151.107 83.9339L151.108 82.3472L111.887 82.3267L111.886 83.9133Z" fill="white"/>
<path d="M111.886 87.9214L151.107 87.9419L151.108 86.3552L111.887 86.3347L111.886 87.9214Z" fill="white"/>
<path d="M111.884 91.9267L151.105 91.9472L151.106 90.3606L111.885 90.34L111.884 91.9267Z" fill="white"/>
<path d="M111.882 95.9294L151.104 95.9499L151.104 94.3632L111.883 94.3427L111.882 95.9294Z" fill="white"/>
<path d="M111.878 99.9347L151.1 99.9552L151.1 98.3686L111.879 98.348L111.878 99.9347Z" fill="white"/>
<path d="M95.8379 118.453H169.865L174.958 74.5627H100.931L95.8379 118.453Z" fill="#B99AC8"/>
<path d="M152.154 70.016H175.484L174.956 74.5627H150.287L152.154 70.016Z" fill="#B99AC8"/>
<path d="M164.518 56.5573C163.665 55.8013 163.074 54.7951 162.827 53.6827C162.541 52.3267 162.779 50.9126 163.494 49.7253C163.84 49.1327 164.305 48.6176 164.858 48.2121C165.412 47.8066 166.043 47.5193 166.713 47.368L174.009 45.768L174.214 46.712L166.921 48.312C166.38 48.4349 165.87 48.6679 165.423 48.9964C164.976 49.3249 164.602 49.7418 164.323 50.2213C163.738 51.1983 163.542 52.3597 163.774 53.4747C164.281 55.7867 166.577 57.3333 168.787 56.8507L182.601 53.8267C183.462 53.6382 184.213 53.1154 184.688 52.3732C185.164 51.6311 185.325 50.7304 185.137 49.8693C184.948 49.0083 184.425 48.2573 183.683 47.7817C182.941 47.3061 182.04 47.1448 181.179 47.3333L167.819 50.2667C167.164 50.3983 166.581 50.769 166.185 51.3067C166.001 51.5651 165.874 51.8599 165.813 52.1713C165.753 52.4826 165.759 52.8034 165.833 53.112C166.126 54.4453 167.382 55.1813 168.825 54.8667L180.313 52.352L180.521 53.2987L169.033 55.8107C167.073 56.24 165.299 55.168 164.886 53.3173C164.473 51.4667 165.654 49.7493 167.611 49.3173L180.974 46.384C182.076 46.1655 183.221 46.3881 184.161 47.004C185.101 47.6198 185.762 48.5799 186.003 49.6779C186.243 50.7759 186.043 51.9244 185.446 52.8766C184.848 53.8288 183.902 54.5089 182.809 54.7707L168.995 57.7947C168.204 57.9556 167.386 57.9274 166.608 57.7123C165.83 57.4973 165.114 57.1016 164.518 56.5573Z" fill="#79A8F0"/>
<path d="M159.571 44.3653C158.661 45.0509 157.558 45.4317 156.419 45.4533C155.032 45.4658 153.693 44.9522 152.67 44.016C152.157 43.5597 151.744 43.0027 151.456 42.3796C151.169 41.7565 151.012 41.0808 150.998 40.3947L150.875 32.928L151.843 32.912L151.966 40.3787C151.979 40.9326 152.106 41.478 152.339 41.9805C152.573 42.4829 152.908 42.9317 153.323 43.2987C154.162 44.0694 155.263 44.4926 156.403 44.4827C158.771 44.4427 160.742 42.4987 160.704 40.2347L160.472 26.1013C160.458 25.2201 160.095 24.3806 159.461 23.7675C158.828 23.1544 157.978 22.8179 157.096 22.832C156.215 22.8461 155.376 23.2098 154.762 23.8429C154.149 24.476 153.813 25.3268 153.827 26.208L154.048 39.8853C154.048 40.5527 154.296 41.1964 154.744 41.6907C154.961 41.922 155.225 42.1043 155.518 42.2252C155.811 42.3462 156.126 42.4031 156.443 42.392C157.808 42.3707 158.779 41.2827 158.755 39.808L158.563 28.048L159.534 28.032L159.723 39.792C159.758 41.7947 158.352 43.3307 156.459 43.36C154.566 43.3893 153.115 41.904 153.08 39.8933L152.859 26.2187C152.839 25.6484 152.933 25.0798 153.135 24.5461C153.337 24.0125 153.644 23.5246 154.037 23.1109C154.43 22.6971 154.902 22.3659 155.424 22.1365C155.947 21.9072 156.51 21.7843 157.08 21.7751C157.651 21.7659 158.218 21.8705 158.747 22.0829C159.277 22.2952 159.759 22.611 160.165 23.0119C160.571 23.4127 160.894 23.8905 161.113 24.4173C161.332 24.9441 161.445 25.5093 161.443 26.08L161.672 40.2133C161.675 41.0222 161.486 41.8202 161.121 42.5419C160.755 43.2636 160.224 43.8884 159.571 44.3653Z" fill="#F4ACC4"/>
<path d="M44.8519 35.184C44.3932 37.8187 43.4012 40.9013 44.2039 43.5547C44.8359 45.632 46.5186 47.1893 48.3266 48.2827C52.3052 50.6827 58.1746 51.6827 61.6599 47.8747C63.0519 46.352 63.6972 42.896 61.9052 41.3733C60.9826 40.592 59.8066 40.288 58.7052 39.8373C58.0184 39.5814 57.398 39.174 56.8902 38.6454C56.3823 38.1168 56.0001 37.4806 55.7719 36.784C54.7639 33.896 55.2892 31.9387 55.4039 28.968C55.434 28.6738 55.4022 28.3766 55.3103 28.0954C55.2184 27.8143 55.0686 27.5556 54.8706 27.336C54.4491 26.7998 53.8895 26.3886 53.2519 26.1467C52.7228 25.827 52.1226 25.6438 51.5052 25.6133C50.1852 25.5813 48.7826 26.624 47.6812 27.2427C46.5799 27.8613 45.9959 28.6 45.7559 29.8693C45.4412 31.6427 45.1559 33.416 44.8519 35.184Z" fill="#263238"/>
<path d="M44.3549 36.3893C44.9309 33.9893 45.5496 31.632 46.1549 29.2533C46.1549 29.2373 46.1816 29.2533 46.1789 29.2533C45.7389 31.224 45.3229 33.2 44.8456 35.168C44.3869 37.0933 43.7789 39.0427 43.4963 41.0053C42.8509 45.4053 47.1576 47.7787 50.9363 48.0427C51.1096 48.0427 51.0696 48.3253 50.8963 48.3093C47.5869 47.9733 43.7923 46.344 43.2536 42.632C42.9789 40.6053 43.8936 38.3413 44.3549 36.3893Z" fill="#263238"/>
<path d="M55.228 28.7093C55.228 28.6994 55.2319 28.6899 55.2389 28.6829C55.2459 28.6759 55.2554 28.672 55.2653 28.672C55.2752 28.672 55.2847 28.6759 55.2917 28.6829C55.2987 28.6899 55.3026 28.6994 55.3026 28.7093C55.1026 31.1493 54.6413 33.976 55.7533 36.2667C56.302 37.3932 57.1786 38.3275 58.268 38.9467C59.132 39.4347 60.0946 39.5893 61.0226 39.8987C64.6546 41.104 64.0493 46.1387 61.092 47.7547C61.0306 47.7893 60.9693 47.6827 61.0306 47.6453C63.1293 46.3707 64.108 43.6907 62.8146 41.4693C61.7746 39.6827 59.3133 39.8933 57.7266 38.8027C54.436 36.5333 54.7053 32.224 55.228 28.7093Z" fill="#263238"/>
<path d="M68.6764 117.488C68.0817 117.68 51.1857 117.461 50.543 117.043C50.2977 116.888 50.1857 114.424 50.135 111.443V111.349C50.135 110.736 50.1164 110.104 50.1164 109.461C50.1164 109.373 50.1164 109.285 50.1164 109.195C50.0924 104.893 50.1617 100.429 50.1617 100.429L61.4657 100.541L61.1244 109.227V109.571L61.0577 111.368V111.552C61.0577 111.552 67.4897 114.528 68.143 115.061C68.7964 115.595 69.2684 117.299 68.6764 117.488Z" fill="#FFC4C0"/>
<path d="M63.5965 112.709C63.5517 112.709 63.528 112.685 63.5254 112.672L63.5965 112.709Z" fill="#B99AC8"/>
<path d="M68.6723 117.488C68.0803 117.68 51.1843 117.461 50.539 117.043C50.323 116.907 50.2083 114.944 50.1523 112.416C53.2483 113.061 65.2483 115.488 65.5763 114.464C65.707 114.059 64.6803 113.363 64.0297 112.968C65.803 113.813 67.763 114.781 68.115 115.064C68.7657 115.595 69.267 117.299 68.6723 117.488Z" fill="#B99AC8"/>
<path d="M46.6914 51.7547C46.6914 51.7547 49.2301 80.3093 49.6434 82.488C49.7394 82.984 49.7981 85.688 49.8381 89.1547C49.9261 96.7227 49.8727 110.376 49.8727 110.376H61.7847C61.7847 110.376 61.4301 86.7227 60.9021 82.376C60.3741 78.0293 57.0061 51.7653 57.0061 51.7653L46.6914 51.7547Z" fill="#37474F"/>
<path d="M61.2457 108.296C59.379 108.259 59.9124 108.243 58.0617 108.224C57.1524 108.224 51.1737 108.165 50.3284 108.304C50.3243 108.306 50.3208 108.308 50.3183 108.312C50.3158 108.315 50.3145 108.32 50.3145 108.324C50.3145 108.328 50.3158 108.333 50.3183 108.336C50.3208 108.34 50.3243 108.342 50.3284 108.344C51.1764 108.483 57.155 108.432 58.0617 108.424C59.9284 108.405 59.395 108.389 61.2457 108.352C61.2517 108.35 61.2569 108.346 61.2606 108.341C61.2643 108.336 61.2663 108.33 61.2663 108.324C61.2663 108.318 61.2643 108.312 61.2606 108.307C61.2569 108.302 61.2517 108.298 61.2457 108.296Z" fill="#263238"/>
<path d="M52.1368 94.776L52.0888 89.6C52.0888 87.928 52.0888 86.2533 52.0008 84.5813C51.8381 81.1947 51.1528 77.8667 50.6674 74.52C50.1821 71.1733 49.7741 67.8133 49.4034 64.448C48.9901 60.6747 48.6248 56.896 48.2354 53.12C48.2354 53.0933 48.1928 53.0933 48.1954 53.12C48.7581 59.864 49.3848 66.6053 50.3288 73.3067C50.5617 74.9742 50.815 76.6382 51.0888 78.2987C51.3554 79.9787 51.6434 81.6613 51.7768 83.3653C51.9101 85.0693 51.9261 86.6987 51.9448 88.3653C51.9608 90.0933 51.9777 91.8204 51.9954 93.5467C52.0328 97.3813 52.0701 103.283 52.1074 107.12C52.1074 107.192 52.2221 107.189 52.2221 107.12C52.1874 103.685 52.1608 98.1973 52.1368 94.776Z" fill="#263238"/>
<path d="M44.1816 51.7547C44.1816 51.7547 49.2296 80.3093 49.643 82.488C49.739 82.984 49.7976 85.688 49.8376 89.1547L55.5123 51.7467L44.1816 51.7547Z" fill="#263238"/>
<path d="M40.5048 118.448C39.8915 118.352 24.9128 110.525 24.5342 109.864C24.3848 109.616 25.3982 107.368 26.6995 104.685L26.7422 104.6C27.0088 104.048 32.3582 95.0293 32.3582 95.0293L41.5688 100.437L36.4595 109.544L36.3715 109.704C36.3715 109.704 40.7635 115.267 41.1048 116.035C41.4462 116.803 41.1208 118.549 40.5048 118.448Z" fill="#FFC4C0"/>
<path d="M40.5049 118.448C39.8889 118.352 24.9156 110.525 24.5343 109.864C24.4063 109.653 25.1263 107.979 26.1503 105.827C28.2836 107.451 38.6623 115.235 39.4196 114.427C39.5796 114.253 39.4596 113.851 39.2489 113.419C40.1583 114.619 40.9663 115.72 41.1156 116.035C41.4436 116.8 41.1209 118.547 40.5049 118.448Z" fill="#B99AC8"/>
<path d="M37.7858 109.211L26.8711 102.467C26.8711 102.467 39.4978 84.3973 39.5591 82.792C39.6471 80.392 40.7911 70.5573 41.7538 62.584C41.7538 62.584 39.9298 58.2667 43.3404 51.7467H57.0178C57.0178 51.7467 56.1004 57.952 54.5298 61.88C53.476 62.2489 52.4584 62.714 51.4898 63.2693C51.4898 63.2693 50.1298 81.048 50.0791 83.2693C49.9778 87.6533 37.7858 109.211 37.7858 109.211Z" fill="#37474F"/>
<path d="M38.4551 106.691C36.8791 105.704 37.3457 105.965 35.7591 104.995C34.9831 104.52 29.8924 101.405 29.0924 101.091C29.0882 101.089 29.0835 101.089 29.0792 101.09C29.0749 101.092 29.0712 101.094 29.0689 101.098C29.0667 101.102 29.0659 101.107 29.0668 101.111C29.0676 101.116 29.0701 101.12 29.0737 101.123C29.7297 101.68 34.8871 104.704 35.6711 105.163C37.2711 106.104 36.8257 105.816 38.4391 106.736C38.4441 106.735 38.4488 106.734 38.4528 106.73C38.4567 106.727 38.4597 106.723 38.4613 106.718C38.463 106.714 38.4633 106.709 38.4622 106.704C38.4611 106.699 38.4586 106.694 38.4551 106.691Z" fill="#263238"/>
<path d="M55.0497 61.616C53.8172 62.0645 52.626 62.6195 51.4897 63.2747C51.4807 63.2796 51.4739 63.2877 51.4707 63.2975C51.4675 63.3073 51.4682 63.3179 51.4727 63.3272C51.4772 63.3365 51.485 63.3437 51.4946 63.3473C51.5043 63.3509 51.5149 63.3507 51.5244 63.3467C52.7217 62.832 53.9457 62.3387 55.1137 61.7467C55.1234 61.7348 55.1295 61.7204 55.1313 61.7052C55.1331 61.69 55.1304 61.6745 55.1237 61.6608C55.1169 61.647 55.1064 61.6355 55.0933 61.6275C55.0802 61.6196 55.065 61.6156 55.0497 61.616Z" fill="#263238"/>
<path d="M53.3751 59.6347C53.4924 58.92 53.5884 58.2053 53.6417 57.4827C53.7662 56.139 53.7519 54.7861 53.5991 53.4453C53.5991 53.4361 53.5954 53.4273 53.5889 53.4208C53.5824 53.4143 53.5736 53.4107 53.5644 53.4107C53.5552 53.4107 53.5464 53.4143 53.5399 53.4208C53.5334 53.4273 53.5297 53.4361 53.5297 53.4453C53.5606 55.3096 53.451 57.1735 53.2017 59.0213C53.0684 59.9067 52.6204 61.2453 53.5511 61.3813C54.4817 61.5173 55.1084 59.2827 55.2231 58.6693C55.5188 56.9246 55.586 55.1488 55.4231 53.3867C55.4231 53.344 55.3457 53.336 55.3484 53.3867C55.3484 54.8107 55.2657 56.0533 55.1457 57.3867C55.0897 58.0027 54.5937 61.4187 53.5217 61.168C53.3431 61.128 53.2551 60.9493 53.2231 60.68C53.2277 60.3261 53.276 59.9741 53.3671 59.632" fill="#263238"/>
<path d="M53.5584 61.264C53.4637 61.4943 53.3835 61.7303 53.3184 61.9707C53.248 62.1562 53.2136 62.3535 53.217 62.552C53.219 62.5597 53.2231 62.5667 53.2288 62.5721C53.2345 62.5776 53.2417 62.5814 53.2494 62.5831C53.2572 62.5848 53.2652 62.5842 53.2727 62.5816C53.2802 62.5789 53.2868 62.5742 53.2917 62.568C53.4027 62.3933 53.4864 62.2027 53.5397 62.0027C53.6224 61.784 53.7077 61.5653 53.7824 61.344C53.7884 61.3156 53.7839 61.2859 53.7698 61.2606C53.7556 61.2352 53.7327 61.2158 53.7053 61.2061C53.678 61.1963 53.648 61.1968 53.621 61.2074C53.5939 61.2181 53.5717 61.2382 53.5584 61.264Z" fill="#263238"/>
<path d="M44.9477 52.608C44.532 53.3224 44.1881 54.0764 43.9211 54.8587C43.6469 55.6388 43.4434 56.4421 43.3131 57.2587C43.2357 57.664 43.2091 58.0747 43.1637 58.4827C43.1184 58.8907 43.1131 59.3067 43.1371 59.7173C43.1546 60.5396 43.2501 61.3584 43.4224 62.1627V62.1893C43.1077 65.6382 42.7806 69.0853 42.4411 72.5307C42.1015 75.976 41.762 79.4222 41.4224 82.8693L41.3877 83.192L41.3717 83.3547C41.3714 83.4141 41.3596 83.473 41.3371 83.528C41.2451 83.734 41.1409 83.9344 41.0251 84.128C40.8064 84.504 40.5797 84.8747 40.3531 85.2427C39.8997 85.9804 39.4402 86.7147 38.9744 87.4453C38.0464 88.9067 37.1077 90.3573 36.1557 91.808C34.2704 94.712 32.3504 97.5947 30.4277 100.475L36.0091 91.712L38.7797 87.3227C39.242 86.5902 39.6988 85.856 40.1504 85.12C40.3744 84.7493 40.5984 84.3787 40.8144 84.0053C40.9157 83.824 41.0331 83.6213 41.1024 83.472C41.1199 83.4269 41.129 83.379 41.1291 83.3307L41.1451 83.168L41.1771 82.8453C41.5042 79.4 41.8437 75.9556 42.1957 72.512C42.5477 69.0684 42.9033 65.6258 43.2624 62.184V62.208C43.0939 61.3927 43.0046 60.5631 42.9957 59.7307C42.9771 59.3147 43.0171 58.8987 43.0384 58.4853C43.0597 58.072 43.1264 57.6587 43.2144 57.2507C43.3624 56.4327 43.5828 55.6296 43.8731 54.8507C44.1574 54.0699 44.5174 53.3188 44.9477 52.608Z" fill="#263238"/>
<path d="M51.555 39.3867C53.5897 40.4827 63.0217 43.3867 66.3603 43.2533C69.483 43.1387 76.3337 39.4533 76.6563 38.4533C76.9657 37.5067 75.2243 31.6747 74.2003 31.9707C73.1763 32.2667 67.0777 36.6853 65.7363 36.864C64.9363 36.968 57.403 36.7227 53.5417 36.864C50.035 36.9867 48.739 37.8667 51.555 39.3867Z" fill="#FFC4C0"/>
<path d="M57.155 42.0587L60.1977 36.4587C60.1977 36.4587 53.1923 36.3493 51.131 36.8987C48.803 37.5173 49.627 38.5733 51.5977 39.7387C53.5683 40.904 57.155 42.0587 57.155 42.0587Z" fill="#B99AC8"/>
<path d="M52.972 36.8587C52.972 36.986 52.9214 37.1081 52.8314 37.1981C52.7414 37.2881 52.6193 37.3387 52.492 37.3387C52.3647 37.3387 52.2426 37.2881 52.1526 37.1981C52.0625 37.1081 52.012 36.986 52.012 36.8587C52.0113 36.8179 52.0176 36.7773 52.0306 36.7387C52.2973 36.7013 52.6013 36.6693 52.9186 36.6427C52.9541 36.7091 52.9724 36.7834 52.972 36.8587ZM55.8413 36.4933C55.7819 36.5465 55.7366 36.6136 55.7097 36.6887C55.6827 36.7637 55.6748 36.8443 55.6868 36.9231C55.6988 37.002 55.7302 37.0766 55.7783 37.1402C55.8263 37.2039 55.8894 37.2546 55.962 37.2877C56.0345 37.3208 56.1142 37.3353 56.1937 37.33C56.2733 37.3246 56.3502 37.2995 56.4177 37.2569C56.4851 37.2143 56.5408 37.1556 56.5799 37.0861C56.6189 37.0166 56.64 36.9384 56.6413 36.8587C56.6417 36.7845 56.6246 36.7112 56.5912 36.6449C56.5578 36.5786 56.5092 36.5212 56.4493 36.4773L55.8413 36.4933ZM60.0706 36.4613H59.5373C59.4702 36.5043 59.415 36.5635 59.3768 36.6334C59.3386 36.7033 59.3186 36.7817 59.3186 36.8613C59.3183 36.975 59.3583 37.0851 59.4316 37.172C59.5048 37.259 59.6066 37.3171 59.7186 37.336L60.1506 36.536C60.1285 36.5067 60.1014 36.4814 60.0706 36.4613ZM50.8066 39.2453C50.8813 39.296 50.9506 39.3493 51.0306 39.3947C50.9729 39.3232 50.8948 39.2711 50.8066 39.2453ZM54.3186 39.2213C54.2238 39.2219 54.1313 39.2505 54.0527 39.3035C53.9741 39.3566 53.913 39.4317 53.8771 39.5195C53.8412 39.6072 53.832 39.7037 53.8509 39.7966C53.8697 39.8895 53.9156 39.9748 53.9828 40.0417C54.0501 40.1085 54.1356 40.154 54.2286 40.1723C54.3217 40.1906 54.4181 40.1809 54.5056 40.1445C54.5932 40.1081 54.668 40.0466 54.7206 39.9677C54.7732 39.8889 54.8013 39.7962 54.8013 39.7013C54.8006 39.5738 54.7494 39.4517 54.659 39.3618C54.5686 39.2718 54.4462 39.2213 54.3186 39.2213ZM57.9746 39.2213C57.8797 39.2213 57.7869 39.2495 57.708 39.3022C57.629 39.355 57.5675 39.4299 57.5312 39.5176C57.4948 39.6054 57.4853 39.7019 57.5039 39.795C57.5224 39.8881 57.5681 39.9736 57.6352 40.0407C57.7024 40.1079 57.7879 40.1536 57.881 40.1721C57.9741 40.1906 58.0706 40.1811 58.1583 40.1448C58.246 40.1085 58.321 40.0469 58.3737 39.968C58.4265 39.8891 58.4546 39.7963 58.4546 39.7013C58.4546 39.574 58.4041 39.4519 58.314 39.3619C58.224 39.2719 58.1019 39.2213 57.9746 39.2213Z" fill="white"/>
<path d="M58.7713 36.7093C58.6353 36.888 57.6593 38.616 57.4566 38.9973C57.2539 39.3787 56.4033 40.9253 56.2246 41.336C56.2246 41.352 56.2406 41.368 56.2513 41.352C56.5019 40.984 57.3633 39.424 57.5846 39.0427C57.8059 38.6613 58.7286 36.9253 58.8033 36.7227C58.8033 36.704 58.7793 36.6987 58.7713 36.7093Z" fill="#263238"/>
<path opacity="0.1" d="M58.0988 40.3147L57.1548 42.0587C57.1548 42.0587 53.5601 40.9093 51.5894 39.744C49.9468 38.7707 49.1014 37.8773 50.2134 37.248L58.0988 40.3147Z" fill="black"/>
<path d="M56.758 49.248L57.1713 52.472L43.1953 52.032C43.1953 52.032 43.902 41.7307 47.9286 37.8453C49.9446 35.904 52.1553 36.1893 53.4886 37.7093C53.8246 38.096 57.7873 43.272 58.1073 45.4587C58.3873 47.3867 56.758 49.248 56.758 49.248Z" fill="#B99AC8"/>
<path d="M49.3179 36.8587C49.3179 36.9862 49.2674 37.1086 49.1775 37.199C49.0875 37.2895 48.9655 37.3406 48.8379 37.3413C48.7574 37.3416 48.6782 37.3205 48.6086 37.28C48.8313 37.1176 49.0688 36.9765 49.3179 36.8587ZM52.0432 36.6907C52.0219 36.7441 52.011 36.8011 52.0112 36.8587C52.0112 36.9862 52.0617 37.1086 52.1517 37.199C52.2416 37.2895 52.3637 37.3406 52.4912 37.3413C52.5664 37.342 52.6407 37.3244 52.7076 37.29C52.7745 37.2557 52.832 37.2055 52.8752 37.144C52.6206 36.9545 52.3405 36.8019 52.0432 36.6907ZM45.3766 42.008C45.2566 42.304 45.1446 42.6053 45.0406 42.9067C45.0891 42.925 45.1407 42.934 45.1926 42.9333C45.2558 42.9333 45.3185 42.9208 45.3769 42.8965C45.4353 42.8723 45.4883 42.8367 45.5329 42.7918C45.5775 42.747 45.6128 42.6937 45.6368 42.6352C45.6608 42.5766 45.6729 42.5139 45.6726 42.4507C45.6723 42.3545 45.6429 42.2607 45.5881 42.1816C45.5333 42.1026 45.4558 42.042 45.3659 42.008H45.3766ZM48.8432 41.9707C48.7476 41.9701 48.6539 41.9981 48.5741 42.0509C48.4943 42.1037 48.432 42.1791 48.3952 42.2674C48.3583 42.3557 48.3485 42.453 48.3671 42.5468C48.3856 42.6407 48.4316 42.727 48.4993 42.7946C48.5669 42.8623 48.6532 42.9083 48.7471 42.9268C48.8409 42.9454 48.9382 42.9356 49.0265 42.8987C49.1148 42.8619 49.1902 42.7996 49.243 42.7198C49.2958 42.64 49.3238 42.5464 49.3232 42.4507C49.3229 42.3873 49.3101 42.3246 49.2855 42.2662C49.2609 42.2077 49.2251 42.1547 49.18 42.1101C49.1349 42.0656 49.0815 42.0303 49.0228 42.0064C48.9641 41.9825 48.9013 41.9703 48.8379 41.9707H48.8432ZM52.4966 41.9707C52.4009 41.9701 52.3072 41.9981 52.2274 42.0509C52.1476 42.1037 52.0854 42.1791 52.0485 42.2674C52.0116 42.3557 52.0019 42.453 52.0204 42.5468C52.0389 42.6407 52.085 42.727 52.1526 42.7946C52.2203 42.8623 52.3065 42.9083 52.4004 42.9268C52.4943 42.9454 52.5915 42.9356 52.6799 42.8987C52.7682 42.8619 52.8435 42.7996 52.8963 42.7198C52.9492 42.64 52.9771 42.5464 52.9766 42.4507C52.9762 42.3873 52.9634 42.3246 52.9388 42.2662C52.9142 42.2077 52.8784 42.1547 52.8333 42.1101C52.7883 42.0656 52.7348 42.0303 52.6762 42.0064C52.6175 41.9825 52.5546 41.9703 52.4912 41.9707H52.4966ZM56.1526 41.9707C56.0569 41.9701 55.9632 41.9981 55.8834 42.0509C55.8036 42.1037 55.7414 42.1791 55.7045 42.2674C55.6676 42.3557 55.6579 42.453 55.6764 42.5468C55.6949 42.6407 55.741 42.727 55.8086 42.7946C55.8763 42.8623 55.9625 42.9083 56.0564 42.9268C56.1503 42.9454 56.2475 42.9356 56.3359 42.8987C56.4242 42.8619 56.4995 42.7996 56.5523 42.7198C56.6052 42.64 56.6331 42.5464 56.6326 42.4507C56.6326 42.3872 56.62 42.3243 56.5955 42.2657C56.5711 42.2072 56.5352 42.154 56.4901 42.1094C56.445 42.0647 56.3914 42.0295 56.3326 42.0057C56.2737 41.9819 56.2107 41.97 56.1472 41.9707H56.1526ZM47.0219 39.2213C46.9266 39.2205 46.8334 39.2494 46.7552 39.304C46.6859 39.4053 46.6219 39.504 46.5579 39.6107C46.5553 39.6373 46.5553 39.6641 46.5579 39.6907C46.5579 39.7856 46.5861 39.8784 46.6388 39.9573C46.6915 40.0363 46.7665 40.0978 46.8542 40.1341C46.9419 40.1705 47.0384 40.18 47.1316 40.1614C47.2247 40.1429 47.3102 40.0972 47.3773 40.0301C47.4444 39.9629 47.4902 39.8774 47.5087 39.7843C47.5272 39.6912 47.5177 39.5947 47.4814 39.507C47.445 39.4193 47.3835 39.3443 47.3046 39.2916C47.2256 39.2388 47.1328 39.2107 47.0379 39.2107L47.0219 39.2213ZM50.6779 39.2213C50.583 39.2213 50.4902 39.2495 50.4112 39.3022C50.3323 39.355 50.2708 39.4299 50.2344 39.5176C50.1981 39.6054 50.1886 39.7019 50.2071 39.795C50.2257 39.8881 50.2714 39.9736 50.3385 40.0407C50.4056 40.1079 50.4912 40.1536 50.5843 40.1721C50.6774 40.1906 50.7739 40.1811 50.8616 40.1448C50.9493 40.1085 51.0243 40.0469 51.077 39.968C51.1298 39.8891 51.1579 39.7963 51.1579 39.7013C51.1579 39.6372 51.1451 39.5736 51.1201 39.5145C51.0952 39.4554 51.0586 39.4019 51.0126 39.3571C50.9666 39.3124 50.9121 39.2773 50.8524 39.254C50.7926 39.2306 50.7287 39.2196 50.6646 39.2213H50.6779ZM54.3312 39.2213C54.2364 39.2219 54.1439 39.2505 54.0653 39.3035C53.9867 39.3566 53.9256 39.4317 53.8897 39.5195C53.8538 39.6072 53.8446 39.7037 53.8635 39.7966C53.8823 39.8895 53.9282 39.9748 53.9954 40.0417C54.0627 40.1085 54.1482 40.154 54.2412 40.1723C54.3343 40.1906 54.4307 40.1809 54.5182 40.1445C54.6058 40.1081 54.6806 40.0466 54.7332 39.9677C54.7858 39.8889 54.8139 39.7962 54.8139 39.7013C54.8136 39.637 54.8004 39.5735 54.7752 39.5143C54.7499 39.4552 54.7131 39.4017 54.6669 39.357C54.6207 39.3123 54.566 39.2772 54.5061 39.2539C54.4462 39.2306 54.3822 39.2196 54.3179 39.2213H54.3312ZM45.1819 47.5627C45.0863 47.5621 44.9928 47.59 44.913 47.6427C44.8333 47.6954 44.771 47.7706 44.7341 47.8588C44.6971 47.9469 44.6872 48.044 44.7055 48.1379C44.7238 48.2317 44.7696 48.3179 44.837 48.3857C44.9044 48.4534 44.9904 48.4997 45.0841 48.5185C45.1778 48.5374 45.275 48.528 45.3633 48.4915C45.4517 48.4551 45.5272 48.3932 45.5804 48.3138C45.6335 48.2343 45.6619 48.1409 45.6619 48.0453C45.6619 47.9178 45.6114 47.7954 45.5215 47.705C45.4315 47.6145 45.3095 47.5634 45.1819 47.5627ZM48.8379 47.5627C48.7423 47.5621 48.6488 47.59 48.569 47.6427C48.4893 47.6954 48.427 47.7706 48.3901 47.8588C48.3531 47.9469 48.3432 48.044 48.3615 48.1379C48.3798 48.2317 48.4256 48.3179 48.493 48.3857C48.5604 48.4534 48.6464 48.4997 48.7401 48.5185C48.8338 48.5374 48.931 48.528 49.0193 48.4915C49.1077 48.4551 49.1832 48.3932 49.2364 48.3138C49.2895 48.2343 49.3179 48.1409 49.3179 48.0453C49.3179 47.9178 49.2674 47.7954 49.1775 47.705C49.0875 47.6145 48.9655 47.5634 48.8379 47.5627ZM52.4912 47.5627C52.3957 47.5621 52.3021 47.59 52.2224 47.6427C52.1426 47.6954 52.0804 47.7706 52.0434 47.8588C52.0065 47.9469 51.9965 48.044 52.0149 48.1379C52.0332 48.2317 52.0789 48.3179 52.1463 48.3857C52.2137 48.4534 52.2997 48.4997 52.3934 48.5185C52.4871 48.5374 52.5843 48.528 52.6727 48.4915C52.761 48.4551 52.8366 48.3932 52.8897 48.3138C52.9429 48.2343 52.9712 48.1409 52.9712 48.0453C52.9712 47.9178 52.9208 47.7954 52.8308 47.705C52.7409 47.6145 52.6188 47.5634 52.4912 47.5627ZM56.1472 47.5627C56.0517 47.5621 55.9581 47.59 55.8784 47.6427C55.7986 47.6954 55.7364 47.7706 55.6994 47.8588C55.6625 47.9469 55.6525 48.044 55.6709 48.1379C55.6892 48.2317 55.7349 48.3179 55.8023 48.3857C55.8697 48.4534 55.9557 48.4997 56.0494 48.5185C56.1431 48.5374 56.2403 48.528 56.3287 48.4915C56.417 48.4551 56.4926 48.3932 56.5457 48.3138C56.5989 48.2343 56.6272 48.1409 56.6272 48.0453C56.6276 47.9821 56.6154 47.9194 56.5915 47.8608C56.5675 47.8023 56.5322 47.7491 56.4876 47.7042C56.443 47.6593 56.39 47.6237 56.3315 47.5995C56.2731 47.5752 56.2105 47.5627 56.1472 47.5627ZM47.0219 44.8133C46.9271 44.8139 46.8345 44.8425 46.756 44.8955C46.6774 44.9486 46.6163 45.0237 46.5804 45.1115C46.5444 45.1992 46.5353 45.2957 46.5541 45.3886C46.5729 45.4815 46.6189 45.5668 46.6861 45.6337C46.7533 45.7005 46.8389 45.746 46.9319 45.7643C47.0249 45.7826 47.1213 45.7729 47.2089 45.7365C47.2964 45.7001 47.3712 45.6386 47.4239 45.5597C47.4765 45.4809 47.5046 45.3882 47.5046 45.2933C47.5039 45.1658 47.4527 45.0437 47.3623 44.9538C47.2718 44.8638 47.1495 44.8133 47.0219 44.8133ZM50.6779 44.8133C50.583 44.8133 50.4902 44.8415 50.4112 44.8942C50.3323 44.947 50.2708 45.0219 50.2344 45.1096C50.1981 45.1974 50.1886 45.2939 50.2071 45.387C50.2257 45.4801 50.2714 45.5656 50.3385 45.6327C50.4056 45.6999 50.4912 45.7456 50.5843 45.7641C50.6774 45.7826 50.7739 45.7731 50.8616 45.7368C50.9493 45.7005 51.0243 45.6389 51.077 45.56C51.1298 45.4811 51.1579 45.3883 51.1579 45.2933C51.1579 45.2292 51.1451 45.1656 51.1201 45.1065C51.0952 45.0474 51.0586 44.9939 51.0126 44.9491C50.9666 44.9044 50.9121 44.8693 50.8524 44.846C50.7926 44.8226 50.7287 44.8116 50.6646 44.8133H50.6779ZM54.3312 44.8133C54.2364 44.8139 54.1439 44.8425 54.0653 44.8955C53.9867 44.9486 53.9256 45.0237 53.8897 45.1115C53.8538 45.1992 53.8446 45.2957 53.8635 45.3886C53.8823 45.4815 53.9282 45.5668 53.9954 45.6337C54.0627 45.7005 54.1482 45.746 54.2412 45.7643C54.3343 45.7826 54.4307 45.7729 54.5182 45.7365C54.6058 45.7001 54.6806 45.6386 54.7332 45.5597C54.7858 45.4809 54.8139 45.3882 54.8139 45.2933C54.8136 45.229 54.8004 45.1655 54.7752 45.1063C54.7499 45.0472 54.7131 44.9937 54.6669 44.949C54.6207 44.9043 54.566 44.8692 54.5061 44.8459C54.4462 44.8226 54.3822 44.8116 54.3179 44.8133H54.3312ZM58.1206 45.4587C58.0843 45.24 58.0289 45.025 57.9552 44.816C57.8341 44.8282 57.7221 44.8859 57.6419 44.9776C57.5617 45.0692 57.5194 45.1879 57.5235 45.3096C57.5275 45.4313 57.5777 45.5469 57.6638 45.633C57.7499 45.7191 57.8655 45.7693 57.9872 45.7733C58.0419 45.7731 58.0961 45.7632 58.1472 45.744C58.1286 45.6507 58.1206 45.5547 58.1072 45.4587H58.1206ZM43.3632 50.4C43.3152 50.7733 43.2806 51.0933 43.2539 51.3493C43.2876 51.3534 43.3216 51.3534 43.3552 51.3493C43.4767 51.3403 43.5903 51.2857 43.6731 51.1964C43.756 51.1071 43.8021 50.9898 43.8021 50.868C43.8021 50.7462 43.756 50.6289 43.6731 50.5396C43.5903 50.4504 43.4767 50.3957 43.3552 50.3867L43.3632 50.4ZM47.0219 50.4C46.9263 50.4 46.8329 50.4284 46.7535 50.4815C46.674 50.5347 46.6122 50.6102 46.5757 50.6986C46.5393 50.7869 46.5299 50.8841 46.5487 50.9778C46.5676 51.0715 46.6138 51.1575 46.6816 51.2249C46.7493 51.2923 46.8356 51.3381 46.9294 51.3564C47.0232 51.3747 47.1203 51.3648 47.2085 51.3278C47.2966 51.2909 47.3718 51.2286 47.4245 51.1489C47.4772 51.0692 47.5051 50.9756 47.5046 50.88C47.5039 50.7525 47.4527 50.6304 47.3623 50.5404C47.2718 50.4505 47.1495 50.4 47.0219 50.4ZM50.6779 50.4C50.5822 50.3995 50.4885 50.4274 50.4088 50.4802C50.329 50.5331 50.2667 50.6084 50.2298 50.6967C50.193 50.785 50.1832 50.8823 50.2017 50.9762C50.2203 51.07 50.2663 51.1563 50.334 51.224C50.4016 51.2916 50.4879 51.3376 50.5817 51.3562C50.6756 51.3747 50.7729 51.3649 50.8612 51.3281C50.9495 51.2912 51.0248 51.2289 51.0777 51.1492C51.1305 51.0694 51.1584 50.9757 51.1579 50.88C51.1579 50.8158 51.1451 50.7523 51.1201 50.6932C51.0952 50.6341 51.0586 50.5805 51.0126 50.5358C50.9666 50.491 50.9121 50.456 50.8524 50.4326C50.7926 50.4093 50.7287 50.3982 50.6646 50.4H50.6779ZM54.3312 50.4C54.2357 50.4 54.1422 50.4284 54.0628 50.4815C53.9834 50.5347 53.9215 50.6102 53.8851 50.6986C53.8486 50.7869 53.8392 50.8841 53.8581 50.9778C53.8769 51.0715 53.9231 51.1575 53.9909 51.2249C54.0587 51.2923 54.1449 51.3381 54.2387 51.3564C54.3325 51.3747 54.4297 51.3648 54.5178 51.3278C54.606 51.2909 54.6811 51.2286 54.7339 51.1489C54.7866 51.0692 54.8144 50.9756 54.8139 50.88C54.8136 50.8157 54.8004 50.7521 54.7752 50.693C54.7499 50.6339 54.7131 50.5804 54.6669 50.5356C54.6207 50.4909 54.566 50.4559 54.5061 50.4326C54.4462 50.4093 54.3822 50.3982 54.3179 50.4H54.3312Z" fill="white"/>
<path d="M54.4405 48.1547C53.6941 48.2056 52.9525 48.3117 52.2218 48.472C51.8592 48.5573 51.5045 48.6587 51.1552 48.768C50.9792 48.8213 50.8005 48.8693 50.6218 48.9173C50.4355 48.9732 50.2429 49.0055 50.0485 49.0133C50.045 49.0133 50.0416 49.0147 50.0391 49.0172C50.0366 49.0197 50.0352 49.0231 50.0352 49.0267C50.0352 49.0302 50.0366 49.0336 50.0391 49.0361C50.0416 49.0386 50.045 49.04 50.0485 49.04C50.2314 49.0533 50.415 49.0533 50.5978 49.04C50.7772 49.0216 50.9553 48.9922 51.1312 48.952C51.4992 48.8693 51.8645 48.768 52.2325 48.6853C52.9712 48.512 53.7125 48.336 54.4645 48.216C54.4885 48.2107 54.4885 48.152 54.4405 48.1547Z" fill="#263238"/>
<path d="M56.2708 48.8533C55.6577 48.776 55.0407 48.7333 54.4228 48.7253C54.1135 48.7253 53.8068 48.7387 53.5001 48.7627C53.3544 48.7733 53.2077 48.7867 53.0601 48.8027C52.8975 48.8187 52.7375 48.8587 52.5775 48.8747C52.5615 48.8747 52.5588 48.9013 52.5775 48.9013C52.7295 48.9013 52.8841 48.9013 53.0388 48.9013H54.4228C55.0388 48.9013 55.6521 48.9013 56.2708 48.9013C56.3028 48.904 56.3001 48.856 56.2708 48.8533Z" fill="#263238"/>
<path d="M102.376 38.568C87.9763 35.2009 73.7265 31.8969 59.627 28.656C54.3256 46.0373 55.755 66.256 48.3203 82.736C62.7203 86.1031 76.9692 89.4071 91.067 92.648C96.371 75.2667 94.9416 55.056 102.376 38.568Z" fill="#EBEBEB"/>
<path d="M55.0059 76.088C62.8281 77.8835 70.6147 79.6613 78.3659 81.4213C78.4699 80.9627 78.5739 80.5013 78.6725 80.04C70.9374 78.2818 63.1721 76.5102 55.3765 74.7253C55.2565 75.2 55.1339 75.64 55.0059 76.088Z" fill="#DBDBDB"/>
<path d="M55.9004 72.6507C63.6639 74.4284 71.3973 76.1876 79.1004 77.928C79.1875 77.4622 79.2764 76.9947 79.3671 76.5253C71.6728 74.7867 63.9555 73.0364 56.2151 71.2747C56.1137 71.7333 56.0097 72.1947 55.9004 72.6507Z" fill="#DBDBDB"/>
<path d="M56.6602 69.1573C64.3757 70.9102 72.0682 72.6515 79.7375 74.3813C79.8157 73.9102 79.8922 73.4382 79.9668 72.9653C72.3046 71.2373 64.6255 69.5022 56.9295 67.76C56.8406 68.2276 56.7508 68.6933 56.6602 69.1573Z" fill="#DBDBDB"/>
<path d="M57.3066 65.6187C68.5582 68.1609 79.7742 70.688 90.9546 73.2C91.0222 72.7218 91.0871 72.2453 91.1493 71.7707C79.9689 69.2587 68.7689 66.7369 57.5493 64.2053C57.464 64.6773 57.3866 65.1467 57.3066 65.6187Z" fill="#DBDBDB"/>
<path d="M57.875 62.0427C69.075 64.5689 80.2626 67.0844 91.4377 69.5893L91.6217 68.1547C80.4519 65.648 69.2714 63.136 58.0803 60.6187C58.0146 61.0951 57.9461 61.5698 57.875 62.0427Z" fill="#DBDBDB"/>
<path d="M58.3828 58.4427C69.5668 60.9582 80.741 63.4676 91.9055 65.9707C91.9677 65.4924 92.0299 65.0151 92.0921 64.5387L58.5748 57.0133L58.3828 58.4427Z" fill="#DBDBDB"/>
<path d="M58.8574 54.8293L92.3828 62.36C92.4468 61.8827 92.5134 61.408 92.5801 60.9307L59.0441 53.3973C58.9828 53.8667 58.9188 54.352 58.8574 54.8293Z" fill="#DBDBDB"/>
<path d="M59.3262 51.2133C70.5013 53.7236 81.6888 56.24 92.8888 58.7627C92.9617 58.288 93.0346 57.8151 93.1075 57.344C81.8773 54.8107 70.6773 52.2898 59.5075 49.7813C59.4488 50.2596 59.3884 50.7369 59.3262 51.2133Z" fill="#DBDBDB"/>
<path d="M59.8223 47.6053C71.0223 50.1191 82.2427 52.648 93.4836 55.192C93.5654 54.7227 93.6489 54.2542 93.7343 53.7867C82.456 51.2356 71.2196 48.6996 60.0249 46.1787C59.9485 46.6533 59.8809 47.1289 59.8223 47.6053Z" fill="#DBDBDB"/>
<path d="M60.3398 44.0133C71.563 46.5431 82.8287 49.0916 94.1372 51.6587C94.2296 51.1947 94.3274 50.7316 94.4305 50.2693C83.0918 47.6898 71.8047 45.1324 60.5692 42.5973C60.4892 43.0693 60.4145 43.5413 60.3398 44.0133Z" fill="#DBDBDB"/>
<path d="M60.9395 40.4507C72.2088 43.0018 83.5332 45.5751 94.9128 48.1707C95.0248 47.7156 95.1395 47.2604 95.2568 46.8053C83.8399 44.192 72.4879 41.6071 61.2008 39.0507C61.1101 39.5173 61.0248 39.984 60.9395 40.4507Z" fill="#DBDBDB"/>
<path d="M61.6328 36.9307C72.9626 39.5102 84.359 42.1138 95.8221 44.7413C95.9555 44.2933 96.0888 43.848 96.2301 43.408C84.7173 40.7573 73.2844 38.1387 61.9315 35.552C61.8328 36 61.7315 36.4667 61.6328 36.9307Z" fill="#DBDBDB"/>
<path d="M50.2787 37.632C50.3507 37.8987 51.7214 39.6507 52.9774 39.5547C53.3854 39.52 53.308 37.28 53.308 37.28L53.34 37.1147L53.788 34.7787L51.0227 33.1147L50.6227 32.896C50.6227 32.896 50.5427 33.5413 50.4494 34.3493C50.4494 34.3867 50.4494 34.424 50.436 34.464C50.4227 34.504 50.436 34.552 50.42 34.5947C50.404 34.7147 50.388 34.8373 50.3774 34.96C50.3667 35.0827 50.356 35.144 50.3507 35.2427C50.3454 35.3413 50.332 35.4373 50.324 35.536C50.2608 36.2328 50.2457 36.9331 50.2787 37.632Z" fill="#FFC4C0"/>
<path d="M53.7911 34.7787L53.3591 37.0213C52.0998 36.62 51.0472 35.7425 50.4258 34.576L50.4524 34.3493C50.5458 33.5493 50.6258 32.896 50.6258 32.896L51.0258 33.1147L53.7911 34.7787Z" fill="#263238"/>
<path d="M56.6221 30.992C57.2034 35.1227 54.7927 35.936 53.9021 36.0587C53.1021 36.1707 50.3261 36.4507 49.3234 32.4C48.3207 28.3493 50.0567 26.776 51.8941 26.4213C53.7314 26.0667 56.0541 26.8613 56.6221 30.992Z" fill="#FFC4C0"/>
<path d="M55.9312 30.4347C55.8355 30.4285 55.7402 30.417 55.6458 30.4C55.5431 30.4006 55.443 30.3678 55.3605 30.3067C55.3384 30.2828 55.3251 30.2521 55.3227 30.2197C55.3202 30.1872 55.3289 30.1549 55.3472 30.128C55.3898 30.0786 55.4451 30.0416 55.507 30.0209C55.569 30.0003 55.6354 29.9967 55.6992 30.0107C55.8337 30.0181 55.9604 30.0763 56.0538 30.1733C56.0741 30.1963 56.0873 30.2248 56.0916 30.2551C56.0959 30.2855 56.0913 30.3165 56.0783 30.3443C56.0652 30.372 56.0444 30.3954 56.0182 30.4114C55.9921 30.4275 55.9618 30.4356 55.9312 30.4347Z" fill="#263238"/>
<path d="M53.1127 30.5947C53.2029 30.5717 53.2919 30.5441 53.3793 30.512C53.4813 30.4972 53.5753 30.4484 53.646 30.3733C53.6639 30.3461 53.6721 30.3137 53.6692 30.2812C53.6663 30.2488 53.6525 30.2182 53.63 30.1947C53.5793 30.1532 53.5184 30.1261 53.4537 30.1163C53.3889 30.1064 53.3227 30.1142 53.262 30.1387C53.1307 30.1682 53.0154 30.2463 52.9393 30.3573C52.922 30.3841 52.9132 30.4154 52.9141 30.4473C52.915 30.4791 52.9256 30.5099 52.9443 30.5356C52.9631 30.5614 52.9893 30.5808 53.0193 30.5913C53.0494 30.6019 53.0819 30.603 53.1127 30.5947Z" fill="#263238"/>
<path d="M53.7774 31.3707C53.7774 31.3707 53.7561 31.3707 53.7588 31.3973C53.7988 31.6773 53.7961 32.008 53.5508 32.128C53.5508 32.128 53.5508 32.1467 53.5508 32.144C53.8601 32.0667 53.8601 31.6293 53.7774 31.3707Z" fill="#263238"/>
<path d="M53.492 31.1013C53.036 31.1173 53.0973 32.032 53.5213 32.0187C53.9453 32.0053 53.876 31.0907 53.492 31.1013Z" fill="#263238"/>
<path d="M53.316 31.1627C53.2413 31.2187 53.1693 31.3173 53.0733 31.3333C52.9773 31.3493 52.8707 31.2613 52.7933 31.1733H52.7773C52.7773 31.3467 52.8653 31.5227 53.044 31.536C53.2227 31.5493 53.3293 31.384 53.3587 31.2053C53.38 31.2 53.348 31.1387 53.316 31.1627Z" fill="#263238"/>
<path d="M55.36 31.224C55.36 31.224 55.384 31.224 55.384 31.248C55.384 31.5307 55.4614 31.8533 55.7254 31.928V31.944C55.408 31.9253 55.328 31.496 55.36 31.224Z" fill="#263238"/>
<path d="M55.5896 30.9093C56.043 30.8373 56.1523 31.7467 55.7336 31.8133C55.315 31.88 55.211 30.968 55.5896 30.9093Z" fill="#263238"/>
<path d="M55.7878 30.9467C55.8651 30.984 55.9478 31.064 56.0331 31.0587C56.1184 31.0533 56.1958 30.9467 56.2491 30.8453C56.2491 30.8453 56.2624 30.8453 56.2651 30.8453C56.2891 31.0187 56.2651 31.2053 56.0918 31.2613C55.9184 31.3173 55.8251 31.1733 55.7504 30.9947C55.7371 30.9813 55.7558 30.9333 55.7878 30.9467Z" fill="#263238"/>
<path d="M54.1448 33.6827C54.2221 33.7387 54.3021 33.8187 54.4115 33.8133C54.5163 33.7963 54.6162 33.7572 54.7048 33.6987C54.7048 33.6987 54.7235 33.6987 54.7181 33.6987C54.6856 33.7598 54.6373 33.8112 54.5782 33.8473C54.5191 33.8834 54.4514 33.903 54.3821 33.904C54.3209 33.8985 54.2627 33.8747 54.2151 33.8357C54.1676 33.7967 54.1329 33.7443 54.1155 33.6853C54.1128 33.6827 54.1341 33.6747 54.1448 33.6827Z" fill="#263238"/>
<path d="M53.955 32.9387C54.0415 33.0365 54.1473 33.1153 54.2656 33.1704C54.384 33.2255 54.5125 33.2555 54.643 33.2587C54.757 33.2611 54.8709 33.2485 54.9817 33.2213L55.0457 33.2027L55.1043 33.184C55.1189 33.1797 55.1314 33.1704 55.1397 33.1577C55.148 33.145 55.1516 33.1297 55.1497 33.1147C55.1512 33.1058 55.1512 33.0968 55.1497 33.088V33.0667C55.1203 32.8533 55.051 32.5333 55.051 32.5333C55.1337 32.56 55.555 32.6747 55.531 32.5653C55.3584 31.6172 55.0904 30.6889 54.731 29.7947C54.7283 29.7891 54.7238 29.7846 54.7182 29.782C54.7125 29.7794 54.7062 29.7788 54.7002 29.7804C54.6941 29.782 54.6889 29.7856 54.6853 29.7906C54.6817 29.7957 54.6799 29.8018 54.6803 29.808C54.8377 30.688 55.1443 31.5307 55.315 32.4107C55.1651 32.3675 55.0097 32.3459 54.8537 32.3467C54.8243 32.3467 55.0003 32.9573 55.0057 33.056C54.835 33.1012 54.657 33.1112 54.4823 33.0856C54.3077 33.0599 54.1401 32.999 53.9897 32.9067C53.955 32.8987 53.931 32.92 53.955 32.9387Z" fill="#263238"/>
<path d="M49.3745 32.1707C50.3639 32.128 50.2759 30.5707 50.2759 30.5707C50.2759 30.5707 51.3905 30.4107 51.3799 28.6C51.6172 28.9533 51.9335 29.2464 52.3038 29.456C52.6741 29.6657 53.0882 29.7862 53.5132 29.808C53.8385 29.84 52.7132 29.0613 52.7132 29.0613C52.7132 29.0613 54.0625 30.1653 56.4465 29.5947C56.6145 29.5547 56.1239 27.0453 54.2012 26.28C52.2785 25.5147 50.6119 26.088 49.5079 27.3467C49.1852 27.5375 48.9146 27.8051 48.7202 28.1256C48.5257 28.4461 48.4134 28.8097 48.3932 29.184C48.2892 30.4907 48.9905 32.1867 49.3745 32.1707Z" fill="#263238"/>
<path d="M50.0326 32.6293C50.0326 32.6293 49.0566 31.376 48.4833 31.7307C47.9099 32.0853 48.6939 33.936 49.4006 34.1573C49.4892 34.1915 49.5838 34.2075 49.6788 34.2043C49.7737 34.2011 49.867 34.1788 49.9532 34.1388C50.0393 34.0987 50.1165 34.0417 50.1801 33.9711C50.2436 33.9005 50.2923 33.8178 50.3233 33.728L50.0326 32.6293Z" fill="#FFC4C0"/>
<path d="M48.7207 32.2667V32.2853C49.2167 32.456 49.4967 32.8933 49.6994 33.352C49.6687 33.3049 49.6282 33.2649 49.5807 33.2349C49.5331 33.2049 49.4796 33.1856 49.4238 33.1782C49.3681 33.1709 49.3114 33.1757 49.2577 33.1923C49.204 33.209 49.1545 33.2371 49.1127 33.2747C49.0994 33.2747 49.1127 33.304 49.1127 33.3013C49.1966 33.2696 49.2884 33.2646 49.3753 33.287C49.4622 33.3094 49.54 33.3582 49.598 33.4267C49.6934 33.5428 49.7773 33.6678 49.8487 33.8C49.8727 33.8427 49.95 33.816 49.9314 33.7653C49.9154 33.1253 49.39 32.2827 48.7207 32.2667Z" fill="#263238"/>
<path d="M49.8673 33.9413C49.8698 33.9818 49.8603 34.0222 49.84 34.0573C49.8196 34.0924 49.7893 34.1206 49.7529 34.1385C49.7165 34.1564 49.6756 34.1631 49.6353 34.1577C49.5951 34.1524 49.5574 34.1353 49.5269 34.1085C49.4964 34.0817 49.4745 34.0465 49.464 34.0073C49.4535 33.9681 49.4549 33.9267 49.4679 33.8883C49.4809 33.8499 49.505 33.8162 49.5372 33.7914C49.5694 33.7667 49.6081 33.752 49.6486 33.7493C49.6756 33.7475 49.7027 33.7511 49.7283 33.7597C49.7539 33.7684 49.7775 33.7821 49.7978 33.7999C49.8182 33.8177 49.8348 33.8394 49.8467 33.8637C49.8586 33.888 49.8656 33.9143 49.8673 33.9413Z" fill="white"/>
<path d="M50.5103 31.2027L48.7637 31.1947L48.801 30.7333L50.5263 30.9413L50.5103 31.2027Z" fill="#B99AC8"/>
<path d="M50.5852 30.76L48.8652 30.4427L48.9852 29.9947L50.6466 30.5067L50.5852 30.76Z" fill="#B99AC8"/>
<path d="M46.8466 40.1013C46.0466 42.168 43.0573 51.9387 44.3453 55.528C45.1453 57.7307 52.9346 62.072 54.9079 63.04C55.7692 63.4613 58.9079 57.912 58.5266 56.9627C58.1452 56.0133 50.7079 52.352 50.2226 51.76C50.2226 51.76 49.9559 44.7947 49.8066 41.0933C49.6626 37.584 48.3559 36.2373 46.8466 40.1013Z" fill="#FFC4C0"/>
<path d="M63.5103 60.1547C64.6116 60.6267 66.4436 60.336 66.3583 61.2213C66.2729 62.0213 64.9796 62.088 64.9796 62.088C64.9796 62.088 66.4649 62.472 66.1343 63.2933C65.8036 64.1147 64.3689 63.912 64.3689 63.912C64.3689 63.912 65.6196 64.1787 65.2303 64.9787C64.8409 65.7787 63.5876 65.8267 63.5876 65.8267C63.5876 65.8267 63.8943 66.1467 63.3663 66.5867C62.6089 67.216 60.5316 66.7707 59.4996 66.28C58.4676 65.7893 55.0596 63.2347 54.5449 62.8347L57.6329 56.1947C57.6329 56.1947 59.8676 56.2187 60.9983 56.3707C62.1289 56.5227 65.7183 58.056 65.3983 58.9733C65.0783 59.8907 62.5636 58.7627 61.8863 58.6213C61.2089 58.48 61.0623 58.6213 61.3183 58.9147C61.4863 59.104 63.0223 59.9467 63.5103 60.1547Z" fill="#FFC4C0"/>
<path d="M64.9176 62.0613C63.1069 62.04 62.3202 61.72 60.8242 60.752C60.7949 60.7333 60.7602 60.7733 60.7869 60.7947C62.1656 61.8747 63.0962 62.4213 64.9202 62.1493C65.0109 62.1333 65.0029 62.0613 64.9176 62.0613Z" fill="#263238"/>
<path d="M64.4469 63.896C62.5669 63.712 61.7083 63.3627 60.0683 62.472C60.0631 62.4704 60.0576 62.4706 60.0526 62.4725C60.0475 62.4744 60.0433 62.4779 60.0405 62.4826C60.0378 62.4872 60.0366 62.4926 60.0373 62.4979C60.038 62.5033 60.0404 62.5082 60.0443 62.512C61.5803 63.528 62.5216 64.0507 64.4203 63.9893C64.5083 64 64.5323 63.904 64.4469 63.896Z" fill="#263238"/>
<path d="M63.5686 65.8027C61.7659 65.4933 60.8086 65.16 59.3259 64.0853C59.3192 64.0797 59.3105 64.0769 59.3018 64.0777C59.293 64.0784 59.2849 64.0826 59.2793 64.0893C59.2736 64.0961 59.2709 64.1047 59.2716 64.1135C59.2724 64.1222 59.2766 64.1303 59.2833 64.136C60.6859 65.3813 61.8779 65.8053 63.5499 65.8587C63.6699 65.8667 63.6833 65.824 63.5686 65.8027Z" fill="#263238"/>
<path d="M50.4882 45.992L44.2402 47.2C44.2402 47.2 46.2669 40.4933 47.4189 38.688C48.7176 36.6587 49.4722 37.7653 49.9816 39.9973C50.4909 42.2293 50.4882 45.992 50.4882 45.992Z" fill="#B99AC8"/>
<path d="M49.3183 42.4507C49.3188 42.5464 49.2909 42.64 49.238 42.7198C49.1852 42.7996 49.1098 42.8619 49.0215 42.8987C48.9332 42.9356 48.836 42.9454 48.7421 42.9268C48.6482 42.9083 48.562 42.8623 48.4943 42.7946C48.4266 42.727 48.3806 42.6407 48.3621 42.5468C48.3435 42.453 48.3533 42.3557 48.3902 42.2674C48.427 42.1791 48.4893 42.1037 48.5691 42.0509C48.6489 41.9981 48.7426 41.9701 48.8383 41.9707C48.9653 41.9714 49.087 42.0222 49.1769 42.112C49.2668 42.2019 49.3176 42.3236 49.3183 42.4507ZM47.1103 39.2347C46.9849 39.4827 46.8436 39.768 46.7209 40.0827C46.8029 40.1474 46.9045 40.1822 47.0089 40.1813C47.0721 40.1817 47.1346 40.1695 47.193 40.1455C47.2514 40.1215 47.3045 40.0862 47.3491 40.0415C47.3938 39.9969 47.4291 39.9438 47.4531 39.8854C47.4771 39.827 47.4893 39.7645 47.4889 39.7013C47.4898 39.5917 47.4526 39.4851 47.3835 39.3999C47.3144 39.3148 47.2178 39.2563 47.1103 39.2347ZM47.0223 44.8133C46.9274 44.8139 46.8349 44.8425 46.7563 44.8955C46.6777 44.9486 46.6166 45.0237 46.5807 45.1115C46.5448 45.1992 46.5357 45.2957 46.5545 45.3886C46.5733 45.4815 46.6192 45.5668 46.6865 45.6337C46.7537 45.7005 46.8392 45.746 46.9323 45.7643C47.0253 45.7826 47.1217 45.7729 47.2092 45.7365C47.2968 45.7001 47.3716 45.6386 47.4242 45.5597C47.4768 45.4808 47.5049 45.3882 47.5049 45.2933C47.5042 45.1658 47.4531 45.0437 47.3626 44.9538C47.2722 44.8638 47.1498 44.8133 47.0223 44.8133ZM50.4889 44.8533C50.4016 44.8913 50.3276 44.9544 50.2762 45.0346C50.2248 45.1147 50.1985 45.2084 50.2005 45.3036C50.2025 45.3988 50.2327 45.4912 50.2874 45.5692C50.3421 45.6471 50.4188 45.7071 50.5076 45.7413C50.4889 45.5413 50.4889 45.2347 50.4889 44.8533Z" fill="white"/>
<path d="M44.9069 45.9093C45.1176 45.8347 47.0616 45.4293 47.4856 45.352C47.9096 45.2747 49.6429 44.936 50.0883 44.8907C50.0907 44.8896 50.0934 44.8892 50.096 44.8894C50.0987 44.8896 50.1012 44.8905 50.1034 44.8919C50.1056 44.8934 50.1075 44.8954 50.1087 44.8977C50.11 44.9001 50.1107 44.9027 50.1107 44.9053C50.1107 44.908 50.11 44.9106 50.1087 44.9129C50.1075 44.9153 50.1056 44.9173 50.1034 44.9187C50.1012 44.9202 50.0987 44.9211 50.096 44.9213C50.0934 44.9215 50.0907 44.9211 50.0883 44.92C49.6616 45.048 47.9176 45.3947 47.4856 45.4827C47.0536 45.5707 45.1229 45.928 44.9043 45.9387C44.8883 45.9387 44.8883 45.9147 44.9069 45.9093Z" fill="#263238"/>
<path d="M50.0015 46.0827C50.1881 46.032 50.4788 45.968 50.4788 45.968C50.4788 45.2267 50.1801 41.488 50.1215 40.584C50.1215 40.568 50.1428 40.568 50.1428 40.584C50.2103 41.0942 50.2726 41.6027 50.3295 42.1093C50.3295 42.0453 50.3295 41.9813 50.3295 41.9173C50.3428 41.6853 50.3615 41.456 50.3668 41.2267C50.3668 41.2053 50.3961 41.2027 50.3961 41.2267C50.4121 41.4584 50.4121 41.6909 50.3961 41.9227C50.3828 42.088 50.3615 42.248 50.3375 42.4107C50.3695 42.704 50.4041 42.9947 50.4281 43.288C50.5028 44.1893 50.6121 45.12 50.6175 46.024C50.4088 46.0795 50.1954 46.1152 49.9801 46.1307C49.9775 46.1333 49.9748 46.0907 50.0015 46.0827Z" fill="#263238"/>
<path d="M44.8469 47.072C44.6469 47.1307 44.4495 47.1787 44.2495 47.232L44.1855 47.248V47.1787C44.3585 46.353 44.5829 45.539 44.8575 44.7413C44.9935 44.3413 45.1242 43.9413 45.2975 43.5547C45.4709 43.168 45.6229 42.7787 45.8095 42.4C45.6895 42.8053 45.5589 43.2 45.4309 43.6027L45.0415 44.8027L44.2682 47.2027L44.2202 47.1493C44.4362 47.1227 44.6415 47.0933 44.8469 47.072Z" fill="#263238"/>
<path d="M45.2659 43.8907C45.2093 43.7244 45.1946 43.5467 45.2232 43.3733C45.2331 43.2828 45.2519 43.1935 45.2792 43.1067C45.3063 43.0236 45.343 42.9439 45.3885 42.8693C45.3906 43.0398 45.379 43.2101 45.3539 43.3787C45.3299 43.5573 45.3059 43.7333 45.2659 43.8907Z" fill="#263238"/>
<path d="M75.147 29.0667C75.3721 29.0396 75.6 29.085 75.7975 29.1963C75.9951 29.3075 76.1521 29.4788 76.2457 29.6853C76.2457 29.6853 76.7283 28.7867 77.579 28.848C78.0137 28.88 78.3443 29.6027 78.3443 29.6027C78.3443 29.6027 78.763 28.9013 79.5097 29.0027C80.107 29.0827 80.3497 29.8027 80.3497 29.8027C80.3497 29.8027 81.0643 29.3147 81.6457 29.592C82.8217 30.152 82.6723 35.3147 80.747 36.056C79.851 36.4027 79.947 35.144 79.947 35.144C79.947 35.144 79.3603 36.9173 78.2963 36.912C77.2323 36.9067 77.4643 35.2827 77.4643 35.2827C77.4643 35.2827 76.8803 36.9947 75.7763 36.8827C74.627 36.7627 75.1417 35.176 75.1417 35.176C75.1417 35.176 74.3417 36.3013 73.507 36.0187C72.1443 35.5547 74.075 33.1253 73.8377 31.984L71.7363 31.4507C71.7363 31.4507 74.2217 29.1387 75.147 29.0667Z" fill="#FFC4C0"/>
<path d="M80.3983 29.888C80.3983 29.872 80.4223 29.8667 80.4249 29.888C80.8107 31.6655 80.6461 33.5184 79.9529 35.2C79.9316 35.2533 79.8356 35.2373 79.8489 35.1733C80.2892 33.4478 80.4742 31.6672 80.3983 29.888Z" fill="#263238"/>
<path d="M78.3507 29.5653C78.3507 29.5467 78.3827 29.544 78.3881 29.5653C78.7534 31.328 78.5534 33.5653 77.5134 35.3227C77.4787 35.384 77.3854 35.4027 77.4227 35.3227C78.0254 34.1093 78.4467 31.232 78.3507 29.5653Z" fill="#263238"/>
<path d="M75.0215 35.256C75.9522 33.5333 76.2375 31.6853 76.2562 29.744C76.2562 29.72 76.2935 29.7227 76.2988 29.744C76.5468 30.696 76.4055 31.9307 76.2135 32.8827C76.0523 33.7681 75.6615 34.5956 75.0802 35.2827C75.0642 35.3173 75.0215 35.2933 75.0215 35.256Z" fill="#263238"/>
<path d="M79.9048 35.224C79.796 35.5834 79.6332 35.9242 79.4221 36.2347C79.2185 36.5683 78.8998 36.8159 78.5261 36.9307C78.3295 36.9828 78.1214 36.9716 77.9315 36.8987C77.7405 36.8122 77.5911 36.6542 77.5155 36.4587C77.3865 36.0889 77.3544 35.6923 77.4221 35.3067L77.6008 35.3547C77.4637 35.716 77.2662 36.0514 77.0168 36.3467C76.7657 36.6586 76.4107 36.8697 76.0168 36.9413C75.8139 36.9693 75.6073 36.9445 75.4168 36.8693C75.3204 36.8274 75.2336 36.7664 75.1616 36.6898C75.0896 36.6132 75.034 36.5228 74.9981 36.424C74.8902 36.0451 74.9004 35.6423 75.0275 35.2693L75.1395 35.3307C75.016 35.4706 74.8794 35.5983 74.7315 35.712C74.5853 35.8272 74.4237 35.9214 74.2515 35.992C74.0776 36.0628 73.8888 36.0893 73.7021 36.0693C73.5191 36.039 73.3498 35.9534 73.2168 35.824C73.3572 35.9378 73.5277 36.0082 73.7075 36.0267C73.8852 36.0346 74.0622 35.9979 74.2221 35.92C74.5387 35.7564 74.8169 35.5273 75.0381 35.248L75.2168 35.0347L75.1501 35.3013C75.0438 35.6489 75.0438 36.0204 75.1501 36.368C75.1784 36.4451 75.2223 36.5156 75.2793 36.5748C75.3362 36.634 75.4048 36.6807 75.4808 36.712C75.6408 36.7718 75.8134 36.7892 75.9821 36.7627C76.3288 36.6953 76.64 36.5061 76.8595 36.2293C77.0946 35.953 77.2837 35.6405 77.4195 35.304L77.7075 34.592L77.5981 35.352C77.5326 35.7034 77.5565 36.0656 77.6675 36.4053C77.7237 36.5634 77.8382 36.6941 77.9875 36.7707C78.1477 36.8312 78.3226 36.8414 78.4888 36.8C78.8386 36.7006 79.143 36.4828 79.3501 36.184C79.5784 35.8911 79.765 35.568 79.9048 35.224Z" fill="#263238"/>
<path d="M84.5003 90.984C89.3707 90.984 93.319 87.0357 93.319 82.1653C93.319 77.2949 89.3707 73.3467 84.5003 73.3467C79.6299 73.3467 75.6816 77.2949 75.6816 82.1653C75.6816 87.0357 79.6299 90.984 84.5003 90.984Z" fill="#B99AC8"/>
<path d="M85.4064 76.7173H83.5957V87.6107H85.4064V76.7173Z" fill="white"/>
<path d="M89.7832 82.8107V81H78.8899V82.8107H89.7832Z" fill="white"/>
<defs>
<linearGradient id="paint0_linear_340_20533" x1="101.389" y1="2" x2="101.389" y2="133" gradientUnits="userSpaceOnUse">
<stop stop-color="#F4ACC4"/>
<stop offset="0.541667" stop-color="#B99AC8"/>
<stop offset="1" stop-color="#79A8F0"/>
</linearGradient>
</defs>
</svg>
