<svg width="258" height="177" viewBox="0 0 258 177" fill="none" xmlns="http://www.w3.org/2000/svg">
<g clip-path="url(#clip0_641_4720)">
<path d="M215.701 123.356C213.864 128.924 207.525 133.872 209.419 137.966C210.139 139.522 210.862 141.151 211.195 142.813C211.411 143.805 211.447 144.827 211.302 145.831C210.619 150.167 206.564 153.047 202.793 155.289C202.561 155.427 202.325 155.568 202.09 155.709C198.517 157.851 194.775 160.317 193.628 164.271C192.991 166.468 193.272 168.817 193.008 171.088C192.758 173.176 192.049 175.182 190.933 176.963H166.854C164.716 174.606 164.894 170.643 166.521 167.863C168.263 164.889 171.205 162.867 173.859 160.668C176.152 158.767 178.387 156.478 179.262 153.687C179.402 153.246 179.504 152.793 179.569 152.335C179.782 150.824 179.667 143.109 182.284 138.36C186.33 131.026 192.893 132.832 194.899 128.694C195.668 127.109 196.331 107.632 209.115 111.23C210.361 111.564 211.527 112.148 212.541 112.947C213.554 113.746 214.395 114.743 215.011 115.878C215.627 117.012 216.006 118.26 216.125 119.546C216.243 120.832 216.099 122.128 215.701 123.356Z" fill="#F4ACC4" fill-opacity="0.5"/>
<path d="M239.084 153.81C238.717 154.063 238.322 154.273 237.908 154.436C234.458 155.731 224.865 155.588 223.462 158.996C222.802 160.598 222.644 162.367 222.079 164.007C220.796 167.725 217.41 170.513 213.622 171.562C212.259 171.938 210.847 172.113 209.499 172.532C206.893 173.345 204.735 174.979 202.838 176.963H171.741C171.727 174.899 172.234 172.865 173.215 171.05C174.196 169.235 175.62 167.697 177.353 166.58C180.811 164.397 185.179 163.99 188.574 161.71C190.812 160.205 192.422 158.031 193.699 155.628C194.511 154.056 195.229 152.436 195.848 150.778C196.798 148.312 197.791 145.664 199.949 144.137C201.007 143.448 202.18 142.956 203.412 142.684C206.529 141.868 208.925 142.348 211.195 142.813C213.949 143.376 216.521 143.913 219.973 142.078C226.096 138.822 235.05 122.584 243.997 138.012C247.584 144.2 242.634 151.433 239.084 153.81Z" fill="#B99AC8" fill-opacity="0.7"/>
<path d="M44.058 123.356C45.8945 128.924 52.2335 133.872 50.3396 137.966C49.6193 139.522 48.8962 141.151 48.5633 142.813C48.3473 143.805 48.3113 144.827 48.4571 145.831C49.1401 150.167 53.1948 153.047 56.9655 155.289C57.1979 155.427 57.4332 155.568 57.6685 155.709C61.2412 157.851 64.9831 160.317 66.131 164.271C66.768 166.468 66.4868 168.817 66.7508 171.088C67.0009 173.176 67.7094 175.182 68.8255 176.963H92.9043C95.0422 174.606 94.8643 170.643 93.2372 167.863C91.4954 164.889 88.554 162.867 85.8997 160.668C83.6068 158.767 81.3714 156.478 80.4962 153.687C80.3571 153.246 80.2544 152.793 80.1891 152.335C79.9768 150.824 80.0916 143.109 77.4745 138.36C73.4284 131.026 66.8656 132.832 64.8597 128.694C64.0907 127.109 63.4278 107.632 50.6437 111.23C49.3972 111.564 48.2316 112.148 47.2179 112.947C46.2042 113.746 45.3637 114.743 44.7475 115.878C44.1314 117.012 43.7525 118.26 43.634 119.546C43.5154 120.832 43.6597 122.128 44.058 123.356Z" fill="#F4ACC4" fill-opacity="0.5"/>
<path d="M20.673 153.81C21.0401 154.063 21.4348 154.273 21.8496 154.436C25.2988 155.731 34.8919 155.588 36.2951 158.996C36.9551 160.598 37.113 162.367 37.6783 164.007C38.961 167.725 42.3471 170.513 46.135 171.562C47.498 171.938 48.9099 172.113 50.2586 172.532C52.8642 173.345 55.0221 174.979 56.9189 176.963H88.0168C88.0306 174.899 87.5233 172.865 86.5421 171.05C85.5609 169.235 84.1375 167.697 82.4039 166.58C78.946 164.397 74.5785 163.99 71.1837 161.71C68.9454 160.205 67.3356 158.031 66.0586 155.628C65.2463 154.056 64.5285 152.436 63.9093 150.778C62.9595 148.312 61.9666 145.664 59.8086 144.137C58.7504 143.448 57.5772 142.956 56.345 142.684C53.2286 141.868 50.8325 142.348 48.5627 142.813C45.8079 143.376 43.2367 143.913 39.7846 142.078C33.6608 138.822 24.7077 122.584 15.7603 138.012C12.1744 144.2 17.1245 151.433 20.673 153.81Z" fill="#B99AC8" fill-opacity="0.7"/>
<path d="M165.961 2.53345H95.5414C90.1489 2.53345 85.7773 6.90776 85.7773 12.3038V164.696C85.7773 170.092 90.1489 174.466 95.5414 174.466H165.961C171.354 174.466 175.725 170.092 175.725 164.696V12.3038C175.725 6.90776 171.354 2.53345 165.961 2.53345Z" fill="white"/>
<path d="M165.962 177H95.5418C92.2819 176.996 89.1566 175.698 86.8516 173.392C84.5465 171.085 83.2499 167.958 83.2461 164.696V12.304C83.2499 9.04208 84.5465 5.91479 86.8516 3.60817C89.1566 1.30155 92.2819 0.00395169 95.5418 0L165.962 0C169.222 0.00395169 172.347 1.30155 174.652 3.60817C176.957 5.91479 178.254 9.04208 178.257 12.304V164.696C178.254 167.958 176.957 171.085 174.652 173.392C172.347 175.698 169.222 176.996 165.962 177ZM95.5418 5.0672C93.6242 5.06918 91.7857 5.83224 90.4298 7.18897C89.0738 8.5457 88.3111 10.3853 88.3089 12.304V164.696C88.3113 166.614 89.0739 168.453 90.4296 169.81C91.7852 171.166 93.6232 171.93 95.5403 171.932H165.96C167.877 171.93 169.715 171.166 171.071 169.81C172.427 168.453 173.189 166.614 173.192 164.696V12.304C173.189 10.3857 172.427 8.54654 171.071 7.19004C169.715 5.83354 167.877 5.07042 165.96 5.06806L95.5418 5.0672Z" fill="url(#paint0_linear_641_4720)"/>
<path d="M115.332 2.53345H146.17V8.52065C146.17 9.10915 146.054 9.69188 145.829 10.2356C145.604 10.7793 145.274 11.2733 144.858 11.6894C144.442 12.1055 143.949 12.4356 143.405 12.6608C142.862 12.886 142.279 13.0018 141.691 13.0018H119.811C118.623 13.0018 117.484 12.5296 116.644 11.6892C115.804 10.8488 115.332 9.70891 115.332 8.52037V2.53345H115.332Z" fill="#B99AC8"/>
<path d="M145.521 39.5449C145.521 42.4677 144.654 45.3248 143.031 47.7548C141.408 50.1848 139.102 52.0787 136.403 53.1969C133.704 54.3152 130.735 54.6075 127.87 54.0371C125.005 53.4666 122.374 52.0589 120.309 49.992C118.244 47.9251 116.837 45.2918 116.268 42.4251C115.698 39.5584 115.991 36.5872 117.109 33.887C118.227 31.1868 120.12 28.879 122.549 27.2554C124.978 25.6319 127.833 24.7654 130.754 24.7657C132.696 24.7584 134.62 25.1356 136.415 25.8758C138.21 26.6159 139.841 27.7043 141.213 29.0782C142.586 30.4521 143.674 32.0843 144.413 33.8807C145.152 35.6771 145.529 37.6022 145.521 39.5449Z" fill="#79A8F0"/>
<path d="M130.754 41.0677C133.983 41.0677 136.601 38.4481 136.601 35.2166C136.601 31.9851 133.983 29.3655 130.754 29.3655C127.524 29.3655 124.906 31.9851 124.906 35.2166C124.906 38.4481 127.524 41.0677 130.754 41.0677Z" fill="white"/>
<path d="M141.395 49.7905C140.018 51.2239 138.365 52.3643 136.537 53.1434C134.708 53.9225 132.741 54.3242 130.754 54.3245C128.766 54.3247 126.8 53.9236 124.971 53.145C123.142 52.3664 121.489 51.2264 120.111 49.7934C122.103 45.3398 126.123 42.2961 130.755 42.2961C135.386 42.2961 139.404 45.3366 141.395 49.7905Z" fill="white"/>
<path d="M161.868 64.9774H99.6387V78.5615H161.868V64.9774Z" fill="#F4ACC4"/>
<path d="M161.868 88.4553H99.6387V102.039H161.868V88.4553Z" fill="#F4ACC4"/>
<path d="M205.81 57.8454C205.81 57.8454 203.502 56.8537 203.502 50.7872L198.863 50.3143C198.863 50.3143 199.819 55.6749 197.648 57.579L205.81 57.8454Z" fill="#F4ACC4"/>
<path d="M205.903 48.2376C205.737 50.092 204.881 51.905 203.318 52.6278C201.619 53.4697 199.739 53.8827 197.844 53.8306C192.808 53.8306 192.864 42.3684 195.058 39.9616C197.252 37.5548 204.336 38.3843 205.487 42.0121C206.081 43.89 206.061 46.4729 205.903 48.2376Z" fill="#F4ACC4"/>
<path d="M198.599 47.4179C198.829 47.4179 199.015 47.2316 199.015 47.0018C199.015 46.772 198.829 46.5858 198.599 46.5858C198.37 46.5858 198.184 46.772 198.184 47.0018C198.184 47.2316 198.37 47.4179 198.599 47.4179Z" fill="#367CFF"/>
<path d="M199.416 46.1777C199.406 46.1776 199.395 46.1769 199.385 46.1754L198.282 46.0031C198.256 46 198.23 45.9917 198.208 45.9786C198.185 45.9656 198.165 45.9481 198.149 45.9271C198.133 45.9062 198.122 45.8823 198.115 45.8568C198.109 45.8314 198.108 45.8049 198.112 45.7789C198.116 45.753 198.125 45.7281 198.139 45.7058C198.153 45.6835 198.171 45.6642 198.192 45.6491C198.214 45.6339 198.238 45.6233 198.264 45.6178C198.289 45.6123 198.316 45.612 198.342 45.6169L199.445 45.7892C199.494 45.7967 199.538 45.8222 199.568 45.8607C199.599 45.8992 199.614 45.9478 199.61 45.9968C199.607 46.0459 199.585 46.0918 199.549 46.1253C199.513 46.1589 199.466 46.1777 199.417 46.178L199.416 46.1777Z" fill="#367CFF"/>
<path d="M195.338 48.7677C195.338 49.2355 195.524 49.6842 195.854 50.015C196.185 50.3458 196.633 50.5316 197.101 50.5316C197.568 50.5316 198.017 50.3458 198.347 50.015C198.678 49.6842 198.863 49.2355 198.863 48.7677C198.871 48.3077 198.696 47.8635 198.377 47.5327C198.057 47.2019 197.619 47.0116 197.16 47.0038C197.14 47.0038 197.12 47.0038 197.101 47.0038C195.845 47.0655 195.338 47.7934 195.338 48.7677Z" fill="#F4ACC4"/>
<path d="M195.322 44.6188C194.344 44.6111 193.369 44.5288 192.404 44.3727C192.404 44.3727 192.7 36.9291 200.6 37.3535C201.625 37.3066 202.653 37.3673 203.666 37.5347C206.041 37.8988 209.407 40.328 209.951 46.4074C210.2 49.1964 211.161 51.8255 211.894 53.49C211.98 53.6854 212.017 53.8994 212 54.1125C211.983 54.3256 211.913 54.5311 211.797 54.7104C211.68 54.8896 211.521 55.037 211.333 55.1391C211.146 55.2412 210.935 55.2948 210.722 55.295L193.797 55.16C193.597 55.1601 193.399 55.1134 193.22 55.0235C193.042 54.9336 192.886 54.8031 192.767 54.6424C192.648 54.4818 192.567 54.2954 192.533 54.0982C192.498 53.9009 192.51 53.6984 192.568 53.5067C193.489 50.4558 195.174 48.5859 195.322 44.6188Z" fill="#0F1011"/>
<path d="M165.597 76.0353C165.597 76.0353 161.522 74.9048 160.936 74.1255C160.351 73.3462 161.774 70.7231 161.774 70.7231C161.774 70.7231 157.699 69.054 158.091 68.395C158.554 67.6171 163.643 70.4013 163.643 70.4013C163.643 70.4013 162.536 69.0922 163.077 68.7462C163.3 68.6026 163.589 68.7591 164.416 69.6665C165.359 70.7002 166.988 72.1672 166.988 72.1672L165.597 76.0353Z" fill="#F4ACC4"/>
<path d="M185.871 173.857C185.236 168.511 185.236 167.961 185.236 167.781H191.262C191.262 167.762 191.262 167.739 191.262 167.71C191.284 168.157 191.588 170.879 191.857 173.145L185.871 173.857Z" fill="#F4ACC4"/>
<path d="M209.881 174.578C209.881 174.578 209.861 168.333 209.861 167.781H215.887C215.887 168.332 215.908 174.557 215.908 174.557L209.881 174.578Z" fill="#F4ACC4"/>
<path d="M218.609 98.4594C218.609 99.315 218.158 102.176 218.884 102.38C219.32 102.503 219.834 100.37 219.834 100.37" fill="#F4ACC4"/>
<path d="M222.037 98.01C222.037 98.01 224.409 103.786 221.704 107.104C221.635 107.188 221.542 107.25 221.438 107.281C221.333 107.312 221.222 107.31 221.118 107.277C221.014 107.243 220.923 107.179 220.856 107.093C220.789 107.006 220.75 106.902 220.744 106.793C220.612 104.556 220.162 99.9608 218.688 100.498V96.8901" fill="#F4ACC4"/>
<path d="M215.035 135.378C214.453 126.368 213.447 111.253 212.954 102.384H213.035L212.186 88.1133L190.355 89.4615L190.131 90.9919L190.054 90.9693C187.495 104.54 186.404 119.549 184.33 133.218C184.184 145.884 184.144 159.138 183.648 171.773L194.266 171.954C194.233 159.611 194.537 146.708 194.902 134.345C196.566 124.654 198.904 113.9 200.78 104.315C202.477 122.988 205.007 153.58 206.884 172.506L217.464 171.611L215.035 135.378Z" fill="#79A8F0"/>
<path d="M202.556 176.91C202.401 176.909 202.248 176.878 202.105 176.818C201.963 176.758 201.833 176.67 201.724 176.56C201.615 176.45 201.529 176.32 201.47 176.177C201.412 176.033 201.382 175.88 201.383 175.725C201.383 175.696 201.384 175.667 201.386 175.639C201.404 175.415 201.485 175.2 201.62 175.021C201.755 174.841 201.939 174.704 202.149 174.625L209.163 172.274C209.299 172.23 209.443 172.214 209.585 172.23C209.727 172.246 209.865 172.292 209.987 172.366C210.952 173.036 212.105 173.378 213.278 173.342C214.192 173.278 215.069 172.957 215.809 172.417C215.874 172.364 215.953 172.33 216.037 172.32C216.12 172.31 216.205 172.323 216.281 172.359C216.357 172.395 216.421 172.452 216.466 172.524C216.511 172.595 216.535 172.678 216.535 172.762V176.194C216.535 176.398 216.454 176.593 216.31 176.737C216.165 176.882 215.97 176.963 215.766 176.963H215.763L202.556 176.91Z" fill="url(#paint1_linear_641_4720)"/>
<path d="M178.529 176.91C178.374 176.909 178.221 176.878 178.078 176.818C177.935 176.758 177.806 176.671 177.697 176.56C177.588 176.45 177.502 176.32 177.443 176.177C177.384 176.033 177.355 175.88 177.355 175.725C177.355 175.696 177.357 175.667 177.359 175.639C177.376 175.415 177.457 175.2 177.593 175.021C177.728 174.841 177.911 174.704 178.122 174.625L185.136 172.274C185.272 172.23 185.416 172.214 185.558 172.23C185.7 172.246 185.838 172.292 185.96 172.366C186.924 173.036 188.078 173.378 189.251 173.342C190.165 173.278 191.042 172.957 191.782 172.417C191.847 172.364 191.926 172.33 192.01 172.32C192.093 172.309 192.178 172.323 192.254 172.359C192.33 172.395 192.394 172.452 192.439 172.524C192.484 172.595 192.508 172.678 192.507 172.762V176.194C192.507 176.398 192.426 176.593 192.282 176.737C192.138 176.882 191.943 176.963 191.739 176.963H191.736L178.529 176.91Z" fill="url(#paint2_linear_641_4720)"/>
<path d="M220.718 80.243C220.687 80.0313 220.634 79.8233 220.56 79.6222L213.973 61.7005L213.934 61.7152C213.648 60.8327 213.153 60.032 212.493 59.3807C211.182 58.069 208.912 57.22 206.147 57.22C202.03 57.22 196.409 57.2289 195.256 57.2774C191.737 57.4284 190.091 59.0071 189.418 61.3387L181.188 76.1246L166.913 70.8107L164.812 76.4622L181.51 82.6794C182.185 82.9312 182.927 82.9325 183.603 82.6833C184.279 82.434 184.843 81.9507 185.193 81.321L189.786 73.0694C189.908 74.2423 189.999 75.3952 190.011 76.4941C190.122 85.8168 187.606 87.5729 188.846 90.4231C190.049 93.1869 213.674 94.3366 213.99 89.4709C214.191 86.3761 211.465 83.6732 211.465 77.6407C211.487 76.4943 211.639 75.3541 211.916 74.2415L214.576 81.4795L217.188 99.083L223.377 98.1642L220.718 80.243Z" fill="#F4ACC4"/>
<path d="M130.753 157.908C141.664 157.908 150.509 149.057 150.509 138.139C150.509 127.221 141.664 118.37 130.753 118.37C119.841 118.37 110.996 127.221 110.996 138.139C110.996 149.057 119.841 157.908 130.753 157.908Z" fill="url(#paint3_linear_641_4720)"/>
<path d="M118.465 129.333C116.2 147.26 131.066 152.147 131.066 152.147C131.066 152.147 144.716 146.95 143.147 129.377C143.147 129.377 135.182 131.055 131.066 125.046C131.066 125.046 128.041 130.871 118.465 129.333Z" fill="white"/>
<path d="M134.945 136.385H134.348V135.05C134.339 134.102 133.957 133.195 133.284 132.528C132.61 131.86 131.701 131.486 130.753 131.486C129.805 131.486 128.896 131.86 128.223 132.528C127.549 133.195 127.167 134.102 127.159 135.05V136.385H126.562C126.289 136.385 126.027 136.494 125.835 136.687C125.642 136.88 125.533 137.142 125.533 137.415V144.125C125.533 144.398 125.642 144.66 125.835 144.853C126.027 145.046 126.289 145.155 126.562 145.155H134.945C135.218 145.155 135.48 145.046 135.673 144.853C135.866 144.66 135.974 144.398 135.974 144.125V137.415C135.974 137.279 135.947 137.145 135.896 137.02C135.844 136.896 135.768 136.782 135.672 136.686C135.577 136.591 135.463 136.515 135.338 136.463C135.214 136.412 135.08 136.385 134.945 136.385ZM128.327 135.05C128.334 134.411 128.593 133.8 129.047 133.351C129.501 132.901 130.114 132.649 130.753 132.649C131.392 132.649 132.005 132.901 132.459 133.351C132.914 133.8 133.172 134.411 133.179 135.05V136.385H128.327V135.05Z" fill="url(#paint4_linear_641_4720)"/>
<path d="M105.793 73.9604C107.002 73.9604 107.983 72.9795 107.983 71.7695C107.983 70.5595 107.002 69.5786 105.793 69.5786C104.584 69.5786 103.604 70.5595 103.604 71.7695C103.604 72.9795 104.584 73.9604 105.793 73.9604Z" fill="white"/>
<path d="M112.367 73.9604C113.576 73.9604 114.557 72.9795 114.557 71.7695C114.557 70.5595 113.576 69.5786 112.367 69.5786C111.158 69.5786 110.178 70.5595 110.178 71.7695C110.178 72.9795 111.158 73.9604 112.367 73.9604Z" fill="white"/>
<path d="M118.941 73.9604C120.151 73.9604 121.131 72.9795 121.131 71.7695C121.131 70.5595 120.151 69.5786 118.941 69.5786C117.732 69.5786 116.752 70.5595 116.752 71.7695C116.752 72.9795 117.732 73.9604 118.941 73.9604Z" fill="white"/>
<path d="M125.514 73.9604C126.723 73.9604 127.703 72.9795 127.703 71.7695C127.703 70.5595 126.723 69.5786 125.514 69.5786C124.304 69.5786 123.324 70.5595 123.324 71.7695C123.324 72.9795 124.304 73.9604 125.514 73.9604Z" fill="white"/>
<path d="M132.088 73.9604C133.297 73.9604 134.277 72.9795 134.277 71.7695C134.277 70.5595 133.297 69.5786 132.088 69.5786C130.879 69.5786 129.898 70.5595 129.898 71.7695C129.898 72.9795 130.879 73.9604 132.088 73.9604Z" fill="white"/>
<path d="M138.662 73.9604C139.871 73.9604 140.852 72.9795 140.852 71.7695C140.852 70.5595 139.871 69.5786 138.662 69.5786C137.453 69.5786 136.473 70.5595 136.473 71.7695C136.473 72.9795 137.453 73.9604 138.662 73.9604Z" fill="white"/>
<path d="M145.002 73.9604C146.211 73.9604 147.192 72.9795 147.192 71.7695C147.192 70.5595 146.211 69.5786 145.002 69.5786C143.793 69.5786 142.812 70.5595 142.812 71.7695C142.812 72.9795 143.793 73.9604 145.002 73.9604Z" fill="white"/>
<path d="M105.793 97.4383C107.002 97.4383 107.983 96.4574 107.983 95.2474C107.983 94.0374 107.002 93.0565 105.793 93.0565C104.584 93.0565 103.604 94.0374 103.604 95.2474C103.604 96.4574 104.584 97.4383 105.793 97.4383Z" fill="white"/>
<path d="M112.367 97.4383C113.576 97.4383 114.557 96.4574 114.557 95.2474C114.557 94.0374 113.576 93.0565 112.367 93.0565C111.158 93.0565 110.178 94.0374 110.178 95.2474C110.178 96.4574 111.158 97.4383 112.367 97.4383Z" fill="white"/>
<path d="M118.941 97.4383C120.151 97.4383 121.131 96.4574 121.131 95.2474C121.131 94.0374 120.151 93.0565 118.941 93.0565C117.732 93.0565 116.752 94.0374 116.752 95.2474C116.752 96.4574 117.732 97.4383 118.941 97.4383Z" fill="white"/>
<path d="M125.514 97.4383C126.723 97.4383 127.703 96.4574 127.703 95.2474C127.703 94.0374 126.723 93.0565 125.514 93.0565C124.304 93.0565 123.324 94.0374 123.324 95.2474C123.324 96.4574 124.304 97.4383 125.514 97.4383Z" fill="white"/>
<path d="M132.088 97.4383C133.297 97.4383 134.277 96.4574 134.277 95.2474C134.277 94.0374 133.297 93.0565 132.088 93.0565C130.879 93.0565 129.898 94.0374 129.898 95.2474C129.898 96.4574 130.879 97.4383 132.088 97.4383Z" fill="white"/>
<path d="M138.662 97.4383C139.871 97.4383 140.852 96.4574 140.852 95.2474C140.852 94.0374 139.871 93.0565 138.662 93.0565C137.453 93.0565 136.473 94.0374 136.473 95.2474C136.473 96.4574 137.453 97.4383 138.662 97.4383Z" fill="white"/>
</g>
<defs>
<linearGradient id="paint0_linear_641_4720" x1="130.752" y1="0" x2="130.752" y2="177" gradientUnits="userSpaceOnUse">
<stop stop-color="#F4ACC4"/>
<stop offset="0.541667" stop-color="#B99AC8"/>
<stop offset="1" stop-color="#79A8F0"/>
</linearGradient>
<linearGradient id="paint1_linear_641_4720" x1="208.959" y1="172.224" x2="208.959" y2="176.963" gradientUnits="userSpaceOnUse">
<stop stop-color="#F4ACC4"/>
<stop offset="0.541667" stop-color="#B99AC8"/>
<stop offset="1" stop-color="#79A8F0"/>
</linearGradient>
<linearGradient id="paint2_linear_641_4720" x1="184.931" y1="172.224" x2="184.931" y2="176.963" gradientUnits="userSpaceOnUse">
<stop stop-color="#F4ACC4"/>
<stop offset="0.541667" stop-color="#B99AC8"/>
<stop offset="1" stop-color="#79A8F0"/>
</linearGradient>
<linearGradient id="paint3_linear_641_4720" x1="130.753" y1="118.37" x2="130.753" y2="157.908" gradientUnits="userSpaceOnUse">
<stop stop-color="#F4ACC4"/>
<stop offset="0.541667" stop-color="#B99AC8"/>
<stop offset="1" stop-color="#79A8F0"/>
</linearGradient>
<linearGradient id="paint4_linear_641_4720" x1="130.754" y1="131.486" x2="130.754" y2="145.155" gradientUnits="userSpaceOnUse">
<stop stop-color="#F4ACC4"/>
<stop offset="0.541667" stop-color="#B99AC8"/>
<stop offset="1" stop-color="#79A8F0"/>
</linearGradient>
<clipPath id="clip0_641_4720">
<rect width="257" height="177" fill="white" transform="translate(0.5)"/>
</clipPath>
</defs>
</svg>
