<svg width="75" height="58" viewBox="0 0 75 58" fill="none" xmlns="http://www.w3.org/2000/svg">
<path d="M4.29978 32.6786L2.96484 35.7915L3.91127 36.1287L5.24621 33.0157L4.29978 32.6786Z" fill="#FFDF36"/>
<path d="M45.7999 13.8533L45.043 14.4712L47.4894 16.9609L48.2463 16.343L45.7999 13.8533Z" fill="#E98862"/>
<path d="M57.0169 24.9972L54.082 27.001L54.6913 27.7424L57.6262 25.7386L57.0169 24.9972Z" fill="#367CFF"/>
<path d="M13.0849 17.3139L13.9297 17.8286L15.9676 15.0499L15.1228 14.5352L13.0849 17.3139Z" fill="#FFDF36"/>
<path d="M73.7222 4.81031L71.8945 7.70801L72.7755 8.16962L74.6031 5.27192L73.7222 4.81031Z" fill="#0CBC8B"/>
<path d="M39.3741 8.54095L40.0508 9.23193L42.7865 7.00632L42.1098 6.31533L39.3741 8.54095Z" fill="#0CBC8B"/>
<path d="M58.2372 41.2921L57.3281 41.7061L58.9669 44.696L59.876 44.2821L58.2372 41.2921Z" fill="#0CBC8B"/>
<path d="M44.9358 33.4254L43.8828 36.627L44.8561 36.8929L45.909 33.6914L44.9358 33.4254Z" fill="#367CFF"/>
<path d="M2.92235 5.1638L6.35938 6.32861L6.71351 5.46048L3.27649 4.29567L2.92235 5.1638Z" fill="#0CBC8B"/>
<path d="M9.45815 21.5974L8.51172 21.9346L9.84666 25.0475L10.7931 24.7103L9.45815 21.5974Z" fill="#0CBC8B"/>
<path d="M28.8316 4.88466L29.7344 5.31006L31.4184 2.34106L30.5156 1.91566L28.8316 4.88466Z" fill="#AC25FF"/>
<path d="M23.2292 2.90965L20.5586 5.2002L21.255 5.87471L23.9255 3.58416L23.2292 2.90965Z" fill="#367CFF"/>
<path d="M52.8106 0.181941L51.9297 0.643555L53.7573 3.54125L54.6383 3.07964L52.8106 0.181941Z" fill="#367CFF"/>
<path d="M16.8749 36.5641L14.918 39.3906L15.7773 39.8849L17.7343 37.0584L16.8749 36.5641Z" fill="#0CBC8B"/>
<path d="M8.21053 44.307L7.64453 45.0767L10.6917 46.9383L11.2577 46.1687L8.21053 44.307Z" fill="#367CFF"/>
<path d="M0.880964 18.5877L0 19.0493L1.82753 21.9469L2.70849 21.4853L0.880964 18.5877Z" fill="#AC25FF"/>
<path d="M26.5663 21.3453L29.6641 23.1338L30.2078 22.3514L27.11 20.5629L26.5663 21.3453Z" fill="#367CFF"/>
<path d="M66.1154 43.3558L64.4766 46.3457L65.3856 46.7596L67.0244 43.7697L66.1154 43.3558Z" fill="#0CBC8B"/>
<path d="M63.3031 20.8109L65.2368 17.2588C65.2793 17.1808 65.3391 17.1117 65.4126 17.0558C65.486 17 65.5713 16.9588 65.6632 16.9347C65.755 16.9106 65.8514 16.9042 65.9461 16.9159C66.0408 16.9276 66.1318 16.9572 66.2133 17.0027C66.361 17.091 66.4675 17.2261 66.5121 17.3819C66.5566 17.5376 66.5362 17.7029 66.4547 17.8457L66.04 18.6074L68.5497 16.7581C68.8249 16.548 69.3099 16.4506 69.5481 16.7475C69.6479 16.8562 69.7044 16.9926 69.7082 17.1344C69.7121 17.2762 69.6631 17.415 69.5693 17.5281C69.5721 17.53 69.5747 17.5321 69.5771 17.5345C69.5785 17.5365 69.5797 17.5387 69.5807 17.5409L70.0051 17.2167C70.0837 17.1567 70.1761 17.1135 70.2753 17.0902C70.3746 17.0669 70.4783 17.064 70.579 17.0819C70.6796 17.0997 70.7746 17.1378 70.857 17.1933C70.9394 17.2489 71.0072 17.3205 71.0554 17.403C71.1285 17.5342 71.1499 17.6844 71.1161 17.8283C71.0822 17.9722 70.9952 18.1011 70.8696 18.1936L70.689 18.3315C70.691 18.3381 70.6917 18.3449 70.6909 18.3517C70.8366 18.2844 71.0038 18.2665 71.1626 18.3012C71.3215 18.3359 71.4616 18.421 71.5579 18.5413C71.6591 18.6757 71.7008 18.8399 71.6749 19.0012C71.649 19.1625 71.5574 19.3089 71.4182 19.4113L70.9697 19.7537C70.9798 19.7529 70.9899 19.7543 70.9993 19.7578C71.0087 19.7613 71.017 19.7668 71.0236 19.7738C71.0309 19.7826 71.0353 19.7931 71.0363 19.804C71.1843 19.7769 71.338 19.7948 71.4738 19.8551C71.6095 19.9153 71.7198 20.0146 71.7876 20.1376C71.8559 20.268 71.874 20.4157 71.8388 20.5567C71.8036 20.6976 71.7172 20.8236 71.5936 20.9143L67.8097 23.8033C67.2804 24.2075 66.6307 24.4584 65.9439 24.5238C65.2571 24.5892 64.5645 24.4662 63.9549 24.1705C63.4294 23.9155 63.0336 23.4839 62.8517 22.9672C62.6697 22.4505 62.7159 21.8896 62.9804 21.4034L63.3031 20.8109Z" fill="#E98862"/>
<g opacity="0.2">
<path d="M67.0926 19.3694C67.1033 19.3811 67.1187 19.3884 67.1353 19.3898C67.152 19.3912 67.1686 19.3866 67.1815 19.3769L69.5662 17.6151C69.5792 17.6054 69.5876 17.5914 69.5893 17.5761C69.5911 17.5609 69.5861 17.5456 69.5755 17.5336C69.5649 17.5217 69.5495 17.5141 69.5328 17.5125C69.516 17.5109 69.4992 17.5155 69.4861 17.5251L67.1015 19.287C67.0885 19.2966 67.0802 19.3106 67.0785 19.3257C67.0767 19.3409 67.0816 19.3561 67.0921 19.368L67.0926 19.3694Z" fill="#0C0C0C"/>
</g>
<g opacity="0.2">
<path d="M67.9173 20.3499C67.9281 20.3616 67.9435 20.3689 67.9601 20.3703C67.9767 20.3717 67.9933 20.367 68.0062 20.3573L70.6675 18.3911C70.6805 18.3815 70.6887 18.3675 70.6905 18.3523C70.6922 18.3372 70.6873 18.322 70.6768 18.3101C70.6659 18.2987 70.6507 18.2915 70.6342 18.2899C70.6177 18.2883 70.6012 18.2925 70.5879 18.3015L67.9257 20.2674C67.9127 20.277 67.9045 20.291 67.9027 20.3061C67.9009 20.3213 67.9058 20.3365 67.9163 20.3484L67.9173 20.3499Z" fill="#0C0C0C"/>
</g>
<g opacity="0.2">
<path d="M68.8001 21.4157C68.8109 21.4274 68.8262 21.4347 68.8429 21.4361C68.8595 21.4375 68.8761 21.4329 68.889 21.4232L71.0119 19.8548C71.025 19.8452 71.0333 19.8312 71.0351 19.8159C71.0368 19.8006 71.0319 19.7853 71.0212 19.7734C71.0106 19.7615 70.9953 19.7539 70.9785 19.7523C70.9617 19.7507 70.945 19.7552 70.9319 19.7649L68.8085 21.3333C68.7955 21.3429 68.7873 21.3569 68.7855 21.372C68.7837 21.3872 68.7886 21.4024 68.7991 21.4143L68.8001 21.4157Z" fill="#0C0C0C"/>
</g>
<path d="M19.9023 17.7653C19.9023 17.7653 19.6296 21.495 18.709 22.8478C16.0587 26.7434 15.2908 31.1257 17.9449 33.4154C20.599 35.705 37.5275 35.7367 38.81 30.4706C39.8897 26.037 37.5727 25.5603 37.0089 21.9033C36.7538 20.2484 36.052 16.7783 36.052 16.7783" fill="#0A0A0A"/>
<path d="M34.429 29.6985C34.3998 29.695 34.0755 34.5993 27.8248 34.1718C23.4975 33.8762 21.9545 29.6913 21.8555 29.6913C22.322 29.6009 23.1076 29.4695 23.3148 29.3686C23.9963 29.035 24.839 28.6877 25.059 27.4815C25.186 26.7869 24.9707 23.23 25.0369 22.5264L31.6793 23.8781C31.5864 25.3637 30.9369 28.8073 33.2137 29.4167C33.5925 29.5178 34.0006 29.6105 34.429 29.6985Z" fill="#E98862"/>
<path opacity="0.5" d="M31.7746 28.0096C31.6705 27.704 31.6035 27.3889 31.5748 27.07C31.5018 26.3422 31.5163 25.6094 31.6182 24.8845C30.2682 24.7184 28.9964 24.2105 27.9473 23.4185C27.824 23.8336 27.1456 25.6478 27.3334 26.0424C27.6882 26.7883 29.3564 28.0096 31.7746 28.0096Z" fill="#0C0C0C"/>
<path d="M30.917 26.4819C28.2981 26.7134 24.9097 25.758 24.2078 22.5792L23.5745 19.711C22.8726 16.5323 24.1353 13.6194 27.4189 13.017C30.7026 12.415 33.7259 14.5412 34.4278 17.72L34.7083 18.9899C34.9775 20.2095 35.5894 26.0697 30.917 26.4819Z" fill="#E98862"/>
<path opacity="0.1" d="M29.2489 22.3159C29.6799 22.2691 29.9987 21.9975 29.961 21.7094C29.9233 21.4213 29.5433 21.2257 29.1124 21.2726C28.6814 21.3194 28.3626 21.591 28.4003 21.8791C28.438 22.1672 28.818 22.3628 29.2489 22.3159Z" fill="#0C0C0C"/>
<path opacity="0.1" d="M33.8038 21.1643C33.8419 21.452 34.2223 21.6473 34.6533 21.601C34.7277 21.5929 34.8011 21.5777 34.8721 21.5558C34.8922 21.2127 34.8933 20.8828 34.8824 20.5772C34.7627 20.5499 34.6385 20.5433 34.5161 20.5577C34.0851 20.604 33.7664 20.8755 33.8038 21.1643Z" fill="#0C0C0C"/>
<path opacity="0.5" d="M31.9008 22.0535C31.903 22.0533 31.9051 22.053 31.9072 22.0525C32.0403 22.0273 32.1717 21.9953 32.3009 21.9568C32.4938 21.898 32.7455 21.8014 32.711 21.6425C32.6711 21.4614 31.6948 19.607 31.584 19.3964C31.5795 19.3869 31.5729 19.3784 31.5647 19.3712C31.5564 19.3641 31.5466 19.3586 31.536 19.3549C31.5253 19.3513 31.514 19.3497 31.5026 19.3502C31.4913 19.3506 31.4801 19.3532 31.4699 19.3577C31.4596 19.3622 31.4505 19.3685 31.4429 19.3763C31.4354 19.3841 31.4297 19.3932 31.4262 19.403C31.4226 19.4128 31.4212 19.4232 31.4222 19.4336C31.4231 19.4439 31.4263 19.454 31.4316 19.4631C31.8479 20.2528 32.5183 21.5512 32.5452 21.6731C32.5241 21.73 32.2043 21.841 31.8742 21.9017C31.8632 21.9033 31.8527 21.9069 31.8433 21.9122C31.8338 21.9175 31.8256 21.9244 31.8191 21.9326C31.8126 21.9408 31.808 21.9501 31.8054 21.9599C31.8029 21.9698 31.8025 21.98 31.8042 21.99C31.806 21.9999 31.8099 22.0095 31.8157 22.0181C31.8216 22.0267 31.8292 22.0342 31.8382 22.0401C31.8472 22.046 31.8574 22.0503 31.8681 22.0526C31.8789 22.0549 31.8901 22.0553 31.9011 22.0537L31.9008 22.0535Z" fill="#0C0C0C"/>
<path d="M20.9524 20.7405L23.8962 20.2164C26.1199 19.3688 26.7508 15.8364 26.7508 15.8364C26.7508 15.8364 29.4952 18.2187 36.0543 16.7781C36.0543 16.7781 34.6295 8.43239 24.9445 10.9662C21.8217 11.783 19.6097 14.6843 19.9387 18.5271C20.1692 21.2193 20.9524 20.7405 20.9524 20.7405Z" fill="#0A0A0A"/>
<path d="M24.6247 23.5103C23.6268 23.6934 22.603 22.8687 22.4018 21.9589C22.2006 21.0492 22.8992 20.3995 23.8971 20.2163L24.5459 20.7315L25.4824 23.3528L24.6247 23.5103Z" fill="#E98862"/>
<path d="M32.2894 17.9177C32.5391 17.7568 32.831 17.659 33.1356 17.6343C33.2887 17.6209 33.443 17.6287 33.5935 17.6575C33.7453 17.6857 33.8925 17.7311 34.0319 17.7927L34.0362 17.7945C34.0516 17.8008 34.0691 17.8012 34.0849 17.7958C34.1007 17.7904 34.1136 17.7796 34.1208 17.7657C34.128 17.7518 34.1289 17.7359 34.1234 17.7213C34.1178 17.7068 34.1063 17.6948 34.0912 17.6879C33.9435 17.6169 33.7867 17.563 33.6243 17.5277C33.4607 17.4915 33.2922 17.4778 33.1242 17.4873C32.784 17.5044 32.455 17.6044 32.1715 17.7767C32.161 17.7832 32.1519 17.7916 32.1449 17.8013C32.1379 17.811 32.133 17.8219 32.1306 17.8334C32.1282 17.8448 32.1283 17.8565 32.1309 17.8679C32.1335 17.8793 32.1386 17.8901 32.1457 17.8997C32.1529 17.9094 32.1621 17.9176 32.1728 17.924C32.1835 17.9303 32.1954 17.9347 32.208 17.9369C32.2205 17.939 32.2334 17.9389 32.2459 17.9365C32.2584 17.9341 32.2702 17.9295 32.2808 17.9229L32.2831 17.9216L32.2894 17.9177Z" fill="#0C0C0C"/>
<path d="M29.6031 18.2565C29.2688 18.1959 28.9228 18.2182 28.6011 18.321C28.4422 18.3709 28.2923 18.4423 28.1566 18.5328C28.0214 18.6221 27.8991 18.7265 27.7925 18.8437C27.7818 18.8554 27.7764 18.8704 27.7775 18.8856C27.7786 18.9008 27.7861 18.915 27.7985 18.9252C27.8108 18.9355 27.827 18.941 27.8437 18.9406C27.8604 18.9402 27.8763 18.9339 27.888 18.923L27.8915 18.9198C27.9943 18.8142 28.1112 18.7209 28.2395 18.6419C28.3665 18.563 28.5058 18.502 28.6528 18.461C28.9446 18.3774 29.2554 18.3658 29.5537 18.4274L29.561 18.4291C29.5861 18.4347 29.6125 18.4309 29.6345 18.4187C29.6564 18.4064 29.6722 18.3868 29.6783 18.364C29.6843 18.3411 29.6802 18.3171 29.6668 18.297C29.6534 18.277 29.6318 18.2626 29.6067 18.2571L29.6031 18.2565Z" fill="#0C0C0C"/>
<path d="M23.8972 20.1724C25.8761 19.5009 26.5328 18.2554 26.735 17.3285C26.8659 16.7103 26.8536 16.074 26.699 15.4604L26.6378 15.4758C26.7901 16.0814 26.8018 16.7093 26.6724 17.3193C26.4727 18.2311 25.8254 19.4566 23.875 20.1183L23.8972 20.1724Z" fill="#0C0C0C"/>
<path d="M39.5195 30.2819L58.3091 36.0066L52.7925 38.2417L62.1616 20.7227L69.8187 23.9752L61.1259 41.7814C60.6862 42.6818 59.9058 43.408 58.9272 43.8272C57.9486 44.2465 56.8372 44.3308 55.796 44.0648L55.6092 44.0165L36.5352 39.1354L39.5195 30.2819Z" fill="#367CFF"/>
<path d="M27.7099 32.9458C23.3796 32.7597 23.1973 29.4097 23.1973 29.4097C23.1973 29.4097 21.0517 29.5361 19.6254 29.712C17.2903 29.9999 15.7498 30.7216 14.5238 31.839C13.3834 32.8785 12.6891 34.0031 13.4238 41.1832C13.9558 46.3822 13.5814 57.8176 13.5814 57.8176H39.9697C39.9697 57.8176 41.8124 41.2966 42.0309 38.9567C42.4478 34.489 43.6256 33.5028 41.2392 31.2014C39.5085 29.5324 35.0406 29.4097 33.2423 29.4099C33.2129 29.4099 33.6072 33.1992 27.7099 32.9458Z" fill="#367CFF"/>
<path d="M32.7776 22.6803C31.9267 23.0746 30.9559 23.1993 30.0186 23.0347C29.9861 23.0291 29.9526 23.0321 29.9219 23.0433C29.8913 23.0544 29.8647 23.0733 29.8454 23.0977C29.8261 23.1221 29.8148 23.151 29.8128 23.1811C29.8108 23.2111 29.8183 23.241 29.8343 23.2674C30.1137 23.7161 30.7765 24.483 31.9136 24.1704C32.6477 23.9685 32.9253 23.2801 33.0282 22.8542C33.0352 22.8247 33.0329 22.794 33.0214 22.7658C33.01 22.7375 32.99 22.7127 32.9636 22.6945C32.9373 22.6762 32.9058 22.6652 32.8729 22.6627C32.8399 22.6601 32.8068 22.6663 32.7776 22.6803Z" fill="white"/>
<path d="M32.8291 19.231C33.0562 19.231 33.2403 19.0632 33.2403 18.8562C33.2403 18.6492 33.0562 18.4814 32.8291 18.4814C32.6021 18.4814 32.418 18.6492 32.418 18.8562C32.418 19.0632 32.6021 19.231 32.8291 19.231Z" fill="#0C0C0C"/>
<path d="M28.8799 19.8613C29.107 19.8613 29.2911 19.6936 29.2911 19.4866C29.2911 19.2796 29.107 19.1118 28.8799 19.1118C28.6528 19.1118 28.4688 19.2796 28.4688 19.4866C28.4688 19.6936 28.6528 19.8613 28.8799 19.8613Z" fill="#0C0C0C"/>
<path d="M41.9738 40.5847C41.9711 40.5848 41.9684 40.5848 41.9658 40.5847C41.9491 40.5828 41.9339 40.5749 41.9236 40.5628C41.9132 40.5507 41.9086 40.5354 41.9106 40.5202L42.3193 37.501C42.3201 37.4934 42.3227 37.4861 42.3267 37.4794C42.3308 37.4727 42.3363 37.4669 42.3429 37.4622C42.3495 37.4575 42.3571 37.4541 42.3652 37.4521C42.3733 37.4501 42.3817 37.4497 42.39 37.4508C42.3983 37.4517 42.4063 37.4541 42.4135 37.4579C42.4208 37.4616 42.4272 37.4666 42.4323 37.4726C42.4375 37.4786 42.4412 37.4855 42.4435 37.4928C42.4457 37.5002 42.4463 37.5078 42.4453 37.5154L42.0366 40.5344C42.0346 40.5483 42.0271 40.5611 42.0155 40.5703C42.004 40.5796 41.9891 40.5847 41.9738 40.5847Z" fill="#0C0C0C"/>
<path d="M36.7237 46.7243L40.6959 45.1072C40.7832 45.0717 40.8777 45.0532 40.9733 45.0527C41.0689 45.0523 41.1635 45.07 41.2512 45.1048C41.3388 45.1395 41.4176 45.1905 41.4825 45.2545C41.5473 45.3185 41.5968 45.3942 41.6279 45.4766C41.68 45.6303 41.6677 45.7962 41.5932 45.9421C41.5187 46.0881 41.3875 46.2036 41.2249 46.2663L40.3731 46.6136L43.6008 46.6439C43.9597 46.6415 44.4017 46.8479 44.3781 47.215C44.3791 47.3569 44.3274 47.4948 44.2314 47.6064C44.1353 47.718 44.0006 47.7966 43.8492 47.8294C43.8501 47.8325 43.8506 47.8357 43.8507 47.8388C43.8504 47.8412 43.8498 47.8436 43.8491 47.8459L44.4026 47.8423C44.5051 47.8417 44.6064 47.8619 44.6992 47.9015C44.7919 47.9411 44.8739 47.999 44.939 48.0711C45.0041 48.1432 45.0508 48.2276 45.0756 48.3182C45.1004 48.4088 45.1027 48.5033 45.0824 48.5948C45.0471 48.7385 44.9588 48.8667 44.8322 48.9581C44.7056 49.0494 44.5484 49.0984 44.3869 49.0967L44.1514 49.0982C44.1483 49.1045 44.144 49.1101 44.1387 49.115C44.298 49.1476 44.4395 49.2309 44.5377 49.3498C44.6359 49.4688 44.6845 49.6157 44.6748 49.7643C44.6591 49.9267 44.5767 50.0776 44.4442 50.1871C44.3116 50.2965 44.1387 50.3564 43.9598 50.3547L43.3748 50.3585C43.383 50.3638 43.3898 50.3707 43.3945 50.3787C43.3993 50.3868 43.4019 50.3957 43.4022 50.4049C43.4017 50.4158 43.3977 50.4264 43.3908 50.4353C43.5239 50.5003 43.6299 50.6033 43.6925 50.7286C43.7551 50.8538 43.7708 50.9944 43.7372 51.1286C43.6987 51.2688 43.6095 51.3931 43.4839 51.4813C43.3583 51.5696 43.2037 51.6166 43.0452 51.6148L38.1092 51.6469C37.4187 51.6514 36.7425 51.4678 36.1672 51.1198C35.5919 50.7717 35.1438 50.275 34.8802 49.6933C34.653 49.1917 34.6492 48.6291 34.8698 48.125C35.0904 47.621 35.5179 47.2151 36.0615 46.9938L36.7237 46.7243Z" fill="#E98862"/>
<g opacity="0.2">
<path d="M40.6523 47.8132C40.6526 47.8284 40.6594 47.8429 40.6713 47.8536C40.6831 47.8643 40.6992 47.8703 40.7159 47.8703L43.7854 47.8954C43.8022 47.8955 43.8185 47.8896 43.8305 47.8788C43.8425 47.8681 43.8493 47.8534 43.8495 47.838C43.8496 47.8227 43.8431 47.8079 43.8313 47.797C43.8195 47.786 43.8034 47.7798 43.7865 47.7796L40.717 47.7544C40.7002 47.7544 40.684 47.7605 40.6721 47.7713C40.6602 47.7822 40.6535 47.7969 40.6535 47.8123L40.6523 47.8132Z" fill="#0C0C0C"/>
</g>
<g opacity="0.2">
<path d="M40.6022 49.0475C40.6024 49.0627 40.6092 49.0772 40.6211 49.0879C40.633 49.0986 40.649 49.1045 40.6657 49.1045L44.0913 49.1327C44.1081 49.1327 44.1243 49.1266 44.1362 49.1157C44.1481 49.1049 44.1548 49.0901 44.1548 49.0748C44.1542 49.0596 44.1474 49.0452 44.1356 49.0344C44.1238 49.0237 44.108 49.0174 44.0913 49.0169L40.6657 48.9888C40.6573 48.9887 40.649 48.9901 40.6412 48.993C40.6334 48.9959 40.6264 49.0001 40.6204 49.0055C40.6144 49.0109 40.6097 49.0173 40.6065 49.0244C40.6032 49.0314 40.6016 49.039 40.6016 49.0467L40.6022 49.0475Z" fill="#0C0C0C"/>
</g>
<g opacity="0.2">
<path d="M40.543 50.3829C40.5432 50.3981 40.55 50.4126 40.5619 50.4233C40.5738 50.434 40.5898 50.44 40.6065 50.44L43.339 50.4625C43.3559 50.4626 43.3721 50.4566 43.3841 50.4459C43.3961 50.4351 43.403 50.4204 43.4031 50.4051C43.4033 50.3897 43.3967 50.375 43.3849 50.364C43.3731 50.353 43.357 50.3468 43.3402 50.3467L40.6076 50.3242C40.5908 50.3242 40.5746 50.3303 40.5627 50.3412C40.5508 50.352 40.5441 50.3668 40.5441 50.3821L40.543 50.3829Z" fill="#0C0C0C"/>
</g>
<path d="M37.8607 53.1709L15.8372 57.7342C15.1056 57.8068 14.3654 57.7238 13.6749 57.4919C12.9843 57.26 12.3621 56.8853 11.8571 56.3974C11.3521 55.9095 10.978 55.3215 10.7641 54.6796C10.5503 54.0378 10.5025 53.3595 10.6246 52.698L13.1449 34.2204C13.3545 33.0849 14.0504 32.0718 15.0795 31.4039C16.1086 30.7361 17.3867 30.4683 18.6325 30.6593C19.8782 30.8504 20.9897 31.4847 21.7224 32.4227C22.4551 33.3607 22.749 34.5256 22.5394 35.6611L21.3257 48.8866L36.627 45.7303L37.8607 53.1709Z" fill="#367CFF"/>
<path d="M18.227 49.4065C18.2111 49.4063 18.1958 49.4008 18.1841 49.3908C18.1725 49.3809 18.1654 49.3673 18.1642 49.3528C18.1631 49.3383 18.1679 49.324 18.1778 49.3126C18.1878 49.3012 18.202 49.2936 18.2178 49.2914L21.2867 48.6941C21.2949 48.6929 21.3034 48.6932 21.3115 48.695C21.3196 48.6968 21.3273 48.7 21.334 48.7045C21.3408 48.7091 21.3464 48.7148 21.3507 48.7214C21.3549 48.7279 21.3577 48.7352 21.3588 48.7427C21.3613 48.7579 21.3571 48.7733 21.3471 48.7857C21.3371 48.798 21.3221 48.8062 21.3055 48.8085L18.2366 49.4058C18.2334 49.4062 18.2302 49.4065 18.227 49.4065Z" fill="#0C0C0C"/>
<path d="M16.4975 57.8175C16.4806 57.8185 16.464 57.8133 16.4513 57.8032C16.4387 57.793 16.4309 57.7787 16.4298 57.7633C16.4287 57.748 16.4344 57.7329 16.4455 57.7213C16.4566 57.7098 16.4724 57.7027 16.4892 57.7017L37.722 53.1435L36.5189 45.815L21.309 48.8078C21.2991 48.8089 21.2891 48.8079 21.2798 48.805C21.2704 48.802 21.2619 48.7971 21.255 48.7906C21.248 48.7841 21.2429 48.7762 21.2399 48.7675C21.237 48.7589 21.2363 48.7497 21.238 48.7407L22.0911 41.1841C22.0924 41.1766 22.0953 41.1694 22.0997 41.1629C22.1041 41.1564 22.1099 41.1507 22.1167 41.1463C22.1235 41.1419 22.1313 41.1388 22.1394 41.1371C22.1476 41.1354 22.1561 41.1353 22.1643 41.1367C22.1809 41.1392 22.1957 41.1477 22.2055 41.1602C22.2153 41.1727 22.2192 41.1882 22.2164 41.2034L21.3781 48.6824L36.5485 45.6873C36.5567 45.6853 36.5652 45.6847 36.5736 45.6857C36.582 45.6867 36.5901 45.6892 36.5974 45.6931C36.6047 45.697 36.6111 45.7022 36.6162 45.7084C36.6212 45.7146 36.6249 45.7216 36.627 45.7291L37.8607 53.1703C37.8646 53.1849 37.8621 53.2003 37.8538 53.2133C37.8454 53.2263 37.8318 53.2357 37.8159 53.2397L16.5057 57.817C16.503 57.8173 16.5002 57.8175 16.4975 57.8175Z" fill="#0C0C0C"/>
</svg>
