<svg width="29" height="27" viewBox="0 0 29 27" fill="none" xmlns="http://www.w3.org/2000/svg">
<path fill-rule="evenodd" clip-rule="evenodd" d="M8.93175 2.18101C8.93175 1.40295 9.51389 0.771484 10.2327 0.771484H18.907C19.6258 0.771484 20.2079 1.40295 20.2079 2.18101C20.2079 2.95907 19.6258 3.59053 18.907 3.59053H10.2327C9.51389 3.59053 8.93175 2.95907 8.93175 2.18101ZM11.4379 26.1429H17.7018C22.1009 26.1429 24.3012 26.1429 25.8813 25.1252C26.5611 24.6881 27.1483 24.1216 27.6094 23.4578C28.6651 21.9355 28.6651 19.8142 28.6651 15.5715C28.6651 11.3288 28.6651 9.20889 27.6079 7.6852C27.1474 7.02148 26.5607 6.45489 25.8813 6.01773C24.3012 5.00006 22.1009 5.00006 17.7018 5.00006H11.4379C7.03876 5.00006 4.8385 5.00006 3.25842 6.01773C2.57906 6.45492 1.99236 7.0215 1.53175 7.6852C0.474609 9.20749 0.474609 11.3288 0.474609 15.5687V15.5715C0.474609 19.8142 0.474609 21.9341 1.53034 23.4578C1.98703 24.1174 2.57339 24.6841 3.25842 25.1252C4.8385 26.1429 7.03876 26.1429 11.4379 26.1429ZM8.69636 15.5715C8.69636 12.4423 11.3265 9.90802 14.5698 9.90802C17.8132 9.90802 20.4433 12.4438 20.4433 15.5715C20.4433 18.6992 17.8118 21.235 14.5698 21.235C11.3265 21.235 8.69636 18.6978 8.69636 15.5715ZM11.046 15.5715C11.046 13.694 12.6247 12.1745 14.5698 12.1745C16.515 12.1745 18.0937 13.6954 18.0937 15.5715C18.0937 17.4476 16.515 18.9684 14.5698 18.9684C12.6247 18.9684 11.046 17.4476 11.046 15.5715ZM23.1834 9.90802C22.5351 9.90802 22.0093 10.4154 22.0093 11.0413C22.0093 11.6657 22.5351 12.1731 23.1834 12.1731H23.9671C24.6155 12.1731 25.1413 11.6657 25.1413 11.0413C25.1413 10.4154 24.6155 9.90802 23.9671 9.90802H23.1834Z" fill="#B99AC8" fill-opacity="0.8"/>
</svg>
