<svg width="22" height="23" viewBox="0 0 22 23" fill="none" xmlns="http://www.w3.org/2000/svg">
<path d="M15.3092 17.8986H6.69258C6.30758 17.8986 5.87675 17.5961 5.74841 17.2294L1.95341 6.61441C1.41258 5.09274 2.04508 4.62524 3.34675 5.56024L6.92175 8.11774C7.51758 8.53024 8.19592 8.31941 8.45258 7.65024L10.0659 3.35107C10.5792 1.97607 11.4317 1.97607 11.9451 3.35107L13.5584 7.65024C13.8151 8.31941 14.4934 8.53024 15.0801 8.11774L18.4351 5.72524C19.8651 4.69857 20.5526 5.22107 19.9659 6.88024L16.2626 17.2477C16.1251 17.5961 15.6942 17.8986 15.3092 17.8986Z" stroke="#B99AC8" stroke-width="1.5" stroke-linecap="round" stroke-linejoin="round"/>
<path d="M5.95898 20.6665H16.0423" stroke="#B99AC8" stroke-width="1.5" stroke-linecap="round" stroke-linejoin="round"/>
<path d="M8.70898 13.3335H13.2923" stroke="#B99AC8" stroke-width="1.5" stroke-linecap="round" stroke-linejoin="round"/>
</svg>
