<svg width="18" height="19" viewBox="0 0 18 19" fill="none" xmlns="http://www.w3.org/2000/svg">
<path d="M11 7.1599C11 7.1599 11.5 8.14079 11.5 10.1025C11.5 12.0643 11 13.0452 11 13.0452M7 7.1599C7 7.1599 6.5 8.14079 6.5 10.1025C6.5 12.0643 7 13.0452 7 13.0452M2.99999 3.72682C2.99999 9.47353 1.63107 17.4592 8.99999 17.4592C16.3689 17.4592 15 9.47353 15 3.72682M1 3.72682H17M12 3.72682V2.74594C12 1.00484 10.3627 0.78418 9 0.78418C7.63731 0.78418 6 1.00484 6 2.74594V3.72682" stroke="white" stroke-width="1.5" stroke-linecap="round" stroke-linejoin="round"/>
</svg>
