<svg width="21" height="23" viewBox="0 0 21 23" fill="none" xmlns="http://www.w3.org/2000/svg">
<path d="M3.13727 20.9667L2.59152 21.216C2.67249 21.3933 2.83449 21.5202 3.02598 21.5563L3.13727 20.9667ZM18.0272 13.6714L18.4103 13.2096L18.0272 13.6714ZM19.6577 17.6168L19.1958 17.2338L19.1958 17.2338L19.6577 17.6168ZM12.1473 1.91029L12.5304 1.44853L12.1473 1.91029ZM3.38042 4.11187L3.84218 4.49499L3.38042 4.11187ZM12.8374 7.17513L12.3286 6.85722L12.3099 6.88713L12.2948 6.91903L12.8374 7.17513ZM14.4688 9.34648L14.4057 9.94315L14.4057 9.94315L14.4688 9.34648ZM17.005 10.1316L17.4603 9.74091L17.4603 9.74091L17.005 10.1316ZM12.8421 8.76091L13.3191 8.39695L12.8421 8.76091ZM3.34959 20.7833L2.75995 20.8943L2.82777 21.2545L3.17921 21.3586L3.34959 20.7833ZM4.41073 17.986L4.99957 17.8708L4.99957 17.8708L4.41073 17.986ZM4.00113 14.6217L3.46688 14.3486L3.46688 14.3486L4.00113 14.6217ZM6.22089 9.27345L6.56289 9.76644L7.29191 9.2607L6.55106 8.77246L6.22089 9.27345ZM6.37258 6.86122L6.66548 7.38487L6.66548 7.38487L6.37258 6.86122ZM9.01095 7.65739L8.42088 7.54872L8.28542 8.28425L9.03282 8.25699L9.01095 7.65739ZM11.3171 9.31398L10.8212 8.97623L10.7227 9.12083L10.7174 9.29569L11.3171 9.31398ZM11.0596 11.4234L10.4662 11.5121L10.4662 11.5121L11.0596 11.4234ZM11.2923 12.4819L11.3474 13.0794L11.3474 13.0794L11.2923 12.4819ZM10.5422 13.0574L10.6953 12.4773L10.6509 12.4656L10.6053 12.4607L10.5422 13.0574ZM10.3931 13.4897L10.3096 12.8955L10.2033 12.9104L10.1088 12.9613L10.3931 13.4897ZM9.73079 14.2123L9.55716 14.7866L9.55716 14.7866L9.73079 14.2123ZM7.87926 14.7747L8.35233 14.4056L8.35233 14.4056L7.87926 14.7747ZM9.7387 16.4187L9.30349 16.8318L9.30349 16.8318L9.7387 16.4187ZM10.2499 16.4728L10.5028 17.0169L10.5028 17.0169L10.2499 16.4728ZM11.7649 14.8568L12.1581 14.4036L12.1482 14.395L12.1379 14.3869L11.7649 14.8568ZM11.7901 14.6182L12.1922 15.0635L12.1922 15.0635L11.7901 14.6182ZM11.8691 14.5232L11.562 15.0387L11.6597 15.0969L11.772 15.1153L11.8691 14.5232ZM11.8297 14.2433L11.2331 14.1802L11.2222 14.2829L11.2463 14.3833L11.8297 14.2433ZM11.9087 14.1483L12.1522 14.6967L12.1522 14.6967L11.9087 14.1483ZM12.1797 13.8668L12.75 13.6803L12.75 13.6803L12.1797 13.8668ZM12.7109 13.406L12.8358 13.9929L12.8358 13.9929L12.7109 13.406ZM15.6298 12.527L15.9446 12.0162L15.9048 11.9917L15.8617 11.9737L15.6298 12.527ZM15.2497 16.1213L15.547 16.6425L15.547 16.6425L15.2497 16.1213ZM14.5852 17.5173L14.0733 17.8303L14.0938 17.864L14.1187 17.8946L14.5852 17.5173ZM14.3221 20.0053L14.8516 20.2874L14.8782 20.2376L14.8949 20.1837L14.3221 20.0053ZM13.0323 20.8621L12.9362 20.2698L12.9211 20.2722L12.9062 20.2754L13.0323 20.8621ZM8.497 21.1898L8.49096 20.5898L8.47983 20.5899L8.46871 20.5904L8.497 21.1898ZM3.84218 4.49499C5.29578 2.74299 6.80336 1.81015 8.16352 1.51312C9.50953 1.21918 10.7559 1.53553 11.7642 2.37205L12.5304 1.44853C11.2366 0.375098 9.6128 -0.0316521 7.9075 0.340747C6.21637 0.710053 4.49154 1.83299 2.91866 3.72876L3.84218 4.49499ZM3.13727 20.9667C3.68303 20.7174 3.68308 20.7176 3.68312 20.7176C3.68311 20.7176 3.68313 20.7177 3.68311 20.7176C3.68306 20.7175 3.68294 20.7172 3.68274 20.7168C3.68236 20.716 3.68168 20.7145 3.68072 20.7123C3.6788 20.7081 3.67575 20.7013 3.67162 20.692C3.66337 20.6735 3.65082 20.645 3.63443 20.6071C3.60165 20.5313 3.5535 20.4177 3.4936 20.2701C3.37376 19.9748 3.20709 19.5437 3.02236 19.0063C2.6524 17.9301 2.21251 16.4348 1.92967 14.7549C1.35879 11.364 1.45226 7.37551 3.84218 4.49499L2.91866 3.72876C0.186309 7.02202 0.158212 11.4609 0.746323 14.9541C1.04298 16.7161 1.50273 18.277 1.88753 19.3964C2.08018 19.9568 2.25468 20.4084 2.38166 20.7213C2.44517 20.8778 2.49684 20.9998 2.53302 21.0834C2.55112 21.1253 2.56534 21.1576 2.57524 21.1798C2.58019 21.1909 2.58406 21.1996 2.58679 21.2056C2.58816 21.2086 2.58924 21.211 2.59003 21.2128C2.59042 21.2136 2.59075 21.2143 2.59099 21.2149C2.59112 21.2152 2.59125 21.2155 2.59131 21.2156C2.59142 21.2158 2.59152 21.216 3.13727 20.9667ZM19.1958 17.2338C17.0527 19.8182 13.1601 20.6522 9.63488 20.7896C7.89587 20.8573 6.29527 20.7539 5.12819 20.633C4.54536 20.5726 4.07239 20.5081 3.74645 20.4589C3.58353 20.4343 3.45746 20.4136 3.3729 20.3991C3.33062 20.3919 3.29873 20.3863 3.27782 20.3825C3.26736 20.3806 3.25964 20.3792 3.25474 20.3783C3.25229 20.3778 3.25055 20.3775 3.24951 20.3773C3.249 20.3772 3.24866 20.3772 3.2485 20.3771C3.24842 20.3771 3.24844 20.3771 3.2484 20.3771C3.24846 20.3771 3.24857 20.3771 3.13727 20.9667C3.02598 21.5563 3.02618 21.5564 3.02642 21.5564C3.02656 21.5564 3.02685 21.5565 3.02713 21.5565C3.02769 21.5566 3.02844 21.5568 3.02936 21.557C3.03122 21.5573 3.03378 21.5578 3.03706 21.5584C3.04362 21.5596 3.05302 21.5613 3.06519 21.5635C3.08952 21.5679 3.12492 21.5742 3.1708 21.582C3.26257 21.5977 3.39632 21.6197 3.56736 21.6455C3.90936 21.6971 4.40095 21.7641 5.00456 21.8266C6.21038 21.9515 7.87028 22.0593 9.68162 21.9887C13.2571 21.8493 17.6248 21.0083 20.1195 17.9998L19.1958 17.2338ZM14.4057 9.94315C14.8405 9.98913 15.2637 10.0095 15.6841 10.101C16.0991 10.1913 16.3835 10.3287 16.5496 10.5223L17.4603 9.74091C17.042 9.25333 16.4502 9.03961 15.9393 8.9284C15.4337 8.81836 14.881 8.78672 14.5319 8.74981L14.4057 9.94315ZM16.5496 10.5223C16.9369 10.9737 16.9871 11.4879 17.0033 12.1241C17.0107 12.4169 17.0111 12.7847 17.0744 13.1133C17.1421 13.4646 17.2922 13.8412 17.6441 14.1331L18.4103 13.2096C18.3417 13.1527 18.2879 13.0687 18.2527 12.8862C18.2132 12.6811 18.2118 12.4422 18.2029 12.0936C18.1865 11.447 18.1462 10.5403 17.4603 9.74091L16.5496 10.5223ZM11.7642 2.37205C12.6771 3.1295 13.0876 3.71108 13.1812 4.30102C13.2755 4.89515 13.0743 5.66359 12.3286 6.85722L13.3463 7.49304C14.1355 6.2298 14.5304 5.14665 14.3664 4.11299C14.2017 3.07514 13.4997 2.25274 12.5304 1.44853L11.7642 2.37205ZM20.1195 17.9998C21.1171 16.7967 21.2622 15.1952 20.3879 14.3148L19.5364 15.1603C19.8093 15.4351 19.9701 16.3001 19.1958 17.2338L20.1195 17.9998ZM20.3879 14.3148C20.0073 13.9315 19.5511 13.7358 19.2 13.5938C18.8088 13.4356 18.5808 13.3511 18.4103 13.2096L17.6441 14.1331C17.9949 14.4242 18.4475 14.5839 18.7501 14.7063C19.0928 14.8449 19.3434 14.966 19.5364 15.1603L20.3879 14.3148ZM12.2948 6.91903C11.9265 7.69943 11.8842 8.49465 12.3651 9.12487L13.3191 8.39695C13.2077 8.25106 13.123 7.97589 13.38 7.43123L12.2948 6.91903ZM12.3651 9.12487C12.6373 9.48169 13.0085 9.66378 13.3597 9.76715C13.7015 9.86775 14.0791 9.90861 14.4057 9.94315L14.5319 8.74981C14.1871 8.71335 13.9186 8.68075 13.6986 8.61598C13.4879 8.55398 13.3815 8.47878 13.3191 8.39695L12.3651 9.12487ZM3.93922 20.6723C3.94544 20.7053 3.92455 20.6663 4.02086 20.483C4.11361 20.3065 4.24258 20.1231 4.41387 19.86C4.70724 19.4093 5.15958 18.6889 4.99957 17.8708L3.82188 18.1012C3.87662 18.381 3.73218 18.7076 3.40819 19.2053C3.2708 19.4164 3.08594 19.6825 2.95859 19.9248C2.8348 20.1604 2.68752 20.5097 2.75995 20.8943L3.93922 20.6723ZM4.99957 17.8708C4.92805 17.5052 4.83684 17.1588 4.75148 16.8439C4.66418 16.5218 4.58601 16.2429 4.52848 15.9798C4.41039 15.4398 4.41907 15.1224 4.53539 14.8948L3.46688 14.3486C3.14868 14.9711 3.22794 15.6497 3.35617 16.2361C3.4218 16.5363 3.51073 16.8533 3.59328 17.1578C3.67777 17.4696 3.75919 17.7806 3.82188 18.1012L4.99957 17.8708ZM4.53539 14.8948C4.55965 14.8473 4.66643 14.7328 4.95661 14.558C5.23685 14.3892 5.52981 14.2511 5.87459 14.0646C6.16904 13.9053 6.54323 13.6898 6.77574 13.4065C6.90291 13.2516 7.0255 13.032 7.02996 12.7554C7.03451 12.4735 6.91503 12.2352 6.75834 12.0496L5.84155 12.8239C5.86863 12.856 5.82872 12.8225 5.83012 12.736C5.83143 12.6547 5.86814 12.6208 5.8482 12.6451C5.78649 12.7203 5.6215 12.8372 5.30368 13.0091C5.03619 13.1538 4.64378 13.3456 4.33741 13.5301C4.04097 13.7087 3.65988 13.971 3.46688 14.3486L4.53539 14.8948ZM6.75834 12.0496C6.38667 11.6096 6.08515 11.1851 6.00252 10.7982C5.96559 10.6253 5.97634 10.4746 6.03974 10.3292C6.10549 10.1783 6.24969 9.98371 6.56289 9.76644L5.8789 8.78046C5.4334 9.08951 5.11625 9.44466 4.93971 9.84964C4.76083 10.26 4.74835 10.6712 4.82898 11.0488C4.98145 11.7627 5.47815 12.3936 5.84155 12.8239L6.75834 12.0496ZM6.55106 8.77246C6.28116 8.59459 6.05654 8.34132 6.01139 8.13914C5.99541 8.06756 5.99806 7.99179 6.05937 7.88916C6.13 7.77092 6.29572 7.59169 6.66548 7.38487L6.07968 6.33757C5.59965 6.60607 5.24365 6.91473 5.02918 7.27377C4.80538 7.64842 4.75955 8.03931 4.84023 8.40065C4.98842 9.0643 5.53775 9.54182 5.89073 9.77444L6.55106 8.77246ZM6.66548 7.38487C7.67241 6.82165 8.1184 6.92868 8.25053 7.0045C8.36957 7.07282 8.47349 7.26307 8.42088 7.54872L9.60103 7.76606C9.71029 7.17282 9.55727 6.37083 8.84779 5.96369C8.15139 5.56407 7.19726 5.71246 6.07968 6.33757L6.66548 7.38487ZM9.03282 8.25699C9.02494 8.25728 9.20117 8.26672 9.49654 8.31826C9.77336 8.36656 10.0975 8.44224 10.3781 8.54897C10.6818 8.66454 10.833 8.77907 10.8809 8.84618C10.8933 8.86369 10.8855 8.85842 10.8859 8.84442C10.8862 8.83746 10.8878 8.87845 10.8212 8.97623L11.813 9.65173C11.9708 9.42006 12.0762 9.16192 12.0853 8.88374C12.0946 8.59853 12.0008 8.34997 11.8581 8.14971C11.5955 7.78127 11.1595 7.56237 10.8048 7.42741C10.4268 7.28362 10.0213 7.19169 9.7028 7.13612C9.40283 7.08378 9.11805 7.05309 8.98909 7.05779L9.03282 8.25699ZM10.7174 9.29569C10.6982 9.92486 10.6184 10.2366 10.5547 10.4773C10.481 10.7561 10.3961 11.0435 10.4662 11.5121L11.653 11.3348C11.6221 11.1281 11.6451 11.0478 11.7148 10.7842C11.7946 10.4825 11.8941 10.0772 11.9168 9.33228L10.7174 9.29569ZM10.4662 11.5121C10.4919 11.6845 10.5539 11.8529 10.6031 11.9759C10.6293 12.0416 10.657 12.1062 10.6813 12.1629C10.7066 12.222 10.7278 12.2713 10.7463 12.3171C10.7649 12.3632 10.7764 12.3949 10.783 12.4163C10.7908 12.4419 10.7848 12.4309 10.7828 12.3972C10.7813 12.3715 10.7758 12.2427 10.8704 12.1052C10.983 11.9416 11.1457 11.8929 11.2371 11.8845L11.3474 13.0794C11.5085 13.0645 11.7179 12.9904 11.8589 12.7856C11.9819 12.6069 11.9863 12.4212 11.9807 12.3261C11.9699 12.1448 11.8979 11.964 11.8589 11.8674C11.8346 11.8074 11.8078 11.745 11.7842 11.69C11.7595 11.6325 11.7373 11.5804 11.7172 11.5302C11.6737 11.4215 11.6569 11.3613 11.653 11.3348L10.4662 11.5121ZM11.2371 11.8845C11.2287 11.8852 11.2051 11.8853 11.1526 11.8756C11.1263 11.8708 11.1009 11.8652 11.0646 11.8572C11.0348 11.8506 10.9846 11.8395 10.9347 11.832C10.8919 11.8256 10.795 11.8126 10.6833 11.8306C10.5561 11.851 10.3552 11.9231 10.2265 12.134C10.1147 12.3172 10.1255 12.4993 10.1362 12.5829C10.1482 12.6764 10.1757 12.761 10.1995 12.8244L11.3233 12.4036C11.3134 12.3773 11.3215 12.3914 11.3264 12.4303C11.3302 12.4593 11.3464 12.6025 11.2509 12.759C11.1385 12.9432 10.9647 13.0008 10.8737 13.0154C10.8312 13.0222 10.7988 13.0217 10.7833 13.0211C10.7671 13.0204 10.7572 13.0189 10.7572 13.0188C10.7567 13.0188 10.7601 13.0193 10.7696 13.0212C10.7792 13.0231 10.7907 13.0256 10.8072 13.0293C10.8373 13.0359 10.8843 13.0464 10.9346 13.0557C11.0353 13.0743 11.1818 13.0947 11.3474 13.0794L11.2371 11.8845ZM10.1995 12.8244C10.2278 12.9001 10.238 12.9403 10.2407 12.955C10.2461 12.9842 10.2231 12.9043 10.268 12.7877C10.2946 12.7188 10.3426 12.6439 10.4183 12.583C10.4919 12.5239 10.5664 12.4981 10.6186 12.4877C10.7059 12.4701 10.748 12.4912 10.6953 12.4773L10.389 13.6375C10.504 13.6679 10.674 13.7005 10.8548 13.6642C11.0816 13.6187 11.2916 13.4687 11.3878 13.2191C11.4623 13.0256 11.4397 12.8406 11.4212 12.7392C11.4 12.6233 11.3621 12.5073 11.3233 12.4036L10.1995 12.8244ZM10.6053 12.4607C10.5664 12.4566 10.4941 12.4512 10.4091 12.4653C10.3312 12.4783 10.149 12.5235 10.0131 12.7017C9.86653 12.8939 9.87914 13.0991 9.89979 13.2007C9.91933 13.2969 9.95739 13.3678 9.97327 13.3961C10.0057 13.454 10.0484 13.5098 10.0556 13.5194C10.0642 13.5312 10.0692 13.5379 10.0734 13.5439C10.0774 13.5495 10.0782 13.551 10.0773 13.5495C10.0765 13.5482 10.0718 13.5405 10.0658 13.5276C10.0599 13.515 10.05 13.4918 10.0418 13.4597C10.0251 13.3939 10.0111 13.2689 10.0753 13.1314C10.1388 12.9955 10.2394 12.9318 10.2857 12.909C10.3277 12.8883 10.3453 12.8905 10.3096 12.8955L10.4766 14.0838C10.5807 14.0692 10.7005 14.0423 10.8151 13.9859C10.934 13.9275 11.0775 13.8214 11.1625 13.6394C11.2484 13.4556 11.2345 13.2806 11.2048 13.1637C11.1767 13.0535 11.1285 12.9679 11.0988 12.9197C11.0676 12.8692 11.0343 12.8247 11.0199 12.8052C11.0104 12.7924 11.0072 12.7881 11.0053 12.7854C11.0029 12.7819 11.0104 12.7922 11.0206 12.8103C11.0272 12.8221 11.0588 12.8782 11.0758 12.9617C11.0938 13.0506 11.1077 13.2452 10.9673 13.4293C10.8376 13.5994 10.6664 13.639 10.6055 13.6491C10.5376 13.6604 10.4881 13.655 10.4791 13.6541L10.6053 12.4607ZM10.1088 12.9613C9.79376 13.1308 9.70887 13.4388 9.68002 13.5648C9.66317 13.6383 9.65277 13.7118 9.64618 13.7571C9.63823 13.8119 9.6341 13.8388 9.62937 13.8602C9.61565 13.9224 9.62608 13.7936 9.76878 13.7035C9.91727 13.6098 10.0199 13.6729 9.90441 13.6379L9.55716 14.7866C9.79233 14.8577 10.1165 14.9031 10.4093 14.7183C10.6962 14.5372 10.7736 14.244 10.8012 14.1187C10.8172 14.0464 10.8273 13.9737 10.8337 13.9295C10.8415 13.8759 10.8456 13.8509 10.8497 13.8327C10.8629 13.7753 10.8462 13.9272 10.6773 14.018L10.1088 12.9613ZM9.90441 13.6379C9.74121 13.5886 9.60359 13.4937 9.38962 13.3283C9.1961 13.1788 8.91268 12.9471 8.54328 12.8121L8.13143 13.9392C8.29293 13.9982 8.42571 14.1 8.65592 14.2779C8.86568 14.44 9.15932 14.6663 9.55716 14.7866L9.90441 13.6379ZM8.54328 12.8121C7.95008 12.5954 7.3672 12.9104 7.11813 13.4063C6.85574 13.9287 6.96187 14.5742 7.40619 15.1437L8.35233 14.4056C8.11683 14.1037 8.18657 13.9527 8.19046 13.9449C8.20766 13.9107 8.19375 13.962 8.13143 13.9392L8.54328 12.8121ZM7.40619 15.1437C7.5165 15.2851 7.64261 15.3961 7.76211 15.4917C7.87183 15.5794 8.02176 15.6888 8.1518 15.7882C8.43098 16.0015 8.80261 16.304 9.30349 16.8318L10.1739 16.0057C9.62053 15.4226 9.19901 15.0781 8.88032 14.8346C8.71143 14.7056 8.61125 14.6342 8.51144 14.5544C8.42142 14.4824 8.3786 14.4393 8.35233 14.4056L7.40619 15.1437ZM9.30349 16.8318C9.42276 16.9574 9.56744 17.0123 9.63166 17.0345C9.71696 17.0639 9.8062 17.0827 9.88988 17.0934C10.0298 17.1112 10.2767 17.122 10.5028 17.0169L9.99704 15.9287C10.0259 15.9153 10.0477 15.9096 10.0578 15.9073C10.0686 15.9049 10.074 15.9046 10.0731 15.9047C10.0702 15.9049 10.0583 15.9051 10.0416 15.903C10.0242 15.9008 10.0171 15.898 10.0227 15.9C10.0258 15.901 10.0398 15.9059 10.0607 15.9173C10.0781 15.9267 10.1242 15.9534 10.1739 16.0057L9.30349 16.8318ZM10.5028 17.0169C10.6298 16.9579 10.7159 16.8727 10.7642 16.819C10.816 16.7612 10.8579 16.7011 10.8887 16.6541C10.9383 16.5782 11.0172 16.4413 11.049 16.3896C11.098 16.3096 11.133 16.2613 11.1597 16.2327C11.1868 16.2037 11.174 16.229 11.1185 16.2447L10.7924 15.0898C10.5593 15.1556 10.3922 15.2962 10.2819 15.4145C10.1714 15.5331 10.0862 15.6641 10.0259 15.7624C9.94829 15.889 9.92875 15.9295 9.88463 15.9969C9.86853 16.0215 9.86471 16.0245 9.87125 16.0173C9.87415 16.014 9.91532 15.9667 9.99704 15.9287L10.5028 17.0169ZM11.1185 16.2447C11.0973 16.2506 11.1429 16.2393 11.308 16.2498C11.4489 16.2587 11.6147 16.2784 11.791 16.3002C11.9565 16.3207 12.1427 16.3447 12.29 16.355C12.3617 16.3601 12.4513 16.3641 12.5372 16.3573C12.5791 16.354 12.6453 16.3465 12.7182 16.3239C12.7763 16.3059 12.9347 16.2502 13.0531 16.0876L12.083 15.3812C12.1914 15.2324 12.3312 15.1875 12.363 15.1777C12.4097 15.1632 12.4419 15.1611 12.4432 15.161C12.448 15.1607 12.4296 15.1619 12.3741 15.158C12.267 15.1505 12.1217 15.132 11.9385 15.1093C11.7661 15.0879 11.566 15.0638 11.3839 15.0522C11.2259 15.0422 10.9912 15.0337 10.7924 15.0898L11.1185 16.2447ZM13.0531 16.0876C13.1917 15.8972 13.18 15.6982 13.1634 15.603C13.1463 15.5053 13.1105 15.4292 13.0888 15.3876C13.0437 15.301 12.9849 15.2243 12.9411 15.1707C12.8475 15.0563 12.725 14.9311 12.6155 14.8244C12.5026 14.7143 12.3885 14.6094 12.3036 14.5329C12.2609 14.4943 12.225 14.4625 12.1996 14.44C12.1869 14.4288 12.1768 14.42 12.1697 14.4138C12.1662 14.4107 12.1634 14.4082 12.1614 14.4065C12.1605 14.4057 12.1597 14.405 12.1591 14.4045C12.1588 14.4043 12.1586 14.4041 12.1584 14.4039C12.1583 14.4038 12.1583 14.4038 12.1582 14.4037C12.1582 14.4037 12.1581 14.4037 12.1581 14.4036C12.1581 14.4036 12.1581 14.4036 11.7649 14.8568C11.3717 15.31 11.3716 15.31 11.3716 15.31C11.3716 15.31 11.3716 15.31 11.3716 15.31C11.3716 15.3099 11.3716 15.3099 11.3716 15.31C11.3717 15.31 11.3717 15.3101 11.3719 15.3102C11.3722 15.3104 11.3727 15.3109 11.3733 15.3115C11.3747 15.3127 11.3769 15.3146 11.3798 15.3171C11.3856 15.3222 11.3944 15.3299 11.4057 15.3399C11.4283 15.3598 11.4609 15.3887 11.4998 15.4238C11.5781 15.4945 11.68 15.5883 11.7779 15.6837C11.8794 15.7826 11.9626 15.8698 12.0121 15.9304C12.0399 15.9643 12.0369 15.9656 12.0246 15.9422C12.0194 15.9322 11.9943 15.8839 11.9813 15.8095C11.9688 15.7378 11.9546 15.5577 12.083 15.3812L13.0531 16.0876ZM11.7649 14.8568C12.1379 14.3869 12.1382 14.3871 12.1385 14.3873C12.1386 14.3874 12.1388 14.3876 12.139 14.3878C12.1394 14.3881 12.1398 14.3884 12.1402 14.3887C12.1409 14.3893 12.1417 14.3899 12.1424 14.3905C12.144 14.3917 12.1455 14.393 12.1469 14.3942C12.1499 14.3967 12.1529 14.3992 12.1558 14.4017C12.1617 14.4068 12.1676 14.4121 12.1735 14.4178C12.1852 14.4288 12.198 14.4421 12.211 14.458C12.235 14.4872 12.2719 14.5398 12.295 14.6166C12.3205 14.7014 12.3244 14.8024 12.2916 14.9016C12.2609 14.9948 12.211 15.0466 12.1922 15.0635L11.388 14.1729C11.293 14.2587 11.2018 14.3747 11.1521 14.5255C11.1003 14.6824 11.1074 14.8344 11.1457 14.9617C11.1815 15.0809 11.2407 15.1673 11.2837 15.2197C11.3063 15.2472 11.3279 15.2695 11.3458 15.2866C11.3549 15.2953 11.3634 15.3029 11.3711 15.3096C11.3749 15.3129 11.3786 15.316 11.3821 15.3188C11.3838 15.3203 11.3855 15.3216 11.3871 15.3229C11.3879 15.3236 11.3887 15.3242 11.3895 15.3249C11.3899 15.3252 11.3903 15.3255 11.3907 15.3258C11.3909 15.326 11.3911 15.3262 11.3912 15.3263C11.3915 15.3265 11.3918 15.3267 11.7649 14.8568ZM12.1922 15.0635C12.2326 15.0271 12.2725 14.9877 12.3083 14.9454C12.3382 14.9099 12.3927 14.841 12.4307 14.7453L11.3154 14.3024C11.3331 14.2577 11.3526 14.2256 11.3642 14.2081C11.3765 14.1894 11.3868 14.1766 11.392 14.1705C11.4017 14.159 11.4032 14.1592 11.388 14.1729L12.1922 15.0635ZM12.4307 14.7453C12.4509 14.6944 12.5453 14.4419 12.3767 14.1832C12.1735 13.8713 11.8339 13.8869 11.6754 13.9404C11.5228 13.9919 11.2931 14.1511 11.265 14.46C11.2339 14.8019 11.4744 14.9865 11.562 15.0387L12.1761 14.0077C12.2535 14.0538 12.4906 14.232 12.46 14.5687C12.4324 14.8724 12.207 15.0275 12.0592 15.0774C11.9056 15.1292 11.5715 15.1455 11.3713 14.8382C11.2057 14.5841 11.3005 14.3399 11.3154 14.3024L12.4307 14.7453ZM11.772 15.1153L11.776 15.1159L11.97 13.9317L11.9661 13.9311L11.772 15.1153ZM12.1096 15.0752C12.3751 14.9613 12.4426 14.7205 12.4528 14.6849C12.4732 14.6139 12.4762 14.5545 12.477 14.5309C12.479 14.4771 12.4741 14.4302 12.4716 14.4083C12.4657 14.3568 12.4558 14.3028 12.4483 14.2645C12.4401 14.2227 12.4313 14.1827 12.4249 14.154C12.4216 14.1395 12.4188 14.1273 12.4168 14.1185C12.4157 14.1142 12.4149 14.1106 12.4143 14.1081C12.414 14.1068 12.4137 14.1057 12.4136 14.105C12.4135 14.1046 12.4134 14.1042 12.4133 14.104C12.4133 14.1038 12.4133 14.1037 12.4132 14.1036C12.4132 14.1036 12.4132 14.1035 12.4132 14.1035C12.4132 14.1035 12.4132 14.1035 12.4132 14.1034C12.4132 14.1034 12.4132 14.1034 11.8297 14.2433C11.2463 14.3833 11.2463 14.3832 11.2463 14.3832C11.2463 14.3832 11.2463 14.3832 11.2463 14.3832C11.2462 14.3832 11.2462 14.3831 11.2462 14.3831C11.2462 14.3831 11.2462 14.3831 11.2462 14.3831C11.2462 14.3831 11.2462 14.3831 11.2463 14.3833C11.2463 14.3835 11.2464 14.384 11.2466 14.3847C11.2469 14.3861 11.2475 14.3884 11.2482 14.3915C11.2496 14.3976 11.2517 14.4066 11.2542 14.4177C11.2593 14.4402 11.2654 14.4686 11.2708 14.4957C11.2734 14.5092 11.2756 14.5209 11.2772 14.5305C11.2789 14.5408 11.2794 14.5448 11.2793 14.5439C11.2792 14.5432 11.2787 14.5387 11.2782 14.5313C11.2778 14.525 11.277 14.5091 11.2778 14.4873C11.2784 14.472 11.2805 14.4194 11.2995 14.3534C11.3092 14.3195 11.3296 14.2596 11.3727 14.1938C11.4169 14.1261 11.4994 14.0312 11.6365 13.9724L12.1096 15.0752ZM12.4264 14.3064C12.4214 14.3541 12.401 14.4612 12.316 14.566C12.2416 14.6578 12.1607 14.6929 12.1522 14.6967L11.6652 13.5999C11.6007 13.6286 11.4827 13.6884 11.384 13.8102C11.2747 13.9449 11.2429 14.0872 11.2331 14.1802L12.4264 14.3064ZM12.1522 14.6967C12.3356 14.6152 12.4878 14.5019 12.5978 14.3659C12.6517 14.2993 12.7025 14.2182 12.7372 14.1242C12.7638 14.0519 12.8153 13.8801 12.75 13.6803L11.6094 14.0533C11.5778 13.9565 11.5795 13.8742 11.5845 13.8262C11.5898 13.7751 11.6016 13.7353 11.6113 13.7091C11.6304 13.6571 11.6533 13.6255 11.6647 13.6114C11.6896 13.5806 11.6987 13.585 11.6652 13.5999L12.1522 14.6967ZM12.75 13.6803C12.7187 13.5847 12.6735 13.5131 12.6498 13.4773C12.637 13.458 12.6248 13.4411 12.6182 13.4318C12.6141 13.4261 12.6121 13.4234 12.6098 13.4201C12.6088 13.4188 12.6081 13.4178 12.6076 13.4171C12.6074 13.4168 12.6072 13.4165 12.6071 13.4163C12.607 13.4161 12.6069 13.4161 12.6069 13.4161C12.6069 13.4161 12.607 13.4162 12.6071 13.4163C12.6072 13.4165 12.6074 13.4168 12.6077 13.4172C12.6082 13.4179 12.6089 13.4191 12.6099 13.4207C12.6118 13.4237 12.615 13.4288 12.6189 13.4357C12.6261 13.4487 12.6391 13.4737 12.6509 13.5083C12.677 13.5845 12.697 13.7086 12.6486 13.8474C12.6037 13.976 12.5244 14.0465 12.4904 14.0724C12.4574 14.0976 12.4399 14.1019 12.4624 14.0926C12.508 14.0739 12.6163 14.0396 12.8358 13.9929L12.5861 12.8191C12.3472 12.87 12.1534 12.9221 12.0053 12.9831C11.931 13.0137 11.8438 13.0563 11.7621 13.1186C11.6796 13.1817 11.5727 13.2882 11.5155 13.4522C11.3939 13.801 11.6033 14.0743 11.6168 14.094C11.6276 14.1099 11.6392 14.1258 11.6435 14.1318C11.6498 14.1406 11.6507 14.142 11.6502 14.1412C11.6494 14.1401 11.644 14.1319 11.637 14.1187C11.6299 14.1053 11.6192 14.0831 11.6094 14.0533L12.75 13.6803ZM12.8358 13.9929C13.1157 13.9333 13.282 13.7484 13.3716 13.6085C13.4535 13.4806 13.5056 13.3367 13.5371 13.249C13.6175 13.025 13.654 12.9183 13.7213 12.8351C13.7537 12.795 13.812 12.7315 14.0198 12.723C14.264 12.713 14.6898 12.7837 15.3979 13.0804L15.8617 11.9737C15.0848 11.6481 14.4693 11.5035 13.9705 11.524C13.4351 11.546 13.0484 11.759 12.7885 12.0802C12.5635 12.3582 12.4601 12.6975 12.4077 12.8434C12.3728 12.9406 12.3603 12.9626 12.3611 12.9613C12.3696 12.9481 12.4383 12.8506 12.5861 12.8191L12.8358 13.9929ZM15.315 13.0378C15.6351 13.2351 15.9978 13.6565 16.0642 14.0941C16.0944 14.2928 16.0674 14.5099 15.9264 14.7475C15.78 14.9942 15.4924 15.2922 14.9525 15.6002L15.547 16.6425C16.21 16.2644 16.6765 15.8349 16.9584 15.3599C17.2456 14.8759 17.321 14.3774 17.2506 13.9139C17.116 13.027 16.4657 12.3374 15.9446 12.0162L15.315 13.0378ZM14.9525 15.6002C14.8662 15.6494 14.7757 15.6817 14.6026 15.7541C14.4656 15.8115 14.2422 15.9077 14.0618 16.0763C13.8469 16.2772 13.712 16.5599 13.7328 16.9096C13.7508 17.2139 13.8844 17.5213 14.0733 17.8303L15.0971 17.2044C14.9481 16.9607 14.9316 16.8539 14.9307 16.8385C14.9306 16.8378 14.931 16.844 14.9292 16.8555C14.9274 16.8672 14.9237 16.8816 14.9173 16.8971C14.9036 16.93 14.8859 16.9486 14.8812 16.953C14.8789 16.9551 14.8885 16.9458 14.9228 16.9271C14.9572 16.9084 15.0021 16.8878 15.0659 16.861C15.1712 16.817 15.3766 16.7397 15.547 16.6425L14.9525 15.6002ZM14.1187 17.8946C14.0731 17.8383 14.0876 17.8158 14.0997 17.9049C14.1103 17.9832 14.1136 18.1083 14.0967 18.2892C14.0631 18.65 13.9562 19.1625 13.7492 19.8269L14.8949 20.1837C15.116 19.4742 15.2473 18.8745 15.2915 18.4008C15.3136 18.1644 15.3157 17.9417 15.2888 17.7434C15.2634 17.556 15.2039 17.3283 15.0517 17.1401L14.1187 17.8946ZM13.7925 19.7232C13.6247 20.0384 13.2294 20.2222 12.9362 20.2698L13.1284 21.4543C13.6066 21.3767 14.435 21.0696 14.8516 20.2874L13.7925 19.7232ZM12.9062 20.2754C11.7852 20.5163 10.8725 20.5658 8.49096 20.5898L8.50305 21.7897C10.8824 21.7658 11.9056 21.7178 13.1583 21.4487L12.9062 20.2754ZM8.46871 20.5904C8.05431 20.61 7.03868 20.5824 5.98949 20.5116C4.92159 20.4396 3.9296 20.3293 3.51996 20.208L3.17921 21.3586C3.73975 21.5246 4.8708 21.6389 5.90873 21.7089C6.96537 21.7801 8.03835 21.8121 8.52529 21.7891L8.46871 20.5904Z" fill="#B99AC8"/>
</svg>
