<svg width="93" height="101" viewBox="0 0 93 101" fill="none" xmlns="http://www.w3.org/2000/svg">
<path d="M43.5743 47.4258L41.6507 48.4573L37.3949 51.7345C37.3949 51.7345 24.3556 53.4657 23.8555 53.8408C23.3554 54.2159 16.8706 57.296 15.993 61.4268C15.1178 65.5576 13.3145 92.5162 13.3145 92.5162L15.6804 100.482L63.1704 100.557L74.3078 100.398C74.3078 100.398 78.5877 90.4027 78.5877 87.6496C78.5877 84.8965 77.335 64.2376 77.335 64.2376L63.9783 54.8194L43.5743 47.4258Z" fill="#F4ACC4"/>
<path d="M37.2709 51.5396C37.2709 51.5396 37.2516 51.5805 37.2036 51.6502C37.1483 51.732 37.0785 51.833 36.9944 51.9556C36.8068 52.2153 36.5544 52.6048 36.2562 53.0929C36.1119 53.3406 35.9484 53.6074 35.797 53.908C35.6359 54.2037 35.482 54.5283 35.3233 54.8698C35.0155 55.5599 34.715 56.3365 34.4601 57.1708C33.9576 58.8443 33.6979 60.4096 33.5248 61.5421C33.4454 62.0951 33.3805 62.5519 33.3324 62.8862C33.3108 63.0328 33.2915 63.1531 33.2771 63.2516C33.2627 63.3358 33.2531 63.3791 33.2507 63.3791C33.2459 63.3791 33.2483 63.3334 33.2531 63.2492C33.2603 63.1507 33.2723 63.028 33.2843 62.8814C33.3132 62.5616 33.3637 62.0999 33.4382 61.5301C33.5897 60.3928 33.8349 58.8179 34.3423 57.1348C34.5996 56.2956 34.9025 55.5142 35.2199 54.8217C35.3834 54.4779 35.5397 54.1533 35.708 53.8575C35.8643 53.557 36.0326 53.2901 36.1817 53.0448C36.4894 52.5591 36.7563 52.1768 36.9559 51.9243C37.0473 51.8065 37.1242 51.7103 37.1843 51.6334C37.2372 51.5685 37.2661 51.5348 37.2709 51.5372L37.2709 51.5396Z" fill="#263238"/>
<g opacity="0.3">
<path d="M37.5671 59.4645C37.4878 59.212 37.3868 58.9235 37.1391 58.8249C36.9444 58.7479 37.0237 58.873 36.829 58.9523C35.0256 59.6953 34.1552 61.364 33.3906 63.2418L33.4339 63.1961C33.3209 63.4847 33.4387 63.8982 33.7297 64.0665C34.136 64.3046 34.6578 64.1747 35.0761 63.9583C35.4945 63.7419 35.8768 63.4414 36.3312 63.326C37.3195 63.0735 38.3005 63.7492 38.9978 64.4921C39.6951 65.2375 40.3226 66.1223 41.2724 66.4902C39.6205 64.3984 38.3582 62.0035 37.5647 59.4596L37.5671 59.4645Z" fill="#3C424E"/>
</g>
<path d="M33.252 63.3792C33.252 63.3792 33.4659 62.8045 34.0142 61.85C34.2907 61.3739 34.6561 60.8041 35.1587 60.2029C35.4159 59.9072 35.7069 59.6018 36.0579 59.3253C36.4114 59.056 36.8298 58.8084 37.3275 58.717L37.3635 58.7098L37.378 58.7459C37.6809 59.5321 37.9983 60.3905 38.3638 61.2946C38.7317 62.1962 39.1524 63.146 39.7079 64.0789C40.2585 65.0118 40.9461 65.9231 41.7757 66.7526C42.6028 67.5822 43.5646 68.3275 44.6081 68.9984C44.9543 69.2052 45.2934 69.4216 45.6396 69.6139C45.9907 69.8015 46.3369 69.9866 46.6807 70.1693L46.6182 70.1741C47.2073 69.7678 47.7868 69.3662 48.3542 68.9767C48.6379 68.782 48.9193 68.5872 49.1958 68.3973C49.4747 68.2073 49.7464 68.0174 50.0037 67.8154C51.0352 67.0099 51.9272 66.1371 52.6966 65.2835L52.7014 65.2787L52.7062 65.2787C53.7762 64.454 54.6058 63.5115 55.1756 62.5809C55.7575 61.6528 56.0917 60.7488 56.2889 59.9914C56.4836 59.2316 56.5461 58.616 56.5726 58.1976C56.587 57.9885 56.5822 57.8274 56.5894 57.7192C56.5918 57.611 56.599 57.5557 56.599 57.5557C56.599 57.5557 56.6038 57.611 56.6062 57.7192C56.6062 57.8274 56.6159 57.9885 56.6062 58.2001C56.5894 58.6208 56.5389 59.2412 56.3514 60.0082C56.1614 60.7728 55.8344 61.6889 55.2525 62.6266C54.6827 63.5716 53.8508 64.5261 52.7736 65.3605L52.7808 65.3533C52.009 66.2188 51.1169 67.0941 50.0782 67.9092C49.8185 68.1135 49.5468 68.3059 49.2679 68.4958C48.9914 68.6882 48.7101 68.883 48.4263 69.0777C47.8589 69.4696 47.2794 69.8712 46.6903 70.2799L46.6591 70.3016L46.6278 70.2847C46.2816 70.102 45.9329 69.9145 45.5795 69.7269C45.2309 69.5346 44.8894 69.3158 44.5408 69.1066C43.4924 68.4333 42.5235 67.6807 41.6891 66.8416C40.8524 66.0049 40.1623 65.084 39.6093 64.1414C39.0515 63.2013 38.6307 62.2443 38.2676 61.3378C37.9045 60.429 37.592 59.5682 37.2938 58.7819L37.3443 58.8108C36.8706 58.8949 36.4595 59.133 36.1108 59.3951C35.7646 59.6644 35.4761 59.9625 35.2164 60.2534C34.7114 60.8449 34.3436 61.4076 34.0598 61.8764C33.7785 62.3477 33.5814 62.7276 33.4515 62.9849C33.389 63.1099 33.3409 63.2085 33.3049 63.2806C33.2712 63.3479 33.2544 63.3816 33.252 63.3792Z" fill="#263238"/>
<path d="M60.126 57.4599C60.126 57.4599 60.2054 58.8641 59.9529 61.1266C59.8255 62.2567 59.5971 63.5984 59.2196 65.0627C58.8445 66.527 58.3083 68.1067 57.6278 69.7225L57.5364 69.9389L57.5076 69.7033C57.4908 69.5638 57.4763 69.4099 57.4547 69.2585C57.3345 68.3712 57.1253 67.5152 56.8488 66.7194C56.7093 66.3202 56.5554 65.9355 56.3847 65.5652C56.3006 65.3801 56.2116 65.1998 56.1202 65.0218C56.0265 64.8439 55.9423 64.6708 55.8269 64.5193C55.7139 64.3702 55.5768 64.2356 55.4133 64.1755C55.2522 64.113 55.0743 64.1538 54.9397 64.2644C54.805 64.3726 54.692 64.5217 54.5718 64.654C54.454 64.7886 54.3386 64.9209 54.2231 65.0531C53.7663 65.5749 53.3407 66.0606 52.9512 66.5054C52.1746 67.3854 51.5446 68.0995 51.1022 68.602C50.8858 68.8425 50.7175 69.0324 50.5948 69.1671C50.5395 69.2272 50.4963 69.2753 50.4602 69.3114C50.4289 69.3426 50.4121 69.3594 50.4121 69.357C50.4121 69.357 50.4241 69.3378 50.4506 69.3017C50.4842 69.2609 50.5251 69.2104 50.5756 69.1479C50.6934 69.0084 50.8569 68.8136 51.0661 68.566C51.5013 68.0586 52.1217 67.3349 52.8839 66.4453C53.2686 65.998 53.6918 65.5075 54.1438 64.9834C54.2568 64.8511 54.3722 64.7189 54.49 64.5842C54.6103 64.452 54.716 64.3029 54.8699 64.1779C55.0166 64.0504 55.2522 63.9903 55.4494 64.0697C55.6466 64.1442 55.7932 64.2933 55.9159 64.4496C56.0409 64.6083 56.1299 64.791 56.2236 64.9665C56.315 65.1445 56.4064 65.3272 56.4905 65.5123C56.6612 65.885 56.8199 66.2746 56.9618 66.6761C57.2431 67.4816 57.4547 68.3424 57.5749 69.2392C57.599 69.3931 57.611 69.547 57.6278 69.6888L57.5076 69.6696C58.1856 68.061 58.7242 66.4861 59.1041 65.0291C59.4864 63.572 59.7245 62.2375 59.8615 61.1122C60.001 59.9869 60.0563 59.0709 60.0827 58.4385C60.0996 58.1235 60.0996 57.8759 60.1068 57.7099C60.1092 57.633 60.114 57.5705 60.114 57.52C60.1164 57.4767 60.1188 57.4551 60.1212 57.4551L60.126 57.4599Z" fill="#263238"/>
<path d="M42.1944 50.8164C42.1944 50.8164 42.1823 50.8332 42.1583 50.8645C42.127 50.8982 42.0886 50.9414 42.0429 50.9943C41.9347 51.1025 41.7976 51.2805 41.6197 51.5089C41.2759 51.9729 40.8431 52.6967 40.468 53.6609C40.0833 54.6202 39.7635 55.82 39.6048 57.1761C39.4557 58.5322 39.4725 60.0518 39.7971 61.5955C39.951 62.3697 40.1866 63.1055 40.4704 63.7907C40.7421 64.4832 41.0955 65.1084 41.4586 65.6878C42.204 66.8324 43.0696 67.7268 43.863 68.3856C44.2501 68.7295 44.6445 68.9819 44.9739 69.2296C45.3249 69.446 45.6183 69.6431 45.8707 69.785C46.1184 69.9197 46.3131 70.0278 46.455 70.1072C46.5151 70.1433 46.5656 70.1697 46.6065 70.1938C46.6402 70.213 46.657 70.225 46.657 70.2274C46.657 70.2274 46.6377 70.2226 46.6017 70.2058C46.5608 70.1865 46.5079 70.1601 46.4454 70.1312C46.2987 70.0567 46.0992 69.9581 45.8491 69.8307C45.5918 69.6936 45.2937 69.5013 44.9378 69.2897C44.6036 69.0492 44.2021 68.7968 43.8077 68.4578C43.0022 67.8013 42.1198 66.9069 41.3624 65.7552C40.9945 65.1733 40.6363 64.5409 40.3574 63.8436C40.0712 63.1512 39.8308 62.4082 39.6769 61.6268C39.3475 60.0687 39.3355 58.5346 39.4918 57.1689C39.6577 55.8008 39.9895 54.5962 40.3862 53.6344C40.7757 52.6678 41.2254 51.9441 41.5812 51.4848C41.7664 51.2588 41.9106 51.0857 42.0236 50.9823C42.0741 50.9342 42.115 50.8933 42.1487 50.8597C42.1775 50.8332 42.1919 50.8188 42.1944 50.8212L42.1944 50.8164Z" fill="#263238"/>
<path d="M21.7358 73.9175C21.7358 73.9175 21.7551 73.9391 21.7839 73.9872C21.8176 74.0473 21.8609 74.1195 21.9138 74.2108L21.8777 74.2229C21.707 73.415 21.2381 70.9384 20.7092 68.0074C20.3894 66.2017 20.1008 64.569 19.8892 63.3668C19.7931 62.785 19.7137 62.3089 19.6536 61.9578C19.6296 61.8015 19.6103 61.6741 19.5959 61.5731C19.5839 61.4842 19.5791 61.4385 19.5839 61.4385C19.5887 61.4385 19.6007 61.4818 19.6199 61.5683C19.6416 61.6693 19.668 61.7943 19.7017 61.9482C19.769 62.2969 19.8628 62.7705 19.9758 63.35C20.197 64.5522 20.5 66.1824 20.8318 67.9834C21.3608 70.912 21.7936 73.3981 21.9138 74.2132L21.933 74.3359L21.8801 74.2253C21.8344 74.1315 21.7984 74.0546 21.7671 73.9944C21.7431 73.9439 21.7334 73.9175 21.7358 73.9151L21.7358 73.9175Z" fill="#263238"/>
<path d="M21.1572 73.4254C21.126 73.4398 20.5201 72.2208 19.806 70.7036C19.0894 69.1864 18.5364 67.9433 18.5677 67.9288C18.5989 67.9144 19.2048 69.1311 19.919 70.6507C20.6355 72.1679 21.1885 73.4109 21.1572 73.4254Z" fill="#263238"/>
<g opacity="0.3">
<path d="M20.9082 99.8616C22.4158 100.619 25.9094 99.2821 27.179 97.6159C28.4485 95.9496 28.8164 93.7832 29.0929 91.7058C29.5089 88.5752 29.8046 85.4278 29.9825 82.2756C32.5697 84.1679 35.8109 85.1489 39.0112 85.0022C41.0502 84.9108 43.3752 84.1005 44.0052 82.1578C44.6304 80.2366 43.2863 78.2626 41.8893 76.8031C40.5597 75.4133 39.1098 74.1414 37.5589 73.0041C36.5394 72.2587 35.4262 71.5518 34.1711 71.4147C32.8174 71.2657 31.4492 71.8211 30.4177 72.7131C29.3886 73.6052 28.6697 74.8074 28.1431 76.0625C26.5346 79.8952 26.6211 84.1895 26.2941 88.3323C25.9647 92.4776 25.5271 96.7695 21.8555 99.4673" fill="#3C424E"/>
</g>
<path d="M21.0083 99.8761C21.0083 99.8761 21.0419 99.8569 21.1117 99.8256C21.1886 99.792 21.2896 99.7487 21.4146 99.6958C21.6671 99.5539 22.0398 99.3471 22.4437 98.9889C23.2636 98.2916 24.2759 97.1038 25.2208 95.5265L25.2136 95.5457C25.4324 93.8987 25.6897 91.9751 25.9638 89.9314C26.4038 86.6902 26.7957 83.7568 27.1083 81.6361C27.3031 80.5901 27.4618 79.739 27.5724 79.1403C27.6277 78.8541 27.6734 78.6281 27.7046 78.4622C27.719 78.3901 27.7311 78.3324 27.7431 78.2867C27.7527 78.2482 27.7575 78.2266 27.7599 78.2266C27.7599 78.2266 27.7599 78.2482 27.7551 78.2867C27.7479 78.3348 27.7407 78.3925 27.7287 78.4646C27.7022 78.6305 27.6661 78.8589 27.6205 79.1451C27.5195 79.7462 27.3728 80.5973 27.1949 81.6457C26.9088 83.7784 26.5192 86.707 26.0864 89.9458C25.8075 91.9896 25.5454 93.9107 25.3218 95.5577L25.3218 95.5698L25.3146 95.5794C24.3504 97.1639 23.3237 98.3469 22.4822 99.037C22.0686 99.3904 21.6839 99.5924 21.4266 99.7246C21.292 99.7799 21.1838 99.816 21.1141 99.84C21.0419 99.8641 21.0059 99.8761 21.0059 99.8737L21.0083 99.8761Z" fill="#263238"/>
<path d="M44.1507 100.398C44.1507 100.398 44.1411 100.374 44.129 100.321C44.1146 100.263 44.0978 100.189 44.0761 100.095C44.0353 99.8953 43.9535 99.6044 43.891 99.2221C43.7491 98.4623 43.6025 97.3466 43.5592 95.9617C43.5207 94.5767 43.5856 92.9249 43.8189 91.1095C44.0401 89.2918 44.4079 87.3129 44.8359 85.2475C45.2471 83.1749 45.764 81.2297 46.18 79.4528C46.6056 77.676 46.8773 76.0506 46.9518 74.6728C47.024 73.2951 46.9374 72.177 46.8316 71.4124C46.7907 71.0277 46.7234 70.7343 46.697 70.5324C46.6825 70.4362 46.6705 70.3617 46.6633 70.304C46.6561 70.2511 46.6537 70.2246 46.6561 70.2246C46.6561 70.2246 46.6657 70.2511 46.6753 70.3016C46.6873 70.3593 46.7018 70.4338 46.7234 70.5276C46.7571 70.7271 46.8316 71.0205 46.8797 71.4052C46.9999 72.1698 47.1009 73.2927 47.0384 74.6776C46.9759 76.0626 46.7114 77.7 46.2906 79.4793C45.8771 81.2634 45.3649 83.2038 44.9562 85.274C44.5282 87.3394 44.1579 89.3134 43.9319 91.1264C43.6938 92.9369 43.6193 94.5839 43.6457 95.9617C43.677 97.3418 43.8092 98.4527 43.9367 99.2149C43.992 99.5972 44.0641 99.8881 44.0978 100.09C44.1146 100.184 44.129 100.261 44.1386 100.319C44.1483 100.369 44.1507 100.398 44.1483 100.398L44.1507 100.398Z" fill="#263238"/>
<path d="M48.1989 73.2857C48.1677 73.2664 48.5836 72.6028 49.0453 71.7589C49.5093 70.9149 49.8412 70.2104 49.8748 70.2248C49.8892 70.232 49.8267 70.4172 49.7017 70.7081C49.5767 70.9991 49.3867 71.3934 49.1559 71.819C48.9227 72.2421 48.6918 72.6148 48.5139 72.8769C48.336 73.139 48.2133 73.2929 48.2013 73.2833L48.1989 73.2857Z" fill="#263238"/>
<g opacity="0.3">
<path d="M48.9725 72.2875C50.2252 70.8208 51.5838 69.4455 53.036 68.1711C53.4328 67.8225 53.8632 67.469 54.3849 67.3824C55.0197 67.2766 55.6665 67.6036 56.1065 68.0749C56.5465 68.5462 56.8206 69.1425 57.0875 69.7292C57.7175 68.1783 57.0635 66.4351 56.4143 64.8914C56.2027 64.3889 55.8372 63.795 55.2986 63.8744C55.0125 63.9176 54.7961 64.1509 54.6061 64.3697C52.5239 66.7861 50.5955 69.3397 48.8379 72.0014" fill="#3C424E"/>
</g>
<g opacity="0.3">
<path d="M70.1161 60.8355L70.2051 60.0732C69.289 60.1598 68.1637 60.268 67.4328 60.8258C66.5792 61.4774 66.2426 62.5859 65.9565 63.6198C65.3025 65.9737 67.1563 78.0801 67.0625 80.5206C67.8752 80.1767 68.4451 74.9807 68.5917 74.1103C68.9476 71.992 68.2287 70.6696 68.4451 70.0781C68.6639 69.489 68.6567 68.8446 68.6759 68.2147C68.7552 65.4063 69.0341 63.4298 70.1185 60.8355" fill="#3C424E"/>
</g>
<path d="M58.1638 21.9801C57.0001 20.5375 57.38 18.2316 58.712 16.9428C60.0441 15.654 62.071 15.2814 63.8984 15.5891C66.5457 16.034 68.926 17.8325 70.0802 20.2537C70.7029 21.5642 71.0444 23.1102 72.1889 24.0022C73.1939 24.7861 74.5789 24.8534 75.7234 25.4137C77.2574 26.1662 78.248 27.7724 78.5991 29.4459C78.9501 31.1194 78.7386 32.8578 78.3851 34.5313C78.0605 36.0653 77.6277 37.7244 78.2865 39.1478C78.9285 40.5351 80.4313 41.2925 81.4195 42.4587C83.2781 44.6539 82.8574 48.3928 80.5539 50.1192C79.8206 50.6698 78.8924 51.0882 78.5414 51.937C78.2216 52.7112 78.4933 53.5888 78.4789 54.428C78.4356 56.5848 76.06 58.3568 73.9802 57.7846C72.9294 57.496 71.9629 56.7194 70.8857 56.8685C69.8133 57.0151 69.0992 58.0058 68.2288 58.6478C66.5168 59.9101 63.8912 59.7153 62.3836 58.215C61.7512 57.5874 61.2439 56.7314 60.3831 56.503C59.5247 56.2746 58.6206 56.7675 57.7406 56.6497C56.5889 56.4934 55.8315 55.3489 55.4901 54.2356C55.1486 53.1224 55.0573 51.9177 54.4826 50.9055C53.73 49.5806 52.2946 48.8329 51.09 47.8999C48.4306 45.8441 46.7235 42.603 46.5335 39.2464C46.3436 35.8898 47.6732 32.4755 50.0825 30.1312" fill="#263238"/>
<path d="M42.0399 50.8242C39.7389 53.4619 38.8324 57.2513 39.6884 60.6439C40.5443 64.0366 43.384 68.9969 46.6588 70.228C48.7844 68.6699 51.5158 66.4939 53.497 64.7579C54.7786 63.6351 55.4591 61.9904 56.0938 60.4083C56.4593 59.4946 56.832 58.5088 56.6036 57.5518C56.4353 56.8473 55.9568 56.2606 55.4543 55.7389C52.2299 52.3871 47.3176 50.7473 42.7252 51.4927" fill="#FFEDE5"/>
<path d="M51.7749 26.3947C52.9939 23.923 55.7759 22.6414 58.4448 23.3219L66.6487 25.4137C70.7483 26.7362 73.9582 33.0791 71.5418 38.6357C69.6326 43.0238 67.6778 48.5372 65.7182 51.5668C61.7749 57.6572 56.3842 56.265 56.3842 56.265L53.4748 62.7546L41.5801 51.6004L51.7773 26.3923L51.7749 26.3947Z" fill="#FFEDE5"/>
<path d="M65.6244 40.3546C65.7783 40.2969 66.1822 41.064 67.0718 41.4919C67.9567 41.932 68.8295 41.7901 68.8752 41.9464C68.8992 42.0185 68.6996 42.1628 68.3149 42.2301C67.935 42.2998 67.3604 42.271 66.8074 41.9993C66.2543 41.7276 65.8865 41.2972 65.7206 40.9582C65.5474 40.6167 65.5498 40.3763 65.6244 40.3522L65.6244 40.3546Z" fill="#263238"/>
<path d="M56.3358 36.1258C56.5113 36.0946 56.9081 36.9482 57.865 37.5396C58.8148 38.1432 59.791 38.1504 59.8295 38.3187C59.8511 38.3956 59.6227 38.5086 59.1923 38.511C58.7691 38.5182 58.1343 38.386 57.5404 38.0133C56.9465 37.6406 56.5666 37.1381 56.4031 36.763C56.2348 36.3831 56.2517 36.1379 56.3334 36.1282L56.3358 36.1258Z" fill="#263238"/>
<path d="M60.2715 45.1948C60.2907 45.1419 60.8942 45.2934 61.8584 45.5795C62.0989 45.6589 62.3393 45.7094 62.4475 45.5675C62.5749 45.4256 62.5894 45.1323 62.5966 44.8149C62.6278 44.1609 62.6591 43.4732 62.6927 42.7543C62.8538 39.8305 63.0799 37.4694 63.1977 37.4766C63.3155 37.4838 63.2794 39.8594 63.1183 42.7832C63.0727 43.5021 63.0294 44.1874 62.9885 44.8414C62.9596 45.1419 62.9789 45.5074 62.7072 45.8007C62.5677 45.945 62.3441 45.9955 62.1782 45.969C62.0099 45.9474 61.8801 45.8945 61.7622 45.8488C60.8245 45.493 60.2547 45.2453 60.2739 45.1924L60.2715 45.1948Z" fill="#263238"/>
<path d="M56.3718 56.2819C56.3718 56.2819 51.6207 54.5002 48.418 49.9414C48.418 49.9414 48.5983 55.5077 55.6433 57.9145L56.3718 56.2843L56.3718 56.2819Z" fill="#D37A57"/>
<path d="M57.081 33.0435C57.2325 32.8006 58.1726 33.13 59.3364 33.2334C60.4977 33.3608 61.4836 33.2214 61.5845 33.4883C61.6278 33.6157 61.4162 33.8297 60.993 34.0052C60.5723 34.1808 59.9351 34.2986 59.2378 34.2312C58.5405 34.1615 57.9394 33.9211 57.5619 33.6662C57.1796 33.4113 57.0137 33.1589 57.081 33.0435Z" fill="#263238"/>
<path d="M67.562 35.6875C67.8649 35.6875 68.24 36.4329 68.8892 37.1494C69.5144 37.8852 70.2117 38.3564 70.166 38.6546C70.1371 38.7916 69.8847 38.8517 69.4879 38.7339C69.0936 38.6185 68.567 38.3059 68.127 37.8058C67.6894 37.3081 67.449 36.7455 67.3889 36.3439C67.3264 35.9376 67.4201 35.6971 67.562 35.6899L67.562 35.6875Z" fill="#263238"/>
<path d="M58.1842 47.7079C58.1842 47.7079 58.742 47.417 58.4847 46.3446C58.225 45.2746 56.8641 44.3032 56.0009 45.1833C56.0009 45.1833 55.1305 45.2506 55.472 46.2557C55.8158 47.2607 57.7995 48.6793 58.1697 47.8714" fill="#D37A57"/>
<path d="M57.8594 48.5275C57.7007 48.5011 57.9435 47.4552 57.2198 46.503C56.5009 45.5508 55.3588 45.409 55.3852 45.2599C55.3852 45.1902 55.681 45.1156 56.1546 45.2118C56.6187 45.3032 57.2583 45.6085 57.7007 46.1904C58.1407 46.7723 58.2345 47.4335 58.1696 47.8711C58.107 48.3183 57.9315 48.5492 57.8594 48.5275Z" fill="#263238"/>
<path d="M44.7596 22.9805C43.4852 23.9591 42.7254 25.5749 42.788 27.181C42.824 28.0803 43.0428 29.1406 42.3816 29.749C41.7084 30.3693 40.6456 30.0351 39.7295 30.0399C38.1354 30.0495 36.6566 31.3744 36.4739 32.9589C36.409 33.5263 36.4835 34.1419 36.1926 34.6348C35.892 35.1469 35.2861 35.3777 34.7788 35.6855C33.514 36.4525 32.7086 37.9168 32.735 39.3956C32.7639 40.8743 33.6271 42.3073 34.9206 43.0238C35.5097 43.3508 36.1974 43.5528 36.6278 44.0722C37.1207 44.6661 37.1399 45.5076 37.3804 46.2386C37.842 47.6428 39.2582 48.6767 40.7394 48.6863C42.2181 48.6959 43.6487 47.686 44.132 46.2867" fill="#263238"/>
<path d="M58.0557 20.6797C57.5749 22.0839 57.7504 23.6996 58.5222 24.9692C59.2964 26.2363 60.6501 27.1332 62.1192 27.3496C63.2589 27.5179 64.6199 27.3736 65.3556 28.2584C66.1298 29.1914 65.6706 30.6797 66.2837 31.7256C67.1589 33.2212 68.6497 34.4138 70.0659 35.4116C71.1575 36.1835 69.9096 38.3306 70.3857 39.5809C70.8618 40.8312 72.8214 43.6829 74.1582 43.7334C74.4516 42.6153 76.1155 37.7055 76.1443 36.5489C76.1732 35.3924 75.9135 34.1926 75.197 33.2861C74.805 32.7884 74.2881 32.3917 73.9491 31.8555C73.2157 30.699 73.4634 29.2034 73.2253 27.8569C72.9176 26.1209 71.7153 24.5676 70.1116 23.8343C68.7771 23.2236 67.2118 23.1562 65.9784 22.3604C65.0671 21.7713 64.4155 20.8311 63.4705 20.2974C61.6311 19.2586 59.3277 20.0497 57.4258 20.973" fill="#263238"/>
<path d="M49.2009 34.6568C49.0109 34.5293 47.751 35.4839 48.9941 36.2461C51.1749 37.5805 53.048 33.0746 52.9662 31.5767C54.0771 31.1078 55.2023 30.6317 56.1785 29.8888C57.1571 29.1458 58.619 26.7125 58.8811 25.4838C59.7155 25.8229 63.7453 25.8517 63.3967 25.6113C62.6008 25.0607 60.9922 23.8801 60.7782 22.9544C60.3142 20.9467 58.8883 19.201 57.0057 18.6745C55.123 18.1503 52.8532 19.0087 51.8145 20.8337C49.5711 20.0931 46.9118 20.7591 45.1229 22.5095C43.334 24.26 42.4853 27.0251 42.9878 29.468C43.12 30.1076 43.3364 30.776 43.1297 31.4108C42.8748 32.197 42.0861 32.6202 41.461 33.1299C39.749 34.5173 39.0133 36.9674 39.2249 39.1795C39.4364 41.3916 39.8139 42.2716 40.908 43.0723C43.0503 44.6376 38.5973 48.6337 42.5863 49.9826" fill="#263238"/>
<path d="M78.974 49.9295C78.9643 49.9126 79.1158 49.8309 79.3491 49.6097C79.5799 49.3909 79.9117 49.0374 80.1521 48.4796C80.3974 47.9338 80.5657 47.1716 80.3782 46.3348C80.1906 45.4981 79.5582 44.6974 78.7119 44.0169C77.8896 43.31 76.81 42.6801 76.0454 41.5668C75.2711 40.4488 75.1437 38.9292 75.3889 37.4865C75.6294 36.0222 76.2401 34.5988 76.632 33.084C76.8292 32.3266 76.9518 31.5379 76.9254 30.7397C76.8989 29.9462 76.7234 29.1335 76.2978 28.4458C75.8746 27.7582 75.223 27.2436 74.5089 26.895C73.7924 26.5439 73.0182 26.3395 72.2487 26.2073C71.4769 26.0775 70.6883 26.0053 69.9405 25.7649C69.1951 25.5413 68.4834 25.0508 68.1444 24.3511C67.7957 23.6634 67.7188 22.9349 67.5649 22.2736C67.4303 21.6052 67.1778 21.0041 66.7883 20.5064C66.0237 19.4989 64.8912 18.9411 63.8428 18.7439C62.7777 18.5516 61.7822 18.7584 60.9912 19.0878C60.1977 19.4268 59.5918 19.8788 59.1422 20.29C58.2525 21.1315 57.9568 21.7687 57.9207 21.7423C57.9159 21.7399 57.9327 21.7014 57.9736 21.6268C58.0145 21.5547 58.0674 21.4417 58.1588 21.3071C58.3295 21.0305 58.6156 20.6386 59.0556 20.201C59.5004 19.7682 60.1064 19.2897 60.9191 18.9267C61.7269 18.5732 62.7608 18.3376 63.8789 18.5251C64.9777 18.7175 66.1703 19.2849 66.9927 20.3477C67.411 20.867 67.6923 21.5307 67.8342 22.2135C67.9929 22.8892 68.0795 23.6009 68.3993 24.2188C68.707 24.8416 69.3226 25.2696 70.0295 25.4812C70.7364 25.7072 71.5082 25.7769 72.2968 25.9067C73.0855 26.0414 73.8886 26.2506 74.6436 26.6185C75.3962 26.9815 76.1031 27.5345 76.5623 28.2847C77.024 29.0325 77.2091 29.9005 77.2356 30.7348C77.262 31.5716 77.1298 32.3939 76.9278 33.1657C76.5214 34.7142 75.9131 36.1232 75.6727 37.5394C75.4274 38.9388 75.5476 40.379 76.2594 41.4274C76.9639 42.4805 78.0242 43.1249 78.8513 43.851C79.7025 44.5531 80.3637 45.4043 80.5465 46.3012C80.7292 47.1884 80.532 47.9771 80.2603 48.5349C79.9934 49.1047 79.6352 49.4558 79.3875 49.6626C79.1351 49.8717 78.9716 49.9343 78.9716 49.9343L78.974 49.9295Z" fill="#455A64"/>
<path d="M71.6001 35.4116C71.629 35.4237 71.4823 35.7555 71.3356 36.3854C71.1962 37.013 71.0639 37.9555 71.2515 39.0928C71.3428 39.6579 71.5112 40.271 71.7973 40.8793C72.0714 41.4973 72.4946 42.0719 72.9755 42.6827C73.2087 42.9928 73.4443 43.327 73.6174 43.7142C73.7954 44.0989 73.8819 44.5485 73.8435 44.9909C73.7737 45.8854 73.3337 46.6788 73.0067 47.4867C72.6629 48.2874 72.4705 49.1458 72.7855 49.8887C73.0788 50.6317 73.6727 51.1968 74.2137 51.7378C74.7619 52.2764 75.2909 52.8198 75.6251 53.4521C75.7838 53.7695 75.8944 54.1085 75.9281 54.4403C75.9497 54.7722 75.9377 55.0943 75.856 55.3877C75.5578 56.5803 74.7259 57.2607 74.1368 57.5324C73.829 57.6647 73.5742 57.72 73.401 57.7344C73.2279 57.7464 73.1365 57.7464 73.1365 57.7344C73.1293 57.6959 73.5092 57.7104 74.0815 57.4218C74.6297 57.1309 75.3895 56.4553 75.6396 55.3372C75.7646 54.789 75.7117 54.1542 75.3943 53.5747C75.0769 52.9929 74.5648 52.4783 74.0094 51.9445C73.466 51.4083 72.8336 50.8313 72.497 49.9993C72.3311 49.5882 72.2758 49.1193 72.3359 48.6673C72.3936 48.2153 72.5451 47.7825 72.7134 47.3665C73.0524 46.537 73.4708 45.7651 73.5357 44.9669C73.6198 44.1638 73.1967 43.4593 72.7422 42.8558C72.2782 42.2523 71.8309 41.6319 71.5592 40.9875C71.2731 40.3479 71.112 39.7132 71.0327 39.1265C70.8692 37.9483 71.0399 36.9841 71.2202 36.3542C71.3116 36.0392 71.403 35.7988 71.4775 35.6425C71.5496 35.4862 71.5929 35.4068 71.6025 35.4092L71.6001 35.4116Z" fill="#455A64"/>
<path d="M35.5239 42.9589C35.5239 42.9589 35.4734 42.9301 35.3869 42.8579C35.2979 42.7882 35.1801 42.6704 35.0382 42.5045C34.7617 42.1727 34.3987 41.61 34.24 40.7973C34.0789 40.0039 34.1414 38.9026 34.8291 37.9408C35.4903 36.9983 36.743 36.2145 38.2121 36.2842L38.0799 36.4597C37.8106 35.7047 37.6086 34.8584 37.6759 33.9591C37.7288 33.0695 38.1544 32.1173 38.9623 31.545C39.3542 31.2541 39.8519 31.0666 40.3689 31.0642C40.893 31.0642 41.3763 31.2685 41.8212 31.4753C42.2684 31.6821 42.706 31.9153 43.1676 31.9947C43.6245 32.0764 44.0982 31.9466 44.4396 31.6172C44.9517 31.1387 45.1826 30.4246 45.2282 29.7273C45.2835 29.0204 45.2162 28.2991 45.2908 27.5801C45.4374 26.1375 46.1299 24.8463 47.0628 23.935C47.9957 23.0069 49.1956 22.5068 50.3184 22.3553C51.4485 22.2038 52.5137 22.3793 53.3745 22.74L53.2374 22.7929C53.6173 22.0091 54.2809 21.5234 54.8917 21.2733C55.5096 21.016 56.0987 20.98 56.5579 21.0256C57.022 21.0737 57.3562 21.2156 57.5702 21.319C57.7794 21.4392 57.8804 21.5137 57.8756 21.521C57.8611 21.5618 57.45 21.2132 56.5483 21.1411C56.1059 21.1146 55.5409 21.1675 54.9566 21.4272C54.3795 21.6796 53.7664 22.1509 53.4274 22.8819L53.3841 22.9732L53.2903 22.9348C52.456 22.603 51.4293 22.4491 50.3497 22.6078C49.2749 22.7689 48.1424 23.2546 47.26 24.1418C46.3776 25.0146 45.726 26.2481 45.5937 27.6114C45.524 28.2918 45.5937 29.0084 45.5384 29.7537C45.4903 30.4919 45.2475 31.295 44.6512 31.8528C44.2544 32.2447 43.6461 32.4106 43.1147 32.3073C42.581 32.2135 42.1289 31.9634 41.6889 31.7614C41.2513 31.5571 40.8089 31.3767 40.3665 31.3743C39.9241 31.3743 39.4913 31.533 39.1378 31.7927C38.4093 32.3073 38.0173 33.1536 37.9596 33.9856C37.8899 34.8223 38.075 35.6398 38.3299 36.3756L38.3948 36.5631L38.1977 36.5511C36.8416 36.4693 35.6442 37.1883 35.007 38.0683C34.3434 38.9603 34.2592 40.0015 34.3939 40.7709C34.5237 41.5595 34.8531 42.1149 35.1056 42.4564C35.3628 42.7978 35.5432 42.9469 35.5287 42.9613L35.5239 42.9589Z" fill="#455A64"/>
<path d="M57.9569 22.4905C57.9737 22.5458 57.488 22.4665 56.8725 22.9113C56.2569 23.3465 55.7256 24.3973 55.5693 25.7341L55.5548 25.8495L55.4418 25.8399C54.3069 25.7461 52.8715 26.1886 51.9001 27.3186C51.6669 27.6 51.4601 27.9294 51.3302 28.278C51.2076 28.6363 51.1451 29.033 51.085 29.4418C51.0225 29.8505 50.9672 30.2737 50.8373 30.7017C50.7267 31.1249 50.4526 31.5673 50.0799 31.8366C49.2817 32.4593 48.3031 32.5675 47.4447 32.7046C46.5719 32.8224 45.752 32.9667 45.0426 33.3273C43.6144 34.0198 42.6719 35.222 42.2607 36.3401C41.8327 37.4678 41.8496 38.48 41.9337 39.1461C42.0203 39.8193 42.1621 40.1752 42.1333 40.1848C42.1237 40.1896 42.0828 40.103 42.0179 39.9323C41.9578 39.7616 41.8736 39.5067 41.8135 39.1653C41.6909 38.4921 41.6356 37.4485 42.0539 36.2631C42.4579 35.0898 43.4221 33.8106 44.9176 33.0676C45.6582 32.6829 46.5358 32.5218 47.4014 32.4016C48.2574 32.2646 49.1879 32.1443 49.8852 31.5937C50.5728 31.1104 50.645 30.1992 50.7796 29.3985C50.8421 28.9897 50.9071 28.5762 51.0465 28.1794C51.198 27.7803 51.4192 27.4389 51.6765 27.1335C52.7344 25.9265 54.2588 25.4889 55.4611 25.6115L55.3336 25.7173C55.526 24.3275 56.1103 23.2503 56.7931 22.8103C57.1249 22.5891 57.4351 22.5146 57.6395 22.4953C57.8463 22.4833 57.9545 22.4833 57.9545 22.4953L57.9569 22.4905Z" fill="#455A64"/>
<path d="M49.6611 35.3392C50.3464 33.9951 49.4255 32.3072 47.9179 32.3096C47.0908 32.3096 46.1988 32.7592 45.4582 34.1802C43.4841 37.9648 47.6919 39.167 47.7544 39.0612C47.7929 38.9963 48.8581 36.9141 49.6611 35.3392Z" fill="#FFEDE5"/>
<path d="M47.3462 37.0248C47.3366 37.0032 47.2572 37.0368 47.1178 37.0296C46.9831 37.0224 46.7787 36.9599 46.62 36.782C46.2978 36.4261 46.2906 35.6158 46.6297 34.9233C46.8004 34.5747 47.0432 34.2838 47.3053 34.0746C47.565 33.8582 47.8463 33.7572 48.0651 33.8269C48.2887 33.8846 48.3681 34.0794 48.3608 34.2116C48.356 34.3439 48.2935 34.4064 48.3104 34.4232C48.3152 34.4376 48.4258 34.4016 48.4763 34.2309C48.5003 34.1467 48.5027 34.0361 48.4522 33.9159C48.3993 33.7957 48.2863 33.6875 48.1372 33.6297C47.8343 33.4975 47.4327 33.6297 47.1418 33.8582C46.8364 34.0794 46.5551 34.4016 46.3628 34.7935C45.9901 35.5677 46.0069 36.4862 46.4734 36.9286C46.7042 37.1378 46.9663 37.1715 47.1274 37.1426C47.2933 37.1114 47.3582 37.0368 47.3486 37.0224L47.3462 37.0248Z" fill="#D37A57"/>
<path d="M15.9968 61.2305L11.6087 86.5372C11.6087 86.5372 9.99292 91.4614 10.2237 92.5386C10.4546 93.6158 11.2697 98.2636 13.7318 99.7255C16.194 101.187 21.0702 100.233 22.0704 99.2326C23.0706 98.2323 25.0423 96.4002 25.2731 95.5538C25.5039 94.7074 27.1221 81.8389 27.1221 81.8389L27.7641 78.2298C27.7641 78.2298 25.3789 78.9993 23.917 77.999C22.4551 76.9988 20.5316 72.69 20.5316 72.69L18.3772 75.9985L15.9968 61.2305Z" fill="#F4ACC4"/>
<path d="M20.5324 72.69C20.5324 72.69 20.5059 72.7405 20.4482 72.8319C20.3809 72.9328 20.2943 73.0651 20.1885 73.2262C19.9625 73.57 19.6355 74.0653 19.2436 74.6881C18.4549 75.9264 17.3994 77.6624 16.2477 79.5859C15.0959 81.5119 14.0572 83.2575 13.2854 84.5078C12.9007 85.133 12.5809 85.6379 12.3573 85.9817C12.2491 86.1452 12.1625 86.2751 12.0952 86.376C12.0351 86.465 12.0014 86.5107 11.9966 86.5083C11.9918 86.5083 12.0207 86.4554 12.0736 86.3616C12.1361 86.2582 12.2154 86.1236 12.3164 85.9553C12.5352 85.5898 12.8382 85.0825 13.2084 84.4621C13.9658 83.1878 14.9973 81.447 16.1395 79.521C17.2912 77.5974 18.3587 75.8663 19.1666 74.6376C19.5682 74.0221 19.9072 73.5316 20.1452 73.1973C20.2607 73.0386 20.3544 72.9136 20.4242 72.815C20.4891 72.7285 20.5251 72.6852 20.5276 72.6876L20.5324 72.69Z" fill="#263238"/>
<path d="M27.2134 81.3344C27.2134 81.3344 27.1846 81.3728 27.1221 81.4402C27.0571 81.5051 26.9706 81.6061 26.8407 81.7215C26.5859 81.9547 26.1915 82.2745 25.6265 82.5414C25.3428 82.6688 25.0206 82.789 24.6575 82.8468C24.2969 82.9117 23.9001 82.9309 23.489 82.8756C23.0802 82.8227 22.657 82.7121 22.2435 82.539C21.8323 82.3635 21.4236 82.1398 21.034 81.8681C20.6517 81.5868 20.3127 81.267 20.017 80.9304C19.7284 80.5866 19.4832 80.2307 19.2836 79.8725C18.8845 79.1511 18.6681 78.4346 18.5551 77.8263C18.4445 77.2156 18.4396 76.7106 18.4565 76.3668C18.4637 76.1937 18.4853 76.0614 18.4949 75.9701C18.507 75.8787 18.5142 75.833 18.519 75.833C18.531 75.833 18.5142 76.0254 18.507 76.3668C18.5046 76.7106 18.5238 77.2083 18.644 77.8095C18.7667 78.4082 18.9879 79.1103 19.387 79.8148C19.5866 80.1658 19.8294 80.5144 20.1131 80.8511C20.4041 81.1805 20.7359 81.493 21.111 81.7672C21.4909 82.0316 21.8924 82.2529 22.294 82.4284C22.6979 82.5991 23.1091 82.7097 23.5058 82.7626C23.9025 82.8203 24.2896 82.8059 24.6407 82.7458C24.9941 82.6929 25.3115 82.5799 25.5904 82.462C26.1459 82.2096 26.5474 81.9066 26.8071 81.6854C27.0668 81.4618 27.2038 81.3296 27.211 81.3368L27.2134 81.3344Z" fill="#263238"/>
<path d="M20.5322 72.6897L23.8142 70.5786C23.8142 70.5786 32.5688 67.0224 33.456 66.818C34.3456 66.6137 35.3699 66.2025 35.8484 66.818C36.3269 67.4336 41.3185 71.0571 41.3185 71.0571C41.3185 71.0571 44.2591 76.5969 44.2591 77.3495C44.2591 78.1021 45.079 79.0638 44.2591 79.3355L43.4392 79.6072C43.4392 79.6072 43.1651 80.9489 42.1408 81.098C41.1141 81.2471 40.7727 81.098 40.7727 81.098C40.7727 81.098 40.7054 82.4397 39.8831 82.3555C39.0607 82.2713 37.695 81.098 37.695 81.098C37.695 81.098 37.0795 81.7953 36.601 81.7953C36.1225 81.7953 34.6173 80.7686 34.6173 80.7686L31.708 78.2391L29.1448 77.3495L27.7599 78.2295C27.7599 78.2295 24.8 78.482 24.3576 78.2391C23.9128 77.9987 20.5273 72.6897 20.5273 72.6897L20.5322 72.6897Z" fill="#FFEDE5"/>
<path d="M37.3418 81.3338C37.3418 81.3338 37.2793 81.1967 37.1904 80.9467C37.1471 80.8192 37.0918 80.6654 37.0172 80.4922C36.9451 80.3167 36.8706 80.1147 36.7648 79.9008C36.6662 79.6844 36.5556 79.4463 36.4185 79.2011C36.2935 78.951 36.1348 78.6961 35.9737 78.4268C35.6347 77.8955 35.2307 77.3328 34.7523 76.7846C34.269 76.2412 33.764 75.7651 33.2831 75.3612C33.0355 75.1664 32.8047 74.9765 32.5714 74.8178C32.3454 74.6495 32.1266 74.51 31.9246 74.385C31.7275 74.2527 31.5351 74.1541 31.3716 74.058C31.2081 73.9618 31.0639 73.8873 30.9436 73.8271C30.7056 73.7069 30.5758 73.6348 30.5782 73.6276C30.5806 73.6204 30.7176 73.6757 30.9653 73.7839C31.0879 73.8368 31.2394 73.9041 31.4053 73.9955C31.5736 74.0844 31.7684 74.1806 31.9727 74.308C32.1795 74.4307 32.4031 74.5677 32.634 74.7312C32.872 74.8851 33.1076 75.075 33.3577 75.2698C33.8482 75.6738 34.3603 76.1522 34.8484 76.7004C35.3293 77.2559 35.7381 77.8257 36.0723 78.3643C36.2334 78.6384 36.3897 78.8981 36.5123 79.153C36.6446 79.403 36.7528 79.6435 36.8465 79.8647C36.9475 80.0835 37.0172 80.2903 37.0846 80.4682C37.1543 80.6461 37.2024 80.8024 37.2384 80.9322C37.313 81.1895 37.3515 81.3338 37.3418 81.3362L37.3418 81.3338Z" fill="#D37A57"/>
<path d="M40.7688 81.2502C40.7688 81.2502 40.74 81.2166 40.6943 81.1444C40.651 81.0723 40.5813 80.9689 40.5068 80.8271C40.3553 80.5457 40.1629 80.1226 39.973 79.5816C39.7806 79.043 39.5979 78.3866 39.3815 77.6652C39.1579 76.9487 38.9006 76.1576 38.4582 75.4171C38.0254 74.6693 37.4171 74.0946 36.8135 73.6546C36.2076 73.2122 35.6257 72.8564 35.1809 72.4933C34.7313 72.135 34.4211 71.7792 34.2528 71.5051C34.1711 71.368 34.1085 71.2574 34.0797 71.1781C34.046 71.1011 34.0292 71.0602 34.034 71.0578C34.046 71.0506 34.1158 71.2165 34.2937 71.4762C34.4716 71.7383 34.7866 72.0749 35.2362 72.4212C35.681 72.7722 36.2677 73.1184 36.8833 73.5585C37.4964 73.9985 38.124 74.5875 38.5688 75.3498C39.0208 76.1072 39.2781 76.9078 39.4969 77.6292C39.7085 78.3529 39.8816 79.0093 40.0619 79.5479C40.2399 80.0889 40.4178 80.5121 40.5548 80.7982C40.6967 81.0819 40.7809 81.2382 40.7736 81.243L40.7688 81.2502Z" fill="#D37A57"/>
<path d="M43.2357 79.6626C43.2357 79.6626 43.2188 79.6217 43.1996 79.5424C43.178 79.4486 43.1515 79.3356 43.1179 79.1962C43.0866 79.0447 43.0433 78.8619 42.9808 78.6528C42.9207 78.4436 42.863 78.2007 42.7716 77.941C42.6875 77.679 42.5937 77.3928 42.4711 77.0947C42.3605 76.7893 42.2138 76.4767 42.0671 76.1449C41.7521 75.4909 41.3674 74.7888 40.8986 74.0939C40.4225 73.4015 39.9127 72.7859 39.4198 72.2522C39.165 71.9925 38.9293 71.74 38.6865 71.5284C38.4533 71.3048 38.2224 71.1124 38.0084 70.9369C37.8017 70.7566 37.5973 70.6123 37.4242 70.4801C37.251 70.3454 37.0972 70.2372 36.9673 70.1531C36.8495 70.0713 36.7533 70.004 36.6764 69.9511C36.6115 69.903 36.5778 69.8766 36.5802 69.8718C36.5802 69.8669 36.6211 69.8886 36.6908 69.9295C36.7726 69.98 36.8735 70.0401 36.9962 70.1122C37.1284 70.1915 37.2895 70.2925 37.465 70.4224C37.643 70.5498 37.8521 70.6893 38.0637 70.8672C38.2801 71.0379 38.5182 71.2279 38.7562 71.4515C39.0039 71.6631 39.2443 71.9155 39.504 72.1728C40.0065 72.7066 40.5235 73.3269 41.002 74.0242C41.4732 74.7263 41.8603 75.4356 42.1729 76.0968C42.3196 76.4335 42.4639 76.7484 42.5696 77.0586C42.6899 77.3616 42.7788 77.6525 42.8582 77.917C42.9447 78.1791 42.9976 78.4243 43.0505 78.6383C43.1058 78.8499 43.1419 79.0375 43.1659 79.1889C43.19 79.3308 43.2092 79.4462 43.2261 79.54C43.2381 79.6193 43.2429 79.6626 43.2381 79.6626L43.2357 79.6626Z" fill="#D37A57"/>
<path d="M30.3527 70.3293C30.3551 70.3509 30.1819 70.375 29.9295 70.4856C29.6794 70.5914 29.3476 70.8005 29.0975 71.1323C28.8475 71.4642 28.7369 71.8393 28.7008 72.1085C28.6647 72.3803 28.6864 72.5558 28.6647 72.5582C28.6503 72.5606 28.5974 72.3899 28.6118 72.1013C28.6239 71.8176 28.7273 71.4137 28.9966 71.0578C29.2658 70.702 29.6265 70.4952 29.8958 70.4062C30.1699 70.3148 30.3503 70.3196 30.3503 70.3317L30.3527 70.3293Z" fill="#D37A57"/>
<path d="M32.7923 68.0112C32.8115 68.0425 32.3883 68.3118 31.97 68.759C31.5468 69.2014 31.3015 69.639 31.2703 69.6222C31.2414 69.6102 31.4434 69.1317 31.881 68.6724C32.3138 68.2108 32.7827 67.9824 32.7947 68.0112L32.7923 68.0112Z" fill="#D37A57"/>
<path d="M67.1047 39.4574C66.6887 39.6281 66.6045 40.1258 66.6117 40.5754C66.619 41.1381 66.7608 41.2294 67.2225 42.1744C67.9727 43.7156 68.8719 46.6394 68.8719 46.6394C68.8719 46.6394 68.1362 54.021 68.6194 55.7546C69.0571 57.3199 70.5358 57.719 70.5358 57.719L69.8625 63.42L77.915 63.42C77.915 63.42 77.6289 57.9018 77.4557 56.2187C77.273 54.4394 77.3956 43.6795 77.3956 43.6795L76.6046 37.9329L74.7387 34.7086C74.7387 34.7086 73.7673 35.2929 74.1881 36.4735C74.6089 37.654 74.8854 39.9214 74.8854 39.9214L70.2232 32.9053C70.2232 32.9053 69.3071 33.1241 69.2518 34.8192C69.2518 34.8192 67.8957 35.7016 68.7685 37.1347C69.7423 38.7336 70.7546 43.5377 70.3987 43.5401L67.5062 39.2915L67.1047 39.4574Z" fill="#FFEDE5"/>
<path d="M69.8646 63.4203C69.8646 63.4203 69.8742 63.2929 69.9006 63.0428C69.9295 62.7903 69.9704 62.42 70.0233 61.9392C70.1339 60.9678 70.2974 59.5419 70.5066 57.717L70.5282 57.7506C70.1675 57.6376 69.8189 57.4453 69.5039 57.1808C69.1865 56.9187 68.9148 56.5749 68.7345 56.1661C68.5421 55.7598 68.4916 55.2909 68.4532 54.822C68.4243 54.3483 68.4147 53.8603 68.4195 53.3553C68.4412 51.338 68.5974 49.085 68.8259 46.6373L68.8259 46.6566C68.4508 45.4688 68.0324 44.2161 67.5106 42.9465C67.3784 42.6291 67.2365 42.3141 67.0778 42.0016C66.9288 41.6842 66.734 41.3908 66.6186 41.0326C66.5681 40.8523 66.5585 40.6647 66.5609 40.482C66.5657 40.2992 66.5825 40.1117 66.6402 39.929C66.6955 39.7486 66.8037 39.5683 66.9769 39.4625C67.0634 39.4072 67.1524 39.3783 67.2341 39.3423L67.489 39.2365L67.5323 39.2196L67.5587 39.2581C68.5181 40.6647 69.5328 42.1555 70.5763 43.6871L70.4681 43.7087C70.5138 43.3529 70.4945 42.9706 70.4537 42.5955C70.408 42.2204 70.3503 41.8429 70.2613 41.4702C70.0954 40.72 69.8598 39.977 69.5881 39.2365C69.3236 38.4935 68.9894 37.7722 68.6648 37.0292C68.5109 36.6517 68.4291 36.2189 68.5349 35.8053C68.6311 35.3918 68.8788 35.0239 69.2226 34.7666L69.1961 34.8123C69.2418 34.4565 69.3116 34.0862 69.4534 33.7279C69.5231 33.55 69.6169 33.3745 69.7347 33.2158C69.8574 33.0595 69.9992 32.9128 70.2156 32.8431L70.2541 32.8311L70.2805 32.8695C70.2974 32.896 70.3166 32.9224 70.3334 32.9513C71.9108 35.3269 73.452 37.6471 74.9403 39.8881L74.8273 39.929C74.7047 38.9936 74.5556 38.0703 74.3344 37.1807C74.2791 36.9595 74.2166 36.7383 74.1421 36.5243C74.0699 36.3031 74.0146 36.0698 74.0267 35.8318C74.0435 35.3533 74.32 34.9157 74.7071 34.656L74.7576 34.6224L74.7889 34.6777C75.426 35.7813 76.0464 36.8561 76.6523 37.9044L76.6571 37.914L76.6571 37.9261C76.9336 39.9362 77.1957 41.8549 77.4458 43.6727L77.4458 43.6775L77.4458 43.6823C77.4121 46.659 77.3953 49.3808 77.3977 51.7924C77.4001 52.9971 77.4073 54.1247 77.4337 55.1659C77.4482 55.6876 77.477 56.1805 77.5251 56.6566C77.566 57.1327 77.5948 57.5871 77.6237 58.0175C77.7343 59.7391 77.804 61.0904 77.8497 62.0113C77.8714 62.4705 77.8882 62.8216 77.8978 63.062C77.9074 63.3001 77.9098 63.4227 77.9098 63.4227C77.9098 63.4227 77.8978 63.3001 77.8834 63.062C77.8689 62.8216 77.8473 62.4705 77.8185 62.0113C77.7607 61.0904 77.6838 59.7391 77.5636 58.0199C77.5323 57.5895 77.5011 57.1375 77.4578 56.6614C77.4073 56.1877 77.376 55.6852 77.3592 55.1659C77.3279 54.1247 77.3159 52.9971 77.3111 51.7924C77.2991 49.3808 77.3111 46.659 77.3376 43.6823L77.3376 43.6895C77.0851 41.8717 76.8206 39.953 76.5417 37.9453L76.5489 37.9669C75.943 36.9186 75.3202 35.8438 74.6831 34.7426L74.7648 34.7642C74.4138 34.9999 74.1541 35.4086 74.1421 35.8438C74.1324 36.0626 74.1805 36.279 74.2527 36.4906C74.3272 36.7094 74.3921 36.9306 74.4474 37.1566C74.671 38.0559 74.8201 38.9792 74.9451 39.9217L74.9788 40.1838L74.8321 39.9626C73.3438 37.7217 71.8002 35.4014 70.2228 33.0282C70.2036 32.9994 70.1868 32.9729 70.1699 32.9465L70.2349 32.9729C70.081 33.021 69.9343 33.1581 69.8261 33.2999C69.7155 33.4466 69.6289 33.6101 69.5616 33.7808C69.4246 34.1222 69.3572 34.4853 69.3116 34.834L69.3116 34.8604L69.2851 34.8772C68.9749 35.1081 68.7345 35.4591 68.6479 35.839C68.5494 36.2213 68.6239 36.6253 68.773 36.9883C69.0928 37.7217 69.4318 38.4526 69.6963 39.2004C69.9704 39.9434 70.206 40.6936 70.3743 41.451C70.4633 41.8285 70.5234 42.2108 70.5691 42.5907C70.61 42.973 70.6316 43.3505 70.5811 43.74L70.5619 43.8915L70.4729 43.7616C69.4294 42.23 68.4171 40.7392 67.4601 39.3302L67.5299 39.3519C67.3664 39.424 67.1764 39.4865 67.0322 39.5683C66.8879 39.6548 66.7941 39.8087 66.7412 39.9722C66.6883 40.1381 66.6691 40.3161 66.6667 40.4916C66.6667 40.6695 66.6715 40.845 66.7196 41.0085C66.823 41.3355 67.0201 41.6409 67.1716 41.9583C67.3303 42.2733 67.4722 42.5931 67.6044 42.9104C68.1286 44.1872 68.5421 45.4399 68.9196 46.6325L68.9196 46.6421L68.9196 46.6518C68.6864 49.0971 68.5253 51.35 68.4965 53.3625C68.4892 53.8651 68.4989 54.3532 68.5253 54.822C68.5638 55.2909 68.6095 55.7453 68.797 56.1421C69.1457 56.9451 69.855 57.4693 70.5426 57.6953L70.5691 57.7049L70.5691 57.729C70.3455 59.554 70.1723 60.9774 70.0521 61.9488C69.992 62.4297 69.9463 62.7999 69.9151 63.05C69.8838 63.2977 69.8622 63.4251 69.8622 63.4251L69.8646 63.4203Z" fill="#D37A57"/>
<path d="M73.4232 44.1588C73.4232 44.1588 73.3847 44.017 73.3366 43.7621C73.2933 43.5048 73.214 43.1345 73.1106 42.6777C72.8942 41.7688 72.5263 40.5281 71.9204 39.237C71.3217 37.9434 70.6292 36.8494 70.1075 36.0751C69.8478 35.688 69.6314 35.3754 69.4799 35.1638C69.3308 34.9499 69.2491 34.8272 69.2563 34.8224C69.2635 34.8176 69.3573 34.9282 69.5184 35.135C69.6819 35.3394 69.9103 35.6423 70.1796 36.027C70.7206 36.7916 71.4299 37.8857 72.0334 39.1865C72.6417 40.4873 73.0024 41.7424 73.1972 42.6585C73.2909 43.1177 73.3559 43.4928 73.3847 43.7525C73.4184 44.0122 73.4328 44.1564 73.4232 44.1588Z" fill="#D37A57"/>
<path d="M75.9232 42.3673C75.892 42.3818 75.6275 41.8215 75.3342 41.117C75.0408 40.4125 74.8292 39.8331 74.8605 39.8186C74.8917 39.8042 75.1562 40.3644 75.4496 41.0689C75.7429 41.771 75.9545 42.3529 75.9232 42.3673Z" fill="#D37A57"/>
<path d="M69.2168 61.0591C67.8054 73.5309 65.9636 86.8082 63.8477 100.602L80.2387 100.602C83.3212 93.7786 81.4361 87.8252 80.6138 79.34L77.9112 60.0732L69.2168 61.0591Z" fill="#F4ACC4"/>
<path d="M63.851 100.602C63.851 100.602 63.851 100.574 63.8558 100.521C63.863 100.461 63.8726 100.384 63.8846 100.285C63.9135 100.069 63.9568 99.7657 64.0096 99.3762C64.1251 98.5803 64.291 97.443 64.4929 96.0412C64.9089 93.2184 65.4788 89.3329 66.1087 85.0385C66.7267 80.7394 67.2508 76.8418 67.5947 74.0166C67.7702 72.6052 67.9024 71.4607 67.9914 70.6696C68.0371 70.2801 68.0731 69.9747 68.0972 69.7583C68.1092 69.6598 68.1212 69.5828 68.1284 69.5227C68.1357 69.4698 68.1405 69.4434 68.1429 69.4434C68.1429 69.4434 68.1429 69.4722 68.1429 69.5251C68.1381 69.5852 68.1333 69.6646 68.1236 69.7632C68.1044 69.9796 68.0756 70.2849 68.0395 70.6768C67.9649 71.4703 67.8447 72.6148 67.6812 74.0286C67.359 76.8562 66.8493 80.7562 66.2314 85.0578C65.6134 89.3569 65.0147 93.2425 64.5771 96.0557C64.3559 97.455 64.178 98.5923 64.0529 99.3858C63.9904 99.7729 63.9399 100.076 63.9039 100.29C63.887 100.388 63.8726 100.465 63.863 100.526C63.8534 100.578 63.8462 100.605 63.8437 100.605L63.851 100.602Z" fill="#263238"/>
<path d="M45.6949 14.4063L45.0529 8.36877L41.9729 9.06365L39.3184 4.375L40.9726 10.7131L44.096 9.99657L45.6949 14.4063Z" fill="#E8505B"/>
<path d="M44.4401 15.546L41.5788 12.6006L40.2299 14.2572L36.8613 12.8699L40.3862 15.5532L41.7495 13.8677L44.4401 15.546Z" fill="#E8505B"/>
<path d="M75.373 18.1498L77.9746 13.4179L80.2613 15.0457L84.0483 12.1123L80.5161 16.7432L78.1983 15.0842L75.373 18.1498Z" fill="#E8505B"/>
<path d="M80.1445 20.85L82.8351 19.7031L83.2655 21.1602L85.8599 21.177L82.8062 21.9681L82.3734 20.487L80.1445 20.85Z" fill="#E8505B"/>
<path d="M61.4819 2.46606C61.4819 2.46606 61.5901 2.39633 61.8065 2.26649C62.0253 2.14146 62.3523 1.95632 62.8092 1.76396C63.7108 1.37925 65.1487 0.907983 67.0626 0.980116C67.3007 0.992138 67.5459 1.00656 67.796 1.04023C68.046 1.06668 68.3033 1.10755 68.5606 1.17968C68.8179 1.25182 69.0751 1.34559 69.318 1.48745C69.5584 1.63172 69.7893 1.82167 69.9359 2.08135C70.0898 2.33622 70.1379 2.65601 70.085 2.96137C70.0249 3.26914 69.8542 3.54805 69.6402 3.78609C69.2002 4.25736 68.5991 4.58677 67.9499 4.80798C66.6611 5.28165 65.1751 5.53652 63.605 5.43073C62.0398 5.32734 60.3855 4.88011 58.8683 3.97845L58.8346 3.95921L58.8563 3.92555C59.4357 2.98061 60.3158 2.18955 61.3521 1.63172C62.3908 1.07389 63.5834 0.72765 64.8289 0.636281C66.0768 0.542508 67.3656 0.667539 68.652 0.946454C69.2939 1.08351 69.9383 1.25422 70.5827 1.45379C71.2247 1.65336 71.8787 1.86014 72.4942 2.18714C73.1074 2.50693 73.6796 2.97099 74.0355 3.59614C74.211 3.90872 74.3384 4.25496 74.3697 4.61803C74.4082 4.9811 74.3384 5.35379 74.1918 5.69041C73.8912 6.37327 73.2757 6.85656 72.6289 7.20039C71.9749 7.54904 71.2511 7.76784 70.5226 7.93855C67.606 8.65267 64.4226 8.77049 61.2559 8.17419C61.0563 8.14053 60.8616 8.09484 60.6644 8.05156C60.4673 8.01069 60.2701 7.965 60.0729 7.91451C59.6786 7.82074 59.2819 7.71494 58.902 7.55625C58.5221 7.40236 58.1518 7.2028 57.832 6.92869C57.5146 6.65699 57.2549 6.28671 57.1852 5.85872C57.1059 5.43554 57.2189 4.98591 57.4545 4.63005C57.6853 4.26938 58.0075 3.98085 58.3513 3.7332C58.6976 3.48554 59.0775 3.29078 59.4598 3.11285C59.6497 3.01667 59.8445 2.93492 60.0417 2.85077C60.2364 2.76421 60.4336 2.68486 60.6356 2.61273C62.2345 2.01402 63.9585 1.67981 65.7089 1.65336C66.5841 1.63893 67.4666 1.69904 68.3394 1.8361C68.5582 1.86976 68.777 1.90582 68.9934 1.95391C69.2098 1.9996 69.4286 2.04288 69.6426 2.10299C70.0754 2.20878 70.5082 2.33381 70.9193 2.51655C71.3329 2.69448 71.732 2.9229 72.0735 3.22586C72.4149 3.52641 72.6938 3.92315 72.802 4.37758L72.8381 4.5483L72.8525 4.72142C72.8693 4.83683 72.8501 4.95465 72.8453 5.07006C72.8092 5.29848 72.7515 5.52931 72.6433 5.73609C72.4437 6.15927 72.1216 6.50551 71.7729 6.80366C71.4219 7.10181 71.0275 7.34947 70.6188 7.56106C70.4144 7.66926 70.2028 7.76063 69.9912 7.84959C69.782 7.94336 69.568 8.02752 69.3516 8.11167C68.4933 8.44589 67.606 8.72 66.6995 8.92678C64.8866 9.34755 62.9991 9.50625 61.1116 9.38843C60.1691 9.32832 59.2097 9.13115 58.3634 8.66469C57.945 8.42906 57.5555 8.11648 57.2886 7.70292C57.0265 7.28936 56.9039 6.78923 56.9424 6.29873C56.976 5.89478 57.1227 5.51007 57.3343 5.17345C57.5459 4.83443 57.8128 4.53628 58.1061 4.2766C58.6976 3.75483 59.3925 3.36772 60.109 3.07198C61.5396 2.46365 63.064 2.10299 64.5933 1.98998C65.3579 1.93468 66.1249 1.93949 66.8847 2.00681C67.2646 2.04047 67.6421 2.08856 68.0148 2.15348C68.3875 2.21359 68.765 2.29294 69.1232 2.42037C69.4815 2.54781 69.8325 2.7041 70.1427 2.93011C70.4529 3.15132 70.7318 3.43985 70.8785 3.80292C71.0347 4.15878 71.0396 4.57475 70.9145 4.93782C70.7919 5.30329 70.5587 5.62068 70.2773 5.87314C69.7003 6.38288 68.9549 6.59688 68.2456 6.76759C67.5315 6.93831 66.8198 7.10662 66.1081 7.26291C64.687 7.57789 63.2612 7.84238 61.833 7.95538C60.4071 8.07561 58.9765 8.02271 57.5964 7.75101C56.221 7.4769 54.8986 6.96476 53.7637 6.18812L53.7012 6.14484L53.7565 6.09435C55.7329 4.35354 58.1975 3.31242 60.674 2.95656C63.153 2.5983 65.668 2.9205 67.8465 3.88227C68.1134 4.01692 68.3706 4.1708 68.5967 4.37037C68.8227 4.56513 69.0174 4.81038 69.116 5.09891C69.2122 5.38985 69.1954 5.70964 69.0727 5.98856C68.9477 6.26507 68.7385 6.48627 68.5053 6.6642C68.0364 7.02006 67.4834 7.21001 66.9472 7.39034C66.4062 7.56346 65.8556 7.6933 65.305 7.77986C64.1989 7.94817 63.0881 7.95058 62.0205 7.77986C61.7536 7.72937 61.4795 7.65483 61.2607 7.47209C61.0395 7.29417 60.9313 6.99121 60.9842 6.7147C61.0443 6.43819 61.2126 6.21217 61.405 6.02703C61.5973 5.83948 61.8209 5.69281 62.0542 5.57259C63.9585 4.71421 66.0095 4.44731 67.9138 4.65409C68.3899 4.70699 68.8611 4.79596 69.3011 4.97388C69.7388 5.147 70.1427 5.42111 70.4168 5.79861C70.6909 6.17129 70.852 6.63535 70.7991 7.09219C70.7486 7.55384 70.4577 7.94096 70.1259 8.22228C69.7917 8.50841 69.4142 8.71519 69.0463 8.92678C68.6736 9.12635 68.2961 9.30908 67.9114 9.45816C67.1468 9.76352 66.3701 9.97271 65.6031 10.0953C64.0691 10.343 62.588 10.242 61.2775 9.90779L61.2343 9.89577L61.2607 9.8597C61.8979 8.98448 62.7755 8.39059 63.6676 8.06358C64.562 7.73658 65.4805 7.65964 66.2932 7.80631C66.6995 7.87123 67.0867 8.00347 67.4041 8.22228C67.5603 8.33288 67.6974 8.46753 67.796 8.62382C67.8921 8.78011 67.9571 8.95563 67.9739 9.13116C68.0124 9.48461 67.8825 9.81642 67.7094 10.0785C67.5363 10.3454 67.3127 10.5498 67.0891 10.7205C66.6346 11.0619 66.1513 11.2062 65.7594 11.3673C65.3627 11.5188 65.0333 11.6582 64.7856 11.8001C64.538 11.9419 64.3673 12.079 64.2639 12.1776C64.2086 12.2257 64.1749 12.2689 64.1484 12.293C64.122 12.3194 64.11 12.3315 64.11 12.3315C64.11 12.3315 64.1557 12.2738 64.259 12.1704C64.3624 12.067 64.5307 11.9299 64.7784 11.7832C65.0261 11.639 65.3555 11.4947 65.7522 11.3408C66.1441 11.1797 66.625 11.0307 67.0722 10.6916C67.2934 10.5233 67.5123 10.3165 67.6806 10.0569C67.8513 9.79959 67.9739 9.47739 67.9354 9.13596C67.9186 8.96525 67.8561 8.79934 67.7623 8.64786C67.6661 8.49879 67.5339 8.36895 67.38 8.26075C67.0722 8.04916 66.6899 7.91932 66.2884 7.8544C65.4829 7.71254 64.574 7.79188 63.6892 8.11648C62.8068 8.44349 61.9412 9.03257 61.3136 9.89817L61.2968 9.85008C62.6 10.1795 64.0739 10.2781 65.5959 10.028C66.3557 9.90298 67.1275 9.69379 67.8873 9.39083C68.2696 9.24176 68.6423 9.05902 69.0126 8.86186C69.3757 8.65267 69.7532 8.44589 70.0778 8.16457C70.4024 7.89047 70.6741 7.52259 70.7222 7.08738C70.7703 6.65459 70.6188 6.20976 70.3519 5.85391C70.0898 5.49084 69.6979 5.22875 69.2723 5.05804C68.8443 4.88492 68.3802 4.79836 67.909 4.74546C66.0239 4.54109 63.9825 4.81279 62.1023 5.66155C61.8763 5.77937 61.6599 5.92123 61.4771 6.09916C61.2944 6.27468 61.1357 6.49108 61.0852 6.73634C61.0395 6.97918 61.1333 7.24367 61.3304 7.40236C61.5252 7.56587 61.7849 7.6404 62.0446 7.68609C63.1001 7.85199 64.2037 7.84959 65.2978 7.68128C65.8436 7.59472 66.3894 7.46488 66.9256 7.29416C67.4569 7.11383 68.0003 6.92629 68.4524 6.58245C68.676 6.41174 68.8732 6.20255 68.9862 5.94768C69.0968 5.69281 69.1112 5.39947 69.0246 5.13498C68.9333 4.87049 68.7529 4.63967 68.5341 4.45212C68.3177 4.26217 68.0677 4.11069 67.8056 3.97845C65.6536 3.0311 63.1554 2.70891 60.6957 3.06717C58.2407 3.42302 55.7978 4.45693 53.8406 6.18091L53.8358 6.08954C54.9563 6.85656 56.2643 7.36149 57.6276 7.63319C58.9933 7.90249 60.412 7.95298 61.8306 7.83276C63.2492 7.71975 64.6678 7.45526 66.0888 7.14269C66.7981 6.9864 67.5098 6.81809 68.224 6.64737C68.9285 6.47666 69.6546 6.26266 70.2028 5.77937C70.4721 5.53893 70.6909 5.23597 70.8063 4.89454C70.9217 4.55551 70.9169 4.17561 70.7727 3.8462C70.638 3.51199 70.3759 3.24029 70.0802 3.02629C69.782 2.80989 69.4406 2.65601 69.092 2.53338C68.7409 2.40835 68.3754 2.33141 68.0028 2.2713C67.6325 2.20638 67.2574 2.15829 66.8823 2.12703C66.1297 2.05971 65.3699 2.0549 64.6125 2.11261C63.0953 2.22321 61.5853 2.58147 60.1667 3.18498C59.455 3.47833 58.7745 3.85823 58.1975 4.36797C57.63 4.8729 57.1395 5.53893 57.0746 6.30835C57.0385 6.77 57.1539 7.24367 57.4016 7.63319C57.6517 8.02511 58.0268 8.32567 58.4307 8.55409C59.253 9.00612 60.1956 9.20329 61.1261 9.26099C63.0015 9.37881 64.877 9.22012 66.6779 8.80415C67.5796 8.59977 68.4596 8.32807 69.3132 7.99386C69.5272 7.9121 69.7388 7.82555 69.9479 7.73418C70.1595 7.64521 70.3663 7.55384 70.5683 7.44805C70.9698 7.24127 71.3569 6.99842 71.6984 6.70748C72.0374 6.41655 72.3476 6.07992 72.5375 5.68079C72.6409 5.48603 72.6938 5.26963 72.7275 5.05323C72.7323 4.94503 72.7491 4.83443 72.7347 4.72623L72.7227 4.56273L72.689 4.40163C72.5904 3.97604 72.3283 3.60095 71.9989 3.31242C71.6695 3.02148 71.2824 2.79787 70.8761 2.62475C70.4721 2.44682 70.0465 2.32179 69.6185 2.2184C69.4069 2.15829 69.1905 2.11501 68.9741 2.07173C68.7602 2.02364 68.5413 1.98517 68.3249 1.95391C67.4569 1.81686 66.5817 1.75675 65.7137 1.77118C63.9753 1.79762 62.2658 2.12703 60.6812 2.72093C60.4817 2.79066 60.2845 2.87 60.0922 2.95656C59.8974 3.03831 59.7026 3.12006 59.5151 3.21624C59.1328 3.39417 58.7601 3.58652 58.4235 3.82697C58.0869 4.06741 57.7767 4.34873 57.5555 4.69016C57.3319 5.02919 57.2285 5.44275 57.303 5.83708C57.3679 6.23381 57.6084 6.58005 57.9113 6.83973C58.2167 7.10181 58.5774 7.29657 58.9501 7.44805C59.3227 7.60434 59.7123 7.70773 60.1066 7.8015C60.3013 7.85199 60.4985 7.90008 60.6957 7.93855C60.8928 7.97943 61.0876 8.02752 61.2848 8.05878C64.4346 8.65267 67.6036 8.53966 70.5058 7.83035C71.2343 7.65964 71.9436 7.44564 72.588 7.10181C73.2252 6.76519 73.8191 6.29152 74.1052 5.64232C74.2423 5.32012 74.3096 4.96667 74.2759 4.62043C74.2447 4.27419 74.1244 3.93998 73.9537 3.63942C73.6099 3.0335 73.0569 2.58147 72.4534 2.26649C71.8499 1.9467 71.1983 1.73751 70.5587 1.54035C69.9167 1.34078 69.2771 1.17007 68.6375 1.03301C67.3584 0.754099 66.0768 0.629068 64.8409 0.720437C63.605 0.811805 62.4245 1.15083 61.3954 1.70145C60.3687 2.25206 59.4983 3.0311 58.926 3.96162L58.9116 3.90631C60.4144 4.80557 62.0566 5.2528 63.6123 5.35619C65.1727 5.46439 66.6515 5.21433 67.933 4.74787C68.5798 4.52906 69.1689 4.20446 69.6017 3.74522C69.8109 3.51439 69.9768 3.24269 70.0345 2.94935C70.085 2.65841 70.0417 2.35064 69.895 2.10539C69.7556 1.85533 69.532 1.67019 69.2963 1.52833C69.0583 1.38887 68.8034 1.29269 68.551 1.22296C68.2985 1.15083 68.0436 1.10996 67.7936 1.08351C67.5459 1.04984 67.3007 1.03301 67.065 1.02099C65.1583 0.941645 63.7229 1.4057 62.8212 1.7832C62.3644 1.97315 62.0349 2.15348 61.8161 2.27611C61.5997 2.40354 61.4867 2.46606 61.4867 2.46606L61.4819 2.46606Z" fill="#263238"/>
</svg>
