<svg width="24" height="25" viewBox="0 0 24 25" fill="none" xmlns="http://www.w3.org/2000/svg">
<path d="M6.4996 7.49991C7.96094 6.03856 9.59314 4.9189 10.6971 4.24078C11.5017 3.74656 12.4975 3.74656 13.3021 4.24078C14.4061 4.9189 16.0382 6.03856 17.4996 7.49991C20.668 10.6683 20.4996 12.4999 20.4996 15.4999C20.4996 16.9097 20.3892 18.0987 20.2721 18.9631C20.149 19.8725 19.3558 20.4999 18.438 20.4999H16.9996C15.895 20.4999 14.9996 19.6045 14.9996 18.4999V16.4999C14.9996 15.7043 14.6835 14.9412 14.1209 14.3786C13.5583 13.816 12.7952 13.4999 11.9996 13.4999C11.2039 13.4999 10.4409 13.816 9.87828 14.3786C9.31567 14.9412 8.9996 15.7043 8.9996 16.4999V18.4999C8.9996 19.6045 8.10417 20.4999 6.9996 20.4999H5.56115C4.64342 20.4999 3.85025 19.8725 3.72708 18.9631C3.61002 18.0987 3.4996 16.9097 3.4996 15.4999C3.4996 12.4999 3.3312 10.6683 6.4996 7.49991Z" stroke="#979797" stroke-width="1.5" stroke-linecap="round" stroke-linejoin="round"/>
</svg>
