<svg width="21" height="21" viewBox="0 0 21 21" fill="none" xmlns="http://www.w3.org/2000/svg">
<path d="M5.25 1.5C2.38235 1.5 1.5 2.38235 1.5 5.25C1.5 8.11765 2.38235 9 5.25 9C8.11765 9 9 8.11765 9 5.25C9 2.38235 8.11765 1.5 5.25 1.5Z" stroke="#979797" stroke-width="1.5" stroke-linecap="round" stroke-linejoin="round"/>
<path d="M5.25 12C2.38235 12 1.5 12.8824 1.5 15.75C1.5 18.6176 2.38235 19.5 5.25 19.5C8.11765 19.5 9 18.6176 9 15.75C9 12.8824 8.11765 12 5.25 12Z" stroke="#979797" stroke-width="1.5" stroke-linecap="round" stroke-linejoin="round"/>
<path d="M15.75 12C12.8824 12 12 12.8824 12 15.75C12 18.6176 12.8824 19.5 15.75 19.5C18.6176 19.5 19.5 18.6176 19.5 15.75C19.5 12.8824 18.6176 12 15.75 12Z" stroke="#979797" stroke-width="1.5" stroke-linecap="round" stroke-linejoin="round"/>
<path d="M15.75 1.5C12.8824 1.5 12 2.38235 12 5.25C12 8.11765 12.8824 9 15.75 9C18.6176 9 19.5 8.11765 19.5 5.25C19.5 2.38235 18.6176 1.5 15.75 1.5Z" stroke="#979797" stroke-width="1.5" stroke-linecap="round" stroke-linejoin="round"/>
</svg>
