<svg width="52" height="42" viewBox="0 0 52 42" fill="none" xmlns="http://www.w3.org/2000/svg">
<path fill-rule="evenodd" clip-rule="evenodd" d="M44.8557 17.8964C43.3755 8.76823 35.4732 1.7998 25.947 1.7998C16.4367 1.7998 8.54487 8.74505 7.04581 17.8508C6.60136 17.6535 6.10948 17.5438 5.59205 17.5438C3.60822 17.5438 2 19.1556 2 21.1438C2 23.132 3.60822 24.7438 5.59205 24.7438C6.12737 24.7438 6.63535 24.6264 7.09175 24.416C8.69978 33.3901 16.5299 40.1998 25.947 40.1998C35.3805 40.1998 43.2215 33.3664 44.8106 24.3692C45.2918 24.609 45.8341 24.7438 46.4079 24.7438C48.3918 24.7438 50 23.132 50 21.1438C50 19.1556 48.3918 17.5438 46.4079 17.5438C45.852 17.5438 45.3255 17.6704 44.8557 17.8964Z" fill="#FFEBD5" stroke="#263238" stroke-width="3.5" stroke-linecap="round" stroke-linejoin="round"/>
<path fill-rule="evenodd" clip-rule="evenodd" d="M25.1172 1.89211C29.0164 14.145 40.7095 9.46865 40.7095 9.46865C37.2308 4.81183 31.3311 1.41354 25.1172 1.89211Z" fill="#F7E07E" stroke="#263238" stroke-width="3.5" stroke-linecap="round" stroke-linejoin="round"/>
<path fill-rule="evenodd" clip-rule="evenodd" d="M26.2134 1.84475C22.3141 14.0976 10.6211 9.42129 10.6211 9.42129C14.0997 4.76447 19.9995 1.36618 26.2134 1.84475Z" fill="#F7E07E" stroke="#263238" stroke-width="3.5" stroke-linecap="round" stroke-linejoin="round"/>
<path d="M21.0827 18.2882C21.0827 16.8057 19.8929 15.604 18.4252 15.604C16.9574 15.604 15.7676 16.8057 15.7676 18.2882" stroke="#263238" stroke-width="3.5" stroke-linecap="round" stroke-linejoin="round"/>
<path d="M36.2702 18.2882C36.2702 16.8057 35.0804 15.604 33.6127 15.604C32.1449 15.604 30.9551 16.8057 30.9551 18.2882" stroke="#263238" stroke-width="3.5" stroke-linecap="round" stroke-linejoin="round"/>
<path d="M31.3335 24.8071C31.3335 27.772 28.9538 30.1755 26.0183 30.1755C23.0828 30.1755 20.7031 27.772 20.7031 24.8071" stroke="#263238" stroke-width="3.5" stroke-linecap="round" stroke-linejoin="round"/>
</svg>
