<svg width="24" height="25" viewBox="0 0 24 25" fill="none" xmlns="http://www.w3.org/2000/svg">
<path d="M12.5095 18.2915C12.1888 18.1289 11.8112 18.1289 11.4905 18.2915L7.37943 20.3751C6.50876 20.8164 5.52842 20.0193 5.76452 19.062L6.72576 15.1645C6.81767 14.7918 6.72079 14.3972 6.46729 14.1117L3.29416 10.5378C2.66165 9.82543 3.11095 8.68715 4.05367 8.61364L8.48026 8.26848C8.89433 8.23619 9.25828 7.97809 9.43013 7.59485L10.9627 4.17703C11.3675 3.27432 12.6325 3.27432 13.0373 4.17703L14.5699 7.59485C14.7417 7.97809 15.1057 8.23619 15.5197 8.26848L19.9463 8.61364C20.889 8.68715 21.3384 9.82543 20.7058 10.5378L17.5327 14.1117C17.2792 14.3972 17.1823 14.7918 17.2742 15.1645L18.2355 19.062C18.4716 20.0193 17.4912 20.8164 16.6206 20.3751L12.5095 18.2915Z" stroke="#B99AC8" stroke-width="1.5" stroke-linecap="round" stroke-linejoin="round"/>
</svg>
