<svg width="25" height="25" viewBox="0 0 25 25" fill="none" xmlns="http://www.w3.org/2000/svg">
<path d="M19.5 14.5C21.7091 14.5 23.5 16.5 23.5 18C23.5 18.8284 22.8284 19.5 22 19.5H21.5M17.5 11.5C19.1569 11.5 20.5 10.1569 20.5 8.5C20.5 6.84315 19.1569 5.5 17.5 5.5M5.5 14.5C3.29086 14.5 1.5 16.5 1.5 18C1.5 18.8284 2.17157 19.5 3 19.5H3.5M7.5 11.5C5.84315 11.5 4.5 10.1569 4.5 8.5C4.5 6.84315 5.84315 5.5 7.5 5.5M17 19.5H8C7.17157 19.5 6.5 18.8284 6.5 18C6.5 15.5 9.5 14.5 12.5 14.5C15.5 14.5 18.5 15.5 18.5 18C18.5 18.8284 17.8284 19.5 17 19.5ZM15.5 8.5C15.5 10.1569 14.1569 11.5 12.5 11.5C10.8431 11.5 9.5 10.1569 9.5 8.5C9.5 6.84315 10.8431 5.5 12.5 5.5C14.1569 5.5 15.5 6.84315 15.5 8.5Z" stroke="#979797" stroke-width="1.5" stroke-linecap="round" stroke-linejoin="round"/>
</svg>
